<?xml version="1.0" encoding="UTF-8" standalone="no"?><svg xmlns="http://www.w3.org/2000/svg" xmlns:xlink="http://www.w3.org/1999/xlink" contentStyleType="text/css" height="780px" preserveAspectRatio="none" style="width:1423px;height:780px;background:#FFFFFF;" version="1.1" viewBox="0 0 1423 780" width="1423px" zoomAndPan="magnify"><defs/><g><rect fill="#FFFFFF" height="587.6797" style="stroke:#181818;stroke-width:1.0;" width="10" x="44.5" y="92.6094"/><rect fill="#FFFFFF" height="30.3516" style="stroke:#181818;stroke-width:1.0;" width="10" x="517.5" y="114.9609"/><rect fill="#FFFFFF" height="30.3516" style="stroke:#181818;stroke-width:1.0;" width="10" x="517.5" y="175.6641"/><rect fill="#FFFFFF" height="218.4609" style="stroke:#181818;stroke-width:1.0;" width="10" x="517.5" y="236.3672"/><rect fill="#FFFFFF" height="195.1094" style="stroke:#181818;stroke-width:1.0;" width="10" x="517.5" y="485.1797"/><rect fill="#FFFFFF" height="188.1094" style="stroke:#181818;stroke-width:1.0;" width="10" x="847.5" y="266.7188"/><rect fill="#FFFFFF" height="164.7578" style="stroke:#181818;stroke-width:1.0;" width="10" x="847.5" y="515.5313"/><rect fill="#FFFFFF" height="157.7578" style="stroke:#181818;stroke-width:1.0;" width="10" x="1198" y="297.0703"/><rect fill="#FFFFFF" height="134.4063" style="stroke:#181818;stroke-width:1.0;" width="10" x="1198" y="545.8828"/><line style="stroke:#181818;stroke-width:0.5;stroke-dasharray:5.0,5.0;" x1="49" x2="49" y1="82.6094" y2="698.2891"/><line style="stroke:#181818;stroke-width:0.5;stroke-dasharray:5.0,5.0;" x1="522" x2="522" y1="82.6094" y2="698.2891"/><line style="stroke:#181818;stroke-width:0.5;stroke-dasharray:5.0,5.0;" x1="852" x2="852" y1="82.6094" y2="698.2891"/><line style="stroke:#181818;stroke-width:0.5;stroke-dasharray:5.0,5.0;" x1="1063" x2="1063" y1="82.6094" y2="698.2891"/><line style="stroke:#181818;stroke-width:0.5;stroke-dasharray:5.0,5.0;" x1="1203" x2="1203" y1="82.6094" y2="698.2891"/><line style="stroke:#181818;stroke-width:0.5;stroke-dasharray:5.0,5.0;" x1="1377" x2="1377" y1="82.6094" y2="698.2891"/><text fill="#000000" font-family="sans-serif" font-size="14" lengthAdjust="spacing" textLength="83" x="5" y="79.5332">Administrator</text><ellipse cx="49.5" cy="13.5" fill="#E2E2F0" rx="8" ry="8" style="stroke:#181818;stroke-width:0.5;"/><path d="M49.5,21.5 L49.5,48.5 M36.5,29.5 L62.5,29.5 M49.5,48.5 L36.5,63.5 M49.5,48.5 L62.5,63.5 " fill="none" style="stroke:#181818;stroke-width:0.5;"/><text fill="#000000" font-family="sans-serif" font-size="14" lengthAdjust="spacing" textLength="83" x="5" y="711.8223">Administrator</text><ellipse cx="49.5" cy="723.3984" fill="#E2E2F0" rx="8" ry="8" style="stroke:#181818;stroke-width:0.5;"/><path d="M49.5,731.3984 L49.5,758.3984 M36.5,739.3984 L62.5,739.3984 M49.5,758.3984 L36.5,773.3984 M49.5,758.3984 L62.5,773.3984 " fill="none" style="stroke:#181818;stroke-width:0.5;"/><rect fill="#E2E2F0" height="31.6094" rx="2.5" ry="2.5" style="stroke:#181818;stroke-width:0.5;" width="171" x="437" y="50"/><text fill="#000000" font-family="sans-serif" font-size="14" lengthAdjust="spacing" textLength="157" x="444" y="71.5332">:RegisterNewEmployeeUI</text><rect fill="#E2E2F0" height="31.6094" rx="2.5" ry="2.5" style="stroke:#181818;stroke-width:0.5;" width="171" x="437" y="697.2891"/><text fill="#000000" font-family="sans-serif" font-size="14" lengthAdjust="spacing" textLength="157" x="444" y="718.8223">:RegisterNewEmployeeUI</text><rect fill="#E2E2F0" height="31.6094" rx="2.5" ry="2.5" style="stroke:#181818;stroke-width:0.5;" width="221" x="742" y="50"/><text fill="#000000" font-family="sans-serif" font-size="14" lengthAdjust="spacing" textLength="207" x="749" y="71.5332">:RegisterNewEmployeeController</text><rect fill="#E2E2F0" height="31.6094" rx="2.5" ry="2.5" style="stroke:#181818;stroke-width:0.5;" width="221" x="742" y="697.2891"/><text fill="#000000" font-family="sans-serif" font-size="14" lengthAdjust="spacing" textLength="207" x="749" y="718.8223">:RegisterNewEmployeeController</text><rect fill="#E2E2F0" height="49.2188" rx="2.5" ry="2.5" style="stroke:#181818;stroke-width:0.5;" width="181" x="973" y="32.3906"/><text fill="#000000" font-family="sans-serif" font-size="14" lengthAdjust="spacing" textLength="158" x="984.5" y="53.9238">registerNewEmployeeDto</text><text fill="#000000" font-family="sans-serif" font-size="14" lengthAdjust="spacing" textLength="167" x="980" y="71.5332">:RegisterNewEmployeeDto</text><rect fill="#E2E2F0" height="49.2188" rx="2.5" ry="2.5" style="stroke:#181818;stroke-width:0.5;" width="181" x="973" y="697.2891"/><text fill="#000000" font-family="sans-serif" font-size="14" lengthAdjust="spacing" textLength="158" x="984.5" y="718.8223">registerNewEmployeeDto</text><text fill="#000000" font-family="sans-serif" font-size="14" lengthAdjust="spacing" textLength="167" x="980" y="736.4316">:RegisterNewEmployeeDto</text><rect fill="#E2E2F0" height="31.6094" rx="2.5" ry="2.5" style="stroke:#181818;stroke-width:0.5;" width="78" x="1164" y="50"/><text fill="#000000" font-family="sans-serif" font-size="14" lengthAdjust="spacing" textLength="64" x="1171" y="71.5332">:Company</text><rect fill="#E2E2F0" height="31.6094" rx="2.5" ry="2.5" style="stroke:#181818;stroke-width:0.5;" width="78" x="1164" y="697.2891"/><text fill="#000000" font-family="sans-serif" font-size="14" lengthAdjust="spacing" textLength="64" x="1171" y="718.8223">:Company</text><rect fill="#E2E2F0" height="31.6094" rx="2.5" ry="2.5" style="stroke:#181818;stroke-width:0.5;" width="80" x="1337" y="50"/><text fill="#000000" font-family="sans-serif" font-size="14" lengthAdjust="spacing" textLength="66" x="1344" y="71.5332">:Employee</text><rect fill="#E2E2F0" height="31.6094" rx="2.5" ry="2.5" style="stroke:#181818;stroke-width:0.5;" width="80" x="1337" y="697.2891"/><text fill="#000000" font-family="sans-serif" font-size="14" lengthAdjust="spacing" textLength="66" x="1344" y="718.8223">:Employee</text><rect fill="#FFFFFF" height="587.6797" style="stroke:#181818;stroke-width:1.0;" width="10" x="44.5" y="92.6094"/><rect fill="#FFFFFF" height="30.3516" style="stroke:#181818;stroke-width:1.0;" width="10" x="517.5" y="114.9609"/><rect fill="#FFFFFF" height="30.3516" style="stroke:#181818;stroke-width:1.0;" width="10" x="517.5" y="175.6641"/><rect fill="#FFFFFF" height="218.4609" style="stroke:#181818;stroke-width:1.0;" width="10" x="517.5" y="236.3672"/><rect fill="#FFFFFF" height="195.1094" style="stroke:#181818;stroke-width:1.0;" width="10" x="517.5" y="485.1797"/><rect fill="#FFFFFF" height="188.1094" style="stroke:#181818;stroke-width:1.0;" width="10" x="847.5" y="266.7188"/><rect fill="#FFFFFF" height="164.7578" style="stroke:#181818;stroke-width:1.0;" width="10" x="847.5" y="515.5313"/><rect fill="#FFFFFF" height="157.7578" style="stroke:#181818;stroke-width:1.0;" width="10" x="1198" y="297.0703"/><rect fill="#FFFFFF" height="134.4063" style="stroke:#181818;stroke-width:1.0;" width="10" x="1198" y="545.8828"/><polygon fill="#181818" points="505.5,110.9609,515.5,114.9609,505.5,118.9609,509.5,114.9609" style="stroke:#181818;stroke-width:1.0;"/><line style="stroke:#181818;stroke-width:1.0;" x1="54.5" x2="511.5" y1="114.9609" y2="114.9609"/><text fill="#000000" font-family="sans-serif" font-size="13" font-weight="bold" lengthAdjust="spacing" textLength="7" x="61.5" y="110.1045">1</text><text fill="#000000" font-family="sans-serif" font-size="13" lengthAdjust="spacing" textLength="188" x="72.5" y="110.1045">asks to register a new employee</text><polygon fill="#181818" points="65.5,141.3125,55.5,145.3125,65.5,149.3125,61.5,145.3125" style="stroke:#181818;stroke-width:1.0;"/><line style="stroke:#181818;stroke-width:1.0;stroke-dasharray:2.0,2.0;" x1="59.5" x2="521.5" y1="145.3125" y2="145.3125"/><text fill="#000000" font-family="sans-serif" font-size="13" font-weight="bold" lengthAdjust="spacing" textLength="7" x="71.5" y="140.4561">2</text><text fill="#000000" font-family="sans-serif" font-size="13" lengthAdjust="spacing" textLength="409" x="82.5" y="140.4561">shows a list with role options (Centre Coordinator, Nurse, Receptionist)</text><polygon fill="#181818" points="505.5,171.6641,515.5,175.6641,505.5,179.6641,509.5,175.6641" style="stroke:#181818;stroke-width:1.0;"/><line style="stroke:#181818;stroke-width:1.0;" x1="54.5" x2="511.5" y1="175.6641" y2="175.6641"/><text fill="#000000" font-family="sans-serif" font-size="13" font-weight="bold" lengthAdjust="spacing" textLength="7" x="61.5" y="170.8076">3</text><text fill="#000000" font-family="sans-serif" font-size="13" lengthAdjust="spacing" textLength="78" x="72.5" y="170.8076">selects a role</text><polygon fill="#181818" points="65.5,202.0156,55.5,206.0156,65.5,210.0156,61.5,206.0156" style="stroke:#181818;stroke-width:1.0;"/><line style="stroke:#181818;stroke-width:1.0;stroke-dasharray:2.0,2.0;" x1="59.5" x2="521.5" y1="206.0156" y2="206.0156"/><text fill="#000000" font-family="sans-serif" font-size="13" font-weight="bold" lengthAdjust="spacing" textLength="7" x="71.5" y="201.1592">4</text><text fill="#000000" font-family="sans-serif" font-size="13" lengthAdjust="spacing" textLength="428" x="82.5" y="201.1592">requests data (name, address, phone number, email, citizen card number)</text><polygon fill="#181818" points="505.5,232.3672,515.5,236.3672,505.5,240.3672,509.5,236.3672" style="stroke:#181818;stroke-width:1.0;"/><line style="stroke:#181818;stroke-width:1.0;" x1="54.5" x2="511.5" y1="236.3672" y2="236.3672"/><text fill="#000000" font-family="sans-serif" font-size="13" font-weight="bold" lengthAdjust="spacing" textLength="7" x="61.5" y="231.5107">5</text><text fill="#000000" font-family="sans-serif" font-size="13" lengthAdjust="spacing" textLength="122" x="72.5" y="231.5107">types requested data</text><polygon fill="#181818" points="835.5,262.7188,845.5,266.7188,835.5,270.7188,839.5,266.7188" style="stroke:#181818;stroke-width:1.0;"/><line style="stroke:#181818;stroke-width:1.0;" x1="527.5" x2="841.5" y1="266.7188" y2="266.7188"/><text fill="#000000" font-family="sans-serif" font-size="13" font-weight="bold" lengthAdjust="spacing" textLength="7" x="534.5" y="261.8623">6</text><text fill="#000000" font-family="sans-serif" font-size="13" lengthAdjust="spacing" textLength="280" x="545.5" y="261.8623">registerNewEmployee(registerNewEmployeeDto)</text><polygon fill="#181818" points="1186,293.0703,1196,297.0703,1186,301.0703,1190,297.0703" style="stroke:#181818;stroke-width:1.0;"/><line style="stroke:#181818;stroke-width:1.0;" x1="857.5" x2="1192" y1="297.0703" y2="297.0703"/><text fill="#000000" font-family="sans-serif" font-size="13" font-weight="bold" lengthAdjust="spacing" textLength="7" x="864.5" y="292.2139">7</text><text fill="#000000" font-family="sans-serif" font-size="13" lengthAdjust="spacing" textLength="280" x="875.5" y="292.2139">registerNewEmployee(registerNewEmployeeDto)</text><path d="M990,310.0703 L990,336.0703 L1275,336.0703 L1275,320.0703 L1265,310.0703 L990,310.0703 " fill="#FEFFDD" style="stroke:#181818;stroke-width:0.5;"/><path d="M1265,310.0703 L1265,320.0703 L1275,320.0703 L1265,310.0703 " fill="#FEFFDD" style="stroke:#181818;stroke-width:0.5;"/><text fill="#000000" font-family="sans-serif" font-size="13" lengthAdjust="spacing" textLength="264" x="996" y="328.5654">Several interactions to extract data from DTO.</text><polygon fill="#181818" points="1365,359.7734,1375,363.7734,1365,367.7734,1369,363.7734" style="stroke:#181818;stroke-width:1.0;"/><line style="stroke:#181818;stroke-width:1.0;" x1="1208" x2="1371" y1="363.7734" y2="363.7734"/><text fill="#000000" font-family="sans-serif" font-size="13" font-weight="bold" lengthAdjust="spacing" textLength="7" x="1215" y="358.917">8</text><text fill="#000000" font-family="sans-serif" font-size="13" lengthAdjust="spacing" textLength="134" x="1226" y="358.917">validateEmployee(emp)</text><polygon fill="#181818" points="868.5,390.125,858.5,394.125,868.5,398.125,864.5,394.125" style="stroke:#181818;stroke-width:1.0;"/><line style="stroke:#181818;stroke-width:1.0;stroke-dasharray:2.0,2.0;" x1="862.5" x2="1197" y1="394.125" y2="394.125"/><text fill="#000000" font-family="sans-serif" font-size="13" font-weight="bold" lengthAdjust="spacing" textLength="7" x="874.5" y="389.2686">9</text><text fill="#000000" font-family="sans-serif" font-size="13" lengthAdjust="spacing" textLength="185" x="885.5" y="389.2686">result of the employee validation</text><polygon fill="#181818" points="538.5,420.4766,528.5,424.4766,538.5,428.4766,534.5,424.4766" style="stroke:#181818;stroke-width:1.0;"/><line style="stroke:#181818;stroke-width:1.0;stroke-dasharray:2.0,2.0;" x1="532.5" x2="846.5" y1="424.4766" y2="424.4766"/><text fill="#000000" font-family="sans-serif" font-size="13" font-weight="bold" lengthAdjust="spacing" textLength="14" x="544.5" y="419.6201">10</text><text fill="#000000" font-family="sans-serif" font-size="13" lengthAdjust="spacing" textLength="185" x="562.5" y="419.6201">result of the employee validation</text><polygon fill="#181818" points="65.5,450.8281,55.5,454.8281,65.5,458.8281,61.5,454.8281" style="stroke:#181818;stroke-width:1.0;"/><line style="stroke:#181818;stroke-width:1.0;stroke-dasharray:2.0,2.0;" x1="59.5" x2="521.5" y1="454.8281" y2="454.8281"/><text fill="#000000" font-family="sans-serif" font-size="13" font-weight="bold" lengthAdjust="spacing" textLength="14" x="71.5" y="449.9717">11</text><text fill="#000000" font-family="sans-serif" font-size="13" lengthAdjust="spacing" textLength="236" x="89.5" y="449.9717">shows all data and requests confirmation</text><polygon fill="#181818" points="505.5,481.1797,515.5,485.1797,505.5,489.1797,509.5,485.1797" style="stroke:#181818;stroke-width:1.0;"/><line style="stroke:#181818;stroke-width:1.0;" x1="54.5" x2="511.5" y1="485.1797" y2="485.1797"/><text fill="#000000" font-family="sans-serif" font-size="13" font-weight="bold" lengthAdjust="spacing" textLength="14" x="61.5" y="480.3232">12</text><text fill="#000000" font-family="sans-serif" font-size="13" lengthAdjust="spacing" textLength="100" x="79.5" y="480.3232">confirms the data</text><polygon fill="#181818" points="835.5,511.5313,845.5,515.5313,835.5,519.5313,839.5,515.5313" style="stroke:#181818;stroke-width:1.0;"/><line style="stroke:#181818;stroke-width:1.0;" x1="527.5" x2="841.5" y1="515.5313" y2="515.5313"/><text fill="#000000" font-family="sans-serif" font-size="13" font-weight="bold" lengthAdjust="spacing" textLength="14" x="534.5" y="510.6748">13</text><text fill="#000000" font-family="sans-serif" font-size="13" lengthAdjust="spacing" textLength="283" x="552.5" y="510.6748">saveCreatedEmployee(registerNewEmployeeDto)</text><polygon fill="#181818" points="1186,541.8828,1196,545.8828,1186,549.8828,1190,545.8828" style="stroke:#181818;stroke-width:1.0;"/><line style="stroke:#181818;stroke-width:1.0;" x1="857.5" x2="1192" y1="545.8828" y2="545.8828"/><text fill="#000000" font-family="sans-serif" font-size="13" font-weight="bold" lengthAdjust="spacing" textLength="14" x="864.5" y="541.0264">14</text><text fill="#000000" font-family="sans-serif" font-size="13" lengthAdjust="spacing" textLength="283" x="882.5" y="541.0264">saveCreatedEmployee(registerNewEmployeeDto)</text><line style="stroke:#181818;stroke-width:1.0;" x1="1208" x2="1250" y1="576.2344" y2="576.2344"/><line style="stroke:#181818;stroke-width:1.0;" x1="1250" x2="1250" y1="576.2344" y2="589.2344"/><line style="stroke:#181818;stroke-width:1.0;" x1="1209" x2="1250" y1="589.2344" y2="589.2344"/><polygon fill="#181818" points="1219,585.2344,1209,589.2344,1219,593.2344,1215,589.2344" style="stroke:#181818;stroke-width:1.0;"/><text fill="#000000" font-family="sans-serif" font-size="13" font-weight="bold" lengthAdjust="spacing" textLength="14" x="1215" y="571.3779">15</text><text fill="#000000" font-family="sans-serif" font-size="13" lengthAdjust="spacing" textLength="112" x="1233" y="571.3779">addEmployee(emp)</text><polygon fill="#181818" points="868.5,615.5859,858.5,619.5859,868.5,623.5859,864.5,619.5859" style="stroke:#181818;stroke-width:1.0;"/><line style="stroke:#181818;stroke-width:1.0;stroke-dasharray:2.0,2.0;" x1="862.5" x2="1197" y1="619.5859" y2="619.5859"/><text fill="#000000" font-family="sans-serif" font-size="13" font-weight="bold" lengthAdjust="spacing" textLength="14" x="874.5" y="614.7295">16</text><text fill="#000000" font-family="sans-serif" font-size="13" lengthAdjust="spacing" textLength="125" x="892.5" y="614.7295">result of the operation</text><polygon fill="#181818" points="538.5,645.9375,528.5,649.9375,538.5,653.9375,534.5,649.9375" style="stroke:#181818;stroke-width:1.0;"/><line style="stroke:#181818;stroke-width:1.0;stroke-dasharray:2.0,2.0;" x1="532.5" x2="846.5" y1="649.9375" y2="649.9375"/><text fill="#000000" font-family="sans-serif" font-size="13" font-weight="bold" lengthAdjust="spacing" textLength="14" x="544.5" y="645.0811">17</text><text fill="#000000" font-family="sans-serif" font-size="13" lengthAdjust="spacing" textLength="125" x="562.5" y="645.0811">result of the operation</text><polygon fill="#181818" points="60.5,676.2891,50.5,680.2891,60.5,684.2891,56.5,680.2891" style="stroke:#181818;stroke-width:1.0;"/><line style="stroke:#181818;stroke-width:1.0;stroke-dasharray:2.0,2.0;" x1="54.5" x2="521.5" y1="680.2891" y2="680.2891"/><text fill="#000000" font-family="sans-serif" font-size="13" font-weight="bold" lengthAdjust="spacing" textLength="14" x="66.5" y="675.4326">18</text><text fill="#000000" font-family="sans-serif" font-size="13" lengthAdjust="spacing" textLength="152" x="84.5" y="675.4326">informs operation success</text><!--MD5=[1a19037241e4b1571c2a66e1c3936071]
@startuml
autonumber

actor "Administrator" as A

participant ":RegisterNewEmployeeUI" as UI
participant ":RegisterNewEmployeeController" as CTRL
participant "registerNewEmployeeDto\n:RegisterNewEmployeeDto" as DTO
participant ":Company" as C
participant ":Employee" as E

activate A
A -> UI : asks to register a new employee
activate UI
UI - -> A : shows a list with role options (Centre Coordinator, Nurse, Receptionist)
deactivate UI

A -> UI : selects a role
activate UI
UI - -> A : requests data (name, address, phone number, email, citizen card number)
deactivate UI

A -> UI : types requested data
activate UI

UI -> CTRL : registerNewEmployee(registerNewEmployeeDto)
activate CTRL

CTRL -> C : registerNewEmployee(registerNewEmployeeDto)

note over DTO, C : Several interactions to extract data from DTO.

activate C
C -> E : validateEmployee(emp)

C - -> CTRL : result of the employee validation

CTRL - -> UI : result of the employee validation

UI - -> A: shows all data and requests confirmation

deactivate E
deactivate C
deactivate CTRL
deactivate UI

A -> UI : confirms the data
activate UI
UI -> CTRL : saveCreatedEmployee(registerNewEmployeeDto)
activate CTRL
CTRL -> C : saveCreatedEmployee(registerNewEmployeeDto)
activate C

C -> C : addEmployee(emp)

C - -> CTRL : result of the operation

CTRL - -> UI: result of the operation

UI - -> A : informs operation success

deactivate C
deactivate CTRL
deactivate UI
deactivate A

@enduml

PlantUML version 1.2022.4(Sat Apr 09 14:29:17 BST 2022)
(GPL source distribution)
Java Runtime: OpenJDK Runtime Environment
JVM: OpenJDK 64-Bit Server VM
Default Encoding: Cp1252
Language: en
Country: US
--></g></svg>