<?xml version="1.0" encoding="UTF-8" standalone="no"?><svg xmlns="http://www.w3.org/2000/svg" xmlns:xlink="http://www.w3.org/1999/xlink" contentStyleType="text/css" height="438px" preserveAspectRatio="none" style="width:413px;height:438px;background:#FFFFFF;" version="1.1" viewBox="0 0 413 438" width="413px" zoomAndPan="magnify"><defs/><g><!--MD5=[02e4b9b7573f1156f41e60aa5b4e25a4]
class Company--><g id="elem_Company"><rect codeLine="2" fill="#F1F1F1" height="48" id="Company" rx="2.5" ry="2.5" style="stroke:#181818;stroke-width:0.5;" width="92" x="140.5" y="7"/><ellipse cx="155.5" cy="23" fill="#ADD1B2" rx="11" ry="11" style="stroke:#181818;stroke-width:1.0;"/><path d="M157.5,19.5 Q157.7031,19 157.9375,18.75 Q158.1719,18.5 158.4375,18.5 Q158.9063,18.5 159.2031,18.7813 Q159.5,19.0625 159.5,19.7188 L159.5,21.2813 Q159.5,21.9375 159.2188,22.2188 Q158.9375,22.5 158.5,22.5 Q158.1094,22.5 157.8594,22.3281 Q157.6094,22.1563 157.5,21.7031 Q157.4531,21.3906 157.2813,21.2188 Q156.9688,20.8906 156.4063,20.7031 Q155.8438,20.5 155.2813,20.5 Q154.5781,20.5 153.9844,20.7813 Q153.4063,21.0625 152.9531,21.6875 Q152.5,22.3125 152.5,23.1719 L152.5,24.0938 Q152.5,25.125 153.3438,25.8125 Q154.1875,26.5 155.6875,26.5 Q156.5781,26.5 157.2031,26.2969 Q157.5625,26.1875 157.9688,25.8281 Q158.2344,25.625 158.375,25.5625 Q158.5156,25.5 158.6875,25.5 Q159.0156,25.5 159.25,25.7656 Q159.5,26.0156 159.5,26.375 Q159.5,26.7188 159.1563,27.125 Q158.6563,27.7188 157.8594,28.0469 Q156.8125,28.5 155.5313,28.5 Q154.0313,28.5 152.8281,27.9063 Q151.8594,27.4375 151.1719,26.4219 Q150.5,25.4063 150.5,24.2031 L150.5,23.1094 Q150.5,21.8594 151.0938,20.7656 Q151.7031,19.6719 152.75,19.0938 Q153.8125,18.5 155,18.5 Q155.7188,18.5 156.3438,18.75 Q156.9688,19 157.5,19.5 Z " fill="#000000"/><text fill="#000000" font-family="sans-serif" font-size="14" lengthAdjust="spacing" textLength="60" x="169.5" y="28.7285">Company</text><line style="stroke:#181818;stroke-width:0.5;" x1="141.5" x2="231.5" y1="39" y2="39"/><line style="stroke:#181818;stroke-width:0.5;" x1="141.5" x2="231.5" y1="47" y2="47"/></g><!--MD5=[7421f545a0d8420c5bec41e74b387d9c]
class Employee--><g id="elem_Employee"><rect codeLine="4" fill="#F1F1F1" height="188.875" id="Employee" rx="2.5" ry="2.5" style="stroke:#181818;stroke-width:0.5;" width="168" x="102.5" y="133"/><ellipse cx="151.25" cy="149" fill="#ADD1B2" rx="11" ry="11" style="stroke:#181818;stroke-width:1.0;"/><path d="M153.25,145.5 Q153.4531,145 153.6875,144.75 Q153.9219,144.5 154.1875,144.5 Q154.6563,144.5 154.9531,144.7813 Q155.25,145.0625 155.25,145.7188 L155.25,147.2813 Q155.25,147.9375 154.9688,148.2188 Q154.6875,148.5 154.25,148.5 Q153.8594,148.5 153.6094,148.3281 Q153.3594,148.1563 153.25,147.7031 Q153.2031,147.3906 153.0313,147.2188 Q152.7188,146.8906 152.1563,146.7031 Q151.5938,146.5 151.0313,146.5 Q150.3281,146.5 149.7344,146.7813 Q149.1563,147.0625 148.7031,147.6875 Q148.25,148.3125 148.25,149.1719 L148.25,150.0938 Q148.25,151.125 149.0938,151.8125 Q149.9375,152.5 151.4375,152.5 Q152.3281,152.5 152.9531,152.2969 Q153.3125,152.1875 153.7188,151.8281 Q153.9844,151.625 154.125,151.5625 Q154.2656,151.5 154.4375,151.5 Q154.7656,151.5 155,151.7656 Q155.25,152.0156 155.25,152.375 Q155.25,152.7188 154.9063,153.125 Q154.4063,153.7188 153.6094,154.0469 Q152.5625,154.5 151.2813,154.5 Q149.7813,154.5 148.5781,153.9063 Q147.6094,153.4375 146.9219,152.4219 Q146.25,151.4063 146.25,150.2031 L146.25,149.1094 Q146.25,147.8594 146.8438,146.7656 Q147.4531,145.6719 148.5,145.0938 Q149.5625,144.5 150.75,144.5 Q151.4688,144.5 152.0938,144.75 Q152.7188,145 153.25,145.5 Z " fill="#000000"/><text fill="#000000" font-family="sans-serif" font-size="14" lengthAdjust="spacing" textLength="62" x="171.75" y="154.7285">Employee</text><line style="stroke:#181818;stroke-width:0.5;" x1="103.5" x2="269.5" y1="165" y2="165"/><text fill="#000000" font-family="sans-serif" font-size="16" font-weight="bold" lengthAdjust="spacing" textLength="19" x="108.5" y="185.6094">-id</text><text fill="#000000" font-family="sans-serif" font-size="16" font-weight="bold" lengthAdjust="spacing" textLength="47" x="108.5" y="205.7344">-name</text><text fill="#000000" font-family="sans-serif" font-size="16" font-weight="bold" lengthAdjust="spacing" textLength="67" x="108.5" y="225.8594">-address</text><text fill="#000000" font-family="sans-serif" font-size="16" font-weight="bold" lengthAdjust="spacing" textLength="117" x="108.5" y="245.9844">-phone number</text><text fill="#000000" font-family="sans-serif" font-size="16" font-weight="bold" lengthAdjust="spacing" textLength="45" x="108.5" y="266.1094">-email</text><text fill="#000000" font-family="sans-serif" font-size="16" font-weight="bold" lengthAdjust="spacing" textLength="156" x="108.5" y="286.2344">-citizen card number</text><text fill="#000000" font-family="sans-serif" font-size="16" font-weight="bold" lengthAdjust="spacing" textLength="81" x="108.5" y="306.3594">-password</text><line style="stroke:#181818;stroke-width:0.5;" x1="103.5" x2="269.5" y1="313.875" y2="313.875"/></g><!--MD5=[a059576e163b46f56762f12600c49258]
class Nurse--><g id="elem_Nurse"><rect codeLine="14" fill="#F1F1F1" height="48" id="Nurse" rx="2.5" ry="2.5" style="stroke:#181818;stroke-width:0.5;" width="69" x="7" y="383"/><ellipse cx="22" cy="399" fill="#ADD1B2" rx="11" ry="11" style="stroke:#181818;stroke-width:1.0;"/><path d="M24,395.5 Q24.2031,395 24.4375,394.75 Q24.6719,394.5 24.9375,394.5 Q25.4063,394.5 25.7031,394.7813 Q26,395.0625 26,395.7188 L26,397.2813 Q26,397.9375 25.7188,398.2188 Q25.4375,398.5 25,398.5 Q24.6094,398.5 24.3594,398.3281 Q24.1094,398.1563 24,397.7031 Q23.9531,397.3906 23.7813,397.2188 Q23.4688,396.8906 22.9063,396.7031 Q22.3438,396.5 21.7813,396.5 Q21.0781,396.5 20.4844,396.7813 Q19.9063,397.0625 19.4531,397.6875 Q19,398.3125 19,399.1719 L19,400.0938 Q19,401.125 19.8438,401.8125 Q20.6875,402.5 22.1875,402.5 Q23.0781,402.5 23.7031,402.2969 Q24.0625,402.1875 24.4688,401.8281 Q24.7344,401.625 24.875,401.5625 Q25.0156,401.5 25.1875,401.5 Q25.5156,401.5 25.75,401.7656 Q26,402.0156 26,402.375 Q26,402.7188 25.6563,403.125 Q25.1563,403.7188 24.3594,404.0469 Q23.3125,404.5 22.0313,404.5 Q20.5313,404.5 19.3281,403.9063 Q18.3594,403.4375 17.6719,402.4219 Q17,401.4063 17,400.2031 L17,399.1094 Q17,397.8594 17.5938,396.7656 Q18.2031,395.6719 19.25,395.0938 Q20.3125,394.5 21.5,394.5 Q22.2188,394.5 22.8438,394.75 Q23.4688,395 24,395.5 Z " fill="#000000"/><text fill="#000000" font-family="sans-serif" font-size="14" lengthAdjust="spacing" textLength="37" x="36" y="404.7285">Nurse</text><line style="stroke:#181818;stroke-width:0.5;" x1="8" x2="75" y1="415" y2="415"/><line style="stroke:#181818;stroke-width:0.5;" x1="8" x2="75" y1="423" y2="423"/></g><!--MD5=[2d935fd2dd068a13da1ae531f9857c4f]
class CenterCoordinator--><g id="elem_CenterCoordinator"><rect codeLine="16" fill="#F1F1F1" height="48" id="CenterCoordinator" rx="2.5" ry="2.5" style="stroke:#181818;stroke-width:0.5;" width="150" x="111.5" y="383"/><ellipse cx="126.5" cy="399" fill="#ADD1B2" rx="11" ry="11" style="stroke:#181818;stroke-width:1.0;"/><path d="M128.5,395.5 Q128.7031,395 128.9375,394.75 Q129.1719,394.5 129.4375,394.5 Q129.9063,394.5 130.2031,394.7813 Q130.5,395.0625 130.5,395.7188 L130.5,397.2813 Q130.5,397.9375 130.2188,398.2188 Q129.9375,398.5 129.5,398.5 Q129.1094,398.5 128.8594,398.3281 Q128.6094,398.1563 128.5,397.7031 Q128.4531,397.3906 128.2813,397.2188 Q127.9688,396.8906 127.4063,396.7031 Q126.8438,396.5 126.2813,396.5 Q125.5781,396.5 124.9844,396.7813 Q124.4063,397.0625 123.9531,397.6875 Q123.5,398.3125 123.5,399.1719 L123.5,400.0938 Q123.5,401.125 124.3438,401.8125 Q125.1875,402.5 126.6875,402.5 Q127.5781,402.5 128.2031,402.2969 Q128.5625,402.1875 128.9688,401.8281 Q129.2344,401.625 129.375,401.5625 Q129.5156,401.5 129.6875,401.5 Q130.0156,401.5 130.25,401.7656 Q130.5,402.0156 130.5,402.375 Q130.5,402.7188 130.1563,403.125 Q129.6563,403.7188 128.8594,404.0469 Q127.8125,404.5 126.5313,404.5 Q125.0313,404.5 123.8281,403.9063 Q122.8594,403.4375 122.1719,402.4219 Q121.5,401.4063 121.5,400.2031 L121.5,399.1094 Q121.5,397.8594 122.0938,396.7656 Q122.7031,395.6719 123.75,395.0938 Q124.8125,394.5 126,394.5 Q126.7188,394.5 127.3438,394.75 Q127.9688,395 128.5,395.5 Z " fill="#000000"/><text fill="#000000" font-family="sans-serif" font-size="14" lengthAdjust="spacing" textLength="118" x="140.5" y="404.7285">CenterCoordinator</text><line style="stroke:#181818;stroke-width:0.5;" x1="112.5" x2="260.5" y1="415" y2="415"/><line style="stroke:#181818;stroke-width:0.5;" x1="112.5" x2="260.5" y1="423" y2="423"/></g><!--MD5=[03960189e81aa2c066c762ffabbee709]
class Receptionist--><g id="elem_Receptionist"><rect fill="#F1F1F1" height="48" id="Receptionist" rx="2.5" ry="2.5" style="stroke:#181818;stroke-width:0.5;" width="110" x="296.5" y="383"/><ellipse cx="311.5" cy="399" fill="#ADD1B2" rx="11" ry="11" style="stroke:#181818;stroke-width:1.0;"/><path d="M313.5,395.5 Q313.7031,395 313.9375,394.75 Q314.1719,394.5 314.4375,394.5 Q314.9063,394.5 315.2031,394.7813 Q315.5,395.0625 315.5,395.7188 L315.5,397.2813 Q315.5,397.9375 315.2188,398.2188 Q314.9375,398.5 314.5,398.5 Q314.1094,398.5 313.8594,398.3281 Q313.6094,398.1563 313.5,397.7031 Q313.4531,397.3906 313.2813,397.2188 Q312.9688,396.8906 312.4063,396.7031 Q311.8438,396.5 311.2813,396.5 Q310.5781,396.5 309.9844,396.7813 Q309.4063,397.0625 308.9531,397.6875 Q308.5,398.3125 308.5,399.1719 L308.5,400.0938 Q308.5,401.125 309.3438,401.8125 Q310.1875,402.5 311.6875,402.5 Q312.5781,402.5 313.2031,402.2969 Q313.5625,402.1875 313.9688,401.8281 Q314.2344,401.625 314.375,401.5625 Q314.5156,401.5 314.6875,401.5 Q315.0156,401.5 315.25,401.7656 Q315.5,402.0156 315.5,402.375 Q315.5,402.7188 315.1563,403.125 Q314.6563,403.7188 313.8594,404.0469 Q312.8125,404.5 311.5313,404.5 Q310.0313,404.5 308.8281,403.9063 Q307.8594,403.4375 307.1719,402.4219 Q306.5,401.4063 306.5,400.2031 L306.5,399.1094 Q306.5,397.8594 307.0938,396.7656 Q307.7031,395.6719 308.75,395.0938 Q309.8125,394.5 311,394.5 Q311.7188,394.5 312.3438,394.75 Q312.9688,395 313.5,395.5 Z " fill="#000000"/><text fill="#000000" font-family="sans-serif" font-size="14" lengthAdjust="spacing" textLength="78" x="325.5" y="404.7285">Receptionist</text><line style="stroke:#181818;stroke-width:0.5;" x1="297.5" x2="405.5" y1="415" y2="415"/><line style="stroke:#181818;stroke-width:0.5;" x1="297.5" x2="405.5" y1="423" y2="423"/></g><!--MD5=[09366576ee87d48d594df10cacc83f45]
link Company to Employee--><g id="link_Company_Employee"><path codeLine="18" d="M186.5,55.08 C186.5,74.6 186.5,103.94 186.5,132.85 " fill="none" id="Company-Employee" style="stroke:#181818;stroke-width:1.0;"/><polygon fill="#000000" points="191.5,99.1758,194.4389,90.1307,188.5611,90.1307,191.5,99.1758" style="stroke:#000000;stroke-width:1.0;"/><text fill="#000000" font-family="sans-serif" font-size="13" lengthAdjust="spacing" textLength="21" x="200.5" y="99.4951">has</text><text fill="#000000" font-family="sans-serif" font-size="13" lengthAdjust="spacing" textLength="7" x="178.6469" y="76.4375">1</text><text fill="#000000" font-family="sans-serif" font-size="13" lengthAdjust="spacing" textLength="5" x="181.3008" y="122.1842">*</text></g><!--MD5=[6716344a46572fc99c27bf4e50ddbd3d]
reverse link Employee to Nurse--><g id="link_Employee_Nurse"><path codeLine="20" d="M97.28,337.72 C83.35,354.77 70.3,370.75 60.32,382.96 " fill="none" id="Employee-backto-Nurse" style="stroke:#181818;stroke-width:1.0;"/><polygon fill="none" points="91.89,333.25,109.97,322.19,102.73,342.11,91.89,333.25" style="stroke:#181818;stroke-width:1.0;"/></g><!--MD5=[bfff716514ca687b645fe473c6e098a4]
reverse link Employee to Receptionist--><g id="link_Employee_Receptionist"><path codeLine="21" d="M284.49,333.91 C301.52,352.23 317.64,369.57 329.8,382.65 " fill="none" id="Employee-backto-Receptionist" style="stroke:#181818;stroke-width:1.0;"/><polygon fill="none" points="279.18,338.48,270.69,319.07,289.44,328.95,279.18,338.48" style="stroke:#181818;stroke-width:1.0;"/></g><!--MD5=[98f7f3dc8d9719d04ad14614c4ea123f]
reverse link Employee to CenterCoordinator--><g id="link_Employee_CenterCoordinator"><path codeLine="22" d="M186.5,342.36 C186.5,357.66 186.5,371.87 186.5,382.96 " fill="none" id="Employee-backto-CenterCoordinator" style="stroke:#181818;stroke-width:1.0;"/><polygon fill="none" points="179.5,342.19,186.5,322.19,193.5,342.19,179.5,342.19" style="stroke:#181818;stroke-width:1.0;"/></g><!--MD5=[85af25f6eb04e12ffdb4074ada20c91a]
@startuml

class Company

class Employee {
==-id
==-name
==-address
==-phone number
==-email
==-citizen card number
==-password
}

class Nurse

class CenterCoordinator

Company "1" -d- "*" Employee : has >

Employee <|-d- Nurse
Employee <|-d- Receptionist
Employee <|-d- CenterCoordinator

@enduml

PlantUML version 1.2022.4(Sat Apr 09 14:29:17 BST 2022)
(GPL source distribution)
Java Runtime: OpenJDK Runtime Environment
JVM: OpenJDK 64-Bit Server VM
Default Encoding: Cp1252
Language: en
Country: US
--></g></svg>