<?xml version="1.0" encoding="UTF-8" standalone="no"?><svg xmlns="http://www.w3.org/2000/svg" xmlns:xlink="http://www.w3.org/1999/xlink" contentStyleType="text/css" height="473px" preserveAspectRatio="none" style="width:612px;height:473px;background:#FFFFFF;" version="1.1" viewBox="0 0 612 473" width="612px" zoomAndPan="magnify"><defs/><g><!--MD5=[e97daf9298e09b9cb975d7fc43fc205e]
class RegisterNewEmployeeUI--><g id="elem_RegisterNewEmployeeUI"><rect codeLine="3" fill="#F1F1F1" height="65.6094" id="RegisterNewEmployeeUI" rx="2.5" ry="2.5" style="stroke:#181818;stroke-width:0.5;" width="335" x="179" y="7"/><ellipse cx="265.75" cy="23" fill="#ADD1B2" rx="11" ry="11" style="stroke:#181818;stroke-width:1.0;"/><path d="M267.75,19.5 Q267.9531,19 268.1875,18.75 Q268.4219,18.5 268.6875,18.5 Q269.1563,18.5 269.4531,18.7813 Q269.75,19.0625 269.75,19.7188 L269.75,21.2813 Q269.75,21.9375 269.4688,22.2188 Q269.1875,22.5 268.75,22.5 Q268.3594,22.5 268.1094,22.3281 Q267.8594,22.1563 267.75,21.7031 Q267.7031,21.3906 267.5313,21.2188 Q267.2188,20.8906 266.6563,20.7031 Q266.0938,20.5 265.5313,20.5 Q264.8281,20.5 264.2344,20.7813 Q263.6563,21.0625 263.2031,21.6875 Q262.75,22.3125 262.75,23.1719 L262.75,24.0938 Q262.75,25.125 263.5938,25.8125 Q264.4375,26.5 265.9375,26.5 Q266.8281,26.5 267.4531,26.2969 Q267.8125,26.1875 268.2188,25.8281 Q268.4844,25.625 268.625,25.5625 Q268.7656,25.5 268.9375,25.5 Q269.2656,25.5 269.5,25.7656 Q269.75,26.0156 269.75,26.375 Q269.75,26.7188 269.4063,27.125 Q268.9063,27.7188 268.1094,28.0469 Q267.0625,28.5 265.7813,28.5 Q264.2813,28.5 263.0781,27.9063 Q262.1094,27.4375 261.4219,26.4219 Q260.75,25.4063 260.75,24.2031 L260.75,23.1094 Q260.75,21.8594 261.3438,20.7656 Q261.9531,19.6719 263,19.0938 Q264.0625,18.5 265.25,18.5 Q265.9688,18.5 266.5938,18.75 Q267.2188,19 267.75,19.5 Z " fill="#000000"/><text fill="#000000" font-family="sans-serif" font-size="14" lengthAdjust="spacing" textLength="153" x="286.25" y="28.7285">RegisterNewEmployeeUI</text><line style="stroke:#181818;stroke-width:0.5;" x1="180" x2="513" y1="39" y2="39"/><line style="stroke:#181818;stroke-width:0.5;" x1="180" x2="513" y1="47" y2="47"/><text fill="#000000" font-family="sans-serif" font-size="14" lengthAdjust="spacing" textLength="323" x="185" y="65.5332">-showNewEmployeeData(registerNewEmployeeDto)</text></g><!--MD5=[e98dbd2dbb15b74fee5fb51c2f897ceb]
class RegisterNewEmployeeController--><g id="elem_RegisterNewEmployeeController"><rect codeLine="7" fill="#F1F1F1" height="83.2188" id="RegisterNewEmployeeController" rx="2.5" ry="2.5" style="stroke:#181818;stroke-width:0.5;" width="360" x="166.5" y="134"/><ellipse cx="240.75" cy="150" fill="#ADD1B2" rx="11" ry="11" style="stroke:#181818;stroke-width:1.0;"/><path d="M242.75,146.5 Q242.9531,146 243.1875,145.75 Q243.4219,145.5 243.6875,145.5 Q244.1563,145.5 244.4531,145.7813 Q244.75,146.0625 244.75,146.7188 L244.75,148.2813 Q244.75,148.9375 244.4688,149.2188 Q244.1875,149.5 243.75,149.5 Q243.3594,149.5 243.1094,149.3281 Q242.8594,149.1563 242.75,148.7031 Q242.7031,148.3906 242.5313,148.2188 Q242.2188,147.8906 241.6563,147.7031 Q241.0938,147.5 240.5313,147.5 Q239.8281,147.5 239.2344,147.7813 Q238.6563,148.0625 238.2031,148.6875 Q237.75,149.3125 237.75,150.1719 L237.75,151.0938 Q237.75,152.125 238.5938,152.8125 Q239.4375,153.5 240.9375,153.5 Q241.8281,153.5 242.4531,153.2969 Q242.8125,153.1875 243.2188,152.8281 Q243.4844,152.625 243.625,152.5625 Q243.7656,152.5 243.9375,152.5 Q244.2656,152.5 244.5,152.7656 Q244.75,153.0156 244.75,153.375 Q244.75,153.7188 244.4063,154.125 Q243.9063,154.7188 243.1094,155.0469 Q242.0625,155.5 240.7813,155.5 Q239.2813,155.5 238.0781,154.9063 Q237.1094,154.4375 236.4219,153.4219 Q235.75,152.4063 235.75,151.2031 L235.75,150.1094 Q235.75,148.8594 236.3438,147.7656 Q236.9531,146.6719 238,146.0938 Q239.0625,145.5 240.25,145.5 Q240.9688,145.5 241.5938,145.75 Q242.2188,146 242.75,146.5 Z " fill="#000000"/><text fill="#000000" font-family="sans-serif" font-size="14" lengthAdjust="spacing" textLength="203" x="261.25" y="155.7285">RegisterNewEmployeeController</text><line style="stroke:#181818;stroke-width:0.5;" x1="167.5" x2="525.5" y1="166" y2="166"/><line style="stroke:#181818;stroke-width:0.5;" x1="167.5" x2="525.5" y1="174" y2="174"/><text fill="#000000" font-family="sans-serif" font-size="14" lengthAdjust="spacing" textLength="341" x="172.5" y="192.5332">+registerNewEmployee(RegisterNewEmployeeDto dto)</text><text fill="#000000" font-family="sans-serif" font-size="14" lengthAdjust="spacing" textLength="348" x="172.5" y="210.1426">+saveCreatedEmployee(RegisterNewEmployeeDto dto)</text></g><!--MD5=[02e4b9b7573f1156f41e60aa5b4e25a4]
class Company--><g id="elem_Company"><rect codeLine="12" fill="#F1F1F1" height="118.4375" id="Company" rx="2.5" ry="2.5" style="stroke:#181818;stroke-width:0.5;" width="331" x="7" y="313.5"/><ellipse cx="138.25" cy="329.5" fill="#ADD1B2" rx="11" ry="11" style="stroke:#181818;stroke-width:1.0;"/><path d="M140.25,326 Q140.4531,325.5 140.6875,325.25 Q140.9219,325 141.1875,325 Q141.6563,325 141.9531,325.2813 Q142.25,325.5625 142.25,326.2188 L142.25,327.7813 Q142.25,328.4375 141.9688,328.7188 Q141.6875,329 141.25,329 Q140.8594,329 140.6094,328.8281 Q140.3594,328.6563 140.25,328.2031 Q140.2031,327.8906 140.0313,327.7188 Q139.7188,327.3906 139.1563,327.2031 Q138.5938,327 138.0313,327 Q137.3281,327 136.7344,327.2813 Q136.1563,327.5625 135.7031,328.1875 Q135.25,328.8125 135.25,329.6719 L135.25,330.5938 Q135.25,331.625 136.0938,332.3125 Q136.9375,333 138.4375,333 Q139.3281,333 139.9531,332.7969 Q140.3125,332.6875 140.7188,332.3281 Q140.9844,332.125 141.125,332.0625 Q141.2656,332 141.4375,332 Q141.7656,332 142,332.2656 Q142.25,332.5156 142.25,332.875 Q142.25,333.2188 141.9063,333.625 Q141.4063,334.2188 140.6094,334.5469 Q139.5625,335 138.2813,335 Q136.7813,335 135.5781,334.4063 Q134.6094,333.9375 133.9219,332.9219 Q133.25,331.9063 133.25,330.7031 L133.25,329.6094 Q133.25,328.3594 133.8438,327.2656 Q134.4531,326.1719 135.5,325.5938 Q136.5625,325 137.75,325 Q138.4688,325 139.0938,325.25 Q139.7188,325.5 140.25,326 Z " fill="#000000"/><text fill="#000000" font-family="sans-serif" font-size="14" lengthAdjust="spacing" textLength="60" x="158.75" y="335.2285">Company</text><line style="stroke:#181818;stroke-width:0.5;" x1="8" x2="337" y1="345.5" y2="345.5"/><text fill="#000000" font-family="sans-serif" font-size="14" lengthAdjust="spacing" textLength="73" x="13" y="364.0332">-employees</text><text fill="#000000" font-family="sans-serif" font-size="14" lengthAdjust="spacing" textLength="36" x="13" y="381.6426">-roles</text><line style="stroke:#181818;stroke-width:0.5;" x1="8" x2="337" y1="388.7188" y2="388.7188"/><text fill="#000000" font-family="sans-serif" font-size="14" lengthAdjust="spacing" textLength="312" x="13" y="407.252">+registerNewEmployee(registerNewEmployeeDto)</text><text fill="#000000" font-family="sans-serif" font-size="14" lengthAdjust="spacing" textLength="319" x="13" y="424.8613">+saveCreatedEmployee(registerNewEmployeeDto)</text></g><!--MD5=[7421f545a0d8420c5bec41e74b387d9c]
class Employee--><g id="elem_Employee"><rect codeLine="19" fill="#F1F1F1" height="188.875" id="Employee" rx="2.5" ry="2.5" style="stroke:#181818;stroke-width:0.5;" width="167" x="438" y="278"/><ellipse cx="486.25" cy="294" fill="#ADD1B2" rx="11" ry="11" style="stroke:#181818;stroke-width:1.0;"/><path d="M488.25,290.5 Q488.4531,290 488.6875,289.75 Q488.9219,289.5 489.1875,289.5 Q489.6563,289.5 489.9531,289.7813 Q490.25,290.0625 490.25,290.7188 L490.25,292.2813 Q490.25,292.9375 489.9688,293.2188 Q489.6875,293.5 489.25,293.5 Q488.8594,293.5 488.6094,293.3281 Q488.3594,293.1563 488.25,292.7031 Q488.2031,292.3906 488.0313,292.2188 Q487.7188,291.8906 487.1563,291.7031 Q486.5938,291.5 486.0313,291.5 Q485.3281,291.5 484.7344,291.7813 Q484.1563,292.0625 483.7031,292.6875 Q483.25,293.3125 483.25,294.1719 L483.25,295.0938 Q483.25,296.125 484.0938,296.8125 Q484.9375,297.5 486.4375,297.5 Q487.3281,297.5 487.9531,297.2969 Q488.3125,297.1875 488.7188,296.8281 Q488.9844,296.625 489.125,296.5625 Q489.2656,296.5 489.4375,296.5 Q489.7656,296.5 490,296.7656 Q490.25,297.0156 490.25,297.375 Q490.25,297.7188 489.9063,298.125 Q489.4063,298.7188 488.6094,299.0469 Q487.5625,299.5 486.2813,299.5 Q484.7813,299.5 483.5781,298.9063 Q482.6094,298.4375 481.9219,297.4219 Q481.25,296.4063 481.25,295.2031 L481.25,294.1094 Q481.25,292.8594 481.8438,291.7656 Q482.4531,290.6719 483.5,290.0938 Q484.5625,289.5 485.75,289.5 Q486.4688,289.5 487.0938,289.75 Q487.7188,290 488.25,290.5 Z " fill="#000000"/><text fill="#000000" font-family="sans-serif" font-size="14" lengthAdjust="spacing" textLength="62" x="506.75" y="299.7285">Employee</text><line style="stroke:#181818;stroke-width:0.5;" x1="439" x2="604" y1="310" y2="310"/><text fill="#000000" font-family="sans-serif" font-size="14" lengthAdjust="spacing" textLength="57" x="444" y="328.5332">-String id</text><text fill="#000000" font-family="sans-serif" font-size="14" lengthAdjust="spacing" textLength="81" x="444" y="346.1426">-String name</text><text fill="#000000" font-family="sans-serif" font-size="14" lengthAdjust="spacing" textLength="97" x="444" y="363.752">-String address</text><text fill="#000000" font-family="sans-serif" font-size="14" lengthAdjust="spacing" textLength="116" x="444" y="381.3613">-int phone number</text><text fill="#000000" font-family="sans-serif" font-size="14" lengthAdjust="spacing" textLength="79" x="444" y="398.9707">-String email</text><text fill="#000000" font-family="sans-serif" font-size="14" lengthAdjust="spacing" textLength="147" x="444" y="416.5801">-int citizen card number</text><text fill="#000000" font-family="sans-serif" font-size="14" lengthAdjust="spacing" textLength="106" x="444" y="434.1895">-String password</text><line style="stroke:#181818;stroke-width:0.5;" x1="439" x2="604" y1="441.2656" y2="441.2656"/><text fill="#000000" font-family="sans-serif" font-size="14" lengthAdjust="spacing" textLength="155" x="444" y="459.7988">+validateNewEmployee()</text></g><!--MD5=[6febec97a3011c6da29f2097abbb874f]
link RegisterNewEmployeeUI to RegisterNewEmployeeController--><g id="link_RegisterNewEmployeeUI_RegisterNewEmployeeController"><path codeLine="30" d="M346.5,73.32 C346.5,89.96 346.5,110.54 346.5,128.79 " fill="none" id="RegisterNewEmployeeUI-to-RegisterNewEmployeeController" style="stroke:#181818;stroke-width:1.0;stroke-dasharray:7.0,7.0;"/><polygon fill="#181818" points="346.5,133.87,350.5,124.87,346.5,128.87,342.5,124.87,346.5,133.87" style="stroke:#181818;stroke-width:1.0;"/></g><!--MD5=[5fc8e087277250d91dd0288c4602b9fc]
link RegisterNewEmployeeController to Company--><g id="link_RegisterNewEmployeeController_Company"><path codeLine="31" d="M310.02,217.38 C286.28,243.99 254.84,279.22 228.02,309.28 " fill="none" id="RegisterNewEmployeeController-to-Company" style="stroke:#181818;stroke-width:1.0;stroke-dasharray:7.0,7.0;"/><polygon fill="#181818" points="224.44,313.29,233.4176,309.2399,227.7698,309.5601,227.4497,303.9123,224.44,313.29" style="stroke:#181818;stroke-width:1.0;"/></g><!--MD5=[09366576ee87d48d594df10cacc83f45]
link Company to Employee--><g id="link_Company_Employee"><path codeLine="32" d="M338.06,372.5 C372.56,372.5 407.53,372.5 437.55,372.5 " fill="none" id="Company-Employee" style="stroke:#181818;stroke-width:1.0;"/><polygon fill="#000000" points="365.5,360.6758,356.4549,357.7369,356.4549,363.6147,365.5,360.6758" style="stroke:#000000;stroke-width:1.0;"/><text fill="#000000" font-family="sans-serif" font-size="13" lengthAdjust="spacing" textLength="50" x="369.5" y="365.9951">storages</text><text fill="#000000" font-family="sans-serif" font-size="13" lengthAdjust="spacing" textLength="7" x="346.2488" y="369.6055">1</text><text fill="#000000" font-family="sans-serif" font-size="13" lengthAdjust="spacing" textLength="5" x="425.1207" y="369.3281">*</text></g><!--MD5=[98585e0de2f711839463467484a33855]
link RegisterNewEmployeeController to Employee--><g id="link_RegisterNewEmployeeController_Employee"><path codeLine="33" d="M383.19,217.38 C399.12,235.14 418.5,256.73 437.64,278.06 " fill="none" id="RegisterNewEmployeeController-Employee" style="stroke:#181818;stroke-width:1.0;"/></g><!--MD5=[ab07cf8f4f2baa6d3480099b5f872785]
@startuml
skinparam classAttributeIconSize 0

class RegisterNewEmployeeUI {
-showNewEmployeeData(registerNewEmployeeDto)
}

class RegisterNewEmployeeController {
+registerNewEmployee(RegisterNewEmployeeDto dto)
+saveCreatedEmployee(RegisterNewEmployeeDto dto)
}

class Company {
-employees
-roles
+registerNewEmployee(registerNewEmployeeDto)
+saveCreatedEmployee(registerNewEmployeeDto)
}

class Employee{
- String id
- String name
- String address
- int phone number
- String email
- int citizen card number
- String password
+validateNewEmployee()
}

RegisterNewEmployeeUI ..> RegisterNewEmployeeController
RegisterNewEmployeeController ..> Company
Company "1" - "*" Employee : storages >
RegisterNewEmployeeController - - Employee

@enduml

PlantUML version 1.2022.4(Sat Apr 09 14:29:17 BST 2022)
(GPL source distribution)
Java Runtime: OpenJDK Runtime Environment
JVM: OpenJDK 64-Bit Server VM
Default Encoding: Cp1252
Language: en
Country: US
--></g></svg>