<?xml version="1.0" encoding="UTF-8" standalone="no"?><svg xmlns="http://www.w3.org/2000/svg" xmlns:xlink="http://www.w3.org/1999/xlink" contentScriptType="application/ecmascript" contentStyleType="text/css" height="102px" preserveAspectRatio="none" style="width:521px;height:102px;background:#FFFFFF;" version="1.1" viewBox="0 0 521 102" width="521px" zoomAndPan="magnify"><defs><filter height="300%" id="fr6vkb15m5le3" width="300%" x="-1" y="-1"><feGaussianBlur result="blurOut" stdDeviation="2.0"/><feColorMatrix in="blurOut" result="blurOut2" type="matrix" values="0 0 0 0 0 0 0 0 0 0 0 0 0 0 0 0 0 0 .4 0"/><feOffset dx="4.0" dy="4.0" in="blurOut2" result="blurOut3"/><feBlend in="SourceGraphic" in2="blurOut3" mode="normal"/></filter></defs><g><!--MD5=[da547346deef918ea16944ba046651ef]
class Administrator--><rect codeLine="6" fill="#FEFECE" filter="url(#fr6vkb15m5le3)" height="40" id="Administrator" style="stroke:#A80036;stroke-width:1.5;" width="105" x="7" y="28"/><ellipse cx="22" cy="44" fill="#ADD1B2" rx="11" ry="11" style="stroke:#A80036;stroke-width:1.0;"/><path d="M24,40.5 Q24.2031,40 24.4375,39.75 Q24.6719,39.5 24.9375,39.5 Q25.4063,39.5 25.7031,39.7813 Q26,40.0625 26,40.7188 L26,42.2813 Q26,42.9375 25.7188,43.2188 Q25.4375,43.5 25,43.5 Q24.6094,43.5 24.3594,43.3281 Q24.1094,43.1563 24,42.7031 Q23.9531,42.3906 23.7813,42.2188 Q23.4688,41.8906 22.9063,41.7031 Q22.3438,41.5 21.7813,41.5 Q21.0781,41.5 20.4844,41.7813 Q19.9063,42.0625 19.4531,42.6875 Q19,43.3125 19,44.1719 L19,45.0938 Q19,46.125 19.8438,46.8125 Q20.6875,47.5 22.1875,47.5 Q23.0781,47.5 23.7031,47.2969 Q24.0625,47.1875 24.4688,46.8281 Q24.7344,46.625 24.875,46.5625 Q25.0156,46.5 25.1875,46.5 Q25.5156,46.5 25.75,46.7656 Q26,47.0156 26,47.375 Q26,47.7188 25.6563,48.125 Q25.1563,48.7188 24.3594,49.0469 Q23.3125,49.5 22.0313,49.5 Q20.5313,49.5 19.3281,48.9063 Q18.3594,48.4375 17.6719,47.4219 Q17,46.4063 17,45.2031 L17,44.1094 Q17,42.8594 17.5938,41.7656 Q18.2031,40.6719 19.25,40.0938 Q20.3125,39.5 21.5,39.5 Q22.2188,39.5 22.8438,39.75 Q23.4688,40 24,40.5 Z " fill="#000000"/><text fill="#000000" font-family="sans-serif" font-size="12" lengthAdjust="spacing" textLength="73" x="36" y="48.9102">Administrator</text><line style="stroke:#A80036;stroke-width:1.5;" x1="8" x2="111" y1="60" y2="60"/><!--MD5=[e02fc5ff322986dab3114482722a4407]
class ListOfEmployees--><rect codeLine="7" fill="#FEFECE" filter="url(#fr6vkb15m5le3)" height="81.5078" id="ListOfEmployees" style="stroke:#A80036;stroke-width:1.5;" width="171" x="336" y="7"/><ellipse cx="371.25" cy="23" fill="#ADD1B2" rx="11" ry="11" style="stroke:#A80036;stroke-width:1.0;"/><path d="M373.25,19.5 Q373.4531,19 373.6875,18.75 Q373.9219,18.5 374.1875,18.5 Q374.6563,18.5 374.9531,18.7813 Q375.25,19.0625 375.25,19.7188 L375.25,21.2813 Q375.25,21.9375 374.9688,22.2188 Q374.6875,22.5 374.25,22.5 Q373.8594,22.5 373.6094,22.3281 Q373.3594,22.1563 373.25,21.7031 Q373.2031,21.3906 373.0313,21.2188 Q372.7188,20.8906 372.1563,20.7031 Q371.5938,20.5 371.0313,20.5 Q370.3281,20.5 369.7344,20.7813 Q369.1563,21.0625 368.7031,21.6875 Q368.25,22.3125 368.25,23.1719 L368.25,24.0938 Q368.25,25.125 369.0938,25.8125 Q369.9375,26.5 371.4375,26.5 Q372.3281,26.5 372.9531,26.2969 Q373.3125,26.1875 373.7188,25.8281 Q373.9844,25.625 374.125,25.5625 Q374.2656,25.5 374.4375,25.5 Q374.7656,25.5 375,25.7656 Q375.25,26.0156 375.25,26.375 Q375.25,26.7188 374.9063,27.125 Q374.4063,27.7188 373.6094,28.0469 Q372.5625,28.5 371.2813,28.5 Q369.7813,28.5 368.5781,27.9063 Q367.6094,27.4375 366.9219,26.4219 Q366.25,25.4063 366.25,24.2031 L366.25,23.1094 Q366.25,21.8594 366.8438,20.7656 Q367.4531,19.6719 368.5,19.0938 Q369.5625,18.5 370.75,18.5 Q371.4688,18.5 372.0938,18.75 Q372.7188,19 373.25,19.5 Z " fill="#000000"/><text fill="#000000" font-family="sans-serif" font-size="12" lengthAdjust="spacing" textLength="94" x="389.75" y="27.9102">ListOfEmployees</text><line style="stroke:#A80036;stroke-width:1.5;" x1="337" x2="506" y1="39" y2="39"/><text fill="#000000" font-family="sans-serif" font-size="11" lengthAdjust="spacing" textLength="100" x="342" y="54.4189">-nurseList: ArrayList</text><text fill="#000000" font-family="sans-serif" font-size="11" lengthAdjust="spacing" textLength="128" x="342" y="68.2549">-receptionistList: ArrayList</text><text fill="#000000" font-family="sans-serif" font-size="11" lengthAdjust="spacing" textLength="159" x="342" y="82.0908">-centreCoordinatorList: ArrayList</text><!--MD5=[8ccc2462c03843960384e3e3a4b65b67]
link Administrator to ListOfEmployees--><path codeLine="13" d="M112.08,48 C170.41,48 266.27,48 335.66,48 " fill="none" id="Administrator-ListOfEmployees" style="stroke:#A80036;stroke-width:1.0;"/><polygon fill="#000000" points="214,39.1758,204.9549,36.2369,204.9549,42.1147,214,39.1758" style="stroke:#000000;stroke-width:1.0;"/><text fill="#000000" font-family="sans-serif" font-size="13" lengthAdjust="spacing" textLength="25" x="218" y="44.4951">gets</text><text fill="#000000" font-family="sans-serif" font-size="13" lengthAdjust="spacing" textLength="7" x="119.9663" y="62.6448">1</text><text fill="#000000" font-family="sans-serif" font-size="13" lengthAdjust="spacing" textLength="7" x="320.9823" y="62.2189">1</text><!--MD5=[24863b0554cf0948ac43abf7be769af6]
@startuml

hide methods
left to right direction
skinparam classAttributeIconSize 0

class Administrator
class ListOfEmployees {
-nurseList: ArrayList
-receptionistList: ArrayList
-centreCoordinatorList: ArrayList
}

Administrator "1" - - - - "1" ListOfEmployees : gets >

@enduml

PlantUML version 1.2022.1(Tue Feb 01 18:19:58 GMT 2022)
(GPL source distribution)
Java Runtime: OpenJDK Runtime Environment
JVM: OpenJDK 64-Bit Server VM
Default Encoding: Cp1252
Language: pt
Country: PT
--></g></svg>