<?xml version="1.0" encoding="UTF-8" standalone="no"?><svg xmlns="http://www.w3.org/2000/svg" xmlns:xlink="http://www.w3.org/1999/xlink" contentScriptType="application/ecmascript" contentStyleType="text/css" height="557px" preserveAspectRatio="none" style="width:224px;height:557px;background:#FFFFFF;" version="1.1" viewBox="0 0 224 557" width="224px" zoomAndPan="magnify"><defs><filter height="300%" id="f1wjohe1tjstyi" width="300%" x="-1" y="-1"><feGaussianBlur result="blurOut" stdDeviation="2.0"/><feColorMatrix in="blurOut" result="blurOut2" type="matrix" values="0 0 0 0 0 0 0 0 0 0 0 0 0 0 0 0 0 0 .4 0"/><feOffset dx="4.0" dy="4.0" in="blurOut2" result="blurOut3"/><feBlend in="SourceGraphic" in2="blurOut3" mode="normal"/></filter></defs><g><!--MD5=[02e4b9b7573f1156f41e60aa5b4e25a4]
class Company--><rect codeLine="3" fill="#FEFECE" filter="url(#f1wjohe1tjstyi)" height="117.1797" id="Company" style="stroke:#A80036;stroke-width:1.5;" width="203" x="7" y="228.5"/><ellipse cx="77.75" cy="244.5" fill="#ADD1B2" rx="11" ry="11" style="stroke:#A80036;stroke-width:1.0;"/><path d="M79.75,241 Q79.9531,240.5 80.1875,240.25 Q80.4219,240 80.6875,240 Q81.1563,240 81.4531,240.2813 Q81.75,240.5625 81.75,241.2188 L81.75,242.7813 Q81.75,243.4375 81.4688,243.7188 Q81.1875,244 80.75,244 Q80.3594,244 80.1094,243.8281 Q79.8594,243.6563 79.75,243.2031 Q79.7031,242.8906 79.5313,242.7188 Q79.2188,242.3906 78.6563,242.2031 Q78.0938,242 77.5313,242 Q76.8281,242 76.2344,242.2813 Q75.6563,242.5625 75.2031,243.1875 Q74.75,243.8125 74.75,244.6719 L74.75,245.5938 Q74.75,246.625 75.5938,247.3125 Q76.4375,248 77.9375,248 Q78.8281,248 79.4531,247.7969 Q79.8125,247.6875 80.2188,247.3281 Q80.4844,247.125 80.625,247.0625 Q80.7656,247 80.9375,247 Q81.2656,247 81.5,247.2656 Q81.75,247.5156 81.75,247.875 Q81.75,248.2188 81.4063,248.625 Q80.9063,249.2188 80.1094,249.5469 Q79.0625,250 77.7813,250 Q76.2813,250 75.0781,249.4063 Q74.1094,248.9375 73.4219,247.9219 Q72.75,246.9063 72.75,245.7031 L72.75,244.6094 Q72.75,243.3594 73.3438,242.2656 Q73.9531,241.1719 75,240.5938 Q76.0625,240 77.25,240 Q77.9688,240 78.5938,240.25 Q79.2188,240.5 79.75,241 Z " fill="#000000"/><text fill="#000000" font-family="sans-serif" font-size="12" lengthAdjust="spacing" textLength="53" x="98.25" y="249.4102">Company</text><line style="stroke:#A80036;stroke-width:1.5;" x1="8" x2="209" y1="260.5" y2="260.5"/><line style="stroke:#A80036;stroke-width:1.5;" x1="8" x2="209" y1="268.5" y2="268.5"/><ellipse cx="18" cy="279.5" fill="#84BE84" rx="3" ry="3" style="stroke:#038048;stroke-width:1.0;"/><text fill="#000000" font-family="sans-serif" font-size="11" lengthAdjust="spacing" textLength="75" x="27" y="283.9189">getEmployees()</text><ellipse cx="18" cy="293.3359" fill="#84BE84" rx="3" ry="3" style="stroke:#038048;stroke-width:1.0;"/><text fill="#000000" font-family="sans-serif" font-size="11" lengthAdjust="spacing" textLength="177" x="27" y="297.7549">fillListOfEmployeesWithAGivenRole()</text><ellipse cx="18" cy="307.1719" fill="#84BE84" rx="3" ry="3" style="stroke:#038048;stroke-width:1.0;"/><text fill="#000000" font-family="sans-serif" font-size="11" lengthAdjust="spacing" textLength="69" x="27" y="311.5908">getNurseList()</text><ellipse cx="18" cy="321.0078" fill="#84BE84" rx="3" ry="3" style="stroke:#038048;stroke-width:1.0;"/><text fill="#000000" font-family="sans-serif" font-size="11" lengthAdjust="spacing" textLength="99" x="27" y="325.4268">getReceptionistList()</text><ellipse cx="18" cy="334.8438" fill="#84BE84" rx="3" ry="3" style="stroke:#038048;stroke-width:1.0;"/><text fill="#000000" font-family="sans-serif" font-size="11" lengthAdjust="spacing" textLength="128" x="27" y="339.2627">getCentreCoordinatorList()</text><!--MD5=[7421f545a0d8420c5bec41e74b387d9c]
class Employee--><rect codeLine="11" fill="#FEFECE" filter="url(#f1wjohe1tjstyi)" height="144.8516" id="Employee" style="stroke:#A80036;stroke-width:1.5;" width="117" x="50" y="398.5"/><ellipse cx="78.5" cy="414.5" fill="#ADD1B2" rx="11" ry="11" style="stroke:#A80036;stroke-width:1.0;"/><path d="M80.5,411 Q80.7031,410.5 80.9375,410.25 Q81.1719,410 81.4375,410 Q81.9063,410 82.2031,410.2813 Q82.5,410.5625 82.5,411.2188 L82.5,412.7813 Q82.5,413.4375 82.2188,413.7188 Q81.9375,414 81.5,414 Q81.1094,414 80.8594,413.8281 Q80.6094,413.6563 80.5,413.2031 Q80.4531,412.8906 80.2813,412.7188 Q79.9688,412.3906 79.4063,412.2031 Q78.8438,412 78.2813,412 Q77.5781,412 76.9844,412.2813 Q76.4063,412.5625 75.9531,413.1875 Q75.5,413.8125 75.5,414.6719 L75.5,415.5938 Q75.5,416.625 76.3438,417.3125 Q77.1875,418 78.6875,418 Q79.5781,418 80.2031,417.7969 Q80.5625,417.6875 80.9688,417.3281 Q81.2344,417.125 81.375,417.0625 Q81.5156,417 81.6875,417 Q82.0156,417 82.25,417.2656 Q82.5,417.5156 82.5,417.875 Q82.5,418.2188 82.1563,418.625 Q81.6563,419.2188 80.8594,419.5469 Q79.8125,420 78.5313,420 Q77.0313,420 75.8281,419.4063 Q74.8594,418.9375 74.1719,417.9219 Q73.5,416.9063 73.5,415.7031 L73.5,414.6094 Q73.5,413.3594 74.0938,412.2656 Q74.7031,411.1719 75.75,410.5938 Q76.8125,410 78,410 Q78.7188,410 79.3438,410.25 Q79.9688,410.5 80.5,411 Z " fill="#000000"/><text fill="#000000" font-family="sans-serif" font-size="12" lengthAdjust="spacing" textLength="55" x="95.5" y="419.4102">Employee</text><line style="stroke:#A80036;stroke-width:1.5;" x1="51" x2="166" y1="430.5" y2="430.5"/><text fill="#000000" font-family="sans-serif" font-size="11" lengthAdjust="spacing" textLength="57" x="56" y="445.9189">String name</text><text fill="#000000" font-family="sans-serif" font-size="11" lengthAdjust="spacing" textLength="71" x="56" y="459.7549">String address</text><text fill="#000000" font-family="sans-serif" font-size="11" lengthAdjust="spacing" textLength="49" x="56" y="473.5908">String role</text><text fill="#000000" font-family="sans-serif" font-size="11" lengthAdjust="spacing" textLength="39" x="56" y="487.4268">String id</text><text fill="#000000" font-family="sans-serif" font-size="11" lengthAdjust="spacing" textLength="81" x="56" y="501.2627">int phoneNumber</text><text fill="#000000" font-family="sans-serif" font-size="11" lengthAdjust="spacing" textLength="55" x="56" y="515.0986">String email</text><text fill="#000000" font-family="sans-serif" font-size="11" lengthAdjust="spacing" textLength="105" x="56" y="528.9346">int citizenCardNumber</text><line style="stroke:#A80036;stroke-width:1.5;" x1="51" x2="166" y1="535.3516" y2="535.3516"/><!--MD5=[8043469dd328a0122c3de9bc6377a6d4]
class GetListOfEmployeesUI--><rect codeLine="21" fill="#FEFECE" filter="url(#f1wjohe1tjstyi)" height="48" id="GetListOfEmployeesUI" style="stroke:#A80036;stroke-width:1.5;" width="157" x="30" y="7"/><ellipse cx="45" cy="23" fill="#ADD1B2" rx="11" ry="11" style="stroke:#A80036;stroke-width:1.0;"/><path d="M47,19.5 Q47.2031,19 47.4375,18.75 Q47.6719,18.5 47.9375,18.5 Q48.4063,18.5 48.7031,18.7813 Q49,19.0625 49,19.7188 L49,21.2813 Q49,21.9375 48.7188,22.2188 Q48.4375,22.5 48,22.5 Q47.6094,22.5 47.3594,22.3281 Q47.1094,22.1563 47,21.7031 Q46.9531,21.3906 46.7813,21.2188 Q46.4688,20.8906 45.9063,20.7031 Q45.3438,20.5 44.7813,20.5 Q44.0781,20.5 43.4844,20.7813 Q42.9063,21.0625 42.4531,21.6875 Q42,22.3125 42,23.1719 L42,24.0938 Q42,25.125 42.8438,25.8125 Q43.6875,26.5 45.1875,26.5 Q46.0781,26.5 46.7031,26.2969 Q47.0625,26.1875 47.4688,25.8281 Q47.7344,25.625 47.875,25.5625 Q48.0156,25.5 48.1875,25.5 Q48.5156,25.5 48.75,25.7656 Q49,26.0156 49,26.375 Q49,26.7188 48.6563,27.125 Q48.1563,27.7188 47.3594,28.0469 Q46.3125,28.5 45.0313,28.5 Q43.5313,28.5 42.3281,27.9063 Q41.3594,27.4375 40.6719,26.4219 Q40,25.4063 40,24.2031 L40,23.1094 Q40,21.8594 40.5938,20.7656 Q41.2031,19.6719 42.25,19.0938 Q43.3125,18.5 44.5,18.5 Q45.2188,18.5 45.8438,18.75 Q46.4688,19 47,19.5 Z " fill="#000000"/><text fill="#000000" font-family="sans-serif" font-size="12" lengthAdjust="spacing" textLength="125" x="59" y="27.9102">GetListOfEmployeesUI</text><line style="stroke:#A80036;stroke-width:1.5;" x1="31" x2="186" y1="39" y2="39"/><line style="stroke:#A80036;stroke-width:1.5;" x1="31" x2="186" y1="47" y2="47"/><!--MD5=[5ddf07e2fdca7843661702e33d5936d1]
class GetListOfEmployeesController--><rect codeLine="23" fill="#FEFECE" filter="url(#f1wjohe1tjstyi)" height="103.3438" id="GetListOfEmployeesController" style="stroke:#A80036;stroke-width:1.5;" width="199" x="9" y="90.5"/><ellipse cx="24" cy="106.5" fill="#ADD1B2" rx="11" ry="11" style="stroke:#A80036;stroke-width:1.0;"/><path d="M26,103 Q26.2031,102.5 26.4375,102.25 Q26.6719,102 26.9375,102 Q27.4063,102 27.7031,102.2813 Q28,102.5625 28,103.2188 L28,104.7813 Q28,105.4375 27.7188,105.7188 Q27.4375,106 27,106 Q26.6094,106 26.3594,105.8281 Q26.1094,105.6563 26,105.2031 Q25.9531,104.8906 25.7813,104.7188 Q25.4688,104.3906 24.9063,104.2031 Q24.3438,104 23.7813,104 Q23.0781,104 22.4844,104.2813 Q21.9063,104.5625 21.4531,105.1875 Q21,105.8125 21,106.6719 L21,107.5938 Q21,108.625 21.8438,109.3125 Q22.6875,110 24.1875,110 Q25.0781,110 25.7031,109.7969 Q26.0625,109.6875 26.4688,109.3281 Q26.7344,109.125 26.875,109.0625 Q27.0156,109 27.1875,109 Q27.5156,109 27.75,109.2656 Q28,109.5156 28,109.875 Q28,110.2188 27.6563,110.625 Q27.1563,111.2188 26.3594,111.5469 Q25.3125,112 24.0313,112 Q22.5313,112 21.3281,111.4063 Q20.3594,110.9375 19.6719,109.9219 Q19,108.9063 19,107.7031 L19,106.6094 Q19,105.3594 19.5938,104.2656 Q20.2031,103.1719 21.25,102.5938 Q22.3125,102 23.5,102 Q24.2188,102 24.8438,102.25 Q25.4688,102.5 26,103 Z " fill="#000000"/><text fill="#000000" font-family="sans-serif" font-size="12" lengthAdjust="spacing" textLength="167" x="38" y="111.4102">GetListOfEmployeesController</text><line style="stroke:#A80036;stroke-width:1.5;" x1="10" x2="207" y1="122.5" y2="122.5"/><line style="stroke:#A80036;stroke-width:1.5;" x1="10" x2="207" y1="130.5" y2="130.5"/><ellipse cx="20" cy="141.5" fill="#84BE84" rx="3" ry="3" style="stroke:#038048;stroke-width:1.0;"/><text fill="#000000" font-family="sans-serif" font-size="11" lengthAdjust="spacing" textLength="75" x="29" y="145.9189">getemployees()</text><ellipse cx="20" cy="155.3359" fill="#84BE84" rx="3" ry="3" style="stroke:#038048;stroke-width:1.0;"/><text fill="#000000" font-family="sans-serif" font-size="11" lengthAdjust="spacing" textLength="69" x="29" y="159.7549">getNurseList()</text><ellipse cx="20" cy="169.1719" fill="#84BE84" rx="3" ry="3" style="stroke:#038048;stroke-width:1.0;"/><text fill="#000000" font-family="sans-serif" font-size="11" lengthAdjust="spacing" textLength="99" x="29" y="173.5908">getReceptionistList()</text><ellipse cx="20" cy="183.0078" fill="#84BE84" rx="3" ry="3" style="stroke:#038048;stroke-width:1.0;"/><text fill="#000000" font-family="sans-serif" font-size="11" lengthAdjust="spacing" textLength="128" x="29" y="187.4268">getCentreCoordinatorList()</text><!--MD5=[3f83778fcdf40a203e08cdcff8cf7659]
link GetListOfEmployeesUI to GetListOfEmployeesController--><path codeLine="33" d="M108.5,55.13 C108.5,65.14 108.5,75.16 108.5,85.17 " fill="none" id="GetListOfEmployeesUI-to-GetListOfEmployeesController" style="stroke:#A80036;stroke-width:1.0;stroke-dasharray:7.0,7.0;"/><polygon fill="#A80036" points="108.5,90.4,112.5,81.4,108.5,85.4,104.5,81.4,108.5,90.4" style="stroke:#A80036;stroke-width:1.0;"/><!--MD5=[2f7590ed2d57878f8f4df8cb2488b5fc]
link GetListOfEmployeesController to Company--><path codeLine="34" d="M108.5,193.62 C108.5,203.49 108.5,213.35 108.5,223.22 " fill="none" id="GetListOfEmployeesController-to-Company" style="stroke:#A80036;stroke-width:1.0;stroke-dasharray:7.0,7.0;"/><polygon fill="#A80036" points="108.5,228.38,112.5,219.38,108.5,223.38,104.5,219.38,108.5,228.38" style="stroke:#A80036;stroke-width:1.0;"/><!--MD5=[09366576ee87d48d594df10cacc83f45]
link Company to Employee--><path codeLine="35" d="M108.5,345.61 C108.5,360.65 108.5,377.07 108.5,392.93 " fill="none" id="Company-to-Employee" style="stroke:#A80036;stroke-width:1.0;stroke-dasharray:7.0,7.0;"/><polygon fill="#A80036" points="108.5,398.28,112.5,389.28,108.5,393.28,104.5,389.28,108.5,398.28" style="stroke:#A80036;stroke-width:1.0;"/><text fill="#000000" font-family="sans-serif" font-size="13" lengthAdjust="spacing" textLength="25" x="84" y="377.4951">gets</text><!--MD5=[591c1b36de3d802e710265ac17527889]
@startuml
'https://plantuml.com/class-diagram

class Company {
+getEmployees()
+fillListOfEmployeesWithAGivenRole()
+getNurseList()
+getReceptionistList()
+getCentreCoordinatorList()
}

class Employee {
String name
String address
String role
String id
int phoneNumber
String email
int citizenCardNumber
}

class GetListOfEmployeesUI

class GetListOfEmployeesController{
+getemployees()
+getNurseList()
+getReceptionistList()
+getCentreCoordinatorList()
}


left to right direction

GetListOfEmployeesUI .> GetListOfEmployeesController
GetListOfEmployeesController .> Company
Company .> Employee: gets

@enduml

@startuml

class Company {
+getEmployees()
+fillListOfEmployeesWithAGivenRole()
+getNurseList()
+getReceptionistList()
+getCentreCoordinatorList()
}

class Employee {
String name
String address
String role
String id
int phoneNumber
String email
int citizenCardNumber
}

class GetListOfEmployeesUI

class GetListOfEmployeesController{
+getemployees()
+getNurseList()
+getReceptionistList()
+getCentreCoordinatorList()
}


left to right direction

GetListOfEmployeesUI .> GetListOfEmployeesController
GetListOfEmployeesController .> Company
Company .> Employee: gets

@enduml

PlantUML version 1.2022.1(Tue Feb 01 18:19:58 GMT 2022)
(GPL source distribution)
Java Runtime: OpenJDK Runtime Environment
JVM: OpenJDK 64-Bit Server VM
Default Encoding: Cp1252
Language: pt
Country: PT
--></g></svg>