<?xml version="1.0" encoding="UTF-8" standalone="no"?><svg xmlns="http://www.w3.org/2000/svg" xmlns:xlink="http://www.w3.org/1999/xlink" contentScriptType="application/ecmascript" contentStyleType="text/css" height="407px" preserveAspectRatio="none" style="width:1087px;height:407px;background:#FFFFFF;" version="1.1" viewBox="0 0 1087 407" width="1087px" zoomAndPan="magnify"><defs><filter height="300%" id="fj78r68b9c7m3" width="300%" x="-1" y="-1"><feGaussianBlur result="blurOut" stdDeviation="2.0"/><feColorMatrix in="blurOut" result="blurOut2" type="matrix" values="0 0 0 0 0 0 0 0 0 0 0 0 0 0 0 0 0 0 .4 0"/><feOffset dx="4.0" dy="4.0" in="blurOut2" result="blurOut3"/><feBlend in="SourceGraphic" in2="blurOut3" mode="normal"/></filter></defs><g><rect fill="#FFFFFF" filter="url(#fj78r68b9c7m3)" height="213.4609" style="stroke:#A80036;stroke-width:1.0;" width="10" x="44.5" y="99.6094"/><rect fill="#FFFFFF" filter="url(#fj78r68b9c7m3)" height="30.3516" style="stroke:#A80036;stroke-width:1.0;" width="10" x="402.5" y="121.9609"/><rect fill="#FFFFFF" filter="url(#fj78r68b9c7m3)" height="121.4063" style="stroke:#A80036;stroke-width:1.0;" width="10" x="402.5" y="182.6641"/><rect fill="#FFFFFF" filter="url(#fj78r68b9c7m3)" height="91.0547" style="stroke:#A80036;stroke-width:1.0;" width="10" x="600.5" y="213.0156"/><rect fill="#FFFFFF" filter="url(#fj78r68b9c7m3)" height="60.7031" style="stroke:#A80036;stroke-width:1.0;" width="10" x="853.5" y="243.3672"/><rect fill="#FFFFFF" filter="url(#fj78r68b9c7m3)" height="30.3516" style="stroke:#A80036;stroke-width:1.0;" width="10" x="1030.5" y="273.7188"/><line style="stroke:#A80036;stroke-width:1.0;stroke-dasharray:5.0,5.0;" x1="49" x2="49" y1="89.6094" y2="322.0703"/><line style="stroke:#A80036;stroke-width:1.0;stroke-dasharray:5.0,5.0;" x1="407" x2="407" y1="89.6094" y2="322.0703"/><line style="stroke:#A80036;stroke-width:1.0;stroke-dasharray:5.0,5.0;" x1="605" x2="605" y1="89.6094" y2="322.0703"/><line style="stroke:#A80036;stroke-width:1.0;stroke-dasharray:5.0,5.0;" x1="858.5" x2="858.5" y1="89.6094" y2="322.0703"/><line style="stroke:#A80036;stroke-width:1.0;stroke-dasharray:5.0,5.0;" x1="1035.5" x2="1035.5" y1="89.6094" y2="322.0703"/><text fill="#000000" font-family="sans-serif" font-size="14" lengthAdjust="spacing" textLength="83" x="5" y="86.5332">Administrator</text><ellipse cx="49.5" cy="15" fill="#FEFECE" filter="url(#fj78r68b9c7m3)" rx="8" ry="8" style="stroke:#A80036;stroke-width:2.0;"/><path d="M49.5,23 L49.5,50 M36.5,31 L62.5,31 M49.5,50 L36.5,65 M49.5,50 L62.5,65 " fill="none" filter="url(#fj78r68b9c7m3)" style="stroke:#A80036;stroke-width:2.0;"/><text fill="#000000" font-family="sans-serif" font-size="14" lengthAdjust="spacing" textLength="83" x="5" y="335.6035">Administrator</text><ellipse cx="49.5" cy="348.6797" fill="#FEFECE" filter="url(#fj78r68b9c7m3)" rx="8" ry="8" style="stroke:#A80036;stroke-width:2.0;"/><path d="M49.5,356.6797 L49.5,383.6797 M36.5,364.6797 L62.5,364.6797 M49.5,383.6797 L36.5,398.6797 M49.5,383.6797 L62.5,398.6797 " fill="none" filter="url(#fj78r68b9c7m3)" style="stroke:#A80036;stroke-width:2.0;"/><rect fill="#FEFECE" filter="url(#fj78r68b9c7m3)" height="31.6094" style="stroke:#A80036;stroke-width:1.5;" width="159" x="326" y="53"/><text fill="#000000" font-family="sans-serif" font-size="14" lengthAdjust="spacing" textLength="145" x="333" y="74.5332">:GetListOfEmployeesUI</text><rect fill="#FEFECE" filter="url(#fj78r68b9c7m3)" height="31.6094" style="stroke:#A80036;stroke-width:1.5;" width="159" x="326" y="321.0703"/><text fill="#000000" font-family="sans-serif" font-size="14" lengthAdjust="spacing" textLength="145" x="333" y="342.6035">:GetListOfEmployeesUI</text><rect fill="#FEFECE" filter="url(#fj78r68b9c7m3)" height="31.6094" style="stroke:#A80036;stroke-width:1.5;" width="209" x="499" y="53"/><text fill="#000000" font-family="sans-serif" font-size="14" lengthAdjust="spacing" textLength="195" x="506" y="74.5332">:GetListOfEmployeesController</text><rect fill="#FEFECE" filter="url(#fj78r68b9c7m3)" height="31.6094" style="stroke:#A80036;stroke-width:1.5;" width="209" x="499" y="321.0703"/><text fill="#000000" font-family="sans-serif" font-size="14" lengthAdjust="spacing" textLength="195" x="506" y="342.6035">:GetListOfEmployeesController</text><rect fill="#FEFECE" filter="url(#fj78r68b9c7m3)" height="31.6094" style="stroke:#A80036;stroke-width:1.5;" width="78" x="817.5" y="53"/><text fill="#000000" font-family="sans-serif" font-size="14" lengthAdjust="spacing" textLength="64" x="824.5" y="74.5332">:Company</text><rect fill="#FEFECE" filter="url(#fj78r68b9c7m3)" height="31.6094" style="stroke:#A80036;stroke-width:1.5;" width="78" x="817.5" y="321.0703"/><text fill="#000000" font-family="sans-serif" font-size="14" lengthAdjust="spacing" textLength="64" x="824.5" y="342.6035">:Company</text><rect fill="#FEFECE" filter="url(#fj78r68b9c7m3)" height="31.6094" style="stroke:#A80036;stroke-width:1.5;" width="80" x="993.5" y="53"/><text fill="#000000" font-family="sans-serif" font-size="14" lengthAdjust="spacing" textLength="66" x="1000.5" y="74.5332">:Employee</text><rect fill="#FEFECE" filter="url(#fj78r68b9c7m3)" height="31.6094" style="stroke:#A80036;stroke-width:1.5;" width="80" x="993.5" y="321.0703"/><text fill="#000000" font-family="sans-serif" font-size="14" lengthAdjust="spacing" textLength="66" x="1000.5" y="342.6035">:Employee</text><rect fill="#FFFFFF" filter="url(#fj78r68b9c7m3)" height="213.4609" style="stroke:#A80036;stroke-width:1.0;" width="10" x="44.5" y="99.6094"/><rect fill="#FFFFFF" filter="url(#fj78r68b9c7m3)" height="30.3516" style="stroke:#A80036;stroke-width:1.0;" width="10" x="402.5" y="121.9609"/><rect fill="#FFFFFF" filter="url(#fj78r68b9c7m3)" height="121.4063" style="stroke:#A80036;stroke-width:1.0;" width="10" x="402.5" y="182.6641"/><rect fill="#FFFFFF" filter="url(#fj78r68b9c7m3)" height="91.0547" style="stroke:#A80036;stroke-width:1.0;" width="10" x="600.5" y="213.0156"/><rect fill="#FFFFFF" filter="url(#fj78r68b9c7m3)" height="60.7031" style="stroke:#A80036;stroke-width:1.0;" width="10" x="853.5" y="243.3672"/><rect fill="#FFFFFF" filter="url(#fj78r68b9c7m3)" height="30.3516" style="stroke:#A80036;stroke-width:1.0;" width="10" x="1030.5" y="273.7188"/><polygon fill="#A80036" points="390.5,117.9609,400.5,121.9609,390.5,125.9609,394.5,121.9609" style="stroke:#A80036;stroke-width:1.0;"/><line style="stroke:#A80036;stroke-width:1.0;" x1="54.5" x2="396.5" y1="121.9609" y2="121.9609"/><text fill="#000000" font-family="sans-serif" font-size="13" font-weight="bold" lengthAdjust="spacing" textLength="7" x="61.5" y="117.1045">1</text><text fill="#000000" font-family="sans-serif" font-size="13" lengthAdjust="spacing" textLength="161" x="72.5" y="117.1045">asks for a list of Employees</text><polygon fill="#A80036" points="65.5,148.3125,55.5,152.3125,65.5,156.3125,61.5,152.3125" style="stroke:#A80036;stroke-width:1.0;"/><line style="stroke:#A80036;stroke-width:1.0;stroke-dasharray:2.0,2.0;" x1="59.5" x2="406.5" y1="152.3125" y2="152.3125"/><text fill="#000000" font-family="sans-serif" font-size="13" font-weight="bold" lengthAdjust="spacing" textLength="7" x="71.5" y="147.4561">2</text><text fill="#000000" font-family="sans-serif" font-size="13" lengthAdjust="spacing" textLength="313" x="82.5" y="147.4561">shows roles list (nurse,receptionist,centre coordinator)</text><polygon fill="#A80036" points="390.5,178.6641,400.5,182.6641,390.5,186.6641,394.5,182.6641" style="stroke:#A80036;stroke-width:1.0;"/><line style="stroke:#A80036;stroke-width:1.0;" x1="54.5" x2="396.5" y1="182.6641" y2="182.6641"/><text fill="#000000" font-family="sans-serif" font-size="13" font-weight="bold" lengthAdjust="spacing" textLength="7" x="61.5" y="177.8076">3</text><text fill="#000000" font-family="sans-serif" font-size="13" lengthAdjust="spacing" textLength="80" x="72.5" y="177.8076">Selects a role</text><polygon fill="#A80036" points="588.5,209.0156,598.5,213.0156,588.5,217.0156,592.5,213.0156" style="stroke:#A80036;stroke-width:1.0;"/><line style="stroke:#A80036;stroke-width:1.0;" x1="412.5" x2="594.5" y1="213.0156" y2="213.0156"/><text fill="#000000" font-family="sans-serif" font-size="13" font-weight="bold" lengthAdjust="spacing" textLength="7" x="419.5" y="208.1592">4</text><text fill="#000000" font-family="sans-serif" font-size="13" lengthAdjust="spacing" textLength="140" x="430.5" y="208.1592">GetListOfEmployeesUI()</text><polygon fill="#A80036" points="841.5,239.3672,851.5,243.3672,841.5,247.3672,845.5,243.3672" style="stroke:#A80036;stroke-width:1.0;"/><line style="stroke:#A80036;stroke-width:1.0;" x1="610.5" x2="847.5" y1="243.3672" y2="243.3672"/><text fill="#000000" font-family="sans-serif" font-size="13" font-weight="bold" lengthAdjust="spacing" textLength="7" x="617.5" y="238.5107">5</text><text fill="#000000" font-family="sans-serif" font-size="13" lengthAdjust="spacing" textLength="213" x="628.5" y="238.5107">fillListOfEmployeesWithAGivenRole()</text><polygon fill="#A80036" points="1018.5,269.7188,1028.5,273.7188,1018.5,277.7188,1022.5,273.7188" style="stroke:#A80036;stroke-width:1.0;"/><line style="stroke:#A80036;stroke-width:1.0;stroke-dasharray:2.0,2.0;" x1="863.5" x2="1024.5" y1="273.7188" y2="273.7188"/><text fill="#000000" font-family="sans-serif" font-size="13" font-weight="bold" lengthAdjust="spacing" textLength="7" x="870.5" y="268.8623">6</text><text fill="#000000" font-family="sans-serif" font-size="13" lengthAdjust="spacing" textLength="137" x="881.5" y="268.8623">saveCreatedEmployee()</text><polygon fill="#A80036" points="65.5,300.0703,55.5,304.0703,65.5,308.0703,61.5,304.0703" style="stroke:#A80036;stroke-width:1.0;"/><line style="stroke:#A80036;stroke-width:1.0;stroke-dasharray:2.0,2.0;" x1="59.5" x2="406.5" y1="304.0703" y2="304.0703"/><text fill="#000000" font-family="sans-serif" font-size="13" font-weight="bold" lengthAdjust="spacing" textLength="7" x="71.5" y="299.2139">7</text><text fill="#000000" font-family="sans-serif" font-size="13" lengthAdjust="spacing" textLength="268" x="82.5" y="299.2139">shows list of Employees with the selected role</text><!--MD5=[b14a020de27d515f6c0853acbc7484b0]
@startuml
autonumber

actor "Administrator" as A

participant ":GetListOfEmployeesUI" as UI
participant ":GetListOfEmployeesController" as CTRL
participant ":Company" as C
participant ":Employee" as E


activate A
A -> UI : asks for a list of Employees
activate UI
UI - -> A : shows roles list (nurse,receptionist,centre coordinator)
deactivate UI

A -> UI : Selects a role
activate UI

UI -> CTRL : GetListOfEmployeesUI()
activate CTRL

CTRL -> C : fillListOfEmployeesWithAGivenRole()
activate C
C - -> E : saveCreatedEmployee()
activate E

UI - -> A: shows list of Employees with the selected role

deactivate E
deactivate C
deactivate CTRL
deactivate UI



@enduml

PlantUML version 1.2022.1(Tue Feb 01 18:19:58 GMT 2022)
(GPL source distribution)
Java Runtime: OpenJDK Runtime Environment
JVM: OpenJDK 64-Bit Server VM
Default Encoding: Cp1252
Language: pt
Country: PT
--></g></svg>