<?xml version="1.0" encoding="UTF-8" standalone="no"?><svg xmlns="http://www.w3.org/2000/svg" xmlns:xlink="http://www.w3.org/1999/xlink" contentStyleType="text/css" height="552px" preserveAspectRatio="none" style="width:609px;height:552px;background:#FFFFFF;" version="1.1" viewBox="0 0 609 552" width="609px" zoomAndPan="magnify"><defs/><g><rect fill="#FFFFFF" height="360.2188" style="stroke:#181818;stroke-width:1.0;" width="10" x="46.5" y="92.6094"/><rect fill="#FFFFFF" height="30.3516" style="stroke:#181818;stroke-width:1.0;" width="10" x="546.5" y="114.9609"/><rect fill="#FFFFFF" height="30.3516" style="stroke:#181818;stroke-width:1.0;" width="10" x="546.5" y="175.6641"/><rect fill="#FFFFFF" height="216.4609" style="stroke:#181818;stroke-width:1.0;" width="10" x="546.5" y="236.3672"/><rect height="111.4063" style="stroke:#000000;stroke-width:1.5;fill:none;" width="593.5" x="10" y="251.3672"/><rect height="48.7031" style="stroke:#000000;stroke-width:1.5;fill:none;" width="573.5" x="20" y="276.7188"/><line style="stroke:#181818;stroke-width:0.5;fill:none;stroke-dasharray:5.0,5.0;" x1="51" x2="51" y1="82.6094" y2="470.8281"/><line style="stroke:#181818;stroke-width:0.5;fill:none;stroke-dasharray:5.0,5.0;" x1="551.5" x2="551.5" y1="82.6094" y2="470.8281"/><text fill="#000000" font-family="sans-serif" font-size="14" lengthAdjust="spacing" textLength="37" x="30" y="79.5332">Nurse</text><ellipse cx="51.5" cy="13.5" fill="#E2E2F0" rx="8" ry="8" style="stroke:#181818;stroke-width:0.5;"/><path d="M51.5,21.5 L51.5,48.5 M38.5,29.5 L64.5,29.5 M51.5,48.5 L38.5,63.5 M51.5,48.5 L64.5,63.5 " fill="none" style="stroke:#181818;stroke-width:0.5;"/><text fill="#000000" font-family="sans-serif" font-size="14" lengthAdjust="spacing" textLength="37" x="30" y="484.3613">Nurse</text><ellipse cx="51.5" cy="495.9375" fill="#E2E2F0" rx="8" ry="8" style="stroke:#181818;stroke-width:0.5;"/><path d="M51.5,503.9375 L51.5,530.9375 M38.5,511.9375 L64.5,511.9375 M51.5,530.9375 L38.5,545.9375 M51.5,530.9375 L64.5,545.9375 " fill="none" style="stroke:#181818;stroke-width:0.5;"/><rect fill="#E2E2F0" height="31.6094" rx="2.5" ry="2.5" style="stroke:#181818;stroke-width:0.5;" width="64" x="519.5" y="50"/><text fill="#000000" font-family="sans-serif" font-size="14" lengthAdjust="spacing" textLength="50" x="526.5" y="71.5332">:System</text><rect fill="#E2E2F0" height="31.6094" rx="2.5" ry="2.5" style="stroke:#181818;stroke-width:0.5;" width="64" x="519.5" y="469.8281"/><text fill="#000000" font-family="sans-serif" font-size="14" lengthAdjust="spacing" textLength="50" x="526.5" y="491.3613">:System</text><rect fill="#FFFFFF" height="360.2188" style="stroke:#181818;stroke-width:1.0;" width="10" x="46.5" y="92.6094"/><rect fill="#FFFFFF" height="30.3516" style="stroke:#181818;stroke-width:1.0;" width="10" x="546.5" y="114.9609"/><rect fill="#FFFFFF" height="30.3516" style="stroke:#181818;stroke-width:1.0;" width="10" x="546.5" y="175.6641"/><rect fill="#FFFFFF" height="216.4609" style="stroke:#181818;stroke-width:1.0;" width="10" x="546.5" y="236.3672"/><polygon fill="#181818" points="534.5,110.9609,544.5,114.9609,534.5,118.9609,538.5,114.9609" style="stroke:#181818;stroke-width:1.0;"/><line style="stroke:#181818;stroke-width:1.0;" x1="56.5" x2="540.5" y1="114.9609" y2="114.9609"/><text fill="#000000" font-family="sans-serif" font-size="13" font-weight="bold" lengthAdjust="spacing" textLength="7" x="63.5" y="110.1045">1</text><text fill="#000000" font-family="sans-serif" font-size="13" lengthAdjust="spacing" textLength="355" x="74.5" y="110.1045">asks to record the administration of a vaccine to an SNS user</text><polygon fill="#181818" points="67.5,141.3125,57.5,145.3125,67.5,149.3125,63.5,145.3125" style="stroke:#181818;stroke-width:1.0;"/><line style="stroke:#181818;stroke-width:1.0;stroke-dasharray:2.0,2.0;" x1="61.5" x2="550.5" y1="145.3125" y2="145.3125"/><text fill="#000000" font-family="sans-serif" font-size="13" font-weight="bold" lengthAdjust="spacing" textLength="7" x="73.5" y="140.4561">2</text><text fill="#000000" font-family="sans-serif" font-size="13" lengthAdjust="spacing" textLength="279" x="84.5" y="140.4561">shows a list with the available vacciation centers</text><polygon fill="#181818" points="534.5,171.6641,544.5,175.6641,534.5,179.6641,538.5,175.6641" style="stroke:#181818;stroke-width:1.0;"/><line style="stroke:#181818;stroke-width:1.0;" x1="56.5" x2="540.5" y1="175.6641" y2="175.6641"/><text fill="#000000" font-family="sans-serif" font-size="13" font-weight="bold" lengthAdjust="spacing" textLength="7" x="63.5" y="170.8076">3</text><text fill="#000000" font-family="sans-serif" font-size="13" lengthAdjust="spacing" textLength="172" x="74.5" y="170.8076">selects the vaccination center</text><polygon fill="#181818" points="67.5,202.0156,57.5,206.0156,67.5,210.0156,63.5,206.0156" style="stroke:#181818;stroke-width:1.0;"/><line style="stroke:#181818;stroke-width:1.0;stroke-dasharray:2.0,2.0;" x1="61.5" x2="550.5" y1="206.0156" y2="206.0156"/><text fill="#000000" font-family="sans-serif" font-size="13" font-weight="bold" lengthAdjust="spacing" textLength="7" x="73.5" y="201.1592">4</text><text fill="#000000" font-family="sans-serif" font-size="13" lengthAdjust="spacing" textLength="388" x="84.5" y="201.1592">shows a list with the available SNS users (From the Waiting Room)</text><polygon fill="#181818" points="534.5,232.3672,544.5,236.3672,534.5,240.3672,538.5,236.3672" style="stroke:#181818;stroke-width:1.0;"/><line style="stroke:#181818;stroke-width:1.0;" x1="56.5" x2="540.5" y1="236.3672" y2="236.3672"/><text fill="#000000" font-family="sans-serif" font-size="13" font-weight="bold" lengthAdjust="spacing" textLength="7" x="63.5" y="231.5107">5</text><text fill="#000000" font-family="sans-serif" font-size="13" lengthAdjust="spacing" textLength="120" x="74.5" y="231.5107">selects an SNS user</text><path d="M10,251.3672 L71,251.3672 L71,259.7188 L61,269.7188 L10,269.7188 L10,251.3672 " fill="#EEEEEE" style="stroke:#000000;stroke-width:1.5;"/><rect fill="none" height="111.4063" style="stroke:#000000;stroke-width:1.5;" width="593.5" x="10" y="251.3672"/><text fill="#000000" font-family="sans-serif" font-size="13" font-weight="bold" lengthAdjust="spacing" textLength="16" x="25" y="265.8623">alt</text><text fill="#000000" font-family="sans-serif" font-size="11" font-weight="bold" lengthAdjust="spacing" textLength="123" x="86" y="264.7861">[It´s user´s first dose]</text><path d="M20,276.7188 L93,276.7188 L93,285.0703 L83,295.0703 L20,295.0703 L20,276.7188 " fill="#EEEEEE" style="stroke:#000000;stroke-width:1.5;"/><rect fill="none" height="48.7031" style="stroke:#000000;stroke-width:1.5;" width="573.5" x="20" y="276.7188"/><text fill="#000000" font-family="sans-serif" font-size="13" font-weight="bold" lengthAdjust="spacing" textLength="28" x="35" y="291.2139">loop</text><polygon fill="#181818" points="67.5,313.4219,57.5,317.4219,67.5,321.4219,63.5,317.4219" style="stroke:#181818;stroke-width:1.0;"/><line style="stroke:#181818;stroke-width:1.0;stroke-dasharray:2.0,2.0;" x1="61.5" x2="545.5" y1="317.4219" y2="317.4219"/><text fill="#000000" font-family="sans-serif" font-size="13" font-weight="bold" lengthAdjust="spacing" textLength="7" x="73.5" y="312.5654">6</text><text fill="#000000" font-family="sans-serif" font-size="13" lengthAdjust="spacing" textLength="413" x="84.5" y="312.5654">shows a list with the available vaccines depending on selected user age</text><polygon fill="#181818" points="534.5,350.7734,544.5,354.7734,534.5,358.7734,538.5,354.7734" style="stroke:#181818;stroke-width:1.0;"/><line style="stroke:#181818;stroke-width:1.0;" x1="56.5" x2="540.5" y1="354.7734" y2="354.7734"/><text fill="#000000" font-family="sans-serif" font-size="13" font-weight="bold" lengthAdjust="spacing" textLength="7" x="63.5" y="349.917">7</text><text fill="#000000" font-family="sans-serif" font-size="13" lengthAdjust="spacing" textLength="100" x="74.5" y="349.917">selects a vaccine</text><polygon fill="#181818" points="67.5,388.125,57.5,392.125,67.5,396.125,63.5,392.125" style="stroke:#181818;stroke-width:1.0;"/><line style="stroke:#181818;stroke-width:1.0;stroke-dasharray:2.0,2.0;" x1="61.5" x2="545.5" y1="392.125" y2="392.125"/><text fill="#000000" font-family="sans-serif" font-size="13" font-weight="bold" lengthAdjust="spacing" textLength="7" x="73.5" y="387.2686">8</text><text fill="#000000" font-family="sans-serif" font-size="13" lengthAdjust="spacing" textLength="455" x="84.5" y="387.2686">shows dosage for current dose of the vaccine and request vaccine´s lot number</text><polygon fill="#181818" points="534.5,418.4766,544.5,422.4766,534.5,426.4766,538.5,422.4766" style="stroke:#181818;stroke-width:1.0;"/><line style="stroke:#181818;stroke-width:1.0;" x1="56.5" x2="540.5" y1="422.4766" y2="422.4766"/><text fill="#000000" font-family="sans-serif" font-size="13" font-weight="bold" lengthAdjust="spacing" textLength="7" x="63.5" y="417.6201">9</text><text fill="#000000" font-family="sans-serif" font-size="13" lengthAdjust="spacing" textLength="183" x="74.5" y="417.6201">introduces vaccine´s lot number</text><polygon fill="#181818" points="62.5,448.8281,52.5,452.8281,62.5,456.8281,58.5,452.8281" style="stroke:#181818;stroke-width:1.0;"/><line style="stroke:#181818;stroke-width:1.0;stroke-dasharray:2.0,2.0;" x1="56.5" x2="550.5" y1="452.8281" y2="452.8281"/><text fill="#000000" font-family="sans-serif" font-size="13" font-weight="bold" lengthAdjust="spacing" textLength="14" x="68.5" y="447.9717">10</text><text fill="#000000" font-family="sans-serif" font-size="13" lengthAdjust="spacing" textLength="253" x="86.5" y="447.9717">send´s an SMS when recovery time finishes</text><!--MD5=[c2ce313f1b22c32d32931c85e6bd786d]
@startuml

autonumber
actor "Nurse" as N

activate N
N -> ":System" : asks to record the administration of a vaccine to an SNS user

activate ":System"
":System" - -> N : shows a list with the available vacciation centers
deactivate ":System"
N -> ":System" : selects the vaccination center

activate ":System"
":System" - -> N : shows a list with the available SNS users (From the Waiting Room)
deactivate ":System"
N -> ":System" : selects an SNS user

activate ":System"
alt It´s user´s first dose
loop
":System" - -> N : shows a list with the available vaccines depending on selected user age
end
N -> ":System" : selects a vaccine
end

activate ":System"
":System" - -> N : shows dosage for current dose of the vaccine and request vaccine´s lot number
N -> ":System" : introduces vaccine´s lot number

":System" - -> N : send´s an SMS when recovery time finishes
deactivate ":System"

deactivate N

@enduml

PlantUML version 1.2022.5(Sat Apr 30 11:55:52 BST 2022)
(GPL source distribution)
Java Runtime: OpenJDK Runtime Environment
JVM: OpenJDK 64-Bit Server VM
Default Encoding: Cp1252
Language: en
Country: US
--></g></svg>