<?xml version="1.0" encoding="UTF-8" standalone="no"?><svg xmlns="http://www.w3.org/2000/svg" xmlns:xlink="http://www.w3.org/1999/xlink" contentStyleType="text/css" height="587px" preserveAspectRatio="none" style="width:1121px;height:587px;background:#FFFFFF;" version="1.1" viewBox="0 0 1121 587" width="1121px" zoomAndPan="magnify"><defs/><g><!--MD5=[c4593935f45e4a2a0cefc4788932b53f]
class SnsUser--><g id="elem_SnsUser"><rect codeLine="7" fill="#F1F1F1" height="145.6563" id="SnsUser" rx="2.5" ry="2.5" style="stroke:#181818;stroke-width:0.5;" width="136" x="195" y="7"/><ellipse cx="232.95" cy="23" fill="#ADD1B2" rx="11" ry="11" style="stroke:#181818;stroke-width:1.0;"/><path d="M234.95,19.5 Q235.1531,19 235.3875,18.75 Q235.6219,18.5 235.8875,18.5 Q236.3563,18.5 236.6531,18.7813 Q236.95,19.0625 236.95,19.7188 L236.95,21.2813 Q236.95,21.9375 236.6688,22.2188 Q236.3875,22.5 235.95,22.5 Q235.5594,22.5 235.3094,22.3281 Q235.0594,22.1563 234.95,21.7031 Q234.9031,21.3906 234.7313,21.2188 Q234.4188,20.8906 233.8563,20.7031 Q233.2938,20.5 232.7313,20.5 Q232.0281,20.5 231.4344,20.7813 Q230.8563,21.0625 230.4031,21.6875 Q229.95,22.3125 229.95,23.1719 L229.95,24.0938 Q229.95,25.125 230.7938,25.8125 Q231.6375,26.5 233.1375,26.5 Q234.0281,26.5 234.6531,26.2969 Q235.0125,26.1875 235.4188,25.8281 Q235.6844,25.625 235.825,25.5625 Q235.9656,25.5 236.1375,25.5 Q236.4656,25.5 236.7,25.7656 Q236.95,26.0156 236.95,26.375 Q236.95,26.7188 236.6063,27.125 Q236.1063,27.7188 235.3094,28.0469 Q234.2625,28.5 232.9813,28.5 Q231.4813,28.5 230.2781,27.9063 Q229.3094,27.4375 228.6219,26.4219 Q227.95,25.4063 227.95,24.2031 L227.95,23.1094 Q227.95,21.8594 228.5438,20.7656 Q229.1531,19.6719 230.2,19.0938 Q231.2625,18.5 232.45,18.5 Q233.1688,18.5 233.7938,18.75 Q234.4188,19 234.95,19.5 Z " fill="#000000"/><text fill="#000000" font-family="sans-serif" font-size="14" lengthAdjust="spacing" textLength="53" x="252.05" y="28.7285">SnsUser</text><line style="stroke:#181818;stroke-width:0.5;" x1="196" x2="330" y1="39" y2="39"/><text fill="#000000" font-family="sans-serif" font-size="14" lengthAdjust="spacing" textLength="105" x="201" y="57.5332">-snsUserNumber</text><text fill="#000000" font-family="sans-serif" font-size="14" lengthAdjust="spacing" textLength="61" x="201" y="75.1426">-birthdate</text><text fill="#000000" font-family="sans-serif" font-size="14" lengthAdjust="spacing" textLength="94" x="201" y="92.752">-phoneNumber</text><text fill="#000000" font-family="sans-serif" font-size="14" lengthAdjust="spacing" textLength="26" x="201" y="110.3613">-sex</text><text fill="#000000" font-family="sans-serif" font-size="14" lengthAdjust="spacing" textLength="56" x="201" y="127.9707">-address</text><text fill="#000000" font-family="sans-serif" font-size="14" lengthAdjust="spacing" textLength="124" x="201" y="145.5801">-citizenCardNumber</text></g><!--MD5=[1869ee9863863a0d2594cbfcdbe20ea7]
class VaccineBulletin--><g id="elem_VaccineBulletin"><rect codeLine="16" fill="#F1F1F1" height="110.4375" id="VaccineBulletin" rx="2.5" ry="2.5" style="stroke:#181818;stroke-width:0.5;" width="151" x="427" y="27"/><ellipse cx="452.35" cy="43" fill="#ADD1B2" rx="11" ry="11" style="stroke:#181818;stroke-width:1.0;"/><path d="M454.35,39.5 Q454.5531,39 454.7875,38.75 Q455.0219,38.5 455.2875,38.5 Q455.7563,38.5 456.0531,38.7813 Q456.35,39.0625 456.35,39.7188 L456.35,41.2813 Q456.35,41.9375 456.0688,42.2188 Q455.7875,42.5 455.35,42.5 Q454.9594,42.5 454.7094,42.3281 Q454.4594,42.1563 454.35,41.7031 Q454.3031,41.3906 454.1313,41.2188 Q453.8188,40.8906 453.2563,40.7031 Q452.6938,40.5 452.1313,40.5 Q451.4281,40.5 450.8344,40.7813 Q450.2563,41.0625 449.8031,41.6875 Q449.35,42.3125 449.35,43.1719 L449.35,44.0938 Q449.35,45.125 450.1938,45.8125 Q451.0375,46.5 452.5375,46.5 Q453.4281,46.5 454.0531,46.2969 Q454.4125,46.1875 454.8188,45.8281 Q455.0844,45.625 455.225,45.5625 Q455.3656,45.5 455.5375,45.5 Q455.8656,45.5 456.1,45.7656 Q456.35,46.0156 456.35,46.375 Q456.35,46.7188 456.0063,47.125 Q455.5063,47.7188 454.7094,48.0469 Q453.6625,48.5 452.3813,48.5 Q450.8813,48.5 449.6781,47.9063 Q448.7094,47.4375 448.0219,46.4219 Q447.35,45.4063 447.35,44.2031 L447.35,43.1094 Q447.35,41.8594 447.9438,40.7656 Q448.5531,39.6719 449.6,39.0938 Q450.6625,38.5 451.85,38.5 Q452.5688,38.5 453.1938,38.75 Q453.8188,39 454.35,39.5 Z " fill="#000000"/><text fill="#000000" font-family="sans-serif" font-size="14" lengthAdjust="spacing" textLength="96" x="468.65" y="48.7285">VaccineBulletin</text><line style="stroke:#181818;stroke-width:0.5;" x1="428" x2="577" y1="59" y2="59"/><text fill="#000000" font-family="sans-serif" font-size="14" lengthAdjust="spacing" textLength="53" x="433" y="77.5332">-vaccine</text><text fill="#000000" font-family="sans-serif" font-size="14" lengthAdjust="spacing" textLength="139" x="433" y="95.1426">-dateTimeOfLastDose</text><text fill="#000000" font-family="sans-serif" font-size="14" lengthAdjust="spacing" textLength="85" x="433" y="112.752">-doseNumber</text><text fill="#000000" font-family="sans-serif" font-size="14" lengthAdjust="spacing" textLength="69" x="433" y="130.3613">-lotNumber</text></g><!--MD5=[0e501da62322464167c8ec4d233a6b7e]
class VaccineType--><g id="elem_VaccineType"><rect codeLine="23" fill="#F1F1F1" height="92.8281" id="VaccineType" rx="2.5" ry="2.5" style="stroke:#181818;stroke-width:0.5;" width="139" x="975" y="159.5"/><ellipse cx="1001.25" cy="175.5" fill="#ADD1B2" rx="11" ry="11" style="stroke:#181818;stroke-width:1.0;"/><path d="M1003.25,172 Q1003.4531,171.5 1003.6875,171.25 Q1003.9219,171 1004.1875,171 Q1004.6563,171 1004.9531,171.2813 Q1005.25,171.5625 1005.25,172.2188 L1005.25,173.7813 Q1005.25,174.4375 1004.9688,174.7188 Q1004.6875,175 1004.25,175 Q1003.8594,175 1003.6094,174.8281 Q1003.3594,174.6563 1003.25,174.2031 Q1003.2031,173.8906 1003.0313,173.7188 Q1002.7188,173.3906 1002.1563,173.2031 Q1001.5938,173 1001.0313,173 Q1000.3281,173 999.7344,173.2813 Q999.1563,173.5625 998.7031,174.1875 Q998.25,174.8125 998.25,175.6719 L998.25,176.5938 Q998.25,177.625 999.0938,178.3125 Q999.9375,179 1001.4375,179 Q1002.3281,179 1002.9531,178.7969 Q1003.3125,178.6875 1003.7188,178.3281 Q1003.9844,178.125 1004.125,178.0625 Q1004.2656,178 1004.4375,178 Q1004.7656,178 1005,178.2656 Q1005.25,178.5156 1005.25,178.875 Q1005.25,179.2188 1004.9063,179.625 Q1004.4063,180.2188 1003.6094,180.5469 Q1002.5625,181 1001.2813,181 Q999.7813,181 998.5781,180.4063 Q997.6094,179.9375 996.9219,178.9219 Q996.25,177.9063 996.25,176.7031 L996.25,175.6094 Q996.25,174.3594 996.8438,173.2656 Q997.4531,172.1719 998.5,171.5938 Q999.5625,171 1000.75,171 Q1001.4688,171 1002.0938,171.25 Q1002.7188,171.5 1003.25,172 Z " fill="#000000"/><text fill="#000000" font-family="sans-serif" font-size="14" lengthAdjust="spacing" textLength="82" x="1017.75" y="181.2285">VaccineType</text><line style="stroke:#181818;stroke-width:0.5;" x1="976" x2="1113" y1="191.5" y2="191.5"/><text fill="#000000" font-family="sans-serif" font-size="14" lengthAdjust="spacing" textLength="74" x="981" y="210.0332">-description</text><text fill="#000000" font-family="sans-serif" font-size="14" lengthAdjust="spacing" textLength="36" x="981" y="227.6426">-code</text><text fill="#000000" font-family="sans-serif" font-size="14" lengthAdjust="spacing" textLength="127" x="981" y="245.252">-vaccineTechnology</text></g><!--MD5=[19e445fc4d3b48519cbe33da05496394]
class Vaccine--><g id="elem_Vaccine"><rect codeLine="29" fill="#F1F1F1" height="128.0469" id="Vaccine" rx="2.5" ry="2.5" style="stroke:#181818;stroke-width:0.5;" width="106" x="695.5" y="23"/><ellipse cx="721.3" cy="39" fill="#ADD1B2" rx="11" ry="11" style="stroke:#181818;stroke-width:1.0;"/><path d="M723.3,35.5 Q723.5031,35 723.7375,34.75 Q723.9719,34.5 724.2375,34.5 Q724.7063,34.5 725.0031,34.7813 Q725.3,35.0625 725.3,35.7188 L725.3,37.2813 Q725.3,37.9375 725.0188,38.2188 Q724.7375,38.5 724.3,38.5 Q723.9094,38.5 723.6594,38.3281 Q723.4094,38.1563 723.3,37.7031 Q723.2531,37.3906 723.0813,37.2188 Q722.7688,36.8906 722.2063,36.7031 Q721.6438,36.5 721.0813,36.5 Q720.3781,36.5 719.7844,36.7813 Q719.2063,37.0625 718.7531,37.6875 Q718.3,38.3125 718.3,39.1719 L718.3,40.0938 Q718.3,41.125 719.1438,41.8125 Q719.9875,42.5 721.4875,42.5 Q722.3781,42.5 723.0031,42.2969 Q723.3625,42.1875 723.7688,41.8281 Q724.0344,41.625 724.175,41.5625 Q724.3156,41.5 724.4875,41.5 Q724.8156,41.5 725.05,41.7656 Q725.3,42.0156 725.3,42.375 Q725.3,42.7188 724.9563,43.125 Q724.4563,43.7188 723.6594,44.0469 Q722.6125,44.5 721.3313,44.5 Q719.8313,44.5 718.6281,43.9063 Q717.6594,43.4375 716.9719,42.4219 Q716.3,41.4063 716.3,40.2031 L716.3,39.1094 Q716.3,37.8594 716.8938,36.7656 Q717.5031,35.6719 718.55,35.0938 Q719.6125,34.5 720.8,34.5 Q721.5188,34.5 722.1438,34.75 Q722.7688,35 723.3,35.5 Z " fill="#000000"/><text fill="#000000" font-family="sans-serif" font-size="14" lengthAdjust="spacing" textLength="50" x="737.7" y="44.7285">Vaccine</text><line style="stroke:#181818;stroke-width:0.5;" x1="696.5" x2="800.5" y1="55" y2="55"/><text fill="#000000" font-family="sans-serif" font-size="14" lengthAdjust="spacing" textLength="40" x="701.5" y="73.5332">-name</text><text fill="#000000" font-family="sans-serif" font-size="14" lengthAdjust="spacing" textLength="16" x="701.5" y="91.1426">-id</text><text fill="#000000" font-family="sans-serif" font-size="14" lengthAdjust="spacing" textLength="42" x="701.5" y="108.752">-brand</text><text fill="#000000" font-family="sans-serif" font-size="14" lengthAdjust="spacing" textLength="94" x="701.5" y="126.3613">-adminProcess</text><text fill="#000000" font-family="sans-serif" font-size="14" lengthAdjust="spacing" textLength="84" x="701.5" y="143.9707">-vaccine type</text></g><!--MD5=[dba9a92b96999febf7a21ca0aa8468a3]
class ScheduledVaccine--><g id="elem_ScheduledVaccine"><rect codeLine="37" fill="#F1F1F1" height="75.2188" id="ScheduledVaccine" rx="2.5" ry="2.5" style="stroke:#181818;stroke-width:0.5;" width="149" x="674" y="292.5"/><ellipse cx="689" cy="308.5" fill="#ADD1B2" rx="11" ry="11" style="stroke:#181818;stroke-width:1.0;"/><path d="M691,305 Q691.2031,304.5 691.4375,304.25 Q691.6719,304 691.9375,304 Q692.4063,304 692.7031,304.2813 Q693,304.5625 693,305.2188 L693,306.7813 Q693,307.4375 692.7188,307.7188 Q692.4375,308 692,308 Q691.6094,308 691.3594,307.8281 Q691.1094,307.6563 691,307.2031 Q690.9531,306.8906 690.7813,306.7188 Q690.4688,306.3906 689.9063,306.2031 Q689.3438,306 688.7813,306 Q688.0781,306 687.4844,306.2813 Q686.9063,306.5625 686.4531,307.1875 Q686,307.8125 686,308.6719 L686,309.5938 Q686,310.625 686.8438,311.3125 Q687.6875,312 689.1875,312 Q690.0781,312 690.7031,311.7969 Q691.0625,311.6875 691.4688,311.3281 Q691.7344,311.125 691.875,311.0625 Q692.0156,311 692.1875,311 Q692.5156,311 692.75,311.2656 Q693,311.5156 693,311.875 Q693,312.2188 692.6563,312.625 Q692.1563,313.2188 691.3594,313.5469 Q690.3125,314 689.0313,314 Q687.5313,314 686.3281,313.4063 Q685.3594,312.9375 684.6719,311.9219 Q684,310.9063 684,309.7031 L684,308.6094 Q684,307.3594 684.5938,306.2656 Q685.2031,305.1719 686.25,304.5938 Q687.3125,304 688.5,304 Q689.2188,304 689.8438,304.25 Q690.4688,304.5 691,305 Z " fill="#000000"/><text fill="#000000" font-family="sans-serif" font-size="14" lengthAdjust="spacing" textLength="117" x="703" y="314.2285">ScheduledVaccine</text><line style="stroke:#181818;stroke-width:0.5;" x1="675" x2="822" y1="324.5" y2="324.5"/><text fill="#000000" font-family="sans-serif" font-size="14" lengthAdjust="spacing" textLength="105" x="680" y="343.0332">-snsUserNumber</text><text fill="#000000" font-family="sans-serif" font-size="14" lengthAdjust="spacing" textLength="33" x="680" y="360.6426">-date</text></g><!--MD5=[de60e6d4f424ae4d0522096f76a59010]
class VaccinationCenter--><g id="elem_VaccinationCenter"><rect codeLine="42" fill="#F1F1F1" height="304.1406" id="VaccinationCenter" rx="2.5" ry="2.5" style="stroke:#181818;stroke-width:0.5;" width="148" x="428.5" y="276"/><ellipse cx="443.5" cy="292" fill="#ADD1B2" rx="11" ry="11" style="stroke:#181818;stroke-width:1.0;"/><path d="M445.5,288.5 Q445.7031,288 445.9375,287.75 Q446.1719,287.5 446.4375,287.5 Q446.9063,287.5 447.2031,287.7813 Q447.5,288.0625 447.5,288.7188 L447.5,290.2813 Q447.5,290.9375 447.2188,291.2188 Q446.9375,291.5 446.5,291.5 Q446.1094,291.5 445.8594,291.3281 Q445.6094,291.1563 445.5,290.7031 Q445.4531,290.3906 445.2813,290.2188 Q444.9688,289.8906 444.4063,289.7031 Q443.8438,289.5 443.2813,289.5 Q442.5781,289.5 441.9844,289.7813 Q441.4063,290.0625 440.9531,290.6875 Q440.5,291.3125 440.5,292.1719 L440.5,293.0938 Q440.5,294.125 441.3438,294.8125 Q442.1875,295.5 443.6875,295.5 Q444.5781,295.5 445.2031,295.2969 Q445.5625,295.1875 445.9688,294.8281 Q446.2344,294.625 446.375,294.5625 Q446.5156,294.5 446.6875,294.5 Q447.0156,294.5 447.25,294.7656 Q447.5,295.0156 447.5,295.375 Q447.5,295.7188 447.1563,296.125 Q446.6563,296.7188 445.8594,297.0469 Q444.8125,297.5 443.5313,297.5 Q442.0313,297.5 440.8281,296.9063 Q439.8594,296.4375 439.1719,295.4219 Q438.5,294.4063 438.5,293.2031 L438.5,292.1094 Q438.5,290.8594 439.0938,289.7656 Q439.7031,288.6719 440.75,288.0938 Q441.8125,287.5 443,287.5 Q443.7188,287.5 444.3438,287.75 Q444.9688,288 445.5,288.5 Z " fill="#000000"/><text fill="#000000" font-family="sans-serif" font-size="14" lengthAdjust="spacing" textLength="116" x="457.5" y="297.7285">VaccinationCenter</text><line style="stroke:#181818;stroke-width:0.5;" x1="429.5" x2="575.5" y1="308" y2="308"/><text fill="#000000" font-family="sans-serif" font-size="14" lengthAdjust="spacing" textLength="16" x="434.5" y="326.5332">-id</text><text fill="#000000" font-family="sans-serif" font-size="14" lengthAdjust="spacing" textLength="40" x="434.5" y="344.1426">-name</text><text fill="#000000" font-family="sans-serif" font-size="14" lengthAdjust="spacing" textLength="94" x="434.5" y="361.752">-phoneNumber</text><text fill="#000000" font-family="sans-serif" font-size="14" lengthAdjust="spacing" textLength="38" x="434.5" y="379.3613">-email</text><text fill="#000000" font-family="sans-serif" font-size="14" lengthAdjust="spacing" textLength="23" x="434.5" y="396.9707">-fax</text><text fill="#000000" font-family="sans-serif" font-size="14" lengthAdjust="spacing" textLength="52" x="434.5" y="414.5801">-website</text><text fill="#000000" font-family="sans-serif" font-size="14" lengthAdjust="spacing" textLength="86" x="434.5" y="432.1895">-openingHour</text><text fill="#000000" font-family="sans-serif" font-size="14" lengthAdjust="spacing" textLength="79" x="434.5" y="449.7988">-closingHour</text><text fill="#000000" font-family="sans-serif" font-size="14" lengthAdjust="spacing" textLength="81" x="434.5" y="467.4082">-slotDuration</text><text fill="#000000" font-family="sans-serif" font-size="14" lengthAdjust="spacing" textLength="106" x="434.5" y="485.0176">-vaccinesPerSlot</text><text fill="#000000" font-family="sans-serif" font-size="14" lengthAdjust="spacing" textLength="34" x="434.5" y="502.627">-road</text><text fill="#000000" font-family="sans-serif" font-size="14" lengthAdjust="spacing" textLength="56" x="434.5" y="520.2363">-zipCode</text><text fill="#000000" font-family="sans-serif" font-size="14" lengthAdjust="spacing" textLength="34" x="434.5" y="537.8457">-local</text><text fill="#000000" font-family="sans-serif" font-size="14" lengthAdjust="spacing" textLength="133" x="434.5" y="555.4551">-centerCoordinatorID</text><text fill="#000000" font-family="sans-serif" font-size="14" lengthAdjust="spacing" textLength="73" x="434.5" y="573.0645">-arrivalsList</text></g><!--MD5=[02e4b9b7573f1156f41e60aa5b4e25a4]
class Company--><g id="elem_Company"><rect fill="#F1F1F1" height="40" id="Company" rx="2.5" ry="2.5" style="stroke:#181818;stroke-width:0.5;" width="92" x="7" y="186"/><ellipse cx="22" cy="202" fill="#ADD1B2" rx="11" ry="11" style="stroke:#181818;stroke-width:1.0;"/><path d="M24,198.5 Q24.2031,198 24.4375,197.75 Q24.6719,197.5 24.9375,197.5 Q25.4063,197.5 25.7031,197.7813 Q26,198.0625 26,198.7188 L26,200.2813 Q26,200.9375 25.7188,201.2188 Q25.4375,201.5 25,201.5 Q24.6094,201.5 24.3594,201.3281 Q24.1094,201.1563 24,200.7031 Q23.9531,200.3906 23.7813,200.2188 Q23.4688,199.8906 22.9063,199.7031 Q22.3438,199.5 21.7813,199.5 Q21.0781,199.5 20.4844,199.7813 Q19.9063,200.0625 19.4531,200.6875 Q19,201.3125 19,202.1719 L19,203.0938 Q19,204.125 19.8438,204.8125 Q20.6875,205.5 22.1875,205.5 Q23.0781,205.5 23.7031,205.2969 Q24.0625,205.1875 24.4688,204.8281 Q24.7344,204.625 24.875,204.5625 Q25.0156,204.5 25.1875,204.5 Q25.5156,204.5 25.75,204.7656 Q26,205.0156 26,205.375 Q26,205.7188 25.6563,206.125 Q25.1563,206.7188 24.3594,207.0469 Q23.3125,207.5 22.0313,207.5 Q20.5313,207.5 19.3281,206.9063 Q18.3594,206.4375 17.6719,205.4219 Q17,204.4063 17,203.2031 L17,202.1094 Q17,200.8594 17.5938,199.7656 Q18.2031,198.6719 19.25,198.0938 Q20.3125,197.5 21.5,197.5 Q22.2188,197.5 22.8438,197.75 Q23.4688,198 24,198.5 Z " fill="#000000"/><text fill="#000000" font-family="sans-serif" font-size="14" lengthAdjust="spacing" textLength="60" x="36" y="207.7285">Company</text><line style="stroke:#181818;stroke-width:0.5;" x1="8" x2="98" y1="218" y2="218"/></g><!--MD5=[d0019c0afc7056194148dc542fcd30ca]
link SnsUser to VaccineBulletin--><g id="link_SnsUser_VaccineBulletin"><path codeLine="60" d="M331.11,80.57 C359.24,80.8 392.19,81.08 421.57,81.33 " fill="none" id="SnsUser-to-VaccineBulletin" style="stroke:#181818;stroke-width:1.0;"/><polygon fill="#181818" points="426.63,81.37,417.6646,77.293,421.6302,81.3271,417.596,85.2927,426.63,81.37" style="stroke:#181818;stroke-width:1.0;"/><polygon fill="#000000" points="370.9998,72.2178,361.9797,69.203,361.9304,75.0806,370.9998,72.2178" style="stroke:#000000;stroke-width:1.0;"/><text fill="#000000" font-family="sans-serif" font-size="13" lengthAdjust="spacing" textLength="21" x="375" y="77.4951">has</text><text fill="#000000" font-family="sans-serif" font-size="13" lengthAdjust="spacing" textLength="7" x="338.9423" y="95.0405">1</text><text fill="#000000" font-family="sans-serif" font-size="13" lengthAdjust="spacing" textLength="5" x="413.9155" y="95.5864">*</text></g><!--MD5=[50182863975a7f0fd55fd63b7dc30e9d]
link VaccineBulletin to Vaccine--><g id="link_VaccineBulletin_Vaccine"><path codeLine="62" d="M578.03,83.53 C614.09,84.27 656.69,85.14 690.16,85.82 " fill="none" id="VaccineBulletin-to-Vaccine" style="stroke:#181818;stroke-width:1.0;"/><polygon fill="#181818" points="695.45,85.93,686.5318,81.7508,690.451,85.83,686.3718,89.7492,695.45,85.93" style="stroke:#181818;stroke-width:1.0;"/><polygon fill="#000000" points="617.999,76.2779,609.0158,73.1549,608.8957,79.0315,617.999,76.2779" style="stroke:#000000;stroke-width:1.0;"/><text fill="#000000" font-family="sans-serif" font-size="13" lengthAdjust="spacing" textLength="21" x="622" y="81.4951">has</text><text fill="#000000" font-family="sans-serif" font-size="13" lengthAdjust="spacing" textLength="7" x="586.18" y="98.0035">1</text><text fill="#000000" font-family="sans-serif" font-size="13" lengthAdjust="spacing" textLength="7" x="680.4977" y="100.4211">1</text></g><!--MD5=[1be679a08cb8113d11b1816eb4e0394e]
link ScheduledVaccine to VaccineType--><g id="link_ScheduledVaccine_VaccineType"><path codeLine="64" d="M823.07,300.54 C859.81,285.66 904.88,267.17 945,250 C953.14,246.52 961.62,242.82 970.06,239.11 " fill="none" id="ScheduledVaccine-to-VaccineType" style="stroke:#181818;stroke-width:1.0;"/><polygon fill="#181818" points="974.73,237.05,964.8811,237.0443,970.1598,239.078,968.126,244.3567,974.73,237.05" style="stroke:#181818;stroke-width:1.0;"/><polygon fill="#000000" points="862.6133,239.2478,853.1345,240.0239,855.401,245.4472,862.6133,239.2478" style="stroke:#000000;stroke-width:1.0;"/><text fill="#000000" font-family="sans-serif" font-size="13" lengthAdjust="spacing" textLength="77" x="867" y="246.4951">is associated</text><text fill="#000000" font-family="sans-serif" font-size="13" lengthAdjust="spacing" textLength="5" x="831.0178" y="311.8289">*</text><text fill="#000000" font-family="sans-serif" font-size="13" lengthAdjust="spacing" textLength="7" x="960.174" y="254.5991">1</text></g><!--MD5=[7ea5958ae75d1b49d8885d6c52a43a8a]
link Company to SnsUser--><g id="link_Company_SnsUser"><path codeLine="66" d="M87.42,185.76 C116.24,168.3 158.76,142.54 194.62,120.81 " fill="none" id="Company-SnsUser" style="stroke:#181818;stroke-width:1.0;"/><polygon fill="#000000" points="138.2763,128.5848,129.0175,130.7583,132.0633,135.7855,138.2763,128.5848" style="stroke:#000000;stroke-width:1.0;"/><text fill="#000000" font-family="sans-serif" font-size="13" lengthAdjust="spacing" textLength="21" x="143" y="136.4951">has</text><text fill="#000000" font-family="sans-serif" font-size="13" lengthAdjust="spacing" textLength="7" x="89.5028" y="175.0113">1</text><text fill="#000000" font-family="sans-serif" font-size="13" lengthAdjust="spacing" textLength="5" x="181.8675" y="139.6817">*</text></g><!--MD5=[eebe9b198877275d05dd12630ed9e401]
link Company to VaccinationCenter--><g id="link_Company_VaccinationCenter"><path codeLine="68" d="M94.5,226.09 C170.02,263.56 333.27,344.54 428.48,391.77 " fill="none" id="Company-VaccinationCenter" style="stroke:#181818;stroke-width:1.0;"/><polygon fill="#000000" points="254.4791,270.3978,247.6824,263.7454,245.0702,269.0109,254.4791,270.3978" style="stroke:#000000;stroke-width:1.0;"/><text fill="#000000" font-family="sans-serif" font-size="13" lengthAdjust="spacing" textLength="21" x="259" y="273.4951">has</text><text fill="#000000" font-family="sans-serif" font-size="13" lengthAdjust="spacing" textLength="7" x="98.1875" y="247.5349">1</text><text fill="#000000" font-family="sans-serif" font-size="13" lengthAdjust="spacing" textLength="5" x="415.5889" y="402.3648">*</text></g><!--MD5=[05986564e1c13a00611587b35563d868]
link Company to VaccineType--><g id="link_Company_VaccineType"><path codeLine="70" d="M99.04,206 C141.17,206 205.85,206 262,206 C262,206 262,206 749.5,206 C826.7,206 915.3,206 974.89,206 " fill="none" id="Company-VaccineType" style="stroke:#181818;stroke-width:1.0;"/><polygon fill="#000000" points="480,197.1758,470.9549,194.2369,470.9549,200.1147,480,197.1758" style="stroke:#000000;stroke-width:1.0;"/><text fill="#000000" font-family="sans-serif" font-size="13" lengthAdjust="spacing" textLength="50" x="484" y="202.4951">storages</text><text fill="#000000" font-family="sans-serif" font-size="13" lengthAdjust="spacing" textLength="7" x="106.9354" y="220.7981">1</text><text fill="#000000" font-family="sans-serif" font-size="13" lengthAdjust="spacing" textLength="5" x="962.003" y="220.3987">*</text></g><!--MD5=[adcf0078a0299005c9f5ccec10b6ed04]
link VaccinationCenter to ScheduledVaccine--><g id="link_VaccinationCenter_ScheduledVaccine"><path codeLine="72" d="M576.71,398.6 C607.45,386.25 643.14,371.91 673.92,359.55 " fill="none" id="VaccinationCenter-ScheduledVaccine" style="stroke:#181818;stroke-width:1.0;"/><polygon fill="#000000" points="617.6396,362.312,608.1509,362.9565,610.342,368.4107,617.6396,362.312" style="stroke:#000000;stroke-width:1.0;"/><text fill="#000000" font-family="sans-serif" font-size="13" lengthAdjust="spacing" textLength="21" x="622" y="369.4951">has</text><text fill="#000000" font-family="sans-serif" font-size="13" lengthAdjust="spacing" textLength="7" x="584.7238" y="409.8991">1</text><text fill="#000000" font-family="sans-serif" font-size="13" lengthAdjust="spacing" textLength="5" x="660.9711" y="376.9243">*</text></g><!--MD5=[3568623adf67b2630dce9e60c05bd02a]
link Vaccine to VaccineType--><g id="link_Vaccine_VaccineType"><path codeLine="74" d="M801.72,108.14 C849.99,127.67 922.01,156.83 974.9,178.23 " fill="none" id="Vaccine-VaccineType" style="stroke:#181818;stroke-width:1.0;"/><polygon fill="#000000" points="878.1348,126.0516,870.8529,119.934,868.6478,125.3825,878.1348,126.0516" style="stroke:#000000;stroke-width:1.0;"/><text fill="#000000" font-family="sans-serif" font-size="13" lengthAdjust="spacing" textLength="46" x="882.5" y="129.4951">has one</text><text fill="#000000" font-family="sans-serif" font-size="13" lengthAdjust="spacing" textLength="5" x="809.5556" y="125.7544">*</text><text fill="#000000" font-family="sans-serif" font-size="13" lengthAdjust="spacing" textLength="7" x="959.9047" y="189.5914">1</text></g><!--MD5=[1cd8aaf370c3ef783e7a0ef17bbaf04d]
@startuml

hide methods
left to right direction
skinparam classAttributeIconSize 0


class SnsUser {
-snsUserNumber
-birthdate
-phoneNumber
-sex
-address
-citizenCardNumber
}

class VaccineBulletin {
-vaccine
-dateTimeOfLastDose
-doseNumber
-lotNumber
}

class VaccineType {
-description
-code
-vaccineTechnology
}

class Vaccine {
-name
-id
-brand
-adminProcess
-vaccine type
}

class ScheduledVaccine {
-snsUserNumber
-date
}

class VaccinationCenter {
-id
-name
-phoneNumber
-email
-fax
-website
-openingHour
-closingHour
-slotDuration
-vaccinesPerSlot
-road
-zipCode
-local
-centerCoordinatorID
-arrivalsList
}

SnsUser "1" - -> "*" VaccineBulletin: has >

VaccineBulletin "1" - -> "1" Vaccine: has >

ScheduledVaccine "*" - -> "1" VaccineType: is associated  >

Company "1" - - "*" SnsUser : has >

Company "1" - - - "*" VaccinationCenter : has >

Company "1" - - "*" VaccineType : storages >

VaccinationCenter "1" - - "*" ScheduledVaccine : has >

Vaccine "*" - - "1" VaccineType : has one >


@enduml

PlantUML version 1.2022.5(Sat Apr 30 11:55:52 BST 2022)
(GPL source distribution)
Java Runtime: OpenJDK Runtime Environment
JVM: OpenJDK 64-Bit Server VM
Default Encoding: Cp1252
Language: en
Country: US
--></g></svg>