<?xml version="1.0" encoding="UTF-8" standalone="no"?><svg xmlns="http://www.w3.org/2000/svg" xmlns:xlink="http://www.w3.org/1999/xlink" contentStyleType="text/css" height="1618px" preserveAspectRatio="none" style="width:2700px;height:1618px;background:#FFFFFF;" version="1.1" viewBox="0 0 2700 1618" width="2700px" zoomAndPan="magnify"><defs/><g><rect fill="#FFFFFF" height="1426.0078" style="stroke:#181818;stroke-width:1.0;" width="10" x="46.5" y="92.6094"/><rect fill="#FFFFFF" height="193.6641" style="stroke:#181818;stroke-width:1.0;" width="10" x="448.5" y="114.9609"/><rect fill="#FFFFFF" height="272.4609" style="stroke:#181818;stroke-width:1.0;" width="10" x="448.5" y="338.9766"/><rect fill="#FFFFFF" height="288.8125" style="stroke:#181818;stroke-width:1.0;" width="10" x="448.5" y="641.7891"/><rect fill="#FFFFFF" height="238.7578" style="stroke:#181818;stroke-width:1.0;" width="10" x="448.5" y="960.9531"/><rect fill="#FFFFFF" height="288.5547" style="stroke:#181818;stroke-width:1.0;" width="10" x="448.5" y="1230.0625"/><rect fill="#FFFFFF" height="62.6094" style="stroke:#181818;stroke-width:1.0;" width="10" x="954" y="155.3125"/><rect fill="#FFFFFF" height="121.0547" style="stroke:#181818;stroke-width:1.0;" width="10" x="954" y="369.3281"/><rect fill="#FFFFFF" height="60.3516" style="stroke:#181818;stroke-width:1.0;" width="10" x="954" y="520.7344"/><rect fill="#FFFFFF" height="505.2188" style="stroke:#181818;stroke-width:1.0;" width="10" x="954" y="672.1406"/><rect fill="#FFFFFF" height="258.2031" style="stroke:#181818;stroke-width:1.0;" width="10" x="954" y="1260.4141"/><rect fill="#FFFFFF" height="90.3516" style="stroke:#181818;stroke-width:1.0;" width="10" x="1376" y="187.9219"/><rect fill="#FFFFFF" height="30.3516" style="stroke:#181818;stroke-width:1.0;" width="10" x="1376" y="399.6797"/><rect fill="#FFFFFF" height="30" style="stroke:#181818;stroke-width:1.0;" width="10" x="1376" y="844.8984"/><rect fill="#FFFFFF" height="30" style="stroke:#181818;stroke-width:1.0;" width="10" x="1376" y="1021.6563"/><rect fill="#FFFFFF" height="30" style="stroke:#181818;stroke-width:1.0;" width="10" x="1734" y="248.2734"/><rect fill="#FFFFFF" height="60.3516" style="stroke:#181818;stroke-width:1.0;" width="10" x="1734" y="430.0313"/><rect fill="#FFFFFF" height="30" style="stroke:#181818;stroke-width:1.0;" width="10" x="2099" y="460.3828"/><rect fill="#FFFFFF" height="30" style="stroke:#181818;stroke-width:1.0;" width="10" x="2099" y="551.0859"/><rect fill="#FFFFFF" height="30" style="stroke:#181818;stroke-width:1.0;" width="10" x="2211.5" y="1082.0078"/><rect fill="#FFFFFF" height="60.3516" style="stroke:#181818;stroke-width:1.0;" width="10" x="2211.5" y="1337.2109"/><rect fill="#FFFFFF" height="30" style="stroke:#181818;stroke-width:1.0;" width="10" x="2467.5" y="1367.5625"/><rect fill="#FFFFFF" height="30" style="stroke:#181818;stroke-width:1.0;" width="10" x="2620.5" y="1458.2656"/><rect height="396.5156" style="stroke:#000000;stroke-width:1.5;fill:none;" width="2262" x="10" y="773.8438"/><rect height="273.4609" style="stroke:#000000;stroke-width:1.5;fill:none;" width="2242" x="20" y="889.8984"/><line style="stroke:#181818;stroke-width:0.5;fill:none;stroke-dasharray:5.0,5.0;" x1="51" x2="51" y1="82.6094" y2="1536.6172"/><line style="stroke:#181818;stroke-width:0.5;fill:none;stroke-dasharray:5.0,5.0;" x1="453" x2="453" y1="82.6094" y2="1536.6172"/><line style="stroke:#181818;stroke-width:0.5;fill:none;stroke-dasharray:5.0,5.0;" x1="958.5" x2="958.5" y1="154.2656" y2="1536.6172"/><line style="stroke:#181818;stroke-width:0.5;fill:none;stroke-dasharray:5.0,5.0;" x1="1381" x2="1381" y1="82.6094" y2="1536.6172"/><line style="stroke:#181818;stroke-width:0.5;fill:none;stroke-dasharray:5.0,5.0;" x1="1739" x2="1739" y1="82.6094" y2="1536.6172"/><line style="stroke:#181818;stroke-width:0.5;fill:none;stroke-dasharray:5.0,5.0;" x1="2104" x2="2104" y1="82.6094" y2="1536.6172"/><line style="stroke:#181818;stroke-width:0.5;fill:none;stroke-dasharray:5.0,5.0;" x1="2216" x2="2216" y1="82.6094" y2="1536.6172"/><line style="stroke:#181818;stroke-width:0.5;fill:none;stroke-dasharray:5.0,5.0;" x1="2472.5" x2="2472.5" y1="82.6094" y2="1536.6172"/><line style="stroke:#181818;stroke-width:0.5;fill:none;stroke-dasharray:5.0,5.0;" x1="2625.5" x2="2625.5" y1="82.6094" y2="1536.6172"/><text fill="#000000" font-family="sans-serif" font-size="14" lengthAdjust="spacing" textLength="37" x="30" y="79.5332">Nurse</text><ellipse cx="51.5" cy="13.5" fill="#E2E2F0" rx="8" ry="8" style="stroke:#181818;stroke-width:0.5;"/><path d="M51.5,21.5 L51.5,48.5 M38.5,29.5 L64.5,29.5 M51.5,48.5 L38.5,63.5 M51.5,48.5 L64.5,63.5 " fill="none" style="stroke:#181818;stroke-width:0.5;"/><text fill="#000000" font-family="sans-serif" font-size="14" lengthAdjust="spacing" textLength="37" x="30" y="1550.1504">Nurse</text><ellipse cx="51.5" cy="1561.7266" fill="#E2E2F0" rx="8" ry="8" style="stroke:#181818;stroke-width:0.5;"/><path d="M51.5,1569.7266 L51.5,1596.7266 M38.5,1577.7266 L64.5,1577.7266 M51.5,1596.7266 L38.5,1611.7266 M51.5,1596.7266 L64.5,1611.7266 " fill="none" style="stroke:#181818;stroke-width:0.5;"/><rect fill="#E2E2F0" height="31.6094" rx="2.5" ry="2.5" style="stroke:#181818;stroke-width:0.5;" width="215" x="346" y="50"/><text fill="#000000" font-family="sans-serif" font-size="14" lengthAdjust="spacing" textLength="201" x="353" y="71.5332">:RecordVaccineAdministrationUI</text><rect fill="#E2E2F0" height="31.6094" rx="2.5" ry="2.5" style="stroke:#181818;stroke-width:0.5;" width="215" x="346" y="1535.6172"/><text fill="#000000" font-family="sans-serif" font-size="14" lengthAdjust="spacing" textLength="201" x="353" y="1557.1504">:RecordVaccineAdministrationUI</text><rect fill="#E2E2F0" height="31.6094" rx="2.5" ry="2.5" style="stroke:#181818;stroke-width:0.5;" width="265" x="826.5" y="1535.6172"/><text fill="#000000" font-family="sans-serif" font-size="14" lengthAdjust="spacing" textLength="251" x="833.5" y="1557.1504">:RecordVaccineAdministrationController</text><rect fill="#E2E2F0" height="49.2188" rx="2.5" ry="2.5" style="stroke:#181818;stroke-width:0.5;" width="78" x="1342" y="32.3906"/><text fill="#000000" font-family="sans-serif" font-size="14" lengthAdjust="spacing" textLength="57" x="1352.5" y="53.9238">company</text><text fill="#000000" font-family="sans-serif" font-size="14" lengthAdjust="spacing" textLength="64" x="1349" y="71.5332">:Company</text><rect fill="#E2E2F0" height="49.2188" rx="2.5" ry="2.5" style="stroke:#181818;stroke-width:0.5;" width="78" x="1342" y="1535.6172"/><text fill="#000000" font-family="sans-serif" font-size="14" lengthAdjust="spacing" textLength="57" x="1352.5" y="1557.1504">company</text><text fill="#000000" font-family="sans-serif" font-size="14" lengthAdjust="spacing" textLength="64" x="1349" y="1574.7598">:Company</text><rect fill="#E2E2F0" height="49.2188" rx="2.5" ry="2.5" style="stroke:#181818;stroke-width:0.5;" width="168" x="1655" y="32.3906"/><text fill="#000000" font-family="sans-serif" font-size="14" lengthAdjust="spacing" textLength="148" x="1665" y="53.9238">vaccinationCenterStore</text><text fill="#000000" font-family="sans-serif" font-size="14" lengthAdjust="spacing" textLength="154" x="1662" y="71.5332">:VaccinationCenterStore</text><rect fill="#E2E2F0" height="49.2188" rx="2.5" ry="2.5" style="stroke:#181818;stroke-width:0.5;" width="168" x="1655" y="1535.6172"/><text fill="#000000" font-family="sans-serif" font-size="14" lengthAdjust="spacing" textLength="148" x="1665" y="1557.1504">vaccinationCenterStore</text><text fill="#000000" font-family="sans-serif" font-size="14" lengthAdjust="spacing" textLength="154" x="1662" y="1574.7598">:VaccinationCenterStore</text><rect fill="#E2E2F0" height="49.2188" rx="2.5" ry="2.5" style="stroke:#181818;stroke-width:0.5;" width="134" x="2037" y="32.3906"/><text fill="#000000" font-family="sans-serif" font-size="14" lengthAdjust="spacing" textLength="114" x="2047" y="53.9238">vaccinationCenter</text><text fill="#000000" font-family="sans-serif" font-size="14" lengthAdjust="spacing" textLength="120" x="2044" y="71.5332">:VaccinationCenter</text><rect fill="#E2E2F0" height="49.2188" rx="2.5" ry="2.5" style="stroke:#181818;stroke-width:0.5;" width="134" x="2037" y="1535.6172"/><text fill="#000000" font-family="sans-serif" font-size="14" lengthAdjust="spacing" textLength="114" x="2047" y="1557.1504">vaccinationCenter</text><text fill="#000000" font-family="sans-serif" font-size="14" lengthAdjust="spacing" textLength="120" x="2044" y="1574.7598">:VaccinationCenter</text><rect fill="#E2E2F0" height="49.2188" rx="2.5" ry="2.5" style="stroke:#181818;stroke-width:0.5;" width="71" x="2181" y="32.3906"/><text fill="#000000" font-family="sans-serif" font-size="14" lengthAdjust="spacing" textLength="51" x="2191" y="53.9238">snsUser</text><text fill="#000000" font-family="sans-serif" font-size="14" lengthAdjust="spacing" textLength="57" x="2188" y="71.5332">:SnsUser</text><rect fill="#E2E2F0" height="49.2188" rx="2.5" ry="2.5" style="stroke:#181818;stroke-width:0.5;" width="71" x="2181" y="1535.6172"/><text fill="#000000" font-family="sans-serif" font-size="14" lengthAdjust="spacing" textLength="51" x="2191" y="1557.1504">snsUser</text><text fill="#000000" font-family="sans-serif" font-size="14" lengthAdjust="spacing" textLength="57" x="2188" y="1574.7598">:SnsUser</text><rect fill="#E2E2F0" height="49.2188" rx="2.5" ry="2.5" style="stroke:#181818;stroke-width:0.5;" width="148" x="2398.5" y="32.3906"/><text fill="#000000" font-family="sans-serif" font-size="14" lengthAdjust="spacing" textLength="116" x="2414.5" y="53.9238">vaccineBulletinList</text><text fill="#000000" font-family="sans-serif" font-size="14" lengthAdjust="spacing" textLength="134" x="2405.5" y="71.5332">List&lt;VaccineBulletin&gt;</text><rect fill="#E2E2F0" height="49.2188" rx="2.5" ry="2.5" style="stroke:#181818;stroke-width:0.5;" width="148" x="2398.5" y="1535.6172"/><text fill="#000000" font-family="sans-serif" font-size="14" lengthAdjust="spacing" textLength="116" x="2414.5" y="1557.1504">vaccineBulletinList</text><text fill="#000000" font-family="sans-serif" font-size="14" lengthAdjust="spacing" textLength="134" x="2405.5" y="1574.7598">List&lt;VaccineBulletin&gt;</text><rect fill="#E2E2F0" height="49.2188" rx="2.5" ry="2.5" style="stroke:#181818;stroke-width:0.5;" width="138" x="2556.5" y="32.3906"/><text fill="#000000" font-family="sans-serif" font-size="14" lengthAdjust="spacing" textLength="119" x="2566" y="53.9238">printRecoveryTime</text><text fill="#000000" font-family="sans-serif" font-size="14" lengthAdjust="spacing" textLength="124" x="2563.5" y="71.5332">:PrintRecoveryTime</text><rect fill="#E2E2F0" height="49.2188" rx="2.5" ry="2.5" style="stroke:#181818;stroke-width:0.5;" width="138" x="2556.5" y="1535.6172"/><text fill="#000000" font-family="sans-serif" font-size="14" lengthAdjust="spacing" textLength="119" x="2566" y="1557.1504">printRecoveryTime</text><text fill="#000000" font-family="sans-serif" font-size="14" lengthAdjust="spacing" textLength="124" x="2563.5" y="1574.7598">:PrintRecoveryTime</text><rect fill="#FFFFFF" height="1426.0078" style="stroke:#181818;stroke-width:1.0;" width="10" x="46.5" y="92.6094"/><rect fill="#FFFFFF" height="193.6641" style="stroke:#181818;stroke-width:1.0;" width="10" x="448.5" y="114.9609"/><rect fill="#FFFFFF" height="272.4609" style="stroke:#181818;stroke-width:1.0;" width="10" x="448.5" y="338.9766"/><rect fill="#FFFFFF" height="288.8125" style="stroke:#181818;stroke-width:1.0;" width="10" x="448.5" y="641.7891"/><rect fill="#FFFFFF" height="238.7578" style="stroke:#181818;stroke-width:1.0;" width="10" x="448.5" y="960.9531"/><rect fill="#FFFFFF" height="288.5547" style="stroke:#181818;stroke-width:1.0;" width="10" x="448.5" y="1230.0625"/><rect fill="#FFFFFF" height="62.6094" style="stroke:#181818;stroke-width:1.0;" width="10" x="954" y="155.3125"/><rect fill="#FFFFFF" height="121.0547" style="stroke:#181818;stroke-width:1.0;" width="10" x="954" y="369.3281"/><rect fill="#FFFFFF" height="60.3516" style="stroke:#181818;stroke-width:1.0;" width="10" x="954" y="520.7344"/><rect fill="#FFFFFF" height="505.2188" style="stroke:#181818;stroke-width:1.0;" width="10" x="954" y="672.1406"/><rect fill="#FFFFFF" height="258.2031" style="stroke:#181818;stroke-width:1.0;" width="10" x="954" y="1260.4141"/><rect fill="#FFFFFF" height="90.3516" style="stroke:#181818;stroke-width:1.0;" width="10" x="1376" y="187.9219"/><rect fill="#FFFFFF" height="30.3516" style="stroke:#181818;stroke-width:1.0;" width="10" x="1376" y="399.6797"/><rect fill="#FFFFFF" height="30" style="stroke:#181818;stroke-width:1.0;" width="10" x="1376" y="844.8984"/><rect fill="#FFFFFF" height="30" style="stroke:#181818;stroke-width:1.0;" width="10" x="1376" y="1021.6563"/><rect fill="#FFFFFF" height="30" style="stroke:#181818;stroke-width:1.0;" width="10" x="1734" y="248.2734"/><rect fill="#FFFFFF" height="60.3516" style="stroke:#181818;stroke-width:1.0;" width="10" x="1734" y="430.0313"/><rect fill="#FFFFFF" height="30" style="stroke:#181818;stroke-width:1.0;" width="10" x="2099" y="460.3828"/><rect fill="#FFFFFF" height="30" style="stroke:#181818;stroke-width:1.0;" width="10" x="2099" y="551.0859"/><rect fill="#FFFFFF" height="30" style="stroke:#181818;stroke-width:1.0;" width="10" x="2211.5" y="1082.0078"/><rect fill="#FFFFFF" height="60.3516" style="stroke:#181818;stroke-width:1.0;" width="10" x="2211.5" y="1337.2109"/><rect fill="#FFFFFF" height="30" style="stroke:#181818;stroke-width:1.0;" width="10" x="2467.5" y="1367.5625"/><rect fill="#FFFFFF" height="30" style="stroke:#181818;stroke-width:1.0;" width="10" x="2620.5" y="1458.2656"/><polygon fill="#181818" points="436.5,110.9609,446.5,114.9609,436.5,118.9609,440.5,114.9609" style="stroke:#181818;stroke-width:1.0;"/><line style="stroke:#181818;stroke-width:1.0;" x1="56.5" x2="442.5" y1="114.9609" y2="114.9609"/><text fill="#000000" font-family="sans-serif" font-size="13" font-weight="bold" lengthAdjust="spacing" textLength="7" x="63.5" y="110.1045">1</text><text fill="#000000" font-family="sans-serif" font-size="13" lengthAdjust="spacing" textLength="355" x="74.5" y="110.1045">asks to record the administration of a vaccine to an SNS user</text><polygon fill="#181818" points="814.5,141.3125,824.5,145.3125,814.5,149.3125,818.5,145.3125" style="stroke:#181818;stroke-width:1.0;"/><line style="stroke:#181818;stroke-width:1.0;" x1="458.5" x2="820.5" y1="145.3125" y2="145.3125"/><text fill="#000000" font-family="sans-serif" font-size="13" font-weight="bold" lengthAdjust="spacing" textLength="7" x="465.5" y="140.4561">2</text><text fill="#000000" font-family="sans-serif" font-size="13" lengthAdjust="spacing" textLength="333" x="476.5" y="140.4561">vaccinationCenterList = getVaccinationCentersNameList()</text><rect fill="#E2E2F0" height="31.6094" rx="2.5" ry="2.5" style="stroke:#181818;stroke-width:0.5;" width="265" x="826.5" y="122.9609"/><text fill="#000000" font-family="sans-serif" font-size="14" lengthAdjust="spacing" textLength="251" x="833.5" y="144.4941">:RecordVaccineAdministrationController</text><polygon fill="#181818" points="1364,183.9219,1374,187.9219,1364,191.9219,1368,187.9219" style="stroke:#181818;stroke-width:1.0;"/><line style="stroke:#181818;stroke-width:1.0;" x1="964" x2="1370" y1="187.9219" y2="187.9219"/><text fill="#000000" font-family="sans-serif" font-size="13" font-weight="bold" lengthAdjust="spacing" textLength="7" x="971" y="183.0654">3</text><text fill="#000000" font-family="sans-serif" font-size="13" lengthAdjust="spacing" textLength="278" x="982" y="183.0654">vaccinationCenterList = getVaccinationCenters()</text><polygon fill="#181818" points="1722,244.2734,1732,248.2734,1722,252.2734,1726,248.2734" style="stroke:#181818;stroke-width:1.0;"/><line style="stroke:#181818;stroke-width:1.0;" x1="1386" x2="1728" y1="248.2734" y2="248.2734"/><text fill="#000000" font-family="sans-serif" font-size="13" font-weight="bold" lengthAdjust="spacing" textLength="7" x="1393" y="243.417">4</text><text fill="#000000" font-family="sans-serif" font-size="13" lengthAdjust="spacing" textLength="278" x="1404" y="243.417">vaccinationCenterList = getVaccinationCenters()</text><polygon fill="#181818" points="67.5,304.625,57.5,308.625,67.5,312.625,63.5,308.625" style="stroke:#181818;stroke-width:1.0;"/><line style="stroke:#181818;stroke-width:1.0;stroke-dasharray:2.0,2.0;" x1="61.5" x2="452.5" y1="308.625" y2="308.625"/><text fill="#000000" font-family="sans-serif" font-size="13" font-weight="bold" lengthAdjust="spacing" textLength="7" x="73.5" y="303.7686">5</text><text fill="#000000" font-family="sans-serif" font-size="13" lengthAdjust="spacing" textLength="286" x="84.5" y="303.7686">shows a list with the available vaccination centers</text><polygon fill="#181818" points="436.5,334.9766,446.5,338.9766,436.5,342.9766,440.5,338.9766" style="stroke:#181818;stroke-width:1.0;"/><line style="stroke:#181818;stroke-width:1.0;" x1="56.5" x2="442.5" y1="338.9766" y2="338.9766"/><text fill="#000000" font-family="sans-serif" font-size="13" font-weight="bold" lengthAdjust="spacing" textLength="7" x="63.5" y="334.1201">6</text><text fill="#000000" font-family="sans-serif" font-size="13" lengthAdjust="spacing" textLength="175" x="74.5" y="334.1201">selects one vaccination center</text><polygon fill="#181818" points="942,365.3281,952,369.3281,942,373.3281,946,369.3281" style="stroke:#181818;stroke-width:1.0;"/><line style="stroke:#181818;stroke-width:1.0;" x1="458.5" x2="948" y1="369.3281" y2="369.3281"/><text fill="#000000" font-family="sans-serif" font-size="13" font-weight="bold" lengthAdjust="spacing" textLength="7" x="465.5" y="364.4717">7</text><text fill="#000000" font-family="sans-serif" font-size="13" lengthAdjust="spacing" textLength="265" x="476.5" y="364.4717">setVaccinationCenter(vaccinationCenterIndex)</text><polygon fill="#181818" points="1364,395.6797,1374,399.6797,1364,403.6797,1368,399.6797" style="stroke:#181818;stroke-width:1.0;"/><line style="stroke:#181818;stroke-width:1.0;" x1="964" x2="1370" y1="399.6797" y2="399.6797"/><text fill="#000000" font-family="sans-serif" font-size="13" font-weight="bold" lengthAdjust="spacing" textLength="7" x="971" y="394.8232">8</text><text fill="#000000" font-family="sans-serif" font-size="13" lengthAdjust="spacing" textLength="318" x="982" y="394.8232">vaccinationCenter = getVaccinationCenters().get(index)</text><polygon fill="#181818" points="1722,426.0313,1732,430.0313,1722,434.0313,1726,430.0313" style="stroke:#181818;stroke-width:1.0;"/><line style="stroke:#181818;stroke-width:1.0;" x1="1381" x2="1728" y1="430.0313" y2="430.0313"/><text fill="#000000" font-family="sans-serif" font-size="13" font-weight="bold" lengthAdjust="spacing" textLength="7" x="1388" y="425.1748">9</text><text fill="#000000" font-family="sans-serif" font-size="13" lengthAdjust="spacing" textLength="318" x="1399" y="425.1748">vaccinationCenter = getVaccinationCenters().get(index)</text><polygon fill="#181818" points="2087,456.3828,2097,460.3828,2087,464.3828,2091,460.3828" style="stroke:#181818;stroke-width:1.0;"/><line style="stroke:#181818;stroke-width:1.0;" x1="1744" x2="2093" y1="460.3828" y2="460.3828"/><text fill="#000000" font-family="sans-serif" font-size="13" font-weight="bold" lengthAdjust="spacing" textLength="14" x="1751" y="455.5264">10</text><text fill="#000000" font-family="sans-serif" font-size="13" lengthAdjust="spacing" textLength="318" x="1769" y="455.5264">vaccinationCenter = getVaccinationCenters().get(index)</text><polygon fill="#181818" points="942,516.7344,952,520.7344,942,524.7344,946,520.7344" style="stroke:#181818;stroke-width:1.0;"/><line style="stroke:#181818;stroke-width:1.0;" x1="458.5" x2="948" y1="520.7344" y2="520.7344"/><text fill="#000000" font-family="sans-serif" font-size="13" font-weight="bold" lengthAdjust="spacing" textLength="14" x="465.5" y="515.8779">11</text><text fill="#000000" font-family="sans-serif" font-size="13" lengthAdjust="spacing" textLength="292" x="483.5" y="515.8779">setArrivalsList = vaccinationCenter.getArrivalsList()</text><polygon fill="#181818" points="2087,547.0859,2097,551.0859,2087,555.0859,2091,551.0859" style="stroke:#181818;stroke-width:1.0;"/><line style="stroke:#181818;stroke-width:1.0;" x1="964" x2="2093" y1="551.0859" y2="551.0859"/><text fill="#000000" font-family="sans-serif" font-size="13" font-weight="bold" lengthAdjust="spacing" textLength="14" x="971" y="546.2295">12</text><text fill="#000000" font-family="sans-serif" font-size="13" lengthAdjust="spacing" textLength="166" x="989" y="546.2295">arrivalsList = getArrivalsList()</text><polygon fill="#181818" points="67.5,607.4375,57.5,611.4375,67.5,615.4375,63.5,611.4375" style="stroke:#181818;stroke-width:1.0;"/><line style="stroke:#181818;stroke-width:1.0;stroke-dasharray:2.0,2.0;" x1="61.5" x2="452.5" y1="611.4375" y2="611.4375"/><text fill="#000000" font-family="sans-serif" font-size="13" font-weight="bold" lengthAdjust="spacing" textLength="14" x="73.5" y="606.5811">13</text><text fill="#000000" font-family="sans-serif" font-size="13" lengthAdjust="spacing" textLength="286" x="91.5" y="606.5811">shows a list with the users available in arrivals list</text><polygon fill="#181818" points="436.5,637.7891,446.5,641.7891,436.5,645.7891,440.5,641.7891" style="stroke:#181818;stroke-width:1.0;"/><line style="stroke:#181818;stroke-width:1.0;" x1="56.5" x2="442.5" y1="641.7891" y2="641.7891"/><text fill="#000000" font-family="sans-serif" font-size="13" font-weight="bold" lengthAdjust="spacing" textLength="14" x="63.5" y="636.9326">14</text><text fill="#000000" font-family="sans-serif" font-size="13" lengthAdjust="spacing" textLength="96" x="81.5" y="636.9326">selects one user</text><polygon fill="#181818" points="942,668.1406,952,672.1406,942,676.1406,946,672.1406" style="stroke:#181818;stroke-width:1.0;"/><line style="stroke:#181818;stroke-width:1.0;" x1="458.5" x2="948" y1="672.1406" y2="672.1406"/><text fill="#000000" font-family="sans-serif" font-size="13" font-weight="bold" lengthAdjust="spacing" textLength="14" x="465.5" y="667.2842">15</text><text fill="#000000" font-family="sans-serif" font-size="13" lengthAdjust="spacing" textLength="220" x="483.5" y="667.2842">setVaccineType(arrivalsListUserIndex)</text><line style="stroke:#181818;stroke-width:1.0;" x1="964" x2="1006" y1="702.4922" y2="702.4922"/><line style="stroke:#181818;stroke-width:1.0;" x1="1006" x2="1006" y1="702.4922" y2="715.4922"/><line style="stroke:#181818;stroke-width:1.0;" x1="965" x2="1006" y1="715.4922" y2="715.4922"/><polygon fill="#181818" points="975,711.4922,965,715.4922,975,719.4922,971,715.4922" style="stroke:#181818;stroke-width:1.0;"/><text fill="#000000" font-family="sans-serif" font-size="13" font-weight="bold" lengthAdjust="spacing" textLength="14" x="971" y="697.6357">16</text><text fill="#000000" font-family="sans-serif" font-size="13" lengthAdjust="spacing" textLength="380" x="989" y="697.6357">vaccineType = arrivalsList(arrivalsListUserIndex).getVaccineType()</text><line style="stroke:#181818;stroke-width:1.0;" x1="964" x2="1006" y1="745.8438" y2="745.8438"/><line style="stroke:#181818;stroke-width:1.0;" x1="1006" x2="1006" y1="745.8438" y2="758.8438"/><line style="stroke:#181818;stroke-width:1.0;" x1="965" x2="1006" y1="758.8438" y2="758.8438"/><polygon fill="#181818" points="975,754.8438,965,758.8438,975,762.8438,971,758.8438" style="stroke:#181818;stroke-width:1.0;"/><text fill="#000000" font-family="sans-serif" font-size="13" font-weight="bold" lengthAdjust="spacing" textLength="14" x="971" y="740.9873">17</text><text fill="#000000" font-family="sans-serif" font-size="13" lengthAdjust="spacing" textLength="260" x="989" y="740.9873">doseNumber = findLastDoseOfVaccineType()</text><path d="M10,773.8438 L71,773.8438 L71,782.1953 L61,792.1953 L10,792.1953 L10,773.8438 " fill="#EEEEEE" style="stroke:#000000;stroke-width:1.5;"/><rect fill="none" height="396.5156" style="stroke:#000000;stroke-width:1.5;" width="2262" x="10" y="773.8438"/><text fill="#000000" font-family="sans-serif" font-size="13" font-weight="bold" lengthAdjust="spacing" textLength="16" x="25" y="788.3389">alt</text><text fill="#000000" font-family="sans-serif" font-size="11" font-weight="bold" lengthAdjust="spacing" textLength="197" x="86" y="787.2627">[User´s first dose for Vaccine Type]</text><polygon fill="#181818" points="942,810.5469,952,814.5469,942,818.5469,946,814.5469" style="stroke:#181818;stroke-width:1.0;"/><line style="stroke:#181818;stroke-width:1.0;" x1="458.5" x2="948" y1="814.5469" y2="814.5469"/><text fill="#000000" font-family="sans-serif" font-size="13" font-weight="bold" lengthAdjust="spacing" textLength="14" x="465.5" y="809.6904">18</text><text fill="#000000" font-family="sans-serif" font-size="13" lengthAdjust="spacing" textLength="208" x="483.5" y="809.6904">vaccineList = getVaccineNameList()</text><polygon fill="#181818" points="1364,840.8984,1374,844.8984,1364,848.8984,1368,844.8984" style="stroke:#181818;stroke-width:1.0;"/><line style="stroke:#181818;stroke-width:1.0;" x1="964" x2="1370" y1="844.8984" y2="844.8984"/><text fill="#000000" font-family="sans-serif" font-size="13" font-weight="bold" lengthAdjust="spacing" textLength="14" x="971" y="840.042">19</text><text fill="#000000" font-family="sans-serif" font-size="13" lengthAdjust="spacing" textLength="174" x="989" y="840.042">vaccineList = getVaccineList()</text><path d="M20,889.8984 L93,889.8984 L93,898.25 L83,908.25 L20,908.25 L20,889.8984 " fill="#EEEEEE" style="stroke:#000000;stroke-width:1.5;"/><rect fill="none" height="273.4609" style="stroke:#000000;stroke-width:1.5;" width="2242" x="20" y="889.8984"/><text fill="#000000" font-family="sans-serif" font-size="13" font-weight="bold" lengthAdjust="spacing" textLength="28" x="35" y="904.3936">loop</text><text fill="#000000" font-family="sans-serif" font-size="11" font-weight="bold" lengthAdjust="spacing" textLength="143" x="108" y="903.3174">[Validate User Age Group]</text><polygon fill="#181818" points="67.5,926.6016,57.5,930.6016,67.5,934.6016,63.5,930.6016" style="stroke:#181818;stroke-width:1.0;"/><line style="stroke:#181818;stroke-width:1.0;stroke-dasharray:2.0,2.0;" x1="61.5" x2="452.5" y1="930.6016" y2="930.6016"/><text fill="#000000" font-family="sans-serif" font-size="13" font-weight="bold" lengthAdjust="spacing" textLength="14" x="73.5" y="925.7451">20</text><text fill="#000000" font-family="sans-serif" font-size="13" lengthAdjust="spacing" textLength="225" x="91.5" y="925.7451">shows a list with the available vaccines</text><polygon fill="#181818" points="436.5,956.9531,446.5,960.9531,436.5,964.9531,440.5,960.9531" style="stroke:#181818;stroke-width:1.0;"/><line style="stroke:#181818;stroke-width:1.0;" x1="56.5" x2="442.5" y1="960.9531" y2="960.9531"/><text fill="#000000" font-family="sans-serif" font-size="13" font-weight="bold" lengthAdjust="spacing" textLength="14" x="63.5" y="956.0967">21</text><text fill="#000000" font-family="sans-serif" font-size="13" lengthAdjust="spacing" textLength="114" x="81.5" y="956.0967">selects one vaccine</text><polygon fill="#181818" points="942,987.3047,952,991.3047,942,995.3047,946,991.3047" style="stroke:#181818;stroke-width:1.0;"/><line style="stroke:#181818;stroke-width:1.0;" x1="458.5" x2="948" y1="991.3047" y2="991.3047"/><text fill="#000000" font-family="sans-serif" font-size="13" font-weight="bold" lengthAdjust="spacing" textLength="14" x="465.5" y="986.4482">22</text><text fill="#000000" font-family="sans-serif" font-size="13" lengthAdjust="spacing" textLength="147" x="483.5" y="986.4482">setVaccine(vaccineIndex)</text><polygon fill="#181818" points="1364,1017.6563,1374,1021.6563,1364,1025.6563,1368,1021.6563" style="stroke:#181818;stroke-width:1.0;"/><line style="stroke:#181818;stroke-width:1.0;" x1="964" x2="1370" y1="1021.6563" y2="1021.6563"/><text fill="#000000" font-family="sans-serif" font-size="13" font-weight="bold" lengthAdjust="spacing" textLength="14" x="971" y="1016.7998">23</text><text fill="#000000" font-family="sans-serif" font-size="13" lengthAdjust="spacing" textLength="257" x="989" y="1016.7998">vaccine = getVaccineList().get(vaccineIndex)</text><polygon fill="#181818" points="2199.5,1078.0078,2209.5,1082.0078,2199.5,1086.0078,2203.5,1082.0078" style="stroke:#181818;stroke-width:1.0;"/><line style="stroke:#181818;stroke-width:1.0;" x1="964" x2="2205.5" y1="1082.0078" y2="1082.0078"/><text fill="#000000" font-family="sans-serif" font-size="13" font-weight="bold" lengthAdjust="spacing" textLength="14" x="971" y="1077.1514">24</text><text fill="#000000" font-family="sans-serif" font-size="13" lengthAdjust="spacing" textLength="215" x="989" y="1077.1514">userAge = snsUser.getSnsUserAge()</text><line style="stroke:#181818;stroke-width:1.0;" x1="964" x2="1006" y1="1142.3594" y2="1142.3594"/><line style="stroke:#181818;stroke-width:1.0;" x1="1006" x2="1006" y1="1142.3594" y2="1155.3594"/><line style="stroke:#181818;stroke-width:1.0;" x1="965" x2="1006" y1="1155.3594" y2="1155.3594"/><polygon fill="#181818" points="975,1151.3594,965,1155.3594,975,1159.3594,971,1155.3594" style="stroke:#181818;stroke-width:1.0;"/><text fill="#000000" font-family="sans-serif" font-size="13" font-weight="bold" lengthAdjust="spacing" textLength="14" x="971" y="1137.5029">25</text><text fill="#000000" font-family="sans-serif" font-size="13" lengthAdjust="spacing" textLength="133" x="989" y="1137.5029">validate user age group</text><polygon fill="#181818" points="67.5,1195.7109,57.5,1199.7109,67.5,1203.7109,63.5,1199.7109" style="stroke:#181818;stroke-width:1.0;"/><line style="stroke:#181818;stroke-width:1.0;stroke-dasharray:2.0,2.0;" x1="61.5" x2="452.5" y1="1199.7109" y2="1199.7109"/><text fill="#000000" font-family="sans-serif" font-size="13" font-weight="bold" lengthAdjust="spacing" textLength="14" x="73.5" y="1194.8545">26</text><text fill="#000000" font-family="sans-serif" font-size="13" lengthAdjust="spacing" textLength="350" x="91.5" y="1194.8545">shows dosage for respective dose and requests vaccine´s lot</text><polygon fill="#181818" points="436.5,1226.0625,446.5,1230.0625,436.5,1234.0625,440.5,1230.0625" style="stroke:#181818;stroke-width:1.0;"/><line style="stroke:#181818;stroke-width:1.0;" x1="56.5" x2="442.5" y1="1230.0625" y2="1230.0625"/><text fill="#000000" font-family="sans-serif" font-size="13" font-weight="bold" lengthAdjust="spacing" textLength="14" x="63.5" y="1225.2061">27</text><text fill="#000000" font-family="sans-serif" font-size="13" lengthAdjust="spacing" textLength="183" x="81.5" y="1225.2061">introduces vaccine´s lot number</text><polygon fill="#181818" points="942,1256.4141,952,1260.4141,942,1264.4141,946,1260.4141" style="stroke:#181818;stroke-width:1.0;"/><line style="stroke:#181818;stroke-width:1.0;" x1="458.5" x2="948" y1="1260.4141" y2="1260.4141"/><text fill="#000000" font-family="sans-serif" font-size="13" font-weight="bold" lengthAdjust="spacing" textLength="14" x="465.5" y="1255.5576">28</text><text fill="#000000" font-family="sans-serif" font-size="13" lengthAdjust="spacing" textLength="173" x="483.5" y="1255.5576">validateLotNumber(lotNumber)</text><rect height="41.4453" style="stroke:#000000;stroke-width:1.5;fill:none;" width="271" x="823.5" y="1268.4141"/><path d="M823.5,1268.4141 L885.5,1268.4141 L885.5,1276.4141 L875.5,1286.4141 L823.5,1286.4141 L823.5,1268.4141 " fill="#EEEEEE" style="stroke:#000000;stroke-width:2.0;"/><text fill="#000000" font-family="sans-serif" font-size="13" font-weight="bold" lengthAdjust="spacing" textLength="17" x="836.5" y="1283.9092">ref</text><text fill="#000000" font-family="sans-serif" font-size="12" lengthAdjust="spacing" textLength="176" x="871" y="1302.8711">SD_CreateVaccineBulletin.puml</text><polygon fill="#181818" points="2199.5,1333.2109,2209.5,1337.2109,2199.5,1341.2109,2203.5,1337.2109" style="stroke:#181818;stroke-width:1.0;"/><line style="stroke:#181818;stroke-width:1.0;" x1="964" x2="2205.5" y1="1337.2109" y2="1337.2109"/><text fill="#000000" font-family="sans-serif" font-size="13" font-weight="bold" lengthAdjust="spacing" textLength="14" x="971" y="1332.3545">29</text><text fill="#000000" font-family="sans-serif" font-size="13" lengthAdjust="spacing" textLength="209" x="989" y="1332.3545">addVaccineBulletin(VaccineBulletin)</text><polygon fill="#181818" points="2455.5,1363.5625,2465.5,1367.5625,2455.5,1371.5625,2459.5,1367.5625" style="stroke:#181818;stroke-width:1.0;"/><line style="stroke:#181818;stroke-width:1.0;" x1="2221.5" x2="2461.5" y1="1367.5625" y2="1367.5625"/><text fill="#000000" font-family="sans-serif" font-size="13" font-weight="bold" lengthAdjust="spacing" textLength="14" x="2228.5" y="1362.7061">30</text><text fill="#000000" font-family="sans-serif" font-size="13" lengthAdjust="spacing" textLength="209" x="2246.5" y="1362.7061">addVaccineBulletin(VaccineBulletin)</text><polygon fill="#181818" points="942,1423.9141,952,1427.9141,942,1431.9141,946,1427.9141" style="stroke:#181818;stroke-width:1.0;"/><line style="stroke:#181818;stroke-width:1.0;" x1="458.5" x2="948" y1="1427.9141" y2="1427.9141"/><text fill="#000000" font-family="sans-serif" font-size="13" font-weight="bold" lengthAdjust="spacing" textLength="14" x="465.5" y="1423.0576">31</text><text fill="#000000" font-family="sans-serif" font-size="13" lengthAdjust="spacing" textLength="114" x="483.5" y="1423.0576">printRecoveryTime()</text><polygon fill="#181818" points="2608.5,1454.2656,2618.5,1458.2656,2608.5,1462.2656,2612.5,1458.2656" style="stroke:#181818;stroke-width:1.0;"/><line style="stroke:#181818;stroke-width:1.0;" x1="964" x2="2614.5" y1="1458.2656" y2="1458.2656"/><text fill="#000000" font-family="sans-serif" font-size="13" font-weight="bold" lengthAdjust="spacing" textLength="14" x="971" y="1453.4092">32</text><text fill="#000000" font-family="sans-serif" font-size="13" lengthAdjust="spacing" textLength="141" x="989" y="1453.4092">printUserRecoveryTime()</text><polygon fill="#181818" points="62.5,1514.6172,52.5,1518.6172,62.5,1522.6172,58.5,1518.6172" style="stroke:#181818;stroke-width:1.0;"/><line style="stroke:#181818;stroke-width:1.0;stroke-dasharray:2.0,2.0;" x1="56.5" x2="452.5" y1="1518.6172" y2="1518.6172"/><text fill="#000000" font-family="sans-serif" font-size="13" font-weight="bold" lengthAdjust="spacing" textLength="14" x="68.5" y="1513.7607">33</text><text fill="#000000" font-family="sans-serif" font-size="13" lengthAdjust="spacing" textLength="278" x="86.5" y="1513.7607">informs that vaccine administration is completed</text><!--MD5=[00c96039f1753bd12fab36c6a1aa9447]
@startuml

autonumber

actor Nurse as N

participant ":RecordVaccineAdministrationUI" as UI
participant ":RecordVaccineAdministrationController" as CTRL
participant "company\n:Company" as C
participant "vaccinationCenterStore\n:VaccinationCenterStore" as VS
participant "vaccinationCenter\n:VaccinationCenter" as VC
participant "snsUser\n:SnsUser" as SU
participant "vaccineBulletinList\nList<VaccineBulletin>" as L
participant "printRecoveryTime\n:PrintRecoveryTime" as PR

activate N
N -> UI : asks to record the administration of a vaccine to an SNS user
activate UI

UI -> CTRL** : vaccinationCenterList = getVaccinationCentersNameList()
activate CTRL
CTRL -> C : vaccinationCenterList = getVaccinationCenters()
activate C
deactivate CTRL
C -> VS : vaccinationCenterList = getVaccinationCenters()
activate VS
deactivate VS
deactivate C
UI - -> N : shows a list with the available vaccination centers
deactivate UI

N -> UI : selects one vaccination center
activate UI
UI -> CTRL : setVaccinationCenter(vaccinationCenterIndex)
activate CTRL
CTRL -> C : vaccinationCenter = getVaccinationCenters().get(index)
activate C
C -> VS : vaccinationCenter = getVaccinationCenters().get(index)
deactivate C
activate VS
VS -> VC : vaccinationCenter = getVaccinationCenters().get(index)
activate VC
deactivate VC
deactivate VS
deactivate CTRL

UI -> CTRL : setArrivalsList = vaccinationCenter.getArrivalsList()
activate CTRL
CTRL -> VC : arrivalsList = getArrivalsList()

activate VC
deactivate VC
deactivate CTRL

 UI - -> N : shows a list with the users available in arrivals list
deactivate UI
N -> UI : selects one user

activate UI
UI -> CTRL : setVaccineType(arrivalsListUserIndex)
activate CTRL
CTRL -> CTRL : vaccineType = arrivalsList(arrivalsListUserIndex).getVaccineType()
CTRL -> CTRL : doseNumber = findLastDoseOfVaccineType()
alt User´s first dose for Vaccine Type
UI -> CTRL : vaccineList = getVaccineNameList()
CTRL -> C : vaccineList = getVaccineList()
activate C
deactivate C
loop Validate User Age Group
UI - -> N : shows a list with the available vaccines
deactivate UI
N -> UI : selects one vaccine
activate UI
UI -> CTRL : setVaccine(vaccineIndex)
CTRL -> C : vaccine = getVaccineList().get(vaccineIndex)
activate C
deactivate C
CTRL -> SU : userAge = snsUser.getSnsUserAge()
activate SU
deactivate SU
CTRL -> CTRL : validate user age group
end
end
deactivate CTRL
UI - -> N : shows dosage for respective dose and requests vaccine´s lot
deactivate UI
N -> UI : introduces vaccine´s lot number
activate UI

UI -> CTRL : validateLotNumber(lotNumber)
activate CTRL

ref over CTRL : SD_CreateVaccineBulletin.puml


CTRL -> SU : addVaccineBulletin(VaccineBulletin)
activate SU

SU -> L : addVaccineBulletin(VaccineBulletin)
activate L
deactivate L
deactivate SU
UI -> CTRL : printRecoveryTime()

CTRL -> PR : printUserRecoveryTime()
activate PR
deactivate PR

UI - -> N : informs that vaccine administration is completed


deactivate CTRL
deactivate UI
deactivate N
@enduml

PlantUML version 1.2022.5(Sat Apr 30 11:55:52 BST 2022)
(GPL source distribution)
Java Runtime: OpenJDK Runtime Environment
JVM: OpenJDK 64-Bit Server VM
Default Encoding: Cp1252
Language: en
Country: US
--></g></svg>