<?xml version="1.0" encoding="UTF-8" standalone="no"?><svg xmlns="http://www.w3.org/2000/svg" xmlns:xlink="http://www.w3.org/1999/xlink" contentStyleType="text/css" height="723px" preserveAspectRatio="none" style="width:813px;height:723px;background:#FFFFFF;" version="1.1" viewBox="0 0 813 723" width="813px" zoomAndPan="magnify"><defs/><g><!--MD5=[1b816f1c9a775194bbefda82e641a464]
class SpecifyNewVaccineAndAdminProcessUI--><g id="elem_SpecifyNewVaccineAndAdminProcessUI"><rect codeLine="3" fill="#F1F1F1" height="83.2188" id="SpecifyNewVaccineAndAdminProcessUI" rx="2.5" ry="2.5" style="stroke:#181818;stroke-width:0.5;" width="439" x="194.5" y="7"/><ellipse cx="285.25" cy="23" fill="#ADD1B2" rx="11" ry="11" style="stroke:#181818;stroke-width:1.0;"/><path d="M287.25,19.5 Q287.4531,19 287.6875,18.75 Q287.9219,18.5 288.1875,18.5 Q288.6563,18.5 288.9531,18.7813 Q289.25,19.0625 289.25,19.7188 L289.25,21.2813 Q289.25,21.9375 288.9688,22.2188 Q288.6875,22.5 288.25,22.5 Q287.8594,22.5 287.6094,22.3281 Q287.3594,22.1563 287.25,21.7031 Q287.2031,21.3906 287.0313,21.2188 Q286.7188,20.8906 286.1563,20.7031 Q285.5938,20.5 285.0313,20.5 Q284.3281,20.5 283.7344,20.7813 Q283.1563,21.0625 282.7031,21.6875 Q282.25,22.3125 282.25,23.1719 L282.25,24.0938 Q282.25,25.125 283.0938,25.8125 Q283.9375,26.5 285.4375,26.5 Q286.3281,26.5 286.9531,26.2969 Q287.3125,26.1875 287.7188,25.8281 Q287.9844,25.625 288.125,25.5625 Q288.2656,25.5 288.4375,25.5 Q288.7656,25.5 289,25.7656 Q289.25,26.0156 289.25,26.375 Q289.25,26.7188 288.9063,27.125 Q288.4063,27.7188 287.6094,28.0469 Q286.5625,28.5 285.2813,28.5 Q283.7813,28.5 282.5781,27.9063 Q281.6094,27.4375 280.9219,26.4219 Q280.25,25.4063 280.25,24.2031 L280.25,23.1094 Q280.25,21.8594 280.8438,20.7656 Q281.4531,19.6719 282.5,19.0938 Q283.5625,18.5 284.75,18.5 Q285.4688,18.5 286.0938,18.75 Q286.7188,19 287.25,19.5 Z " fill="#000000"/><text fill="#000000" font-family="sans-serif" font-size="14" lengthAdjust="spacing" textLength="249" x="305.75" y="28.7285">SpecifyNewVaccineAndAdminProcessUI</text><line style="stroke:#181818;stroke-width:0.5;" x1="195.5" x2="632.5" y1="39" y2="39"/><line style="stroke:#181818;stroke-width:0.5;" x1="195.5" x2="632.5" y1="47" y2="47"/><text fill="#000000" font-family="sans-serif" font-size="14" lengthAdjust="spacing" textLength="427" x="200.5" y="65.5332">-showVaccineAndAdminProcessData(vaccineAndAdminProcessDto)</text><text fill="#000000" font-family="sans-serif" font-size="14" lengthAdjust="spacing" textLength="165" x="200.5" y="83.1426">-chooseNumberOfDoses()</text></g><!--MD5=[cfa281229f53af93e7adebdfa1eefc30]
class SpecifyNewVaccineAndAdminProcessController--><g id="elem_SpecifyNewVaccineAndAdminProcessController"><rect codeLine="8" fill="#F1F1F1" height="83.2188" id="SpecifyNewVaccineAndAdminProcessController" rx="2.5" ry="2.5" style="stroke:#181818;stroke-width:0.5;" width="450" x="189" y="151"/><ellipse cx="260.25" cy="167" fill="#ADD1B2" rx="11" ry="11" style="stroke:#181818;stroke-width:1.0;"/><path d="M262.25,163.5 Q262.4531,163 262.6875,162.75 Q262.9219,162.5 263.1875,162.5 Q263.6563,162.5 263.9531,162.7813 Q264.25,163.0625 264.25,163.7188 L264.25,165.2813 Q264.25,165.9375 263.9688,166.2188 Q263.6875,166.5 263.25,166.5 Q262.8594,166.5 262.6094,166.3281 Q262.3594,166.1563 262.25,165.7031 Q262.2031,165.3906 262.0313,165.2188 Q261.7188,164.8906 261.1563,164.7031 Q260.5938,164.5 260.0313,164.5 Q259.3281,164.5 258.7344,164.7813 Q258.1563,165.0625 257.7031,165.6875 Q257.25,166.3125 257.25,167.1719 L257.25,168.0938 Q257.25,169.125 258.0938,169.8125 Q258.9375,170.5 260.4375,170.5 Q261.3281,170.5 261.9531,170.2969 Q262.3125,170.1875 262.7188,169.8281 Q262.9844,169.625 263.125,169.5625 Q263.2656,169.5 263.4375,169.5 Q263.7656,169.5 264,169.7656 Q264.25,170.0156 264.25,170.375 Q264.25,170.7188 263.9063,171.125 Q263.4063,171.7188 262.6094,172.0469 Q261.5625,172.5 260.2813,172.5 Q258.7813,172.5 257.5781,171.9063 Q256.6094,171.4375 255.9219,170.4219 Q255.25,169.4063 255.25,168.2031 L255.25,167.1094 Q255.25,165.8594 255.8438,164.7656 Q256.4531,163.6719 257.5,163.0938 Q258.5625,162.5 259.75,162.5 Q260.4688,162.5 261.0938,162.75 Q261.7188,163 262.25,163.5 Z " fill="#000000"/><text fill="#000000" font-family="sans-serif" font-size="14" lengthAdjust="spacing" textLength="299" x="280.75" y="172.7285">SpecifyNewVaccineAndAdminProcessController</text><line style="stroke:#181818;stroke-width:0.5;" x1="190" x2="638" y1="183" y2="183"/><line style="stroke:#181818;stroke-width:0.5;" x1="190" x2="638" y1="191" y2="191"/><text fill="#000000" font-family="sans-serif" font-size="14" lengthAdjust="spacing" textLength="438" x="195" y="209.5332">+specifyNewVaccineAndAdminProcess(vaccineAndAdminProcessDto)</text><text fill="#000000" font-family="sans-serif" font-size="14" lengthAdjust="spacing" textLength="283" x="195" y="227.1426">+saveVaccine(vaccineAndAdminProcessDto)</text></g><!--MD5=[02e4b9b7573f1156f41e60aa5b4e25a4]
class Company--><g id="elem_Company"><rect codeLine="13" fill="#F1F1F1" height="224.0938" id="Company" rx="2.5" ry="2.5" style="stroke:#181818;stroke-width:0.5;" width="450" x="7" y="295"/><ellipse cx="197.75" cy="311" fill="#ADD1B2" rx="11" ry="11" style="stroke:#181818;stroke-width:1.0;"/><path d="M199.75,307.5 Q199.9531,307 200.1875,306.75 Q200.4219,306.5 200.6875,306.5 Q201.1563,306.5 201.4531,306.7813 Q201.75,307.0625 201.75,307.7188 L201.75,309.2813 Q201.75,309.9375 201.4688,310.2188 Q201.1875,310.5 200.75,310.5 Q200.3594,310.5 200.1094,310.3281 Q199.8594,310.1563 199.75,309.7031 Q199.7031,309.3906 199.5313,309.2188 Q199.2188,308.8906 198.6563,308.7031 Q198.0938,308.5 197.5313,308.5 Q196.8281,308.5 196.2344,308.7813 Q195.6563,309.0625 195.2031,309.6875 Q194.75,310.3125 194.75,311.1719 L194.75,312.0938 Q194.75,313.125 195.5938,313.8125 Q196.4375,314.5 197.9375,314.5 Q198.8281,314.5 199.4531,314.2969 Q199.8125,314.1875 200.2188,313.8281 Q200.4844,313.625 200.625,313.5625 Q200.7656,313.5 200.9375,313.5 Q201.2656,313.5 201.5,313.7656 Q201.75,314.0156 201.75,314.375 Q201.75,314.7188 201.4063,315.125 Q200.9063,315.7188 200.1094,316.0469 Q199.0625,316.5 197.7813,316.5 Q196.2813,316.5 195.0781,315.9063 Q194.1094,315.4375 193.4219,314.4219 Q192.75,313.4063 192.75,312.2031 L192.75,311.1094 Q192.75,309.8594 193.3438,308.7656 Q193.9531,307.6719 195,307.0938 Q196.0625,306.5 197.25,306.5 Q197.9688,306.5 198.5938,306.75 Q199.2188,307 199.75,307.5 Z " fill="#000000"/><text fill="#000000" font-family="sans-serif" font-size="14" lengthAdjust="spacing" textLength="60" x="218.25" y="316.7285">Company</text><line style="stroke:#181818;stroke-width:0.5;" x1="8" x2="456" y1="327" y2="327"/><text fill="#000000" font-family="sans-serif" font-size="14" lengthAdjust="spacing" textLength="92" x="13" y="345.5332">-vaccineTypes</text><text fill="#000000" font-family="sans-serif" font-size="14" lengthAdjust="spacing" textLength="60" x="13" y="363.1426">-vaccines</text><text fill="#000000" font-family="sans-serif" font-size="14" lengthAdjust="spacing" textLength="73" x="13" y="380.752">-employees</text><text fill="#000000" font-family="sans-serif" font-size="14" lengthAdjust="spacing" textLength="36" x="13" y="398.3613">-roles</text><line style="stroke:#181818;stroke-width:0.5;" x1="8" x2="456" y1="405.4375" y2="405.4375"/><text fill="#000000" font-family="sans-serif" font-size="14" lengthAdjust="spacing" textLength="283" x="13" y="423.9707">+saveVaccine(vaccineAndAdminProcessDto)</text><text fill="#000000" font-family="sans-serif" font-size="14" lengthAdjust="spacing" textLength="438" x="13" y="441.5801">+specifyNewVaccineAndAdminProcess(vaccineAndAdminProcessDto)</text><text fill="#000000" font-family="sans-serif" font-size="14" lengthAdjust="spacing" textLength="355" x="13" y="459.1895">+specifyNewVaccineType(code, description, technology)</text><text fill="#000000" font-family="sans-serif" font-size="14" lengthAdjust="spacing" textLength="315" x="13" y="476.7988">+saveVaccineType(code, description, technology)</text><text fill="#000000" font-family="sans-serif" font-size="14" lengthAdjust="spacing" textLength="312" x="13" y="494.4082">+registerNewEmployee(registerNewEmployeeDto)</text><text fill="#000000" font-family="sans-serif" font-size="14" lengthAdjust="spacing" textLength="319" x="13" y="512.0176">+saveCreatedEmployee(registerNewEmployeeDto)</text></g><!--MD5=[19e445fc4d3b48519cbe33da05496394]
class Vaccine--><g id="elem_Vaccine"><rect codeLine="26" fill="#F1F1F1" height="100.8281" id="Vaccine" rx="2.5" ry="2.5" style="stroke:#181818;stroke-width:0.5;" width="82" x="557" y="356.5"/><ellipse cx="572" cy="372.5" fill="#ADD1B2" rx="11" ry="11" style="stroke:#181818;stroke-width:1.0;"/><path d="M574,369 Q574.2031,368.5 574.4375,368.25 Q574.6719,368 574.9375,368 Q575.4063,368 575.7031,368.2813 Q576,368.5625 576,369.2188 L576,370.7813 Q576,371.4375 575.7188,371.7188 Q575.4375,372 575,372 Q574.6094,372 574.3594,371.8281 Q574.1094,371.6563 574,371.2031 Q573.9531,370.8906 573.7813,370.7188 Q573.4688,370.3906 572.9063,370.2031 Q572.3438,370 571.7813,370 Q571.0781,370 570.4844,370.2813 Q569.9063,370.5625 569.4531,371.1875 Q569,371.8125 569,372.6719 L569,373.5938 Q569,374.625 569.8438,375.3125 Q570.6875,376 572.1875,376 Q573.0781,376 573.7031,375.7969 Q574.0625,375.6875 574.4688,375.3281 Q574.7344,375.125 574.875,375.0625 Q575.0156,375 575.1875,375 Q575.5156,375 575.75,375.2656 Q576,375.5156 576,375.875 Q576,376.2188 575.6563,376.625 Q575.1563,377.2188 574.3594,377.5469 Q573.3125,378 572.0313,378 Q570.5313,378 569.3281,377.4063 Q568.3594,376.9375 567.6719,375.9219 Q567,374.9063 567,373.7031 L567,372.6094 Q567,371.3594 567.5938,370.2656 Q568.2031,369.1719 569.25,368.5938 Q570.3125,368 571.5,368 Q572.2188,368 572.8438,368.25 Q573.4688,368.5 574,369 Z " fill="#000000"/><text fill="#000000" font-family="sans-serif" font-size="14" lengthAdjust="spacing" textLength="50" x="586" y="378.2285">Vaccine</text><line style="stroke:#181818;stroke-width:0.5;" x1="558" x2="638" y1="388.5" y2="388.5"/><text fill="#000000" font-family="sans-serif" font-size="14" lengthAdjust="spacing" textLength="16" x="563" y="407.0332">-id</text><text fill="#000000" font-family="sans-serif" font-size="14" lengthAdjust="spacing" textLength="40" x="563" y="424.6426">-name</text><text fill="#000000" font-family="sans-serif" font-size="14" lengthAdjust="spacing" textLength="42" x="563" y="442.252">-brand</text><line style="stroke:#181818;stroke-width:0.5;" x1="558" x2="638" y1="449.3281" y2="449.3281"/></g><!--MD5=[0e501da62322464167c8ec4d233a6b7e]
class VaccineType--><g id="elem_VaccineType"><rect codeLine="32" fill="#F1F1F1" height="136.0469" id="VaccineType" rx="2.5" ry="2.5" style="stroke:#181818;stroke-width:0.5;" width="161" x="409.5" y="580"/><ellipse cx="445.65" cy="596" fill="#ADD1B2" rx="11" ry="11" style="stroke:#181818;stroke-width:1.0;"/><path d="M447.65,592.5 Q447.8531,592 448.0875,591.75 Q448.3219,591.5 448.5875,591.5 Q449.0563,591.5 449.3531,591.7813 Q449.65,592.0625 449.65,592.7188 L449.65,594.2813 Q449.65,594.9375 449.3688,595.2188 Q449.0875,595.5 448.65,595.5 Q448.2594,595.5 448.0094,595.3281 Q447.7594,595.1563 447.65,594.7031 Q447.6031,594.3906 447.4313,594.2188 Q447.1188,593.8906 446.5563,593.7031 Q445.9938,593.5 445.4313,593.5 Q444.7281,593.5 444.1344,593.7813 Q443.5563,594.0625 443.1031,594.6875 Q442.65,595.3125 442.65,596.1719 L442.65,597.0938 Q442.65,598.125 443.4938,598.8125 Q444.3375,599.5 445.8375,599.5 Q446.7281,599.5 447.3531,599.2969 Q447.7125,599.1875 448.1188,598.8281 Q448.3844,598.625 448.525,598.5625 Q448.6656,598.5 448.8375,598.5 Q449.1656,598.5 449.4,598.7656 Q449.65,599.0156 449.65,599.375 Q449.65,599.7188 449.3063,600.125 Q448.8063,600.7188 448.0094,601.0469 Q446.9625,601.5 445.6813,601.5 Q444.1813,601.5 442.9781,600.9063 Q442.0094,600.4375 441.3219,599.4219 Q440.65,598.4063 440.65,597.2031 L440.65,596.1094 Q440.65,594.8594 441.2438,593.7656 Q441.8531,592.6719 442.9,592.0938 Q443.9625,591.5 445.15,591.5 Q445.8688,591.5 446.4938,591.75 Q447.1188,592 447.65,592.5 Z " fill="#000000"/><text fill="#000000" font-family="sans-serif" font-size="14" lengthAdjust="spacing" textLength="82" x="464.35" y="601.7285">VaccineType</text><line style="stroke:#181818;stroke-width:0.5;" x1="410.5" x2="569.5" y1="612" y2="612"/><text fill="#000000" font-family="sans-serif" font-size="14" lengthAdjust="spacing" textLength="36" x="415.5" y="630.5332">-code</text><text fill="#000000" font-family="sans-serif" font-size="14" lengthAdjust="spacing" textLength="74" x="415.5" y="648.1426">-description</text><text fill="#000000" font-family="sans-serif" font-size="14" lengthAdjust="spacing" textLength="74" x="415.5" y="665.752">-technology</text><line style="stroke:#181818;stroke-width:0.5;" x1="410.5" x2="569.5" y1="672.8281" y2="672.8281"/><text fill="#000000" font-family="sans-serif" font-size="14" lengthAdjust="spacing" textLength="149" x="415.5" y="691.3613">+validateVaccineType()</text><text fill="#000000" font-family="sans-serif" font-size="14" lengthAdjust="spacing" textLength="101" x="415.5" y="708.9707">+validateCode()</text></g><!--MD5=[a2530d24bafc45bb45314d96545aa194]
class AdministrationProcess--><g id="elem_AdministrationProcess"><rect codeLine="40" fill="#F1F1F1" height="118.4375" id="AdministrationProcess" rx="2.5" ry="2.5" style="stroke:#181818;stroke-width:0.5;" width="200" x="606" y="589"/><ellipse cx="633.6" cy="605" fill="#ADD1B2" rx="11" ry="11" style="stroke:#181818;stroke-width:1.0;"/><path d="M635.6,601.5 Q635.8031,601 636.0375,600.75 Q636.2719,600.5 636.5375,600.5 Q637.0063,600.5 637.3031,600.7813 Q637.6,601.0625 637.6,601.7188 L637.6,603.2813 Q637.6,603.9375 637.3188,604.2188 Q637.0375,604.5 636.6,604.5 Q636.2094,604.5 635.9594,604.3281 Q635.7094,604.1563 635.6,603.7031 Q635.5531,603.3906 635.3813,603.2188 Q635.0688,602.8906 634.5063,602.7031 Q633.9438,602.5 633.3813,602.5 Q632.6781,602.5 632.0844,602.7813 Q631.5063,603.0625 631.0531,603.6875 Q630.6,604.3125 630.6,605.1719 L630.6,606.0938 Q630.6,607.125 631.4438,607.8125 Q632.2875,608.5 633.7875,608.5 Q634.6781,608.5 635.3031,608.2969 Q635.6625,608.1875 636.0688,607.8281 Q636.3344,607.625 636.475,607.5625 Q636.6156,607.5 636.7875,607.5 Q637.1156,607.5 637.35,607.7656 Q637.6,608.0156 637.6,608.375 Q637.6,608.7188 637.2563,609.125 Q636.7563,609.7188 635.9594,610.0469 Q634.9125,610.5 633.6313,610.5 Q632.1313,610.5 630.9281,609.9063 Q629.9594,609.4375 629.2719,608.4219 Q628.6,607.4063 628.6,606.2031 L628.6,605.1094 Q628.6,603.8594 629.1938,602.7656 Q629.8031,601.6719 630.85,601.0938 Q631.9125,600.5 633.1,600.5 Q633.8188,600.5 634.4438,600.75 Q635.0688,601 635.6,601.5 Z " fill="#000000"/><text fill="#000000" font-family="sans-serif" font-size="14" lengthAdjust="spacing" textLength="140" x="650.4" y="610.7285">AdministrationProcess</text><line style="stroke:#181818;stroke-width:0.5;" x1="607" x2="805" y1="621" y2="621"/><text fill="#000000" font-family="sans-serif" font-size="14" lengthAdjust="spacing" textLength="76" x="612" y="639.5332">-ageGroups</text><text fill="#000000" font-family="sans-serif" font-size="14" lengthAdjust="spacing" textLength="59" x="612" y="657.1426">-dosages</text><text fill="#000000" font-family="sans-serif" font-size="14" lengthAdjust="spacing" textLength="108" x="612" y="674.752">-numberOfDoses</text><text fill="#000000" font-family="sans-serif" font-size="14" lengthAdjust="spacing" textLength="188" x="612" y="692.3613">-timeIntervalBetweenVaccines</text><line style="stroke:#181818;stroke-width:0.5;" x1="607" x2="805" y1="699.4375" y2="699.4375"/></g><!--MD5=[a355167540f8ef0ba4176a48caa5c5e1]
link SpecifyNewVaccineAndAdminProcessUI to SpecifyNewVaccineAndAdminProcessController--><g id="link_SpecifyNewVaccineAndAdminProcessUI_SpecifyNewVaccineAndAdminProcessController"><path codeLine="48" d="M414,90.19 C414,107.42 414,127.59 414,145.37 " fill="none" id="SpecifyNewVaccineAndAdminProcessUI-to-SpecifyNewVaccineAndAdminProcessController" style="stroke:#181818;stroke-width:1.0;stroke-dasharray:7.0,7.0;"/><polygon fill="#181818" points="414,150.8,418,141.8,414,145.8,410,141.8,414,150.8" style="stroke:#181818;stroke-width:1.0;"/></g><!--MD5=[e5e636be23b9950e6f067d4fa2ca045c]
link SpecifyNewVaccineAndAdminProcessController to Company--><g id="link_SpecifyNewVaccineAndAdminProcessController_Company"><path codeLine="49" d="M379.12,234.22 C365.03,250.67 348,270.56 330.59,290.88 " fill="none" id="SpecifyNewVaccineAndAdminProcessController-to-Company" style="stroke:#181818;stroke-width:1.0;stroke-dasharray:7.0,7.0;"/><polygon fill="#181818" points="327.34,294.68,336.2341,290.4499,330.594,290.8837,330.1601,285.2435,327.34,294.68" style="stroke:#181818;stroke-width:1.0;"/></g><!--MD5=[c29c8d42883934cbaf5793c72a334947]
link Company to Vaccine--><g id="link_Company_Vaccine"><path codeLine="50" d="M457.02,407 C495.23,407 530.86,407 556.74,407 " fill="none" id="Company-Vaccine" style="stroke:#181818;stroke-width:1.0;"/><polygon fill="#000000" points="484.5,395.1758,475.4549,392.2369,475.4549,398.1147,484.5,395.1758" style="stroke:#000000;stroke-width:1.0;"/><text fill="#000000" font-family="sans-serif" font-size="13" lengthAdjust="spacing" textLength="50" x="488.5" y="400.4951">storages</text><text fill="#000000" font-family="sans-serif" font-size="13" lengthAdjust="spacing" textLength="7" x="465.2324" y="404.2122">1</text><text fill="#000000" font-family="sans-serif" font-size="13" lengthAdjust="spacing" textLength="5" x="543.9453" y="403.1167">*</text></g><!--MD5=[59886b2f56cb0aecb79cdd28f668068a]
link SpecifyNewVaccineAndAdminProcessController to Vaccine--><g id="link_SpecifyNewVaccineAndAdminProcessController_Vaccine"><path codeLine="51" d="M449.26,234.22 C478.86,268.41 521.32,317.44 553.3,354.38 " fill="none" id="SpecifyNewVaccineAndAdminProcessController-to-Vaccine" style="stroke:#181818;stroke-width:1.0;stroke-dasharray:7.0,7.0;"/><polygon fill="#181818" points="556.75,358.36,553.8743,348.9403,553.4737,354.583,547.8311,354.1824,556.75,358.36" style="stroke:#181818;stroke-width:1.0;"/></g><!--MD5=[09e640553caef1f503445df8eef57be6]
reverse link Vaccine to VaccineType--><g id="link_Vaccine_VaccineType"><path codeLine="52" d="M570.18,469.57 C554.92,503.34 535.98,545.26 520.34,579.87 " fill="none" id="Vaccine-backto-VaccineType" style="stroke:#181818;stroke-width:1.0;"/><polygon fill="#181818" points="575.62,457.52,569.5044,461.3409,570.6792,468.4556,576.7948,464.6348,575.62,457.52" style="stroke:#181818;stroke-width:1.0;"/><text fill="#000000" font-family="sans-serif" font-size="13" lengthAdjust="spacing" textLength="5" x="567.2768" y="478.9139">*</text><text fill="#000000" font-family="sans-serif" font-size="13" lengthAdjust="spacing" textLength="7" x="516.2756" y="569.0551">1</text></g><!--MD5=[e8b9eb0db0588a6f2c3f453595800bd3]
reverse link Vaccine to AdministrationProcess--><g id="link_Vaccine_AdministrationProcess"><path codeLine="53" d="M625.82,469.57 C642.41,506.27 663.34,552.59 679.65,588.69 " fill="none" id="Vaccine-backto-AdministrationProcess" style="stroke:#181818;stroke-width:1.0;"/><polygon fill="#181818" points="620.38,457.52,619.2052,464.6348,625.3208,468.4556,626.4956,461.3409,620.38,457.52" style="stroke:#181818;stroke-width:1.0;"/><text fill="#000000" font-family="sans-serif" font-size="13" lengthAdjust="spacing" textLength="7" x="615.917" y="478.9139">1</text><text fill="#000000" font-family="sans-serif" font-size="13" lengthAdjust="spacing" textLength="7" x="660.5245" y="577.9765">1</text></g><!--MD5=[91b87295e5f4464a0c1ccb0722b9e248]
@startuml
skinparam classAttributeIconSize 0

class SpecifyNewVaccineAndAdminProcessUI {
-showVaccineAndAdminProcessData(vaccineAndAdminProcessDto)
-chooseNumberOfDoses()
}

class SpecifyNewVaccineAndAdminProcessController {
+specifyNewVaccineAndAdminProcess(vaccineAndAdminProcessDto)
+saveVaccine(vaccineAndAdminProcessDto)
}

class Company {
-vaccineTypes
-vaccines
-employees
-roles
+saveVaccine(vaccineAndAdminProcessDto)
+specifyNewVaccineAndAdminProcess(vaccineAndAdminProcessDto)
+specifyNewVaccineType(code, description, technology)
+saveVaccineType(code, description, technology)
+registerNewEmployee(registerNewEmployeeDto)
+saveCreatedEmployee(registerNewEmployeeDto)
}

class Vaccine{
-id
-name
-brand

}
class VaccineType {
-code
-description
-technology
+validateVaccineType()
+validateCode()
}

class AdministrationProcess {
-ageGroups
-dosages
-numberOfDoses
-timeIntervalBetweenVaccines

}

SpecifyNewVaccineAndAdminProcessUI ..> SpecifyNewVaccineAndAdminProcessController
SpecifyNewVaccineAndAdminProcessController ..> Company
Company "1" - "*" Vaccine : storages >
SpecifyNewVaccineAndAdminProcessController ..> Vaccine
Vaccine "*" *- - "1" VaccineType
Vaccine "1" *- - "1  " AdministrationProcess

@enduml

PlantUML version 1.2022.4(Sat Apr 09 14:29:17 BST 2022)
(GPL source distribution)
Java Runtime: OpenJDK Runtime Environment
JVM: OpenJDK 64-Bit Server VM
Default Encoding: Cp1252
Language: en
Country: US
--></g></svg>