<?xml version="1.0" encoding="UTF-8" standalone="no"?><svg xmlns="http://www.w3.org/2000/svg" xmlns:xlink="http://www.w3.org/1999/xlink" contentStyleType="text/css" height="298px" preserveAspectRatio="none" style="width:869px;height:298px;background:#FFFFFF;" version="1.1" viewBox="0 0 869 298" width="869px" zoomAndPan="magnify"><defs/><g><!--MD5=[da547346deef918ea16944ba046651ef]
class Administrator--><g id="elem_Administrator"><rect codeLine="7" fill="#F1F1F1" height="40" id="Administrator" rx="2.5" ry="2.5" style="stroke:#181818;stroke-width:0.5;" width="115" x="198" y="110.5"/><ellipse cx="213" cy="126.5" fill="#ADD1B2" rx="11" ry="11" style="stroke:#181818;stroke-width:1.0;"/><path d="M215,123 Q215.2031,122.5 215.4375,122.25 Q215.6719,122 215.9375,122 Q216.4063,122 216.7031,122.2813 Q217,122.5625 217,123.2188 L217,124.7813 Q217,125.4375 216.7188,125.7188 Q216.4375,126 216,126 Q215.6094,126 215.3594,125.8281 Q215.1094,125.6563 215,125.2031 Q214.9531,124.8906 214.7813,124.7188 Q214.4688,124.3906 213.9063,124.2031 Q213.3438,124 212.7813,124 Q212.0781,124 211.4844,124.2813 Q210.9063,124.5625 210.4531,125.1875 Q210,125.8125 210,126.6719 L210,127.5938 Q210,128.625 210.8438,129.3125 Q211.6875,130 213.1875,130 Q214.0781,130 214.7031,129.7969 Q215.0625,129.6875 215.4688,129.3281 Q215.7344,129.125 215.875,129.0625 Q216.0156,129 216.1875,129 Q216.5156,129 216.75,129.2656 Q217,129.5156 217,129.875 Q217,130.2188 216.6563,130.625 Q216.1563,131.2188 215.3594,131.5469 Q214.3125,132 213.0313,132 Q211.5313,132 210.3281,131.4063 Q209.3594,130.9375 208.6719,129.9219 Q208,128.9063 208,127.7031 L208,126.6094 Q208,125.3594 208.5938,124.2656 Q209.2031,123.1719 210.25,122.5938 Q211.3125,122 212.5,122 Q213.2188,122 213.8438,122.25 Q214.4688,122.5 215,123 Z " fill="#000000"/><text fill="#000000" font-family="sans-serif" font-size="14" lengthAdjust="spacing" textLength="83" x="227" y="132.2285">Administrator</text><line style="stroke:#181818;stroke-width:0.5;" x1="199" x2="312" y1="142.5" y2="142.5"/></g><!--MD5=[02e4b9b7573f1156f41e60aa5b4e25a4]
class Company--><g id="elem_Company"><rect codeLine="11" fill="#F1F1F1" height="40" id="Company" rx="2.5" ry="2.5" style="stroke:#181818;stroke-width:0.5;" width="92" x="26" y="251.5"/><ellipse cx="41" cy="267.5" fill="#ADD1B2" rx="11" ry="11" style="stroke:#181818;stroke-width:1.0;"/><path d="M43,264 Q43.2031,263.5 43.4375,263.25 Q43.6719,263 43.9375,263 Q44.4063,263 44.7031,263.2813 Q45,263.5625 45,264.2188 L45,265.7813 Q45,266.4375 44.7188,266.7188 Q44.4375,267 44,267 Q43.6094,267 43.3594,266.8281 Q43.1094,266.6563 43,266.2031 Q42.9531,265.8906 42.7813,265.7188 Q42.4688,265.3906 41.9063,265.2031 Q41.3438,265 40.7813,265 Q40.0781,265 39.4844,265.2813 Q38.9063,265.5625 38.4531,266.1875 Q38,266.8125 38,267.6719 L38,268.5938 Q38,269.625 38.8438,270.3125 Q39.6875,271 41.1875,271 Q42.0781,271 42.7031,270.7969 Q43.0625,270.6875 43.4688,270.3281 Q43.7344,270.125 43.875,270.0625 Q44.0156,270 44.1875,270 Q44.5156,270 44.75,270.2656 Q45,270.5156 45,270.875 Q45,271.2188 44.6563,271.625 Q44.1563,272.2188 43.3594,272.5469 Q42.3125,273 41.0313,273 Q39.5313,273 38.3281,272.4063 Q37.3594,271.9375 36.6719,270.9219 Q36,269.9063 36,268.7031 L36,267.6094 Q36,266.3594 36.5938,265.2656 Q37.2031,264.1719 38.25,263.5938 Q39.3125,263 40.5,263 Q41.2188,263 41.8438,263.25 Q42.4688,263.5 43,264 Z " fill="#000000"/><text fill="#000000" font-family="sans-serif" font-size="14" lengthAdjust="spacing" textLength="60" x="55" y="273.2285">Company</text><line style="stroke:#181818;stroke-width:0.5;" x1="27" x2="117" y1="283.5" y2="283.5"/></g><!--MD5=[19e445fc4d3b48519cbe33da05496394]
class Vaccine--><g id="elem_Vaccine"><rect codeLine="13" fill="#F1F1F1" height="92.8281" id="Vaccine" rx="2.5" ry="2.5" style="stroke:#181818;stroke-width:0.5;" width="82" x="466" y="84"/><ellipse cx="481" cy="100" fill="#ADD1B2" rx="11" ry="11" style="stroke:#181818;stroke-width:1.0;"/><path d="M483,96.5 Q483.2031,96 483.4375,95.75 Q483.6719,95.5 483.9375,95.5 Q484.4063,95.5 484.7031,95.7813 Q485,96.0625 485,96.7188 L485,98.2813 Q485,98.9375 484.7188,99.2188 Q484.4375,99.5 484,99.5 Q483.6094,99.5 483.3594,99.3281 Q483.1094,99.1563 483,98.7031 Q482.9531,98.3906 482.7813,98.2188 Q482.4688,97.8906 481.9063,97.7031 Q481.3438,97.5 480.7813,97.5 Q480.0781,97.5 479.4844,97.7813 Q478.9063,98.0625 478.4531,98.6875 Q478,99.3125 478,100.1719 L478,101.0938 Q478,102.125 478.8438,102.8125 Q479.6875,103.5 481.1875,103.5 Q482.0781,103.5 482.7031,103.2969 Q483.0625,103.1875 483.4688,102.8281 Q483.7344,102.625 483.875,102.5625 Q484.0156,102.5 484.1875,102.5 Q484.5156,102.5 484.75,102.7656 Q485,103.0156 485,103.375 Q485,103.7188 484.6563,104.125 Q484.1563,104.7188 483.3594,105.0469 Q482.3125,105.5 481.0313,105.5 Q479.5313,105.5 478.3281,104.9063 Q477.3594,104.4375 476.6719,103.4219 Q476,102.4063 476,101.2031 L476,100.1094 Q476,98.8594 476.5938,97.7656 Q477.2031,96.6719 478.25,96.0938 Q479.3125,95.5 480.5,95.5 Q481.2188,95.5 481.8438,95.75 Q482.4688,96 483,96.5 Z " fill="#000000"/><text fill="#000000" font-family="sans-serif" font-size="14" lengthAdjust="spacing" textLength="50" x="495" y="105.7285">Vaccine</text><line style="stroke:#181818;stroke-width:0.5;" x1="467" x2="547" y1="116" y2="116"/><text fill="#000000" font-family="sans-serif" font-size="14" lengthAdjust="spacing" textLength="40" x="472" y="134.5332">-name</text><text fill="#000000" font-family="sans-serif" font-size="14" lengthAdjust="spacing" textLength="16" x="472" y="152.1426">-id</text><text fill="#000000" font-family="sans-serif" font-size="14" lengthAdjust="spacing" textLength="42" x="472" y="169.752">-brand</text></g><!--MD5=[a2530d24bafc45bb45314d96545aa194]
class AdministrationProcess--><g id="elem_AdministrationProcess"><rect codeLine="19" fill="#F1F1F1" height="110.4375" id="AdministrationProcess" rx="2.5" ry="2.5" style="stroke:#181818;stroke-width:0.5;" width="200" x="662" y="154.5"/><ellipse cx="689.6" cy="170.5" fill="#ADD1B2" rx="11" ry="11" style="stroke:#181818;stroke-width:1.0;"/><path d="M691.6,167 Q691.8031,166.5 692.0375,166.25 Q692.2719,166 692.5375,166 Q693.0063,166 693.3031,166.2813 Q693.6,166.5625 693.6,167.2188 L693.6,168.7813 Q693.6,169.4375 693.3188,169.7188 Q693.0375,170 692.6,170 Q692.2094,170 691.9594,169.8281 Q691.7094,169.6563 691.6,169.2031 Q691.5531,168.8906 691.3813,168.7188 Q691.0688,168.3906 690.5063,168.2031 Q689.9438,168 689.3813,168 Q688.6781,168 688.0844,168.2813 Q687.5063,168.5625 687.0531,169.1875 Q686.6,169.8125 686.6,170.6719 L686.6,171.5938 Q686.6,172.625 687.4438,173.3125 Q688.2875,174 689.7875,174 Q690.6781,174 691.3031,173.7969 Q691.6625,173.6875 692.0688,173.3281 Q692.3344,173.125 692.475,173.0625 Q692.6156,173 692.7875,173 Q693.1156,173 693.35,173.2656 Q693.6,173.5156 693.6,173.875 Q693.6,174.2188 693.2563,174.625 Q692.7563,175.2188 691.9594,175.5469 Q690.9125,176 689.6313,176 Q688.1313,176 686.9281,175.4063 Q685.9594,174.9375 685.2719,173.9219 Q684.6,172.9063 684.6,171.7031 L684.6,170.6094 Q684.6,169.3594 685.1938,168.2656 Q685.8031,167.1719 686.85,166.5938 Q687.9125,166 689.1,166 Q689.8188,166 690.4438,166.25 Q691.0688,166.5 691.6,167 Z " fill="#000000"/><text fill="#000000" font-family="sans-serif" font-size="14" lengthAdjust="spacing" textLength="140" x="706.4" y="176.2285">AdministrationProcess</text><line style="stroke:#181818;stroke-width:0.5;" x1="663" x2="861" y1="186.5" y2="186.5"/><text fill="#000000" font-family="sans-serif" font-size="14" lengthAdjust="spacing" textLength="65" x="668" y="205.0332">-ageLimits</text><text fill="#000000" font-family="sans-serif" font-size="14" lengthAdjust="spacing" textLength="108" x="668" y="222.6426">-numberOfDoses</text><text fill="#000000" font-family="sans-serif" font-size="14" lengthAdjust="spacing" textLength="102" x="668" y="240.252">-vaccineDosage</text><text fill="#000000" font-family="sans-serif" font-size="14" lengthAdjust="spacing" textLength="188" x="668" y="257.8613">-timeIntervalBetweenVaccines</text></g><!--MD5=[0e501da62322464167c8ec4d233a6b7e]
class VaccineType--><g id="elem_VaccineType"><rect codeLine="27" fill="#F1F1F1" height="92.8281" id="VaccineType" rx="2.5" ry="2.5" style="stroke:#181818;stroke-width:0.5;" width="139" x="692.5" y="7"/><ellipse cx="718.75" cy="23" fill="#ADD1B2" rx="11" ry="11" style="stroke:#181818;stroke-width:1.0;"/><path d="M720.75,19.5 Q720.9531,19 721.1875,18.75 Q721.4219,18.5 721.6875,18.5 Q722.1563,18.5 722.4531,18.7813 Q722.75,19.0625 722.75,19.7188 L722.75,21.2813 Q722.75,21.9375 722.4688,22.2188 Q722.1875,22.5 721.75,22.5 Q721.3594,22.5 721.1094,22.3281 Q720.8594,22.1563 720.75,21.7031 Q720.7031,21.3906 720.5313,21.2188 Q720.2188,20.8906 719.6563,20.7031 Q719.0938,20.5 718.5313,20.5 Q717.8281,20.5 717.2344,20.7813 Q716.6563,21.0625 716.2031,21.6875 Q715.75,22.3125 715.75,23.1719 L715.75,24.0938 Q715.75,25.125 716.5938,25.8125 Q717.4375,26.5 718.9375,26.5 Q719.8281,26.5 720.4531,26.2969 Q720.8125,26.1875 721.2188,25.8281 Q721.4844,25.625 721.625,25.5625 Q721.7656,25.5 721.9375,25.5 Q722.2656,25.5 722.5,25.7656 Q722.75,26.0156 722.75,26.375 Q722.75,26.7188 722.4063,27.125 Q721.9063,27.7188 721.1094,28.0469 Q720.0625,28.5 718.7813,28.5 Q717.2813,28.5 716.0781,27.9063 Q715.1094,27.4375 714.4219,26.4219 Q713.75,25.4063 713.75,24.2031 L713.75,23.1094 Q713.75,21.8594 714.3438,20.7656 Q714.9531,19.6719 716,19.0938 Q717.0625,18.5 718.25,18.5 Q718.9688,18.5 719.5938,18.75 Q720.2188,19 720.75,19.5 Z " fill="#000000"/><text fill="#000000" font-family="sans-serif" font-size="14" lengthAdjust="spacing" textLength="82" x="735.25" y="28.7285">VaccineType</text><line style="stroke:#181818;stroke-width:0.5;" x1="693.5" x2="830.5" y1="39" y2="39"/><text fill="#000000" font-family="sans-serif" font-size="14" lengthAdjust="spacing" textLength="74" x="698.5" y="57.5332">-description</text><text fill="#000000" font-family="sans-serif" font-size="14" lengthAdjust="spacing" textLength="36" x="698.5" y="75.1426">-code</text><text fill="#000000" font-family="sans-serif" font-size="14" lengthAdjust="spacing" textLength="127" x="698.5" y="92.752">-vaccineTechnology</text></g><!--MD5=[9b956c59b16436292d60adff39fe4d1c]
class ApplicationUser--><g id="elem_ApplicationUser"><rect codeLine="33" fill="#F1F1F1" height="110.4375" id="ApplicationUser" rx="2.5" ry="2.5" style="stroke:#181818;stroke-width:0.5;" width="130" x="7" y="75.5"/><ellipse cx="22" cy="91.5" fill="#ADD1B2" rx="11" ry="11" style="stroke:#181818;stroke-width:1.0;"/><path d="M24,88 Q24.2031,87.5 24.4375,87.25 Q24.6719,87 24.9375,87 Q25.4063,87 25.7031,87.2813 Q26,87.5625 26,88.2188 L26,89.7813 Q26,90.4375 25.7188,90.7188 Q25.4375,91 25,91 Q24.6094,91 24.3594,90.8281 Q24.1094,90.6563 24,90.2031 Q23.9531,89.8906 23.7813,89.7188 Q23.4688,89.3906 22.9063,89.2031 Q22.3438,89 21.7813,89 Q21.0781,89 20.4844,89.2813 Q19.9063,89.5625 19.4531,90.1875 Q19,90.8125 19,91.6719 L19,92.5938 Q19,93.625 19.8438,94.3125 Q20.6875,95 22.1875,95 Q23.0781,95 23.7031,94.7969 Q24.0625,94.6875 24.4688,94.3281 Q24.7344,94.125 24.875,94.0625 Q25.0156,94 25.1875,94 Q25.5156,94 25.75,94.2656 Q26,94.5156 26,94.875 Q26,95.2188 25.6563,95.625 Q25.1563,96.2188 24.3594,96.5469 Q23.3125,97 22.0313,97 Q20.5313,97 19.3281,96.4063 Q18.3594,95.9375 17.6719,94.9219 Q17,93.9063 17,92.7031 L17,91.6094 Q17,90.3594 17.5938,89.2656 Q18.2031,88.1719 19.25,87.5938 Q20.3125,87 21.5,87 Q22.2188,87 22.8438,87.25 Q23.4688,87.5 24,88 Z " fill="#000000"/><text fill="#000000" font-family="sans-serif" font-size="14" lengthAdjust="spacing" textLength="98" x="36" y="97.2285">ApplicationUser</text><line style="stroke:#181818;stroke-width:0.5;" x1="8" x2="136" y1="107.5" y2="107.5"/><text fill="#000000" font-family="sans-serif" font-size="14" lengthAdjust="spacing" textLength="40" x="13" y="126.0332">-name</text><text fill="#000000" font-family="sans-serif" font-size="14" lengthAdjust="spacing" textLength="38" x="13" y="143.6426">-email</text><text fill="#000000" font-family="sans-serif" font-size="14" lengthAdjust="spacing" textLength="65" x="13" y="161.252">-password</text><text fill="#000000" font-family="sans-serif" font-size="14" lengthAdjust="spacing" textLength="29" x="13" y="178.8613">-role</text></g><!--MD5=[0e439f75a3d966f965fe5f237a1bacbe]
link Administrator to Vaccine--><g id="link_Administrator_Vaccine"><path codeLine="40" d="M313.12,130.5 C359.7,130.5 424.57,130.5 465.92,130.5 " fill="none" id="Administrator-Vaccine" style="stroke:#181818;stroke-width:1.0;"/><polygon fill="#000000" points="353,121.6758,343.9549,118.7369,343.9549,124.6147,353,121.6758" style="stroke:#000000;stroke-width:1.0;"/><text fill="#000000" font-family="sans-serif" font-size="13" lengthAdjust="spacing" textLength="78" x="357" y="126.9951">specifies new</text><text fill="#000000" font-family="sans-serif" font-size="13" lengthAdjust="spacing" textLength="7" x="320.951" y="145.0426">1</text><text fill="#000000" font-family="sans-serif" font-size="13" lengthAdjust="spacing" textLength="5" x="452.8849" y="126.5684">*</text></g><!--MD5=[25a400ed2d8aa756bd4209cb2645d428]
link Administrator to AdministrationProcess--><g id="link_Administrator_AdministrationProcess"><path codeLine="41" d="M294.97,150.61 C336.03,170.86 403.63,200.73 466,212.5 C530.42,224.66 604.17,223.91 661.82,220.12 " fill="none" id="Administrator-AdministrationProcess" style="stroke:#181818;stroke-width:1.0;"/><polygon fill="#000000" points="483.9126,204.6066,475.5728,200.0352,474.4785,205.8103,483.9126,204.6066" style="stroke:#000000;stroke-width:1.0;"/><text fill="#000000" font-family="sans-serif" font-size="13" lengthAdjust="spacing" textLength="51" x="488" y="208.9951">specifies</text><text fill="#000000" font-family="sans-serif" font-size="13" lengthAdjust="spacing" textLength="7" x="298.0866" y="172.0605">1</text><text fill="#000000" font-family="sans-serif" font-size="13" lengthAdjust="spacing" textLength="5" x="648.9586" y="235.0374">*</text></g><!--MD5=[d0b477519989ed3601cd00d052224350]
link Administrator to VaccineType--><g id="link_Administrator_VaccineType"><path codeLine="42" d="M308.99,110.42 C350.83,95.4 411.28,75.91 466,66.5 C542.67,53.32 632.1,51.2 692.22,51.65 " fill="none" id="Administrator-VaccineType" style="stroke:#181818;stroke-width:1.0;"/><polygon fill="#000000" points="483.9422,47.9179,474.5562,46.384,475.4471,52.1939,483.9422,47.9179" style="stroke:#000000;stroke-width:1.0;"/><text fill="#000000" font-family="sans-serif" font-size="13" lengthAdjust="spacing" textLength="51" x="488" y="53.9951">specifies</text><text fill="#000000" font-family="sans-serif" font-size="13" lengthAdjust="spacing" textLength="7" x="316.6746" y="99.7183">1</text><text fill="#000000" font-family="sans-serif" font-size="13" lengthAdjust="spacing" textLength="5" x="679.3144" y="65.8464">*</text></g><!--MD5=[a98252b7739f22b1ddec3651c1c3aaea]
link Vaccine to AdministrationProcess--><g id="link_Vaccine_AdministrationProcess"><path codeLine="44" d="M548.09,143.02 C578.67,152.57 622.16,166.15 661.88,178.55 " fill="none" id="Vaccine-AdministrationProcess" style="stroke:#181818;stroke-width:1.0;"/><polygon fill="#000000" points="587.7728,146.166,580.0147,140.6648,578.2628,146.2755,587.7728,146.166" style="stroke:#000000;stroke-width:1.0;"/><text fill="#000000" font-family="sans-serif" font-size="13" lengthAdjust="spacing" textLength="39" x="592" y="149.9951">has an</text><text fill="#000000" font-family="sans-serif" font-size="13" lengthAdjust="spacing" textLength="7" x="556.0326" y="160.2169">1</text><text fill="#000000" font-family="sans-serif" font-size="13" lengthAdjust="spacing" textLength="7" x="646.9466" y="190.2847">1</text></g><!--MD5=[3568623adf67b2630dce9e60c05bd02a]
link Vaccine to VaccineType--><g id="link_Vaccine_VaccineType"><path codeLine="45" d="M548.09,118.3 C586.68,106.55 645.84,88.55 692.01,74.5 " fill="none" id="Vaccine-VaccineType" style="stroke:#181818;stroke-width:1.0;"/><polygon fill="#000000" points="587.7834,84.22,578.2745,84.0419,579.9858,89.6651,587.7834,84.22" style="stroke:#000000;stroke-width:1.0;"/><text fill="#000000" font-family="sans-serif" font-size="13" lengthAdjust="spacing" textLength="39" x="592" y="90.9951">has an</text><text fill="#000000" font-family="sans-serif" font-size="13" lengthAdjust="spacing" textLength="7" x="556.0326" y="131.0936">1</text><text fill="#000000" font-family="sans-serif" font-size="13" lengthAdjust="spacing" textLength="7" x="677.4313" y="91.0127">1</text></g><!--MD5=[66b8b66cc0d48364d094f14c216c75e8]
reverse link ApplicationUser to Administrator--><g id="link_ApplicationUser_Administrator"><path codeLine="46" d="M157.65,130.5 C171.29,130.5 185.11,130.5 197.89,130.5 " fill="none" id="ApplicationUser-backto-Administrator" style="stroke:#181818;stroke-width:1.0;"/><polygon fill="none" points="157.25,137.5,137.25,130.5,157.25,123.5,157.25,137.5" style="stroke:#181818;stroke-width:1.0;"/></g><!--MD5=[c29c8d42883934cbaf5793c72a334947]
link Company to Vaccine--><g id="link_Company_Vaccine"><path codeLine="48" d="M118.11,256.81 C202.91,229.2 384.82,169.96 465.75,143.61 " fill="none" id="Company-Vaccine" style="stroke:#181818;stroke-width:1.0;"/><polygon fill="#000000" points="232.7543,182.1277,223.2437,182.1337,225.0637,187.7227,232.7543,182.1277" style="stroke:#000000;stroke-width:1.0;"/><text fill="#000000" font-family="sans-serif" font-size="13" lengthAdjust="spacing" textLength="50" x="237" y="188.9951">storages</text><text fill="#000000" font-family="sans-serif" font-size="13" lengthAdjust="spacing" textLength="7" x="126.0166" y="269.2669">1</text><text fill="#000000" font-family="sans-serif" font-size="13" lengthAdjust="spacing" textLength="5" x="452.957" y="160.912">*</text></g><!--MD5=[243b1337dafdc588206571bea48cb7b7]
@startuml

hide methods
left to right direction
skinparam classAttributeIconSize 0


class Administrator {

}

class Company{}

class Vaccine{
    -name
    -id
    -brand
}

class AdministrationProcess {
    -ageLimits
    -numberOfDoses
    -vaccineDosage
    -timeIntervalBetweenVaccines

}

class VaccineType{
-description
-code
-vaccineTechnology
}

class ApplicationUser {
    -name
    -email
    -password
    -role
}

Administrator "1" - - "*" Vaccine: specifies new >
Administrator "1" - - "*" AdministrationProcess: specifies  >
Administrator "1" - - "*" VaccineType: specifies  >

Vaccine "1" - - "1" AdministrationProcess: has an >
Vaccine "1" - - "1" VaccineType: has an >
ApplicationUser  <|- - Administrator

Company "1" - - - "*" Vaccine : storages >

@enduml

PlantUML version 1.2022.4(Sat Apr 09 14:29:17 BST 2022)
(GPL source distribution)
Java Runtime: OpenJDK Runtime Environment
JVM: OpenJDK 64-Bit Server VM
Default Encoding: Cp1252
Language: en
Country: US
--></g></svg>