<?xml version="1.0" encoding="UTF-8" standalone="no"?><svg xmlns="http://www.w3.org/2000/svg" xmlns:xlink="http://www.w3.org/1999/xlink" contentStyleType="text/css" height="1257px" preserveAspectRatio="none" style="width:2270px;height:1257px;background:#FFFFFF;" version="1.1" viewBox="0 0 2270 1257" width="2270px" zoomAndPan="magnify"><defs/><g><rect fill="#FFFFFF" height="1065.1953" style="stroke:#181818;stroke-width:1.0;" width="10" x="59.5" y="92.6094"/><rect fill="#FFFFFF" height="30.3516" style="stroke:#181818;stroke-width:1.0;" width="10" x="426.5" y="114.9609"/><rect fill="#FFFFFF" height="30.3516" style="stroke:#181818;stroke-width:1.0;" width="10" x="426.5" y="175.6641"/><rect fill="#FFFFFF" height="72.0547" style="stroke:#181818;stroke-width:1.0;" width="10" x="426.5" y="236.3672"/><rect fill="#FFFFFF" height="472.8672" style="stroke:#181818;stroke-width:1.0;" width="10" x="426.5" y="338.7734"/><rect fill="#FFFFFF" height="315.8125" style="stroke:#181818;stroke-width:1.0;" width="10" x="426.5" y="841.9922"/><rect fill="#FFFFFF" height="405.1641" style="stroke:#181818;stroke-width:1.0;" width="10" x="866.5" y="376.125"/><rect fill="#FFFFFF" height="294.4609" style="stroke:#181818;stroke-width:1.0;" width="10" x="866.5" y="872.3438"/><rect fill="#FFFFFF" height="374.8125" style="stroke:#181818;stroke-width:1.0;" width="10" x="1306.5" y="406.4766"/><rect fill="#FFFFFF" height="264.1094" style="stroke:#181818;stroke-width:1.0;" width="10" x="1306.5" y="902.6953"/><rect fill="#FFFFFF" height="30" style="stroke:#181818;stroke-width:1.0;" width="10" x="1887.5" y="436.8281"/><rect fill="#FFFFFF" height="30" style="stroke:#181818;stroke-width:1.0;" width="10" x="1887.5" y="533.5313"/><rect fill="#FFFFFF" height="30" style="stroke:#181818;stroke-width:1.0;" width="10" x="1887.5" y="933.0469"/><rect fill="#FFFFFF" height="30" style="stroke:#181818;stroke-width:1.0;" width="10" x="2010.5" y="593.8828"/><rect fill="#FFFFFF" height="30" style="stroke:#181818;stroke-width:1.0;" width="10" x="2010.5" y="690.5859"/><rect fill="#FFFFFF" height="30" style="stroke:#181818;stroke-width:1.0;" width="10" x="2010.5" y="993.3984"/><rect height="95.4063" style="stroke:#000000;stroke-width:1.5;fill:none;" width="671.5" x="10" y="251.3672"/><line style="stroke:#181818;stroke-width:0.5;fill:none;stroke-dasharray:5.0,5.0;" x1="64" x2="64" y1="82.6094" y2="1175.8047"/><line style="stroke:#181818;stroke-width:0.5;fill:none;stroke-dasharray:5.0,5.0;" x1="431" x2="431" y1="82.6094" y2="1175.8047"/><line style="stroke:#181818;stroke-width:0.5;fill:none;stroke-dasharray:5.0,5.0;" x1="871" x2="871" y1="82.6094" y2="1175.8047"/><line style="stroke:#181818;stroke-width:0.5;fill:none;stroke-dasharray:5.0,5.0;" x1="1311.5" x2="1311.5" y1="82.6094" y2="1175.8047"/><line style="stroke:#181818;stroke-width:0.5;fill:none;stroke-dasharray:5.0,5.0;" x1="1892.5" x2="1892.5" y1="82.6094" y2="1175.8047"/><line style="stroke:#181818;stroke-width:0.5;fill:none;stroke-dasharray:5.0,5.0;" x1="2015.5" x2="2015.5" y1="82.6094" y2="1175.8047"/><line style="stroke:#181818;stroke-width:0.5;fill:none;stroke-dasharray:5.0,5.0;" x1="2161.5" x2="2161.5" y1="82.6094" y2="1175.8047"/><text fill="#000000" font-family="sans-serif" font-size="14" lengthAdjust="spacing" textLength="83" x="20" y="79.5332">Administrator</text><ellipse cx="64.5" cy="13.5" fill="#E2E2F0" rx="8" ry="8" style="stroke:#181818;stroke-width:0.5;"/><path d="M64.5,21.5 L64.5,48.5 M51.5,29.5 L77.5,29.5 M64.5,48.5 L51.5,63.5 M64.5,48.5 L77.5,63.5 " fill="none" style="stroke:#181818;stroke-width:0.5;"/><text fill="#000000" font-family="sans-serif" font-size="14" lengthAdjust="spacing" textLength="83" x="20" y="1189.3379">Administrator</text><ellipse cx="64.5" cy="1200.9141" fill="#E2E2F0" rx="8" ry="8" style="stroke:#181818;stroke-width:0.5;"/><path d="M64.5,1208.9141 L64.5,1235.9141 M51.5,1216.9141 L77.5,1216.9141 M64.5,1235.9141 L51.5,1250.9141 M64.5,1235.9141 L77.5,1250.9141 " fill="none" style="stroke:#181818;stroke-width:0.5;"/><rect fill="#E2E2F0" height="31.6094" rx="2.5" ry="2.5" style="stroke:#181818;stroke-width:0.5;" width="241" x="311" y="50"/><text fill="#000000" font-family="sans-serif" font-size="14" lengthAdjust="spacing" textLength="227" x="318" y="71.5332">:SpecifyVaccineAndAdminProcessUI</text><rect fill="#E2E2F0" height="31.6094" rx="2.5" ry="2.5" style="stroke:#181818;stroke-width:0.5;" width="241" x="311" y="1174.8047"/><text fill="#000000" font-family="sans-serif" font-size="14" lengthAdjust="spacing" textLength="227" x="318" y="1196.3379">:SpecifyVaccineAndAdminProcessUI</text><rect fill="#E2E2F0" height="31.6094" rx="2.5" ry="2.5" style="stroke:#181818;stroke-width:0.5;" width="291" x="726" y="50"/><text fill="#000000" font-family="sans-serif" font-size="14" lengthAdjust="spacing" textLength="277" x="733" y="71.5332">:SpecifyVaccineAndAdminProcessController</text><rect fill="#E2E2F0" height="31.6094" rx="2.5" ry="2.5" style="stroke:#181818;stroke-width:0.5;" width="291" x="726" y="1174.8047"/><text fill="#000000" font-family="sans-serif" font-size="14" lengthAdjust="spacing" textLength="277" x="733" y="1196.3379">:SpecifyVaccineAndAdminProcessController</text><rect fill="#E2E2F0" height="49.2188" rx="2.5" ry="2.5" style="stroke:#181818;stroke-width:0.5;" width="78" x="1272.5" y="32.3906"/><text fill="#000000" font-family="sans-serif" font-size="14" lengthAdjust="spacing" textLength="57" x="1283" y="53.9238">company</text><text fill="#000000" font-family="sans-serif" font-size="14" lengthAdjust="spacing" textLength="64" x="1279.5" y="71.5332">:Company</text><rect fill="#E2E2F0" height="49.2188" rx="2.5" ry="2.5" style="stroke:#181818;stroke-width:0.5;" width="78" x="1272.5" y="1174.8047"/><text fill="#000000" font-family="sans-serif" font-size="14" lengthAdjust="spacing" textLength="57" x="1283" y="1196.3379">company</text><text fill="#000000" font-family="sans-serif" font-size="14" lengthAdjust="spacing" textLength="64" x="1279.5" y="1213.9473">:Company</text><rect fill="#E2E2F0" height="49.2188" rx="2.5" ry="2.5" style="stroke:#181818;stroke-width:0.5;" width="158" x="1813.5" y="32.3906"/><text fill="#000000" font-family="sans-serif" font-size="14" lengthAdjust="spacing" textLength="139" x="1823" y="53.9238">administrationProcess</text><text fill="#000000" font-family="sans-serif" font-size="14" lengthAdjust="spacing" textLength="144" x="1820.5" y="71.5332">:AdministrationProcess</text><rect fill="#E2E2F0" height="49.2188" rx="2.5" ry="2.5" style="stroke:#181818;stroke-width:0.5;" width="158" x="1813.5" y="1174.8047"/><text fill="#000000" font-family="sans-serif" font-size="14" lengthAdjust="spacing" textLength="139" x="1823" y="1196.3379">administrationProcess</text><text fill="#000000" font-family="sans-serif" font-size="14" lengthAdjust="spacing" textLength="144" x="1820.5" y="1213.9473">:AdministrationProcess</text><rect fill="#E2E2F0" height="49.2188" rx="2.5" ry="2.5" style="stroke:#181818;stroke-width:0.5;" width="68" x="1981.5" y="32.3906"/><text fill="#000000" font-family="sans-serif" font-size="14" lengthAdjust="spacing" textLength="48" x="1991.5" y="53.9238">vaccine</text><text fill="#000000" font-family="sans-serif" font-size="14" lengthAdjust="spacing" textLength="54" x="1988.5" y="71.5332">:Vaccine</text><rect fill="#E2E2F0" height="49.2188" rx="2.5" ry="2.5" style="stroke:#181818;stroke-width:0.5;" width="68" x="1981.5" y="1174.8047"/><text fill="#000000" font-family="sans-serif" font-size="14" lengthAdjust="spacing" textLength="48" x="1991.5" y="1196.3379">vaccine</text><text fill="#000000" font-family="sans-serif" font-size="14" lengthAdjust="spacing" textLength="54" x="1988.5" y="1213.9473">:Vaccine</text><rect fill="#E2E2F0" height="49.2188" rx="2.5" ry="2.5" style="stroke:#181818;stroke-width:0.5;" width="205" x="2059.5" y="32.3906"/><text fill="#000000" font-family="sans-serif" font-size="14" lengthAdjust="spacing" textLength="185" x="2069.5" y="53.9238">vaccineAndAdminProcessDto</text><text fill="#000000" font-family="sans-serif" font-size="14" lengthAdjust="spacing" textLength="191" x="2066.5" y="71.5332">:VaccineAndAdminProcessDto</text><rect fill="#E2E2F0" height="49.2188" rx="2.5" ry="2.5" style="stroke:#181818;stroke-width:0.5;" width="205" x="2059.5" y="1174.8047"/><text fill="#000000" font-family="sans-serif" font-size="14" lengthAdjust="spacing" textLength="185" x="2069.5" y="1196.3379">vaccineAndAdminProcessDto</text><text fill="#000000" font-family="sans-serif" font-size="14" lengthAdjust="spacing" textLength="191" x="2066.5" y="1213.9473">:VaccineAndAdminProcessDto</text><rect fill="#FFFFFF" height="1065.1953" style="stroke:#181818;stroke-width:1.0;" width="10" x="59.5" y="92.6094"/><rect fill="#FFFFFF" height="30.3516" style="stroke:#181818;stroke-width:1.0;" width="10" x="426.5" y="114.9609"/><rect fill="#FFFFFF" height="30.3516" style="stroke:#181818;stroke-width:1.0;" width="10" x="426.5" y="175.6641"/><rect fill="#FFFFFF" height="72.0547" style="stroke:#181818;stroke-width:1.0;" width="10" x="426.5" y="236.3672"/><rect fill="#FFFFFF" height="472.8672" style="stroke:#181818;stroke-width:1.0;" width="10" x="426.5" y="338.7734"/><rect fill="#FFFFFF" height="315.8125" style="stroke:#181818;stroke-width:1.0;" width="10" x="426.5" y="841.9922"/><rect fill="#FFFFFF" height="405.1641" style="stroke:#181818;stroke-width:1.0;" width="10" x="866.5" y="376.125"/><rect fill="#FFFFFF" height="294.4609" style="stroke:#181818;stroke-width:1.0;" width="10" x="866.5" y="872.3438"/><rect fill="#FFFFFF" height="374.8125" style="stroke:#181818;stroke-width:1.0;" width="10" x="1306.5" y="406.4766"/><rect fill="#FFFFFF" height="264.1094" style="stroke:#181818;stroke-width:1.0;" width="10" x="1306.5" y="902.6953"/><rect fill="#FFFFFF" height="30" style="stroke:#181818;stroke-width:1.0;" width="10" x="1887.5" y="436.8281"/><rect fill="#FFFFFF" height="30" style="stroke:#181818;stroke-width:1.0;" width="10" x="1887.5" y="533.5313"/><rect fill="#FFFFFF" height="30" style="stroke:#181818;stroke-width:1.0;" width="10" x="1887.5" y="933.0469"/><rect fill="#FFFFFF" height="30" style="stroke:#181818;stroke-width:1.0;" width="10" x="2010.5" y="593.8828"/><rect fill="#FFFFFF" height="30" style="stroke:#181818;stroke-width:1.0;" width="10" x="2010.5" y="690.5859"/><rect fill="#FFFFFF" height="30" style="stroke:#181818;stroke-width:1.0;" width="10" x="2010.5" y="993.3984"/><polygon fill="#181818" points="414.5,110.9609,424.5,114.9609,414.5,118.9609,418.5,114.9609" style="stroke:#181818;stroke-width:1.0;"/><line style="stroke:#181818;stroke-width:1.0;" x1="69.5" x2="420.5" y1="114.9609" y2="114.9609"/><text fill="#000000" font-family="sans-serif" font-size="13" font-weight="bold" lengthAdjust="spacing" textLength="7" x="76.5" y="110.1045">1</text><text fill="#000000" font-family="sans-serif" font-size="13" lengthAdjust="spacing" textLength="327" x="87.5" y="110.1045">asks to specify a new vac and its administration process</text><polygon fill="#181818" points="80.5,141.3125,70.5,145.3125,80.5,149.3125,76.5,145.3125" style="stroke:#181818;stroke-width:1.0;"/><line style="stroke:#181818;stroke-width:1.0;" x1="74.5" x2="430.5" y1="145.3125" y2="145.3125"/><text fill="#000000" font-family="sans-serif" font-size="13" font-weight="bold" lengthAdjust="spacing" textLength="7" x="86.5" y="140.4561">2</text><text fill="#000000" font-family="sans-serif" font-size="13" lengthAdjust="spacing" textLength="278" x="97.5" y="140.4561">shows a list with all the Vaccine Types available</text><polygon fill="#181818" points="414.5,171.6641,424.5,175.6641,414.5,179.6641,418.5,175.6641" style="stroke:#181818;stroke-width:1.0;"/><line style="stroke:#181818;stroke-width:1.0;" x1="69.5" x2="420.5" y1="175.6641" y2="175.6641"/><text fill="#000000" font-family="sans-serif" font-size="13" font-weight="bold" lengthAdjust="spacing" textLength="7" x="76.5" y="170.8076">3</text><text fill="#000000" font-family="sans-serif" font-size="13" lengthAdjust="spacing" textLength="150" x="87.5" y="170.8076">selects one Vaccine Type</text><polygon fill="#181818" points="80.5,202.0156,70.5,206.0156,80.5,210.0156,76.5,206.0156" style="stroke:#181818;stroke-width:1.0;"/><line style="stroke:#181818;stroke-width:1.0;stroke-dasharray:2.0,2.0;" x1="74.5" x2="430.5" y1="206.0156" y2="206.0156"/><text fill="#000000" font-family="sans-serif" font-size="13" font-weight="bold" lengthAdjust="spacing" textLength="7" x="86.5" y="201.1592">4</text><text fill="#000000" font-family="sans-serif" font-size="13" lengthAdjust="spacing" textLength="260" x="97.5" y="201.1592">requests data (id, name, brand, vaccineType)</text><polygon fill="#181818" points="414.5,232.3672,424.5,236.3672,414.5,240.3672,418.5,236.3672" style="stroke:#181818;stroke-width:1.0;"/><line style="stroke:#181818;stroke-width:1.0;" x1="69.5" x2="420.5" y1="236.3672" y2="236.3672"/><text fill="#000000" font-family="sans-serif" font-size="13" font-weight="bold" lengthAdjust="spacing" textLength="7" x="76.5" y="231.5107">5</text><text fill="#000000" font-family="sans-serif" font-size="13" lengthAdjust="spacing" textLength="125" x="87.5" y="231.5107">inputs requested data</text><path d="M10,251.3672 L83,251.3672 L83,259.7188 L73,269.7188 L10,269.7188 L10,251.3672 " fill="#EEEEEE" style="stroke:#000000;stroke-width:1.5;"/><rect fill="none" height="95.4063" style="stroke:#000000;stroke-width:1.5;" width="671.5" x="10" y="251.3672"/><text fill="#000000" font-family="sans-serif" font-size="13" font-weight="bold" lengthAdjust="spacing" textLength="28" x="25" y="265.8623">loop</text><text fill="#000000" font-family="sans-serif" font-size="11" font-weight="bold" lengthAdjust="spacing" textLength="144" x="98" y="264.7861">[while adding age groups]</text><polygon fill="#181818" points="80.5,304.4219,70.5,308.4219,80.5,312.4219,76.5,308.4219" style="stroke:#181818;stroke-width:1.0;"/><line style="stroke:#181818;stroke-width:1.0;stroke-dasharray:2.0,2.0;" x1="74.5" x2="430.5" y1="308.4219" y2="308.4219"/><text fill="#000000" font-family="sans-serif" font-size="13" font-weight="bold" lengthAdjust="spacing" textLength="7" x="86.5" y="295.3896">6</text><text fill="#000000" font-family="sans-serif" font-size="13" lengthAdjust="spacing" textLength="251" x="97.5" y="287.2139">requests data (age limits, number of doses,</text><text fill="#000000" font-family="sans-serif" font-size="13" lengthAdjust="spacing" textLength="256" x="101.5" y="303.5654">vac dosage, time interval between vaccines )</text><path d="M441,279.8945 L441,305.8945 L666,305.8945 L666,289.8945 L656,279.8945 L441,279.8945 " fill="#FEFFDD" style="stroke:#181818;stroke-width:0.5;"/><path d="M656,279.8945 L656,289.8945 L666,289.8945 L656,279.8945 " fill="#FEFFDD" style="stroke:#181818;stroke-width:0.5;"/><text fill="#000000" font-family="sans-serif" font-size="13" lengthAdjust="spacing" textLength="204" x="447" y="298.3896">data for the Administration Process</text><polygon fill="#181818" points="414.5,334.7734,424.5,338.7734,414.5,342.7734,418.5,338.7734" style="stroke:#181818;stroke-width:1.0;"/><line style="stroke:#181818;stroke-width:1.0;" x1="69.5" x2="420.5" y1="338.7734" y2="338.7734"/><text fill="#000000" font-family="sans-serif" font-size="13" font-weight="bold" lengthAdjust="spacing" textLength="7" x="76.5" y="333.917">7</text><text fill="#000000" font-family="sans-serif" font-size="13" lengthAdjust="spacing" textLength="122" x="87.5" y="333.917">types requested data</text><polygon fill="#181818" points="854.5,372.125,864.5,376.125,854.5,380.125,858.5,376.125" style="stroke:#181818;stroke-width:1.0;"/><line style="stroke:#181818;stroke-width:1.0;" x1="436.5" x2="860.5" y1="376.125" y2="376.125"/><text fill="#000000" font-family="sans-serif" font-size="13" font-weight="bold" lengthAdjust="spacing" textLength="7" x="443.5" y="371.2686">8</text><text fill="#000000" font-family="sans-serif" font-size="13" lengthAdjust="spacing" textLength="400" x="454.5" y="371.2686">specifyNewVaccineAndAdminProcess(vaccineAndAdminProcessDto)</text><polygon fill="#181818" points="1294.5,402.4766,1304.5,406.4766,1294.5,410.4766,1298.5,406.4766" style="stroke:#181818;stroke-width:1.0;"/><line style="stroke:#181818;stroke-width:1.0;" x1="876.5" x2="1300.5" y1="406.4766" y2="406.4766"/><text fill="#000000" font-family="sans-serif" font-size="13" font-weight="bold" lengthAdjust="spacing" textLength="7" x="883.5" y="401.6201">9</text><text fill="#000000" font-family="sans-serif" font-size="13" lengthAdjust="spacing" textLength="400" x="894.5" y="401.6201">specifyNewVaccineAndAdminProcess(vaccineAndAdminProcessDto)</text><polygon fill="#181818" points="1875.5,432.8281,1885.5,436.8281,1875.5,440.8281,1879.5,436.8281" style="stroke:#181818;stroke-width:1.0;"/><line style="stroke:#181818;stroke-width:1.0;" x1="1316.5" x2="1881.5" y1="436.8281" y2="436.8281"/><text fill="#000000" font-family="sans-serif" font-size="13" font-weight="bold" lengthAdjust="spacing" textLength="14" x="1323.5" y="431.9717">10</text><text fill="#000000" font-family="sans-serif" font-size="13" lengthAdjust="spacing" textLength="534" x="1341.5" y="431.9717">adminProcess = create(ageGroups, numberOfDoses, dosage, timeIntervalBetweenVaccines)</text><path d="M1243,479.8281 L1243,505.8281 L2230,505.8281 L2230,489.8281 L2220,479.8281 L1243,479.8281 " fill="#FEFFDD" style="stroke:#181818;stroke-width:0.5;"/><path d="M2220,479.8281 L2220,489.8281 L2230,489.8281 L2220,479.8281 " fill="#FEFFDD" style="stroke:#181818;stroke-width:0.5;"/><text fill="#000000" font-family="sans-serif" font-size="13" lengthAdjust="spacing" textLength="264" x="1600" y="498.3232">Several interactions to extract data from DTO.</text><polygon fill="#181818" points="1875.5,529.5313,1885.5,533.5313,1875.5,537.5313,1879.5,533.5313" style="stroke:#181818;stroke-width:1.0;"/><line style="stroke:#181818;stroke-width:1.0;" x1="1316.5" x2="1881.5" y1="533.5313" y2="533.5313"/><text fill="#000000" font-family="sans-serif" font-size="13" font-weight="bold" lengthAdjust="spacing" textLength="14" x="1323.5" y="528.6748">11</text><text fill="#000000" font-family="sans-serif" font-size="13" lengthAdjust="spacing" textLength="265" x="1341.5" y="528.6748">validateAdministrationProcess(adminProcess)</text><polygon fill="#181818" points="1998.5,589.8828,2008.5,593.8828,1998.5,597.8828,2002.5,593.8828" style="stroke:#181818;stroke-width:1.0;"/><line style="stroke:#181818;stroke-width:1.0;" x1="1316.5" x2="2004.5" y1="593.8828" y2="593.8828"/><text fill="#000000" font-family="sans-serif" font-size="13" font-weight="bold" lengthAdjust="spacing" textLength="14" x="1323.5" y="589.0264">12</text><text fill="#000000" font-family="sans-serif" font-size="13" lengthAdjust="spacing" textLength="339" x="1341.5" y="589.0264">vac = create(name, id, brand, adminProcess, vaccineType)</text><path d="M1243,636.8828 L1243,662.8828 L2230,662.8828 L2230,646.8828 L2220,636.8828 L1243,636.8828 " fill="#FEFFDD" style="stroke:#181818;stroke-width:0.5;"/><path d="M2220,636.8828 L2220,646.8828 L2230,646.8828 L2220,636.8828 " fill="#FEFFDD" style="stroke:#181818;stroke-width:0.5;"/><text fill="#000000" font-family="sans-serif" font-size="13" lengthAdjust="spacing" textLength="264" x="1600" y="655.3779">Several interactions to extract data from DTO.</text><polygon fill="#181818" points="1998.5,686.5859,2008.5,690.5859,1998.5,694.5859,2002.5,690.5859" style="stroke:#181818;stroke-width:1.0;"/><line style="stroke:#181818;stroke-width:1.0;" x1="1316.5" x2="2004.5" y1="690.5859" y2="690.5859"/><text fill="#000000" font-family="sans-serif" font-size="13" font-weight="bold" lengthAdjust="spacing" textLength="14" x="1323.5" y="685.7295">13</text><text fill="#000000" font-family="sans-serif" font-size="13" lengthAdjust="spacing" textLength="117" x="1341.5" y="685.7295">validateVaccine(vac)</text><polygon fill="#181818" points="887.5,746.9375,877.5,750.9375,887.5,754.9375,883.5,750.9375" style="stroke:#181818;stroke-width:1.0;"/><line style="stroke:#181818;stroke-width:1.0;stroke-dasharray:2.0,2.0;" x1="881.5" x2="1305.5" y1="750.9375" y2="750.9375"/><text fill="#000000" font-family="sans-serif" font-size="13" font-weight="bold" lengthAdjust="spacing" textLength="14" x="893.5" y="746.0811">14</text><text fill="#000000" font-family="sans-serif" font-size="13" lengthAdjust="spacing" textLength="32" x="911.5" y="746.0811">result</text><polygon fill="#181818" points="447.5,777.2891,437.5,781.2891,447.5,785.2891,443.5,781.2891" style="stroke:#181818;stroke-width:1.0;"/><line style="stroke:#181818;stroke-width:1.0;stroke-dasharray:2.0,2.0;" x1="441.5" x2="870.5" y1="781.2891" y2="781.2891"/><text fill="#000000" font-family="sans-serif" font-size="13" font-weight="bold" lengthAdjust="spacing" textLength="14" x="453.5" y="776.4326">15</text><text fill="#000000" font-family="sans-serif" font-size="13" lengthAdjust="spacing" textLength="32" x="471.5" y="776.4326">result</text><polygon fill="#181818" points="80.5,807.6406,70.5,811.6406,80.5,815.6406,76.5,811.6406" style="stroke:#181818;stroke-width:1.0;"/><line style="stroke:#181818;stroke-width:1.0;stroke-dasharray:2.0,2.0;" x1="74.5" x2="430.5" y1="811.6406" y2="811.6406"/><text fill="#000000" font-family="sans-serif" font-size="13" font-weight="bold" lengthAdjust="spacing" textLength="14" x="86.5" y="806.7842">16</text><text fill="#000000" font-family="sans-serif" font-size="13" lengthAdjust="spacing" textLength="241" x="104.5" y="806.7842">shows the data and requests confirmation</text><polygon fill="#181818" points="414.5,837.9922,424.5,841.9922,414.5,845.9922,418.5,841.9922" style="stroke:#181818;stroke-width:1.0;"/><line style="stroke:#181818;stroke-width:1.0;" x1="69.5" x2="420.5" y1="841.9922" y2="841.9922"/><text fill="#000000" font-family="sans-serif" font-size="13" font-weight="bold" lengthAdjust="spacing" textLength="14" x="76.5" y="837.1357">17</text><text fill="#000000" font-family="sans-serif" font-size="13" lengthAdjust="spacing" textLength="100" x="94.5" y="837.1357">confirms the data</text><polygon fill="#181818" points="854.5,868.3438,864.5,872.3438,854.5,876.3438,858.5,872.3438" style="stroke:#181818;stroke-width:1.0;"/><line style="stroke:#181818;stroke-width:1.0;stroke-dasharray:2.0,2.0;" x1="436.5" x2="860.5" y1="872.3438" y2="872.3438"/><text fill="#000000" font-family="sans-serif" font-size="13" font-weight="bold" lengthAdjust="spacing" textLength="14" x="443.5" y="867.4873">18</text><text fill="#000000" font-family="sans-serif" font-size="13" lengthAdjust="spacing" textLength="252" x="461.5" y="867.4873">saveVaccine(vaccineAndAdminProcessDto)</text><polygon fill="#181818" points="1294.5,898.6953,1304.5,902.6953,1294.5,906.6953,1298.5,902.6953" style="stroke:#181818;stroke-width:1.0;"/><line style="stroke:#181818;stroke-width:1.0;" x1="876.5" x2="1300.5" y1="902.6953" y2="902.6953"/><text fill="#000000" font-family="sans-serif" font-size="13" font-weight="bold" lengthAdjust="spacing" textLength="14" x="883.5" y="897.8389">19</text><text fill="#000000" font-family="sans-serif" font-size="13" lengthAdjust="spacing" textLength="252" x="901.5" y="897.8389">saveVaccine(vaccineAndAdminProcessDto)</text><polygon fill="#181818" points="1875.5,929.0469,1885.5,933.0469,1875.5,937.0469,1879.5,933.0469" style="stroke:#181818;stroke-width:1.0;"/><line style="stroke:#181818;stroke-width:1.0;" x1="1316.5" x2="1881.5" y1="933.0469" y2="933.0469"/><text fill="#000000" font-family="sans-serif" font-size="13" font-weight="bold" lengthAdjust="spacing" textLength="14" x="1323.5" y="928.1904">20</text><text fill="#000000" font-family="sans-serif" font-size="13" lengthAdjust="spacing" textLength="357" x="1341.5" y="928.1904">adminProcess = createAdministrationProcess(adminProcess)</text><polygon fill="#181818" points="1998.5,989.3984,2008.5,993.3984,1998.5,997.3984,2002.5,993.3984" style="stroke:#181818;stroke-width:1.0;"/><line style="stroke:#181818;stroke-width:1.0;" x1="1316.5" x2="2004.5" y1="993.3984" y2="993.3984"/><text fill="#000000" font-family="sans-serif" font-size="13" font-weight="bold" lengthAdjust="spacing" textLength="14" x="1323.5" y="988.542">21</text><text fill="#000000" font-family="sans-serif" font-size="13" lengthAdjust="spacing" textLength="339" x="1341.5" y="988.542">vac = create(name, id, brand, adminProcess, vaccineType)</text><line style="stroke:#181818;stroke-width:1.0;" x1="1316.5" x2="1358.5" y1="1053.75" y2="1053.75"/><line style="stroke:#181818;stroke-width:1.0;" x1="1358.5" x2="1358.5" y1="1053.75" y2="1066.75"/><line style="stroke:#181818;stroke-width:1.0;" x1="1317.5" x2="1358.5" y1="1066.75" y2="1066.75"/><polygon fill="#181818" points="1327.5,1062.75,1317.5,1066.75,1327.5,1070.75,1323.5,1066.75" style="stroke:#181818;stroke-width:1.0;"/><text fill="#000000" font-family="sans-serif" font-size="13" font-weight="bold" lengthAdjust="spacing" textLength="14" x="1323.5" y="1048.8936">22</text><text fill="#000000" font-family="sans-serif" font-size="13" lengthAdjust="spacing" textLength="95" x="1341.5" y="1048.8936">addVaccine(vac)</text><polygon fill="#181818" points="887.5,1093.1016,877.5,1097.1016,887.5,1101.1016,883.5,1097.1016" style="stroke:#181818;stroke-width:1.0;"/><line style="stroke:#181818;stroke-width:1.0;stroke-dasharray:2.0,2.0;" x1="881.5" x2="1305.5" y1="1097.1016" y2="1097.1016"/><text fill="#000000" font-family="sans-serif" font-size="13" font-weight="bold" lengthAdjust="spacing" textLength="14" x="893.5" y="1092.2451">23</text><text fill="#000000" font-family="sans-serif" font-size="13" lengthAdjust="spacing" textLength="32" x="911.5" y="1092.2451">result</text><polygon fill="#181818" points="447.5,1123.4531,437.5,1127.4531,447.5,1131.4531,443.5,1127.4531" style="stroke:#181818;stroke-width:1.0;"/><line style="stroke:#181818;stroke-width:1.0;stroke-dasharray:2.0,2.0;" x1="441.5" x2="865.5" y1="1127.4531" y2="1127.4531"/><text fill="#000000" font-family="sans-serif" font-size="13" font-weight="bold" lengthAdjust="spacing" textLength="14" x="453.5" y="1122.5967">24</text><text fill="#000000" font-family="sans-serif" font-size="13" lengthAdjust="spacing" textLength="32" x="471.5" y="1122.5967">result</text><polygon fill="#181818" points="75.5,1153.8047,65.5,1157.8047,75.5,1161.8047,71.5,1157.8047" style="stroke:#181818;stroke-width:1.0;"/><line style="stroke:#181818;stroke-width:1.0;stroke-dasharray:2.0,2.0;" x1="69.5" x2="430.5" y1="1157.8047" y2="1157.8047"/><text fill="#000000" font-family="sans-serif" font-size="13" font-weight="bold" lengthAdjust="spacing" textLength="14" x="81.5" y="1152.9482">25</text><text fill="#000000" font-family="sans-serif" font-size="13" lengthAdjust="spacing" textLength="152" x="99.5" y="1152.9482">informs operation success</text><!--MD5=[90b1d37fcc91b576f79133be3aa4e771]
@startuml

autonumber

actor Administrator as A

participant ":SpecifyVaccineAndAdminProcessUI" as UI
participant ":SpecifyVaccineAndAdminProcessController" as CTRL
participant "company\n:Company" as C
participant "administrationProcess\n:AdministrationProcess" as AP
participant "vaccine\n:Vaccine" as V
participant "vaccineAndAdminProcessDto\n:VaccineAndAdminProcessDto" as DTO

activate A
A -> UI :asks to specify a new vac and its administration process

activate UI
UI-> A : shows a list with all the Vaccine Types available
deactivate UI


A-> UI : selects one Vaccine Type



activate UI
UI - -> A : requests data (id, name, brand, vaccineType)
deactivate UI

A -> UI : inputs requested data

activate UI

loop while adding age groups
 UI - -> A : requests data (age limits, number of doses,\n vac dosage, time interval between vaccines )

deactivate UI
note right
data for the Administration Process
end note


A -> UI : types requested data
activate UI

end



activate UI
UI -> CTRL : specifyNewVaccineAndAdminProcess(vaccineAndAdminProcessDto)

activate CTRL
CTRL -> C : specifyNewVaccineAndAdminProcess(vaccineAndAdminProcessDto)

activate C
C -> AP : adminProcess = create(ageGroups, numberOfDoses, dosage, timeIntervalBetweenVaccines)

note over C, DTO : Several interactions to extract data from DTO.


activate AP
deactivate AP

C -> AP : validateAdministrationProcess(adminProcess)
activate AP
deactivate AP


C -> V : vac = create(name, id, brand, adminProcess, vaccineType)
note over C, DTO : Several interactions to extract data from DTO.

activate V
deactivate V

C -> V : validateVaccine(vac)
activate V
deactivate V
C - -> CTRL : result
CTRL - -> UI : result
deactivate CTRL
deactivate C
UI - -> A : shows the data and requests confirmation
deactivate UI
A -> UI : confirms the data
activate UI
UI - -> CTRL : saveVaccine(vaccineAndAdminProcessDto)

activate CTRL

CTRL -> C : saveVaccine(vaccineAndAdminProcessDto)

activate C
C -> AP : adminProcess = createAdministrationProcess(adminProcess)
activate AP
deactivate AP
C -> V :vac = create(name, id, brand, adminProcess, vaccineType)
activate V
deactivate V

C -> C : addVaccine(vac)



C - -> CTRL : result
CTRL - - -> UI : result
UI - -> A : informs operation success
deactivate UI
deactivate A
@enduml

PlantUML version 1.2022.4(Sat Apr 09 14:29:17 BST 2022)
(GPL source distribution)
Java Runtime: OpenJDK Runtime Environment
JVM: OpenJDK 64-Bit Server VM
Default Encoding: Cp1252
Language: en
Country: US
--></g></svg>