<?xml version="1.0" encoding="UTF-8" standalone="no"?><svg xmlns="http://www.w3.org/2000/svg" xmlns:xlink="http://www.w3.org/1999/xlink" contentStyleType="text/css" height="536px" preserveAspectRatio="none" style="width:757px;height:536px;background:#FFFFFF;" version="1.1" viewBox="0 0 757 536" width="757px" zoomAndPan="magnify"><defs/><g><rect fill="#FFFFFF" height="344.2188" style="stroke:#181818;stroke-width:1.0;" width="10" x="59.5" y="92.6094"/><rect fill="#FFFFFF" height="30.3516" style="stroke:#181818;stroke-width:1.0;" width="10" x="458.5" y="114.9609"/><rect fill="#FFFFFF" height="30.3516" style="stroke:#181818;stroke-width:1.0;" width="10" x="458.5" y="175.6641"/><rect fill="#FFFFFF" height="72.0547" style="stroke:#181818;stroke-width:1.0;" width="10" x="458.5" y="236.3672"/><rect fill="#FFFFFF" height="37.3516" style="stroke:#181818;stroke-width:1.0;" width="10" x="458.5" y="338.7734"/><rect fill="#FFFFFF" height="30.3516" style="stroke:#181818;stroke-width:1.0;" width="10" x="458.5" y="406.4766"/><rect height="95.4063" style="stroke:#000000;stroke-width:1.5;fill:none;" width="741.5" x="10" y="251.3672"/><line style="stroke:#181818;stroke-width:0.5;fill:none;stroke-dasharray:5.0,5.0;" x1="64" x2="64" y1="82.6094" y2="454.8281"/><line style="stroke:#181818;stroke-width:0.5;fill:none;stroke-dasharray:5.0,5.0;" x1="463.5" x2="463.5" y1="82.6094" y2="454.8281"/><text fill="#000000" font-family="sans-serif" font-size="14" lengthAdjust="spacing" textLength="83" x="20" y="79.5332">Administrator</text><ellipse cx="64.5" cy="13.5" fill="#E2E2F0" rx="8" ry="8" style="stroke:#181818;stroke-width:0.5;"/><path d="M64.5,21.5 L64.5,48.5 M51.5,29.5 L77.5,29.5 M64.5,48.5 L51.5,63.5 M64.5,48.5 L77.5,63.5 " fill="none" style="stroke:#181818;stroke-width:0.5;"/><text fill="#000000" font-family="sans-serif" font-size="14" lengthAdjust="spacing" textLength="83" x="20" y="468.3613">Administrator</text><ellipse cx="64.5" cy="479.9375" fill="#E2E2F0" rx="8" ry="8" style="stroke:#181818;stroke-width:0.5;"/><path d="M64.5,487.9375 L64.5,514.9375 M51.5,495.9375 L77.5,495.9375 M64.5,514.9375 L51.5,529.9375 M64.5,514.9375 L77.5,529.9375 " fill="none" style="stroke:#181818;stroke-width:0.5;"/><rect fill="#E2E2F0" height="31.6094" rx="2.5" ry="2.5" style="stroke:#181818;stroke-width:0.5;" width="64" x="431.5" y="50"/><text fill="#000000" font-family="sans-serif" font-size="14" lengthAdjust="spacing" textLength="50" x="438.5" y="71.5332">:System</text><rect fill="#E2E2F0" height="31.6094" rx="2.5" ry="2.5" style="stroke:#181818;stroke-width:0.5;" width="64" x="431.5" y="453.8281"/><text fill="#000000" font-family="sans-serif" font-size="14" lengthAdjust="spacing" textLength="50" x="438.5" y="475.3613">:System</text><rect fill="#FFFFFF" height="344.2188" style="stroke:#181818;stroke-width:1.0;" width="10" x="59.5" y="92.6094"/><rect fill="#FFFFFF" height="30.3516" style="stroke:#181818;stroke-width:1.0;" width="10" x="458.5" y="114.9609"/><rect fill="#FFFFFF" height="30.3516" style="stroke:#181818;stroke-width:1.0;" width="10" x="458.5" y="175.6641"/><rect fill="#FFFFFF" height="72.0547" style="stroke:#181818;stroke-width:1.0;" width="10" x="458.5" y="236.3672"/><rect fill="#FFFFFF" height="37.3516" style="stroke:#181818;stroke-width:1.0;" width="10" x="458.5" y="338.7734"/><rect fill="#FFFFFF" height="30.3516" style="stroke:#181818;stroke-width:1.0;" width="10" x="458.5" y="406.4766"/><polygon fill="#181818" points="446.5,110.9609,456.5,114.9609,446.5,118.9609,450.5,114.9609" style="stroke:#181818;stroke-width:1.0;"/><line style="stroke:#181818;stroke-width:1.0;" x1="69.5" x2="452.5" y1="114.9609" y2="114.9609"/><text fill="#000000" font-family="sans-serif" font-size="13" font-weight="bold" lengthAdjust="spacing" textLength="7" x="76.5" y="110.1045">1</text><text fill="#000000" font-family="sans-serif" font-size="13" lengthAdjust="spacing" textLength="359" x="87.5" y="110.1045">asks to specify a new Vaccine and its Administration Process</text><polygon fill="#181818" points="80.5,141.3125,70.5,145.3125,80.5,149.3125,76.5,145.3125" style="stroke:#181818;stroke-width:1.0;"/><line style="stroke:#181818;stroke-width:1.0;stroke-dasharray:2.0,2.0;" x1="74.5" x2="462.5" y1="145.3125" y2="145.3125"/><text fill="#000000" font-family="sans-serif" font-size="13" font-weight="bold" lengthAdjust="spacing" textLength="7" x="86.5" y="140.4561">2</text><text fill="#000000" font-family="sans-serif" font-size="13" lengthAdjust="spacing" textLength="278" x="97.5" y="140.4561">shows a list with all the Vaccine Types available</text><polygon fill="#181818" points="446.5,171.6641,456.5,175.6641,446.5,179.6641,450.5,175.6641" style="stroke:#181818;stroke-width:1.0;"/><line style="stroke:#181818;stroke-width:1.0;" x1="69.5" x2="452.5" y1="175.6641" y2="175.6641"/><text fill="#000000" font-family="sans-serif" font-size="13" font-weight="bold" lengthAdjust="spacing" textLength="7" x="76.5" y="170.8076">3</text><text fill="#000000" font-family="sans-serif" font-size="13" lengthAdjust="spacing" textLength="150" x="87.5" y="170.8076">selects one Vaccine Type</text><polygon fill="#181818" points="80.5,202.0156,70.5,206.0156,80.5,210.0156,76.5,206.0156" style="stroke:#181818;stroke-width:1.0;"/><line style="stroke:#181818;stroke-width:1.0;stroke-dasharray:2.0,2.0;" x1="74.5" x2="462.5" y1="206.0156" y2="206.0156"/><text fill="#000000" font-family="sans-serif" font-size="13" font-weight="bold" lengthAdjust="spacing" textLength="7" x="86.5" y="201.1592">4</text><text fill="#000000" font-family="sans-serif" font-size="13" lengthAdjust="spacing" textLength="297" x="97.5" y="201.1592">requests data for the Vaccine (Id, Name and Brand)</text><polygon fill="#181818" points="446.5,232.3672,456.5,236.3672,446.5,240.3672,450.5,236.3672" style="stroke:#181818;stroke-width:1.0;"/><line style="stroke:#181818;stroke-width:1.0;" x1="69.5" x2="452.5" y1="236.3672" y2="236.3672"/><text fill="#000000" font-family="sans-serif" font-size="13" font-weight="bold" lengthAdjust="spacing" textLength="7" x="76.5" y="231.5107">5</text><text fill="#000000" font-family="sans-serif" font-size="13" lengthAdjust="spacing" textLength="122" x="87.5" y="231.5107">types requested data</text><path d="M10,251.3672 L83,251.3672 L83,259.7188 L73,269.7188 L10,269.7188 L10,251.3672 " fill="#EEEEEE" style="stroke:#000000;stroke-width:1.5;"/><rect fill="none" height="95.4063" style="stroke:#000000;stroke-width:1.5;" width="741.5" x="10" y="251.3672"/><text fill="#000000" font-family="sans-serif" font-size="13" font-weight="bold" lengthAdjust="spacing" textLength="28" x="25" y="265.8623">loop</text><text fill="#000000" font-family="sans-serif" font-size="11" font-weight="bold" lengthAdjust="spacing" textLength="144" x="98" y="264.7861">[while adding age groups]</text><polygon fill="#181818" points="80.5,304.4219,70.5,308.4219,80.5,312.4219,76.5,308.4219" style="stroke:#181818;stroke-width:1.0;"/><line style="stroke:#181818;stroke-width:1.0;stroke-dasharray:2.0,2.0;" x1="74.5" x2="462.5" y1="308.4219" y2="308.4219"/><text fill="#000000" font-family="sans-serif" font-size="13" font-weight="bold" lengthAdjust="spacing" textLength="7" x="86.5" y="295.3896">6</text><text fill="#000000" font-family="sans-serif" font-size="13" lengthAdjust="spacing" textLength="251" x="97.5" y="287.2139">requests data (age limits, number of doses,</text><text fill="#000000" font-family="sans-serif" font-size="13" lengthAdjust="spacing" textLength="280" x="101.5" y="303.5654">vaccine dosage, time interval between vaccines )</text><path d="M473,279.8945 L473,305.8945 L736,305.8945 L736,289.8945 L726,279.8945 L473,279.8945 " fill="#FEFFDD" style="stroke:#181818;stroke-width:0.5;"/><path d="M726,279.8945 L726,289.8945 L736,289.8945 L726,279.8945 " fill="#FEFFDD" style="stroke:#181818;stroke-width:0.5;"/><text fill="#000000" font-family="sans-serif" font-size="13" lengthAdjust="spacing" textLength="242" x="479" y="298.3896">information for the Administration Process</text><polygon fill="#181818" points="446.5,334.7734,456.5,338.7734,446.5,342.7734,450.5,338.7734" style="stroke:#181818;stroke-width:1.0;"/><line style="stroke:#181818;stroke-width:1.0;" x1="69.5" x2="452.5" y1="338.7734" y2="338.7734"/><text fill="#000000" font-family="sans-serif" font-size="13" font-weight="bold" lengthAdjust="spacing" textLength="7" x="76.5" y="333.917">7</text><text fill="#000000" font-family="sans-serif" font-size="13" lengthAdjust="spacing" textLength="122" x="87.5" y="333.917">types requested data</text><polygon fill="#181818" points="80.5,372.125,70.5,376.125,80.5,380.125,76.5,376.125" style="stroke:#181818;stroke-width:1.0;"/><line style="stroke:#181818;stroke-width:1.0;stroke-dasharray:2.0,2.0;" x1="74.5" x2="462.5" y1="376.125" y2="376.125"/><text fill="#000000" font-family="sans-serif" font-size="13" font-weight="bold" lengthAdjust="spacing" textLength="7" x="86.5" y="371.2686">8</text><text fill="#000000" font-family="sans-serif" font-size="13" lengthAdjust="spacing" textLength="236" x="97.5" y="371.2686">shows all data and requests confirmation</text><polygon fill="#181818" points="446.5,402.4766,456.5,406.4766,446.5,410.4766,450.5,406.4766" style="stroke:#181818;stroke-width:1.0;"/><line style="stroke:#181818;stroke-width:1.0;" x1="69.5" x2="452.5" y1="406.4766" y2="406.4766"/><text fill="#000000" font-family="sans-serif" font-size="13" font-weight="bold" lengthAdjust="spacing" textLength="7" x="76.5" y="401.6201">9</text><text fill="#000000" font-family="sans-serif" font-size="13" lengthAdjust="spacing" textLength="100" x="87.5" y="401.6201">confirms the data</text><polygon fill="#181818" points="75.5,432.8281,65.5,436.8281,75.5,440.8281,71.5,436.8281" style="stroke:#181818;stroke-width:1.0;"/><line style="stroke:#181818;stroke-width:1.0;stroke-dasharray:2.0,2.0;" x1="69.5" x2="462.5" y1="436.8281" y2="436.8281"/><text fill="#000000" font-family="sans-serif" font-size="13" font-weight="bold" lengthAdjust="spacing" textLength="14" x="81.5" y="431.9717">10</text><text fill="#000000" font-family="sans-serif" font-size="13" lengthAdjust="spacing" textLength="152" x="99.5" y="431.9717">informs operation success</text><!--MD5=[57c0c66e206d6a6bbc3c56c75b9e6dad]
@startuml

autonumber
actor "Administrator" as A

activate A
A -> ":System" : asks to specify a new Vaccine and its Administration Process

activate ":System"
":System" - -> A : shows a list with all the Vaccine Types available
deactivate ":System"

A -> ":System" : selects one Vaccine Type

activate ":System"
":System" - -> A : requests data for the Vaccine (Id, Name and Brand)
deactivate ":System"
A -> ":System" : types requested data

activate ":System"

loop while adding age groups
 ":System" - -> A : requests data (age limits, number of doses,\n vaccine dosage, time interval between vaccines )

note right
information for the Administration Process
end note
deactivate ":System"

A -> ":System" : types requested data
activate ":System"

end

":System" - -> A : shows all data and requests confirmation
deactivate ":System"

A -> ":System" : confirms the data

activate ":System"
":System" - -> A : informs operation success
deactivate ":System"

deactivate A

@enduml

PlantUML version 1.2022.4(Sat Apr 09 14:29:17 BST 2022)
(GPL source distribution)
Java Runtime: OpenJDK Runtime Environment
JVM: OpenJDK 64-Bit Server VM
Default Encoding: Cp1252
Language: en
Country: US
--></g></svg>