<?xml version="1.0" encoding="UTF-8" standalone="no"?><svg xmlns="http://www.w3.org/2000/svg" xmlns:xlink="http://www.w3.org/1999/xlink" contentStyleType="text/css" height="630px" preserveAspectRatio="none" style="width:1025px;height:630px;background:#FFFFFF;" version="1.1" viewBox="0 0 1025 630" width="1025px" zoomAndPan="magnify"><defs/><g><!--MD5=[c4593935f45e4a2a0cefc4788932b53f]
class SnsUser--><g id="elem_SnsUser"><rect codeLine="7" fill="#F1F1F1" height="163.2656" id="SnsUser" rx="2.5" ry="2.5" style="stroke:#181818;stroke-width:0.5;" width="242" x="233" y="7"/><ellipse cx="323.25" cy="23" fill="#ADD1B2" rx="11" ry="11" style="stroke:#181818;stroke-width:1.0;"/><path d="M325.25,19.5 Q325.4531,19 325.6875,18.75 Q325.9219,18.5 326.1875,18.5 Q326.6563,18.5 326.9531,18.7813 Q327.25,19.0625 327.25,19.7188 L327.25,21.2813 Q327.25,21.9375 326.9688,22.2188 Q326.6875,22.5 326.25,22.5 Q325.8594,22.5 325.6094,22.3281 Q325.3594,22.1563 325.25,21.7031 Q325.2031,21.3906 325.0313,21.2188 Q324.7188,20.8906 324.1563,20.7031 Q323.5938,20.5 323.0313,20.5 Q322.3281,20.5 321.7344,20.7813 Q321.1563,21.0625 320.7031,21.6875 Q320.25,22.3125 320.25,23.1719 L320.25,24.0938 Q320.25,25.125 321.0938,25.8125 Q321.9375,26.5 323.4375,26.5 Q324.3281,26.5 324.9531,26.2969 Q325.3125,26.1875 325.7188,25.8281 Q325.9844,25.625 326.125,25.5625 Q326.2656,25.5 326.4375,25.5 Q326.7656,25.5 327,25.7656 Q327.25,26.0156 327.25,26.375 Q327.25,26.7188 326.9063,27.125 Q326.4063,27.7188 325.6094,28.0469 Q324.5625,28.5 323.2813,28.5 Q321.7813,28.5 320.5781,27.9063 Q319.6094,27.4375 318.9219,26.4219 Q318.25,25.4063 318.25,24.2031 L318.25,23.1094 Q318.25,21.8594 318.8438,20.7656 Q319.4531,19.6719 320.5,19.0938 Q321.5625,18.5 322.75,18.5 Q323.4688,18.5 324.0938,18.75 Q324.7188,19 325.25,19.5 Z " fill="#000000"/><text fill="#000000" font-family="sans-serif" font-size="14" lengthAdjust="spacing" textLength="53" x="343.75" y="28.7285">SnsUser</text><line style="stroke:#181818;stroke-width:0.5;" x1="234" x2="474" y1="39" y2="39"/><text fill="#000000" font-family="sans-serif" font-size="14" lengthAdjust="spacing" textLength="105" x="239" y="57.5332">-snsUserNumber</text><text fill="#000000" font-family="sans-serif" font-size="14" lengthAdjust="spacing" textLength="61" x="239" y="75.1426">-birthdate</text><text fill="#000000" font-family="sans-serif" font-size="14" lengthAdjust="spacing" textLength="94" x="239" y="92.752">-phoneNumber</text><text fill="#000000" font-family="sans-serif" font-size="14" lengthAdjust="spacing" textLength="26" x="239" y="110.3613">-sex</text><text fill="#000000" font-family="sans-serif" font-size="14" lengthAdjust="spacing" textLength="56" x="239" y="127.9707">-address</text><text fill="#000000" font-family="sans-serif" font-size="14" lengthAdjust="spacing" textLength="124" x="239" y="145.5801">-citizenCardNumber</text><text fill="#000000" font-family="sans-serif" font-size="14" lengthAdjust="spacing" textLength="230" x="239" y="163.1895">-vaccineBulletins : List&lt;TakenVacine&gt;</text></g><!--MD5=[0e501da62322464167c8ec4d233a6b7e]
class VaccineType--><g id="elem_VaccineType"><rect codeLine="19" fill="#F1F1F1" height="92.8281" id="VaccineType" rx="2.5" ry="2.5" style="stroke:#181818;stroke-width:0.5;" width="139" x="879" y="487"/><ellipse cx="905.25" cy="503" fill="#ADD1B2" rx="11" ry="11" style="stroke:#181818;stroke-width:1.0;"/><path d="M907.25,499.5 Q907.4531,499 907.6875,498.75 Q907.9219,498.5 908.1875,498.5 Q908.6563,498.5 908.9531,498.7813 Q909.25,499.0625 909.25,499.7188 L909.25,501.2813 Q909.25,501.9375 908.9688,502.2188 Q908.6875,502.5 908.25,502.5 Q907.8594,502.5 907.6094,502.3281 Q907.3594,502.1563 907.25,501.7031 Q907.2031,501.3906 907.0313,501.2188 Q906.7188,500.8906 906.1563,500.7031 Q905.5938,500.5 905.0313,500.5 Q904.3281,500.5 903.7344,500.7813 Q903.1563,501.0625 902.7031,501.6875 Q902.25,502.3125 902.25,503.1719 L902.25,504.0938 Q902.25,505.125 903.0938,505.8125 Q903.9375,506.5 905.4375,506.5 Q906.3281,506.5 906.9531,506.2969 Q907.3125,506.1875 907.7188,505.8281 Q907.9844,505.625 908.125,505.5625 Q908.2656,505.5 908.4375,505.5 Q908.7656,505.5 909,505.7656 Q909.25,506.0156 909.25,506.375 Q909.25,506.7188 908.9063,507.125 Q908.4063,507.7188 907.6094,508.0469 Q906.5625,508.5 905.2813,508.5 Q903.7813,508.5 902.5781,507.9063 Q901.6094,507.4375 900.9219,506.4219 Q900.25,505.4063 900.25,504.2031 L900.25,503.1094 Q900.25,501.8594 900.8438,500.7656 Q901.4531,499.6719 902.5,499.0938 Q903.5625,498.5 904.75,498.5 Q905.4688,498.5 906.0938,498.75 Q906.7188,499 907.25,499.5 Z " fill="#000000"/><text fill="#000000" font-family="sans-serif" font-size="14" lengthAdjust="spacing" textLength="82" x="921.75" y="508.7285">VaccineType</text><line style="stroke:#181818;stroke-width:0.5;" x1="880" x2="1017" y1="519" y2="519"/><text fill="#000000" font-family="sans-serif" font-size="14" lengthAdjust="spacing" textLength="74" x="885" y="537.5332">-description</text><text fill="#000000" font-family="sans-serif" font-size="14" lengthAdjust="spacing" textLength="36" x="885" y="555.1426">-code</text><text fill="#000000" font-family="sans-serif" font-size="14" lengthAdjust="spacing" textLength="127" x="885" y="572.752">-vaccineTechnology</text></g><!--MD5=[9b956c59b16436292d60adff39fe4d1c]
class ApplicationUser--><g id="elem_ApplicationUser"><rect codeLine="25" fill="#F1F1F1" height="110.4375" id="ApplicationUser" rx="2.5" ry="2.5" style="stroke:#181818;stroke-width:0.5;" width="130" x="7" y="33.5"/><ellipse cx="22" cy="49.5" fill="#ADD1B2" rx="11" ry="11" style="stroke:#181818;stroke-width:1.0;"/><path d="M24,46 Q24.2031,45.5 24.4375,45.25 Q24.6719,45 24.9375,45 Q25.4063,45 25.7031,45.2813 Q26,45.5625 26,46.2188 L26,47.7813 Q26,48.4375 25.7188,48.7188 Q25.4375,49 25,49 Q24.6094,49 24.3594,48.8281 Q24.1094,48.6563 24,48.2031 Q23.9531,47.8906 23.7813,47.7188 Q23.4688,47.3906 22.9063,47.2031 Q22.3438,47 21.7813,47 Q21.0781,47 20.4844,47.2813 Q19.9063,47.5625 19.4531,48.1875 Q19,48.8125 19,49.6719 L19,50.5938 Q19,51.625 19.8438,52.3125 Q20.6875,53 22.1875,53 Q23.0781,53 23.7031,52.7969 Q24.0625,52.6875 24.4688,52.3281 Q24.7344,52.125 24.875,52.0625 Q25.0156,52 25.1875,52 Q25.5156,52 25.75,52.2656 Q26,52.5156 26,52.875 Q26,53.2188 25.6563,53.625 Q25.1563,54.2188 24.3594,54.5469 Q23.3125,55 22.0313,55 Q20.5313,55 19.3281,54.4063 Q18.3594,53.9375 17.6719,52.9219 Q17,51.9063 17,50.7031 L17,49.6094 Q17,48.3594 17.5938,47.2656 Q18.2031,46.1719 19.25,45.5938 Q20.3125,45 21.5,45 Q22.2188,45 22.8438,45.25 Q23.4688,45.5 24,46 Z " fill="#000000"/><text fill="#000000" font-family="sans-serif" font-size="14" lengthAdjust="spacing" textLength="98" x="36" y="55.2285">ApplicationUser</text><line style="stroke:#181818;stroke-width:0.5;" x1="8" x2="136" y1="65.5" y2="65.5"/><text fill="#000000" font-family="sans-serif" font-size="14" lengthAdjust="spacing" textLength="40" x="13" y="84.0332">-name</text><text fill="#000000" font-family="sans-serif" font-size="14" lengthAdjust="spacing" textLength="38" x="13" y="101.6426">-email</text><text fill="#000000" font-family="sans-serif" font-size="14" lengthAdjust="spacing" textLength="65" x="13" y="119.252">-password</text><text fill="#000000" font-family="sans-serif" font-size="14" lengthAdjust="spacing" textLength="29" x="13" y="136.8613">-role</text></g><!--MD5=[dba9a92b96999febf7a21ca0aa8468a3]
class ScheduledVaccine--><g id="elem_ScheduledVaccine"><rect codeLine="32" fill="#F1F1F1" height="75.2188" id="ScheduledVaccine" rx="2.5" ry="2.5" style="stroke:#181818;stroke-width:0.5;" width="149" x="609" y="320"/><ellipse cx="624" cy="336" fill="#ADD1B2" rx="11" ry="11" style="stroke:#181818;stroke-width:1.0;"/><path d="M626,332.5 Q626.2031,332 626.4375,331.75 Q626.6719,331.5 626.9375,331.5 Q627.4063,331.5 627.7031,331.7813 Q628,332.0625 628,332.7188 L628,334.2813 Q628,334.9375 627.7188,335.2188 Q627.4375,335.5 627,335.5 Q626.6094,335.5 626.3594,335.3281 Q626.1094,335.1563 626,334.7031 Q625.9531,334.3906 625.7813,334.2188 Q625.4688,333.8906 624.9063,333.7031 Q624.3438,333.5 623.7813,333.5 Q623.0781,333.5 622.4844,333.7813 Q621.9063,334.0625 621.4531,334.6875 Q621,335.3125 621,336.1719 L621,337.0938 Q621,338.125 621.8438,338.8125 Q622.6875,339.5 624.1875,339.5 Q625.0781,339.5 625.7031,339.2969 Q626.0625,339.1875 626.4688,338.8281 Q626.7344,338.625 626.875,338.5625 Q627.0156,338.5 627.1875,338.5 Q627.5156,338.5 627.75,338.7656 Q628,339.0156 628,339.375 Q628,339.7188 627.6563,340.125 Q627.1563,340.7188 626.3594,341.0469 Q625.3125,341.5 624.0313,341.5 Q622.5313,341.5 621.3281,340.9063 Q620.3594,340.4375 619.6719,339.4219 Q619,338.4063 619,337.2031 L619,336.1094 Q619,334.8594 619.5938,333.7656 Q620.2031,332.6719 621.25,332.0938 Q622.3125,331.5 623.5,331.5 Q624.2188,331.5 624.8438,331.75 Q625.4688,332 626,332.5 Z " fill="#000000"/><text fill="#000000" font-family="sans-serif" font-size="14" lengthAdjust="spacing" textLength="117" x="638" y="341.7285">ScheduledVaccine</text><line style="stroke:#181818;stroke-width:0.5;" x1="610" x2="757" y1="352" y2="352"/><text fill="#000000" font-family="sans-serif" font-size="14" lengthAdjust="spacing" textLength="105" x="615" y="370.5332">-snsUserNumber</text><text fill="#000000" font-family="sans-serif" font-size="14" lengthAdjust="spacing" textLength="33" x="615" y="388.1426">-date</text></g><!--MD5=[de60e6d4f424ae4d0522096f76a59010]
class VaccinationCenter--><g id="elem_VaccinationCenter"><rect codeLine="37" fill="#F1F1F1" height="304.1406" id="VaccinationCenter" rx="2.5" ry="2.5" style="stroke:#181818;stroke-width:0.5;" width="148" x="280" y="205.5"/><ellipse cx="295" cy="221.5" fill="#ADD1B2" rx="11" ry="11" style="stroke:#181818;stroke-width:1.0;"/><path d="M297,218 Q297.2031,217.5 297.4375,217.25 Q297.6719,217 297.9375,217 Q298.4063,217 298.7031,217.2813 Q299,217.5625 299,218.2188 L299,219.7813 Q299,220.4375 298.7188,220.7188 Q298.4375,221 298,221 Q297.6094,221 297.3594,220.8281 Q297.1094,220.6563 297,220.2031 Q296.9531,219.8906 296.7813,219.7188 Q296.4688,219.3906 295.9063,219.2031 Q295.3438,219 294.7813,219 Q294.0781,219 293.4844,219.2813 Q292.9063,219.5625 292.4531,220.1875 Q292,220.8125 292,221.6719 L292,222.5938 Q292,223.625 292.8438,224.3125 Q293.6875,225 295.1875,225 Q296.0781,225 296.7031,224.7969 Q297.0625,224.6875 297.4688,224.3281 Q297.7344,224.125 297.875,224.0625 Q298.0156,224 298.1875,224 Q298.5156,224 298.75,224.2656 Q299,224.5156 299,224.875 Q299,225.2188 298.6563,225.625 Q298.1563,226.2188 297.3594,226.5469 Q296.3125,227 295.0313,227 Q293.5313,227 292.3281,226.4063 Q291.3594,225.9375 290.6719,224.9219 Q290,223.9063 290,222.7031 L290,221.6094 Q290,220.3594 290.5938,219.2656 Q291.2031,218.1719 292.25,217.5938 Q293.3125,217 294.5,217 Q295.2188,217 295.8438,217.25 Q296.4688,217.5 297,218 Z " fill="#000000"/><text fill="#000000" font-family="sans-serif" font-size="14" lengthAdjust="spacing" textLength="116" x="309" y="227.2285">VaccinationCenter</text><line style="stroke:#181818;stroke-width:0.5;" x1="281" x2="427" y1="237.5" y2="237.5"/><text fill="#000000" font-family="sans-serif" font-size="14" lengthAdjust="spacing" textLength="16" x="286" y="256.0332">-id</text><text fill="#000000" font-family="sans-serif" font-size="14" lengthAdjust="spacing" textLength="40" x="286" y="273.6426">-name</text><text fill="#000000" font-family="sans-serif" font-size="14" lengthAdjust="spacing" textLength="94" x="286" y="291.252">-phoneNumber</text><text fill="#000000" font-family="sans-serif" font-size="14" lengthAdjust="spacing" textLength="38" x="286" y="308.8613">-email</text><text fill="#000000" font-family="sans-serif" font-size="14" lengthAdjust="spacing" textLength="23" x="286" y="326.4707">-fax</text><text fill="#000000" font-family="sans-serif" font-size="14" lengthAdjust="spacing" textLength="52" x="286" y="344.0801">-website</text><text fill="#000000" font-family="sans-serif" font-size="14" lengthAdjust="spacing" textLength="86" x="286" y="361.6895">-openingHour</text><text fill="#000000" font-family="sans-serif" font-size="14" lengthAdjust="spacing" textLength="79" x="286" y="379.2988">-closingHour</text><text fill="#000000" font-family="sans-serif" font-size="14" lengthAdjust="spacing" textLength="81" x="286" y="396.9082">-slotDuration</text><text fill="#000000" font-family="sans-serif" font-size="14" lengthAdjust="spacing" textLength="106" x="286" y="414.5176">-vaccinesPerSlot</text><text fill="#000000" font-family="sans-serif" font-size="14" lengthAdjust="spacing" textLength="34" x="286" y="432.127">-road</text><text fill="#000000" font-family="sans-serif" font-size="14" lengthAdjust="spacing" textLength="56" x="286" y="449.7363">-zipCode</text><text fill="#000000" font-family="sans-serif" font-size="14" lengthAdjust="spacing" textLength="34" x="286" y="467.3457">-local</text><text fill="#000000" font-family="sans-serif" font-size="14" lengthAdjust="spacing" textLength="133" x="286" y="484.9551">-centerCoordinatorID</text><text fill="#000000" font-family="sans-serif" font-size="14" lengthAdjust="spacing" textLength="73" x="286" y="502.5645">-arrivalsList</text></g><!--MD5=[02e4b9b7573f1156f41e60aa5b4e25a4]
class Company--><g id="elem_Company"><rect fill="#F1F1F1" height="40" id="Company" rx="2.5" ry="2.5" style="stroke:#181818;stroke-width:0.5;" width="92" x="26" y="337.5"/><ellipse cx="41" cy="353.5" fill="#ADD1B2" rx="11" ry="11" style="stroke:#181818;stroke-width:1.0;"/><path d="M43,350 Q43.2031,349.5 43.4375,349.25 Q43.6719,349 43.9375,349 Q44.4063,349 44.7031,349.2813 Q45,349.5625 45,350.2188 L45,351.7813 Q45,352.4375 44.7188,352.7188 Q44.4375,353 44,353 Q43.6094,353 43.3594,352.8281 Q43.1094,352.6563 43,352.2031 Q42.9531,351.8906 42.7813,351.7188 Q42.4688,351.3906 41.9063,351.2031 Q41.3438,351 40.7813,351 Q40.0781,351 39.4844,351.2813 Q38.9063,351.5625 38.4531,352.1875 Q38,352.8125 38,353.6719 L38,354.5938 Q38,355.625 38.8438,356.3125 Q39.6875,357 41.1875,357 Q42.0781,357 42.7031,356.7969 Q43.0625,356.6875 43.4688,356.3281 Q43.7344,356.125 43.875,356.0625 Q44.0156,356 44.1875,356 Q44.5156,356 44.75,356.2656 Q45,356.5156 45,356.875 Q45,357.2188 44.6563,357.625 Q44.1563,358.2188 43.3594,358.5469 Q42.3125,359 41.0313,359 Q39.5313,359 38.3281,358.4063 Q37.3594,357.9375 36.6719,356.9219 Q36,355.9063 36,354.7031 L36,353.6094 Q36,352.3594 36.5938,351.2656 Q37.2031,350.1719 38.25,349.5938 Q39.3125,349 40.5,349 Q41.2188,349 41.8438,349.25 Q42.4688,349.5 43,350 Z " fill="#000000"/><text fill="#000000" font-family="sans-serif" font-size="14" lengthAdjust="spacing" textLength="60" x="55" y="359.2285">Company</text><line style="stroke:#181818;stroke-width:0.5;" x1="27" x2="117" y1="369.5" y2="369.5"/></g><!--MD5=[02353a41e484acdeee62cd612a479b38]
link SnsUser to ScheduledVaccine--><g id="link_SnsUser_ScheduledVaccine"><path codeLine="55" d="M454.59,170.31 C513.53,218.72 585.65,277.95 632.76,316.65 " fill="none" id="SnsUser-to-ScheduledVaccine" style="stroke:#181818;stroke-width:1.0;"/><polygon fill="#181818" points="636.67,319.86,632.2586,311.0543,632.8079,316.6845,627.1777,317.2338,636.67,319.86" style="stroke:#181818;stroke-width:1.0;"/><polygon fill="#000000" points="513.8638,208.8493,508.7395,200.8373,505.0088,205.3794,513.8638,208.8493" style="stroke:#000000;stroke-width:1.0;"/><text fill="#000000" font-family="sans-serif" font-size="13" lengthAdjust="spacing" textLength="59" x="519" y="210.9951">schedules</text><text fill="#000000" font-family="sans-serif" font-size="13" lengthAdjust="spacing" textLength="7" x="456.2371" y="191.8076">1</text><text fill="#000000" font-family="sans-serif" font-size="13" lengthAdjust="spacing" textLength="5" x="622.8831" y="309.2373">*</text></g><!--MD5=[ae7cf994a8037bd5ae694a195d04bab2]
reverse link ApplicationUser to SnsUser--><g id="link_ApplicationUser_SnsUser"><path codeLine="57" d="M157.38,88.5 C181.15,88.5 207.48,88.5 232.91,88.5 " fill="none" id="ApplicationUser-backto-SnsUser" style="stroke:#181818;stroke-width:1.0;"/><polygon fill="none" points="157.24,95.5,137.24,88.5,157.24,81.5,157.24,95.5" style="stroke:#181818;stroke-width:1.0;"/></g><!--MD5=[1be679a08cb8113d11b1816eb4e0394e]
link ScheduledVaccine to VaccineType--><g id="link_ScheduledVaccine_VaccineType"><path codeLine="59" d="M740.6,395.04 C779.69,421.2 832.2,456.34 874.54,484.68 " fill="none" id="ScheduledVaccine-to-VaccineType" style="stroke:#181818;stroke-width:1.0;"/><polygon fill="#181818" points="878.86,487.57,873.5903,479.2495,874.6997,484.7965,869.1527,485.9059,878.86,487.57" style="stroke:#181818;stroke-width:1.0;"/><polygon fill="#000000" points="797.1553,423.4567,791.2729,415.9835,788.0037,420.8684,797.1553,423.4567" style="stroke:#000000;stroke-width:1.0;"/><text fill="#000000" font-family="sans-serif" font-size="13" lengthAdjust="spacing" textLength="46" x="802" y="425.9951">has one</text><text fill="#000000" font-family="sans-serif" font-size="13" lengthAdjust="spacing" textLength="5" x="745.3256" y="416.6588">*</text><text fill="#000000" font-family="sans-serif" font-size="13" lengthAdjust="spacing" textLength="7" x="863.8603" y="496.9451">1</text></g><!--MD5=[05986564e1c13a00611587b35563d868]
link Company to VaccineType--><g id="link_Company_VaccineType"><path codeLine="61" d="M84.28,377.63 C106.78,415.46 161.32,496.18 233,527.5 C452.38,623.39 747.08,578.11 878.84,550.01 " fill="none" id="Company-VaccineType" style="stroke:#181818;stroke-width:1.0;"/><polygon fill="#000000" points="519.3863,576.7359,511.17,571.946,509.9238,577.6903,519.3863,576.7359" style="stroke:#000000;stroke-width:1.0;"/><text fill="#000000" font-family="sans-serif" font-size="13" lengthAdjust="spacing" textLength="50" x="523.5" y="580.9951">storages</text><text fill="#000000" font-family="sans-serif" font-size="13" lengthAdjust="spacing" textLength="7" x="79.7494" y="399.0861">1</text><text fill="#000000" font-family="sans-serif" font-size="13" lengthAdjust="spacing" textLength="5" x="865.9475" y="566.2145">*</text></g><!--MD5=[7ea5958ae75d1b49d8885d6c52a43a8a]
link Company to SnsUser--><g id="link_Company_SnsUser"><path codeLine="63" d="M90.75,337.26 C119.53,304.78 178.65,239.52 233,188.5 C239.53,182.38 246.36,176.17 253.32,170 " fill="none" id="Company-SnsUser" style="stroke:#181818;stroke-width:1.0;"/><polygon fill="#000000" points="175.4849,206.0903,167.0732,210.5281,171.2881,214.6248,175.4849,206.0903" style="stroke:#000000;stroke-width:1.0;"/><text fill="#000000" font-family="sans-serif" font-size="13" lengthAdjust="spacing" textLength="21" x="181" y="214.9951">has</text><text fill="#000000" font-family="sans-serif" font-size="13" lengthAdjust="spacing" textLength="7" x="88.2297" y="326.5113">1</text><text fill="#000000" font-family="sans-serif" font-size="13" lengthAdjust="spacing" textLength="5" x="238.8081" y="191.7499">*</text></g><!--MD5=[eebe9b198877275d05dd12630ed9e401]
link Company to VaccinationCenter--><g id="link_Company_VaccinationCenter"><path codeLine="65" d="M118.3,357.5 C161.95,357.5 228.71,357.5 279.89,357.5 " fill="none" id="Company-VaccinationCenter" style="stroke:#181818;stroke-width:1.0;"/><polygon fill="#000000" points="177,348.6758,167.9549,345.7369,167.9549,351.6147,177,348.6758" style="stroke:#000000;stroke-width:1.0;"/><text fill="#000000" font-family="sans-serif" font-size="13" lengthAdjust="spacing" textLength="21" x="181" y="353.9951">has</text><text fill="#000000" font-family="sans-serif" font-size="13" lengthAdjust="spacing" textLength="7" x="125.9256" y="372.247">1</text><text fill="#000000" font-family="sans-serif" font-size="13" lengthAdjust="spacing" textLength="5" x="266.9896" y="371.831">*</text></g><!--MD5=[adcf0078a0299005c9f5ccec10b6ed04]
link VaccinationCenter to ScheduledVaccine--><g id="link_VaccinationCenter_ScheduledVaccine"><path codeLine="67" d="M428.09,357.5 C481.91,357.5 554.82,357.5 608.78,357.5 " fill="none" id="VaccinationCenter-ScheduledVaccine" style="stroke:#181818;stroke-width:1.0;"/><polygon fill="#000000" points="534,348.6758,524.9549,345.7369,524.9549,351.6147,534,348.6758" style="stroke:#000000;stroke-width:1.0;"/><text fill="#000000" font-family="sans-serif" font-size="13" lengthAdjust="spacing" textLength="21" x="538" y="353.9951">has</text><text fill="#000000" font-family="sans-serif" font-size="13" lengthAdjust="spacing" textLength="7" x="436.0915" y="371.831">1</text><text fill="#000000" font-family="sans-serif" font-size="13" lengthAdjust="spacing" textLength="5" x="595.8167" y="371.827">*</text></g><!--MD5=[de30aac2dc7e0628e309c200328e0ae2]
@startuml

hide methods
left to right direction
skinparam classAttributeIconSize 0


class SnsUser {
-snsUserNumber
-birthdate
-phoneNumber
-sex
-address
-citizenCardNumber
-vaccineBulletins : List<TakenVacine>
}



class VaccineType{
-description
-code
-vaccineTechnology
}

class ApplicationUser {
    -name
    -email
    -password
    -role
}

class ScheduledVaccine {
-snsUserNumber
-date
}

class VaccinationCenter {
-id
-name
-phoneNumber
-email
-fax
-website
-openingHour
-closingHour
-slotDuration
-vaccinesPerSlot
-road
-zipCode
-local
-centerCoordinatorID
-arrivalsList
}

SnsUser "1" - -> "*" ScheduledVaccine: schedules >

ApplicationUser  <|- - SnsUser

ScheduledVaccine "*" - -> "1" VaccineType: has one  >

Company "1" - - - "*" VaccineType : storages >

Company "1" - - "*" SnsUser : has >

Company "1" - - "*" VaccinationCenter : has >

VaccinationCenter "1" - - "*" ScheduledVaccine : has >
@enduml

PlantUML version 1.2022.5(Sat Apr 30 11:55:52 BST 2022)
(GPL source distribution)
Java Runtime: OpenJDK Runtime Environment
JVM: OpenJDK 64-Bit Server VM
Default Encoding: Cp1252
Language: en
Country: US
--></g></svg>