<?xml version="1.0" encoding="UTF-8" standalone="no"?><svg xmlns="http://www.w3.org/2000/svg" xmlns:xlink="http://www.w3.org/1999/xlink" contentStyleType="text/css" height="1852px" preserveAspectRatio="none" style="width:1248px;height:1852px;background:#FFFFFF;" version="1.1" viewBox="0 0 1248 1852" width="1248px" zoomAndPan="magnify"><defs/><g><!--MD5=[9681dc6e01e10c6b4fe06895ae94f592]
cluster UI--><g id="cluster_UI"><path d="M509.36,6 L524.36,6 A3.75,3.75 0 0 1 526.86,8.5 L533.86,29.6094 L896.36,29.6094 A2.5,2.5 0 0 1 898.86,32.1094 L898.86,385.5 A2.5,2.5 0 0 1 896.36,388 L509.36,388 A2.5,2.5 0 0 1 506.86,385.5 L506.86,8.5 A2.5,2.5 0 0 1 509.36,6 " style="stroke:#000000;stroke-width:1.5;fill:none;"/><line style="stroke:#000000;stroke-width:1.5;fill:none;" x1="506.86" x2="533.86" y1="29.6094" y2="29.6094"/><text fill="#000000" font-family="sans-serif" font-size="14" font-weight="bold" lengthAdjust="spacing" textLength="14" x="510.86" y="22.5332">UI</text></g><!--MD5=[1f2cfc53d9d308f53762fd0fcbaa4873]
cluster Controller--><g id="cluster_Controller"><path d="M537.36,421 L609.36,421 A3.75,3.75 0 0 1 611.86,423.5 L618.86,444.6094 L868.36,444.6094 A2.5,2.5 0 0 1 870.86,447.1094 L870.86,729.5 A2.5,2.5 0 0 1 868.36,732 L537.36,732 A2.5,2.5 0 0 1 534.86,729.5 L534.86,423.5 A2.5,2.5 0 0 1 537.36,421 " style="stroke:#000000;stroke-width:1.5;fill:none;"/><line style="stroke:#000000;stroke-width:1.5;fill:none;" x1="534.86" x2="618.86" y1="444.6094" y2="444.6094"/><text fill="#000000" font-family="sans-serif" font-size="14" font-weight="bold" lengthAdjust="spacing" textLength="71" x="538.86" y="437.5332">Controller</text></g><!--MD5=[121a8bf1197281ab89ed693fab589f94]
cluster Domain--><g id="cluster_Domain"><path d="M86.36,765 L139.36,765 A3.75,3.75 0 0 1 141.86,767.5 L148.86,788.6094 L1239.36,788.6094 A2.5,2.5 0 0 1 1241.86,791.1094 L1241.86,1842.5 A2.5,2.5 0 0 1 1239.36,1845 L86.36,1845 A2.5,2.5 0 0 1 83.86,1842.5 L83.86,767.5 A2.5,2.5 0 0 1 86.36,765 " style="stroke:#000000;stroke-width:1.5;fill:none;"/><line style="stroke:#000000;stroke-width:1.5;fill:none;" x1="83.86" x2="148.86" y1="788.6094" y2="788.6094"/><text fill="#000000" font-family="sans-serif" font-size="14" font-weight="bold" lengthAdjust="spacing" textLength="52" x="87.86" y="781.5332">Domain</text></g><!--MD5=[adfaf45b6610d71f2f12b7cefe5f97bf]
class CheckAndExportVacStatsGUI--><g id="elem_CheckAndExportVacStatsGUI"><rect codeLine="5" fill="#F1F1F1" height="329.75" id="CheckAndExportVacStatsGUI" rx="2.5" ry="2.5" style="stroke:#181818;stroke-width:0.5;" width="360" x="522.86" y="42"/><ellipse cx="606.61" cy="58" fill="#ADD1B2" rx="11" ry="11" style="stroke:#181818;stroke-width:1.0;"/><path d="M608.61,54.5 Q608.8131,54 609.0475,53.75 Q609.2819,53.5 609.5475,53.5 Q610.0163,53.5 610.3131,53.7813 Q610.61,54.0625 610.61,54.7188 L610.61,56.2813 Q610.61,56.9375 610.3288,57.2188 Q610.0475,57.5 609.61,57.5 Q609.2194,57.5 608.9694,57.3281 Q608.7194,57.1563 608.61,56.7031 Q608.5631,56.3906 608.3913,56.2188 Q608.0788,55.8906 607.5163,55.7031 Q606.9538,55.5 606.3913,55.5 Q605.6881,55.5 605.0944,55.7813 Q604.5163,56.0625 604.0631,56.6875 Q603.61,57.3125 603.61,58.1719 L603.61,59.0938 Q603.61,60.125 604.4538,60.8125 Q605.2975,61.5 606.7975,61.5 Q607.6881,61.5 608.3131,61.2969 Q608.6725,61.1875 609.0788,60.8281 Q609.3444,60.625 609.485,60.5625 Q609.6256,60.5 609.7975,60.5 Q610.1256,60.5 610.36,60.7656 Q610.61,61.0156 610.61,61.375 Q610.61,61.7188 610.2663,62.125 Q609.7663,62.7188 608.9694,63.0469 Q607.9225,63.5 606.6413,63.5 Q605.1413,63.5 603.9381,62.9063 Q602.9694,62.4375 602.2819,61.4219 Q601.61,60.4063 601.61,59.2031 L601.61,58.1094 Q601.61,56.8594 602.2038,55.7656 Q602.8131,54.6719 603.86,54.0938 Q604.9225,53.5 606.11,53.5 Q606.8288,53.5 607.4538,53.75 Q608.0788,54 608.61,54.5 Z " fill="#000000"/><text fill="#000000" font-family="sans-serif" font-size="14" lengthAdjust="spacing" textLength="184" x="627.11" y="63.7285">CheckAndExportVacStatsGUI</text><line style="stroke:#181818;stroke-width:0.5;" x1="523.86" x2="881.86" y1="74" y2="74"/><text fill="#000000" font-family="sans-serif" font-size="14" lengthAdjust="spacing" textLength="348" x="528.86" y="92.5332">-controller : CheckAndExportVaccinationStatsController</text><text fill="#000000" font-family="sans-serif" font-size="14" lengthAdjust="spacing" textLength="178" x="528.86" y="110.1426">-firstDatePicker : DatePicker</text><text fill="#000000" font-family="sans-serif" font-size="14" lengthAdjust="spacing" textLength="177" x="528.86" y="127.752">-lastDatePicker : DatePicker</text><text fill="#000000" font-family="sans-serif" font-size="14" lengthAdjust="spacing" textLength="94" x="528.86" y="145.3613">-okBtn : Button</text><text fill="#000000" font-family="sans-serif" font-size="14" lengthAdjust="spacing" textLength="174" x="528.86" y="162.9707">-askFileNameTxt : TextArea</text><line style="stroke:#181818;stroke-width:0.5;" x1="523.86" x2="881.86" y1="170.0469" y2="170.0469"/><text fill="#000000" font-family="sans-serif" font-size="14" lengthAdjust="spacing" textLength="202" x="528.86" y="188.5801">+CheckAndExportVacStatsGUI()</text><text fill="#000000" font-family="sans-serif" font-size="14" lengthAdjust="spacing" textLength="83" x="528.86" y="206.1895">+back(event)</text><text fill="#000000" font-family="sans-serif" font-size="14" lengthAdjust="spacing" textLength="148" x="528.86" y="223.7988">+setFirstDate(firstDate)</text><text fill="#000000" font-family="sans-serif" font-size="14" lengthAdjust="spacing" textLength="146" x="528.86" y="241.4082">+setLastDate(lastDate)</text><text fill="#000000" font-family="sans-serif" font-size="14" lengthAdjust="spacing" textLength="187" x="528.86" y="259.0176">+setFirstDatePicker(firstDate)</text><text fill="#000000" font-family="sans-serif" font-size="14" lengthAdjust="spacing" textLength="185" x="528.86" y="276.627">+setLastDatePicker(lastDate)</text><text fill="#000000" font-family="sans-serif" font-size="14" lengthAdjust="spacing" textLength="146" x="528.86" y="294.2363">+checkStatistics(event)</text><text fill="#000000" font-family="sans-serif" font-size="14" lengthAdjust="spacing" textLength="148" x="528.86" y="311.8457">+exportStatistics(event)</text><text fill="#000000" font-family="sans-serif" font-size="14" lengthAdjust="spacing" textLength="190" x="528.86" y="329.4551">+exportStatisticsOption(event)</text><text fill="#000000" font-family="sans-serif" font-size="14" lengthAdjust="spacing" textLength="198" x="528.86" y="347.0645">-toCheckVacStatsScene(event)</text><text fill="#000000" font-family="sans-serif" font-size="14" lengthAdjust="spacing" textLength="215" x="528.86" y="364.6738">-toCenterCoordinatorMenu(event)</text></g><!--MD5=[093ee6cbab074bc282deae827ec29a7d]
class CheckAndExportVaccinationStatsController--><g id="elem_CheckAndExportVaccinationStatsController"><rect codeLine="29" fill="#F1F1F1" height="259.3125" id="CheckAndExportVaccinationStatsController" rx="2.5" ry="2.5" style="stroke:#181818;stroke-width:0.5;" width="304" x="550.86" y="457"/><ellipse cx="565.86" cy="473" fill="#ADD1B2" rx="11" ry="11" style="stroke:#181818;stroke-width:1.0;"/><path d="M567.86,469.5 Q568.0631,469 568.2975,468.75 Q568.5319,468.5 568.7975,468.5 Q569.2663,468.5 569.5631,468.7813 Q569.86,469.0625 569.86,469.7188 L569.86,471.2813 Q569.86,471.9375 569.5788,472.2188 Q569.2975,472.5 568.86,472.5 Q568.4694,472.5 568.2194,472.3281 Q567.9694,472.1563 567.86,471.7031 Q567.8131,471.3906 567.6413,471.2188 Q567.3288,470.8906 566.7663,470.7031 Q566.2038,470.5 565.6413,470.5 Q564.9381,470.5 564.3444,470.7813 Q563.7663,471.0625 563.3131,471.6875 Q562.86,472.3125 562.86,473.1719 L562.86,474.0938 Q562.86,475.125 563.7038,475.8125 Q564.5475,476.5 566.0475,476.5 Q566.9381,476.5 567.5631,476.2969 Q567.9225,476.1875 568.3288,475.8281 Q568.5944,475.625 568.735,475.5625 Q568.8756,475.5 569.0475,475.5 Q569.3756,475.5 569.61,475.7656 Q569.86,476.0156 569.86,476.375 Q569.86,476.7188 569.5163,477.125 Q569.0163,477.7188 568.2194,478.0469 Q567.1725,478.5 565.8913,478.5 Q564.3913,478.5 563.1881,477.9063 Q562.2194,477.4375 561.5319,476.4219 Q560.86,475.4063 560.86,474.2031 L560.86,473.1094 Q560.86,471.8594 561.4538,470.7656 Q562.0631,469.6719 563.11,469.0938 Q564.1725,468.5 565.36,468.5 Q566.0788,468.5 566.7038,468.75 Q567.3288,469 567.86,469.5 Z " fill="#000000"/><text fill="#000000" font-family="sans-serif" font-size="14" lengthAdjust="spacing" textLength="272" x="579.86" y="478.7285">CheckAndExportVaccinationStatsController</text><line style="stroke:#181818;stroke-width:0.5;" x1="551.86" x2="853.86" y1="489" y2="489"/><text fill="#000000" font-family="sans-serif" font-size="14" lengthAdjust="spacing" textLength="173" x="556.86" y="507.5332">-center : VaccinationCenter</text><text fill="#000000" font-family="sans-serif" font-size="14" lengthAdjust="spacing" textLength="134" x="556.86" y="525.1426">-firstDate : LocalDate</text><text fill="#000000" font-family="sans-serif" font-size="14" lengthAdjust="spacing" textLength="133" x="556.86" y="542.752">-lastDate : LocalDate</text><line style="stroke:#181818;stroke-width:0.5;" x1="551.86" x2="853.86" y1="549.8281" y2="549.8281"/><text fill="#000000" font-family="sans-serif" font-size="14" lengthAdjust="spacing" textLength="290" x="556.86" y="568.3613">+CheckAndExportVaccinationStatsController()</text><text fill="#000000" font-family="sans-serif" font-size="14" lengthAdjust="spacing" textLength="148" x="556.86" y="585.9707">+setFirstDate(firstDate)</text><text fill="#000000" font-family="sans-serif" font-size="14" lengthAdjust="spacing" textLength="146" x="556.86" y="603.5801">+setLastDate(lastDate)</text><text fill="#000000" font-family="sans-serif" font-size="14" lengthAdjust="spacing" textLength="96" x="556.86" y="621.1895">+getFirstDate()</text><text fill="#000000" font-family="sans-serif" font-size="14" lengthAdjust="spacing" textLength="95" x="556.86" y="638.7988">+getLastDate()</text><text fill="#000000" font-family="sans-serif" font-size="14" lengthAdjust="spacing" textLength="152" x="556.86" y="656.4082">+checkIfDatesAreValid()</text><text fill="#000000" font-family="sans-serif" font-size="14" lengthAdjust="spacing" textLength="240" x="556.86" y="674.0176">+exportVaccinationStatistics(fileName)</text><text fill="#000000" font-family="sans-serif" font-size="14" lengthAdjust="spacing" textLength="256" x="556.86" y="691.627">+getVaccinationStatsListBetweenDates()</text><text fill="#000000" font-family="sans-serif" font-size="14" lengthAdjust="spacing" textLength="250" x="556.86" y="709.2363">+toCheckVaccinationStatsScene(event)</text></g><!--MD5=[02e4b9b7573f1156f41e60aa5b4e25a4]
class Company--><g id="elem_Company"><rect codeLine="46" fill="#F1F1F1" height="48" id="Company" rx="2.5" ry="2.5" style="stroke:#181818;stroke-width:0.5;" width="92" x="557.86" y="801"/><ellipse cx="572.86" cy="817" fill="#ADD1B2" rx="11" ry="11" style="stroke:#181818;stroke-width:1.0;"/><path d="M574.86,813.5 Q575.0631,813 575.2975,812.75 Q575.5319,812.5 575.7975,812.5 Q576.2663,812.5 576.5631,812.7813 Q576.86,813.0625 576.86,813.7188 L576.86,815.2813 Q576.86,815.9375 576.5788,816.2188 Q576.2975,816.5 575.86,816.5 Q575.4694,816.5 575.2194,816.3281 Q574.9694,816.1563 574.86,815.7031 Q574.8131,815.3906 574.6413,815.2188 Q574.3288,814.8906 573.7663,814.7031 Q573.2038,814.5 572.6413,814.5 Q571.9381,814.5 571.3444,814.7813 Q570.7663,815.0625 570.3131,815.6875 Q569.86,816.3125 569.86,817.1719 L569.86,818.0938 Q569.86,819.125 570.7038,819.8125 Q571.5475,820.5 573.0475,820.5 Q573.9381,820.5 574.5631,820.2969 Q574.9225,820.1875 575.3288,819.8281 Q575.5944,819.625 575.735,819.5625 Q575.8756,819.5 576.0475,819.5 Q576.3756,819.5 576.61,819.7656 Q576.86,820.0156 576.86,820.375 Q576.86,820.7188 576.5163,821.125 Q576.0163,821.7188 575.2194,822.0469 Q574.1725,822.5 572.8913,822.5 Q571.3913,822.5 570.1881,821.9063 Q569.2194,821.4375 568.5319,820.4219 Q567.86,819.4063 567.86,818.2031 L567.86,817.1094 Q567.86,815.8594 568.4538,814.7656 Q569.0631,813.6719 570.11,813.0938 Q571.1725,812.5 572.36,812.5 Q573.0788,812.5 573.7038,812.75 Q574.3288,813 574.86,813.5 Z " fill="#000000"/><text fill="#000000" font-family="sans-serif" font-size="14" lengthAdjust="spacing" textLength="60" x="586.86" y="822.7285">Company</text><line style="stroke:#181818;stroke-width:0.5;" x1="558.86" x2="648.86" y1="833" y2="833"/><line style="stroke:#181818;stroke-width:0.5;" x1="558.86" x2="648.86" y1="841" y2="841"/></g><!--MD5=[de60e6d4f424ae4d0522096f76a59010]
class VaccinationCenter--><g id="elem_VaccinationCenter"><rect codeLine="50" fill="#F1F1F1" height="382.5781" id="VaccinationCenter" rx="2.5" ry="2.5" style="stroke:#181818;stroke-width:0.5;" width="1052" x="173.86" y="1106"/><ellipse cx="637.61" cy="1122" fill="#ADD1B2" rx="11" ry="11" style="stroke:#181818;stroke-width:1.0;"/><path d="M639.61,1118.5 Q639.8131,1118 640.0475,1117.75 Q640.2819,1117.5 640.5475,1117.5 Q641.0163,1117.5 641.3131,1117.7813 Q641.61,1118.0625 641.61,1118.7188 L641.61,1120.2813 Q641.61,1120.9375 641.3288,1121.2188 Q641.0475,1121.5 640.61,1121.5 Q640.2194,1121.5 639.9694,1121.3281 Q639.7194,1121.1563 639.61,1120.7031 Q639.5631,1120.3906 639.3913,1120.2188 Q639.0788,1119.8906 638.5163,1119.7031 Q637.9538,1119.5 637.3913,1119.5 Q636.6881,1119.5 636.0944,1119.7813 Q635.5163,1120.0625 635.0631,1120.6875 Q634.61,1121.3125 634.61,1122.1719 L634.61,1123.0938 Q634.61,1124.125 635.4538,1124.8125 Q636.2975,1125.5 637.7975,1125.5 Q638.6881,1125.5 639.3131,1125.2969 Q639.6725,1125.1875 640.0788,1124.8281 Q640.3444,1124.625 640.485,1124.5625 Q640.6256,1124.5 640.7975,1124.5 Q641.1256,1124.5 641.36,1124.7656 Q641.61,1125.0156 641.61,1125.375 Q641.61,1125.7188 641.2663,1126.125 Q640.7663,1126.7188 639.9694,1127.0469 Q638.9225,1127.5 637.6413,1127.5 Q636.1413,1127.5 634.9381,1126.9063 Q633.9694,1126.4375 633.2819,1125.4219 Q632.61,1124.4063 632.61,1123.2031 L632.61,1122.1094 Q632.61,1120.8594 633.2038,1119.7656 Q633.8131,1118.6719 634.86,1118.0938 Q635.9225,1117.5 637.11,1117.5 Q637.8288,1117.5 638.4538,1117.75 Q639.0788,1118 639.61,1118.5 Z " fill="#000000"/><text fill="#000000" font-family="sans-serif" font-size="14" lengthAdjust="spacing" textLength="116" x="658.11" y="1127.7285">VaccinationCenter</text><line style="stroke:#181818;stroke-width:0.5;" x1="174.86" x2="1224.86" y1="1138" y2="1138"/><text fill="#000000" font-family="sans-serif" font-size="14" lengthAdjust="spacing" textLength="43" x="179.86" y="1156.5332">-id : int</text><text fill="#000000" font-family="sans-serif" font-size="14" lengthAdjust="spacing" textLength="89" x="179.86" y="1174.1426">-name : String</text><text fill="#000000" font-family="sans-serif" font-size="14" lengthAdjust="spacing" textLength="196" x="179.86" y="1191.752">-phoneNumber : PhoneNumber</text><text fill="#000000" font-family="sans-serif" font-size="14" lengthAdjust="spacing" textLength="84" x="179.86" y="1209.3613">-email : Email</text><text fill="#000000" font-family="sans-serif" font-size="14" lengthAdjust="spacing" textLength="125" x="179.86" y="1226.9707">-fax : PhoneNumber</text><text fill="#000000" font-family="sans-serif" font-size="14" lengthAdjust="spacing" textLength="115" x="179.86" y="1244.5801">-website : Website</text><text fill="#000000" font-family="sans-serif" font-size="14" lengthAdjust="spacing" textLength="193" x="179.86" y="1262.1895">-openingHour : LocalDateTime</text><text fill="#000000" font-family="sans-serif" font-size="14" lengthAdjust="spacing" textLength="186" x="179.86" y="1279.7988">-closingHour : LocalDateTime</text><text fill="#000000" font-family="sans-serif" font-size="14" lengthAdjust="spacing" textLength="108" x="179.86" y="1297.4082">-slotDuration : int</text><text fill="#000000" font-family="sans-serif" font-size="14" lengthAdjust="spacing" textLength="133" x="179.86" y="1315.0176">-vaccinesPerSlot : int</text><text fill="#000000" font-family="sans-serif" font-size="14" lengthAdjust="spacing" textLength="83" x="179.86" y="1332.627">-road : String</text><text fill="#000000" font-family="sans-serif" font-size="14" lengthAdjust="spacing" textLength="121" x="179.86" y="1350.2363">-zipCode : ZipCode</text><text fill="#000000" font-family="sans-serif" font-size="14" lengthAdjust="spacing" textLength="83" x="179.86" y="1367.8457">-local : String</text><text fill="#000000" font-family="sans-serif" font-size="14" lengthAdjust="spacing" textLength="160" x="179.86" y="1385.4551">-centerCoordinatorID : int</text><line style="stroke:#181818;stroke-width:0.5;" x1="174.86" x2="1224.86" y1="1392.5313" y2="1392.5313"/><text fill="#000000" font-family="sans-serif" font-size="14" lengthAdjust="spacing" textLength="1040" x="179.86" y="1411.0645">+VaccinationCenter(id, name, phoneNumber, email, fax, website, openingHour, closingHour, slotDuration, vaccinesPerSlot, road, zipCode, local, centerCoordinatorID)</text><text fill="#000000" font-family="sans-serif" font-size="14" lengthAdjust="spacing" textLength="256" x="179.86" y="1428.6738">+addFullyVaccinated(newAdministration)</text><text fill="#000000" font-family="sans-serif" font-size="14" lengthAdjust="spacing" textLength="162" x="179.86" y="1446.2832">-getVaccinationStatsList()</text><text fill="#000000" font-family="sans-serif" font-size="14" lengthAdjust="spacing" textLength="369" x="179.86" y="1463.8926">+getVaccinationStatsListBetweenDates(firstDate, lastDate)</text><text fill="#000000" font-family="sans-serif" font-size="14" lengthAdjust="spacing" textLength="270" x="179.86" y="1481.502">+getFirstDateAvailable(listFullyVaccinated)</text></g><!--MD5=[c6871c470bedcfae230ac99e02851447]
class VaccinationCentersStore--><g id="elem_VaccinationCentersStore"><rect codeLine="72" fill="#F1F1F1" height="100.8281" id="VaccinationCentersStore" rx="2.5" ry="2.5" style="stroke:#181818;stroke-width:0.5;" width="410" x="398.86" y="927"/><ellipse cx="521.11" cy="943" fill="#ADD1B2" rx="11" ry="11" style="stroke:#181818;stroke-width:1.0;"/><path d="M523.11,939.5 Q523.3131,939 523.5475,938.75 Q523.7819,938.5 524.0475,938.5 Q524.5163,938.5 524.8131,938.7813 Q525.11,939.0625 525.11,939.7188 L525.11,941.2813 Q525.11,941.9375 524.8288,942.2188 Q524.5475,942.5 524.11,942.5 Q523.7194,942.5 523.4694,942.3281 Q523.2194,942.1563 523.11,941.7031 Q523.0631,941.3906 522.8913,941.2188 Q522.5788,940.8906 522.0163,940.7031 Q521.4538,940.5 520.8913,940.5 Q520.1881,940.5 519.5944,940.7813 Q519.0163,941.0625 518.5631,941.6875 Q518.11,942.3125 518.11,943.1719 L518.11,944.0938 Q518.11,945.125 518.9538,945.8125 Q519.7975,946.5 521.2975,946.5 Q522.1881,946.5 522.8131,946.2969 Q523.1725,946.1875 523.5788,945.8281 Q523.8444,945.625 523.985,945.5625 Q524.1256,945.5 524.2975,945.5 Q524.6256,945.5 524.86,945.7656 Q525.11,946.0156 525.11,946.375 Q525.11,946.7188 524.7663,947.125 Q524.2663,947.7188 523.4694,948.0469 Q522.4225,948.5 521.1413,948.5 Q519.6413,948.5 518.4381,947.9063 Q517.4694,947.4375 516.7819,946.4219 Q516.11,945.4063 516.11,944.2031 L516.11,943.1094 Q516.11,941.8594 516.7038,940.7656 Q517.3131,939.6719 518.36,939.0938 Q519.4225,938.5 520.61,938.5 Q521.3288,938.5 521.9538,938.75 Q522.5788,939 523.11,939.5 Z " fill="#000000"/><text fill="#000000" font-family="sans-serif" font-size="14" lengthAdjust="spacing" textLength="157" x="541.61" y="948.7285">VaccinationCentersStore</text><line style="stroke:#181818;stroke-width:0.5;" x1="399.86" x2="807.86" y1="959" y2="959"/><text fill="#000000" font-family="sans-serif" font-size="14" lengthAdjust="spacing" textLength="292" x="404.86" y="977.5332">-vaccinationCenters : List&lt;VaccinationCenter&gt;</text><line style="stroke:#181818;stroke-width:0.5;" x1="399.86" x2="807.86" y1="984.6094" y2="984.6094"/><text fill="#000000" font-family="sans-serif" font-size="14" lengthAdjust="spacing" textLength="161" x="404.86" y="1003.1426">+getVaccinationCenters()</text><text fill="#000000" font-family="sans-serif" font-size="14" lengthAdjust="spacing" textLength="398" x="404.86" y="1020.752">+getVaccinationCenterAssociatedToCoordinator(coordinatorId)</text></g><!--MD5=[950bab46f39ba9ae59885963abb53c18]
class Arrival--><g id="elem_Arrival"><rect codeLine="79" fill="#F1F1F1" height="83.2188" id="Arrival" rx="2.5" ry="2.5" style="stroke:#181818;stroke-width:0.5;" width="194" x="230.86" y="1567"/><ellipse cx="303.61" cy="1583" fill="#ADD1B2" rx="11" ry="11" style="stroke:#181818;stroke-width:1.0;"/><path d="M305.61,1579.5 Q305.8131,1579 306.0475,1578.75 Q306.2819,1578.5 306.5475,1578.5 Q307.0163,1578.5 307.3131,1578.7813 Q307.61,1579.0625 307.61,1579.7188 L307.61,1581.2813 Q307.61,1581.9375 307.3288,1582.2188 Q307.0475,1582.5 306.61,1582.5 Q306.2194,1582.5 305.9694,1582.3281 Q305.7194,1582.1563 305.61,1581.7031 Q305.5631,1581.3906 305.3913,1581.2188 Q305.0788,1580.8906 304.5163,1580.7031 Q303.9538,1580.5 303.3913,1580.5 Q302.6881,1580.5 302.0944,1580.7813 Q301.5163,1581.0625 301.0631,1581.6875 Q300.61,1582.3125 300.61,1583.1719 L300.61,1584.0938 Q300.61,1585.125 301.4538,1585.8125 Q302.2975,1586.5 303.7975,1586.5 Q304.6881,1586.5 305.3131,1586.2969 Q305.6725,1586.1875 306.0788,1585.8281 Q306.3444,1585.625 306.485,1585.5625 Q306.6256,1585.5 306.7975,1585.5 Q307.1256,1585.5 307.36,1585.7656 Q307.61,1586.0156 307.61,1586.375 Q307.61,1586.7188 307.2663,1587.125 Q306.7663,1587.7188 305.9694,1588.0469 Q304.9225,1588.5 303.6413,1588.5 Q302.1413,1588.5 300.9381,1587.9063 Q299.9694,1587.4375 299.2819,1586.4219 Q298.61,1585.4063 298.61,1584.2031 L298.61,1583.1094 Q298.61,1581.8594 299.2038,1580.7656 Q299.8131,1579.6719 300.86,1579.0938 Q301.9225,1578.5 303.11,1578.5 Q303.8288,1578.5 304.4538,1578.75 Q305.0788,1579 305.61,1579.5 Z " fill="#000000"/><text fill="#000000" font-family="sans-serif" font-size="14" lengthAdjust="spacing" textLength="40" x="324.11" y="1588.7285">Arrival</text><line style="stroke:#181818;stroke-width:0.5;" x1="231.86" x2="423.86" y1="1599" y2="1599"/><text fill="#000000" font-family="sans-serif" font-size="14" lengthAdjust="spacing" textLength="103" x="236.86" y="1617.5332">-snsNumber : int</text><text fill="#000000" font-family="sans-serif" font-size="14" lengthAdjust="spacing" textLength="182" x="236.86" y="1635.1426">-arrivalTime : LocalDateTime</text><line style="stroke:#181818;stroke-width:0.5;" x1="231.86" x2="423.86" y1="1642.2188" y2="1642.2188"/></g><!--MD5=[48df65130f715be277a00ee6d54f7c6c]
class Departure--><g id="elem_Departure"><rect codeLine="84" fill="#F1F1F1" height="83.2188" id="Departure" rx="2.5" ry="2.5" style="stroke:#181818;stroke-width:0.5;" width="217" x="525.36" y="1567"/><ellipse cx="597.61" cy="1583" fill="#ADD1B2" rx="11" ry="11" style="stroke:#181818;stroke-width:1.0;"/><path d="M599.61,1579.5 Q599.8131,1579 600.0475,1578.75 Q600.2819,1578.5 600.5475,1578.5 Q601.0163,1578.5 601.3131,1578.7813 Q601.61,1579.0625 601.61,1579.7188 L601.61,1581.2813 Q601.61,1581.9375 601.3288,1582.2188 Q601.0475,1582.5 600.61,1582.5 Q600.2194,1582.5 599.9694,1582.3281 Q599.7194,1582.1563 599.61,1581.7031 Q599.5631,1581.3906 599.3913,1581.2188 Q599.0788,1580.8906 598.5163,1580.7031 Q597.9538,1580.5 597.3913,1580.5 Q596.6881,1580.5 596.0944,1580.7813 Q595.5163,1581.0625 595.0631,1581.6875 Q594.61,1582.3125 594.61,1583.1719 L594.61,1584.0938 Q594.61,1585.125 595.4538,1585.8125 Q596.2975,1586.5 597.7975,1586.5 Q598.6881,1586.5 599.3131,1586.2969 Q599.6725,1586.1875 600.0788,1585.8281 Q600.3444,1585.625 600.485,1585.5625 Q600.6256,1585.5 600.7975,1585.5 Q601.1256,1585.5 601.36,1585.7656 Q601.61,1586.0156 601.61,1586.375 Q601.61,1586.7188 601.2663,1587.125 Q600.7663,1587.7188 599.9694,1588.0469 Q598.9225,1588.5 597.6413,1588.5 Q596.1413,1588.5 594.9381,1587.9063 Q593.9694,1587.4375 593.2819,1586.4219 Q592.61,1585.4063 592.61,1584.2031 L592.61,1583.1094 Q592.61,1581.8594 593.2038,1580.7656 Q593.8131,1579.6719 594.86,1579.0938 Q595.9225,1578.5 597.11,1578.5 Q597.8288,1578.5 598.4538,1578.75 Q599.0788,1579 599.61,1579.5 Z " fill="#000000"/><text fill="#000000" font-family="sans-serif" font-size="14" lengthAdjust="spacing" textLength="64" x="618.11" y="1588.7285">Departure</text><line style="stroke:#181818;stroke-width:0.5;" x1="526.36" x2="741.36" y1="1599" y2="1599"/><text fill="#000000" font-family="sans-serif" font-size="14" lengthAdjust="spacing" textLength="103" x="531.36" y="1617.5332">-snsNumber : int</text><text fill="#000000" font-family="sans-serif" font-size="14" lengthAdjust="spacing" textLength="205" x="531.36" y="1635.1426">-departureTime : LocalDateTime</text><line style="stroke:#181818;stroke-width:0.5;" x1="526.36" x2="741.36" y1="1642.2188" y2="1642.2188"/></g><!--MD5=[0272a23692617c5db7456d6ea983d764]
class PerformanceAnalyzer--><g id="elem_PerformanceAnalyzer"><rect codeLine="89" fill="#F1F1F1" height="48" id="PerformanceAnalyzer" rx="2.5" ry="2.5" style="stroke:#181818;stroke-width:0.5;" width="167" x="100.36" y="953.5"/><ellipse cx="115.36" cy="969.5" fill="#ADD1B2" rx="11" ry="11" style="stroke:#181818;stroke-width:1.0;"/><path d="M117.36,966 Q117.5631,965.5 117.7975,965.25 Q118.0319,965 118.2975,965 Q118.7663,965 119.0631,965.2813 Q119.36,965.5625 119.36,966.2188 L119.36,967.7813 Q119.36,968.4375 119.0788,968.7188 Q118.7975,969 118.36,969 Q117.9694,969 117.7194,968.8281 Q117.4694,968.6563 117.36,968.2031 Q117.3131,967.8906 117.1413,967.7188 Q116.8288,967.3906 116.2663,967.2031 Q115.7038,967 115.1413,967 Q114.4381,967 113.8444,967.2813 Q113.2663,967.5625 112.8131,968.1875 Q112.36,968.8125 112.36,969.6719 L112.36,970.5938 Q112.36,971.625 113.2038,972.3125 Q114.0475,973 115.5475,973 Q116.4381,973 117.0631,972.7969 Q117.4225,972.6875 117.8288,972.3281 Q118.0944,972.125 118.235,972.0625 Q118.3756,972 118.5475,972 Q118.8756,972 119.11,972.2656 Q119.36,972.5156 119.36,972.875 Q119.36,973.2188 119.0163,973.625 Q118.5163,974.2188 117.7194,974.5469 Q116.6725,975 115.3913,975 Q113.8913,975 112.6881,974.4063 Q111.7194,973.9375 111.0319,972.9219 Q110.36,971.9063 110.36,970.7031 L110.36,969.6094 Q110.36,968.3594 110.9538,967.2656 Q111.5631,966.1719 112.61,965.5938 Q113.6725,965 114.86,965 Q115.5788,965 116.2038,965.25 Q116.8288,965.5 117.36,966 Z " fill="#000000"/><text fill="#000000" font-family="sans-serif" font-size="14" lengthAdjust="spacing" textLength="135" x="129.36" y="975.2285">PerformanceAnalyzer</text><line style="stroke:#181818;stroke-width:0.5;" x1="101.36" x2="266.36" y1="985.5" y2="985.5"/><line style="stroke:#181818;stroke-width:0.5;" x1="101.36" x2="266.36" y1="993.5" y2="993.5"/></g><!--MD5=[0e501da62322464167c8ec4d233a6b7e]
class VaccineType--><g id="elem_VaccineType"><rect codeLine="92" fill="#F1F1F1" height="100.8281" id="VaccineType" rx="2.5" ry="2.5" style="stroke:#181818;stroke-width:0.5;" width="135" x="260.36" y="1728"/><ellipse cx="284.81" cy="1744" fill="#ADD1B2" rx="11" ry="11" style="stroke:#181818;stroke-width:1.0;"/><path d="M286.81,1740.5 Q287.0131,1740 287.2475,1739.75 Q287.4819,1739.5 287.7475,1739.5 Q288.2163,1739.5 288.5131,1739.7813 Q288.81,1740.0625 288.81,1740.7188 L288.81,1742.2813 Q288.81,1742.9375 288.5288,1743.2188 Q288.2475,1743.5 287.81,1743.5 Q287.4194,1743.5 287.1694,1743.3281 Q286.9194,1743.1563 286.81,1742.7031 Q286.7631,1742.3906 286.5913,1742.2188 Q286.2788,1741.8906 285.7163,1741.7031 Q285.1538,1741.5 284.5913,1741.5 Q283.8881,1741.5 283.2944,1741.7813 Q282.7163,1742.0625 282.2631,1742.6875 Q281.81,1743.3125 281.81,1744.1719 L281.81,1745.0938 Q281.81,1746.125 282.6538,1746.8125 Q283.4975,1747.5 284.9975,1747.5 Q285.8881,1747.5 286.5131,1747.2969 Q286.8725,1747.1875 287.2788,1746.8281 Q287.5444,1746.625 287.685,1746.5625 Q287.8256,1746.5 287.9975,1746.5 Q288.3256,1746.5 288.56,1746.7656 Q288.81,1747.0156 288.81,1747.375 Q288.81,1747.7188 288.4663,1748.125 Q287.9663,1748.7188 287.1694,1749.0469 Q286.1225,1749.5 284.8413,1749.5 Q283.3413,1749.5 282.1381,1748.9063 Q281.1694,1748.4375 280.4819,1747.4219 Q279.81,1746.4063 279.81,1745.2031 L279.81,1744.1094 Q279.81,1742.8594 280.4038,1741.7656 Q281.0131,1740.6719 282.06,1740.0938 Q283.1225,1739.5 284.31,1739.5 Q285.0288,1739.5 285.6538,1739.75 Q286.2788,1740 286.81,1740.5 Z " fill="#000000"/><text fill="#000000" font-family="sans-serif" font-size="14" lengthAdjust="spacing" textLength="82" x="300.91" y="1749.7285">VaccineType</text><line style="stroke:#181818;stroke-width:0.5;" x1="261.36" x2="394.36" y1="1760" y2="1760"/><text fill="#000000" font-family="sans-serif" font-size="14" lengthAdjust="spacing" textLength="85" x="266.36" y="1778.5332">-code : String</text><text fill="#000000" font-family="sans-serif" font-size="14" lengthAdjust="spacing" textLength="123" x="266.36" y="1796.1426">-description : String</text><text fill="#000000" font-family="sans-serif" font-size="14" lengthAdjust="spacing" textLength="123" x="266.36" y="1813.752">-technology : String</text><line style="stroke:#181818;stroke-width:0.5;" x1="261.36" x2="394.36" y1="1820.8281" y2="1820.8281"/></g><!--MD5=[49a15542884c43ce36329a5ca0fe3da5]
link CheckAndExportVacStatsGUI to CheckAndExportVaccinationStatsController--><g id="link_CheckAndExportVacStatsGUI_CheckAndExportVaccinationStatsController"><path codeLine="99" d="M702.86,372.2 C702.86,398.77 702.86,425.99 702.86,451.72 " fill="none" id="CheckAndExportVacStatsGUI-to-CheckAndExportVaccinationStatsController" style="stroke:#181818;stroke-width:1.0;stroke-dasharray:7.0,7.0;"/><polygon fill="#181818" points="702.86,456.84,706.86,447.84,702.86,451.84,698.86,447.84,702.86,456.84" style="stroke:#181818;stroke-width:1.0;"/></g><!--MD5=[bccdf9b4c4c72c3f1b1ff23b59954d42]
link CheckAndExportVaccinationStatsController to VaccinationCentersStore--><g id="link_CheckAndExportVaccinationStatsController_VaccinationCentersStore"><path codeLine="103" d="M692.42,716.18 C687.16,758.92 679.36,806.44 667.86,849 C661.83,871.31 657.92,876.19 647.86,897 C643.86,905.27 639.41,913.89 634.91,922.27 " fill="none" id="CheckAndExportVaccinationStatsController-to-VaccinationCentersStore" style="stroke:#181818;stroke-width:1.0;stroke-dasharray:7.0,7.0;"/><polygon fill="#181818" points="632.41,926.9,640.2011,920.8752,634.7822,922.4986,633.1588,917.0796,632.41,926.9" style="stroke:#181818;stroke-width:1.0;"/></g><!--MD5=[dbd3c99bf3c9da99ac3c6aa9773f4967]
link CheckAndExportVaccinationStatsController to VaccinationCenter--><g id="link_CheckAndExportVaccinationStatsController_VaccinationCenter"><path codeLine="104" d="M774.01,716.2 C813.66,803.55 850.67,922 826.86,1028 C821.4,1052.29 813.49,1076.97 804.24,1101.03 " fill="none" id="CheckAndExportVaccinationStatsController-to-VaccinationCenter" style="stroke:#181818;stroke-width:1.0;stroke-dasharray:7.0,7.0;"/><polygon fill="#181818" points="802.37,1105.83,809.3641,1098.8959,804.185,1101.1711,801.9098,1095.9919,802.37,1105.83" style="stroke:#181818;stroke-width:1.0;"/></g><!--MD5=[f4ecbfdd85ceba349ca2dd49a68e3853]
link CheckAndExportVaccinationStatsController to Company--><g id="link_CheckAndExportVaccinationStatsController_Company"><path codeLine="105" d="M649.01,716.13 C636.33,746.42 624.04,775.8 615.49,796.22 " fill="none" id="CheckAndExportVaccinationStatsController-to-Company" style="stroke:#181818;stroke-width:1.0;stroke-dasharray:7.0,7.0;"/><polygon fill="#181818" points="613.51,800.96,620.6713,794.1986,615.4381,796.3467,613.29,791.1136,613.51,800.96" style="stroke:#181818;stroke-width:1.0;"/></g><!--MD5=[29286e1800b224f442cd4de52a9be642]
link Company to VaccinationCentersStore--><g id="link_Company_VaccinationCentersStore"><path codeLine="111" d="M603.86,849.19 C603.86,869.8 603.86,900.64 603.86,926.8 " fill="none" id="Company-VaccinationCentersStore" style="stroke:#181818;stroke-width:1.0;"/><polygon fill="#000000" points="608.86,893.1758,611.7989,884.1307,605.9211,884.1307,608.86,893.1758" style="stroke:#000000;stroke-width:1.0;"/><text fill="#000000" font-family="sans-serif" font-size="13" lengthAdjust="spacing" textLength="21" x="617.86" y="893.4951">has</text><text fill="#000000" font-family="sans-serif" font-size="13" lengthAdjust="spacing" textLength="7" x="596.0069" y="870.5743">1</text><text fill="#000000" font-family="sans-serif" font-size="13" lengthAdjust="spacing" textLength="7" x="596.3678" y="916.0772">1</text></g><!--MD5=[f36d163a63d7d7b60e9f6201c7b725d8]
link VaccinationCentersStore to VaccinationCenter--><g id="link_VaccinationCentersStore_VaccinationCenter"><path codeLine="112" d="M618.86,1028.19 C625.45,1050.02 633.65,1077.19 642.28,1105.78 " fill="none" id="VaccinationCentersStore-VaccinationCenter" style="stroke:#181818;stroke-width:1.0;"/><polygon fill="#000000" points="638.3048,1071.9625,638.5047,1062.454,632.8776,1064.1525,638.3048,1071.9625" style="stroke:#000000;stroke-width:1.0;"/><text fill="#000000" font-family="sans-serif" font-size="13" lengthAdjust="spacing" textLength="21" x="645.86" y="1072.4951">has</text><text fill="#000000" font-family="sans-serif" font-size="13" lengthAdjust="spacing" textLength="7" x="613.3334" y="1049.2383">1</text><text fill="#000000" font-family="sans-serif" font-size="13" lengthAdjust="spacing" textLength="5" x="634.7454" y="1094.8657">*</text></g><!--MD5=[3d0c769b877f7b2bf012ca4ef86fbcd8]
link PerformanceAnalyzer to VaccinationCenter--><g id="link_PerformanceAnalyzer_VaccinationCenter"><path codeLine="113" d="M221.39,1001.63 C258.72,1024.63 319.87,1062.32 386.17,1103.18 " fill="none" id="PerformanceAnalyzer-to-VaccinationCenter" style="stroke:#181818;stroke-width:1.0;"/><polygon fill="#181818" points="390.54,1105.87,384.9639,1097.7517,386.2793,1103.2535,380.7775,1104.5689,390.54,1105.87" style="stroke:#181818;stroke-width:1.0;"/><polygon fill="#000000" points="345.1166,1069.799,338.9582,1062.5516,335.8744,1067.5555,345.1166,1069.799" style="stroke:#000000;stroke-width:1.0;"/><text fill="#000000" font-family="sans-serif" font-size="13" lengthAdjust="spacing" textLength="52" x="349.86" y="1072.4951">analyzes</text><text fill="#000000" font-family="sans-serif" font-size="13" lengthAdjust="spacing" textLength="7" x="222.6848" y="1022.9997">1</text><text fill="#000000" font-family="sans-serif" font-size="13" lengthAdjust="spacing" textLength="7" x="370.3429" y="1094.9595">1</text></g><!--MD5=[24b69a571b306a26ee3f78b0f8b89751]
link VaccinationCenter to Arrival--><g id="link_VaccinationCenter_Arrival"><path codeLine="114" d="M470.36,1489.14 C435.12,1518.4 402.09,1545.84 376.72,1566.91 " fill="none" id="VaccinationCenter-Arrival" style="stroke:#181818;stroke-width:1.0;"/><polygon fill="#000000" points="428.0136,1531.3703,436.8495,1527.8522,433.0941,1523.3305,428.0136,1531.3703" style="stroke:#000000;stroke-width:1.0;"/><text fill="#000000" font-family="sans-serif" font-size="13" lengthAdjust="spacing" textLength="21" x="440.86" y="1533.4951">has</text><text fill="#000000" font-family="sans-serif" font-size="13" lengthAdjust="spacing" textLength="7" x="454.9866" y="1509.8236">1</text><text fill="#000000" font-family="sans-serif" font-size="13" lengthAdjust="spacing" textLength="5" x="379.3984" y="1556.2028">*</text></g><!--MD5=[cd314741d42872d131417dfbfe8ad369]
link VaccinationCenter to Departure--><g id="link_VaccinationCenter_Departure"><path codeLine="115" d="M659.09,1489.36 C652.85,1518.58 647,1545.97 642.51,1567 " fill="none" id="VaccinationCenter-Departure" style="stroke:#181818;stroke-width:1.0;"/><polygon fill="#000000" points="654.8158,1533.0655,659.5789,1524.8337,653.8307,1523.6061,654.8158,1533.0655" style="stroke:#000000;stroke-width:1.0;"/><text fill="#000000" font-family="sans-serif" font-size="13" lengthAdjust="spacing" textLength="21" x="664.86" y="1533.4951">has</text><text fill="#000000" font-family="sans-serif" font-size="13" lengthAdjust="spacing" textLength="7" x="650.499" y="1510.0515">1</text><text fill="#000000" font-family="sans-serif" font-size="13" lengthAdjust="spacing" textLength="5" x="638.567" y="1555.9987">*</text></g><!--MD5=[f9dceafae6c80ef500390e48f4c78dac]
link PerformanceAnalyzer to Arrival--><g id="link_PerformanceAnalyzer_Arrival"><path codeLine="116" d="M162.3,1001.5 C149.88,1016.38 135.46,1036.85 128.86,1058 C65.42,1261.22 6,1363.14 128.86,1537 C151.23,1568.66 189.08,1586.19 225.79,1595.86 " fill="none" id="PerformanceAnalyzer-to-Arrival" style="stroke:#181818;stroke-width:1.0;stroke-dasharray:7.0,7.0;"/><polygon fill="#181818" points="230.73,1597.12,222.9899,1591.0297,225.8835,1595.8905,221.0227,1598.7841,230.73,1597.12" style="stroke:#181818;stroke-width:1.0;"/></g><!--MD5=[3b2a3803a3cc196c65c29becb4da42bf]
link PerformanceAnalyzer to Departure--><g id="link_PerformanceAnalyzer_Departure"><path codeLine="117" d="M173.01,1001.75 C138.18,1080.18 38.13,1338.52 155.86,1489 C167.27,1503.58 382.21,1552.71 519.94,1582.94 " fill="none" id="PerformanceAnalyzer-to-Departure" style="stroke:#181818;stroke-width:1.0;stroke-dasharray:7.0,7.0;"/><polygon fill="#181818" points="525.22,1584.1,517.2857,1578.265,520.3361,1583.029,515.5721,1586.0793,525.22,1584.1" style="stroke:#181818;stroke-width:1.0;"/></g><!--MD5=[8ab310ebe45c50da8b17af16991aa83b]
link Arrival to VaccineType--><g id="link_Arrival_VaccineType"><path codeLine="118" d="M327.86,1650.17 C327.86,1673.57 327.86,1703.15 327.86,1727.91 " fill="none" id="Arrival-VaccineType" style="stroke:#181818;stroke-width:1.0;"/><polygon fill="#000000" points="332.86,1694.1758,335.7989,1685.1307,329.9211,1685.1307,332.86,1694.1758" style="stroke:#000000;stroke-width:1.0;"/><text fill="#000000" font-family="sans-serif" font-size="13" lengthAdjust="spacing" textLength="92" x="341.86" y="1694.4951">is associated to</text><text fill="#000000" font-family="sans-serif" font-size="13" lengthAdjust="spacing" textLength="5" x="322.4616" y="1671.5919">*</text><text fill="#000000" font-family="sans-serif" font-size="13" lengthAdjust="spacing" textLength="7" x="320.3678" y="1717.2027">1</text></g><!--MD5=[f1fe7a427892a02acaf4552976b41e53]
@startuml
skinparam classAttributeIconSize 0


package UI{
class CheckAndExportVacStatsGUI {
-controller : CheckAndExportVaccinationStatsController
-firstDatePicker : DatePicker
-lastDatePicker : DatePicker
-okBtn : Button
-askFileNameTxt : TextArea

+CheckAndExportVacStatsGUI()
+back(event)
+setFirstDate(firstDate)
+setLastDate(lastDate)
+setFirstDatePicker(firstDate)
+setLastDatePicker(lastDate)
+checkStatistics(event)
+exportStatistics(event)
+exportStatisticsOption(event)
-toCheckVacStatsScene(event)
-toCenterCoordinatorMenu(event)

}
}


package Controller{
class CheckAndExportVaccinationStatsController {
-center : VaccinationCenter
- firstDate : LocalDate
- lastDate : LocalDate
+CheckAndExportVaccinationStatsController()
+setFirstDate(firstDate)
+setLastDate(lastDate)
+getFirstDate()
+getLastDate()
+checkIfDatesAreValid()
+exportVaccinationStatistics(fileName)
+getVaccinationStatsListBetweenDates()
+toCheckVaccinationStatsScene(event)
}
}

package Domain {
class Company{

}

class VaccinationCenter {
-id : int
-name : String
-phoneNumber : PhoneNumber
-email : Email
-fax : PhoneNumber
-website : Website
-openingHour : LocalDateTime
-closingHour : LocalDateTime
-slotDuration : int
-vaccinesPerSlot : int
-road : String
-zipCode : ZipCode
-local : String
-centerCoordinatorID : int
+VaccinationCenter(id, name, phoneNumber, email, fax, website, openingHour, closingHour, slotDuration, vaccinesPerSlot, road, zipCode, local, centerCoordinatorID)
+addFullyVaccinated(newAdministration)
-getVaccinationStatsList()
+getVaccinationStatsListBetweenDates(firstDate, lastDate)
+getFirstDateAvailable(listFullyVaccinated)
}

class VaccinationCentersStore {
-vaccinationCenters : List<VaccinationCenter>
+getVaccinationCenters()
+getVaccinationCenterAssociatedToCoordinator(coordinatorId)

}

class Arrival {
-snsNumber : int
-arrivalTime : LocalDateTime
}

class Departure {
-snsNumber : int
-departureTime : LocalDateTime
}

class PerformanceAnalyzer {
}

class VaccineType {
-code : String
-description : String
-technology : String
}
 }
'UI
CheckAndExportVacStatsGUI ..> CheckAndExportVaccinationStatsController

'CONTROLLER

CheckAndExportVaccinationStatsController ..> VaccinationCentersStore
CheckAndExportVaccinationStatsController ..> VaccinationCenter
CheckAndExportVaccinationStatsController ..> Company



'DOMAIN

Company "1" - - "1" VaccinationCentersStore : has >
VaccinationCentersStore "1" - - "*" VaccinationCenter : has >
PerformanceAnalyzer "1" - -> "1" VaccinationCenter : analyzes >
VaccinationCenter "1" - - "*" Arrival : has >
VaccinationCenter "1" - - "*" Departure : has >
PerformanceAnalyzer ..> Arrival
PerformanceAnalyzer ..> Departure
Arrival "*" - - "1" VaccineType : is associated to >


@enduml

@startuml
skinparam classAttributeIconSize 0


package UI{
class CheckAndExportVacStatsGUI {
-controller : CheckAndExportVaccinationStatsController
-firstDatePicker : DatePicker
-lastDatePicker : DatePicker
-okBtn : Button
-askFileNameTxt : TextArea

+CheckAndExportVacStatsGUI()
+back(event)
+setFirstDate(firstDate)
+setLastDate(lastDate)
+setFirstDatePicker(firstDate)
+setLastDatePicker(lastDate)
+checkStatistics(event)
+exportStatistics(event)
+exportStatisticsOption(event)
-toCheckVacStatsScene(event)
-toCenterCoordinatorMenu(event)

}
}


package Controller{
class CheckAndExportVaccinationStatsController {
-center : VaccinationCenter
- firstDate : LocalDate
- lastDate : LocalDate
+CheckAndExportVaccinationStatsController()
+setFirstDate(firstDate)
+setLastDate(lastDate)
+getFirstDate()
+getLastDate()
+checkIfDatesAreValid()
+exportVaccinationStatistics(fileName)
+getVaccinationStatsListBetweenDates()
+toCheckVaccinationStatsScene(event)
}
}

package Domain {
class Company{

}

class VaccinationCenter {
-id : int
-name : String
-phoneNumber : PhoneNumber
-email : Email
-fax : PhoneNumber
-website : Website
-openingHour : LocalDateTime
-closingHour : LocalDateTime
-slotDuration : int
-vaccinesPerSlot : int
-road : String
-zipCode : ZipCode
-local : String
-centerCoordinatorID : int
+VaccinationCenter(id, name, phoneNumber, email, fax, website, openingHour, closingHour, slotDuration, vaccinesPerSlot, road, zipCode, local, centerCoordinatorID)
+addFullyVaccinated(newAdministration)
-getVaccinationStatsList()
+getVaccinationStatsListBetweenDates(firstDate, lastDate)
+getFirstDateAvailable(listFullyVaccinated)
}

class VaccinationCentersStore {
-vaccinationCenters : List<VaccinationCenter>
+getVaccinationCenters()
+getVaccinationCenterAssociatedToCoordinator(coordinatorId)

}

class Arrival {
-snsNumber : int
-arrivalTime : LocalDateTime
}

class Departure {
-snsNumber : int
-departureTime : LocalDateTime
}

class PerformanceAnalyzer {
}

class VaccineType {
-code : String
-description : String
-technology : String
}
 }
CheckAndExportVacStatsGUI ..> CheckAndExportVaccinationStatsController


CheckAndExportVaccinationStatsController ..> VaccinationCentersStore
CheckAndExportVaccinationStatsController ..> VaccinationCenter
CheckAndExportVaccinationStatsController ..> Company




Company "1" - - "1" VaccinationCentersStore : has >
VaccinationCentersStore "1" - - "*" VaccinationCenter : has >
PerformanceAnalyzer "1" - -> "1" VaccinationCenter : analyzes >
VaccinationCenter "1" - - "*" Arrival : has >
VaccinationCenter "1" - - "*" Departure : has >
PerformanceAnalyzer ..> Arrival
PerformanceAnalyzer ..> Departure
Arrival "*" - - "1" VaccineType : is associated to >


@enduml

PlantUML version 1.2022.5(Sat Apr 30 11:55:52 BST 2022)
(GPL source distribution)
Java Runtime: OpenJDK Runtime Environment
JVM: OpenJDK 64-Bit Server VM
Default Encoding: Cp1252
Language: en
Country: US
--></g></svg>