<?xml version="1.0" encoding="UTF-8" standalone="no"?><svg xmlns="http://www.w3.org/2000/svg" xmlns:xlink="http://www.w3.org/1999/xlink" contentStyleType="text/css" height="476px" preserveAspectRatio="none" style="width:581px;height:476px;background:#FFFFFF;" version="1.1" viewBox="0 0 581 476" width="581px" zoomAndPan="magnify"><defs/><g><rect fill="#FFFFFF" height="283.8672" style="stroke:#181818;stroke-width:1.0;" width="10" x="62" y="92.6094"/><rect fill="#FFFFFF" height="30.3516" style="stroke:#181818;stroke-width:1.0;" width="10" x="538" y="114.9609"/><rect fill="#FFFFFF" height="30.3516" style="stroke:#181818;stroke-width:1.0;" width="10" x="538" y="175.6641"/><rect fill="#FFFFFF" height="46.7031" style="stroke:#181818;stroke-width:1.0;" width="10" x="538" y="236.3672"/><rect fill="#FFFFFF" height="63.0547" style="stroke:#181818;stroke-width:1.0;" width="10" x="538" y="313.4219"/><line style="stroke:#181818;stroke-width:0.5;stroke-dasharray:5.0,5.0;" x1="67" x2="67" y1="82.6094" y2="394.4766"/><line style="stroke:#181818;stroke-width:0.5;stroke-dasharray:5.0,5.0;" x1="543" x2="543" y1="82.6094" y2="394.4766"/><text fill="#000000" font-family="sans-serif" font-size="14" lengthAdjust="spacing" textLength="118" x="5" y="79.5332">CenterCoordinator</text><ellipse cx="67" cy="13.5" fill="#E2E2F0" rx="8" ry="8" style="stroke:#181818;stroke-width:0.5;"/><path d="M67,21.5 L67,48.5 M54,29.5 L80,29.5 M67,48.5 L54,63.5 M67,48.5 L80,63.5 " fill="none" style="stroke:#181818;stroke-width:0.5;"/><text fill="#000000" font-family="sans-serif" font-size="14" lengthAdjust="spacing" textLength="118" x="5" y="408.0098">CenterCoordinator</text><ellipse cx="67" cy="419.5859" fill="#E2E2F0" rx="8" ry="8" style="stroke:#181818;stroke-width:0.5;"/><path d="M67,427.5859 L67,454.5859 M54,435.5859 L80,435.5859 M67,454.5859 L54,469.5859 M67,454.5859 L80,469.5859 " fill="none" style="stroke:#181818;stroke-width:0.5;"/><rect fill="#E2E2F0" height="31.6094" rx="2.5" ry="2.5" style="stroke:#181818;stroke-width:0.5;" width="64" x="511" y="50"/><text fill="#000000" font-family="sans-serif" font-size="14" lengthAdjust="spacing" textLength="50" x="518" y="71.5332">:System</text><rect fill="#E2E2F0" height="31.6094" rx="2.5" ry="2.5" style="stroke:#181818;stroke-width:0.5;" width="64" x="511" y="393.4766"/><text fill="#000000" font-family="sans-serif" font-size="14" lengthAdjust="spacing" textLength="50" x="518" y="415.0098">:System</text><rect fill="#FFFFFF" height="283.8672" style="stroke:#181818;stroke-width:1.0;" width="10" x="62" y="92.6094"/><rect fill="#FFFFFF" height="30.3516" style="stroke:#181818;stroke-width:1.0;" width="10" x="538" y="114.9609"/><rect fill="#FFFFFF" height="30.3516" style="stroke:#181818;stroke-width:1.0;" width="10" x="538" y="175.6641"/><rect fill="#FFFFFF" height="46.7031" style="stroke:#181818;stroke-width:1.0;" width="10" x="538" y="236.3672"/><rect fill="#FFFFFF" height="63.0547" style="stroke:#181818;stroke-width:1.0;" width="10" x="538" y="313.4219"/><polygon fill="#181818" points="526,110.9609,536,114.9609,526,118.9609,530,114.9609" style="stroke:#181818;stroke-width:1.0;"/><line style="stroke:#181818;stroke-width:1.0;" x1="72" x2="532" y1="114.9609" y2="114.9609"/><text fill="#000000" font-family="sans-serif" font-size="13" font-weight="bold" lengthAdjust="spacing" textLength="7" x="79" y="110.1045">1</text><text fill="#000000" font-family="sans-serif" font-size="13" lengthAdjust="spacing" textLength="339" x="90" y="110.1045">asks to analyze the performance of the Vaccination Center</text><polygon fill="#181818" points="83,141.3125,73,145.3125,83,149.3125,79,145.3125" style="stroke:#181818;stroke-width:1.0;"/><line style="stroke:#181818;stroke-width:1.0;stroke-dasharray:2.0,2.0;" x1="77" x2="542" y1="145.3125" y2="145.3125"/><text fill="#000000" font-family="sans-serif" font-size="13" font-weight="bold" lengthAdjust="spacing" textLength="7" x="89" y="140.4561">2</text><text fill="#000000" font-family="sans-serif" font-size="13" lengthAdjust="spacing" textLength="380" x="100" y="140.4561">shows the dates and requests the selection of one to be analyzed</text><polygon fill="#181818" points="526,171.6641,536,175.6641,526,179.6641,530,175.6641" style="stroke:#181818;stroke-width:1.0;"/><line style="stroke:#181818;stroke-width:1.0;" x1="72" x2="532" y1="175.6641" y2="175.6641"/><text fill="#000000" font-family="sans-serif" font-size="13" font-weight="bold" lengthAdjust="spacing" textLength="7" x="79" y="170.8076">3</text><text fill="#000000" font-family="sans-serif" font-size="13" lengthAdjust="spacing" textLength="96" x="90" y="170.8076">selects one date</text><polygon fill="#181818" points="83,202.0156,73,206.0156,83,210.0156,79,206.0156" style="stroke:#181818;stroke-width:1.0;"/><line style="stroke:#181818;stroke-width:1.0;stroke-dasharray:2.0,2.0;" x1="77" x2="542" y1="206.0156" y2="206.0156"/><text fill="#000000" font-family="sans-serif" font-size="13" font-weight="bold" lengthAdjust="spacing" textLength="7" x="89" y="201.1592">4</text><text fill="#000000" font-family="sans-serif" font-size="13" lengthAdjust="spacing" textLength="253" x="100" y="201.1592">request the input of a time interval (minutes)</text><polygon fill="#181818" points="526,232.3672,536,236.3672,526,240.3672,530,236.3672" style="stroke:#181818;stroke-width:1.0;"/><line style="stroke:#181818;stroke-width:1.0;" x1="72" x2="532" y1="236.3672" y2="236.3672"/><text fill="#000000" font-family="sans-serif" font-size="13" font-weight="bold" lengthAdjust="spacing" textLength="7" x="79" y="231.5107">5</text><text fill="#000000" font-family="sans-serif" font-size="13" lengthAdjust="spacing" textLength="127" x="90" y="231.5107">types the time interval</text><polygon fill="#181818" points="83,279.0703,73,283.0703,83,287.0703,79,283.0703" style="stroke:#181818;stroke-width:1.0;"/><line style="stroke:#181818;stroke-width:1.0;stroke-dasharray:2.0,2.0;" x1="77" x2="542" y1="283.0703" y2="283.0703"/><text fill="#000000" font-family="sans-serif" font-size="13" font-weight="bold" lengthAdjust="spacing" textLength="7" x="89" y="270.0381">6</text><text fill="#000000" font-family="sans-serif" font-size="13" lengthAdjust="spacing" textLength="274" x="100" y="261.8623">requests the confirmation of the selection of the</text><text fill="#000000" font-family="sans-serif" font-size="13" lengthAdjust="spacing" textLength="248" x="104" y="278.2139">date and of the insertion of the time interval</text><polygon fill="#181818" points="526,309.4219,536,313.4219,526,317.4219,530,313.4219" style="stroke:#181818;stroke-width:1.0;"/><line style="stroke:#181818;stroke-width:1.0;" x1="72" x2="532" y1="313.4219" y2="313.4219"/><text fill="#000000" font-family="sans-serif" font-size="13" font-weight="bold" lengthAdjust="spacing" textLength="7" x="79" y="308.5654">7</text><text fill="#000000" font-family="sans-serif" font-size="13" lengthAdjust="spacing" textLength="401" x="90" y="308.5654">confirms the selection of the date and the insertion of the time interval</text><polygon fill="#181818" points="78,372.4766,68,376.4766,78,380.4766,74,376.4766" style="stroke:#181818;stroke-width:1.0;"/><line style="stroke:#181818;stroke-width:1.0;stroke-dasharray:2.0,2.0;" x1="72" x2="542" y1="376.4766" y2="376.4766"/><text fill="#000000" font-family="sans-serif" font-size="13" font-weight="bold" lengthAdjust="spacing" textLength="7" x="84" y="355.2686">8</text><text fill="#000000" font-family="sans-serif" font-size="13" lengthAdjust="spacing" textLength="276" x="95" y="338.917">shows the input list, with the difference between</text><text fill="#000000" font-family="sans-serif" font-size="13" lengthAdjust="spacing" textLength="427" x="99" y="355.2686">the number of Arrivals and the number of Departures for each time interval,</text><text fill="#000000" font-family="sans-serif" font-size="13" lengthAdjust="spacing" textLength="336" x="99" y="371.6201">the sublist with the maximum sum and the maximum sum</text><!--MD5=[8965c4d78ca6c11d00f497b73f5d7bb6]
@startuml
autonumber

actor "CenterCoordinator" as CC

activate CC
CC -> ":System" : asks to analyze the performance of the Vaccination Center

activate ":System"
":System" - -> CC : shows the dates and requests the selection of one to be analyzed
deactivate ":System"
CC -> ":System" : selects one date

activate ":System"
":System" - -> CC : request the input of a time interval (minutes)
deactivate ":System"

CC -> ":System" : types the time interval

activate ":System"

 ":System" - -> CC : requests the confirmation of the selection of the\n date and of the insertion of the time interval

deactivate ":System"

CC -> ":System" : confirms the selection of the date and the insertion of the time interval


activate ":System"
 ":System" - -> CC : shows the input list, with the difference between\n the number of Arrivals and the number of Departures for each time interval,\n the sublist with the maximum sum and the maximum sum

deactivate ":System"




deactivate CC

@enduml

PlantUML version 1.2022.5(Sat Apr 30 11:55:52 BST 2022)
(GPL source distribution)
Java Runtime: OpenJDK Runtime Environment
JVM: OpenJDK 64-Bit Server VM
Default Encoding: Cp1252
Language: pt
Country: PT
--></g></svg>