<?xml version="1.0" encoding="UTF-8" standalone="no"?><svg xmlns="http://www.w3.org/2000/svg" xmlns:xlink="http://www.w3.org/1999/xlink" contentStyleType="text/css" height="2085px" preserveAspectRatio="none" style="width:2002px;height:2085px;background:#FFFFFF;" version="1.1" viewBox="0 0 2002 2085" width="2002px" zoomAndPan="magnify"><defs/><g><rect fill="#FFFFFF" height="1892.6875" style="stroke:#181818;stroke-width:1.0;" width="10" x="62" y="92.6094"/><rect fill="#FFFFFF" height="242.8125" style="stroke:#181818;stroke-width:1.0;" width="10" x="545" y="114.9609"/><rect fill="#FFFFFF" height="90.7031" style="stroke:#181818;stroke-width:1.0;" width="10" x="545" y="388.125"/><rect fill="#FFFFFF" height="46.7031" style="stroke:#181818;stroke-width:1.0;" width="10" x="545" y="509.1797"/><rect fill="#FFFFFF" height="1399.0625" style="stroke:#181818;stroke-width:1.0;" width="10" x="545" y="586.2344"/><rect fill="#FFFFFF" height="182.1094" style="stroke:#181818;stroke-width:1.0;" width="10" x="863" y="145.3125"/><rect fill="#FFFFFF" height="30" style="stroke:#181818;stroke-width:1.0;" width="10" x="863" y="418.4766"/><rect fill="#FFFFFF" height="268.4609" style="stroke:#181818;stroke-width:1.0;" width="10" x="863" y="616.5859"/><rect fill="#FFFFFF" height="30" style="stroke:#181818;stroke-width:1.0;" width="10" x="863" y="915.3984"/><rect fill="#FFFFFF" height="301.1641" style="stroke:#181818;stroke-width:1.0;" width="10" x="863" y="975.75"/><rect fill="#FFFFFF" height="225.4609" style="stroke:#181818;stroke-width:1.0;" width="10" x="863" y="1307.2656"/><rect fill="#FFFFFF" height="164.4063" style="stroke:#181818;stroke-width:1.0;" width="10" x="863" y="1563.0781"/><rect fill="#FFFFFF" height="164.4063" style="stroke:#181818;stroke-width:1.0;" width="10" x="863" y="1757.8359"/><rect fill="#FFFFFF" height="207.7578" style="stroke:#181818;stroke-width:1.0;" width="10" x="1211" y="646.9375"/><rect fill="#FFFFFF" height="28" style="stroke:#181818;stroke-width:1.0;" width="10" x="1216" y="685.2891"/><rect fill="#FFFFFF" height="65.7031" style="stroke:#181818;stroke-width:1.0;" width="10" x="1216" y="758.6406"/><rect fill="#FFFFFF" height="270.8125" style="stroke:#181818;stroke-width:1.0;" width="10" x="1211" y="1006.1016"/><rect fill="#FFFFFF" height="210.1094" style="stroke:#181818;stroke-width:1.0;" width="10" x="1216" y="1044.4531"/><rect fill="#FFFFFF" height="126.4063" style="stroke:#181818;stroke-width:1.0;" width="10" x="1221" y="1113.1563"/><rect fill="#FFFFFF" height="195.1094" style="stroke:#181818;stroke-width:1.0;" width="10" x="1211" y="1337.6172"/><rect fill="#FFFFFF" height="126.4063" style="stroke:#181818;stroke-width:1.0;" width="10" x="1216" y="1375.9688"/><rect fill="#FFFFFF" height="103.7031" style="stroke:#181818;stroke-width:1.0;" width="10" x="1211" y="1593.4297"/><rect fill="#FFFFFF" height="28" style="stroke:#181818;stroke-width:1.0;" width="10" x="1216" y="1631.7813"/><rect fill="#FFFFFF" height="103.7031" style="stroke:#181818;stroke-width:1.0;" width="10" x="1211" y="1788.1875"/><rect fill="#FFFFFF" height="28" style="stroke:#181818;stroke-width:1.0;" width="10" x="1216" y="1826.5391"/><rect fill="#FFFFFF" height="30.3516" style="stroke:#181818;stroke-width:1.0;" width="10" x="1613" y="175.6641"/><rect fill="#FFFFFF" height="30.3516" style="stroke:#181818;stroke-width:1.0;" width="10" x="1749.5" y="236.3672"/><rect fill="#FFFFFF" height="30.3516" style="stroke:#181818;stroke-width:1.0;" width="10" x="1914" y="297.0703"/><rect fill="#FFFFFF" height="30.3516" style="stroke:#181818;stroke-width:1.0;" width="10" x="1914" y="793.9922"/><rect fill="#FFFFFF" height="30.3516" style="stroke:#181818;stroke-width:1.0;" width="10" x="1914" y="1148.5078"/><rect fill="#FFFFFF" height="30.3516" style="stroke:#181818;stroke-width:1.0;" width="10" x="1914" y="1209.2109"/><rect fill="#FFFFFF" height="30.3516" style="stroke:#181818;stroke-width:1.0;" width="10" x="1914" y="1411.3203"/><rect fill="#FFFFFF" height="30.3516" style="stroke:#181818;stroke-width:1.0;" width="10" x="1914" y="1472.0234"/><rect height="183.1094" style="stroke:#000000;stroke-width:1.5;fill:none;" width="866.5" x="1129.5" y="1064.4531"/><line style="stroke:#181818;stroke-width:0.5;fill:none;stroke-dasharray:5.0,5.0;" x1="67" x2="67" y1="82.6094" y2="2003.2969"/><line style="stroke:#181818;stroke-width:0.5;fill:none;stroke-dasharray:5.0,5.0;" x1="550" x2="550" y1="82.6094" y2="2003.2969"/><line style="stroke:#181818;stroke-width:0.5;fill:none;stroke-dasharray:5.0,5.0;" x1="867.5" x2="867.5" y1="82.6094" y2="2003.2969"/><line style="stroke:#181818;stroke-width:0.5;fill:none;stroke-dasharray:5.0,5.0;" x1="1215.5" x2="1215.5" y1="82.6094" y2="2003.2969"/><line style="stroke:#181818;stroke-width:0.5;fill:none;stroke-dasharray:5.0,5.0;" x1="1618" x2="1618" y1="82.6094" y2="2003.2969"/><line style="stroke:#181818;stroke-width:0.5;fill:none;stroke-dasharray:5.0,5.0;" x1="1754" x2="1754" y1="82.6094" y2="2003.2969"/><line style="stroke:#181818;stroke-width:0.5;fill:none;stroke-dasharray:5.0,5.0;" x1="1919" x2="1919" y1="82.6094" y2="2003.2969"/><text fill="#000000" font-family="sans-serif" font-size="14" lengthAdjust="spacing" textLength="118" x="5" y="79.5332">CenterCoordinator</text><ellipse cx="67" cy="13.5" fill="#E2E2F0" rx="8" ry="8" style="stroke:#181818;stroke-width:0.5;"/><path d="M67,21.5 L67,48.5 M54,29.5 L80,29.5 M67,48.5 L54,63.5 M67,48.5 L80,63.5 " fill="none" style="stroke:#181818;stroke-width:0.5;"/><text fill="#000000" font-family="sans-serif" font-size="14" lengthAdjust="spacing" textLength="118" x="5" y="2016.8301">CenterCoordinator</text><ellipse cx="67" cy="2028.4063" fill="#E2E2F0" rx="8" ry="8" style="stroke:#181818;stroke-width:0.5;"/><path d="M67,2036.4063 L67,2063.4063 M54,2044.4063 L80,2044.4063 M67,2063.4063 L54,2078.4063 M67,2063.4063 L80,2078.4063 " fill="none" style="stroke:#181818;stroke-width:0.5;"/><rect fill="#E2E2F0" height="31.6094" rx="2.5" ry="2.5" style="stroke:#181818;stroke-width:0.5;" width="214" x="443" y="50"/><text fill="#000000" font-family="sans-serif" font-size="14" lengthAdjust="spacing" textLength="200" x="450" y="71.5332">:AnalyzeCenterPerformanceGUI</text><rect fill="#E2E2F0" height="31.6094" rx="2.5" ry="2.5" style="stroke:#181818;stroke-width:0.5;" width="214" x="443" y="2002.2969"/><text fill="#000000" font-family="sans-serif" font-size="14" lengthAdjust="spacing" textLength="200" x="450" y="2023.8301">:AnalyzeCenterPerformanceGUI</text><rect fill="#E2E2F0" height="31.6094" rx="2.5" ry="2.5" style="stroke:#181818;stroke-width:0.5;" width="253" x="741.5" y="50"/><text fill="#000000" font-family="sans-serif" font-size="14" lengthAdjust="spacing" textLength="239" x="748.5" y="71.5332">:AnalyzeCenterPerformanceController</text><rect fill="#E2E2F0" height="31.6094" rx="2.5" ry="2.5" style="stroke:#181818;stroke-width:0.5;" width="253" x="741.5" y="2002.2969"/><text fill="#000000" font-family="sans-serif" font-size="14" lengthAdjust="spacing" textLength="239" x="748.5" y="2023.8301">:AnalyzeCenterPerformanceController</text><rect fill="#E2E2F0" height="49.2188" rx="2.5" ry="2.5" style="stroke:#181818;stroke-width:0.5;" width="153" x="1139.5" y="32.3906"/><text fill="#000000" font-family="sans-serif" font-size="14" lengthAdjust="spacing" textLength="53" x="1189.5" y="53.9238">analyzer</text><text fill="#000000" font-family="sans-serif" font-size="14" lengthAdjust="spacing" textLength="139" x="1146.5" y="71.5332">:PerformanceAnalyzer</text><rect fill="#E2E2F0" height="49.2188" rx="2.5" ry="2.5" style="stroke:#181818;stroke-width:0.5;" width="153" x="1139.5" y="2002.2969"/><text fill="#000000" font-family="sans-serif" font-size="14" lengthAdjust="spacing" textLength="53" x="1189.5" y="2023.8301">analyzer</text><text fill="#000000" font-family="sans-serif" font-size="14" lengthAdjust="spacing" textLength="139" x="1146.5" y="2041.4395">:PerformanceAnalyzer</text><rect fill="#E2E2F0" height="49.2188" rx="2.5" ry="2.5" style="stroke:#181818;stroke-width:0.5;" width="78" x="1579" y="32.3906"/><text fill="#000000" font-family="sans-serif" font-size="14" lengthAdjust="spacing" textLength="57" x="1589.5" y="53.9238">company</text><text fill="#000000" font-family="sans-serif" font-size="14" lengthAdjust="spacing" textLength="64" x="1586" y="71.5332">:Company</text><rect fill="#E2E2F0" height="49.2188" rx="2.5" ry="2.5" style="stroke:#181818;stroke-width:0.5;" width="78" x="1579" y="2002.2969"/><text fill="#000000" font-family="sans-serif" font-size="14" lengthAdjust="spacing" textLength="57" x="1589.5" y="2023.8301">company</text><text fill="#000000" font-family="sans-serif" font-size="14" lengthAdjust="spacing" textLength="64" x="1586" y="2041.4395">:Company</text><rect fill="#E2E2F0" height="49.2188" rx="2.5" ry="2.5" style="stroke:#181818;stroke-width:0.5;" width="175" x="1667" y="32.3906"/><text fill="#000000" font-family="sans-serif" font-size="14" lengthAdjust="spacing" textLength="155" x="1677" y="53.9238">vaccinationCentersStore</text><text fill="#000000" font-family="sans-serif" font-size="14" lengthAdjust="spacing" textLength="161" x="1674" y="71.5332">:VaccinationCentersStore</text><rect fill="#E2E2F0" height="49.2188" rx="2.5" ry="2.5" style="stroke:#181818;stroke-width:0.5;" width="175" x="1667" y="2002.2969"/><text fill="#000000" font-family="sans-serif" font-size="14" lengthAdjust="spacing" textLength="155" x="1677" y="2023.8301">vaccinationCentersStore</text><text fill="#000000" font-family="sans-serif" font-size="14" lengthAdjust="spacing" textLength="161" x="1674" y="2041.4395">:VaccinationCentersStore</text><rect fill="#E2E2F0" height="49.2188" rx="2.5" ry="2.5" style="stroke:#181818;stroke-width:0.5;" width="134" x="1852" y="32.3906"/><text fill="#000000" font-family="sans-serif" font-size="14" lengthAdjust="spacing" textLength="114" x="1862" y="53.9238">vaccinationCenter</text><text fill="#000000" font-family="sans-serif" font-size="14" lengthAdjust="spacing" textLength="120" x="1859" y="71.5332">:VaccinationCenter</text><rect fill="#E2E2F0" height="49.2188" rx="2.5" ry="2.5" style="stroke:#181818;stroke-width:0.5;" width="134" x="1852" y="2002.2969"/><text fill="#000000" font-family="sans-serif" font-size="14" lengthAdjust="spacing" textLength="114" x="1862" y="2023.8301">vaccinationCenter</text><text fill="#000000" font-family="sans-serif" font-size="14" lengthAdjust="spacing" textLength="120" x="1859" y="2041.4395">:VaccinationCenter</text><rect fill="#FFFFFF" height="1892.6875" style="stroke:#181818;stroke-width:1.0;" width="10" x="62" y="92.6094"/><rect fill="#FFFFFF" height="242.8125" style="stroke:#181818;stroke-width:1.0;" width="10" x="545" y="114.9609"/><rect fill="#FFFFFF" height="90.7031" style="stroke:#181818;stroke-width:1.0;" width="10" x="545" y="388.125"/><rect fill="#FFFFFF" height="46.7031" style="stroke:#181818;stroke-width:1.0;" width="10" x="545" y="509.1797"/><rect fill="#FFFFFF" height="1399.0625" style="stroke:#181818;stroke-width:1.0;" width="10" x="545" y="586.2344"/><rect fill="#FFFFFF" height="182.1094" style="stroke:#181818;stroke-width:1.0;" width="10" x="863" y="145.3125"/><rect fill="#FFFFFF" height="30" style="stroke:#181818;stroke-width:1.0;" width="10" x="863" y="418.4766"/><rect fill="#FFFFFF" height="268.4609" style="stroke:#181818;stroke-width:1.0;" width="10" x="863" y="616.5859"/><rect fill="#FFFFFF" height="30" style="stroke:#181818;stroke-width:1.0;" width="10" x="863" y="915.3984"/><rect fill="#FFFFFF" height="301.1641" style="stroke:#181818;stroke-width:1.0;" width="10" x="863" y="975.75"/><rect fill="#FFFFFF" height="225.4609" style="stroke:#181818;stroke-width:1.0;" width="10" x="863" y="1307.2656"/><rect fill="#FFFFFF" height="164.4063" style="stroke:#181818;stroke-width:1.0;" width="10" x="863" y="1563.0781"/><rect fill="#FFFFFF" height="164.4063" style="stroke:#181818;stroke-width:1.0;" width="10" x="863" y="1757.8359"/><rect fill="#FFFFFF" height="207.7578" style="stroke:#181818;stroke-width:1.0;" width="10" x="1211" y="646.9375"/><rect fill="#FFFFFF" height="28" style="stroke:#181818;stroke-width:1.0;" width="10" x="1216" y="685.2891"/><rect fill="#FFFFFF" height="65.7031" style="stroke:#181818;stroke-width:1.0;" width="10" x="1216" y="758.6406"/><rect fill="#FFFFFF" height="270.8125" style="stroke:#181818;stroke-width:1.0;" width="10" x="1211" y="1006.1016"/><rect fill="#FFFFFF" height="210.1094" style="stroke:#181818;stroke-width:1.0;" width="10" x="1216" y="1044.4531"/><rect fill="#FFFFFF" height="126.4063" style="stroke:#181818;stroke-width:1.0;" width="10" x="1221" y="1113.1563"/><rect fill="#FFFFFF" height="195.1094" style="stroke:#181818;stroke-width:1.0;" width="10" x="1211" y="1337.6172"/><rect fill="#FFFFFF" height="126.4063" style="stroke:#181818;stroke-width:1.0;" width="10" x="1216" y="1375.9688"/><rect fill="#FFFFFF" height="103.7031" style="stroke:#181818;stroke-width:1.0;" width="10" x="1211" y="1593.4297"/><rect fill="#FFFFFF" height="28" style="stroke:#181818;stroke-width:1.0;" width="10" x="1216" y="1631.7813"/><rect fill="#FFFFFF" height="103.7031" style="stroke:#181818;stroke-width:1.0;" width="10" x="1211" y="1788.1875"/><rect fill="#FFFFFF" height="28" style="stroke:#181818;stroke-width:1.0;" width="10" x="1216" y="1826.5391"/><rect fill="#FFFFFF" height="30.3516" style="stroke:#181818;stroke-width:1.0;" width="10" x="1613" y="175.6641"/><rect fill="#FFFFFF" height="30.3516" style="stroke:#181818;stroke-width:1.0;" width="10" x="1749.5" y="236.3672"/><rect fill="#FFFFFF" height="30.3516" style="stroke:#181818;stroke-width:1.0;" width="10" x="1914" y="297.0703"/><rect fill="#FFFFFF" height="30.3516" style="stroke:#181818;stroke-width:1.0;" width="10" x="1914" y="793.9922"/><rect fill="#FFFFFF" height="30.3516" style="stroke:#181818;stroke-width:1.0;" width="10" x="1914" y="1148.5078"/><rect fill="#FFFFFF" height="30.3516" style="stroke:#181818;stroke-width:1.0;" width="10" x="1914" y="1209.2109"/><rect fill="#FFFFFF" height="30.3516" style="stroke:#181818;stroke-width:1.0;" width="10" x="1914" y="1411.3203"/><rect fill="#FFFFFF" height="30.3516" style="stroke:#181818;stroke-width:1.0;" width="10" x="1914" y="1472.0234"/><polygon fill="#181818" points="533,110.9609,543,114.9609,533,118.9609,537,114.9609" style="stroke:#181818;stroke-width:1.0;"/><line style="stroke:#181818;stroke-width:1.0;" x1="72" x2="539" y1="114.9609" y2="114.9609"/><text fill="#000000" font-family="sans-serif" font-size="13" font-weight="bold" lengthAdjust="spacing" textLength="7" x="79" y="110.1045">1</text><text fill="#000000" font-family="sans-serif" font-size="13" lengthAdjust="spacing" textLength="339" x="90" y="110.1045">asks to analyze the performance of the Vaccination Center</text><polygon fill="#181818" points="851,141.3125,861,145.3125,851,149.3125,855,145.3125" style="stroke:#181818;stroke-width:1.0;"/><line style="stroke:#181818;stroke-width:1.0;" x1="555" x2="857" y1="145.3125" y2="145.3125"/><text fill="#000000" font-family="sans-serif" font-size="13" font-weight="bold" lengthAdjust="spacing" textLength="7" x="562" y="140.4561">2</text><text fill="#000000" font-family="sans-serif" font-size="13" lengthAdjust="spacing" textLength="220" x="573" y="140.4561">setVaccinationCenterAndItsAnalyzer()</text><polygon fill="#181818" points="1601,171.6641,1611,175.6641,1601,179.6641,1605,175.6641" style="stroke:#181818;stroke-width:1.0;"/><line style="stroke:#181818;stroke-width:1.0;" x1="873" x2="1607" y1="175.6641" y2="175.6641"/><text fill="#000000" font-family="sans-serif" font-size="13" font-weight="bold" lengthAdjust="spacing" textLength="7" x="880" y="170.8076">3</text><text fill="#000000" font-family="sans-serif" font-size="13" lengthAdjust="spacing" textLength="170" x="891" y="170.8076">getVaccinationCentersStore()</text><polygon fill="#181818" points="884,202.0156,874,206.0156,884,210.0156,880,206.0156" style="stroke:#181818;stroke-width:1.0;"/><line style="stroke:#181818;stroke-width:1.0;stroke-dasharray:2.0,2.0;" x1="878" x2="1617" y1="206.0156" y2="206.0156"/><text fill="#000000" font-family="sans-serif" font-size="13" font-weight="bold" lengthAdjust="spacing" textLength="7" x="890" y="201.1592">4</text><text fill="#000000" font-family="sans-serif" font-size="13" lengthAdjust="spacing" textLength="95" x="901" y="201.1592">returns the store</text><polygon fill="#181818" points="1737.5,232.3672,1747.5,236.3672,1737.5,240.3672,1741.5,236.3672" style="stroke:#181818;stroke-width:1.0;"/><line style="stroke:#181818;stroke-width:1.0;" x1="873" x2="1743.5" y1="236.3672" y2="236.3672"/><text fill="#000000" font-family="sans-serif" font-size="13" font-weight="bold" lengthAdjust="spacing" textLength="7" x="880" y="231.5107">5</text><text fill="#000000" font-family="sans-serif" font-size="13" lengthAdjust="spacing" textLength="287" x="891" y="231.5107">getVaccinationCenterAssociatedToCoordinator(id)</text><polygon fill="#181818" points="884,262.7188,874,266.7188,884,270.7188,880,266.7188" style="stroke:#181818;stroke-width:1.0;"/><line style="stroke:#181818;stroke-width:1.0;stroke-dasharray:2.0,2.0;" x1="878" x2="1753.5" y1="266.7188" y2="266.7188"/><text fill="#000000" font-family="sans-serif" font-size="13" font-weight="bold" lengthAdjust="spacing" textLength="7" x="890" y="261.8623">6</text><text fill="#000000" font-family="sans-serif" font-size="13" lengthAdjust="spacing" textLength="170" x="901" y="261.8623">returns the vaccination center</text><polygon fill="#181818" points="1902,293.0703,1912,297.0703,1902,301.0703,1906,297.0703" style="stroke:#181818;stroke-width:1.0;"/><line style="stroke:#181818;stroke-width:1.0;" x1="873" x2="1908" y1="297.0703" y2="297.0703"/><text fill="#000000" font-family="sans-serif" font-size="13" font-weight="bold" lengthAdjust="spacing" textLength="7" x="880" y="292.2139">7</text><text fill="#000000" font-family="sans-serif" font-size="13" lengthAdjust="spacing" textLength="77" x="891" y="292.2139">getAnalyzer()</text><polygon fill="#181818" points="879,323.4219,869,327.4219,879,331.4219,875,327.4219" style="stroke:#181818;stroke-width:1.0;"/><line style="stroke:#181818;stroke-width:1.0;stroke-dasharray:2.0,2.0;" x1="873" x2="1918" y1="327.4219" y2="327.4219"/><text fill="#000000" font-family="sans-serif" font-size="13" font-weight="bold" lengthAdjust="spacing" textLength="7" x="885" y="322.5654">8</text><text fill="#000000" font-family="sans-serif" font-size="13" lengthAdjust="spacing" textLength="115" x="896" y="322.5654">returns the analyzer</text><polygon fill="#181818" points="83,353.7734,73,357.7734,83,361.7734,79,357.7734" style="stroke:#181818;stroke-width:1.0;"/><line style="stroke:#181818;stroke-width:1.0;stroke-dasharray:2.0,2.0;" x1="77" x2="549" y1="357.7734" y2="357.7734"/><text fill="#000000" font-family="sans-serif" font-size="13" font-weight="bold" lengthAdjust="spacing" textLength="7" x="89" y="352.917">9</text><text fill="#000000" font-family="sans-serif" font-size="13" lengthAdjust="spacing" textLength="380" x="100" y="352.917">shows the dates and requests the selection of one to be analyzed</text><polygon fill="#181818" points="533,384.125,543,388.125,533,392.125,537,388.125" style="stroke:#181818;stroke-width:1.0;"/><line style="stroke:#181818;stroke-width:1.0;" x1="72" x2="539" y1="388.125" y2="388.125"/><text fill="#000000" font-family="sans-serif" font-size="13" font-weight="bold" lengthAdjust="spacing" textLength="14" x="79" y="383.2686">10</text><text fill="#000000" font-family="sans-serif" font-size="13" lengthAdjust="spacing" textLength="182" x="97" y="383.2686">selects the date to be analyzed</text><polygon fill="#181818" points="851,414.4766,861,418.4766,851,422.4766,855,418.4766" style="stroke:#181818;stroke-width:1.0;"/><line style="stroke:#181818;stroke-width:1.0;" x1="555" x2="857" y1="418.4766" y2="418.4766"/><text fill="#000000" font-family="sans-serif" font-size="13" font-weight="bold" lengthAdjust="spacing" textLength="14" x="562" y="413.6201">11</text><text fill="#000000" font-family="sans-serif" font-size="13" lengthAdjust="spacing" textLength="134" x="580" y="413.6201">setSelectedDate(event)</text><polygon fill="#181818" points="83,474.8281,73,478.8281,83,482.8281,79,478.8281" style="stroke:#181818;stroke-width:1.0;"/><line style="stroke:#181818;stroke-width:1.0;stroke-dasharray:2.0,2.0;" x1="77" x2="549" y1="478.8281" y2="478.8281"/><text fill="#000000" font-family="sans-serif" font-size="13" font-weight="bold" lengthAdjust="spacing" textLength="14" x="89" y="473.9717">12</text><text fill="#000000" font-family="sans-serif" font-size="13" lengthAdjust="spacing" textLength="195" x="107" y="473.9717">request the input of a time interval</text><polygon fill="#181818" points="533,505.1797,543,509.1797,533,513.1797,537,509.1797" style="stroke:#181818;stroke-width:1.0;"/><line style="stroke:#181818;stroke-width:1.0;" x1="72" x2="539" y1="509.1797" y2="509.1797"/><text fill="#000000" font-family="sans-serif" font-size="13" font-weight="bold" lengthAdjust="spacing" textLength="14" x="79" y="504.3232">13</text><text fill="#000000" font-family="sans-serif" font-size="13" lengthAdjust="spacing" textLength="119" x="97" y="504.3232">inputs a time interval</text><polygon fill="#181818" points="83,551.8828,73,555.8828,83,559.8828,79,555.8828" style="stroke:#181818;stroke-width:1.0;"/><line style="stroke:#181818;stroke-width:1.0;stroke-dasharray:2.0,2.0;" x1="77" x2="549" y1="555.8828" y2="555.8828"/><text fill="#000000" font-family="sans-serif" font-size="13" font-weight="bold" lengthAdjust="spacing" textLength="14" x="89" y="542.8506">14</text><text fill="#000000" font-family="sans-serif" font-size="13" lengthAdjust="spacing" textLength="274" x="107" y="534.6748">requests the confirmation of the selection of the</text><text fill="#000000" font-family="sans-serif" font-size="13" lengthAdjust="spacing" textLength="248" x="111" y="551.0264">date and of the insertion of the time interval</text><polygon fill="#181818" points="533,582.2344,543,586.2344,533,590.2344,537,586.2344" style="stroke:#181818;stroke-width:1.0;"/><line style="stroke:#181818;stroke-width:1.0;" x1="72" x2="539" y1="586.2344" y2="586.2344"/><text fill="#000000" font-family="sans-serif" font-size="13" font-weight="bold" lengthAdjust="spacing" textLength="14" x="79" y="581.3779">15</text><text fill="#000000" font-family="sans-serif" font-size="13" lengthAdjust="spacing" textLength="326" x="97" y="581.3779">confirms the selection of the date and of the time interval</text><polygon fill="#181818" points="851,612.5859,861,616.5859,851,620.5859,855,616.5859" style="stroke:#181818;stroke-width:1.0;"/><line style="stroke:#181818;stroke-width:1.0;" x1="555" x2="857" y1="616.5859" y2="616.5859"/><text fill="#000000" font-family="sans-serif" font-size="13" font-weight="bold" lengthAdjust="spacing" textLength="14" x="562" y="611.7295">16</text><text fill="#000000" font-family="sans-serif" font-size="13" lengthAdjust="spacing" textLength="221" x="580" y="611.7295">checkIfTimeIntervalIsValid(timeInterval)</text><polygon fill="#181818" points="1199,642.9375,1209,646.9375,1199,650.9375,1203,646.9375" style="stroke:#181818;stroke-width:1.0;"/><line style="stroke:#181818;stroke-width:1.0;" x1="873" x2="1205" y1="646.9375" y2="646.9375"/><text fill="#000000" font-family="sans-serif" font-size="13" font-weight="bold" lengthAdjust="spacing" textLength="14" x="880" y="642.0811">17</text><text fill="#000000" font-family="sans-serif" font-size="13" lengthAdjust="spacing" textLength="221" x="898" y="642.0811">checkIfTimeIntervalIsValid(timeInterval)</text><line style="stroke:#181818;stroke-width:1.0;" x1="1226" x2="1268" y1="677.2891" y2="677.2891"/><line style="stroke:#181818;stroke-width:1.0;" x1="1268" x2="1268" y1="677.2891" y2="690.2891"/><line style="stroke:#181818;stroke-width:1.0;" x1="1227" x2="1268" y1="690.2891" y2="690.2891"/><polygon fill="#181818" points="1237,686.2891,1227,690.2891,1237,694.2891,1233,690.2891" style="stroke:#181818;stroke-width:1.0;"/><text fill="#000000" font-family="sans-serif" font-size="13" font-weight="bold" lengthAdjust="spacing" textLength="14" x="1233" y="672.4326">18</text><text fill="#000000" font-family="sans-serif" font-size="13" lengthAdjust="spacing" textLength="230" x="1251" y="672.4326">checkIfTimeIntervalIsEmpty(timeInterval)</text><line style="stroke:#181818;stroke-width:1.0;" x1="1221" x2="1268" y1="745.6406" y2="745.6406"/><line style="stroke:#181818;stroke-width:1.0;" x1="1268" x2="1268" y1="745.6406" y2="758.6406"/><line style="stroke:#181818;stroke-width:1.0;" x1="1227" x2="1268" y1="758.6406" y2="758.6406"/><polygon fill="#181818" points="1237,754.6406,1227,758.6406,1237,762.6406,1233,758.6406" style="stroke:#181818;stroke-width:1.0;"/><text fill="#000000" font-family="sans-serif" font-size="13" font-weight="bold" lengthAdjust="spacing" textLength="14" x="1233" y="740.7842">19</text><text fill="#000000" font-family="sans-serif" font-size="13" lengthAdjust="spacing" textLength="277" x="1251" y="740.7842">checkIfTimeIntervalIsInAValidRange(timeInterval)</text><polygon fill="#181818" points="1902,789.9922,1912,793.9922,1902,797.9922,1906,793.9922" style="stroke:#181818;stroke-width:1.0;"/><line style="stroke:#181818;stroke-width:1.0;" x1="1226" x2="1908" y1="793.9922" y2="793.9922"/><text fill="#000000" font-family="sans-serif" font-size="13" font-weight="bold" lengthAdjust="spacing" textLength="14" x="1233" y="789.1357">20</text><text fill="#000000" font-family="sans-serif" font-size="13" lengthAdjust="spacing" textLength="184" x="1251" y="789.1357">getMinutesOpenCenterPerDay()</text><polygon fill="#181818" points="1232,820.3438,1222,824.3438,1232,828.3438,1228,824.3438" style="stroke:#181818;stroke-width:1.0;"/><line style="stroke:#181818;stroke-width:1.0;stroke-dasharray:2.0,2.0;" x1="1226" x2="1918" y1="824.3438" y2="824.3438"/><text fill="#000000" font-family="sans-serif" font-size="13" font-weight="bold" lengthAdjust="spacing" textLength="14" x="1238" y="819.4873">21</text><text fill="#000000" font-family="sans-serif" font-size="13" lengthAdjust="spacing" textLength="231" x="1256" y="819.4873">returns the minutes open center per day</text><polygon fill="#181818" points="884,850.6953,874,854.6953,884,858.6953,880,854.6953" style="stroke:#181818;stroke-width:1.0;"/><line style="stroke:#181818;stroke-width:1.0;stroke-dasharray:2.0,2.0;" x1="878" x2="1215" y1="854.6953" y2="854.6953"/><text fill="#000000" font-family="sans-serif" font-size="13" font-weight="bold" lengthAdjust="spacing" textLength="14" x="890" y="849.8389">22</text><text fill="#000000" font-family="sans-serif" font-size="13" lengthAdjust="spacing" textLength="214" x="908" y="849.8389">returns true if the time interval is valid</text><polygon fill="#181818" points="566,881.0469,556,885.0469,566,889.0469,562,885.0469" style="stroke:#181818;stroke-width:1.0;"/><line style="stroke:#181818;stroke-width:1.0;stroke-dasharray:2.0,2.0;" x1="560" x2="867" y1="885.0469" y2="885.0469"/><text fill="#000000" font-family="sans-serif" font-size="13" font-weight="bold" lengthAdjust="spacing" textLength="14" x="572" y="880.1904">23</text><text fill="#000000" font-family="sans-serif" font-size="13" lengthAdjust="spacing" textLength="214" x="590" y="880.1904">returns true if the time interval is valid</text><polygon fill="#181818" points="851,911.3984,861,915.3984,851,919.3984,855,915.3984" style="stroke:#181818;stroke-width:1.0;"/><line style="stroke:#181818;stroke-width:1.0;" x1="555" x2="857" y1="915.3984" y2="915.3984"/><text fill="#000000" font-family="sans-serif" font-size="13" font-weight="bold" lengthAdjust="spacing" textLength="14" x="562" y="910.542">24</text><text fill="#000000" font-family="sans-serif" font-size="13" lengthAdjust="spacing" textLength="159" x="580" y="910.542">setTimeInterval(timeInterval)</text><polygon fill="#181818" points="851,971.75,861,975.75,851,979.75,855,975.75" style="stroke:#181818;stroke-width:1.0;"/><line style="stroke:#181818;stroke-width:1.0;" x1="555" x2="857" y1="975.75" y2="975.75"/><text fill="#000000" font-family="sans-serif" font-size="13" font-weight="bold" lengthAdjust="spacing" textLength="14" x="562" y="970.8936">25</text><text fill="#000000" font-family="sans-serif" font-size="13" lengthAdjust="spacing" textLength="271" x="580" y="970.8936">statisticsDailyList = getTheStatisticsDailyList()</text><polygon fill="#181818" points="1199,1002.1016,1209,1006.1016,1199,1010.1016,1203,1006.1016" style="stroke:#181818;stroke-width:1.0;"/><line style="stroke:#181818;stroke-width:1.0;" x1="873" x2="1205" y1="1006.1016" y2="1006.1016"/><text fill="#000000" font-family="sans-serif" font-size="13" font-weight="bold" lengthAdjust="spacing" textLength="14" x="880" y="1001.2451">26</text><text fill="#000000" font-family="sans-serif" font-size="13" lengthAdjust="spacing" textLength="301" x="898" y="1001.2451">getTheStatisticsDailyList(selectedDate, timeInterval)</text><line style="stroke:#181818;stroke-width:1.0;" x1="1221" x2="1268" y1="1031.4531" y2="1031.4531"/><line style="stroke:#181818;stroke-width:1.0;" x1="1268" x2="1268" y1="1031.4531" y2="1044.4531"/><line style="stroke:#181818;stroke-width:1.0;" x1="1227" x2="1268" y1="1044.4531" y2="1044.4531"/><polygon fill="#181818" points="1237,1040.4531,1227,1044.4531,1237,1048.4531,1233,1044.4531" style="stroke:#181818;stroke-width:1.0;"/><text fill="#000000" font-family="sans-serif" font-size="13" font-weight="bold" lengthAdjust="spacing" textLength="14" x="1233" y="1026.5967">27</text><text fill="#000000" font-family="sans-serif" font-size="13" lengthAdjust="spacing" textLength="360" x="1251" y="1026.5967">listToBeAnalyzed = formatListToBeAnalyzed(date,timeInterval)</text><path d="M1129.5,1064.4531 L1202.5,1064.4531 L1202.5,1072.8047 L1192.5,1082.8047 L1129.5,1082.8047 L1129.5,1064.4531 " fill="#EEEEEE" style="stroke:#000000;stroke-width:1.5;"/><rect fill="none" height="183.1094" style="stroke:#000000;stroke-width:1.5;" width="866.5" x="1129.5" y="1064.4531"/><text fill="#000000" font-family="sans-serif" font-size="13" font-weight="bold" lengthAdjust="spacing" textLength="28" x="1144.5" y="1078.9482">loop</text><text fill="#000000" font-family="sans-serif" font-size="11" font-weight="bold" lengthAdjust="spacing" textLength="226" x="1217.5" y="1077.8721">[while there are Arrivals and Departures]</text><line style="stroke:#181818;stroke-width:1.0;" x1="1226" x2="1273" y1="1100.1563" y2="1100.1563"/><line style="stroke:#181818;stroke-width:1.0;" x1="1273" x2="1273" y1="1100.1563" y2="1113.1563"/><line style="stroke:#181818;stroke-width:1.0;" x1="1232" x2="1273" y1="1113.1563" y2="1113.1563"/><polygon fill="#181818" points="1242,1109.1563,1232,1113.1563,1242,1117.1563,1238,1113.1563" style="stroke:#181818;stroke-width:1.0;"/><text fill="#000000" font-family="sans-serif" font-size="13" font-weight="bold" lengthAdjust="spacing" textLength="14" x="1238" y="1095.2998">28</text><text fill="#000000" font-family="sans-serif" font-size="13" lengthAdjust="spacing" textLength="305" x="1256" y="1095.2998">countArrivalsAndDepartures(date, timeInterval, index)</text><polygon fill="#181818" points="1902,1144.5078,1912,1148.5078,1902,1152.5078,1906,1148.5078" style="stroke:#181818;stroke-width:1.0;"/><line style="stroke:#181818;stroke-width:1.0;" x1="1231" x2="1908" y1="1148.5078" y2="1148.5078"/><text fill="#000000" font-family="sans-serif" font-size="13" font-weight="bold" lengthAdjust="spacing" textLength="14" x="1238" y="1143.6514">29</text><text fill="#000000" font-family="sans-serif" font-size="13" lengthAdjust="spacing" textLength="89" x="1256" y="1143.6514">getArrivalsList()</text><polygon fill="#181818" points="1242,1174.8594,1232,1178.8594,1242,1182.8594,1238,1178.8594" style="stroke:#181818;stroke-width:1.0;"/><line style="stroke:#181818;stroke-width:1.0;stroke-dasharray:2.0,2.0;" x1="1236" x2="1918" y1="1178.8594" y2="1178.8594"/><text fill="#000000" font-family="sans-serif" font-size="13" font-weight="bold" lengthAdjust="spacing" textLength="14" x="1248" y="1174.0029">30</text><text fill="#000000" font-family="sans-serif" font-size="13" lengthAdjust="spacing" textLength="141" x="1266" y="1174.0029">returns the list of arrivals</text><polygon fill="#181818" points="1902,1205.2109,1912,1209.2109,1902,1213.2109,1906,1209.2109" style="stroke:#181818;stroke-width:1.0;"/><line style="stroke:#181818;stroke-width:1.0;" x1="1231" x2="1908" y1="1209.2109" y2="1209.2109"/><text fill="#000000" font-family="sans-serif" font-size="13" font-weight="bold" lengthAdjust="spacing" textLength="14" x="1238" y="1204.3545">31</text><text fill="#000000" font-family="sans-serif" font-size="13" lengthAdjust="spacing" textLength="110" x="1256" y="1204.3545">getDeparturesList()</text><polygon fill="#181818" points="1237,1235.5625,1227,1239.5625,1237,1243.5625,1233,1239.5625" style="stroke:#181818;stroke-width:1.0;"/><line style="stroke:#181818;stroke-width:1.0;stroke-dasharray:2.0,2.0;" x1="1231" x2="1918" y1="1239.5625" y2="1239.5625"/><text fill="#000000" font-family="sans-serif" font-size="13" font-weight="bold" lengthAdjust="spacing" textLength="14" x="1243" y="1234.7061">32</text><text fill="#000000" font-family="sans-serif" font-size="13" lengthAdjust="spacing" textLength="162" x="1261" y="1234.7061">returns the list of departures</text><polygon fill="#181818" points="879,1272.9141,869,1276.9141,879,1280.9141,875,1276.9141" style="stroke:#181818;stroke-width:1.0;"/><line style="stroke:#181818;stroke-width:1.0;stroke-dasharray:2.0,2.0;" x1="873" x2="1215" y1="1276.9141" y2="1276.9141"/><text fill="#000000" font-family="sans-serif" font-size="13" font-weight="bold" lengthAdjust="spacing" textLength="14" x="885" y="1272.0576">33</text><text fill="#000000" font-family="sans-serif" font-size="13" lengthAdjust="spacing" textLength="171" x="903" y="1272.0576">returns the statistics daily list</text><polygon fill="#181818" points="851,1303.2656,861,1307.2656,851,1311.2656,855,1307.2656" style="stroke:#181818;stroke-width:1.0;"/><line style="stroke:#181818;stroke-width:1.0;" x1="555" x2="857" y1="1307.2656" y2="1307.2656"/><text fill="#000000" font-family="sans-serif" font-size="13" font-weight="bold" lengthAdjust="spacing" textLength="14" x="562" y="1302.4092">34</text><text fill="#000000" font-family="sans-serif" font-size="13" lengthAdjust="spacing" textLength="189" x="580" y="1302.4092">timeIntervals = getTimeIntervals()</text><polygon fill="#181818" points="1199,1333.6172,1209,1337.6172,1199,1341.6172,1203,1337.6172" style="stroke:#181818;stroke-width:1.0;"/><line style="stroke:#181818;stroke-width:1.0;" x1="873" x2="1205" y1="1337.6172" y2="1337.6172"/><text fill="#000000" font-family="sans-serif" font-size="13" font-weight="bold" lengthAdjust="spacing" textLength="14" x="880" y="1332.7607">35</text><text fill="#000000" font-family="sans-serif" font-size="13" lengthAdjust="spacing" textLength="166" x="898" y="1332.7607">getTimeIntervals(timeInterval)</text><line style="stroke:#181818;stroke-width:1.0;" x1="1221" x2="1268" y1="1362.9688" y2="1362.9688"/><line style="stroke:#181818;stroke-width:1.0;" x1="1268" x2="1268" y1="1362.9688" y2="1375.9688"/><line style="stroke:#181818;stroke-width:1.0;" x1="1227" x2="1268" y1="1375.9688" y2="1375.9688"/><polygon fill="#181818" points="1237,1371.9688,1227,1375.9688,1237,1379.9688,1233,1375.9688" style="stroke:#181818;stroke-width:1.0;"/><text fill="#000000" font-family="sans-serif" font-size="13" font-weight="bold" lengthAdjust="spacing" textLength="14" x="1233" y="1358.1123">36</text><text fill="#000000" font-family="sans-serif" font-size="13" lengthAdjust="spacing" textLength="182" x="1251" y="1358.1123">setUpTimeIntervals(timeInterval)</text><polygon fill="#181818" points="1902,1407.3203,1912,1411.3203,1902,1415.3203,1906,1411.3203" style="stroke:#181818;stroke-width:1.0;"/><line style="stroke:#181818;stroke-width:1.0;" x1="1226" x2="1908" y1="1411.3203" y2="1411.3203"/><text fill="#000000" font-family="sans-serif" font-size="13" font-weight="bold" lengthAdjust="spacing" textLength="14" x="1233" y="1406.4639">37</text><text fill="#000000" font-family="sans-serif" font-size="13" lengthAdjust="spacing" textLength="101" x="1251" y="1406.4639">getOpeningHour()</text><polygon fill="#181818" points="1237,1437.6719,1227,1441.6719,1237,1445.6719,1233,1441.6719" style="stroke:#181818;stroke-width:1.0;"/><line style="stroke:#181818;stroke-width:1.0;stroke-dasharray:2.0,2.0;" x1="1231" x2="1918" y1="1441.6719" y2="1441.6719"/><text fill="#000000" font-family="sans-serif" font-size="13" font-weight="bold" lengthAdjust="spacing" textLength="14" x="1243" y="1436.8154">38</text><text fill="#000000" font-family="sans-serif" font-size="13" lengthAdjust="spacing" textLength="140" x="1261" y="1436.8154">returns the opening hour</text><polygon fill="#181818" points="1902,1468.0234,1912,1472.0234,1902,1476.0234,1906,1472.0234" style="stroke:#181818;stroke-width:1.0;"/><line style="stroke:#181818;stroke-width:1.0;stroke-dasharray:2.0,2.0;" x1="1226" x2="1908" y1="1472.0234" y2="1472.0234"/><text fill="#000000" font-family="sans-serif" font-size="13" font-weight="bold" lengthAdjust="spacing" textLength="14" x="1233" y="1467.167">39</text><text fill="#000000" font-family="sans-serif" font-size="13" lengthAdjust="spacing" textLength="96" x="1251" y="1467.167">getClosingHour()</text><polygon fill="#181818" points="1232,1498.375,1222,1502.375,1232,1506.375,1228,1502.375" style="stroke:#181818;stroke-width:1.0;"/><line style="stroke:#181818;stroke-width:1.0;stroke-dasharray:2.0,2.0;" x1="1226" x2="1918" y1="1502.375" y2="1502.375"/><text fill="#000000" font-family="sans-serif" font-size="13" font-weight="bold" lengthAdjust="spacing" textLength="14" x="1238" y="1497.5186">40</text><text fill="#000000" font-family="sans-serif" font-size="13" lengthAdjust="spacing" textLength="136" x="1256" y="1497.5186">returns the closing hour</text><polygon fill="#181818" points="879,1528.7266,869,1532.7266,879,1536.7266,875,1532.7266" style="stroke:#181818;stroke-width:1.0;"/><line style="stroke:#181818;stroke-width:1.0;stroke-dasharray:2.0,2.0;" x1="873" x2="1215" y1="1532.7266" y2="1532.7266"/><text fill="#000000" font-family="sans-serif" font-size="13" font-weight="bold" lengthAdjust="spacing" textLength="14" x="885" y="1527.8701">41</text><text fill="#000000" font-family="sans-serif" font-size="13" lengthAdjust="spacing" textLength="142" x="903" y="1527.8701">returns the time intervals</text><polygon fill="#181818" points="851,1559.0781,861,1563.0781,851,1567.0781,855,1563.0781" style="stroke:#181818;stroke-width:1.0;"/><line style="stroke:#181818;stroke-width:1.0;" x1="555" x2="857" y1="1563.0781" y2="1563.0781"/><text fill="#000000" font-family="sans-serif" font-size="13" font-weight="bold" lengthAdjust="spacing" textLength="14" x="562" y="1558.2217">42</text><text fill="#000000" font-family="sans-serif" font-size="13" lengthAdjust="spacing" textLength="234" x="580" y="1558.2217">maxSumSubList = getMaxSumSubList()</text><polygon fill="#181818" points="1199,1589.4297,1209,1593.4297,1199,1597.4297,1203,1593.4297" style="stroke:#181818;stroke-width:1.0;"/><line style="stroke:#181818;stroke-width:1.0;" x1="873" x2="1205" y1="1593.4297" y2="1593.4297"/><text fill="#000000" font-family="sans-serif" font-size="13" font-weight="bold" lengthAdjust="spacing" textLength="14" x="880" y="1588.5732">43</text><text fill="#000000" font-family="sans-serif" font-size="13" lengthAdjust="spacing" textLength="122" x="898" y="1588.5732">getMaxSumSubList()</text><line style="stroke:#181818;stroke-width:1.0;" x1="1226" x2="1268" y1="1623.7813" y2="1623.7813"/><line style="stroke:#181818;stroke-width:1.0;" x1="1268" x2="1268" y1="1623.7813" y2="1636.7813"/><line style="stroke:#181818;stroke-width:1.0;" x1="1227" x2="1268" y1="1636.7813" y2="1636.7813"/><polygon fill="#181818" points="1237,1632.7813,1227,1636.7813,1237,1640.7813,1233,1636.7813" style="stroke:#181818;stroke-width:1.0;"/><text fill="#000000" font-family="sans-serif" font-size="13" font-weight="bold" lengthAdjust="spacing" textLength="14" x="1233" y="1618.9248">44</text><text fill="#000000" font-family="sans-serif" font-size="13" lengthAdjust="spacing" textLength="333" x="1251" y="1618.9248">maxSumSubList = findMaxSumSublist(listToBeAnalyzed)</text><polygon fill="#181818" points="884,1693.1328,874,1697.1328,884,1701.1328,880,1697.1328" style="stroke:#181818;stroke-width:1.0;"/><line style="stroke:#181818;stroke-width:1.0;stroke-dasharray:2.0,2.0;" x1="878" x2="1215" y1="1697.1328" y2="1697.1328"/><text fill="#000000" font-family="sans-serif" font-size="13" font-weight="bold" lengthAdjust="spacing" textLength="14" x="890" y="1692.2764">45</text><text fill="#000000" font-family="sans-serif" font-size="13" lengthAdjust="spacing" textLength="166" x="908" y="1692.2764">returns the max sum sub list</text><polygon fill="#181818" points="566,1723.4844,556,1727.4844,566,1731.4844,562,1727.4844" style="stroke:#181818;stroke-width:1.0;"/><line style="stroke:#181818;stroke-width:1.0;stroke-dasharray:2.0,2.0;" x1="560" x2="867" y1="1727.4844" y2="1727.4844"/><text fill="#000000" font-family="sans-serif" font-size="13" font-weight="bold" lengthAdjust="spacing" textLength="14" x="572" y="1722.6279">46</text><text fill="#000000" font-family="sans-serif" font-size="13" lengthAdjust="spacing" textLength="166" x="590" y="1722.6279">returns the max sum sub list</text><polygon fill="#181818" points="851,1753.8359,861,1757.8359,851,1761.8359,855,1757.8359" style="stroke:#181818;stroke-width:1.0;"/><line style="stroke:#181818;stroke-width:1.0;" x1="555" x2="857" y1="1757.8359" y2="1757.8359"/><text fill="#000000" font-family="sans-serif" font-size="13" font-weight="bold" lengthAdjust="spacing" textLength="14" x="562" y="1752.9795">47</text><text fill="#000000" font-family="sans-serif" font-size="13" lengthAdjust="spacing" textLength="78" x="580" y="1752.9795">getMaxSum()</text><polygon fill="#181818" points="1199,1784.1875,1209,1788.1875,1199,1792.1875,1203,1788.1875" style="stroke:#181818;stroke-width:1.0;"/><line style="stroke:#181818;stroke-width:1.0;" x1="873" x2="1205" y1="1788.1875" y2="1788.1875"/><text fill="#000000" font-family="sans-serif" font-size="13" font-weight="bold" lengthAdjust="spacing" textLength="14" x="880" y="1783.3311">48</text><text fill="#000000" font-family="sans-serif" font-size="13" lengthAdjust="spacing" textLength="78" x="898" y="1783.3311">getMaxSum()</text><line style="stroke:#181818;stroke-width:1.0;" x1="1226" x2="1268" y1="1818.5391" y2="1818.5391"/><line style="stroke:#181818;stroke-width:1.0;" x1="1268" x2="1268" y1="1818.5391" y2="1831.5391"/><line style="stroke:#181818;stroke-width:1.0;" x1="1227" x2="1268" y1="1831.5391" y2="1831.5391"/><polygon fill="#181818" points="1237,1827.5391,1227,1831.5391,1237,1835.5391,1233,1831.5391" style="stroke:#181818;stroke-width:1.0;"/><text fill="#000000" font-family="sans-serif" font-size="13" font-weight="bold" lengthAdjust="spacing" textLength="14" x="1233" y="1813.6826">49</text><text fill="#000000" font-family="sans-serif" font-size="13" lengthAdjust="spacing" textLength="183" x="1251" y="1813.6826">calculateSum(maxSumSubList)</text><polygon fill="#181818" points="884,1887.8906,874,1891.8906,884,1895.8906,880,1891.8906" style="stroke:#181818;stroke-width:1.0;"/><line style="stroke:#181818;stroke-width:1.0;stroke-dasharray:2.0,2.0;" x1="878" x2="1215" y1="1891.8906" y2="1891.8906"/><text fill="#000000" font-family="sans-serif" font-size="13" font-weight="bold" lengthAdjust="spacing" textLength="14" x="890" y="1887.0342">50</text><text fill="#000000" font-family="sans-serif" font-size="13" lengthAdjust="spacing" textLength="120" x="908" y="1887.0342">returns the max sum</text><polygon fill="#181818" points="566,1918.2422,556,1922.2422,566,1926.2422,562,1922.2422" style="stroke:#181818;stroke-width:1.0;"/><line style="stroke:#181818;stroke-width:1.0;stroke-dasharray:2.0,2.0;" x1="560" x2="867" y1="1922.2422" y2="1922.2422"/><text fill="#000000" font-family="sans-serif" font-size="13" font-weight="bold" lengthAdjust="spacing" textLength="14" x="572" y="1917.3857">51</text><text fill="#000000" font-family="sans-serif" font-size="13" lengthAdjust="spacing" textLength="120" x="590" y="1917.3857">returns the max sum</text><polygon fill="#181818" points="78,1981.2969,68,1985.2969,78,1989.2969,74,1985.2969" style="stroke:#181818;stroke-width:1.0;"/><line style="stroke:#181818;stroke-width:1.0;stroke-dasharray:2.0,2.0;" x1="72" x2="549" y1="1985.2969" y2="1985.2969"/><text fill="#000000" font-family="sans-serif" font-size="13" font-weight="bold" lengthAdjust="spacing" textLength="14" x="84" y="1964.0889">52</text><text fill="#000000" font-family="sans-serif" font-size="13" lengthAdjust="spacing" textLength="276" x="102" y="1947.7373">shows the input list, with the difference between</text><text fill="#000000" font-family="sans-serif" font-size="13" lengthAdjust="spacing" textLength="427" x="106" y="1964.0889">the number of Arrivals and the number of Departures for each time interval,</text><text fill="#000000" font-family="sans-serif" font-size="13" lengthAdjust="spacing" textLength="336" x="106" y="1980.4404">the sublist with the maximum sum and the maximum sum</text><!--MD5=[877ec282de032b375879a53c364f5ed6]
@startuml

autonumber

actor CenterCoordinator as CC

participant ":AnalyzeCenterPerformanceGUI" as UI
participant ":AnalyzeCenterPerformanceController" as CTRL
participant "analyzer\n:PerformanceAnalyzer" as PA
participant "company\n:Company" as C
participant "vaccinationCentersStore\n:VaccinationCentersStore" as S
participant "vaccinationCenter\n:VaccinationCenter" as VC


activate CC
CC -> UI :  asks to analyze the performance of the Vaccination Center

activate UI

UI -> CTRL : setVaccinationCenterAndItsAnalyzer()
activate CTRL
CTRL -> C : getVaccinationCentersStore()
activate C
C - -> CTRL : returns the store
deactivate C

CTRL -> S : getVaccinationCenterAssociatedToCoordinator(id)
activate S
S - -> CTRL : returns the vaccination center
deactivate S
CTRL -> VC : getAnalyzer()
activate VC
VC - -> CTRL : returns the analyzer
deactivate VC




deactivate CTRL

UI - -> CC : shows the dates and requests the selection of one to be analyzed
deactivate UI


CC-> UI : selects the date to be analyzed

activate UI
UI -> CTRL : setSelectedDate(event)
activate CTRL
deactivate CTRL

UI - -> CC : request the input of a time interval
deactivate UI
CC -> UI : inputs a time interval
activate UI
UI - -> CC : requests the confirmation of the selection of the\n date and of the insertion of the time interval
deactivate UI
CC -> UI : confirms the selection of the date and of the time interval
activate UI
UI -> CTRL : checkIfTimeIntervalIsValid(timeInterval)
activate CTRL
CTRL -> PA : checkIfTimeIntervalIsValid(timeInterval)
activate PA
PA -> PA : checkIfTimeIntervalIsEmpty(timeInterval)
activate PA
deactivate PA
PA -> PA : checkIfTimeIntervalIsInAValidRange(timeInterval)
activate PA
PA -> VC : getMinutesOpenCenterPerDay()
activate VC
VC - -> PA : returns the minutes open center per day
deactivate VC
deactivate PA
PA - -> CTRL : returns true if the time interval is valid
deactivate PA
CTRL - -> UI : returns true if the time interval is valid
deactivate CTRL
UI -> CTRL : setTimeInterval(timeInterval)
activate CTRL
deactivate CTRL
UI -> CTRL : statisticsDailyList = getTheStatisticsDailyList()
activate CTRL
CTRL -> PA : getTheStatisticsDailyList(selectedDate, timeInterval)
activate PA
PA -> PA : listToBeAnalyzed = formatListToBeAnalyzed(date,timeInterval)
activate PA
loop while there are Arrivals and Departures
PA -> PA : countArrivalsAndDepartures(date, timeInterval, index)
activate PA
PA -> VC : getArrivalsList()
activate VC
VC - -> PA : returns the list of arrivals
deactivate VC
PA -> VC : getDeparturesList()
activate VC
VC - -> PA : returns the list of departures
deactivate VC
deactivate PA
end loop

deactivate PA
PA - -> CTRL : returns the statistics daily list
deactivate PA
deactivate CTRL
UI -> CTRL : timeIntervals = getTimeIntervals()
activate CTRL
CTRL -> PA : getTimeIntervals(timeInterval)
activate PA
PA -> PA : setUpTimeIntervals(timeInterval)
activate PA
PA -> VC : getOpeningHour()
activate VC
VC - -> PA : returns the opening hour
deactivate VC
PA - -> VC : getClosingHour()
activate VC
VC - -> PA : returns the closing hour
deactivate VC
deactivate PA
PA - -> CTRL : returns the time intervals
deactivate PA
deactivate CTRL
UI -> CTRL : maxSumSubList = getMaxSumSubList()
activate CTRL
CTRL -> PA : getMaxSumSubList()
activate PA
PA -> PA : maxSumSubList = findMaxSumSublist(listToBeAnalyzed)
activate PA
deactivate PA
PA - -> CTRL : returns the max sum sub list
deactivate PA
CTRL - -> UI : returns the max sum sub list
deactivate CTRL
UI -> CTRL : getMaxSum()
activate CTRL
CTRL -> PA : getMaxSum()
activate PA
PA -> PA : calculateSum(maxSumSubList)
activate PA
deactivate PA
PA - -> CTRL : returns the max sum
deactivate PA
CTRL - -> UI : returns the max sum
deactivate CTRL
UI - -> CC : shows the input list, with the difference between\n the number of Arrivals and the number of Departures for each time interval,\n the sublist with the maximum sum and the maximum sum
deactivate UI

deactivate CC
@enduml

PlantUML version 1.2022.5(Sat Apr 30 11:55:52 BST 2022)
(GPL source distribution)
Java Runtime: OpenJDK Runtime Environment
JVM: OpenJDK 64-Bit Server VM
Default Encoding: Cp1252
Language: en
Country: US
--></g></svg>