<?xml version="1.0" encoding="UTF-8" standalone="no"?><svg xmlns="http://www.w3.org/2000/svg" xmlns:xlink="http://www.w3.org/1999/xlink" contentStyleType="text/css" height="737px" preserveAspectRatio="none" style="width:2828px;height:737px;background:#FFFFFF;" version="1.1" viewBox="0 0 2828 737" width="2828px" zoomAndPan="magnify"><defs/><g><!--MD5=[9b956c59b16436292d60adff39fe4d1c]
class ApplicationUser--><g id="elem_ApplicationUser"><rect codeLine="5" fill="#F1F1F1" height="128.5" id="ApplicationUser" rx="2.5" ry="2.5" style="stroke:#181818;stroke-width:0.5;" width="130" x="7" y="440"/><ellipse cx="22" cy="456" fill="#ADD1B2" rx="11" ry="11" style="stroke:#181818;stroke-width:1.0;"/><path d="M24,452.5 Q24.2031,452 24.4375,451.75 Q24.6719,451.5 24.9375,451.5 Q25.4063,451.5 25.7031,451.7813 Q26,452.0625 26,452.7188 L26,454.2813 Q26,454.9375 25.7188,455.2188 Q25.4375,455.5 25,455.5 Q24.6094,455.5 24.3594,455.3281 Q24.1094,455.1563 24,454.7031 Q23.9531,454.3906 23.7813,454.2188 Q23.4688,453.8906 22.9063,453.7031 Q22.3438,453.5 21.7813,453.5 Q21.0781,453.5 20.4844,453.7813 Q19.9063,454.0625 19.4531,454.6875 Q19,455.3125 19,456.1719 L19,457.0938 Q19,458.125 19.8438,458.8125 Q20.6875,459.5 22.1875,459.5 Q23.0781,459.5 23.7031,459.2969 Q24.0625,459.1875 24.4688,458.8281 Q24.7344,458.625 24.875,458.5625 Q25.0156,458.5 25.1875,458.5 Q25.5156,458.5 25.75,458.7656 Q26,459.0156 26,459.375 Q26,459.7188 25.6563,460.125 Q25.1563,460.7188 24.3594,461.0469 Q23.3125,461.5 22.0313,461.5 Q20.5313,461.5 19.3281,460.9063 Q18.3594,460.4375 17.6719,459.4219 Q17,458.4063 17,457.2031 L17,456.1094 Q17,454.8594 17.5938,453.7656 Q18.2031,452.6719 19.25,452.0938 Q20.3125,451.5 21.5,451.5 Q22.2188,451.5 22.8438,451.75 Q23.4688,452 24,452.5 Z " fill="#000000"/><text fill="#000000" font-family="sans-serif" font-size="14" lengthAdjust="spacing" textLength="98" x="36" y="461.7285">ApplicationUser</text><line style="stroke:#181818;stroke-width:0.5;" x1="8" x2="136" y1="472" y2="472"/><text fill="#000000" font-family="sans-serif" font-size="16" font-weight="bold" lengthAdjust="spacing" textLength="47" x="13" y="492.6094">-name</text><text fill="#000000" font-family="sans-serif" font-size="16" font-weight="bold" lengthAdjust="spacing" textLength="109" x="13" y="512.7344">-emailAddress</text><text fill="#000000" font-family="sans-serif" font-size="16" font-weight="bold" lengthAdjust="spacing" textLength="34" x="13" y="532.8594">-role</text><text fill="#000000" font-family="sans-serif" font-size="16" font-weight="bold" lengthAdjust="spacing" textLength="81" x="13" y="552.9844">-password</text><line style="stroke:#181818;stroke-width:0.5;" x1="8" x2="136" y1="560.5" y2="560.5"/></g><!--MD5=[da547346deef918ea16944ba046651ef]
class Administrator--><g id="elem_Administrator"><rect codeLine="13" fill="#F1F1F1" height="48" id="Administrator" rx="2.5" ry="2.5" style="stroke:#181818;stroke-width:0.5;" width="115" x="14.5" y="603"/><ellipse cx="29.5" cy="619" fill="#ADD1B2" rx="11" ry="11" style="stroke:#181818;stroke-width:1.0;"/><path d="M31.5,615.5 Q31.7031,615 31.9375,614.75 Q32.1719,614.5 32.4375,614.5 Q32.9063,614.5 33.2031,614.7813 Q33.5,615.0625 33.5,615.7188 L33.5,617.2813 Q33.5,617.9375 33.2188,618.2188 Q32.9375,618.5 32.5,618.5 Q32.1094,618.5 31.8594,618.3281 Q31.6094,618.1563 31.5,617.7031 Q31.4531,617.3906 31.2813,617.2188 Q30.9688,616.8906 30.4063,616.7031 Q29.8438,616.5 29.2813,616.5 Q28.5781,616.5 27.9844,616.7813 Q27.4063,617.0625 26.9531,617.6875 Q26.5,618.3125 26.5,619.1719 L26.5,620.0938 Q26.5,621.125 27.3438,621.8125 Q28.1875,622.5 29.6875,622.5 Q30.5781,622.5 31.2031,622.2969 Q31.5625,622.1875 31.9688,621.8281 Q32.2344,621.625 32.375,621.5625 Q32.5156,621.5 32.6875,621.5 Q33.0156,621.5 33.25,621.7656 Q33.5,622.0156 33.5,622.375 Q33.5,622.7188 33.1563,623.125 Q32.6563,623.7188 31.8594,624.0469 Q30.8125,624.5 29.5313,624.5 Q28.0313,624.5 26.8281,623.9063 Q25.8594,623.4375 25.1719,622.4219 Q24.5,621.4063 24.5,620.2031 L24.5,619.1094 Q24.5,617.8594 25.0938,616.7656 Q25.7031,615.6719 26.75,615.0938 Q27.8125,614.5 29,614.5 Q29.7188,614.5 30.3438,614.75 Q30.9688,615 31.5,615.5 Z " fill="#000000"/><text fill="#000000" font-family="sans-serif" font-size="14" lengthAdjust="spacing" textLength="83" x="43.5" y="624.7285">Administrator</text><line style="stroke:#181818;stroke-width:0.5;" x1="15.5" x2="128.5" y1="635" y2="635"/><line style="stroke:#181818;stroke-width:0.5;" x1="15.5" x2="128.5" y1="643" y2="643"/></g><!--MD5=[c4593935f45e4a2a0cefc4788932b53f]
class SnsUser--><g id="elem_SnsUser"><rect codeLine="15" fill="#F1F1F1" height="68.125" id="SnsUser" rx="2.5" ry="2.5" style="stroke:#181818;stroke-width:0.5;" width="144" x="1522" y="462"/><ellipse cx="1563.55" cy="478" fill="#ADD1B2" rx="11" ry="11" style="stroke:#181818;stroke-width:1.0;"/><path d="M1565.55,474.5 Q1565.7531,474 1565.9875,473.75 Q1566.2219,473.5 1566.4875,473.5 Q1566.9563,473.5 1567.2531,473.7813 Q1567.55,474.0625 1567.55,474.7188 L1567.55,476.2813 Q1567.55,476.9375 1567.2688,477.2188 Q1566.9875,477.5 1566.55,477.5 Q1566.1594,477.5 1565.9094,477.3281 Q1565.6594,477.1563 1565.55,476.7031 Q1565.5031,476.3906 1565.3313,476.2188 Q1565.0188,475.8906 1564.4563,475.7031 Q1563.8938,475.5 1563.3313,475.5 Q1562.6281,475.5 1562.0344,475.7813 Q1561.4563,476.0625 1561.0031,476.6875 Q1560.55,477.3125 1560.55,478.1719 L1560.55,479.0938 Q1560.55,480.125 1561.3938,480.8125 Q1562.2375,481.5 1563.7375,481.5 Q1564.6281,481.5 1565.2531,481.2969 Q1565.6125,481.1875 1566.0188,480.8281 Q1566.2844,480.625 1566.425,480.5625 Q1566.5656,480.5 1566.7375,480.5 Q1567.0656,480.5 1567.3,480.7656 Q1567.55,481.0156 1567.55,481.375 Q1567.55,481.7188 1567.2063,482.125 Q1566.7063,482.7188 1565.9094,483.0469 Q1564.8625,483.5 1563.5813,483.5 Q1562.0813,483.5 1560.8781,482.9063 Q1559.9094,482.4375 1559.2219,481.4219 Q1558.55,480.4063 1558.55,479.2031 L1558.55,478.1094 Q1558.55,476.8594 1559.1438,475.7656 Q1559.7531,474.6719 1560.8,474.0938 Q1561.8625,473.5 1563.05,473.5 Q1563.7688,473.5 1564.3938,473.75 Q1565.0188,474 1565.55,474.5 Z " fill="#000000"/><text fill="#000000" font-family="sans-serif" font-size="14" lengthAdjust="spacing" textLength="53" x="1583.45" y="483.7285">SnsUser</text><line style="stroke:#181818;stroke-width:0.5;" x1="1523" x2="1665" y1="494" y2="494"/><text fill="#000000" font-family="sans-serif" font-size="16" font-weight="bold" lengthAdjust="spacing" textLength="132" x="1528" y="514.6094">-SnsUserNumber</text><line style="stroke:#181818;stroke-width:0.5;" x1="1523" x2="1665" y1="522.125" y2="522.125"/></g><!--MD5=[a059576e163b46f56762f12600c49258]
class Nurse--><g id="elem_Nurse"><rect codeLine="30" fill="#F1F1F1" height="48" id="Nurse" rx="2.5" ry="2.5" style="stroke:#181818;stroke-width:0.5;" width="69" x="591" y="583"/><ellipse cx="606" cy="599" fill="#ADD1B2" rx="11" ry="11" style="stroke:#181818;stroke-width:1.0;"/><path d="M608,595.5 Q608.2031,595 608.4375,594.75 Q608.6719,594.5 608.9375,594.5 Q609.4063,594.5 609.7031,594.7813 Q610,595.0625 610,595.7188 L610,597.2813 Q610,597.9375 609.7188,598.2188 Q609.4375,598.5 609,598.5 Q608.6094,598.5 608.3594,598.3281 Q608.1094,598.1563 608,597.7031 Q607.9531,597.3906 607.7813,597.2188 Q607.4688,596.8906 606.9063,596.7031 Q606.3438,596.5 605.7813,596.5 Q605.0781,596.5 604.4844,596.7813 Q603.9063,597.0625 603.4531,597.6875 Q603,598.3125 603,599.1719 L603,600.0938 Q603,601.125 603.8438,601.8125 Q604.6875,602.5 606.1875,602.5 Q607.0781,602.5 607.7031,602.2969 Q608.0625,602.1875 608.4688,601.8281 Q608.7344,601.625 608.875,601.5625 Q609.0156,601.5 609.1875,601.5 Q609.5156,601.5 609.75,601.7656 Q610,602.0156 610,602.375 Q610,602.7188 609.6563,603.125 Q609.1563,603.7188 608.3594,604.0469 Q607.3125,604.5 606.0313,604.5 Q604.5313,604.5 603.3281,603.9063 Q602.3594,603.4375 601.6719,602.4219 Q601,601.4063 601,600.2031 L601,599.1094 Q601,597.8594 601.5938,596.7656 Q602.2031,595.6719 603.25,595.0938 Q604.3125,594.5 605.5,594.5 Q606.2188,594.5 606.8438,594.75 Q607.4688,595 608,595.5 Z " fill="#000000"/><text fill="#000000" font-family="sans-serif" font-size="14" lengthAdjust="spacing" textLength="37" x="620" y="604.7285">Nurse</text><line style="stroke:#181818;stroke-width:0.5;" x1="592" x2="659" y1="615" y2="615"/><line style="stroke:#181818;stroke-width:0.5;" x1="592" x2="659" y1="623" y2="623"/></g><!--MD5=[03960189e81aa2c066c762ffabbee709]
class Receptionist--><g id="elem_Receptionist"><rect codeLine="28" fill="#F1F1F1" height="48" id="Receptionist" rx="2.5" ry="2.5" style="stroke:#181818;stroke-width:0.5;" width="110" x="17" y="259"/><ellipse cx="32" cy="275" fill="#ADD1B2" rx="11" ry="11" style="stroke:#181818;stroke-width:1.0;"/><path d="M34,271.5 Q34.2031,271 34.4375,270.75 Q34.6719,270.5 34.9375,270.5 Q35.4063,270.5 35.7031,270.7813 Q36,271.0625 36,271.7188 L36,273.2813 Q36,273.9375 35.7188,274.2188 Q35.4375,274.5 35,274.5 Q34.6094,274.5 34.3594,274.3281 Q34.1094,274.1563 34,273.7031 Q33.9531,273.3906 33.7813,273.2188 Q33.4688,272.8906 32.9063,272.7031 Q32.3438,272.5 31.7813,272.5 Q31.0781,272.5 30.4844,272.7813 Q29.9063,273.0625 29.4531,273.6875 Q29,274.3125 29,275.1719 L29,276.0938 Q29,277.125 29.8438,277.8125 Q30.6875,278.5 32.1875,278.5 Q33.0781,278.5 33.7031,278.2969 Q34.0625,278.1875 34.4688,277.8281 Q34.7344,277.625 34.875,277.5625 Q35.0156,277.5 35.1875,277.5 Q35.5156,277.5 35.75,277.7656 Q36,278.0156 36,278.375 Q36,278.7188 35.6563,279.125 Q35.1563,279.7188 34.3594,280.0469 Q33.3125,280.5 32.0313,280.5 Q30.5313,280.5 29.3281,279.9063 Q28.3594,279.4375 27.6719,278.4219 Q27,277.4063 27,276.2031 L27,275.1094 Q27,273.8594 27.5938,272.7656 Q28.2031,271.6719 29.25,271.0938 Q30.3125,270.5 31.5,270.5 Q32.2188,270.5 32.8438,270.75 Q33.4688,271 34,271.5 Z " fill="#000000"/><text fill="#000000" font-family="sans-serif" font-size="14" lengthAdjust="spacing" textLength="78" x="46" y="280.7285">Receptionist</text><line style="stroke:#181818;stroke-width:0.5;" x1="18" x2="126" y1="291" y2="291"/><line style="stroke:#181818;stroke-width:0.5;" x1="18" x2="126" y1="299" y2="299"/></g><!--MD5=[2d935fd2dd068a13da1ae531f9857c4f]
class CenterCoordinator--><g id="elem_CenterCoordinator"><rect codeLine="32" fill="#F1F1F1" height="48" id="CenterCoordinator" rx="2.5" ry="2.5" style="stroke:#181818;stroke-width:0.5;" width="150" x="260" y="353"/><ellipse cx="275" cy="369" fill="#ADD1B2" rx="11" ry="11" style="stroke:#181818;stroke-width:1.0;"/><path d="M277,365.5 Q277.2031,365 277.4375,364.75 Q277.6719,364.5 277.9375,364.5 Q278.4063,364.5 278.7031,364.7813 Q279,365.0625 279,365.7188 L279,367.2813 Q279,367.9375 278.7188,368.2188 Q278.4375,368.5 278,368.5 Q277.6094,368.5 277.3594,368.3281 Q277.1094,368.1563 277,367.7031 Q276.9531,367.3906 276.7813,367.2188 Q276.4688,366.8906 275.9063,366.7031 Q275.3438,366.5 274.7813,366.5 Q274.0781,366.5 273.4844,366.7813 Q272.9063,367.0625 272.4531,367.6875 Q272,368.3125 272,369.1719 L272,370.0938 Q272,371.125 272.8438,371.8125 Q273.6875,372.5 275.1875,372.5 Q276.0781,372.5 276.7031,372.2969 Q277.0625,372.1875 277.4688,371.8281 Q277.7344,371.625 277.875,371.5625 Q278.0156,371.5 278.1875,371.5 Q278.5156,371.5 278.75,371.7656 Q279,372.0156 279,372.375 Q279,372.7188 278.6563,373.125 Q278.1563,373.7188 277.3594,374.0469 Q276.3125,374.5 275.0313,374.5 Q273.5313,374.5 272.3281,373.9063 Q271.3594,373.4375 270.6719,372.4219 Q270,371.4063 270,370.2031 L270,369.1094 Q270,367.8594 270.5938,366.7656 Q271.2031,365.6719 272.25,365.0938 Q273.3125,364.5 274.5,364.5 Q275.2188,364.5 275.8438,364.75 Q276.4688,365 277,365.5 Z " fill="#000000"/><text fill="#000000" font-family="sans-serif" font-size="14" lengthAdjust="spacing" textLength="118" x="289" y="374.7285">CenterCoordinator</text><line style="stroke:#181818;stroke-width:0.5;" x1="261" x2="409" y1="385" y2="385"/><line style="stroke:#181818;stroke-width:0.5;" x1="261" x2="409" y1="393" y2="393"/></g><!--MD5=[de60e6d4f424ae4d0522096f76a59010]
class VaccinationCenter--><g id="elem_VaccinationCenter"><rect codeLine="47" fill="#F1F1F1" height="329.75" id="VaccinationCenter" rx="2.5" ry="2.5" style="stroke:#181818;stroke-width:0.5;" width="196" x="1496" y="7"/><ellipse cx="1532.6" cy="23" fill="#ADD1B2" rx="11" ry="11" style="stroke:#181818;stroke-width:1.0;"/><path d="M1534.6,19.5 Q1534.8031,19 1535.0375,18.75 Q1535.2719,18.5 1535.5375,18.5 Q1536.0063,18.5 1536.3031,18.7813 Q1536.6,19.0625 1536.6,19.7188 L1536.6,21.2813 Q1536.6,21.9375 1536.3188,22.2188 Q1536.0375,22.5 1535.6,22.5 Q1535.2094,22.5 1534.9594,22.3281 Q1534.7094,22.1563 1534.6,21.7031 Q1534.5531,21.3906 1534.3813,21.2188 Q1534.0688,20.8906 1533.5063,20.7031 Q1532.9438,20.5 1532.3813,20.5 Q1531.6781,20.5 1531.0844,20.7813 Q1530.5063,21.0625 1530.0531,21.6875 Q1529.6,22.3125 1529.6,23.1719 L1529.6,24.0938 Q1529.6,25.125 1530.4438,25.8125 Q1531.2875,26.5 1532.7875,26.5 Q1533.6781,26.5 1534.3031,26.2969 Q1534.6625,26.1875 1535.0688,25.8281 Q1535.3344,25.625 1535.475,25.5625 Q1535.6156,25.5 1535.7875,25.5 Q1536.1156,25.5 1536.35,25.7656 Q1536.6,26.0156 1536.6,26.375 Q1536.6,26.7188 1536.2563,27.125 Q1535.7563,27.7188 1534.9594,28.0469 Q1533.9125,28.5 1532.6313,28.5 Q1531.1313,28.5 1529.9281,27.9063 Q1528.9594,27.4375 1528.2719,26.4219 Q1527.6,25.4063 1527.6,24.2031 L1527.6,23.1094 Q1527.6,21.8594 1528.1938,20.7656 Q1528.8031,19.6719 1529.85,19.0938 Q1530.9125,18.5 1532.1,18.5 Q1532.8188,18.5 1533.4438,18.75 Q1534.0688,19 1534.6,19.5 Z " fill="#000000"/><text fill="#000000" font-family="sans-serif" font-size="14" lengthAdjust="spacing" textLength="116" x="1551.4" y="28.7285">VaccinationCenter</text><line style="stroke:#181818;stroke-width:0.5;" x1="1497" x2="1691" y1="39" y2="39"/><text fill="#000000" font-family="sans-serif" font-size="16" font-weight="bold" lengthAdjust="spacing" textLength="40" x="1502" y="59.6094">-intID</text><text fill="#000000" font-family="sans-serif" font-size="16" font-weight="bold" lengthAdjust="spacing" textLength="69" x="1502" y="79.7344">-strName</text><text fill="#000000" font-family="sans-serif" font-size="16" font-weight="bold" lengthAdjust="spacing" textLength="136" x="1502" y="99.8594">-strPhoneNumber</text><text fill="#000000" font-family="sans-serif" font-size="16" font-weight="bold" lengthAdjust="spacing" textLength="67" x="1502" y="119.9844">-strEmail</text><text fill="#000000" font-family="sans-serif" font-size="16" font-weight="bold" lengthAdjust="spacing" textLength="53" x="1502" y="140.1094">-strFax</text><text fill="#000000" font-family="sans-serif" font-size="16" font-weight="bold" lengthAdjust="spacing" textLength="86" x="1502" y="160.2344">-strWebsite</text><text fill="#000000" font-family="sans-serif" font-size="16" font-weight="bold" lengthAdjust="spacing" textLength="128" x="1502" y="180.3594">-strOpeningHour</text><text fill="#000000" font-family="sans-serif" font-size="16" font-weight="bold" lengthAdjust="spacing" textLength="122" x="1502" y="200.4844">-strClosingHour</text><text fill="#000000" font-family="sans-serif" font-size="16" font-weight="bold" lengthAdjust="spacing" textLength="121" x="1502" y="220.6094">-strSlotDuration</text><text fill="#000000" font-family="sans-serif" font-size="16" font-weight="bold" lengthAdjust="spacing" textLength="151" x="1502" y="240.7344">-strVaccinesPerSlot</text><text fill="#000000" font-family="sans-serif" font-size="16" font-weight="bold" lengthAdjust="spacing" textLength="66" x="1502" y="260.8594">-strRoad</text><text fill="#000000" font-family="sans-serif" font-size="16" font-weight="bold" lengthAdjust="spacing" textLength="89" x="1502" y="280.9844">-strZipCode</text><text fill="#000000" font-family="sans-serif" font-size="16" font-weight="bold" lengthAdjust="spacing" textLength="67" x="1502" y="301.1094">-strLocal</text><text fill="#000000" font-family="sans-serif" font-size="16" font-weight="bold" lengthAdjust="spacing" textLength="184" x="1502" y="321.2344">-strCenterCoordinatorID</text><line style="stroke:#181818;stroke-width:0.5;" x1="1497" x2="1691" y1="328.75" y2="328.75"/></g><!--MD5=[76480a6701b5d2883bc606a2560c3cfe]
class MassVaccinationCenter--><g id="elem_MassVaccinationCenter"><rect codeLine="64" fill="#F1F1F1" height="48" id="MassVaccinationCenter" rx="2.5" ry="2.5" style="stroke:#181818;stroke-width:0.5;" width="181" x="1826" y="149"/><ellipse cx="1841" cy="165" fill="#ADD1B2" rx="11" ry="11" style="stroke:#181818;stroke-width:1.0;"/><path d="M1843,161.5 Q1843.2031,161 1843.4375,160.75 Q1843.6719,160.5 1843.9375,160.5 Q1844.4063,160.5 1844.7031,160.7813 Q1845,161.0625 1845,161.7188 L1845,163.2813 Q1845,163.9375 1844.7188,164.2188 Q1844.4375,164.5 1844,164.5 Q1843.6094,164.5 1843.3594,164.3281 Q1843.1094,164.1563 1843,163.7031 Q1842.9531,163.3906 1842.7813,163.2188 Q1842.4688,162.8906 1841.9063,162.7031 Q1841.3438,162.5 1840.7813,162.5 Q1840.0781,162.5 1839.4844,162.7813 Q1838.9063,163.0625 1838.4531,163.6875 Q1838,164.3125 1838,165.1719 L1838,166.0938 Q1838,167.125 1838.8438,167.8125 Q1839.6875,168.5 1841.1875,168.5 Q1842.0781,168.5 1842.7031,168.2969 Q1843.0625,168.1875 1843.4688,167.8281 Q1843.7344,167.625 1843.875,167.5625 Q1844.0156,167.5 1844.1875,167.5 Q1844.5156,167.5 1844.75,167.7656 Q1845,168.0156 1845,168.375 Q1845,168.7188 1844.6563,169.125 Q1844.1563,169.7188 1843.3594,170.0469 Q1842.3125,170.5 1841.0313,170.5 Q1839.5313,170.5 1838.3281,169.9063 Q1837.3594,169.4375 1836.6719,168.4219 Q1836,167.4063 1836,166.2031 L1836,165.1094 Q1836,163.8594 1836.5938,162.7656 Q1837.2031,161.6719 1838.25,161.0938 Q1839.3125,160.5 1840.5,160.5 Q1841.2188,160.5 1841.8438,160.75 Q1842.4688,161 1843,161.5 Z " fill="#000000"/><text fill="#000000" font-family="sans-serif" font-size="14" lengthAdjust="spacing" textLength="149" x="1855" y="170.7285">MassVaccinationCenter</text><line style="stroke:#181818;stroke-width:0.5;" x1="1827" x2="2006" y1="181" y2="181"/><line style="stroke:#181818;stroke-width:0.5;" x1="1827" x2="2006" y1="189" y2="189"/></g><!--MD5=[0b1ce5251ebf137e6b3550dd84e6af65]
class HealthcareCenter--><g id="elem_HealthcareCenter"><rect codeLine="68" fill="#F1F1F1" height="88.25" id="HealthcareCenter" rx="2.5" ry="2.5" style="stroke:#181818;stroke-width:0.5;" width="143" x="1845" y="232"/><ellipse cx="1860" cy="248" fill="#ADD1B2" rx="11" ry="11" style="stroke:#181818;stroke-width:1.0;"/><path d="M1862,244.5 Q1862.2031,244 1862.4375,243.75 Q1862.6719,243.5 1862.9375,243.5 Q1863.4063,243.5 1863.7031,243.7813 Q1864,244.0625 1864,244.7188 L1864,246.2813 Q1864,246.9375 1863.7188,247.2188 Q1863.4375,247.5 1863,247.5 Q1862.6094,247.5 1862.3594,247.3281 Q1862.1094,247.1563 1862,246.7031 Q1861.9531,246.3906 1861.7813,246.2188 Q1861.4688,245.8906 1860.9063,245.7031 Q1860.3438,245.5 1859.7813,245.5 Q1859.0781,245.5 1858.4844,245.7813 Q1857.9063,246.0625 1857.4531,246.6875 Q1857,247.3125 1857,248.1719 L1857,249.0938 Q1857,250.125 1857.8438,250.8125 Q1858.6875,251.5 1860.1875,251.5 Q1861.0781,251.5 1861.7031,251.2969 Q1862.0625,251.1875 1862.4688,250.8281 Q1862.7344,250.625 1862.875,250.5625 Q1863.0156,250.5 1863.1875,250.5 Q1863.5156,250.5 1863.75,250.7656 Q1864,251.0156 1864,251.375 Q1864,251.7188 1863.6563,252.125 Q1863.1563,252.7188 1862.3594,253.0469 Q1861.3125,253.5 1860.0313,253.5 Q1858.5313,253.5 1857.3281,252.9063 Q1856.3594,252.4375 1855.6719,251.4219 Q1855,250.4063 1855,249.2031 L1855,248.1094 Q1855,246.8594 1855.5938,245.7656 Q1856.2031,244.6719 1857.25,244.0938 Q1858.3125,243.5 1859.5,243.5 Q1860.2188,243.5 1860.8438,243.75 Q1861.4688,244 1862,244.5 Z " fill="#000000"/><text fill="#000000" font-family="sans-serif" font-size="14" lengthAdjust="spacing" textLength="111" x="1874" y="253.7285">HealthcareCenter</text><line style="stroke:#181818;stroke-width:0.5;" x1="1846" x2="1987" y1="264" y2="264"/><text fill="#000000" font-family="sans-serif" font-size="16" font-weight="bold" lengthAdjust="spacing" textLength="39" x="1851" y="284.6094">-ARE</text><text fill="#000000" font-family="sans-serif" font-size="16" font-weight="bold" lengthAdjust="spacing" textLength="50" x="1851" y="304.7344">-AGES</text><line style="stroke:#181818;stroke-width:0.5;" x1="1846" x2="1987" y1="312.25" y2="312.25"/></g><!--MD5=[19e445fc4d3b48519cbe33da05496394]
class Vaccine--><g id="elem_Vaccine"><rect codeLine="73" fill="#F1F1F1" height="108.375" id="Vaccine" rx="2.5" ry="2.5" style="stroke:#181818;stroke-width:0.5;" width="82" x="2422" y="322"/><ellipse cx="2437" cy="338" fill="#ADD1B2" rx="11" ry="11" style="stroke:#181818;stroke-width:1.0;"/><path d="M2439,334.5 Q2439.2031,334 2439.4375,333.75 Q2439.6719,333.5 2439.9375,333.5 Q2440.4063,333.5 2440.7031,333.7813 Q2441,334.0625 2441,334.7188 L2441,336.2813 Q2441,336.9375 2440.7188,337.2188 Q2440.4375,337.5 2440,337.5 Q2439.6094,337.5 2439.3594,337.3281 Q2439.1094,337.1563 2439,336.7031 Q2438.9531,336.3906 2438.7813,336.2188 Q2438.4688,335.8906 2437.9063,335.7031 Q2437.3438,335.5 2436.7813,335.5 Q2436.0781,335.5 2435.4844,335.7813 Q2434.9063,336.0625 2434.4531,336.6875 Q2434,337.3125 2434,338.1719 L2434,339.0938 Q2434,340.125 2434.8438,340.8125 Q2435.6875,341.5 2437.1875,341.5 Q2438.0781,341.5 2438.7031,341.2969 Q2439.0625,341.1875 2439.4688,340.8281 Q2439.7344,340.625 2439.875,340.5625 Q2440.0156,340.5 2440.1875,340.5 Q2440.5156,340.5 2440.75,340.7656 Q2441,341.0156 2441,341.375 Q2441,341.7188 2440.6563,342.125 Q2440.1563,342.7188 2439.3594,343.0469 Q2438.3125,343.5 2437.0313,343.5 Q2435.5313,343.5 2434.3281,342.9063 Q2433.3594,342.4375 2432.6719,341.4219 Q2432,340.4063 2432,339.2031 L2432,338.1094 Q2432,336.8594 2432.5938,335.7656 Q2433.2031,334.6719 2434.25,334.0938 Q2435.3125,333.5 2436.5,333.5 Q2437.2188,333.5 2437.8438,333.75 Q2438.4688,334 2439,334.5 Z " fill="#000000"/><text fill="#000000" font-family="sans-serif" font-size="14" lengthAdjust="spacing" textLength="50" x="2451" y="343.7285">Vaccine</text><line style="stroke:#181818;stroke-width:0.5;" x1="2423" x2="2503" y1="354" y2="354"/><text fill="#000000" font-family="sans-serif" font-size="16" font-weight="bold" lengthAdjust="spacing" textLength="50" x="2428" y="374.6094">-brand</text><text fill="#000000" font-family="sans-serif" font-size="16" font-weight="bold" lengthAdjust="spacing" textLength="47" x="2428" y="394.7344">-name</text><text fill="#000000" font-family="sans-serif" font-size="16" font-weight="bold" lengthAdjust="spacing" textLength="19" x="2428" y="414.8594">-id</text><line style="stroke:#181818;stroke-width:0.5;" x1="2423" x2="2503" y1="422.375" y2="422.375"/></g><!--MD5=[a2530d24bafc45bb45314d96545aa194]
class AdministrationProcess--><g id="elem_AdministrationProcess"><rect codeLine="79" fill="#F1F1F1" height="128.5" id="AdministrationProcess" rx="2.5" ry="2.5" style="stroke:#181818;stroke-width:0.5;" width="210" x="2611" y="312"/><ellipse cx="2643.1" cy="328" fill="#ADD1B2" rx="11" ry="11" style="stroke:#181818;stroke-width:1.0;"/><path d="M2645.1,324.5 Q2645.3031,324 2645.5375,323.75 Q2645.7719,323.5 2646.0375,323.5 Q2646.5063,323.5 2646.8031,323.7813 Q2647.1,324.0625 2647.1,324.7188 L2647.1,326.2813 Q2647.1,326.9375 2646.8188,327.2188 Q2646.5375,327.5 2646.1,327.5 Q2645.7094,327.5 2645.4594,327.3281 Q2645.2094,327.1563 2645.1,326.7031 Q2645.0531,326.3906 2644.8813,326.2188 Q2644.5688,325.8906 2644.0063,325.7031 Q2643.4438,325.5 2642.8813,325.5 Q2642.1781,325.5 2641.5844,325.7813 Q2641.0063,326.0625 2640.5531,326.6875 Q2640.1,327.3125 2640.1,328.1719 L2640.1,329.0938 Q2640.1,330.125 2640.9438,330.8125 Q2641.7875,331.5 2643.2875,331.5 Q2644.1781,331.5 2644.8031,331.2969 Q2645.1625,331.1875 2645.5688,330.8281 Q2645.8344,330.625 2645.975,330.5625 Q2646.1156,330.5 2646.2875,330.5 Q2646.6156,330.5 2646.85,330.7656 Q2647.1,331.0156 2647.1,331.375 Q2647.1,331.7188 2646.7563,332.125 Q2646.2563,332.7188 2645.4594,333.0469 Q2644.4125,333.5 2643.1313,333.5 Q2641.6313,333.5 2640.4281,332.9063 Q2639.4594,332.4375 2638.7719,331.4219 Q2638.1,330.4063 2638.1,329.2031 L2638.1,328.1094 Q2638.1,326.8594 2638.6938,325.7656 Q2639.3031,324.6719 2640.35,324.0938 Q2641.4125,323.5 2642.6,323.5 Q2643.3188,323.5 2643.9438,323.75 Q2644.5688,324 2645.1,324.5 Z " fill="#000000"/><text fill="#000000" font-family="sans-serif" font-size="14" lengthAdjust="spacing" textLength="140" x="2660.9" y="333.7285">AdministrationProcess</text><line style="stroke:#181818;stroke-width:0.5;" x1="2612" x2="2820" y1="344" y2="344"/><text fill="#000000" font-family="sans-serif" font-size="16" font-weight="bold" lengthAdjust="spacing" textLength="130" x="2617" y="364.6094">-numberOfDoses</text><text fill="#000000" font-family="sans-serif" font-size="16" font-weight="bold" lengthAdjust="spacing" textLength="62" x="2617" y="384.7344">-dosage</text><text fill="#000000" font-family="sans-serif" font-size="16" font-weight="bold" lengthAdjust="spacing" textLength="33" x="2617" y="404.8594">-age</text><text fill="#000000" font-family="sans-serif" font-size="16" font-weight="bold" lengthAdjust="spacing" textLength="198" x="2617" y="424.9844">-intervalBetweenVaccines</text><line style="stroke:#181818;stroke-width:0.5;" x1="2612" x2="2820" y1="432.5" y2="432.5"/></g><!--MD5=[0e501da62322464167c8ec4d233a6b7e]
class VaccineType--><g id="elem_VaccineType"><rect codeLine="86" fill="#F1F1F1" height="108.375" id="VaccineType" rx="2.5" ry="2.5" style="stroke:#181818;stroke-width:0.5;" width="114" x="2198.5" y="322"/><ellipse cx="2213.5" cy="338" fill="#ADD1B2" rx="11" ry="11" style="stroke:#181818;stroke-width:1.0;"/><path d="M2215.5,334.5 Q2215.7031,334 2215.9375,333.75 Q2216.1719,333.5 2216.4375,333.5 Q2216.9063,333.5 2217.2031,333.7813 Q2217.5,334.0625 2217.5,334.7188 L2217.5,336.2813 Q2217.5,336.9375 2217.2188,337.2188 Q2216.9375,337.5 2216.5,337.5 Q2216.1094,337.5 2215.8594,337.3281 Q2215.6094,337.1563 2215.5,336.7031 Q2215.4531,336.3906 2215.2813,336.2188 Q2214.9688,335.8906 2214.4063,335.7031 Q2213.8438,335.5 2213.2813,335.5 Q2212.5781,335.5 2211.9844,335.7813 Q2211.4063,336.0625 2210.9531,336.6875 Q2210.5,337.3125 2210.5,338.1719 L2210.5,339.0938 Q2210.5,340.125 2211.3438,340.8125 Q2212.1875,341.5 2213.6875,341.5 Q2214.5781,341.5 2215.2031,341.2969 Q2215.5625,341.1875 2215.9688,340.8281 Q2216.2344,340.625 2216.375,340.5625 Q2216.5156,340.5 2216.6875,340.5 Q2217.0156,340.5 2217.25,340.7656 Q2217.5,341.0156 2217.5,341.375 Q2217.5,341.7188 2217.1563,342.125 Q2216.6563,342.7188 2215.8594,343.0469 Q2214.8125,343.5 2213.5313,343.5 Q2212.0313,343.5 2210.8281,342.9063 Q2209.8594,342.4375 2209.1719,341.4219 Q2208.5,340.4063 2208.5,339.2031 L2208.5,338.1094 Q2208.5,336.8594 2209.0938,335.7656 Q2209.7031,334.6719 2210.75,334.0938 Q2211.8125,333.5 2213,333.5 Q2213.7188,333.5 2214.3438,333.75 Q2214.9688,334 2215.5,334.5 Z " fill="#000000"/><text fill="#000000" font-family="sans-serif" font-size="14" lengthAdjust="spacing" textLength="82" x="2227.5" y="343.7285">VaccineType</text><line style="stroke:#181818;stroke-width:0.5;" x1="2199.5" x2="2311.5" y1="354" y2="354"/><text fill="#000000" font-family="sans-serif" font-size="16" font-weight="bold" lengthAdjust="spacing" textLength="43" x="2204.5" y="374.6094">-code</text><text fill="#000000" font-family="sans-serif" font-size="16" font-weight="bold" lengthAdjust="spacing" textLength="91" x="2204.5" y="394.7344">-description</text><text fill="#000000" font-family="sans-serif" font-size="16" font-weight="bold" lengthAdjust="spacing" textLength="91" x="2204.5" y="414.8594">-technology</text><line style="stroke:#181818;stroke-width:0.5;" x1="2199.5" x2="2311.5" y1="422.375" y2="422.375"/></g><!--MD5=[80a03012b5333e72487751e45bd40e3d]
class DigitalCertificate--><g id="elem_DigitalCertificate"><rect codeLine="97" fill="#F1F1F1" height="48" id="DigitalCertificate" rx="2.5" ry="2.5" style="stroke:#181818;stroke-width:0.5;" width="135" x="2188" y="465"/><ellipse cx="2203" cy="481" fill="#ADD1B2" rx="11" ry="11" style="stroke:#181818;stroke-width:1.0;"/><path d="M2205,477.5 Q2205.2031,477 2205.4375,476.75 Q2205.6719,476.5 2205.9375,476.5 Q2206.4063,476.5 2206.7031,476.7813 Q2207,477.0625 2207,477.7188 L2207,479.2813 Q2207,479.9375 2206.7188,480.2188 Q2206.4375,480.5 2206,480.5 Q2205.6094,480.5 2205.3594,480.3281 Q2205.1094,480.1563 2205,479.7031 Q2204.9531,479.3906 2204.7813,479.2188 Q2204.4688,478.8906 2203.9063,478.7031 Q2203.3438,478.5 2202.7813,478.5 Q2202.0781,478.5 2201.4844,478.7813 Q2200.9063,479.0625 2200.4531,479.6875 Q2200,480.3125 2200,481.1719 L2200,482.0938 Q2200,483.125 2200.8438,483.8125 Q2201.6875,484.5 2203.1875,484.5 Q2204.0781,484.5 2204.7031,484.2969 Q2205.0625,484.1875 2205.4688,483.8281 Q2205.7344,483.625 2205.875,483.5625 Q2206.0156,483.5 2206.1875,483.5 Q2206.5156,483.5 2206.75,483.7656 Q2207,484.0156 2207,484.375 Q2207,484.7188 2206.6563,485.125 Q2206.1563,485.7188 2205.3594,486.0469 Q2204.3125,486.5 2203.0313,486.5 Q2201.5313,486.5 2200.3281,485.9063 Q2199.3594,485.4375 2198.6719,484.4219 Q2198,483.4063 2198,482.2031 L2198,481.1094 Q2198,479.8594 2198.5938,478.7656 Q2199.2031,477.6719 2200.25,477.0938 Q2201.3125,476.5 2202.5,476.5 Q2203.2188,476.5 2203.8438,476.75 Q2204.4688,477 2205,477.5 Z " fill="#000000"/><text fill="#000000" font-family="sans-serif" font-size="14" lengthAdjust="spacing" textLength="103" x="2217" y="486.7285">DigitalCertificate</text><line style="stroke:#181818;stroke-width:0.5;" x1="2189" x2="2322" y1="497" y2="497"/><line style="stroke:#181818;stroke-width:0.5;" x1="2189" x2="2322" y1="505" y2="505"/></g><!--MD5=[cf1ec8291adc4f100e491a8c336ca0ac]
class VaccineAppointment--><g id="elem_VaccineAppointment"><rect codeLine="102" fill="#F1F1F1" height="68.125" id="VaccineAppointment" rx="2.5" ry="2.5" style="stroke:#181818;stroke-width:0.5;" width="161" x="1836" y="356"/><ellipse cx="1851" cy="372" fill="#ADD1B2" rx="11" ry="11" style="stroke:#181818;stroke-width:1.0;"/><path d="M1853,368.5 Q1853.2031,368 1853.4375,367.75 Q1853.6719,367.5 1853.9375,367.5 Q1854.4063,367.5 1854.7031,367.7813 Q1855,368.0625 1855,368.7188 L1855,370.2813 Q1855,370.9375 1854.7188,371.2188 Q1854.4375,371.5 1854,371.5 Q1853.6094,371.5 1853.3594,371.3281 Q1853.1094,371.1563 1853,370.7031 Q1852.9531,370.3906 1852.7813,370.2188 Q1852.4688,369.8906 1851.9063,369.7031 Q1851.3438,369.5 1850.7813,369.5 Q1850.0781,369.5 1849.4844,369.7813 Q1848.9063,370.0625 1848.4531,370.6875 Q1848,371.3125 1848,372.1719 L1848,373.0938 Q1848,374.125 1848.8438,374.8125 Q1849.6875,375.5 1851.1875,375.5 Q1852.0781,375.5 1852.7031,375.2969 Q1853.0625,375.1875 1853.4688,374.8281 Q1853.7344,374.625 1853.875,374.5625 Q1854.0156,374.5 1854.1875,374.5 Q1854.5156,374.5 1854.75,374.7656 Q1855,375.0156 1855,375.375 Q1855,375.7188 1854.6563,376.125 Q1854.1563,376.7188 1853.3594,377.0469 Q1852.3125,377.5 1851.0313,377.5 Q1849.5313,377.5 1848.3281,376.9063 Q1847.3594,376.4375 1846.6719,375.4219 Q1846,374.4063 1846,373.2031 L1846,372.1094 Q1846,370.8594 1846.5938,369.7656 Q1847.2031,368.6719 1848.25,368.0938 Q1849.3125,367.5 1850.5,367.5 Q1851.2188,367.5 1851.8438,367.75 Q1852.4688,368 1853,368.5 Z " fill="#000000"/><text fill="#000000" font-family="sans-serif" font-size="14" lengthAdjust="spacing" textLength="129" x="1865" y="377.7285">VaccineAppointment</text><line style="stroke:#181818;stroke-width:0.5;" x1="1837" x2="1996" y1="388" y2="388"/><text fill="#000000" font-family="sans-serif" font-size="16" font-weight="bold" lengthAdjust="spacing" textLength="38" x="1842" y="408.6094">-date</text><line style="stroke:#181818;stroke-width:0.5;" x1="1837" x2="1996" y1="416.125" y2="416.125"/></g><!--MD5=[7cee63e05c54fc7e82ca7f101606cdb1]
class UsersWaitingList--><g id="elem_UsersWaitingList"><rect codeLine="110" fill="#F1F1F1" height="48" id="UsersWaitingList" rx="2.5" ry="2.5" style="stroke:#181818;stroke-width:0.5;" width="137" x="863" y="431"/><ellipse cx="878" cy="447" fill="#ADD1B2" rx="11" ry="11" style="stroke:#181818;stroke-width:1.0;"/><path d="M880,443.5 Q880.2031,443 880.4375,442.75 Q880.6719,442.5 880.9375,442.5 Q881.4063,442.5 881.7031,442.7813 Q882,443.0625 882,443.7188 L882,445.2813 Q882,445.9375 881.7188,446.2188 Q881.4375,446.5 881,446.5 Q880.6094,446.5 880.3594,446.3281 Q880.1094,446.1563 880,445.7031 Q879.9531,445.3906 879.7813,445.2188 Q879.4688,444.8906 878.9063,444.7031 Q878.3438,444.5 877.7813,444.5 Q877.0781,444.5 876.4844,444.7813 Q875.9063,445.0625 875.4531,445.6875 Q875,446.3125 875,447.1719 L875,448.0938 Q875,449.125 875.8438,449.8125 Q876.6875,450.5 878.1875,450.5 Q879.0781,450.5 879.7031,450.2969 Q880.0625,450.1875 880.4688,449.8281 Q880.7344,449.625 880.875,449.5625 Q881.0156,449.5 881.1875,449.5 Q881.5156,449.5 881.75,449.7656 Q882,450.0156 882,450.375 Q882,450.7188 881.6563,451.125 Q881.1563,451.7188 880.3594,452.0469 Q879.3125,452.5 878.0313,452.5 Q876.5313,452.5 875.3281,451.9063 Q874.3594,451.4375 873.6719,450.4219 Q873,449.4063 873,448.2031 L873,447.1094 Q873,445.8594 873.5938,444.7656 Q874.2031,443.6719 875.25,443.0938 Q876.3125,442.5 877.5,442.5 Q878.2188,442.5 878.8438,442.75 Q879.4688,443 880,443.5 Z " fill="#000000"/><text fill="#000000" font-family="sans-serif" font-size="14" lengthAdjust="spacing" textLength="105" x="892" y="452.7285">UsersWaitingList</text><line style="stroke:#181818;stroke-width:0.5;" x1="864" x2="999" y1="463" y2="463"/><line style="stroke:#181818;stroke-width:0.5;" x1="864" x2="999" y1="471" y2="471"/></g><!--MD5=[9e94af7e26ddd61f16675ec5a7d7b75f]
class UserInfo--><g id="elem_UserInfo"><rect codeLine="111" fill="#F1F1F1" height="48" id="UserInfo" rx="2.5" ry="2.5" style="stroke:#181818;stroke-width:0.5;" width="84" x="1874.5" y="559"/><ellipse cx="1889.5" cy="575" fill="#ADD1B2" rx="11" ry="11" style="stroke:#181818;stroke-width:1.0;"/><path d="M1891.5,571.5 Q1891.7031,571 1891.9375,570.75 Q1892.1719,570.5 1892.4375,570.5 Q1892.9063,570.5 1893.2031,570.7813 Q1893.5,571.0625 1893.5,571.7188 L1893.5,573.2813 Q1893.5,573.9375 1893.2188,574.2188 Q1892.9375,574.5 1892.5,574.5 Q1892.1094,574.5 1891.8594,574.3281 Q1891.6094,574.1563 1891.5,573.7031 Q1891.4531,573.3906 1891.2813,573.2188 Q1890.9688,572.8906 1890.4063,572.7031 Q1889.8438,572.5 1889.2813,572.5 Q1888.5781,572.5 1887.9844,572.7813 Q1887.4063,573.0625 1886.9531,573.6875 Q1886.5,574.3125 1886.5,575.1719 L1886.5,576.0938 Q1886.5,577.125 1887.3438,577.8125 Q1888.1875,578.5 1889.6875,578.5 Q1890.5781,578.5 1891.2031,578.2969 Q1891.5625,578.1875 1891.9688,577.8281 Q1892.2344,577.625 1892.375,577.5625 Q1892.5156,577.5 1892.6875,577.5 Q1893.0156,577.5 1893.25,577.7656 Q1893.5,578.0156 1893.5,578.375 Q1893.5,578.7188 1893.1563,579.125 Q1892.6563,579.7188 1891.8594,580.0469 Q1890.8125,580.5 1889.5313,580.5 Q1888.0313,580.5 1886.8281,579.9063 Q1885.8594,579.4375 1885.1719,578.4219 Q1884.5,577.4063 1884.5,576.2031 L1884.5,575.1094 Q1884.5,573.8594 1885.0938,572.7656 Q1885.7031,571.6719 1886.75,571.0938 Q1887.8125,570.5 1889,570.5 Q1889.7188,570.5 1890.3438,570.75 Q1890.9688,571 1891.5,571.5 Z " fill="#000000"/><text fill="#000000" font-family="sans-serif" font-size="14" lengthAdjust="spacing" textLength="52" x="1903.5" y="580.7285">UserInfo</text><line style="stroke:#181818;stroke-width:0.5;" x1="1875.5" x2="1957.5" y1="591" y2="591"/><line style="stroke:#181818;stroke-width:0.5;" x1="1875.5" x2="1957.5" y1="599" y2="599"/></g><!--MD5=[0a6389d85244b33bdfdb792108db6bc1]
class GivenVaccine--><g id="elem_GivenVaccine"><rect codeLine="122" fill="#F1F1F1" height="48" id="GivenVaccine" rx="2.5" ry="2.5" style="stroke:#181818;stroke-width:0.5;" width="119" x="275.5" y="436"/><ellipse cx="290.5" cy="452" fill="#ADD1B2" rx="11" ry="11" style="stroke:#181818;stroke-width:1.0;"/><path d="M292.5,448.5 Q292.7031,448 292.9375,447.75 Q293.1719,447.5 293.4375,447.5 Q293.9063,447.5 294.2031,447.7813 Q294.5,448.0625 294.5,448.7188 L294.5,450.2813 Q294.5,450.9375 294.2188,451.2188 Q293.9375,451.5 293.5,451.5 Q293.1094,451.5 292.8594,451.3281 Q292.6094,451.1563 292.5,450.7031 Q292.4531,450.3906 292.2813,450.2188 Q291.9688,449.8906 291.4063,449.7031 Q290.8438,449.5 290.2813,449.5 Q289.5781,449.5 288.9844,449.7813 Q288.4063,450.0625 287.9531,450.6875 Q287.5,451.3125 287.5,452.1719 L287.5,453.0938 Q287.5,454.125 288.3438,454.8125 Q289.1875,455.5 290.6875,455.5 Q291.5781,455.5 292.2031,455.2969 Q292.5625,455.1875 292.9688,454.8281 Q293.2344,454.625 293.375,454.5625 Q293.5156,454.5 293.6875,454.5 Q294.0156,454.5 294.25,454.7656 Q294.5,455.0156 294.5,455.375 Q294.5,455.7188 294.1563,456.125 Q293.6563,456.7188 292.8594,457.0469 Q291.8125,457.5 290.5313,457.5 Q289.0313,457.5 287.8281,456.9063 Q286.8594,456.4375 286.1719,455.4219 Q285.5,454.4063 285.5,453.2031 L285.5,452.1094 Q285.5,450.8594 286.0938,449.7656 Q286.7031,448.6719 287.75,448.0938 Q288.8125,447.5 290,447.5 Q290.7188,447.5 291.3438,447.75 Q291.9688,448 292.5,448.5 Z " fill="#000000"/><text fill="#000000" font-family="sans-serif" font-size="14" lengthAdjust="spacing" textLength="87" x="304.5" y="457.7285">GivenVaccine</text><line style="stroke:#181818;stroke-width:0.5;" x1="276.5" x2="393.5" y1="468" y2="468"/><line style="stroke:#181818;stroke-width:0.5;" x1="276.5" x2="393.5" y1="476" y2="476"/></g><!--MD5=[605056f3b750e89e8a7ae3805405579b]
class AdverseReactions--><g id="elem_AdverseReactions"><rect codeLine="123" fill="#F1F1F1" height="48" id="AdverseReactions" rx="2.5" ry="2.5" style="stroke:#181818;stroke-width:0.5;" width="147" x="261.5" y="558"/><ellipse cx="276.5" cy="574" fill="#ADD1B2" rx="11" ry="11" style="stroke:#181818;stroke-width:1.0;"/><path d="M278.5,570.5 Q278.7031,570 278.9375,569.75 Q279.1719,569.5 279.4375,569.5 Q279.9063,569.5 280.2031,569.7813 Q280.5,570.0625 280.5,570.7188 L280.5,572.2813 Q280.5,572.9375 280.2188,573.2188 Q279.9375,573.5 279.5,573.5 Q279.1094,573.5 278.8594,573.3281 Q278.6094,573.1563 278.5,572.7031 Q278.4531,572.3906 278.2813,572.2188 Q277.9688,571.8906 277.4063,571.7031 Q276.8438,571.5 276.2813,571.5 Q275.5781,571.5 274.9844,571.7813 Q274.4063,572.0625 273.9531,572.6875 Q273.5,573.3125 273.5,574.1719 L273.5,575.0938 Q273.5,576.125 274.3438,576.8125 Q275.1875,577.5 276.6875,577.5 Q277.5781,577.5 278.2031,577.2969 Q278.5625,577.1875 278.9688,576.8281 Q279.2344,576.625 279.375,576.5625 Q279.5156,576.5 279.6875,576.5 Q280.0156,576.5 280.25,576.7656 Q280.5,577.0156 280.5,577.375 Q280.5,577.7188 280.1563,578.125 Q279.6563,578.7188 278.8594,579.0469 Q277.8125,579.5 276.5313,579.5 Q275.0313,579.5 273.8281,578.9063 Q272.8594,578.4375 272.1719,577.4219 Q271.5,576.4063 271.5,575.2031 L271.5,574.1094 Q271.5,572.8594 272.0938,571.7656 Q272.7031,570.6719 273.75,570.0938 Q274.8125,569.5 276,569.5 Q276.7188,569.5 277.3438,569.75 Q277.9688,570 278.5,570.5 Z " fill="#000000"/><text fill="#000000" font-family="sans-serif" font-size="14" lengthAdjust="spacing" textLength="115" x="290.5" y="579.7285">AdverseReactions</text><line style="stroke:#181818;stroke-width:0.5;" x1="262.5" x2="407.5" y1="590" y2="590"/><line style="stroke:#181818;stroke-width:0.5;" x1="262.5" x2="407.5" y1="598" y2="598"/></g><ellipse cx="335" cy="521" fill="#000000" rx="2" ry="2" style="stroke:none;stroke-width:1.0;"/><!--MD5=[944ecf1b0032c0733312c6ea9b33e13a]
class ManageVaccinationProcess--><g id="elem_ManageVaccinationProcess"><rect codeLine="129" fill="#F1F1F1" height="48" id="ManageVaccinationProcess" rx="2.5" ry="2.5" style="stroke:#181818;stroke-width:0.5;" width="207" x="522" y="407"/><ellipse cx="537" cy="423" fill="#ADD1B2" rx="11" ry="11" style="stroke:#181818;stroke-width:1.0;"/><path d="M539,419.5 Q539.2031,419 539.4375,418.75 Q539.6719,418.5 539.9375,418.5 Q540.4063,418.5 540.7031,418.7813 Q541,419.0625 541,419.7188 L541,421.2813 Q541,421.9375 540.7188,422.2188 Q540.4375,422.5 540,422.5 Q539.6094,422.5 539.3594,422.3281 Q539.1094,422.1563 539,421.7031 Q538.9531,421.3906 538.7813,421.2188 Q538.4688,420.8906 537.9063,420.7031 Q537.3438,420.5 536.7813,420.5 Q536.0781,420.5 535.4844,420.7813 Q534.9063,421.0625 534.4531,421.6875 Q534,422.3125 534,423.1719 L534,424.0938 Q534,425.125 534.8438,425.8125 Q535.6875,426.5 537.1875,426.5 Q538.0781,426.5 538.7031,426.2969 Q539.0625,426.1875 539.4688,425.8281 Q539.7344,425.625 539.875,425.5625 Q540.0156,425.5 540.1875,425.5 Q540.5156,425.5 540.75,425.7656 Q541,426.0156 541,426.375 Q541,426.7188 540.6563,427.125 Q540.1563,427.7188 539.3594,428.0469 Q538.3125,428.5 537.0313,428.5 Q535.5313,428.5 534.3281,427.9063 Q533.3594,427.4375 532.6719,426.4219 Q532,425.4063 532,424.2031 L532,423.1094 Q532,421.8594 532.5938,420.7656 Q533.2031,419.6719 534.25,419.0938 Q535.3125,418.5 536.5,418.5 Q537.2188,418.5 537.8438,418.75 Q538.4688,419 539,419.5 Z " fill="#000000"/><text fill="#000000" font-family="sans-serif" font-size="14" lengthAdjust="spacing" textLength="175" x="551" y="428.7285">ManageVaccinationProcess</text><line style="stroke:#181818;stroke-width:0.5;" x1="523" x2="728" y1="439" y2="439"/><line style="stroke:#181818;stroke-width:0.5;" x1="523" x2="728" y1="447" y2="447"/></g><!--MD5=[0b4e4b4980470ea387cc45de9bd14b5b]
class Application--><g id="elem_Application"><rect codeLine="134" fill="#F1F1F1" height="48" id="Application" rx="2.5" ry="2.5" style="stroke:#181818;stroke-width:0.5;" width="101" x="1086.5" y="527"/><ellipse cx="1101.5" cy="543" fill="#ADD1B2" rx="11" ry="11" style="stroke:#181818;stroke-width:1.0;"/><path d="M1103.5,539.5 Q1103.7031,539 1103.9375,538.75 Q1104.1719,538.5 1104.4375,538.5 Q1104.9063,538.5 1105.2031,538.7813 Q1105.5,539.0625 1105.5,539.7188 L1105.5,541.2813 Q1105.5,541.9375 1105.2188,542.2188 Q1104.9375,542.5 1104.5,542.5 Q1104.1094,542.5 1103.8594,542.3281 Q1103.6094,542.1563 1103.5,541.7031 Q1103.4531,541.3906 1103.2813,541.2188 Q1102.9688,540.8906 1102.4063,540.7031 Q1101.8438,540.5 1101.2813,540.5 Q1100.5781,540.5 1099.9844,540.7813 Q1099.4063,541.0625 1098.9531,541.6875 Q1098.5,542.3125 1098.5,543.1719 L1098.5,544.0938 Q1098.5,545.125 1099.3438,545.8125 Q1100.1875,546.5 1101.6875,546.5 Q1102.5781,546.5 1103.2031,546.2969 Q1103.5625,546.1875 1103.9688,545.8281 Q1104.2344,545.625 1104.375,545.5625 Q1104.5156,545.5 1104.6875,545.5 Q1105.0156,545.5 1105.25,545.7656 Q1105.5,546.0156 1105.5,546.375 Q1105.5,546.7188 1105.1563,547.125 Q1104.6563,547.7188 1103.8594,548.0469 Q1102.8125,548.5 1101.5313,548.5 Q1100.0313,548.5 1098.8281,547.9063 Q1097.8594,547.4375 1097.1719,546.4219 Q1096.5,545.4063 1096.5,544.2031 L1096.5,543.1094 Q1096.5,541.8594 1097.0938,540.7656 Q1097.7031,539.6719 1098.75,539.0938 Q1099.8125,538.5 1101,538.5 Q1101.7188,538.5 1102.3438,538.75 Q1102.9688,539 1103.5,539.5 Z " fill="#000000"/><text fill="#000000" font-family="sans-serif" font-size="14" lengthAdjust="spacing" textLength="69" x="1115.5" y="548.7285">Application</text><line style="stroke:#181818;stroke-width:0.5;" x1="1087.5" x2="1186.5" y1="559" y2="559"/><line style="stroke:#181818;stroke-width:0.5;" x1="1087.5" x2="1186.5" y1="567" y2="567"/></g><!--MD5=[a13ca6a63a04f520383aacb00972fb48]
class EntriesAndExitsList--><g id="elem_EntriesAndExitsList"><rect codeLine="135" fill="#F1F1F1" height="48" id="EntriesAndExitsList" rx="2.5" ry="2.5" style="stroke:#181818;stroke-width:0.5;" width="152" x="1061" y="148"/><ellipse cx="1076" cy="164" fill="#ADD1B2" rx="11" ry="11" style="stroke:#181818;stroke-width:1.0;"/><path d="M1078,160.5 Q1078.2031,160 1078.4375,159.75 Q1078.6719,159.5 1078.9375,159.5 Q1079.4063,159.5 1079.7031,159.7813 Q1080,160.0625 1080,160.7188 L1080,162.2813 Q1080,162.9375 1079.7188,163.2188 Q1079.4375,163.5 1079,163.5 Q1078.6094,163.5 1078.3594,163.3281 Q1078.1094,163.1563 1078,162.7031 Q1077.9531,162.3906 1077.7813,162.2188 Q1077.4688,161.8906 1076.9063,161.7031 Q1076.3438,161.5 1075.7813,161.5 Q1075.0781,161.5 1074.4844,161.7813 Q1073.9063,162.0625 1073.4531,162.6875 Q1073,163.3125 1073,164.1719 L1073,165.0938 Q1073,166.125 1073.8438,166.8125 Q1074.6875,167.5 1076.1875,167.5 Q1077.0781,167.5 1077.7031,167.2969 Q1078.0625,167.1875 1078.4688,166.8281 Q1078.7344,166.625 1078.875,166.5625 Q1079.0156,166.5 1079.1875,166.5 Q1079.5156,166.5 1079.75,166.7656 Q1080,167.0156 1080,167.375 Q1080,167.7188 1079.6563,168.125 Q1079.1563,168.7188 1078.3594,169.0469 Q1077.3125,169.5 1076.0313,169.5 Q1074.5313,169.5 1073.3281,168.9063 Q1072.3594,168.4375 1071.6719,167.4219 Q1071,166.4063 1071,165.2031 L1071,164.1094 Q1071,162.8594 1071.5938,161.7656 Q1072.2031,160.6719 1073.25,160.0938 Q1074.3125,159.5 1075.5,159.5 Q1076.2188,159.5 1076.8438,159.75 Q1077.4688,160 1078,160.5 Z " fill="#000000"/><text fill="#000000" font-family="sans-serif" font-size="14" lengthAdjust="spacing" textLength="120" x="1090" y="169.7285">EntriesAndExitsList</text><line style="stroke:#181818;stroke-width:0.5;" x1="1062" x2="1212" y1="180" y2="180"/><line style="stroke:#181818;stroke-width:0.5;" x1="1062" x2="1212" y1="188" y2="188"/></g><!--MD5=[ae7cf994a8037bd5ae694a195d04bab2]
reverse link ApplicationUser to SnsUser--><g id="link_ApplicationUser_SnsUser"><path codeLine="19" d="M136.51,585.17 C136.67,585.45 136.84,585.72 137,586 C172.24,645.91 128.49,730 198,730 C198,730 198,730 1031,730 C1236.57,730 1454.18,594.92 1546.87,530.03 " fill="none" id="ApplicationUser-backto-SnsUser" style="stroke:#181818;stroke-width:1.0;"/><polygon fill="none" points="130.56,588.85,125.62,568.25,142.33,581.28,130.56,588.85" style="stroke:#181818;stroke-width:1.0;"/></g><!--MD5=[ec2784183dc102bb556cb27e2698cd6b]
reverse link ApplicationUser to Nurse--><g id="link_ApplicationUser_Nurse"><path codeLine="20" d="M153.91,570.22 C185.13,591.77 222.37,612.96 260,624 C377.63,658.5 525.68,631.13 590.96,615.71 " fill="none" id="ApplicationUser-backto-Nurse" style="stroke:#181818;stroke-width:1.0;"/><polygon fill="none" points="149.41,575.61,137.22,558.27,157.56,564.22,149.41,575.61" style="stroke:#181818;stroke-width:1.0;"/></g><!--MD5=[1a9788758f9842fd4535ce3f0d98786a]
link Receptionist to ApplicationUser--><g id="link_Receptionist_ApplicationUser"><path codeLine="21" d="M72,307.18 C72,344.62 72,382.06 72,419.5 " fill="none" id="Receptionist-to-ApplicationUser" style="stroke:#181818;stroke-width:1.0;"/><polygon fill="none" points="79,419.69,72,439.69,65,419.69,79,419.69" style="stroke:#181818;stroke-width:1.0;"/></g><!--MD5=[66b8b66cc0d48364d094f14c216c75e8]
reverse link ApplicationUser to Administrator--><g id="link_ApplicationUser_Administrator"><path codeLine="22" d="M72,588.3 C72,593.19 72,598.08 72,602.98 " fill="none" id="ApplicationUser-backto-Administrator" style="stroke:#181818;stroke-width:1.0;"/><polygon fill="none" points="65,588.18,72,568.18,79,588.18,65,588.18" style="stroke:#181818;stroke-width:1.0;"/></g><!--MD5=[80d9ae4771b252b6d25b56fdcc7914a1]
reverse link ApplicationUser to CenterCoordinator--><g id="link_ApplicationUser_CenterCoordinator"><path codeLine="23" d="M155.41,463.9 C197.79,443.28 248.04,418.83 284.42,401.13 " fill="none" id="ApplicationUser-backto-CenterCoordinator" style="stroke:#181818;stroke-width:1.0;"/><polygon fill="none" points="158.23,470.31,137.18,472.77,152.1,457.72,158.23,470.31" style="stroke:#181818;stroke-width:1.0;"/></g><!--MD5=[a09fc339ad85d4e67aa3195beeccb7d9]
reverse link VaccinationCenter to MassVaccinationCenter--><g id="link_VaccinationCenter_MassVaccinationCenter"><path d="M1712.18,172.37 C1749.72,172.48 1790.66,172.61 1825.91,172.72 " fill="none" id="VaccinationCenter-backto-MassVaccinationCenter" style="stroke:#181818;stroke-width:1.0;"/><polygon fill="none" points="1712.01,179.37,1692.03,172.3,1712.05,165.37,1712.01,179.37" style="stroke:#181818;stroke-width:1.0;"/></g><!--MD5=[860a319d9f073c66a49856aa2bd7c3ed]
reverse link VaccinationCenter to HealthcareCenter--><g id="link_VaccinationCenter_HealthcareCenter"><path d="M1711.18,209.7 C1755.89,224.21 1805.58,240.33 1844.75,253.04 " fill="none" id="VaccinationCenter-backto-HealthcareCenter" style="stroke:#181818;stroke-width:1.0;"/><polygon fill="none" points="1708.89,216.32,1692.03,203.49,1713.21,203,1708.89,216.32" style="stroke:#181818;stroke-width:1.0;"/></g><!--MD5=[a98252b7739f22b1ddec3651c1c3aaea]
link Vaccine to AdministrationProcess--><g id="link_Vaccine_AdministrationProcess"><path codeLine="93" d="M2504.05,376 C2532.91,376 2573.24,376 2610.93,376 " fill="none" id="Vaccine-AdministrationProcess" style="stroke:#181818;stroke-width:1.0;"/><polygon fill="#000000" points="2544,367.1758,2534.9549,364.2369,2534.9549,370.1147,2544,367.1758" style="stroke:#000000;stroke-width:1.0;"/><text fill="#000000" font-family="sans-serif" font-size="13" lengthAdjust="spacing" textLength="32" x="2548" y="372.4951">has a</text><text fill="#000000" font-family="sans-serif" font-size="13" lengthAdjust="spacing" textLength="7" x="2511.9855" y="390.918">1</text><text fill="#000000" font-family="sans-serif" font-size="13" lengthAdjust="spacing" textLength="5" x="2598.0303" y="390.0772">*</text></g><!--MD5=[7991057a0b57fcb72665747661b5eb1a]
link VaccineType to Vaccine--><g id="link_VaccineType_Vaccine"><path codeLine="94" d="M2312.65,376 C2347.24,376 2390.75,376 2421.87,376 " fill="none" id="VaccineType-Vaccine" style="stroke:#181818;stroke-width:1.0;"/><polygon fill="#000000" points="2353,367.1758,2362.0451,370.1147,2362.0451,364.2369,2353,367.1758" style="stroke:#000000;stroke-width:1.0;"/><text fill="#000000" font-family="sans-serif" font-size="13" lengthAdjust="spacing" textLength="24" x="2367" y="372.4951">is of</text><text fill="#000000" font-family="sans-serif" font-size="13" lengthAdjust="spacing" textLength="5" x="2320.6655" y="390.5685">*</text><text fill="#000000" font-family="sans-serif" font-size="13" lengthAdjust="spacing" textLength="7" x="2406.9203" y="390.918">1</text></g><!--MD5=[6f49bc8bfaa4499033189ca3ab0a467c]
link Vaccine to VaccinationCenter--><g id="link_Vaccine_VaccinationCenter"><path codeLine="95" d="M2421.93,345.4 C2346,289.56 2173.81,173.06 2007,131 C1901.4,104.38 1776.5,123.62 1692.12,143.77 " fill="none" id="Vaccine-VaccinationCenter" style="stroke:#181818;stroke-width:1.0;"/><polygon fill="#000000" points="2037.1806,129.8443,2045.1164,135.0858,2046.6817,129.4202,2037.1806,129.8443" style="stroke:#000000;stroke-width:1.0;"/><text fill="#000000" font-family="sans-serif" font-size="13" lengthAdjust="spacing" textLength="106" x="2051" y="136.4951">is administered on</text><text fill="#000000" font-family="sans-serif" font-size="13" lengthAdjust="spacing" textLength="5" x="2408.8968" y="354.7261">*</text><text fill="#000000" font-family="sans-serif" font-size="13" lengthAdjust="spacing" textLength="7" x="1699.9003" y="155.7393">1</text></g><!--MD5=[894f32e3bda40c7272620a3388816726]
link SnsUser to DigitalCertificate--><g id="link_SnsUser_DigitalCertificate"><path codeLine="100" d="M1666.2,495.24 C1794.44,493.88 2062.46,491.04 2187.54,489.71 " fill="none" id="SnsUser-DigitalCertificate" style="stroke:#181818;stroke-width:1.0;"/><polygon fill="#000000" points="1893.9997,483.1227,1884.924,480.2799,1884.9863,486.1574,1893.9997,483.1227" style="stroke:#000000;stroke-width:1.0;"/><text fill="#000000" font-family="sans-serif" font-size="13" lengthAdjust="spacing" textLength="50" x="1898" y="488.4951">requests</text><text fill="#000000" font-family="sans-serif" font-size="13" lengthAdjust="spacing" textLength="7" x="1674.0066" y="509.4934">1</text><text fill="#000000" font-family="sans-serif" font-size="13" lengthAdjust="spacing" textLength="7" x="2173.1707" y="504.1215">1</text></g><!--MD5=[cc5e2fb97d9f5c96dda5e8bbfd01385e]
link SnsUser to VaccineAppointment--><g id="link_SnsUser_VaccineAppointment"><path codeLine="106" d="M1666.46,474.97 C1704.99,463.38 1753.28,448.44 1796,434 C1808.88,429.65 1822.47,424.84 1835.68,420.06 " fill="none" id="SnsUser-VaccineAppointment" style="stroke:#181818;stroke-width:1.0;"/><polygon fill="#000000" points="1731.7559,423.6325,1722.2453,423.6288,1724.0595,429.2197,1731.7559,423.6325" style="stroke:#000000;stroke-width:1.0;"/><text fill="#000000" font-family="sans-serif" font-size="13" lengthAdjust="spacing" textLength="59" x="1736" y="430.4951">schedules</text><text fill="#000000" font-family="sans-serif" font-size="13" lengthAdjust="spacing" textLength="7" x="1673.9373" y="487.1936">1</text><text fill="#000000" font-family="sans-serif" font-size="13" lengthAdjust="spacing" textLength="5" x="1822.9989" y="437.0742">*</text></g><!--MD5=[ead49c6eb232874c9bfdd14aaf3032df]
link Receptionist to UsersWaitingList--><g id="link_Receptionist_UsersWaitingList"><path codeLine="113" d="M127.14,283 C149.13,283 174.78,283 198,283 C198,283 198,283 626.5,283 C685.85,283 832.18,383.57 897.77,430.9 " fill="none" id="Receptionist-UsersWaitingList" style="stroke:#181818;stroke-width:1.0;"/><polygon fill="#000000" points="311.4104,275.1182,303.0813,270.5271,301.9735,276.2996,311.4104,275.1182" style="stroke:#000000;stroke-width:1.0;"/><text fill="#000000" font-family="sans-serif" font-size="13" lengthAdjust="spacing" textLength="52" x="315.5" y="279.4951">atualizes</text><text fill="#000000" font-family="sans-serif" font-size="13" lengthAdjust="spacing" textLength="5" x="134.8854" y="297.5937">*</text><text fill="#000000" font-family="sans-serif" font-size="13" lengthAdjust="spacing" textLength="7" x="881.2298" y="420.2145">1</text></g><!--MD5=[a130e805f12c6caaf0787465d0f0d87e]
link Nurse to UsersWaitingList--><g id="link_Nurse_UsersWaitingList"><path codeLine="114" d="M660.19,590.15 C714.22,563.14 820.44,510.03 882.43,479.04 " fill="none" id="Nurse-UsersWaitingList" style="stroke:#181818;stroke-width:1.0;"/><polygon fill="#000000" points="776.9722,493.9399,767.5677,495.356,770.1961,500.6134,776.9722,493.9399" style="stroke:#000000;stroke-width:1.0;"/><text fill="#000000" font-family="sans-serif" font-size="13" lengthAdjust="spacing" textLength="42" x="781.5" y="501.4951">checks</text><text fill="#000000" font-family="sans-serif" font-size="13" lengthAdjust="spacing" textLength="5" x="667.8604" y="601.8561">*</text><text fill="#000000" font-family="sans-serif" font-size="13" lengthAdjust="spacing" textLength="7" x="862.6161" y="500.3877">1</text></g><!--MD5=[49bdc4f43c0486f86f6744f0a65b0571]
link Nurse to Vaccine--><g id="link_Nurse_Vaccine"><path codeLine="115" d="M660.28,610.2 C784.39,621.65 1227.08,660 1593,660 C1593,660 1593,660 2256.5,660 C2368.79,660 2425.96,512.49 2449.14,430.09 " fill="none" id="Nurse-Vaccine" style="stroke:#181818;stroke-width:1.0;"/><polygon fill="#000000" points="1562.9748,649.6749,1553.6808,647.6569,1554.2697,653.5052,1562.9748,649.6749" style="stroke:#000000;stroke-width:1.0;"/><text fill="#000000" font-family="sans-serif" font-size="13" lengthAdjust="spacing" textLength="67" x="1567" y="655.4951">administers</text><text fill="#000000" font-family="sans-serif" font-size="13" lengthAdjust="spacing" textLength="7" x="668.1753" y="626.0414">1</text><text fill="#000000" font-family="sans-serif" font-size="13" lengthAdjust="spacing" textLength="5" x="2441.9416" y="451.9269">*</text></g><!--MD5=[48c1753546dc4329f6549ad52774066c]
link SnsUser to UserInfo--><g id="link_SnsUser_UserInfo"><path codeLine="116" d="M1666.09,517.13 C1684.29,522.42 1703.84,528.01 1722,533 C1774.36,547.39 1835.02,562.87 1874.26,572.73 " fill="none" id="SnsUser-UserInfo" style="stroke:#181818;stroke-width:1.0;"/><polygon fill="#000000" points="1750.8307,525.466,1742.8503,520.2926,1741.3335,525.9714,1750.8307,525.466" style="stroke:#000000;stroke-width:1.0;"/><text fill="#000000" font-family="sans-serif" font-size="13" lengthAdjust="spacing" textLength="21" x="1755" y="529.4951">has</text><text fill="#000000" font-family="sans-serif" font-size="13" lengthAdjust="spacing" textLength="7" x="1673.8852" y="533.6408">1</text><text fill="#000000" font-family="sans-serif" font-size="13" lengthAdjust="spacing" textLength="5" x="1861.5703" y="585.8652">*</text></g><!--MD5=[d6d5ce89de07d138e2abbf7ac69e87fb]
link VaccineAppointment to VaccineType--><g id="link_VaccineAppointment_VaccineType"><path codeLine="117" d="M1997.36,386.68 C2059.26,384.11 2143.46,380.61 2198.38,378.33 " fill="none" id="VaccineAppointment-VaccineType" style="stroke:#181818;stroke-width:1.0;"/><polygon fill="#000000" points="2048.4957,371.9683,2039.3364,369.4073,2039.5804,375.2801,2048.4957,371.9683" style="stroke:#000000;stroke-width:1.0;"/><text fill="#000000" font-family="sans-serif" font-size="13" lengthAdjust="spacing" textLength="103" x="2052.5" y="377.4951">is associated to a</text><text fill="#000000" font-family="sans-serif" font-size="13" lengthAdjust="spacing" textLength="5" x="2005.0447" y="400.617">*</text><text fill="#000000" font-family="sans-serif" font-size="13" lengthAdjust="spacing" textLength="7" x="2183.6131" y="393.1471">1</text></g><!--MD5=[cb1b4381e3f58fc8df8a798af52e3711]
link UsersWaitingList to SnsUser--><g id="link_UsersWaitingList_SnsUser"><path codeLine="118" d="M1000.35,457.82 C1101.75,462.23 1298.8,471.56 1466,484 C1484.11,485.35 1503.65,487.06 1521.84,488.77 " fill="none" id="UsersWaitingList-SnsUser" style="stroke:#181818;stroke-width:1.0;"/><polygon fill="#000000" points="1128.9912,452.472,1120.1361,449.0024,1119.7879,454.8699,1128.9912,452.472" style="stroke:#000000;stroke-width:1.0;"/><text fill="#000000" font-family="sans-serif" font-size="13" lengthAdjust="spacing" textLength="21" x="1133" y="457.4951">has</text><text fill="#000000" font-family="sans-serif" font-size="13" lengthAdjust="spacing" textLength="7" x="1007.8111" y="472.4491">1</text><text fill="#000000" font-family="sans-serif" font-size="13" lengthAdjust="spacing" textLength="5" x="1509.1407" y="484.7062">*</text></g><!--MD5=[13333ac4c8825d6d381eff0d798136f4]
link VaccinationCenter to VaccineAppointment--><g id="link_VaccinationCenter_VaccineAppointment"><path codeLine="119" d="M1692.04,244.18 C1732.85,273.77 1781.17,307.85 1826,337 C1835.69,343.3 1846.13,349.76 1856.33,355.91 " fill="none" id="VaccinationCenter-VaccineAppointment" style="stroke:#181818;stroke-width:1.0;"/><polygon fill="#000000" points="1750.1345,260.9876,1744.3079,253.4708,1741.0024,258.3312,1750.1345,260.9876" style="stroke:#000000;stroke-width:1.0;"/><text fill="#000000" font-family="sans-serif" font-size="13" lengthAdjust="spacing" textLength="21" x="1755" y="263.4951">has</text><text fill="#000000" font-family="sans-serif" font-size="13" lengthAdjust="spacing" textLength="7" x="1700.1315" y="264.0884">1</text><text fill="#000000" font-family="sans-serif" font-size="13" lengthAdjust="spacing" textLength="5" x="1838.9918" y="345.141">*</text></g><!--MD5=[23d68c8649c06482b19c491a6b409cf7]
link GivenVaccine to apoint40690--><g id="link_GivenVaccine_apoint40690"><path d="M335,484.27 C335,495.72 335,507.17 335,518.62 " fill="none" id="GivenVaccine-apoint40690" style="stroke:#181818;stroke-width:1.0;"/><text fill="#000000" font-family="sans-serif" font-size="13" lengthAdjust="spacing" textLength="5" x="329.3906" y="505.6738">*</text></g><!--MD5=[8ca95af2afa88360f8f99071ab3227f8]
link apoint40690 to AdverseReactions--><g id="link_apoint40690_AdverseReactions"><path d="M335,523.01 C335,534.57 335,546.13 335,557.7 " fill="none" id="apoint40690-AdverseReactions" style="stroke:#181818;stroke-width:1.0;"/><text fill="#000000" font-family="sans-serif" font-size="13" lengthAdjust="spacing" textLength="5" x="329.3594" y="546.9633">*</text></g><!--MD5=[fc1cdf0e1e4b6d89fbda6f480fe21079]
link apoint40690 to Nurse--><g id="link_apoint40690_Nurse"><path d="M337.05,521.25 C343.67,522.82 380.4,531.58 410,540 C474.36,558.3 548.75,582.15 590.85,595.9 " fill="none" id="apoint40690-Nurse" style="stroke:#181818;stroke-width:1.0;"/><text fill="#000000" font-family="sans-serif" font-size="13" lengthAdjust="spacing" textLength="50" x="441" y="547.4951">registers</text></g><!--MD5=[4b713ec73cfc330ec36738f439ccab33]
link CenterCoordinator to ManageVaccinationProcess--><g id="link_CenterCoordinator_ManageVaccinationProcess"><path codeLine="131" d="M410.1,392.17 C420.14,394.17 430.32,396.16 440,398 C466.53,403.05 495.25,408.3 521.96,413.08 " fill="none" id="CenterCoordinator-ManageVaccinationProcess" style="stroke:#181818;stroke-width:1.0;"/><polygon fill="#000000" points="450.4149,390.0945,442.0638,385.5436,440.9838,391.3214,450.4149,390.0945" style="stroke:#000000;stroke-width:1.0;"/><text fill="#000000" font-family="sans-serif" font-size="13" lengthAdjust="spacing" textLength="36" x="454.5" y="394.4951">has to</text><text fill="#000000" font-family="sans-serif" font-size="13" lengthAdjust="spacing" textLength="7" x="418.2056" y="408.0727">1</text><text fill="#000000" font-family="sans-serif" font-size="13" lengthAdjust="spacing" textLength="7" x="507.0993" y="425.8595">1</text></g><!--MD5=[d5cf03d886352995267197dc535618ec]
link CenterCoordinator to VaccinationCenter--><g id="link_CenterCoordinator_VaccinationCenter"><path codeLine="132" d="M410.27,366.26 C533.11,348.38 786.25,310.99 1000,276 C1174.97,247.35 1378.42,211.01 1495.79,189.75 " fill="none" id="CenterCoordinator-VaccinationCenter" style="stroke:#181818;stroke-width:1.0;"/><polygon fill="#000000" points="874.5648,267.9783,883.9643,269.4274,883.021,263.6257,874.5648,267.9783" style="stroke:#000000;stroke-width:1.0;"/><text fill="#000000" font-family="sans-serif" font-size="13" lengthAdjust="spacing" textLength="99" x="888.5" y="272.4951">is coordinated by</text><text fill="#000000" font-family="sans-serif" font-size="13" lengthAdjust="spacing" textLength="7" x="418.0239" y="379.5027">1</text><text fill="#000000" font-family="sans-serif" font-size="13" lengthAdjust="spacing" textLength="7" x="1481.0028" y="205.2396">1</text></g><!--MD5=[2075be8de63a33f6fa84805c185bc4f8]
link Application to SnsUser--><g id="link_Application_SnsUser"><path codeLine="137" d="M1187.66,559.22 C1252.57,568.32 1369.37,579 1466,557 C1489.97,551.54 1514.69,540.97 1535.88,530.14 " fill="none" id="Application-SnsUser" style="stroke:#181818;stroke-width:1.0;"/><polygon fill="#000000" points="1252.9827,547.7597,1243.7244,545.5837,1244.2135,551.4411,1252.9827,547.7597" style="stroke:#000000;stroke-width:1.0;"/><text fill="#000000" font-family="sans-serif" font-size="13" lengthAdjust="spacing" textLength="208" x="1257" y="553.4951">requests authorization to send SMS</text><text fill="#000000" font-family="sans-serif" font-size="13" lengthAdjust="spacing" textLength="7" x="1195.6148" y="575.1232">1</text><text fill="#000000" font-family="sans-serif" font-size="13" lengthAdjust="spacing" textLength="5" x="1519.3243" y="551.6896">*</text></g><!--MD5=[2075be8de63a33f6fa84805c185bc4f8]
link Application to SnsUser--><g id="link_Application_SnsUser"><path codeLine="138" d="M1187.62,543.02 C1205.1,540.32 1224.9,537.39 1243,535 C1339.38,522.29 1451.05,510.33 1521.84,503.08 " fill="none" id="Application-SnsUser-1" style="stroke:#181818;stroke-width:1.0;"/><polygon fill="#000000" points="1341.4647,500.5825,1332.1348,498.7376,1332.8322,504.5739,1341.4647,500.5825" style="stroke:#000000;stroke-width:1.0;"/><text fill="#000000" font-family="sans-serif" font-size="13" lengthAdjust="spacing" textLength="31" x="1345.5" y="506.4951">notify</text><text fill="#000000" font-family="sans-serif" font-size="13" lengthAdjust="spacing" textLength="7" x="1195.5689" y="556.5439">1</text><text fill="#000000" font-family="sans-serif" font-size="13" lengthAdjust="spacing" textLength="5" x="1509.1407" y="518.1419">*</text></g><!--MD5=[5cdf538e28483f16b294670c209aa238]
link EntriesAndExitsList to VaccinationCenter--><g id="link_EntriesAndExitsList_VaccinationCenter"><path codeLine="139" d="M1213.13,172 C1290.5,172 1411.37,172 1495.93,172 " fill="none" id="EntriesAndExitsList-VaccinationCenter" style="stroke:#181818;stroke-width:1.0;"/><polygon fill="#000000" points="1336.5,163.1758,1345.5451,166.1147,1345.5451,160.2369,1336.5,163.1758" style="stroke:#000000;stroke-width:1.0;"/><text fill="#000000" font-family="sans-serif" font-size="13" lengthAdjust="spacing" textLength="21" x="1350.5" y="168.4951">has</text><text fill="#000000" font-family="sans-serif" font-size="13" lengthAdjust="spacing" textLength="5" x="1221.2387" y="186.3382">*</text><text fill="#000000" font-family="sans-serif" font-size="13" lengthAdjust="spacing" textLength="7" x="1481.1535" y="186.1306">1</text></g><!--MD5=[d35087f30a174783cf89ba80439f9811]
link Receptionist to VaccineAppointment--><g id="link_Receptionist_VaccineAppointment"><path codeLine="140" d="M97.5,258.96 C121.17,238.36 159.07,212 198,212 C198,212 198,212 467,212 C704.62,212 764.66,221.13 1000,254 C1222.72,285.11 1273.39,322.11 1496,354 C1613.76,370.87 1751.34,380.84 1835.94,385.86 " fill="none" id="Receptionist-VaccineAppointment" style="stroke:#181818;stroke-width:1.0;"/><polygon fill="#000000" points="768.9867,215.5398,760.1796,211.9502,759.7517,217.8124,768.9867,215.5398" style="stroke:#000000;stroke-width:1.0;"/><text fill="#000000" font-family="sans-serif" font-size="13" lengthAdjust="spacing" textLength="59" x="773" y="220.4951">schedules</text><text fill="#000000" font-family="sans-serif" font-size="13" lengthAdjust="spacing" textLength="7" x="96.1375" y="248.2899">1</text><text fill="#000000" font-family="sans-serif" font-size="13" lengthAdjust="spacing" textLength="5" x="1823.0233" y="399.7338">*</text></g><!--MD5=[b776496669ace36eff14625ed4e8e319]
@startuml
'https://plantuml.com/class-diagram

left to right direction

class ApplicationUser {
==-name
==-emailAddress
==-role
==-password
}


class Administrator

class SnsUser {
==-SnsUserNumber
}

ApplicationUser <|- - - SnsUser
ApplicationUser <|- - - - Nurse
ApplicationUser <|-left- Receptionist
ApplicationUser <|- Administrator
ApplicationUser <|- - - CenterCoordinator

'Receptionist "1" - "*" SnsUser : creates new >


class Receptionist

class Nurse

class CenterCoordinator

'Administrator "*" - - "*" SnsUser : configures and manages  >
'Administrator "*" - "*" Nurse : configures and manages >
'Administrator "*" -l- "*" Receptionist : configures and manages >
'Administrator "*" - - "*" VaccinatonCenter : configures and manages >
'Administrator "*" -up- - "*" CenterCoordinator : configures and manages >
'Administrator "*" -up- "*" TypeOfVaccine : configures and manages >
'Administrator "*" - - "*" Vaccine : specifies new >
'Administrator "1" - "*" DosageScheme : specifies  >
'Administrator "*" -left "*" Employee : configures and manages >

'Employee <-left Receptionist
'Employee <- Nurse

class VaccinationCenter {
==-intID
==-strName
==-strPhoneNumber
==-strEmail
==-strFax
==-strWebsite
==-strOpeningHour
==-strClosingHour
==-strSlotDuration
==-strVaccinesPerSlot
==-strRoad
==-strZipCode
==-strLocal
==-strCenterCoordinatorID
 }

class MassVaccinationCenter extends VaccinationCenter {

}

class HealthcareCenter extends VaccinationCenter {
==-ARE
==-AGES
}

class Vaccine {
==-brand
==-name
==-id
}

class AdministrationProcess {
==-numberOfDoses
==-dosage
== -age
==-intervalBetweenVaccines
}

class VaccineType {
==-code
==-description
==-technology
}


Vaccine "1" - - "*" AdministrationProcess : has a >
VaccineType "*" - - "1" Vaccine :is of <
Vaccine "*" - - - "1" VaccinationCenter : is administered on >

class DigitalCertificate

'Nurse "1" -left "*" DigitalCertificate : delivers >
SnsUser "1" - - - "1" DigitalCertificate : requests >

class VaccineAppointment {
==-date
}

SnsUser "1" - - "*" VaccineAppointment : schedules >
'Receptionist "1" - "*" VaccineAppointment : schedules and confirms >


class UsersWaitingList
class UserInfo

Receptionist "*" - "1" UsersWaitingList : atualizes >
Nurse "*" - - "1" UsersWaitingList : checks >
Nurse "1" - "*" Vaccine : administers >
SnsUser "1" - -  "*" UserInfo : has >
VaccineAppointment "*" - - "1" VaccineType : is associated to a >
UsersWaitingList "1" - - - "*" SnsUser: has >
VaccinationCenter "1" - - "*" VaccineAppointment : has >


class GivenVaccine
class AdverseReactions

GivenVaccine "*" - "*" AdverseReactions
(GivenVaccine, AdverseReactions) - Nurse : registers


class ManageVaccinationProcess

CenterCoordinator "1" - - "1" ManageVaccinationProcess : has to >
CenterCoordinator "1" - - "1" VaccinationCenter : is coordinated by <

class Application
class EntriesAndExitsList

Application "1" - - "*" SnsUser : requests authorization to send SMS >
Application "1" - - "*" SnsUser : notify >
VaccinationCenter "1" -up- "*" EntriesAndExitsList : has >
Receptionist "1" - - "*" VaccineAppointment : schedules >


@enduml

@startuml

left to right direction

class ApplicationUser {
==-name
==-emailAddress
==-role
==-password
}


class Administrator

class SnsUser {
==-SnsUserNumber
}

ApplicationUser <|- - - SnsUser
ApplicationUser <|- - - - Nurse
ApplicationUser <|-left- Receptionist
ApplicationUser <|- Administrator
ApplicationUser <|- - - CenterCoordinator



class Receptionist

class Nurse

class CenterCoordinator



class VaccinationCenter {
==-intID
==-strName
==-strPhoneNumber
==-strEmail
==-strFax
==-strWebsite
==-strOpeningHour
==-strClosingHour
==-strSlotDuration
==-strVaccinesPerSlot
==-strRoad
==-strZipCode
==-strLocal
==-strCenterCoordinatorID
 }

class MassVaccinationCenter extends VaccinationCenter {

}

class HealthcareCenter extends VaccinationCenter {
==-ARE
==-AGES
}

class Vaccine {
==-brand
==-name
==-id
}

class AdministrationProcess {
==-numberOfDoses
==-dosage
== -age
==-intervalBetweenVaccines
}

class VaccineType {
==-code
==-description
==-technology
}


Vaccine "1" - - "*" AdministrationProcess : has a >
VaccineType "*" - - "1" Vaccine :is of <
Vaccine "*" - - - "1" VaccinationCenter : is administered on >

class DigitalCertificate

SnsUser "1" - - - "1" DigitalCertificate : requests >

class VaccineAppointment {
==-date
}

SnsUser "1" - - "*" VaccineAppointment : schedules >


class UsersWaitingList
class UserInfo

Receptionist "*" - "1" UsersWaitingList : atualizes >
Nurse "*" - - "1" UsersWaitingList : checks >
Nurse "1" - "*" Vaccine : administers >
SnsUser "1" - -  "*" UserInfo : has >
VaccineAppointment "*" - - "1" VaccineType : is associated to a >
UsersWaitingList "1" - - - "*" SnsUser: has >
VaccinationCenter "1" - - "*" VaccineAppointment : has >


class GivenVaccine
class AdverseReactions

GivenVaccine "*" - "*" AdverseReactions
(GivenVaccine, AdverseReactions) - Nurse : registers


class ManageVaccinationProcess

CenterCoordinator "1" - - "1" ManageVaccinationProcess : has to >
CenterCoordinator "1" - - "1" VaccinationCenter : is coordinated by <

class Application
class EntriesAndExitsList

Application "1" - - "*" SnsUser : requests authorization to send SMS >
Application "1" - - "*" SnsUser : notify >
VaccinationCenter "1" -up- "*" EntriesAndExitsList : has >
Receptionist "1" - - "*" VaccineAppointment : schedules >


@enduml

PlantUML version 1.2022.5(Sat Apr 30 11:55:52 BST 2022)
(GPL source distribution)
Java Runtime: OpenJDK Runtime Environment
JVM: OpenJDK 64-Bit Server VM
Default Encoding: Cp1252
Language: en
Country: US
--></g></svg>