<?xml version="1.0" encoding="UTF-8" standalone="no"?><svg xmlns="http://www.w3.org/2000/svg" xmlns:xlink="http://www.w3.org/1999/xlink" contentScriptType="application/ecmascript" contentStyleType="text/css" height="514.5px" preserveAspectRatio="none" style="width:1194px;height:514px;background:#FFFFFF;" version="1.1" viewBox="0 0 1194 514" width="1194px" zoomAndPan="magnify"><defs><filter height="300%" id="fxq25apddcpi0" width="300%" x="-1" y="-1"><feGaussianBlur result="blurOut" stdDeviation="1.0"/><feColorMatrix in="blurOut" result="blurOut2" type="matrix" values="0 0 0 0 0 0 0 0 0 0 0 0 0 0 0 0 0 0 .4 0"/><feOffset dx="2.0" dy="2.0" in="blurOut2" result="blurOut3"/><feBlend in="SourceGraphic" in2="blurOut3" mode="normal"/></filter></defs><g><!--MD5=[9b956c59b16436292d60adff39fe4d1c]
class ApplicationUser--><rect codeLine="5" fill="#FEFECE" filter="url(#fxq25apddcpi0)" height="24" id="ApplicationUser" style="stroke:#A80036;stroke-width:0.75;" width="59.5" x="3.5" y="192.1782"/><ellipse cx="11" cy="200.1782" fill="#ADD1B2" rx="5.5" ry="5.5" style="stroke:#A80036;stroke-width:0.5;"/><path d="M12,198.4282 Q12.1016,198.1782 12.2188,198.0532 Q12.3359,197.9282 12.4688,197.9282 Q12.7031,197.9282 12.8516,198.0688 Q13,198.2095 13,198.5376 L13,199.3188 Q13,199.647 12.8594,199.7876 Q12.7188,199.9282 12.5,199.9282 Q12.3047,199.9282 12.1797,199.8423 Q12.0547,199.7563 12,199.5298 Q11.9766,199.3735 11.8906,199.2876 Q11.7344,199.1235 11.4531,199.0298 Q11.1719,198.9282 10.8906,198.9282 Q10.5391,198.9282 10.2422,199.0688 Q9.9531,199.2095 9.7266,199.522 Q9.5,199.8345 9.5,200.2642 L9.5,200.7251 Q9.5,201.2407 9.9219,201.5845 Q10.3438,201.9282 11.0938,201.9282 Q11.5391,201.9282 11.8516,201.8267 Q12.0313,201.772 12.2344,201.5923 Q12.3672,201.4907 12.4375,201.4595 Q12.5078,201.4282 12.5938,201.4282 Q12.7578,201.4282 12.875,201.561 Q13,201.686 13,201.8657 Q13,202.0376 12.8281,202.2407 Q12.5781,202.5376 12.1797,202.7017 Q11.6563,202.9282 11.0156,202.9282 Q10.2656,202.9282 9.6641,202.6313 Q9.1797,202.397 8.8359,201.8892 Q8.5,201.3813 8.5,200.7798 L8.5,200.2329 Q8.5,199.6079 8.7969,199.061 Q9.1016,198.5142 9.625,198.2251 Q10.1563,197.9282 10.75,197.9282 Q11.1094,197.9282 11.4219,198.0532 Q11.7344,198.1782 12,198.4282 Z " fill="#000000"/><text fill="#000000" font-family="sans-serif" font-size="6" lengthAdjust="spacing" textLength="43.5" x="18" y="202.6333">ApplicationUser</text><line style="stroke:#A80036;stroke-width:0.75;" x1="4" x2="62.5" y1="208.1782" y2="208.1782"/><line style="stroke:#A80036;stroke-width:0.75;" x1="4" x2="62.5" y1="212.1782" y2="212.1782"/><!--MD5=[da547346deef918ea16944ba046651ef]
class Administrator--><rect codeLine="8" fill="#FEFECE" filter="url(#fxq25apddcpi0)" height="24" id="Administrator" style="stroke:#A80036;stroke-width:0.75;" width="52.5" x="416.5" y="267.6782"/><ellipse cx="424" cy="275.6782" fill="#ADD1B2" rx="5.5" ry="5.5" style="stroke:#A80036;stroke-width:0.5;"/><path d="M425,273.9282 Q425.1016,273.6782 425.2188,273.5532 Q425.3359,273.4282 425.4688,273.4282 Q425.7031,273.4282 425.8516,273.5688 Q426,273.7095 426,274.0376 L426,274.8188 Q426,275.147 425.8594,275.2876 Q425.7188,275.4282 425.5,275.4282 Q425.3047,275.4282 425.1797,275.3423 Q425.0547,275.2563 425,275.0298 Q424.9766,274.8735 424.8906,274.7876 Q424.7344,274.6235 424.4531,274.5298 Q424.1719,274.4282 423.8906,274.4282 Q423.5391,274.4282 423.2422,274.5688 Q422.9531,274.7095 422.7266,275.022 Q422.5,275.3345 422.5,275.7642 L422.5,276.2251 Q422.5,276.7407 422.9219,277.0845 Q423.3438,277.4282 424.0938,277.4282 Q424.5391,277.4282 424.8516,277.3267 Q425.0313,277.272 425.2344,277.0923 Q425.3672,276.9907 425.4375,276.9595 Q425.5078,276.9282 425.5938,276.9282 Q425.7578,276.9282 425.875,277.061 Q426,277.186 426,277.3657 Q426,277.5376 425.8281,277.7407 Q425.5781,278.0376 425.1797,278.2017 Q424.6563,278.4282 424.0156,278.4282 Q423.2656,278.4282 422.6641,278.1313 Q422.1797,277.897 421.8359,277.3892 Q421.5,276.8813 421.5,276.2798 L421.5,275.7329 Q421.5,275.1079 421.7969,274.561 Q422.1016,274.0142 422.625,273.7251 Q423.1563,273.4282 423.75,273.4282 Q424.1094,273.4282 424.4219,273.5532 Q424.7344,273.6782 425,273.9282 Z " fill="#000000"/><text fill="#000000" font-family="sans-serif" font-size="6" lengthAdjust="spacing" textLength="36.5" x="431" y="278.1333">Administrator</text><line style="stroke:#A80036;stroke-width:0.75;" x1="417" x2="468.5" y1="283.6782" y2="283.6782"/><line style="stroke:#A80036;stroke-width:0.75;" x1="417" x2="468.5" y1="287.6782" y2="287.6782"/><!--MD5=[c4593935f45e4a2a0cefc4788932b53f]
class SnsUser--><rect codeLine="10" fill="#FEFECE" filter="url(#fxq25apddcpi0)" height="32.1758" id="SnsUser" style="stroke:#A80036;stroke-width:0.75;" width="58.5" x="620.25" y="127.1782"/><ellipse cx="635.85" cy="135.1782" fill="#ADD1B2" rx="5.5" ry="5.5" style="stroke:#A80036;stroke-width:0.5;"/><path d="M636.85,133.4282 Q636.9516,133.1782 637.0688,133.0532 Q637.1859,132.9282 637.3188,132.9282 Q637.5531,132.9282 637.7016,133.0688 Q637.85,133.2095 637.85,133.5376 L637.85,134.3188 Q637.85,134.647 637.7094,134.7876 Q637.5688,134.9282 637.35,134.9282 Q637.1547,134.9282 637.0297,134.8423 Q636.9047,134.7563 636.85,134.5298 Q636.8266,134.3735 636.7406,134.2876 Q636.5844,134.1235 636.3031,134.0298 Q636.0219,133.9282 635.7406,133.9282 Q635.3891,133.9282 635.0922,134.0688 Q634.8031,134.2095 634.5766,134.522 Q634.35,134.8345 634.35,135.2642 L634.35,135.7251 Q634.35,136.2407 634.7719,136.5845 Q635.1938,136.9282 635.9438,136.9282 Q636.3891,136.9282 636.7016,136.8267 Q636.8813,136.772 637.0844,136.5923 Q637.2172,136.4907 637.2875,136.4595 Q637.3578,136.4282 637.4438,136.4282 Q637.6078,136.4282 637.725,136.561 Q637.85,136.686 637.85,136.8657 Q637.85,137.0376 637.6781,137.2407 Q637.4281,137.5376 637.0297,137.7017 Q636.5063,137.9282 635.8656,137.9282 Q635.1156,137.9282 634.5141,137.6313 Q634.0297,137.397 633.6859,136.8892 Q633.35,136.3813 633.35,135.7798 L633.35,135.2329 Q633.35,134.6079 633.6469,134.061 Q633.9516,133.5142 634.475,133.2251 Q635.0063,132.9282 635.6,132.9282 Q635.9594,132.9282 636.2719,133.0532 Q636.5844,133.1782 636.85,133.4282 Z " fill="#000000"/><text fill="#000000" font-family="sans-serif" font-size="6" lengthAdjust="spacing" textLength="24.5" x="644.65" y="137.6333">SnsUser</text><line style="stroke:#A80036;stroke-width:0.75;" x1="620.75" x2="678.25" y1="143.1782" y2="143.1782"/><text fill="#000000" font-family="sans-serif" font-size="6.5" font-weight="bold" lengthAdjust="spacing" textLength="52.5" x="623.25" y="151.9258">-SnsUserNumber</text><line style="stroke:#A80036;stroke-width:0.75;" x1="620.75" x2="678.25" y1="155.354" y2="155.354"/><!--MD5=[a059576e163b46f56762f12600c49258]
class Nurse--><rect codeLine="23" fill="#FEFECE" filter="url(#fxq25apddcpi0)" height="24" id="Nurse" style="stroke:#A80036;stroke-width:0.75;" width="33" x="778" y="209.6782"/><ellipse cx="785.5" cy="217.6782" fill="#ADD1B2" rx="5.5" ry="5.5" style="stroke:#A80036;stroke-width:0.5;"/><path d="M786.5,215.9282 Q786.6016,215.6782 786.7188,215.5532 Q786.8359,215.4282 786.9688,215.4282 Q787.2031,215.4282 787.3516,215.5688 Q787.5,215.7095 787.5,216.0376 L787.5,216.8188 Q787.5,217.147 787.3594,217.2876 Q787.2188,217.4282 787,217.4282 Q786.8047,217.4282 786.6797,217.3423 Q786.5547,217.2563 786.5,217.0298 Q786.4766,216.8735 786.3906,216.7876 Q786.2344,216.6235 785.9531,216.5298 Q785.6719,216.4282 785.3906,216.4282 Q785.0391,216.4282 784.7422,216.5688 Q784.4531,216.7095 784.2266,217.022 Q784,217.3345 784,217.7642 L784,218.2251 Q784,218.7407 784.4219,219.0845 Q784.8438,219.4282 785.5938,219.4282 Q786.0391,219.4282 786.3516,219.3267 Q786.5313,219.272 786.7344,219.0923 Q786.8672,218.9907 786.9375,218.9595 Q787.0078,218.9282 787.0938,218.9282 Q787.2578,218.9282 787.375,219.061 Q787.5,219.186 787.5,219.3657 Q787.5,219.5376 787.3281,219.7407 Q787.0781,220.0376 786.6797,220.2017 Q786.1563,220.4282 785.5156,220.4282 Q784.7656,220.4282 784.1641,220.1313 Q783.6797,219.897 783.3359,219.3892 Q783,218.8813 783,218.2798 L783,217.7329 Q783,217.1079 783.2969,216.561 Q783.6016,216.0142 784.125,215.7251 Q784.6563,215.4282 785.25,215.4282 Q785.6094,215.4282 785.9219,215.5532 Q786.2344,215.6782 786.5,215.9282 Z " fill="#000000"/><text fill="#000000" font-family="sans-serif" font-size="6" lengthAdjust="spacing" textLength="17" x="792.5" y="220.1333">Nurse</text><line style="stroke:#A80036;stroke-width:0.75;" x1="778.5" x2="810.5" y1="225.6782" y2="225.6782"/><line style="stroke:#A80036;stroke-width:0.75;" x1="778.5" x2="810.5" y1="229.6782" y2="229.6782"/><!--MD5=[03960189e81aa2c066c762ffabbee709]
class Receptionist--><rect codeLine="21" fill="#FEFECE" filter="url(#fxq25apddcpi0)" height="24" id="Receptionist" style="stroke:#A80036;stroke-width:0.75;" width="50.5" x="8" y="74.1782"/><ellipse cx="15.5" cy="82.1782" fill="#ADD1B2" rx="5.5" ry="5.5" style="stroke:#A80036;stroke-width:0.5;"/><path d="M16.5,80.4282 Q16.6016,80.1782 16.7188,80.0532 Q16.8359,79.9282 16.9688,79.9282 Q17.2031,79.9282 17.3516,80.0688 Q17.5,80.2095 17.5,80.5376 L17.5,81.3188 Q17.5,81.647 17.3594,81.7876 Q17.2188,81.9282 17,81.9282 Q16.8047,81.9282 16.6797,81.8423 Q16.5547,81.7563 16.5,81.5298 Q16.4766,81.3735 16.3906,81.2876 Q16.2344,81.1235 15.9531,81.0298 Q15.6719,80.9282 15.3906,80.9282 Q15.0391,80.9282 14.7422,81.0688 Q14.4531,81.2095 14.2266,81.522 Q14,81.8345 14,82.2642 L14,82.7251 Q14,83.2407 14.4219,83.5845 Q14.8438,83.9282 15.5938,83.9282 Q16.0391,83.9282 16.3516,83.8267 Q16.5313,83.772 16.7344,83.5923 Q16.8672,83.4907 16.9375,83.4595 Q17.0078,83.4282 17.0938,83.4282 Q17.2578,83.4282 17.375,83.561 Q17.5,83.686 17.5,83.8657 Q17.5,84.0376 17.3281,84.2407 Q17.0781,84.5376 16.6797,84.7017 Q16.1563,84.9282 15.5156,84.9282 Q14.7656,84.9282 14.1641,84.6313 Q13.6797,84.397 13.3359,83.8892 Q13,83.3813 13,82.7798 L13,82.2329 Q13,81.6079 13.2969,81.061 Q13.6016,80.5142 14.125,80.2251 Q14.6563,79.9282 15.25,79.9282 Q15.6094,79.9282 15.9219,80.0532 Q16.2344,80.1782 16.5,80.4282 Z " fill="#000000"/><text fill="#000000" font-family="sans-serif" font-size="6" lengthAdjust="spacing" textLength="34.5" x="22.5" y="84.6333">Receptionist</text><line style="stroke:#A80036;stroke-width:0.75;" x1="8.5" x2="58" y1="90.1782" y2="90.1782"/><line style="stroke:#A80036;stroke-width:0.75;" x1="8.5" x2="58" y1="94.1782" y2="94.1782"/><!--MD5=[2d935fd2dd068a13da1ae531f9857c4f]
class CenterCoordinator--><rect codeLine="25" fill="#FEFECE" filter="url(#fxq25apddcpi0)" height="24" id="CenterCoordinator" style="stroke:#A80036;stroke-width:0.75;" width="67" x="130" y="285.1782"/><ellipse cx="137.5" cy="293.1782" fill="#ADD1B2" rx="5.5" ry="5.5" style="stroke:#A80036;stroke-width:0.5;"/><path d="M138.5,291.4282 Q138.6016,291.1782 138.7188,291.0532 Q138.8359,290.9282 138.9688,290.9282 Q139.2031,290.9282 139.3516,291.0688 Q139.5,291.2095 139.5,291.5376 L139.5,292.3188 Q139.5,292.647 139.3594,292.7876 Q139.2188,292.9282 139,292.9282 Q138.8047,292.9282 138.6797,292.8423 Q138.5547,292.7563 138.5,292.5298 Q138.4766,292.3735 138.3906,292.2876 Q138.2344,292.1235 137.9531,292.0298 Q137.6719,291.9282 137.3906,291.9282 Q137.0391,291.9282 136.7422,292.0688 Q136.4531,292.2095 136.2266,292.522 Q136,292.8345 136,293.2642 L136,293.7251 Q136,294.2407 136.4219,294.5845 Q136.8438,294.9282 137.5938,294.9282 Q138.0391,294.9282 138.3516,294.8267 Q138.5313,294.772 138.7344,294.5923 Q138.8672,294.4907 138.9375,294.4595 Q139.0078,294.4282 139.0938,294.4282 Q139.2578,294.4282 139.375,294.561 Q139.5,294.686 139.5,294.8657 Q139.5,295.0376 139.3281,295.2407 Q139.0781,295.5376 138.6797,295.7017 Q138.1563,295.9282 137.5156,295.9282 Q136.7656,295.9282 136.1641,295.6313 Q135.6797,295.397 135.3359,294.8892 Q135,294.3813 135,293.7798 L135,293.2329 Q135,292.6079 135.2969,292.061 Q135.6016,291.5142 136.125,291.2251 Q136.6563,290.9282 137.25,290.9282 Q137.6094,290.9282 137.9219,291.0532 Q138.2344,291.1782 138.5,291.4282 Z " fill="#000000"/><text fill="#000000" font-family="sans-serif" font-size="6" lengthAdjust="spacing" textLength="51" x="144.5" y="295.6333">CenterCoordinator</text><line style="stroke:#A80036;stroke-width:0.75;" x1="130.5" x2="196.5" y1="301.1782" y2="301.1782"/><line style="stroke:#A80036;stroke-width:0.75;" x1="130.5" x2="196.5" y1="305.1782" y2="305.1782"/><!--MD5=[4d1d709ea04c932694b424a1dbd905a6]
class VaccinatonCenter--><rect codeLine="36" fill="#FEFECE" filter="url(#fxq25apddcpi0)" height="113.9336" id="VaccinatonCenter" style="stroke:#A80036;stroke-width:0.75;" width="64.5" x="1011" y="393.6782"/><ellipse cx="1018.5" cy="401.6782" fill="#ADD1B2" rx="5.5" ry="5.5" style="stroke:#A80036;stroke-width:0.5;"/><path d="M1019.5,399.9282 Q1019.6016,399.6782 1019.7188,399.5532 Q1019.8359,399.4282 1019.9688,399.4282 Q1020.2031,399.4282 1020.3516,399.5688 Q1020.5,399.7095 1020.5,400.0376 L1020.5,400.8188 Q1020.5,401.147 1020.3594,401.2876 Q1020.2188,401.4282 1020,401.4282 Q1019.8047,401.4282 1019.6797,401.3423 Q1019.5547,401.2563 1019.5,401.0298 Q1019.4766,400.8735 1019.3906,400.7876 Q1019.2344,400.6235 1018.9531,400.5298 Q1018.6719,400.4282 1018.3906,400.4282 Q1018.0391,400.4282 1017.7422,400.5688 Q1017.4531,400.7095 1017.2266,401.022 Q1017,401.3345 1017,401.7642 L1017,402.2251 Q1017,402.7407 1017.4219,403.0845 Q1017.8438,403.4282 1018.5938,403.4282 Q1019.0391,403.4282 1019.3516,403.3267 Q1019.5313,403.272 1019.7344,403.0923 Q1019.8672,402.9907 1019.9375,402.9595 Q1020.0078,402.9282 1020.0938,402.9282 Q1020.2578,402.9282 1020.375,403.061 Q1020.5,403.186 1020.5,403.3657 Q1020.5,403.5376 1020.3281,403.7407 Q1020.0781,404.0376 1019.6797,404.2017 Q1019.1563,404.4282 1018.5156,404.4282 Q1017.7656,404.4282 1017.1641,404.1313 Q1016.6797,403.897 1016.3359,403.3892 Q1016,402.8813 1016,402.2798 L1016,401.7329 Q1016,401.1079 1016.2969,400.561 Q1016.6016,400.0142 1017.125,399.7251 Q1017.6563,399.4282 1018.25,399.4282 Q1018.6094,399.4282 1018.9219,399.5532 Q1019.2344,399.6782 1019.5,399.9282 Z " fill="#000000"/><text fill="#000000" font-family="sans-serif" font-size="6" lengthAdjust="spacing" textLength="48.5" x="1025.5" y="404.1333">VaccinatonCenter</text><line style="stroke:#A80036;stroke-width:0.75;" x1="1011.5" x2="1075" y1="409.6782" y2="409.6782"/><text fill="#000000" font-family="sans-serif" font-size="6.5" font-weight="bold" lengthAdjust="spacing" textLength="20" x="1014" y="418.4258">-name</text><text fill="#000000" font-family="sans-serif" font-size="6.5" font-weight="bold" lengthAdjust="spacing" textLength="26.5" x="1014" y="426.6016">-address</text><text fill="#000000" font-family="sans-serif" font-size="6.5" font-weight="bold" lengthAdjust="spacing" textLength="47" x="1014" y="434.7773">-phoneNumber</text><text fill="#000000" font-family="sans-serif" font-size="6.5" font-weight="bold" lengthAdjust="spacing" textLength="45" x="1014" y="442.9531">-emailAddress</text><text fill="#000000" font-family="sans-serif" font-size="6.5" font-weight="bold" lengthAdjust="spacing" textLength="37" x="1014" y="451.1289">-faxNumber</text><text fill="#000000" font-family="sans-serif" font-size="6.5" font-weight="bold" lengthAdjust="spacing" textLength="51.5" x="1014" y="459.3047">-websiteAddress</text><text fill="#000000" font-family="sans-serif" font-size="6.5" font-weight="bold" lengthAdjust="spacing" textLength="43" x="1014" y="467.4805">-openingHour</text><text fill="#000000" font-family="sans-serif" font-size="6.5" font-weight="bold" lengthAdjust="spacing" textLength="39.5" x="1014" y="475.6563">-closingHour</text><text fill="#000000" font-family="sans-serif" font-size="6.5" font-weight="bold" lengthAdjust="spacing" textLength="40" x="1014" y="483.832">-slotDuration</text><text fill="#000000" font-family="sans-serif" font-size="6.5" font-weight="bold" lengthAdjust="spacing" textLength="53" x="1014" y="492.0078">-vaccinesPerSlot</text><text fill="#000000" font-family="sans-serif" font-size="6.5" font-weight="bold" lengthAdjust="spacing" textLength="38.5" x="1014" y="500.1836">-coordinator</text><line style="stroke:#A80036;stroke-width:0.75;" x1="1011.5" x2="1075" y1="503.6118" y2="503.6118"/><!--MD5=[ad32b904b2f122cc39e054e9c13e36ab]
class TypeOfVaccine--><rect codeLine="70" fill="#FEFECE" filter="url(#fxq25apddcpi0)" height="32.1758" id="TypeOfVaccine" style="stroke:#A80036;stroke-width:0.75;" width="56.5" x="511.5" y="309.6782"/><ellipse cx="519" cy="317.6782" fill="#ADD1B2" rx="5.5" ry="5.5" style="stroke:#A80036;stroke-width:0.5;"/><path d="M520,315.9282 Q520.1016,315.6782 520.2188,315.5532 Q520.3359,315.4282 520.4688,315.4282 Q520.7031,315.4282 520.8516,315.5688 Q521,315.7095 521,316.0376 L521,316.8188 Q521,317.147 520.8594,317.2876 Q520.7188,317.4282 520.5,317.4282 Q520.3047,317.4282 520.1797,317.3423 Q520.0547,317.2563 520,317.0298 Q519.9766,316.8735 519.8906,316.7876 Q519.7344,316.6235 519.4531,316.5298 Q519.1719,316.4282 518.8906,316.4282 Q518.5391,316.4282 518.2422,316.5688 Q517.9531,316.7095 517.7266,317.022 Q517.5,317.3345 517.5,317.7642 L517.5,318.2251 Q517.5,318.7407 517.9219,319.0845 Q518.3438,319.4282 519.0938,319.4282 Q519.5391,319.4282 519.8516,319.3267 Q520.0313,319.272 520.2344,319.0923 Q520.3672,318.9907 520.4375,318.9595 Q520.5078,318.9282 520.5938,318.9282 Q520.7578,318.9282 520.875,319.061 Q521,319.186 521,319.3657 Q521,319.5376 520.8281,319.7407 Q520.5781,320.0376 520.1797,320.2017 Q519.6563,320.4282 519.0156,320.4282 Q518.2656,320.4282 517.6641,320.1313 Q517.1797,319.897 516.8359,319.3892 Q516.5,318.8813 516.5,318.2798 L516.5,317.7329 Q516.5,317.1079 516.7969,316.561 Q517.1016,316.0142 517.625,315.7251 Q518.1563,315.4282 518.75,315.4282 Q519.1094,315.4282 519.4219,315.5532 Q519.7344,315.6782 520,315.9282 Z " fill="#000000"/><text fill="#000000" font-family="sans-serif" font-size="6" lengthAdjust="spacing" textLength="40.5" x="526" y="320.1333">TypeOfVaccine</text><line style="stroke:#A80036;stroke-width:0.75;" x1="512" x2="567.5" y1="325.6782" y2="325.6782"/><text fill="#000000" font-family="sans-serif" font-size="6.5" font-weight="bold" lengthAdjust="spacing" textLength="17" x="514.5" y="334.4258">-virus</text><line style="stroke:#A80036;stroke-width:0.75;" x1="512" x2="567.5" y1="337.854" y2="337.854"/><!--MD5=[19e445fc4d3b48519cbe33da05496394]
class Vaccine--><rect codeLine="59" fill="#FEFECE" filter="url(#fxq25apddcpi0)" height="32.1758" id="Vaccine" style="stroke:#A80036;stroke-width:0.75;" width="37.5" x="775.75" y="355.1782"/><ellipse cx="783.25" cy="363.1782" fill="#ADD1B2" rx="5.5" ry="5.5" style="stroke:#A80036;stroke-width:0.5;"/><path d="M784.25,361.4282 Q784.3516,361.1782 784.4688,361.0532 Q784.5859,360.9282 784.7188,360.9282 Q784.9531,360.9282 785.1016,361.0688 Q785.25,361.2095 785.25,361.5376 L785.25,362.3188 Q785.25,362.647 785.1094,362.7876 Q784.9688,362.9282 784.75,362.9282 Q784.5547,362.9282 784.4297,362.8423 Q784.3047,362.7563 784.25,362.5298 Q784.2266,362.3735 784.1406,362.2876 Q783.9844,362.1235 783.7031,362.0298 Q783.4219,361.9282 783.1406,361.9282 Q782.7891,361.9282 782.4922,362.0688 Q782.2031,362.2095 781.9766,362.522 Q781.75,362.8345 781.75,363.2642 L781.75,363.7251 Q781.75,364.2407 782.1719,364.5845 Q782.5938,364.9282 783.3438,364.9282 Q783.7891,364.9282 784.1016,364.8267 Q784.2813,364.772 784.4844,364.5923 Q784.6172,364.4907 784.6875,364.4595 Q784.7578,364.4282 784.8438,364.4282 Q785.0078,364.4282 785.125,364.561 Q785.25,364.686 785.25,364.8657 Q785.25,365.0376 785.0781,365.2407 Q784.8281,365.5376 784.4297,365.7017 Q783.9063,365.9282 783.2656,365.9282 Q782.5156,365.9282 781.9141,365.6313 Q781.4297,365.397 781.0859,364.8892 Q780.75,364.3813 780.75,363.7798 L780.75,363.2329 Q780.75,362.6079 781.0469,362.061 Q781.3516,361.5142 781.875,361.2251 Q782.4063,360.9282 783,360.9282 Q783.3594,360.9282 783.6719,361.0532 Q783.9844,361.1782 784.25,361.4282 Z " fill="#000000"/><text fill="#000000" font-family="sans-serif" font-size="6" lengthAdjust="spacing" textLength="21.5" x="790.25" y="365.6333">Vaccine</text><line style="stroke:#A80036;stroke-width:0.75;" x1="776.25" x2="812.75" y1="371.1782" y2="371.1782"/><text fill="#000000" font-family="sans-serif" font-size="6.5" font-weight="bold" lengthAdjust="spacing" textLength="20.5" x="778.75" y="379.9258">-brand</text><line style="stroke:#A80036;stroke-width:0.75;" x1="776.25" x2="812.75" y1="383.354" y2="383.354"/><!--MD5=[76480a6701b5d2883bc606a2560c3cfe]
class MassVaccinationCenter--><rect codeLine="50" fill="#FEFECE" filter="url(#fxq25apddcpi0)" height="24" id="MassVaccinationCenter" style="stroke:#A80036;stroke-width:0.75;" width="81" x="1106" y="413.6782"/><ellipse cx="1113.5" cy="421.6782" fill="#ADD1B2" rx="5.5" ry="5.5" style="stroke:#A80036;stroke-width:0.5;"/><path d="M1114.5,419.9282 Q1114.6016,419.6782 1114.7188,419.5532 Q1114.8359,419.4282 1114.9688,419.4282 Q1115.2031,419.4282 1115.3516,419.5688 Q1115.5,419.7095 1115.5,420.0376 L1115.5,420.8188 Q1115.5,421.147 1115.3594,421.2876 Q1115.2188,421.4282 1115,421.4282 Q1114.8047,421.4282 1114.6797,421.3423 Q1114.5547,421.2563 1114.5,421.0298 Q1114.4766,420.8735 1114.3906,420.7876 Q1114.2344,420.6235 1113.9531,420.5298 Q1113.6719,420.4282 1113.3906,420.4282 Q1113.0391,420.4282 1112.7422,420.5688 Q1112.4531,420.7095 1112.2266,421.022 Q1112,421.3345 1112,421.7642 L1112,422.2251 Q1112,422.7407 1112.4219,423.0845 Q1112.8438,423.4282 1113.5938,423.4282 Q1114.0391,423.4282 1114.3516,423.3267 Q1114.5313,423.272 1114.7344,423.0923 Q1114.8672,422.9907 1114.9375,422.9595 Q1115.0078,422.9282 1115.0938,422.9282 Q1115.2578,422.9282 1115.375,423.061 Q1115.5,423.186 1115.5,423.3657 Q1115.5,423.5376 1115.3281,423.7407 Q1115.0781,424.0376 1114.6797,424.2017 Q1114.1563,424.4282 1113.5156,424.4282 Q1112.7656,424.4282 1112.1641,424.1313 Q1111.6797,423.897 1111.3359,423.3892 Q1111,422.8813 1111,422.2798 L1111,421.7329 Q1111,421.1079 1111.2969,420.561 Q1111.6016,420.0142 1112.125,419.7251 Q1112.6563,419.4282 1113.25,419.4282 Q1113.6094,419.4282 1113.9219,419.5532 Q1114.2344,419.6782 1114.5,419.9282 Z " fill="#000000"/><text fill="#000000" font-family="sans-serif" font-size="6" lengthAdjust="spacing" textLength="65" x="1120.5" y="424.1333">MassVaccinationCenter</text><line style="stroke:#A80036;stroke-width:0.75;" x1="1106.5" x2="1186.5" y1="429.6782" y2="429.6782"/><line style="stroke:#A80036;stroke-width:0.75;" x1="1106.5" x2="1186.5" y1="433.6782" y2="433.6782"/><!--MD5=[0b1ce5251ebf137e6b3550dd84e6af65]
class HealthcareCenter--><rect codeLine="54" fill="#FEFECE" filter="url(#fxq25apddcpi0)" height="40.3516" id="HealthcareCenter" style="stroke:#A80036;stroke-width:0.75;" width="64.5" x="1114.25" y="455.4282"/><ellipse cx="1121.75" cy="463.4282" fill="#ADD1B2" rx="5.5" ry="5.5" style="stroke:#A80036;stroke-width:0.5;"/><path d="M1122.75,461.6782 Q1122.8516,461.4282 1122.9688,461.3032 Q1123.0859,461.1782 1123.2188,461.1782 Q1123.4531,461.1782 1123.6016,461.3188 Q1123.75,461.4595 1123.75,461.7876 L1123.75,462.5688 Q1123.75,462.897 1123.6094,463.0376 Q1123.4688,463.1782 1123.25,463.1782 Q1123.0547,463.1782 1122.9297,463.0923 Q1122.8047,463.0063 1122.75,462.7798 Q1122.7266,462.6235 1122.6406,462.5376 Q1122.4844,462.3735 1122.2031,462.2798 Q1121.9219,462.1782 1121.6406,462.1782 Q1121.2891,462.1782 1120.9922,462.3188 Q1120.7031,462.4595 1120.4766,462.772 Q1120.25,463.0845 1120.25,463.5142 L1120.25,463.9751 Q1120.25,464.4907 1120.6719,464.8345 Q1121.0938,465.1782 1121.8438,465.1782 Q1122.2891,465.1782 1122.6016,465.0767 Q1122.7813,465.022 1122.9844,464.8423 Q1123.1172,464.7407 1123.1875,464.7095 Q1123.2578,464.6782 1123.3438,464.6782 Q1123.5078,464.6782 1123.625,464.811 Q1123.75,464.936 1123.75,465.1157 Q1123.75,465.2876 1123.5781,465.4907 Q1123.3281,465.7876 1122.9297,465.9517 Q1122.4063,466.1782 1121.7656,466.1782 Q1121.0156,466.1782 1120.4141,465.8813 Q1119.9297,465.647 1119.5859,465.1392 Q1119.25,464.6313 1119.25,464.0298 L1119.25,463.4829 Q1119.25,462.8579 1119.5469,462.311 Q1119.8516,461.7642 1120.375,461.4751 Q1120.9063,461.1782 1121.5,461.1782 Q1121.8594,461.1782 1122.1719,461.3032 Q1122.4844,461.4282 1122.75,461.6782 Z " fill="#000000"/><text fill="#000000" font-family="sans-serif" font-size="6" lengthAdjust="spacing" textLength="48.5" x="1128.75" y="465.8833">HealthcareCenter</text><line style="stroke:#A80036;stroke-width:0.75;" x1="1114.75" x2="1178.25" y1="471.4282" y2="471.4282"/><text fill="#000000" font-family="sans-serif" font-size="6.5" font-weight="bold" lengthAdjust="spacing" textLength="15" x="1117.25" y="480.1758">-ARE</text><text fill="#000000" font-family="sans-serif" font-size="6.5" font-weight="bold" lengthAdjust="spacing" textLength="20" x="1117.25" y="488.3516">-AGES</text><line style="stroke:#A80036;stroke-width:0.75;" x1="1114.75" x2="1178.25" y1="491.7798" y2="491.7798"/><!--MD5=[1a3e15371b673e3affce56c749ee055f]
class DosageScheme--><rect codeLine="63" fill="#FEFECE" filter="url(#fxq25apddcpi0)" height="56.7031" id="DosageScheme" style="stroke:#A80036;stroke-width:0.75;" width="88.5" x="892" y="323.4282"/><ellipse cx="911.875" cy="331.4282" fill="#ADD1B2" rx="5.5" ry="5.5" style="stroke:#A80036;stroke-width:0.5;"/><path d="M912.875,329.6782 Q912.9766,329.4282 913.0938,329.3032 Q913.2109,329.1782 913.3438,329.1782 Q913.5781,329.1782 913.7266,329.3188 Q913.875,329.4595 913.875,329.7876 L913.875,330.5688 Q913.875,330.897 913.7344,331.0376 Q913.5938,331.1782 913.375,331.1782 Q913.1797,331.1782 913.0547,331.0923 Q912.9297,331.0063 912.875,330.7798 Q912.8516,330.6235 912.7656,330.5376 Q912.6094,330.3735 912.3281,330.2798 Q912.0469,330.1782 911.7656,330.1782 Q911.4141,330.1782 911.1172,330.3188 Q910.8281,330.4595 910.6016,330.772 Q910.375,331.0845 910.375,331.5142 L910.375,331.9751 Q910.375,332.4907 910.7969,332.8345 Q911.2188,333.1782 911.9688,333.1782 Q912.4141,333.1782 912.7266,333.0767 Q912.9063,333.022 913.1094,332.8423 Q913.2422,332.7407 913.3125,332.7095 Q913.3828,332.6782 913.4688,332.6782 Q913.6328,332.6782 913.75,332.811 Q913.875,332.936 913.875,333.1157 Q913.875,333.2876 913.7031,333.4907 Q913.4531,333.7876 913.0547,333.9517 Q912.5313,334.1782 911.8906,334.1782 Q911.1406,334.1782 910.5391,333.8813 Q910.0547,333.647 909.7109,333.1392 Q909.375,332.6313 909.375,332.0298 L909.375,331.4829 Q909.375,330.8579 909.6719,330.311 Q909.9766,329.7642 910.5,329.4751 Q911.0313,329.1782 911.625,329.1782 Q911.9844,329.1782 912.2969,329.3032 Q912.6094,329.4282 912.875,329.6782 Z " fill="#000000"/><text fill="#000000" font-family="sans-serif" font-size="6" lengthAdjust="spacing" textLength="45" x="921.625" y="333.8833">DosageScheme</text><line style="stroke:#A80036;stroke-width:0.75;" x1="892.5" x2="980" y1="339.4282" y2="339.4282"/><text fill="#000000" font-family="sans-serif" font-size="6.5" font-weight="bold" lengthAdjust="spacing" textLength="52" x="895" y="348.1758">-numberOfDoses</text><text fill="#000000" font-family="sans-serif" font-size="6.5" font-weight="bold" lengthAdjust="spacing" textLength="25" x="895" y="356.3516">-dosage</text><text fill="#000000" font-family="sans-serif" font-size="6.5" font-weight="bold" lengthAdjust="spacing" textLength="14" x="895" y="364.5273">-age</text><text fill="#000000" font-family="sans-serif" font-size="6.5" font-weight="bold" lengthAdjust="spacing" textLength="82.5" x="895" y="372.7031">-intervalBetweenVaccines</text><line style="stroke:#A80036;stroke-width:0.75;" x1="892.5" x2="980" y1="376.1313" y2="376.1313"/><!--MD5=[80a03012b5333e72487751e45bd40e3d]
class DigitalCertificate--><rect codeLine="79" fill="#FEFECE" filter="url(#fxq25apddcpi0)" height="24" id="DigitalCertificate" style="stroke:#A80036;stroke-width:0.75;" width="61" x="764" y="150.6782"/><ellipse cx="771.5" cy="158.6782" fill="#ADD1B2" rx="5.5" ry="5.5" style="stroke:#A80036;stroke-width:0.5;"/><path d="M772.5,156.9282 Q772.6016,156.6782 772.7188,156.5532 Q772.8359,156.4282 772.9688,156.4282 Q773.2031,156.4282 773.3516,156.5688 Q773.5,156.7095 773.5,157.0376 L773.5,157.8188 Q773.5,158.147 773.3594,158.2876 Q773.2188,158.4282 773,158.4282 Q772.8047,158.4282 772.6797,158.3423 Q772.5547,158.2563 772.5,158.0298 Q772.4766,157.8735 772.3906,157.7876 Q772.2344,157.6235 771.9531,157.5298 Q771.6719,157.4282 771.3906,157.4282 Q771.0391,157.4282 770.7422,157.5688 Q770.4531,157.7095 770.2266,158.022 Q770,158.3345 770,158.7642 L770,159.2251 Q770,159.7407 770.4219,160.0845 Q770.8438,160.4282 771.5938,160.4282 Q772.0391,160.4282 772.3516,160.3267 Q772.5313,160.272 772.7344,160.0923 Q772.8672,159.9907 772.9375,159.9595 Q773.0078,159.9282 773.0938,159.9282 Q773.2578,159.9282 773.375,160.061 Q773.5,160.186 773.5,160.3657 Q773.5,160.5376 773.3281,160.7407 Q773.0781,161.0376 772.6797,161.2017 Q772.1563,161.4282 771.5156,161.4282 Q770.7656,161.4282 770.1641,161.1313 Q769.6797,160.897 769.3359,160.3892 Q769,159.8813 769,159.2798 L769,158.7329 Q769,158.1079 769.2969,157.561 Q769.6016,157.0142 770.125,156.7251 Q770.6563,156.4282 771.25,156.4282 Q771.6094,156.4282 771.9219,156.5532 Q772.2344,156.6782 772.5,156.9282 Z " fill="#000000"/><text fill="#000000" font-family="sans-serif" font-size="6" lengthAdjust="spacing" textLength="45" x="778.5" y="161.1333">DigitalCertificate</text><line style="stroke:#A80036;stroke-width:0.75;" x1="764.5" x2="824.5" y1="166.6782" y2="166.6782"/><line style="stroke:#A80036;stroke-width:0.75;" x1="764.5" x2="824.5" y1="170.6782" y2="170.6782"/><!--MD5=[cf1ec8291adc4f100e491a8c336ca0ac]
class VaccineAppointment--><rect codeLine="84" fill="#FEFECE" filter="url(#fxq25apddcpi0)" height="24" id="VaccineAppointment" style="stroke:#A80036;stroke-width:0.75;" width="72" x="758.5" y="57.6782"/><ellipse cx="766" cy="65.6782" fill="#ADD1B2" rx="5.5" ry="5.5" style="stroke:#A80036;stroke-width:0.5;"/><path d="M767,63.9282 Q767.1016,63.6782 767.2188,63.5532 Q767.3359,63.4282 767.4688,63.4282 Q767.7031,63.4282 767.8516,63.5688 Q768,63.7095 768,64.0376 L768,64.8188 Q768,65.147 767.8594,65.2876 Q767.7188,65.4282 767.5,65.4282 Q767.3047,65.4282 767.1797,65.3423 Q767.0547,65.2563 767,65.0298 Q766.9766,64.8735 766.8906,64.7876 Q766.7344,64.6235 766.4531,64.5298 Q766.1719,64.4282 765.8906,64.4282 Q765.5391,64.4282 765.2422,64.5688 Q764.9531,64.7095 764.7266,65.022 Q764.5,65.3345 764.5,65.7642 L764.5,66.2251 Q764.5,66.7407 764.9219,67.0845 Q765.3438,67.4282 766.0938,67.4282 Q766.5391,67.4282 766.8516,67.3267 Q767.0313,67.272 767.2344,67.0923 Q767.3672,66.9907 767.4375,66.9595 Q767.5078,66.9282 767.5938,66.9282 Q767.7578,66.9282 767.875,67.061 Q768,67.186 768,67.3657 Q768,67.5376 767.8281,67.7407 Q767.5781,68.0376 767.1797,68.2017 Q766.6563,68.4282 766.0156,68.4282 Q765.2656,68.4282 764.6641,68.1313 Q764.1797,67.897 763.8359,67.3892 Q763.5,66.8813 763.5,66.2798 L763.5,65.7329 Q763.5,65.1079 763.7969,64.561 Q764.1016,64.0142 764.625,63.7251 Q765.1563,63.4282 765.75,63.4282 Q766.1094,63.4282 766.4219,63.5532 Q766.7344,63.6782 767,63.9282 Z " fill="#000000"/><text fill="#000000" font-family="sans-serif" font-size="6" lengthAdjust="spacing" textLength="56" x="773" y="68.1333">VaccineAppointment</text><line style="stroke:#A80036;stroke-width:0.75;" x1="759" x2="830" y1="73.6782" y2="73.6782"/><line style="stroke:#A80036;stroke-width:0.75;" x1="759" x2="830" y1="77.6782" y2="77.6782"/><!--MD5=[7cee63e05c54fc7e82ca7f101606cdb1]
class UsersWaitingList--><rect codeLine="90" fill="#FEFECE" filter="url(#fxq25apddcpi0)" height="24" id="UsersWaitingList" style="stroke:#A80036;stroke-width:0.75;" width="63.5" x="904.5" y="48.6782"/><ellipse cx="912" cy="56.6782" fill="#ADD1B2" rx="5.5" ry="5.5" style="stroke:#A80036;stroke-width:0.5;"/><path d="M913,54.9282 Q913.1016,54.6782 913.2188,54.5532 Q913.3359,54.4282 913.4688,54.4282 Q913.7031,54.4282 913.8516,54.5688 Q914,54.7095 914,55.0376 L914,55.8188 Q914,56.147 913.8594,56.2876 Q913.7188,56.4282 913.5,56.4282 Q913.3047,56.4282 913.1797,56.3423 Q913.0547,56.2563 913,56.0298 Q912.9766,55.8735 912.8906,55.7876 Q912.7344,55.6235 912.4531,55.5298 Q912.1719,55.4282 911.8906,55.4282 Q911.5391,55.4282 911.2422,55.5688 Q910.9531,55.7095 910.7266,56.022 Q910.5,56.3345 910.5,56.7642 L910.5,57.2251 Q910.5,57.7407 910.9219,58.0845 Q911.3438,58.4282 912.0938,58.4282 Q912.5391,58.4282 912.8516,58.3267 Q913.0313,58.272 913.2344,58.0923 Q913.3672,57.9907 913.4375,57.9595 Q913.5078,57.9282 913.5938,57.9282 Q913.7578,57.9282 913.875,58.061 Q914,58.186 914,58.3657 Q914,58.5376 913.8281,58.7407 Q913.5781,59.0376 913.1797,59.2017 Q912.6563,59.4282 912.0156,59.4282 Q911.2656,59.4282 910.6641,59.1313 Q910.1797,58.897 909.8359,58.3892 Q909.5,57.8813 909.5,57.2798 L909.5,56.7329 Q909.5,56.1079 909.7969,55.561 Q910.1016,55.0142 910.625,54.7251 Q911.1563,54.4282 911.75,54.4282 Q912.1094,54.4282 912.4219,54.5532 Q912.7344,54.6782 913,54.9282 Z " fill="#000000"/><text fill="#000000" font-family="sans-serif" font-size="6" lengthAdjust="spacing" textLength="47.5" x="919" y="59.1333">UsersWaitingList</text><line style="stroke:#A80036;stroke-width:0.75;" x1="905" x2="967.5" y1="64.6782" y2="64.6782"/><line style="stroke:#A80036;stroke-width:0.75;" x1="905" x2="967.5" y1="68.6782" y2="68.6782"/><!--MD5=[9e94af7e26ddd61f16675ec5a7d7b75f]
class UserInfo--><rect codeLine="91" fill="#FEFECE" filter="url(#fxq25apddcpi0)" height="24" id="UserInfo" style="stroke:#A80036;stroke-width:0.75;" width="39.5" x="916.5" y="209.6782"/><ellipse cx="924" cy="217.6782" fill="#ADD1B2" rx="5.5" ry="5.5" style="stroke:#A80036;stroke-width:0.5;"/><path d="M925,215.9282 Q925.1016,215.6782 925.2188,215.5532 Q925.3359,215.4282 925.4688,215.4282 Q925.7031,215.4282 925.8516,215.5688 Q926,215.7095 926,216.0376 L926,216.8188 Q926,217.147 925.8594,217.2876 Q925.7188,217.4282 925.5,217.4282 Q925.3047,217.4282 925.1797,217.3423 Q925.0547,217.2563 925,217.0298 Q924.9766,216.8735 924.8906,216.7876 Q924.7344,216.6235 924.4531,216.5298 Q924.1719,216.4282 923.8906,216.4282 Q923.5391,216.4282 923.2422,216.5688 Q922.9531,216.7095 922.7266,217.022 Q922.5,217.3345 922.5,217.7642 L922.5,218.2251 Q922.5,218.7407 922.9219,219.0845 Q923.3438,219.4282 924.0938,219.4282 Q924.5391,219.4282 924.8516,219.3267 Q925.0313,219.272 925.2344,219.0923 Q925.3672,218.9907 925.4375,218.9595 Q925.5078,218.9282 925.5938,218.9282 Q925.7578,218.9282 925.875,219.061 Q926,219.186 926,219.3657 Q926,219.5376 925.8281,219.7407 Q925.5781,220.0376 925.1797,220.2017 Q924.6563,220.4282 924.0156,220.4282 Q923.2656,220.4282 922.6641,220.1313 Q922.1797,219.897 921.8359,219.3892 Q921.5,218.8813 921.5,218.2798 L921.5,217.7329 Q921.5,217.1079 921.7969,216.561 Q922.1016,216.0142 922.625,215.7251 Q923.1563,215.4282 923.75,215.4282 Q924.1094,215.4282 924.4219,215.5532 Q924.7344,215.6782 925,215.9282 Z " fill="#000000"/><text fill="#000000" font-family="sans-serif" font-size="6" lengthAdjust="spacing" textLength="23.5" x="931" y="220.1333">UserInfo</text><line style="stroke:#A80036;stroke-width:0.75;" x1="917" x2="955.5" y1="225.6782" y2="225.6782"/><line style="stroke:#A80036;stroke-width:0.75;" x1="917" x2="955.5" y1="229.6782" y2="229.6782"/><!--MD5=[0a6389d85244b33bdfdb792108db6bc1]
class GivenVaccine--><rect codeLine="98" fill="#FEFECE" filter="url(#fxq25apddcpi0)" height="24" id="GivenVaccine" style="stroke:#A80036;stroke-width:0.75;" width="53" x="623" y="259.6782"/><ellipse cx="630.5" cy="267.6782" fill="#ADD1B2" rx="5.5" ry="5.5" style="stroke:#A80036;stroke-width:0.5;"/><path d="M631.5,265.9282 Q631.6016,265.6782 631.7188,265.5532 Q631.8359,265.4282 631.9688,265.4282 Q632.2031,265.4282 632.3516,265.5688 Q632.5,265.7095 632.5,266.0376 L632.5,266.8188 Q632.5,267.147 632.3594,267.2876 Q632.2188,267.4282 632,267.4282 Q631.8047,267.4282 631.6797,267.3423 Q631.5547,267.2563 631.5,267.0298 Q631.4766,266.8735 631.3906,266.7876 Q631.2344,266.6235 630.9531,266.5298 Q630.6719,266.4282 630.3906,266.4282 Q630.0391,266.4282 629.7422,266.5688 Q629.4531,266.7095 629.2266,267.022 Q629,267.3345 629,267.7642 L629,268.2251 Q629,268.7407 629.4219,269.0845 Q629.8438,269.4282 630.5938,269.4282 Q631.0391,269.4282 631.3516,269.3267 Q631.5313,269.272 631.7344,269.0923 Q631.8672,268.9907 631.9375,268.9595 Q632.0078,268.9282 632.0938,268.9282 Q632.2578,268.9282 632.375,269.061 Q632.5,269.186 632.5,269.3657 Q632.5,269.5376 632.3281,269.7407 Q632.0781,270.0376 631.6797,270.2017 Q631.1563,270.4282 630.5156,270.4282 Q629.7656,270.4282 629.1641,270.1313 Q628.6797,269.897 628.3359,269.3892 Q628,268.8813 628,268.2798 L628,267.7329 Q628,267.1079 628.2969,266.561 Q628.6016,266.0142 629.125,265.7251 Q629.6563,265.4282 630.25,265.4282 Q630.6094,265.4282 630.9219,265.5532 Q631.2344,265.6782 631.5,265.9282 Z " fill="#000000"/><text fill="#000000" font-family="sans-serif" font-size="6" lengthAdjust="spacing" textLength="37" x="637.5" y="270.1333">GivenVaccine</text><line style="stroke:#A80036;stroke-width:0.75;" x1="623.5" x2="675.5" y1="275.6782" y2="275.6782"/><line style="stroke:#A80036;stroke-width:0.75;" x1="623.5" x2="675.5" y1="279.6782" y2="279.6782"/><!--MD5=[605056f3b750e89e8a7ae3805405579b]
class AdverseReactions--><rect codeLine="99" fill="#FEFECE" filter="url(#fxq25apddcpi0)" height="24" id="AdverseReactions" style="stroke:#A80036;stroke-width:0.75;" width="66" x="616.5" y="320.6782"/><ellipse cx="624" cy="328.6782" fill="#ADD1B2" rx="5.5" ry="5.5" style="stroke:#A80036;stroke-width:0.5;"/><path d="M625,326.9282 Q625.1016,326.6782 625.2188,326.5532 Q625.3359,326.4282 625.4688,326.4282 Q625.7031,326.4282 625.8516,326.5688 Q626,326.7095 626,327.0376 L626,327.8188 Q626,328.147 625.8594,328.2876 Q625.7188,328.4282 625.5,328.4282 Q625.3047,328.4282 625.1797,328.3423 Q625.0547,328.2563 625,328.0298 Q624.9766,327.8735 624.8906,327.7876 Q624.7344,327.6235 624.4531,327.5298 Q624.1719,327.4282 623.8906,327.4282 Q623.5391,327.4282 623.2422,327.5688 Q622.9531,327.7095 622.7266,328.022 Q622.5,328.3345 622.5,328.7642 L622.5,329.2251 Q622.5,329.7407 622.9219,330.0845 Q623.3438,330.4282 624.0938,330.4282 Q624.5391,330.4282 624.8516,330.3267 Q625.0313,330.272 625.2344,330.0923 Q625.3672,329.9907 625.4375,329.9595 Q625.5078,329.9282 625.5938,329.9282 Q625.7578,329.9282 625.875,330.061 Q626,330.186 626,330.3657 Q626,330.5376 625.8281,330.7407 Q625.5781,331.0376 625.1797,331.2017 Q624.6563,331.4282 624.0156,331.4282 Q623.2656,331.4282 622.6641,331.1313 Q622.1797,330.897 621.8359,330.3892 Q621.5,329.8813 621.5,329.2798 L621.5,328.7329 Q621.5,328.1079 621.7969,327.561 Q622.1016,327.0142 622.625,326.7251 Q623.1563,326.4282 623.75,326.4282 Q624.1094,326.4282 624.4219,326.5532 Q624.7344,326.6782 625,326.9282 Z " fill="#000000"/><text fill="#000000" font-family="sans-serif" font-size="6" lengthAdjust="spacing" textLength="50" x="631" y="331.1333">AdverseReactions</text><line style="stroke:#A80036;stroke-width:0.75;" x1="617" x2="682" y1="336.6782" y2="336.6782"/><line style="stroke:#A80036;stroke-width:0.75;" x1="617" x2="682" y1="340.6782" y2="340.6782"/><ellipse cx="649.5" cy="302.1782" fill="#000000" rx="1" ry="1" style="stroke:none;stroke-width:0.5;"/><!--MD5=[944ecf1b0032c0733312c6ea9b33e13a]
class ManageVaccinationProcess--><rect codeLine="105" fill="#FEFECE" filter="url(#fxq25apddcpi0)" height="24" id="ManageVaccinationProcess" style="stroke:#A80036;stroke-width:0.75;" width="92.5" x="258" y="266.1782"/><ellipse cx="265.5" cy="274.1782" fill="#ADD1B2" rx="5.5" ry="5.5" style="stroke:#A80036;stroke-width:0.5;"/><path d="M266.5,272.4282 Q266.6016,272.1782 266.7188,272.0532 Q266.8359,271.9282 266.9688,271.9282 Q267.2031,271.9282 267.3516,272.0688 Q267.5,272.2095 267.5,272.5376 L267.5,273.3188 Q267.5,273.647 267.3594,273.7876 Q267.2188,273.9282 267,273.9282 Q266.8047,273.9282 266.6797,273.8423 Q266.5547,273.7563 266.5,273.5298 Q266.4766,273.3735 266.3906,273.2876 Q266.2344,273.1235 265.9531,273.0298 Q265.6719,272.9282 265.3906,272.9282 Q265.0391,272.9282 264.7422,273.0688 Q264.4531,273.2095 264.2266,273.522 Q264,273.8345 264,274.2642 L264,274.7251 Q264,275.2407 264.4219,275.5845 Q264.8438,275.9282 265.5938,275.9282 Q266.0391,275.9282 266.3516,275.8267 Q266.5313,275.772 266.7344,275.5923 Q266.8672,275.4907 266.9375,275.4595 Q267.0078,275.4282 267.0938,275.4282 Q267.2578,275.4282 267.375,275.561 Q267.5,275.686 267.5,275.8657 Q267.5,276.0376 267.3281,276.2407 Q267.0781,276.5376 266.6797,276.7017 Q266.1563,276.9282 265.5156,276.9282 Q264.7656,276.9282 264.1641,276.6313 Q263.6797,276.397 263.3359,275.8892 Q263,275.3813 263,274.7798 L263,274.2329 Q263,273.6079 263.2969,273.061 Q263.6016,272.5142 264.125,272.2251 Q264.6563,271.9282 265.25,271.9282 Q265.6094,271.9282 265.9219,272.0532 Q266.2344,272.1782 266.5,272.4282 Z " fill="#000000"/><text fill="#000000" font-family="sans-serif" font-size="6" lengthAdjust="spacing" textLength="76.5" x="272.5" y="276.6333">ManageVaccinationProcess</text><line style="stroke:#A80036;stroke-width:0.75;" x1="258.5" x2="350" y1="282.1782" y2="282.1782"/><line style="stroke:#A80036;stroke-width:0.75;" x1="258.5" x2="350" y1="286.1782" y2="286.1782"/><!--MD5=[0b4e4b4980470ea387cc45de9bd14b5b]
class Application--><rect codeLine="110" fill="#FEFECE" filter="url(#fxq25apddcpi0)" height="24" id="Application" style="stroke:#A80036;stroke-width:0.75;" width="46" x="419.75" y="98.6782"/><ellipse cx="427.25" cy="106.6782" fill="#ADD1B2" rx="5.5" ry="5.5" style="stroke:#A80036;stroke-width:0.5;"/><path d="M428.25,104.9282 Q428.3516,104.6782 428.4688,104.5532 Q428.5859,104.4282 428.7188,104.4282 Q428.9531,104.4282 429.1016,104.5688 Q429.25,104.7095 429.25,105.0376 L429.25,105.8188 Q429.25,106.147 429.1094,106.2876 Q428.9688,106.4282 428.75,106.4282 Q428.5547,106.4282 428.4297,106.3423 Q428.3047,106.2563 428.25,106.0298 Q428.2266,105.8735 428.1406,105.7876 Q427.9844,105.6235 427.7031,105.5298 Q427.4219,105.4282 427.1406,105.4282 Q426.7891,105.4282 426.4922,105.5688 Q426.2031,105.7095 425.9766,106.022 Q425.75,106.3345 425.75,106.7642 L425.75,107.2251 Q425.75,107.7407 426.1719,108.0845 Q426.5938,108.4282 427.3438,108.4282 Q427.7891,108.4282 428.1016,108.3267 Q428.2813,108.272 428.4844,108.0923 Q428.6172,107.9907 428.6875,107.9595 Q428.7578,107.9282 428.8438,107.9282 Q429.0078,107.9282 429.125,108.061 Q429.25,108.186 429.25,108.3657 Q429.25,108.5376 429.0781,108.7407 Q428.8281,109.0376 428.4297,109.2017 Q427.9063,109.4282 427.2656,109.4282 Q426.5156,109.4282 425.9141,109.1313 Q425.4297,108.897 425.0859,108.3892 Q424.75,107.8813 424.75,107.2798 L424.75,106.7329 Q424.75,106.1079 425.0469,105.561 Q425.3516,105.0142 425.875,104.7251 Q426.4063,104.4282 427,104.4282 Q427.3594,104.4282 427.6719,104.5532 Q427.9844,104.6782 428.25,104.9282 Z " fill="#000000"/><text fill="#000000" font-family="sans-serif" font-size="6" lengthAdjust="spacing" textLength="30" x="434.25" y="109.1333">Application</text><line style="stroke:#A80036;stroke-width:0.75;" x1="420.25" x2="465.25" y1="114.6782" y2="114.6782"/><line style="stroke:#A80036;stroke-width:0.75;" x1="420.25" x2="465.25" y1="118.6782" y2="118.6782"/><!--MD5=[a13ca6a63a04f520383aacb00972fb48]
class EntriesAndExitsList--><rect codeLine="111" fill="#FEFECE" filter="url(#fxq25apddcpi0)" height="24" id="EntriesAndExitsList" style="stroke:#A80036;stroke-width:0.75;" width="69" x="269.75" y="82.6782"/><ellipse cx="277.25" cy="90.6782" fill="#ADD1B2" rx="5.5" ry="5.5" style="stroke:#A80036;stroke-width:0.5;"/><path d="M278.25,88.9282 Q278.3516,88.6782 278.4688,88.5532 Q278.5859,88.4282 278.7188,88.4282 Q278.9531,88.4282 279.1016,88.5688 Q279.25,88.7095 279.25,89.0376 L279.25,89.8188 Q279.25,90.147 279.1094,90.2876 Q278.9688,90.4282 278.75,90.4282 Q278.5547,90.4282 278.4297,90.3423 Q278.3047,90.2563 278.25,90.0298 Q278.2266,89.8735 278.1406,89.7876 Q277.9844,89.6235 277.7031,89.5298 Q277.4219,89.4282 277.1406,89.4282 Q276.7891,89.4282 276.4922,89.5688 Q276.2031,89.7095 275.9766,90.022 Q275.75,90.3345 275.75,90.7642 L275.75,91.2251 Q275.75,91.7407 276.1719,92.0845 Q276.5938,92.4282 277.3438,92.4282 Q277.7891,92.4282 278.1016,92.3267 Q278.2813,92.272 278.4844,92.0923 Q278.6172,91.9907 278.6875,91.9595 Q278.7578,91.9282 278.8438,91.9282 Q279.0078,91.9282 279.125,92.061 Q279.25,92.186 279.25,92.3657 Q279.25,92.5376 279.0781,92.7407 Q278.8281,93.0376 278.4297,93.2017 Q277.9063,93.4282 277.2656,93.4282 Q276.5156,93.4282 275.9141,93.1313 Q275.4297,92.897 275.0859,92.3892 Q274.75,91.8813 274.75,91.2798 L274.75,90.7329 Q274.75,90.1079 275.0469,89.561 Q275.3516,89.0142 275.875,88.7251 Q276.4063,88.4282 277,88.4282 Q277.3594,88.4282 277.6719,88.5532 Q277.9844,88.6782 278.25,88.9282 Z " fill="#000000"/><text fill="#000000" font-family="sans-serif" font-size="6" lengthAdjust="spacing" textLength="53" x="284.25" y="93.1333">EntriesAndExitsList</text><line style="stroke:#A80036;stroke-width:0.75;" x1="270.25" x2="338.25" y1="98.6782" y2="98.6782"/><line style="stroke:#A80036;stroke-width:0.75;" x1="270.25" x2="338.25" y1="102.6782" y2="102.6782"/><!--MD5=[ae7cf994a8037bd5ae694a195d04bab2]
reverse link ApplicationUser to SnsUser--><path codeLine="14" d="M53.01,185.6632 C63.98,177.0482 78.5,168.6782 93.5,168.6782 C93.5,168.6782 93.5,168.6782 443.25,168.6782 C511.095,168.6782 528.615,169.0482 595.5,157.6782 C603.61,156.2982 612.27,154.2232 620.21,152.0732 " fill="none" id="ApplicationUser-backto-SnsUser" style="stroke:#A80036;stroke-width:0.5;"/><polygon fill="none" points="55.25,188.3532,45.36,192.1582,50.715,183.0182,55.25,188.3532" style="stroke:#A80036;stroke-width:0.5;"/><!--MD5=[ec2784183dc102bb556cb27e2698cd6b]
reverse link ApplicationUser to Nurse--><path codeLine="15" d="M73.15,204.1782 C79.935,204.1782 86.92,204.1782 93.5,204.1782 C93.5,204.1782 93.5,204.1782 384,204.1782 C428.48,204.1782 439.53,201.0682 484,200.1782 C533.545,199.1882 546.015,197.5082 595.5,200.1782 C663.6,203.8532 744.275,214.5782 777.965,219.3482 " fill="none" id="ApplicationUser-backto-Nurse" style="stroke:#A80036;stroke-width:0.5;"/><polygon fill="none" points="73.075,207.6782,63.075,204.1782,73.075,200.6782,73.075,207.6782" style="stroke:#A80036;stroke-width:0.5;"/><!--MD5=[1a9788758f9842fd4535ce3f0d98786a]
link Receptionist to ApplicationUser--><path codeLine="16" d="M33.25,98.3682 C33.25,126.2132 33.25,154.0632 33.25,181.9082 " fill="none" id="Receptionist-to-ApplicationUser" style="stroke:#A80036;stroke-width:0.5;"/><polygon fill="none" points="36.75,181.9632,33.25,191.9632,29.75,181.9632,36.75,181.9632" style="stroke:#A80036;stroke-width:0.5;"/><!--MD5=[66b8b66cc0d48364d094f14c216c75e8]
reverse link ApplicationUser to Administrator--><path codeLine="17" d="M53.01,222.6932 C63.98,231.3082 78.5,239.6782 93.5,239.6782 C93.5,239.6782 93.5,239.6782 304.75,239.6782 C345.275,239.6782 389.935,255.8932 417.04,267.6782 " fill="none" id="ApplicationUser-backto-Administrator" style="stroke:#A80036;stroke-width:0.5;"/><polygon fill="none" points="50.715,225.3382,45.36,216.1982,55.25,220.0032,50.715,225.3382" style="stroke:#A80036;stroke-width:0.5;"/><!--MD5=[80d9ae4771b252b6d25b56fdcc7914a1]
reverse link ApplicationUser to CenterCoordinator--><path codeLine="18" d="M49.11,224.0232 C57.055,233.4582 67.32,244.4432 78,252.6782 C95.215,265.9482 116.97,277.2532 134.155,285.1482 " fill="none" id="ApplicationUser-backto-CenterCoordinator" style="stroke:#A80036;stroke-width:0.5;"/><polygon fill="none" points="46.37,226.2082,42.77,216.2432,51.8,221.7832,46.37,226.2082" style="stroke:#A80036;stroke-width:0.5;"/><!--MD5=[69d3d6816bb2ad39f978a6f58b674d47]
link Administrator to SnsUser--><path codeLine="27" d="M450.19,267.6382 C457.325,256.2482 469.43,239.4082 484,229.1782 C526.905,199.0532 550.245,217.1482 595.5,190.6782 C609.975,182.2132 624.06,169.4632 634.145,159.3082 " fill="none" id="Administrator-SnsUser" style="stroke:#A80036;stroke-width:0.5;"/><polygon fill="#000000" points="505.4042,184.9975,500.7615,186.0262,502.2529,188.5587,505.4042,184.9975" style="stroke:#000000;stroke-width:0.5;"/><text fill="#000000" font-family="sans-serif" font-size="6.5" lengthAdjust="spacing" textLength="70.5" x="507.75" y="188.9258">configures and manages</text><text fill="#000000" font-family="sans-serif" font-size="6.5" lengthAdjust="spacing" textLength="2.5" x="449.2762" y="262.2981">*</text><text fill="#000000" font-family="sans-serif" font-size="6.5" lengthAdjust="spacing" textLength="2.5" x="628.2202" y="170.2076">*</text><!--MD5=[e2ddcc32583ff1a2f6fdd8d9fe473f71]
link Administrator to Nurse--><path codeLine="28" d="M469.025,275.2082 C501.86,269.5332 560.375,259.4782 610.5,251.1782 C672.255,240.9532 745.795,229.2832 777.79,224.2332 " fill="none" id="Administrator-Nurse" style="stroke:#A80036;stroke-width:0.5;"/><polygon fill="#000000" points="615.4666,234.3589,610.7651,233.6457,611.2438,236.5454,615.4666,234.3589" style="stroke:#000000;stroke-width:0.5;"/><text fill="#000000" font-family="sans-serif" font-size="6.5" lengthAdjust="spacing" textLength="70.5" x="617.5" y="237.4258">configures and manages</text><text fill="#000000" font-family="sans-serif" font-size="6.5" lengthAdjust="spacing" textLength="2.5" x="473.0677" y="281.8997">*</text><text fill="#000000" font-family="sans-serif" font-size="6.5" lengthAdjust="spacing" textLength="2.5" x="771.5858" y="232.3509">*</text><!--MD5=[68f756bc59cba637d4ff36002d7ff302]
link Receptionist to Administrator--><path codeLine="29" d="M58.67,92.5332 C120.94,109.2532 286.585,158.9732 401.5,241.6782 C412.18,249.3632 423.01,259.6082 430.82,267.5232 " fill="none" id="Receptionist-Administrator" style="stroke:#A80036;stroke-width:0.5;"/><polygon fill="#000000" points="124.7376,106.7023,128.205,109.9565,129.4556,107.297,124.7376,106.7023" style="stroke:#000000;stroke-width:0.5;"/><text fill="#000000" font-family="sans-serif" font-size="6.5" lengthAdjust="spacing" textLength="70.5" x="131.5" y="110.4258">configures and manages</text><text fill="#000000" font-family="sans-serif" font-size="6.5" lengthAdjust="spacing" textLength="2.5" x="62.4205" y="100.7493">*</text><text fill="#000000" font-family="sans-serif" font-size="6.5" lengthAdjust="spacing" textLength="2.5" x="424.9426" y="262.1536">*</text><!--MD5=[8e3772fcd0ac833cbaec1bbaf09fe751]
link Administrator to VaccinatonCenter--><path codeLine="30" d="M444.2,291.8082 C446.645,314.8432 455.165,365.1482 484,393.6782 C539.155,448.2482 571.415,450.6782 649,450.6782 C649,450.6782 649,450.6782 936.75,450.6782 C961.685,450.6782 989.92,450.6782 1010.975,450.6782 " fill="none" id="Administrator-VaccinatonCenter" style="stroke:#A80036;stroke-width:0.5;"/><polygon fill="#000000" points="760.4072,446.9409,756.4491,444.3053,755.6559,447.1352,760.4072,446.9409" style="stroke:#000000;stroke-width:0.5;"/><text fill="#000000" font-family="sans-serif" font-size="6.5" lengthAdjust="spacing" textLength="70.5" x="762.5" y="448.9258">configures and manages</text><text fill="#000000" font-family="sans-serif" font-size="6.5" lengthAdjust="spacing" textLength="2.5" x="441.7488" y="302.5089">*</text><text fill="#000000" font-family="sans-serif" font-size="6.5" lengthAdjust="spacing" textLength="2.5" x="1004.5987" y="457.9023">*</text><!--MD5=[aeb13be6323529cdc88cf4be1fe6f78d]
link CenterCoordinator to Administrator--><path codeLine="31" d="M197.04,303.2682 C234.465,309.2132 297.185,316.2682 350.5,308.1782 C373.34,304.7132 398.32,296.6532 416.44,289.9882 " fill="none" id="CenterCoordinator-Administrator" style="stroke:#A80036;stroke-width:0.5;"/><polygon fill="#000000" points="265.2546,303.9172,269.8576,305.1107,269.6801,302.1771,265.2546,303.9172" style="stroke:#000000;stroke-width:0.5;"/><text fill="#000000" font-family="sans-serif" font-size="6.5" lengthAdjust="spacing" textLength="70.5" x="272.25" y="306.4258">configures and manages</text><text fill="#000000" font-family="sans-serif" font-size="6.5" lengthAdjust="spacing" textLength="2.5" x="201.0626" y="311.1926">*</text><text fill="#000000" font-family="sans-serif" font-size="6.5" lengthAdjust="spacing" textLength="2.5" x="410.0644" y="298.7605">*</text><!--MD5=[7f9978634a3e54d4fc1d9d7be02f04e9]
link Administrator to TypeOfVaccine--><path codeLine="32" d="M468.475,291.7632 C481.695,298.0982 497.92,305.8732 511.495,312.3782 " fill="none" id="Administrator-TypeOfVaccine" style="stroke:#A80036;stroke-width:0.5;"/><polygon fill="#000000" points="416.6045,307.6765,413.1611,304.3969,411.891,307.0473,416.6045,307.6765" style="stroke:#000000;stroke-width:0.5;"/><text fill="#000000" font-family="sans-serif" font-size="6.5" lengthAdjust="spacing" textLength="70.5" x="418.85" y="309.2558">configures and manages</text><text fill="#000000" font-family="sans-serif" font-size="6.5" lengthAdjust="spacing" textLength="2.5" x="471.9408" y="302.4529">*</text><text fill="#000000" font-family="sans-serif" font-size="6.5" lengthAdjust="spacing" textLength="2.5" x="505.0303" y="317.8761">*</text><!--MD5=[0e439f75a3d966f965fe5f237a1bacbe]
link Administrator to Vaccine--><path codeLine="33" d="M446.735,291.6932 C452.04,307.7482 463.73,335.8982 484,350.6782 C575.085,417.0932 724.065,388.7282 775.7,376.0732 " fill="none" id="Administrator-Vaccine" style="stroke:#A80036;stroke-width:0.5;"/><text fill="#000000" font-family="sans-serif" font-size="6.5" lengthAdjust="spacing" textLength="2.5" x="444.9017" y="302.3659">*</text><text fill="#000000" font-family="sans-serif" font-size="6.5" lengthAdjust="spacing" textLength="2.5" x="769.2527" y="384.572">*</text><!--MD5=[a69f9571a60c92edbe9996b131c0a798]
reverse link VaccinatonCenter to MassVaccinationCenter--><path d="M1085.295,440.5232 C1092.105,438.8582 1099.15,437.1332 1105.925,435.4782 " fill="none" id="VaccinatonCenter-backto-MassVaccinationCenter" style="stroke:#A80036;stroke-width:0.5;"/><polygon fill="none" points="1086.085,443.9282,1075.54,442.9032,1084.425,437.1282,1086.085,443.9282" style="stroke:#A80036;stroke-width:0.5;"/><!--MD5=[035b9cfd2c46d00ea6ea4e2ba6f148e6]
reverse link VaccinatonCenter to HealthcareCenter--><path d="M1085.355,460.8482 C1094.99,463.2082 1105.09,465.6782 1114.23,467.9082 " fill="none" id="VaccinatonCenter-backto-HealthcareCenter" style="stroke:#A80036;stroke-width:0.5;"/><polygon fill="none" points="1084.425,464.2282,1075.54,458.4532,1086.085,457.4282,1084.425,464.2282" style="stroke:#A80036;stroke-width:0.5;"/><!--MD5=[a5b46689cc8857272cca60e04b4c2b59]
link Vaccine to DosageScheme--><path codeLine="75" d="M813.255,368.6482 C833.08,365.9032 865.455,361.4182 891.94,357.7482 " fill="none" id="Vaccine-DosageScheme" style="stroke:#A80036;stroke-width:0.5;"/><polygon fill="#000000" points="855.9764,355.4231,851.295,354.5881,851.6982,357.4992,855.9764,355.4231" style="stroke:#000000;stroke-width:0.5;"/><text fill="#000000" font-family="sans-serif" font-size="6.5" lengthAdjust="spacing" textLength="16" x="858" y="358.4258">has a</text><text fill="#000000" font-family="sans-serif" font-size="6.5" lengthAdjust="spacing" textLength="3.5" x="817.2919" y="375.6852">1</text><text fill="#000000" font-family="sans-serif" font-size="6.5" lengthAdjust="spacing" textLength="3.5" x="884.4817" y="365.36">1</text><!--MD5=[2de32f8dee38664ec07413075ed961c1]
link TypeOfVaccine to Vaccine--><path codeLine="76" d="M564.345,341.7532 C577.42,349.5832 594.205,358.2482 610.5,362.6782 C669.125,378.6232 742.11,375.5432 775.625,372.9232 " fill="none" id="TypeOfVaccine-Vaccine" style="stroke:#A80036;stroke-width:0.5;"/><polygon fill="#000000" points="639.7768,357.9012,644.0364,360.015,644.4654,357.1076,639.7768,357.9012" style="stroke:#000000;stroke-width:0.5;"/><text fill="#000000" font-family="sans-serif" font-size="6.5" lengthAdjust="spacing" textLength="12" x="646.75" y="360.9258">is of</text><text fill="#000000" font-family="sans-serif" font-size="6.5" lengthAdjust="spacing" textLength="2.5" x="566.6599" y="352.6413">*</text><text fill="#000000" font-family="sans-serif" font-size="6.5" lengthAdjust="spacing" textLength="3.5" x="768.1934" y="371.2409">1</text><!--MD5=[1f0ff94e73a393eecd3e5d6f2d296bab]
link Vaccine to VaccinatonCenter--><path codeLine="77" d="M813.42,377.0882 C855.36,390.5482 958.395,423.6082 1010.89,440.4532 " fill="none" id="Vaccine-VaccinatonCenter" style="stroke:#A80036;stroke-width:0.5;"/><polygon fill="#000000" points="910.8804,398.53,907.0232,395.749,906.1252,398.5473,910.8804,398.53" style="stroke:#000000;stroke-width:0.5;"/><text fill="#000000" font-family="sans-serif" font-size="6.5" lengthAdjust="spacing" textLength="53" x="913" y="400.4258">is administered on</text><text fill="#000000" font-family="sans-serif" font-size="6.5" lengthAdjust="spacing" textLength="2.5" x="817.2649" y="385.7249">*</text><text fill="#000000" font-family="sans-serif" font-size="6.5" lengthAdjust="spacing" textLength="3.5" x="1003.446" y="446.495">1</text><!--MD5=[b146a75595556fad78af069941b44148]
link DigitalCertificate to Nurse--><path codeLine="81" d="M794.5,174.7432 C794.5,184.9232 794.5,199.4132 794.5,209.5982 " fill="none" id="DigitalCertificate-Nurse" style="stroke:#A80036;stroke-width:0.5;"/><polygon fill="#000000" points="776.5,189.7661,775.0305,194.2887,777.9695,194.2887,776.5,189.7661" style="stroke:#000000;stroke-width:0.5;"/><text fill="#000000" font-family="sans-serif" font-size="6.5" lengthAdjust="spacing" textLength="21.5" x="781" y="194.9258">delivers</text><text fill="#000000" font-family="sans-serif" font-size="6.5" lengthAdjust="spacing" textLength="2.5" x="791.6953" y="185.428">*</text><text fill="#000000" font-family="sans-serif" font-size="6.5" lengthAdjust="spacing" textLength="3.5" x="790.5516" y="204.2478">1</text><!--MD5=[894f32e3bda40c7272620a3388816726]
link SnsUser to DigitalCertificate--><path codeLine="82" d="M678.795,147.0782 C703.415,150.4132 738.74,155.1932 763.765,158.5832 " fill="none" id="SnsUser-DigitalCertificate" style="stroke:#A80036;stroke-width:0.5;"/><polygon fill="#000000" points="710.7274,146.6016,706.4429,144.5386,706.0486,147.4509,710.7274,146.6016" style="stroke:#000000;stroke-width:0.5;"/><text fill="#000000" font-family="sans-serif" font-size="6.5" lengthAdjust="spacing" textLength="25" x="712.75" y="148.9258">requests</text><text fill="#000000" font-family="sans-serif" font-size="6.5" lengthAdjust="spacing" textLength="3.5" x="682.7726" y="154.838">1</text><text fill="#000000" font-family="sans-serif" font-size="6.5" lengthAdjust="spacing" textLength="3.5" x="756.5089" y="165.33">1</text><!--MD5=[cc5e2fb97d9f5c96dda5e8bbfd01385e]
link SnsUser to VaccineAppointment--><path codeLine="86" d="M678.795,128.4832 C705.715,114.7382 745.425,94.4732 770.49,81.6782 " fill="none" id="SnsUser-VaccineAppointment" style="stroke:#A80036;stroke-width:0.5;"/><polygon fill="#000000" points="708.2267,92.6295,703.5305,93.3768,704.8666,95.9945,708.2267,92.6295" style="stroke:#000000;stroke-width:0.5;"/><text fill="#000000" font-family="sans-serif" font-size="6.5" lengthAdjust="spacing" textLength="29.5" x="710.5" y="96.4258">schedules</text><text fill="#000000" font-family="sans-serif" font-size="6.5" lengthAdjust="spacing" textLength="3.5" x="682.7726" y="133.8605">1</text><text fill="#000000" font-family="sans-serif" font-size="6.5" lengthAdjust="spacing" textLength="2.5" x="761.8329" y="92.3472">*</text><!--MD5=[d35087f30a174783cf89ba80439f9811]
link Receptionist to VaccineAppointment--><path codeLine="87" d="M44.325,73.9982 C55.35,62.7182 73.755,47.6782 93.5,47.6782 C93.5,47.6782 93.5,47.6782 650,47.6782 C687.305,47.6782 729.425,54.9832 758.43,61.1732 " fill="none" id="Receptionist-VaccineAppointment" style="stroke:#A80036;stroke-width:0.5;"/><polygon fill="#000000" points="271.2496,43.2212,266.7014,41.8332,266.7542,44.7717,271.2496,43.2212" style="stroke:#000000;stroke-width:0.5;"/><text fill="#000000" font-family="sans-serif" font-size="6.5" lengthAdjust="spacing" textLength="68.5" x="273.25" y="45.9258">schedules and confirms</text><text fill="#000000" font-family="sans-serif" font-size="6.5" lengthAdjust="spacing" textLength="3.5" x="43.098" y="68.8233">1</text><text fill="#000000" font-family="sans-serif" font-size="6.5" lengthAdjust="spacing" textLength="2.5" x="752.0814" y="67.4653">*</text><!--MD5=[ead49c6eb232874c9bfdd14aaf3032df]
link Receptionist to UsersWaitingList--><path codeLine="93" d="M37.305,74.1232 C44.315,53.1532 62.045,12.1782 93.5,12.1782 C93.5,12.1782 93.5,12.1782 795,12.1782 C839.585,12.1782 887.99,34.1982 914.825,48.5632 " fill="none" id="Receptionist-UsersWaitingList" style="stroke:#A80036;stroke-width:0.5;"/><polygon fill="#000000" points="371.7489,7.6933,367.1855,6.3562,367.2711,9.2938,371.7489,7.6933" style="stroke:#000000;stroke-width:0.5;"/><text fill="#000000" font-family="sans-serif" font-size="6.5" lengthAdjust="spacing" textLength="26" x="373.75" y="10.4258">atualizes</text><text fill="#000000" font-family="sans-serif" font-size="6.5" lengthAdjust="spacing" textLength="2.5" x="35.5238" y="68.7792">*</text><text fill="#000000" font-family="sans-serif" font-size="6.5" lengthAdjust="spacing" textLength="3.5" x="905.3864" y="43.2038">1</text><!--MD5=[a130e805f12c6caaf0787465d0f0d87e]
link Nurse to UsersWaitingList--><path codeLine="94" d="M807.6,209.6432 C815.26,202.1882 825.145,192.3182 833.5,183.1782 C869.195,144.1232 908.545,95.1532 926.225,72.8082 " fill="none" id="Nurse-UsersWaitingList" style="stroke:#A80036;stroke-width:0.5;"/><polygon fill="#000000" points="852.6376,127.3771,848.5648,129.8318,850.7855,131.7569,852.6376,127.3771" style="stroke:#000000;stroke-width:0.5;"/><text fill="#000000" font-family="sans-serif" font-size="6.5" lengthAdjust="spacing" textLength="21" x="855.5" y="131.9258">checks</text><text fill="#000000" font-family="sans-serif" font-size="6.5" lengthAdjust="spacing" textLength="2.5" x="808.1366" y="204.3043">*</text><text fill="#000000" font-family="sans-serif" font-size="6.5" lengthAdjust="spacing" textLength="3.5" x="919.8548" y="83.5089">1</text><!--MD5=[49bdc4f43c0486f86f6744f0a65b0571]
link Nurse to Vaccine--><path codeLine="95" d="M794.5,233.6932 C794.5,260.4282 794.5,324.8382 794.5,355.0382 " fill="none" id="Nurse-Vaccine" style="stroke:#A80036;stroke-width:0.5;"/><polygon fill="#000000" points="770.5,297.0161,771.9695,292.4936,769.0305,292.4936,770.5,297.0161" style="stroke:#000000;stroke-width:0.5;"/><text fill="#000000" font-family="sans-serif" font-size="6.5" lengthAdjust="spacing" textLength="33.5" x="775" y="297.1758">administers</text><text fill="#000000" font-family="sans-serif" font-size="6.5" lengthAdjust="spacing" textLength="3.5" x="790.5734" y="244.3659">1</text><text fill="#000000" font-family="sans-serif" font-size="6.5" lengthAdjust="spacing" textLength="2.5" x="791.7422" y="349.6319">*</text><!--MD5=[7c528da0811d8c9618b5251ce6f77b95]
link Nurse to UserInfo--><path codeLine="96" d="M811.01,221.6782 C837.02,221.6782 888.365,221.6782 916.385,221.6782 " fill="none" id="Nurse-UserInfo" style="stroke:#A80036;stroke-width:0.5;"/><polygon fill="#000000" points="853.5,217.2661,848.9775,215.7967,848.9775,218.7356,853.5,217.2661" style="stroke:#000000;stroke-width:0.5;"/><text fill="#000000" font-family="sans-serif" font-size="6.5" lengthAdjust="spacing" textLength="21" x="855.5" y="219.9258">checks</text><text fill="#000000" font-family="sans-serif" font-size="6.5" lengthAdjust="spacing" textLength="3.5" x="815.0044" y="229.32">1</text><text fill="#000000" font-family="sans-serif" font-size="6.5" lengthAdjust="spacing" textLength="2.5" x="909.9919" y="229.1795">*</text><!--MD5=[bde4e8d62f7ae929cdf8a80792c2b41c]
link GivenVaccine to apoint23437--><path d="M649.5,283.8132 C649.5,289.5382 649.5,295.2632 649.5,300.9882 " fill="none" id="GivenVaccine-apoint23437" style="stroke:#A80036;stroke-width:0.5;"/><text fill="#000000" font-family="sans-serif" font-size="6.5" lengthAdjust="spacing" textLength="2.5" x="646.6953" y="294.5151">*</text><!--MD5=[aa4fe7134685215437eaa44d10887f8b]
link apoint23437 to AdverseReactions--><path d="M649.5,303.1832 C649.5,308.9632 649.5,314.7432 649.5,320.5282 " fill="none" id="apoint23437-AdverseReactions" style="stroke:#A80036;stroke-width:0.5;"/><text fill="#000000" font-family="sans-serif" font-size="6.5" lengthAdjust="spacing" textLength="2.5" x="646.6797" y="315.1599">*</text><!--MD5=[6a6303e18a91daf63598f3d94fd7263e]
link apoint23437 to Nurse--><path d="M650.565,302.1132 C654.14,301.6932 673.9,299.1482 688.5,292.6782 C723.825,277.0232 760.155,249.5932 779.605,233.8032 " fill="none" id="apoint23437-Nurse" style="stroke:#A80036;stroke-width:0.5;"/><text fill="#000000" font-family="sans-serif" font-size="6.5" lengthAdjust="spacing" textLength="25" x="709.5" y="261.4258">registers</text><!--MD5=[4b713ec73cfc330ec36738f439ccab33]
link CenterCoordinator to ManageVaccinationProcess--><path codeLine="107" d="M197.12,292.6732 C215.28,290.2082 238.07,287.1082 257.915,284.4082 " fill="none" id="CenterCoordinator-ManageVaccinationProcess" style="stroke:#A80036;stroke-width:0.5;"/><polygon fill="#000000" points="222.4772,281.4293,217.7979,280.5825,218.1938,283.4946,222.4772,281.4293" style="stroke:#000000;stroke-width:0.5;"/><text fill="#000000" font-family="sans-serif" font-size="6.5" lengthAdjust="spacing" textLength="18" x="224.5" y="284.4258">has to</text><text fill="#000000" font-family="sans-serif" font-size="6.5" lengthAdjust="spacing" textLength="3.5" x="200.9886" y="299.3752">1</text><text fill="#000000" font-family="sans-serif" font-size="6.5" lengthAdjust="spacing" textLength="3.5" x="250.433" y="292.0102">1</text><!--MD5=[87f7b597003eab4c55f1d6168582c2a5]
link CenterCoordinator to VaccinatonCenter--><path codeLine="108" d="M166.335,309.2332 C175.395,352.1132 212.39,494.6782 303.75,494.6782 C303.75,494.6782 303.75,494.6782 936.75,494.6782 C963.15,494.6782 990.62,482.8932 1010.975,471.5182 " fill="none" id="CenterCoordinator-VaccinatonCenter" style="stroke:#A80036;stroke-width:0.5;"/><polygon fill="#000000" points="621.0449,489.7944,625.2089,492.0908,625.7635,489.2047,621.0449,489.7944" style="stroke:#000000;stroke-width:0.5;"/><text fill="#000000" font-family="sans-serif" font-size="6.5" lengthAdjust="spacing" textLength="49.5" x="628" y="492.9258">is coordinated by</text><text fill="#000000" font-family="sans-serif" font-size="6.5" lengthAdjust="spacing" textLength="3.5" x="163.0995" y="319.9156">1</text><text fill="#000000" font-family="sans-serif" font-size="6.5" lengthAdjust="spacing" textLength="3.5" x="1003.5409" y="481.1519">1</text><!--MD5=[2075be8de63a33f6fa84805c185bc4f8]
link Application to SnsUser--><path codeLine="113" d="M465.815,112.7782 C495.645,115.7332 549.775,121.7232 595.5,130.1782 C603.535,131.6632 612.17,133.6082 620.11,135.5382 " fill="none" id="Application-SnsUser" style="stroke:#A80036;stroke-width:0.5;"/><polygon fill="#000000" points="488.9732,111.1309,484.7135,109.0172,484.2847,111.9247,488.9732,111.1309" style="stroke:#000000;stroke-width:0.5;"/><text fill="#000000" font-family="sans-serif" font-size="6.5" lengthAdjust="spacing" textLength="104" x="491" y="113.4258">requests authorization to send SMS</text><text fill="#000000" font-family="sans-serif" font-size="6.5" lengthAdjust="spacing" textLength="3.5" x="469.7699" y="120.512">1</text><text fill="#000000" font-family="sans-serif" font-size="6.5" lengthAdjust="spacing" textLength="2.5" x="613.6843" y="141.8194">*</text><!--MD5=[2075be8de63a33f6fa84805c185bc4f8]
link Application to SnsUser--><path codeLine="114" d="M454.06,122.7282 C461.61,130.1932 472.385,139.1132 484,143.1782 C529.49,159.0982 586.46,154.0932 620.165,148.7882 " fill="none" id="Application-SnsUser-1" style="stroke:#A80036;stroke-width:0.5;"/><polygon fill="#000000" points="533.2198,139.1536,528.9797,137.0009,528.5241,139.9043,533.2198,139.1536" style="stroke:#000000;stroke-width:0.5;"/><text fill="#000000" font-family="sans-serif" font-size="6.5" lengthAdjust="spacing" textLength="15.5" x="535.25" y="141.4258">notify</text><text fill="#000000" font-family="sans-serif" font-size="6.5" lengthAdjust="spacing" textLength="3.5" x="452.8903" y="133.4094">1</text><text fill="#000000" font-family="sans-serif" font-size="6.5" lengthAdjust="spacing" textLength="2.5" x="613.7463" y="156.7671">*</text><!--MD5=[7a3302db0306e7272ad10de9df38a6ea]
link EntriesAndExitsList to Application--><path codeLine="115" d="M338.915,98.6532 C364.13,101.5882 397.73,105.4982 419.67,108.0532 " fill="none" id="EntriesAndExitsList-Application" style="stroke:#A80036;stroke-width:0.5;"/><polygon fill="#000000" points="365.5168,97.9771,369.8391,99.9596,370.1789,97.0404,365.5168,97.9771" style="stroke:#000000;stroke-width:0.5;"/><text fill="#000000" font-family="sans-serif" font-size="6.5" lengthAdjust="spacing" textLength="28.5" x="372.5" y="100.9258">generates</text><text fill="#000000" font-family="sans-serif" font-size="6.5" lengthAdjust="spacing" textLength="2.5" x="342.8432" y="106.2827">*</text><text fill="#000000" font-family="sans-serif" font-size="6.5" lengthAdjust="spacing" textLength="3.5" x="412.2127" y="115.0339">1</text><!--MD5=[cba4022f3e63bc05e68d730167374563]
@startuml
'https://plantuml.com/class-diagram

left to right direction

class ApplicationUser


class Administrator

class SnsUser {
==-SnsUserNumber
}

ApplicationUser <|- - - SnsUser
ApplicationUser <|- - Nurse
ApplicationUser <|-left- Receptionist
ApplicationUser <|- Administrator
ApplicationUser <|- - - CenterCoordinator


class Receptionist

class Nurse

class CenterCoordinator

Administrator "*" - - "*" SnsUser : configures and manages  >
Administrator "*" - "*" Nurse : configures and manages >
Administrator "*" -l- "*" Receptionist : configures and manages >
Administrator "*" - - "*" VaccinatonCenter : configures and manages >
Administrator "*" -up- - "*" CenterCoordinator : configures and manages >
Administrator "*" -right- - "*" TypeOfVaccine : configures and manages >
Administrator "*" - - "*" Vaccine


class VaccinatonCenter {
==-name
==-address
==-phoneNumber
==-emailAddress
==-faxNumber
==-websiteAddress
==-openingHour
==-closingHour
==-slotDuration
==-vaccinesPerSlot
==-coordinator
 }

class MassVaccinationCenter extends VaccinatonCenter {

}

class HealthcareCenter extends VaccinatonCenter {
==-ARE
==-AGES
}

class Vaccine {
==-brand
}

class DosageScheme {
==-numberOfDoses
==-dosage
== -age
==-intervalBetweenVaccines
}

class TypeOfVaccine {
==-virus
}


Vaccine "1" - - "1" DosageScheme : has a >
TypeOfVaccine "*" - - "1" Vaccine :is of <
Vaccine "*" - - - "1" VaccinatonCenter : is administered on >

class DigitalCertificate

Nurse "1" -left "*" DigitalCertificate : delivers >
SnsUser "1" - - "1" DigitalCertificate : requests >

class VaccineAppointment

SnsUser "1" - - "*" VaccineAppointment : schedules >
Receptionist "1" - "*" VaccineAppointment : schedules and confirms >


class UsersWaitingList
class UserInfo

Receptionist "*" - "1" UsersWaitingList : atualizes >
Nurse "*" - - "1" UsersWaitingList : checks >
Nurse "1" - "*" Vaccine : administers >
Nurse "1" - -  "*" UserInfo : checks >

class GivenVaccine
class AdverseReactions

GivenVaccine "*" - "*" AdverseReactions
(GivenVaccine, AdverseReactions) - Nurse : registers


class ManageVaccinationProcess

CenterCoordinator "1" - - "1" ManageVaccinationProcess : has to >
CenterCoordinator "1" - - "1" VaccinatonCenter : is coordinated by <

class Application
class EntriesAndExitsList

Application "1" - - "*" SnsUser : requests authorization to send SMS >
Application "1" - - "*" SnsUser : notify >
Application "1" -up- "*" EntriesAndExitsList : generates >
@enduml

@startuml

left to right direction

class ApplicationUser


class Administrator

class SnsUser {
==-SnsUserNumber
}

ApplicationUser <|- - - SnsUser
ApplicationUser <|- - Nurse
ApplicationUser <|-left- Receptionist
ApplicationUser <|- Administrator
ApplicationUser <|- - - CenterCoordinator


class Receptionist

class Nurse

class CenterCoordinator

Administrator "*" - - "*" SnsUser : configures and manages  >
Administrator "*" - "*" Nurse : configures and manages >
Administrator "*" -l- "*" Receptionist : configures and manages >
Administrator "*" - - "*" VaccinatonCenter : configures and manages >
Administrator "*" -up- - "*" CenterCoordinator : configures and manages >
Administrator "*" -right- - "*" TypeOfVaccine : configures and manages >
Administrator "*" - - "*" Vaccine


class VaccinatonCenter {
==-name
==-address
==-phoneNumber
==-emailAddress
==-faxNumber
==-websiteAddress
==-openingHour
==-closingHour
==-slotDuration
==-vaccinesPerSlot
==-coordinator
 }

class MassVaccinationCenter extends VaccinatonCenter {

}

class HealthcareCenter extends VaccinatonCenter {
==-ARE
==-AGES
}

class Vaccine {
==-brand
}

class DosageScheme {
==-numberOfDoses
==-dosage
== -age
==-intervalBetweenVaccines
}

class TypeOfVaccine {
==-virus
}


Vaccine "1" - - "1" DosageScheme : has a >
TypeOfVaccine "*" - - "1" Vaccine :is of <
Vaccine "*" - - - "1" VaccinatonCenter : is administered on >

class DigitalCertificate

Nurse "1" -left "*" DigitalCertificate : delivers >
SnsUser "1" - - "1" DigitalCertificate : requests >

class VaccineAppointment

SnsUser "1" - - "*" VaccineAppointment : schedules >
Receptionist "1" - "*" VaccineAppointment : schedules and confirms >


class UsersWaitingList
class UserInfo

Receptionist "*" - "1" UsersWaitingList : atualizes >
Nurse "*" - - "1" UsersWaitingList : checks >
Nurse "1" - "*" Vaccine : administers >
Nurse "1" - -  "*" UserInfo : checks >

class GivenVaccine
class AdverseReactions

GivenVaccine "*" - "*" AdverseReactions
(GivenVaccine, AdverseReactions) - Nurse : registers


class ManageVaccinationProcess

CenterCoordinator "1" - - "1" ManageVaccinationProcess : has to >
CenterCoordinator "1" - - "1" VaccinatonCenter : is coordinated by <

class Application
class EntriesAndExitsList

Application "1" - - "*" SnsUser : requests authorization to send SMS >
Application "1" - - "*" SnsUser : notify >
Application "1" -up- "*" EntriesAndExitsList : generates >
@enduml

PlantUML version 1.2022.1(Tue Feb 01 18:19:58 GMT 2022)
(GPL source distribution)
Java Runtime: OpenJDK Runtime Environment
JVM: OpenJDK 64-Bit Server VM
Default Encoding: Cp1252
Language: en
Country: US
--></g></svg>