<?xml version="1.0" encoding="UTF-8" standalone="no"?><svg xmlns="http://www.w3.org/2000/svg" xmlns:xlink="http://www.w3.org/1999/xlink" contentStyleType="text/css" height="780px" preserveAspectRatio="none" style="width:2246px;height:780px;background:#FFFFFF;" version="1.1" viewBox="0 0 2246 780" width="2246px" zoomAndPan="magnify"><defs/><g><!--MD5=[9b956c59b16436292d60adff39fe4d1c]
class ApplicationUser--><g id="elem_ApplicationUser"><rect codeLine="5" fill="#F1F1F1" height="128.5" id="ApplicationUser" rx="2.5" ry="2.5" style="stroke:#181818;stroke-width:0.5;" width="130" x="7" y="331.3564"/><ellipse cx="22" cy="347.3564" fill="#ADD1B2" rx="11" ry="11" style="stroke:#181818;stroke-width:1.0;"/><path d="M24,343.8564 Q24.2031,343.3564 24.4375,343.1064 Q24.6719,342.8564 24.9375,342.8564 Q25.4063,342.8564 25.7031,343.1377 Q26,343.4189 26,344.0752 L26,345.6377 Q26,346.2939 25.7188,346.5752 Q25.4375,346.8564 25,346.8564 Q24.6094,346.8564 24.3594,346.6846 Q24.1094,346.5127 24,346.0596 Q23.9531,345.7471 23.7813,345.5752 Q23.4688,345.2471 22.9063,345.0596 Q22.3438,344.8564 21.7813,344.8564 Q21.0781,344.8564 20.4844,345.1377 Q19.9063,345.4189 19.4531,346.0439 Q19,346.6689 19,347.5283 L19,348.4502 Q19,349.4814 19.8438,350.1689 Q20.6875,350.8564 22.1875,350.8564 Q23.0781,350.8564 23.7031,350.6533 Q24.0625,350.5439 24.4688,350.1846 Q24.7344,349.9814 24.875,349.9189 Q25.0156,349.8564 25.1875,349.8564 Q25.5156,349.8564 25.75,350.1221 Q26,350.3721 26,350.7314 Q26,351.0752 25.6563,351.4814 Q25.1563,352.0752 24.3594,352.4033 Q23.3125,352.8564 22.0313,352.8564 Q20.5313,352.8564 19.3281,352.2627 Q18.3594,351.7939 17.6719,350.7783 Q17,349.7627 17,348.5596 L17,347.4658 Q17,346.2158 17.5938,345.1221 Q18.2031,344.0283 19.25,343.4502 Q20.3125,342.8564 21.5,342.8564 Q22.2188,342.8564 22.8438,343.1064 Q23.4688,343.3564 24,343.8564 Z " fill="#000000"/><text fill="#000000" font-family="sans-serif" font-size="14" lengthAdjust="spacing" textLength="98" x="36" y="353.085">ApplicationUser</text><line style="stroke:#181818;stroke-width:0.5;" x1="8" x2="136" y1="363.3564" y2="363.3564"/><text fill="#000000" font-family="sans-serif" font-size="16" font-weight="bold" lengthAdjust="spacing" textLength="47" x="13" y="383.9658">-name</text><text fill="#000000" font-family="sans-serif" font-size="16" font-weight="bold" lengthAdjust="spacing" textLength="109" x="13" y="404.0908">-emailAddress</text><text fill="#000000" font-family="sans-serif" font-size="16" font-weight="bold" lengthAdjust="spacing" textLength="34" x="13" y="424.2158">-role</text><text fill="#000000" font-family="sans-serif" font-size="16" font-weight="bold" lengthAdjust="spacing" textLength="81" x="13" y="444.3408">-password</text><line style="stroke:#181818;stroke-width:0.5;" x1="8" x2="136" y1="451.8564" y2="451.8564"/></g><!--MD5=[da547346deef918ea16944ba046651ef]
class Administrator--><g id="elem_Administrator"><rect codeLine="13" fill="#F1F1F1" height="48" id="Administrator" rx="2.5" ry="2.5" style="stroke:#181818;stroke-width:0.5;" width="115" x="14.5" y="494.3564"/><ellipse cx="29.5" cy="510.3564" fill="#ADD1B2" rx="11" ry="11" style="stroke:#181818;stroke-width:1.0;"/><path d="M31.5,506.8564 Q31.7031,506.3564 31.9375,506.1064 Q32.1719,505.8564 32.4375,505.8564 Q32.9063,505.8564 33.2031,506.1377 Q33.5,506.4189 33.5,507.0752 L33.5,508.6377 Q33.5,509.2939 33.2188,509.5752 Q32.9375,509.8564 32.5,509.8564 Q32.1094,509.8564 31.8594,509.6846 Q31.6094,509.5127 31.5,509.0596 Q31.4531,508.7471 31.2813,508.5752 Q30.9688,508.2471 30.4063,508.0596 Q29.8438,507.8564 29.2813,507.8564 Q28.5781,507.8564 27.9844,508.1377 Q27.4063,508.4189 26.9531,509.0439 Q26.5,509.6689 26.5,510.5283 L26.5,511.4502 Q26.5,512.4814 27.3438,513.1689 Q28.1875,513.8564 29.6875,513.8564 Q30.5781,513.8564 31.2031,513.6533 Q31.5625,513.5439 31.9688,513.1846 Q32.2344,512.9814 32.375,512.9189 Q32.5156,512.8564 32.6875,512.8564 Q33.0156,512.8564 33.25,513.1221 Q33.5,513.3721 33.5,513.7314 Q33.5,514.0752 33.1563,514.4814 Q32.6563,515.0752 31.8594,515.4033 Q30.8125,515.8564 29.5313,515.8564 Q28.0313,515.8564 26.8281,515.2627 Q25.8594,514.7939 25.1719,513.7783 Q24.5,512.7627 24.5,511.5596 L24.5,510.4658 Q24.5,509.2158 25.0938,508.1221 Q25.7031,507.0283 26.75,506.4502 Q27.8125,505.8564 29,505.8564 Q29.7188,505.8564 30.3438,506.1064 Q30.9688,506.3564 31.5,506.8564 Z " fill="#000000"/><text fill="#000000" font-family="sans-serif" font-size="14" lengthAdjust="spacing" textLength="83" x="43.5" y="516.085">Administrator</text><line style="stroke:#181818;stroke-width:0.5;" x1="15.5" x2="128.5" y1="526.3564" y2="526.3564"/><line style="stroke:#181818;stroke-width:0.5;" x1="15.5" x2="128.5" y1="534.3564" y2="534.3564"/></g><!--MD5=[c4593935f45e4a2a0cefc4788932b53f]
class SnsUser--><g id="elem_SnsUser"><rect codeLine="15" fill="#F1F1F1" height="68.125" id="SnsUser" rx="2.5" ry="2.5" style="stroke:#181818;stroke-width:0.5;" width="144" x="585" y="382.3564"/><ellipse cx="626.55" cy="398.3564" fill="#ADD1B2" rx="11" ry="11" style="stroke:#181818;stroke-width:1.0;"/><path d="M628.55,394.8564 Q628.7531,394.3564 628.9875,394.1064 Q629.2219,393.8564 629.4875,393.8564 Q629.9563,393.8564 630.2531,394.1377 Q630.55,394.4189 630.55,395.0752 L630.55,396.6377 Q630.55,397.2939 630.2688,397.5752 Q629.9875,397.8564 629.55,397.8564 Q629.1594,397.8564 628.9094,397.6846 Q628.6594,397.5127 628.55,397.0596 Q628.5031,396.7471 628.3313,396.5752 Q628.0188,396.2471 627.4563,396.0596 Q626.8938,395.8564 626.3313,395.8564 Q625.6281,395.8564 625.0344,396.1377 Q624.4563,396.4189 624.0031,397.0439 Q623.55,397.6689 623.55,398.5283 L623.55,399.4502 Q623.55,400.4814 624.3938,401.1689 Q625.2375,401.8564 626.7375,401.8564 Q627.6281,401.8564 628.2531,401.6533 Q628.6125,401.5439 629.0188,401.1846 Q629.2844,400.9814 629.425,400.9189 Q629.5656,400.8564 629.7375,400.8564 Q630.0656,400.8564 630.3,401.1221 Q630.55,401.3721 630.55,401.7314 Q630.55,402.0752 630.2063,402.4814 Q629.7063,403.0752 628.9094,403.4033 Q627.8625,403.8564 626.5813,403.8564 Q625.0813,403.8564 623.8781,403.2627 Q622.9094,402.7939 622.2219,401.7783 Q621.55,400.7627 621.55,399.5596 L621.55,398.4658 Q621.55,397.2158 622.1438,396.1221 Q622.7531,395.0283 623.8,394.4502 Q624.8625,393.8564 626.05,393.8564 Q626.7688,393.8564 627.3938,394.1064 Q628.0188,394.3564 628.55,394.8564 Z " fill="#000000"/><text fill="#000000" font-family="sans-serif" font-size="14" lengthAdjust="spacing" textLength="53" x="646.45" y="404.085">SnsUser</text><line style="stroke:#181818;stroke-width:0.5;" x1="586" x2="728" y1="414.3564" y2="414.3564"/><text fill="#000000" font-family="sans-serif" font-size="16" font-weight="bold" lengthAdjust="spacing" textLength="132" x="591" y="434.9658">-SnsUserNumber</text><line style="stroke:#181818;stroke-width:0.5;" x1="586" x2="728" y1="442.4814" y2="442.4814"/></g><!--MD5=[a059576e163b46f56762f12600c49258]
class Nurse--><g id="elem_Nurse"><rect codeLine="30" fill="#F1F1F1" height="48" id="Nurse" rx="2.5" ry="2.5" style="stroke:#181818;stroke-width:0.5;" width="69" x="935" y="213.3564"/><ellipse cx="950" cy="229.3564" fill="#ADD1B2" rx="11" ry="11" style="stroke:#181818;stroke-width:1.0;"/><path d="M952,225.8564 Q952.2031,225.3564 952.4375,225.1064 Q952.6719,224.8564 952.9375,224.8564 Q953.4063,224.8564 953.7031,225.1377 Q954,225.4189 954,226.0752 L954,227.6377 Q954,228.2939 953.7188,228.5752 Q953.4375,228.8564 953,228.8564 Q952.6094,228.8564 952.3594,228.6846 Q952.1094,228.5127 952,228.0596 Q951.9531,227.7471 951.7813,227.5752 Q951.4688,227.2471 950.9063,227.0596 Q950.3438,226.8564 949.7813,226.8564 Q949.0781,226.8564 948.4844,227.1377 Q947.9063,227.4189 947.4531,228.0439 Q947,228.6689 947,229.5283 L947,230.4502 Q947,231.4814 947.8438,232.1689 Q948.6875,232.8564 950.1875,232.8564 Q951.0781,232.8564 951.7031,232.6533 Q952.0625,232.5439 952.4688,232.1846 Q952.7344,231.9814 952.875,231.9189 Q953.0156,231.8564 953.1875,231.8564 Q953.5156,231.8564 953.75,232.1221 Q954,232.3721 954,232.7314 Q954,233.0752 953.6563,233.4814 Q953.1563,234.0752 952.3594,234.4033 Q951.3125,234.8564 950.0313,234.8564 Q948.5313,234.8564 947.3281,234.2627 Q946.3594,233.7939 945.6719,232.7783 Q945,231.7627 945,230.5596 L945,229.4658 Q945,228.2158 945.5938,227.1221 Q946.2031,226.0283 947.25,225.4502 Q948.3125,224.8564 949.5,224.8564 Q950.2188,224.8564 950.8438,225.1064 Q951.4688,225.3564 952,225.8564 Z " fill="#000000"/><text fill="#000000" font-family="sans-serif" font-size="14" lengthAdjust="spacing" textLength="37" x="964" y="235.085">Nurse</text><line style="stroke:#181818;stroke-width:0.5;" x1="936" x2="1003" y1="245.3564" y2="245.3564"/><line style="stroke:#181818;stroke-width:0.5;" x1="936" x2="1003" y1="253.3564" y2="253.3564"/></g><!--MD5=[03960189e81aa2c066c762ffabbee709]
class Receptionist--><g id="elem_Receptionist"><rect codeLine="28" fill="#F1F1F1" height="48" id="Receptionist" rx="2.5" ry="2.5" style="stroke:#181818;stroke-width:0.5;" width="110" x="17" y="124.3564"/><ellipse cx="32" cy="140.3564" fill="#ADD1B2" rx="11" ry="11" style="stroke:#181818;stroke-width:1.0;"/><path d="M34,136.8564 Q34.2031,136.3564 34.4375,136.1064 Q34.6719,135.8564 34.9375,135.8564 Q35.4063,135.8564 35.7031,136.1377 Q36,136.4189 36,137.0752 L36,138.6377 Q36,139.2939 35.7188,139.5752 Q35.4375,139.8564 35,139.8564 Q34.6094,139.8564 34.3594,139.6846 Q34.1094,139.5127 34,139.0596 Q33.9531,138.7471 33.7813,138.5752 Q33.4688,138.2471 32.9063,138.0596 Q32.3438,137.8564 31.7813,137.8564 Q31.0781,137.8564 30.4844,138.1377 Q29.9063,138.4189 29.4531,139.0439 Q29,139.6689 29,140.5283 L29,141.4502 Q29,142.4814 29.8438,143.1689 Q30.6875,143.8564 32.1875,143.8564 Q33.0781,143.8564 33.7031,143.6533 Q34.0625,143.5439 34.4688,143.1846 Q34.7344,142.9814 34.875,142.9189 Q35.0156,142.8564 35.1875,142.8564 Q35.5156,142.8564 35.75,143.1221 Q36,143.3721 36,143.7314 Q36,144.0752 35.6563,144.4814 Q35.1563,145.0752 34.3594,145.4033 Q33.3125,145.8564 32.0313,145.8564 Q30.5313,145.8564 29.3281,145.2627 Q28.3594,144.7939 27.6719,143.7783 Q27,142.7627 27,141.5596 L27,140.4658 Q27,139.2158 27.5938,138.1221 Q28.2031,137.0283 29.25,136.4502 Q30.3125,135.8564 31.5,135.8564 Q32.2188,135.8564 32.8438,136.1064 Q33.4688,136.3564 34,136.8564 Z " fill="#000000"/><text fill="#000000" font-family="sans-serif" font-size="14" lengthAdjust="spacing" textLength="78" x="46" y="146.085">Receptionist</text><line style="stroke:#181818;stroke-width:0.5;" x1="18" x2="126" y1="156.3564" y2="156.3564"/><line style="stroke:#181818;stroke-width:0.5;" x1="18" x2="126" y1="164.3564" y2="164.3564"/></g><!--MD5=[2d935fd2dd068a13da1ae531f9857c4f]
class CenterCoordinator--><g id="elem_CenterCoordinator"><rect codeLine="32" fill="#F1F1F1" height="48" id="CenterCoordinator" rx="2.5" ry="2.5" style="stroke:#181818;stroke-width:0.5;" width="150" x="582" y="672.3564"/><ellipse cx="597" cy="688.3564" fill="#ADD1B2" rx="11" ry="11" style="stroke:#181818;stroke-width:1.0;"/><path d="M599,684.8564 Q599.2031,684.3564 599.4375,684.1064 Q599.6719,683.8564 599.9375,683.8564 Q600.4063,683.8564 600.7031,684.1377 Q601,684.4189 601,685.0752 L601,686.6377 Q601,687.2939 600.7188,687.5752 Q600.4375,687.8564 600,687.8564 Q599.6094,687.8564 599.3594,687.6846 Q599.1094,687.5127 599,687.0596 Q598.9531,686.7471 598.7813,686.5752 Q598.4688,686.2471 597.9063,686.0596 Q597.3438,685.8564 596.7813,685.8564 Q596.0781,685.8564 595.4844,686.1377 Q594.9063,686.4189 594.4531,687.0439 Q594,687.6689 594,688.5283 L594,689.4502 Q594,690.4814 594.8438,691.1689 Q595.6875,691.8564 597.1875,691.8564 Q598.0781,691.8564 598.7031,691.6533 Q599.0625,691.5439 599.4688,691.1846 Q599.7344,690.9814 599.875,690.9189 Q600.0156,690.8564 600.1875,690.8564 Q600.5156,690.8564 600.75,691.1221 Q601,691.3721 601,691.7314 Q601,692.0752 600.6563,692.4814 Q600.1563,693.0752 599.3594,693.4033 Q598.3125,693.8564 597.0313,693.8564 Q595.5313,693.8564 594.3281,693.2627 Q593.3594,692.7939 592.6719,691.7783 Q592,690.7627 592,689.5596 L592,688.4658 Q592,687.2158 592.5938,686.1221 Q593.2031,685.0283 594.25,684.4502 Q595.3125,683.8564 596.5,683.8564 Q597.2188,683.8564 597.8438,684.1064 Q598.4688,684.3564 599,684.8564 Z " fill="#000000"/><text fill="#000000" font-family="sans-serif" font-size="14" lengthAdjust="spacing" textLength="118" x="611" y="694.085">CenterCoordinator</text><line style="stroke:#181818;stroke-width:0.5;" x1="583" x2="731" y1="704.3564" y2="704.3564"/><line style="stroke:#181818;stroke-width:0.5;" x1="583" x2="731" y1="712.3564" y2="712.3564"/></g><!--MD5=[4d1d709ea04c932694b424a1dbd905a6]
class VaccinatonCenter--><g id="elem_VaccinatonCenter"><rect codeLine="47" fill="#F1F1F1" height="329.75" id="VaccinatonCenter" rx="2.5" ry="2.5" style="stroke:#181818;stroke-width:0.5;" width="196" x="1801" y="356.3564"/><ellipse cx="1838.95" cy="372.3564" fill="#ADD1B2" rx="11" ry="11" style="stroke:#181818;stroke-width:1.0;"/><path d="M1840.95,368.8564 Q1841.1531,368.3564 1841.3875,368.1064 Q1841.6219,367.8564 1841.8875,367.8564 Q1842.3563,367.8564 1842.6531,368.1377 Q1842.95,368.4189 1842.95,369.0752 L1842.95,370.6377 Q1842.95,371.2939 1842.6688,371.5752 Q1842.3875,371.8564 1841.95,371.8564 Q1841.5594,371.8564 1841.3094,371.6846 Q1841.0594,371.5127 1840.95,371.0596 Q1840.9031,370.7471 1840.7313,370.5752 Q1840.4188,370.2471 1839.8563,370.0596 Q1839.2938,369.8564 1838.7313,369.8564 Q1838.0281,369.8564 1837.4344,370.1377 Q1836.8563,370.4189 1836.4031,371.0439 Q1835.95,371.6689 1835.95,372.5283 L1835.95,373.4502 Q1835.95,374.4814 1836.7938,375.1689 Q1837.6375,375.8564 1839.1375,375.8564 Q1840.0281,375.8564 1840.6531,375.6533 Q1841.0125,375.5439 1841.4188,375.1846 Q1841.6844,374.9814 1841.825,374.9189 Q1841.9656,374.8564 1842.1375,374.8564 Q1842.4656,374.8564 1842.7,375.1221 Q1842.95,375.3721 1842.95,375.7314 Q1842.95,376.0752 1842.6063,376.4814 Q1842.1063,377.0752 1841.3094,377.4033 Q1840.2625,377.8564 1838.9813,377.8564 Q1837.4813,377.8564 1836.2781,377.2627 Q1835.3094,376.7939 1834.6219,375.7783 Q1833.95,374.7627 1833.95,373.5596 L1833.95,372.4658 Q1833.95,371.2158 1834.5438,370.1221 Q1835.1531,369.0283 1836.2,368.4502 Q1837.2625,367.8564 1838.45,367.8564 Q1839.1688,367.8564 1839.7938,368.1064 Q1840.4188,368.3564 1840.95,368.8564 Z " fill="#000000"/><text fill="#000000" font-family="sans-serif" font-size="14" lengthAdjust="spacing" textLength="113" x="1858.05" y="378.085">VaccinatonCenter</text><line style="stroke:#181818;stroke-width:0.5;" x1="1802" x2="1996" y1="388.3564" y2="388.3564"/><text fill="#000000" font-family="sans-serif" font-size="16" font-weight="bold" lengthAdjust="spacing" textLength="40" x="1807" y="408.9658">-intID</text><text fill="#000000" font-family="sans-serif" font-size="16" font-weight="bold" lengthAdjust="spacing" textLength="69" x="1807" y="429.0908">-strName</text><text fill="#000000" font-family="sans-serif" font-size="16" font-weight="bold" lengthAdjust="spacing" textLength="136" x="1807" y="449.2158">-strPhoneNumber</text><text fill="#000000" font-family="sans-serif" font-size="16" font-weight="bold" lengthAdjust="spacing" textLength="67" x="1807" y="469.3408">-strEmail</text><text fill="#000000" font-family="sans-serif" font-size="16" font-weight="bold" lengthAdjust="spacing" textLength="53" x="1807" y="489.4658">-strFax</text><text fill="#000000" font-family="sans-serif" font-size="16" font-weight="bold" lengthAdjust="spacing" textLength="86" x="1807" y="509.5908">-strWebsite</text><text fill="#000000" font-family="sans-serif" font-size="16" font-weight="bold" lengthAdjust="spacing" textLength="128" x="1807" y="529.7158">-strOpeningHour</text><text fill="#000000" font-family="sans-serif" font-size="16" font-weight="bold" lengthAdjust="spacing" textLength="122" x="1807" y="549.8408">-strClosingHour</text><text fill="#000000" font-family="sans-serif" font-size="16" font-weight="bold" lengthAdjust="spacing" textLength="121" x="1807" y="569.9658">-strSlotDuration</text><text fill="#000000" font-family="sans-serif" font-size="16" font-weight="bold" lengthAdjust="spacing" textLength="151" x="1807" y="590.0908">-strVaccinesPerSlot</text><text fill="#000000" font-family="sans-serif" font-size="16" font-weight="bold" lengthAdjust="spacing" textLength="66" x="1807" y="610.2158">-strRoad</text><text fill="#000000" font-family="sans-serif" font-size="16" font-weight="bold" lengthAdjust="spacing" textLength="89" x="1807" y="630.3408">-strZipCode</text><text fill="#000000" font-family="sans-serif" font-size="16" font-weight="bold" lengthAdjust="spacing" textLength="67" x="1807" y="650.4658">-strLocal</text><text fill="#000000" font-family="sans-serif" font-size="16" font-weight="bold" lengthAdjust="spacing" textLength="184" x="1807" y="670.5908">-strCenterCoordinatorID</text><line style="stroke:#181818;stroke-width:0.5;" x1="1802" x2="1996" y1="678.1064" y2="678.1064"/></g><!--MD5=[76480a6701b5d2883bc606a2560c3cfe]
class MassVaccinationCenter--><g id="elem_MassVaccinationCenter"><rect codeLine="64" fill="#F1F1F1" height="48" id="MassVaccinationCenter" rx="2.5" ry="2.5" style="stroke:#181818;stroke-width:0.5;" width="181" x="2058" y="445.3564"/><ellipse cx="2073" cy="461.3564" fill="#ADD1B2" rx="11" ry="11" style="stroke:#181818;stroke-width:1.0;"/><path d="M2075,457.8564 Q2075.2031,457.3564 2075.4375,457.1064 Q2075.6719,456.8564 2075.9375,456.8564 Q2076.4063,456.8564 2076.7031,457.1377 Q2077,457.4189 2077,458.0752 L2077,459.6377 Q2077,460.2939 2076.7188,460.5752 Q2076.4375,460.8564 2076,460.8564 Q2075.6094,460.8564 2075.3594,460.6846 Q2075.1094,460.5127 2075,460.0596 Q2074.9531,459.7471 2074.7813,459.5752 Q2074.4688,459.2471 2073.9063,459.0596 Q2073.3438,458.8564 2072.7813,458.8564 Q2072.0781,458.8564 2071.4844,459.1377 Q2070.9063,459.4189 2070.4531,460.0439 Q2070,460.6689 2070,461.5283 L2070,462.4502 Q2070,463.4814 2070.8438,464.1689 Q2071.6875,464.8564 2073.1875,464.8564 Q2074.0781,464.8564 2074.7031,464.6533 Q2075.0625,464.5439 2075.4688,464.1846 Q2075.7344,463.9814 2075.875,463.9189 Q2076.0156,463.8564 2076.1875,463.8564 Q2076.5156,463.8564 2076.75,464.1221 Q2077,464.3721 2077,464.7314 Q2077,465.0752 2076.6563,465.4814 Q2076.1563,466.0752 2075.3594,466.4033 Q2074.3125,466.8564 2073.0313,466.8564 Q2071.5313,466.8564 2070.3281,466.2627 Q2069.3594,465.7939 2068.6719,464.7783 Q2068,463.7627 2068,462.5596 L2068,461.4658 Q2068,460.2158 2068.5938,459.1221 Q2069.2031,458.0283 2070.25,457.4502 Q2071.3125,456.8564 2072.5,456.8564 Q2073.2188,456.8564 2073.8438,457.1064 Q2074.4688,457.3564 2075,457.8564 Z " fill="#000000"/><text fill="#000000" font-family="sans-serif" font-size="14" lengthAdjust="spacing" textLength="149" x="2087" y="467.085">MassVaccinationCenter</text><line style="stroke:#181818;stroke-width:0.5;" x1="2059" x2="2238" y1="477.3564" y2="477.3564"/><line style="stroke:#181818;stroke-width:0.5;" x1="2059" x2="2238" y1="485.3564" y2="485.3564"/></g><!--MD5=[0b1ce5251ebf137e6b3550dd84e6af65]
class HealthcareCenter--><g id="elem_HealthcareCenter"><rect codeLine="68" fill="#F1F1F1" height="88.25" id="HealthcareCenter" rx="2.5" ry="2.5" style="stroke:#181818;stroke-width:0.5;" width="143" x="2077" y="528.3564"/><ellipse cx="2092" cy="544.3564" fill="#ADD1B2" rx="11" ry="11" style="stroke:#181818;stroke-width:1.0;"/><path d="M2094,540.8564 Q2094.2031,540.3564 2094.4375,540.1064 Q2094.6719,539.8564 2094.9375,539.8564 Q2095.4063,539.8564 2095.7031,540.1377 Q2096,540.4189 2096,541.0752 L2096,542.6377 Q2096,543.2939 2095.7188,543.5752 Q2095.4375,543.8564 2095,543.8564 Q2094.6094,543.8564 2094.3594,543.6846 Q2094.1094,543.5127 2094,543.0596 Q2093.9531,542.7471 2093.7813,542.5752 Q2093.4688,542.2471 2092.9063,542.0596 Q2092.3438,541.8564 2091.7813,541.8564 Q2091.0781,541.8564 2090.4844,542.1377 Q2089.9063,542.4189 2089.4531,543.0439 Q2089,543.6689 2089,544.5283 L2089,545.4502 Q2089,546.4814 2089.8438,547.1689 Q2090.6875,547.8564 2092.1875,547.8564 Q2093.0781,547.8564 2093.7031,547.6533 Q2094.0625,547.5439 2094.4688,547.1846 Q2094.7344,546.9814 2094.875,546.9189 Q2095.0156,546.8564 2095.1875,546.8564 Q2095.5156,546.8564 2095.75,547.1221 Q2096,547.3721 2096,547.7314 Q2096,548.0752 2095.6563,548.4814 Q2095.1563,549.0752 2094.3594,549.4033 Q2093.3125,549.8564 2092.0313,549.8564 Q2090.5313,549.8564 2089.3281,549.2627 Q2088.3594,548.7939 2087.6719,547.7783 Q2087,546.7627 2087,545.5596 L2087,544.4658 Q2087,543.2158 2087.5938,542.1221 Q2088.2031,541.0283 2089.25,540.4502 Q2090.3125,539.8564 2091.5,539.8564 Q2092.2188,539.8564 2092.8438,540.1064 Q2093.4688,540.3564 2094,540.8564 Z " fill="#000000"/><text fill="#000000" font-family="sans-serif" font-size="14" lengthAdjust="spacing" textLength="111" x="2106" y="550.085">HealthcareCenter</text><line style="stroke:#181818;stroke-width:0.5;" x1="2078" x2="2219" y1="560.3564" y2="560.3564"/><text fill="#000000" font-family="sans-serif" font-size="16" font-weight="bold" lengthAdjust="spacing" textLength="39" x="2083" y="580.9658">-ARE</text><text fill="#000000" font-family="sans-serif" font-size="16" font-weight="bold" lengthAdjust="spacing" textLength="50" x="2083" y="601.0908">-AGES</text><line style="stroke:#181818;stroke-width:0.5;" x1="2078" x2="2219" y1="608.6064" y2="608.6064"/></g><!--MD5=[19e445fc4d3b48519cbe33da05496394]
class Vaccine--><g id="elem_Vaccine"><rect codeLine="73" fill="#F1F1F1" height="68.125" id="Vaccine" rx="2.5" ry="2.5" style="stroke:#181818;stroke-width:0.5;" width="82" x="1278.5" y="487.3564"/><ellipse cx="1293.5" cy="503.3564" fill="#ADD1B2" rx="11" ry="11" style="stroke:#181818;stroke-width:1.0;"/><path d="M1295.5,499.8564 Q1295.7031,499.3564 1295.9375,499.1064 Q1296.1719,498.8564 1296.4375,498.8564 Q1296.9063,498.8564 1297.2031,499.1377 Q1297.5,499.4189 1297.5,500.0752 L1297.5,501.6377 Q1297.5,502.2939 1297.2188,502.5752 Q1296.9375,502.8564 1296.5,502.8564 Q1296.1094,502.8564 1295.8594,502.6846 Q1295.6094,502.5127 1295.5,502.0596 Q1295.4531,501.7471 1295.2813,501.5752 Q1294.9688,501.2471 1294.4063,501.0596 Q1293.8438,500.8564 1293.2813,500.8564 Q1292.5781,500.8564 1291.9844,501.1377 Q1291.4063,501.4189 1290.9531,502.0439 Q1290.5,502.6689 1290.5,503.5283 L1290.5,504.4502 Q1290.5,505.4814 1291.3438,506.1689 Q1292.1875,506.8564 1293.6875,506.8564 Q1294.5781,506.8564 1295.2031,506.6533 Q1295.5625,506.5439 1295.9688,506.1846 Q1296.2344,505.9814 1296.375,505.9189 Q1296.5156,505.8564 1296.6875,505.8564 Q1297.0156,505.8564 1297.25,506.1221 Q1297.5,506.3721 1297.5,506.7314 Q1297.5,507.0752 1297.1563,507.4814 Q1296.6563,508.0752 1295.8594,508.4033 Q1294.8125,508.8564 1293.5313,508.8564 Q1292.0313,508.8564 1290.8281,508.2627 Q1289.8594,507.7939 1289.1719,506.7783 Q1288.5,505.7627 1288.5,504.5596 L1288.5,503.4658 Q1288.5,502.2158 1289.0938,501.1221 Q1289.7031,500.0283 1290.75,499.4502 Q1291.8125,498.8564 1293,498.8564 Q1293.7188,498.8564 1294.3438,499.1064 Q1294.9688,499.3564 1295.5,499.8564 Z " fill="#000000"/><text fill="#000000" font-family="sans-serif" font-size="14" lengthAdjust="spacing" textLength="50" x="1307.5" y="509.085">Vaccine</text><line style="stroke:#181818;stroke-width:0.5;" x1="1279.5" x2="1359.5" y1="519.3564" y2="519.3564"/><text fill="#000000" font-family="sans-serif" font-size="16" font-weight="bold" lengthAdjust="spacing" textLength="50" x="1284.5" y="539.9658">-brand</text><line style="stroke:#181818;stroke-width:0.5;" x1="1279.5" x2="1359.5" y1="547.4814" y2="547.4814"/></g><!--MD5=[1a3e15371b673e3affce56c749ee055f]
class DosageScheme--><g id="elem_DosageScheme"><rect codeLine="77" fill="#F1F1F1" height="128.5" id="DosageScheme" rx="2.5" ry="2.5" style="stroke:#181818;stroke-width:0.5;" width="210" x="1495" y="591.3564"/><ellipse cx="1545.75" cy="607.3564" fill="#ADD1B2" rx="11" ry="11" style="stroke:#181818;stroke-width:1.0;"/><path d="M1547.75,603.8564 Q1547.9531,603.3564 1548.1875,603.1064 Q1548.4219,602.8564 1548.6875,602.8564 Q1549.1563,602.8564 1549.4531,603.1377 Q1549.75,603.4189 1549.75,604.0752 L1549.75,605.6377 Q1549.75,606.2939 1549.4688,606.5752 Q1549.1875,606.8564 1548.75,606.8564 Q1548.3594,606.8564 1548.1094,606.6846 Q1547.8594,606.5127 1547.75,606.0596 Q1547.7031,605.7471 1547.5313,605.5752 Q1547.2188,605.2471 1546.6563,605.0596 Q1546.0938,604.8564 1545.5313,604.8564 Q1544.8281,604.8564 1544.2344,605.1377 Q1543.6563,605.4189 1543.2031,606.0439 Q1542.75,606.6689 1542.75,607.5283 L1542.75,608.4502 Q1542.75,609.4814 1543.5938,610.1689 Q1544.4375,610.8564 1545.9375,610.8564 Q1546.8281,610.8564 1547.4531,610.6533 Q1547.8125,610.5439 1548.2188,610.1846 Q1548.4844,609.9814 1548.625,609.9189 Q1548.7656,609.8564 1548.9375,609.8564 Q1549.2656,609.8564 1549.5,610.1221 Q1549.75,610.3721 1549.75,610.7314 Q1549.75,611.0752 1549.4063,611.4814 Q1548.9063,612.0752 1548.1094,612.4033 Q1547.0625,612.8564 1545.7813,612.8564 Q1544.2813,612.8564 1543.0781,612.2627 Q1542.1094,611.7939 1541.4219,610.7783 Q1540.75,609.7627 1540.75,608.5596 L1540.75,607.4658 Q1540.75,606.2158 1541.3438,605.1221 Q1541.9531,604.0283 1543,603.4502 Q1544.0625,602.8564 1545.25,602.8564 Q1545.9688,602.8564 1546.5938,603.1064 Q1547.2188,603.3564 1547.75,603.8564 Z " fill="#000000"/><text fill="#000000" font-family="sans-serif" font-size="14" lengthAdjust="spacing" textLength="100" x="1566.25" y="613.085">DosageScheme</text><line style="stroke:#181818;stroke-width:0.5;" x1="1496" x2="1704" y1="623.3564" y2="623.3564"/><text fill="#000000" font-family="sans-serif" font-size="16" font-weight="bold" lengthAdjust="spacing" textLength="130" x="1501" y="643.9658">-numberOfDoses</text><text fill="#000000" font-family="sans-serif" font-size="16" font-weight="bold" lengthAdjust="spacing" textLength="62" x="1501" y="664.0908">-dosage</text><text fill="#000000" font-family="sans-serif" font-size="16" font-weight="bold" lengthAdjust="spacing" textLength="33" x="1501" y="684.2158">-age</text><text fill="#000000" font-family="sans-serif" font-size="16" font-weight="bold" lengthAdjust="spacing" textLength="198" x="1501" y="704.3408">-intervalBetweenVaccines</text><line style="stroke:#181818;stroke-width:0.5;" x1="1496" x2="1704" y1="711.8564" y2="711.8564"/></g><!--MD5=[ad32b904b2f122cc39e054e9c13e36ab]
class TypeOfVaccine--><g id="elem_TypeOfVaccine"><rect codeLine="84" fill="#F1F1F1" height="68.125" id="TypeOfVaccine" rx="2.5" ry="2.5" style="stroke:#181818;stroke-width:0.5;" width="129" x="905" y="486.3564"/><ellipse cx="920" cy="502.3564" fill="#ADD1B2" rx="11" ry="11" style="stroke:#181818;stroke-width:1.0;"/><path d="M922,498.8564 Q922.2031,498.3564 922.4375,498.1064 Q922.6719,497.8564 922.9375,497.8564 Q923.4063,497.8564 923.7031,498.1377 Q924,498.4189 924,499.0752 L924,500.6377 Q924,501.2939 923.7188,501.5752 Q923.4375,501.8564 923,501.8564 Q922.6094,501.8564 922.3594,501.6846 Q922.1094,501.5127 922,501.0596 Q921.9531,500.7471 921.7813,500.5752 Q921.4688,500.2471 920.9063,500.0596 Q920.3438,499.8564 919.7813,499.8564 Q919.0781,499.8564 918.4844,500.1377 Q917.9063,500.4189 917.4531,501.0439 Q917,501.6689 917,502.5283 L917,503.4502 Q917,504.4814 917.8438,505.1689 Q918.6875,505.8564 920.1875,505.8564 Q921.0781,505.8564 921.7031,505.6533 Q922.0625,505.5439 922.4688,505.1846 Q922.7344,504.9814 922.875,504.9189 Q923.0156,504.8564 923.1875,504.8564 Q923.5156,504.8564 923.75,505.1221 Q924,505.3721 924,505.7314 Q924,506.0752 923.6563,506.4814 Q923.1563,507.0752 922.3594,507.4033 Q921.3125,507.8564 920.0313,507.8564 Q918.5313,507.8564 917.3281,507.2627 Q916.3594,506.7939 915.6719,505.7783 Q915,504.7627 915,503.5596 L915,502.4658 Q915,501.2158 915.5938,500.1221 Q916.2031,499.0283 917.25,498.4502 Q918.3125,497.8564 919.5,497.8564 Q920.2188,497.8564 920.8438,498.1064 Q921.4688,498.3564 922,498.8564 Z " fill="#000000"/><text fill="#000000" font-family="sans-serif" font-size="14" lengthAdjust="spacing" textLength="97" x="934" y="508.085">TypeOfVaccine</text><line style="stroke:#181818;stroke-width:0.5;" x1="906" x2="1033" y1="518.3564" y2="518.3564"/><text fill="#000000" font-family="sans-serif" font-size="16" font-weight="bold" lengthAdjust="spacing" textLength="43" x="911" y="538.9658">-virus</text><line style="stroke:#181818;stroke-width:0.5;" x1="906" x2="1033" y1="546.4814" y2="546.4814"/></g><!--MD5=[80a03012b5333e72487751e45bd40e3d]
class DigitalCertificate--><g id="elem_DigitalCertificate"><rect codeLine="93" fill="#F1F1F1" height="48" id="DigitalCertificate" rx="2.5" ry="2.5" style="stroke:#181818;stroke-width:0.5;" width="135" x="1252" y="392.3564"/><ellipse cx="1267" cy="408.3564" fill="#ADD1B2" rx="11" ry="11" style="stroke:#181818;stroke-width:1.0;"/><path d="M1269,404.8564 Q1269.2031,404.3564 1269.4375,404.1064 Q1269.6719,403.8564 1269.9375,403.8564 Q1270.4063,403.8564 1270.7031,404.1377 Q1271,404.4189 1271,405.0752 L1271,406.6377 Q1271,407.2939 1270.7188,407.5752 Q1270.4375,407.8564 1270,407.8564 Q1269.6094,407.8564 1269.3594,407.6846 Q1269.1094,407.5127 1269,407.0596 Q1268.9531,406.7471 1268.7813,406.5752 Q1268.4688,406.2471 1267.9063,406.0596 Q1267.3438,405.8564 1266.7813,405.8564 Q1266.0781,405.8564 1265.4844,406.1377 Q1264.9063,406.4189 1264.4531,407.0439 Q1264,407.6689 1264,408.5283 L1264,409.4502 Q1264,410.4814 1264.8438,411.1689 Q1265.6875,411.8564 1267.1875,411.8564 Q1268.0781,411.8564 1268.7031,411.6533 Q1269.0625,411.5439 1269.4688,411.1846 Q1269.7344,410.9814 1269.875,410.9189 Q1270.0156,410.8564 1270.1875,410.8564 Q1270.5156,410.8564 1270.75,411.1221 Q1271,411.3721 1271,411.7314 Q1271,412.0752 1270.6563,412.4814 Q1270.1563,413.0752 1269.3594,413.4033 Q1268.3125,413.8564 1267.0313,413.8564 Q1265.5313,413.8564 1264.3281,413.2627 Q1263.3594,412.7939 1262.6719,411.7783 Q1262,410.7627 1262,409.5596 L1262,408.4658 Q1262,407.2158 1262.5938,406.1221 Q1263.2031,405.0283 1264.25,404.4502 Q1265.3125,403.8564 1266.5,403.8564 Q1267.2188,403.8564 1267.8438,404.1064 Q1268.4688,404.3564 1269,404.8564 Z " fill="#000000"/><text fill="#000000" font-family="sans-serif" font-size="14" lengthAdjust="spacing" textLength="103" x="1281" y="414.085">DigitalCertificate</text><line style="stroke:#181818;stroke-width:0.5;" x1="1253" x2="1386" y1="424.3564" y2="424.3564"/><line style="stroke:#181818;stroke-width:0.5;" x1="1253" x2="1386" y1="432.3564" y2="432.3564"/></g><!--MD5=[cf1ec8291adc4f100e491a8c336ca0ac]
class VaccineAppointment--><g id="elem_VaccineAppointment"><rect codeLine="98" fill="#F1F1F1" height="48" id="VaccineAppointment" rx="2.5" ry="2.5" style="stroke:#181818;stroke-width:0.5;" width="161" x="889" y="589.3564"/><ellipse cx="904" cy="605.3564" fill="#ADD1B2" rx="11" ry="11" style="stroke:#181818;stroke-width:1.0;"/><path d="M906,601.8564 Q906.2031,601.3564 906.4375,601.1064 Q906.6719,600.8564 906.9375,600.8564 Q907.4063,600.8564 907.7031,601.1377 Q908,601.4189 908,602.0752 L908,603.6377 Q908,604.2939 907.7188,604.5752 Q907.4375,604.8564 907,604.8564 Q906.6094,604.8564 906.3594,604.6846 Q906.1094,604.5127 906,604.0596 Q905.9531,603.7471 905.7813,603.5752 Q905.4688,603.2471 904.9063,603.0596 Q904.3438,602.8564 903.7813,602.8564 Q903.0781,602.8564 902.4844,603.1377 Q901.9063,603.4189 901.4531,604.0439 Q901,604.6689 901,605.5283 L901,606.4502 Q901,607.4814 901.8438,608.1689 Q902.6875,608.8564 904.1875,608.8564 Q905.0781,608.8564 905.7031,608.6533 Q906.0625,608.5439 906.4688,608.1846 Q906.7344,607.9814 906.875,607.9189 Q907.0156,607.8564 907.1875,607.8564 Q907.5156,607.8564 907.75,608.1221 Q908,608.3721 908,608.7314 Q908,609.0752 907.6563,609.4814 Q907.1563,610.0752 906.3594,610.4033 Q905.3125,610.8564 904.0313,610.8564 Q902.5313,610.8564 901.3281,610.2627 Q900.3594,609.7939 899.6719,608.7783 Q899,607.7627 899,606.5596 L899,605.4658 Q899,604.2158 899.5938,603.1221 Q900.2031,602.0283 901.25,601.4502 Q902.3125,600.8564 903.5,600.8564 Q904.2188,600.8564 904.8438,601.1064 Q905.4688,601.3564 906,601.8564 Z " fill="#000000"/><text fill="#000000" font-family="sans-serif" font-size="14" lengthAdjust="spacing" textLength="129" x="918" y="611.085">VaccineAppointment</text><line style="stroke:#181818;stroke-width:0.5;" x1="890" x2="1049" y1="621.3564" y2="621.3564"/><line style="stroke:#181818;stroke-width:0.5;" x1="890" x2="1049" y1="629.3564" y2="629.3564"/></g><!--MD5=[7cee63e05c54fc7e82ca7f101606cdb1]
class UsersWaitingList--><g id="elem_UsersWaitingList"><rect codeLine="104" fill="#F1F1F1" height="48" id="UsersWaitingList" rx="2.5" ry="2.5" style="stroke:#181818;stroke-width:0.5;" width="137" x="1251" y="63.3564"/><ellipse cx="1266" cy="79.3564" fill="#ADD1B2" rx="11" ry="11" style="stroke:#181818;stroke-width:1.0;"/><path d="M1268,75.8564 Q1268.2031,75.3564 1268.4375,75.1064 Q1268.6719,74.8564 1268.9375,74.8564 Q1269.4063,74.8564 1269.7031,75.1377 Q1270,75.4189 1270,76.0752 L1270,77.6377 Q1270,78.2939 1269.7188,78.5752 Q1269.4375,78.8564 1269,78.8564 Q1268.6094,78.8564 1268.3594,78.6846 Q1268.1094,78.5127 1268,78.0596 Q1267.9531,77.7471 1267.7813,77.5752 Q1267.4688,77.2471 1266.9063,77.0596 Q1266.3438,76.8564 1265.7813,76.8564 Q1265.0781,76.8564 1264.4844,77.1377 Q1263.9063,77.4189 1263.4531,78.0439 Q1263,78.6689 1263,79.5283 L1263,80.4502 Q1263,81.4814 1263.8438,82.1689 Q1264.6875,82.8564 1266.1875,82.8564 Q1267.0781,82.8564 1267.7031,82.6533 Q1268.0625,82.5439 1268.4688,82.1846 Q1268.7344,81.9814 1268.875,81.9189 Q1269.0156,81.8564 1269.1875,81.8564 Q1269.5156,81.8564 1269.75,82.1221 Q1270,82.3721 1270,82.7314 Q1270,83.0752 1269.6563,83.4814 Q1269.1563,84.0752 1268.3594,84.4033 Q1267.3125,84.8564 1266.0313,84.8564 Q1264.5313,84.8564 1263.3281,84.2627 Q1262.3594,83.7939 1261.6719,82.7783 Q1261,81.7627 1261,80.5596 L1261,79.4658 Q1261,78.2158 1261.5938,77.1221 Q1262.2031,76.0283 1263.25,75.4502 Q1264.3125,74.8564 1265.5,74.8564 Q1266.2188,74.8564 1266.8438,75.1064 Q1267.4688,75.3564 1268,75.8564 Z " fill="#000000"/><text fill="#000000" font-family="sans-serif" font-size="14" lengthAdjust="spacing" textLength="105" x="1280" y="85.085">UsersWaitingList</text><line style="stroke:#181818;stroke-width:0.5;" x1="1252" x2="1387" y1="95.3564" y2="95.3564"/><line style="stroke:#181818;stroke-width:0.5;" x1="1252" x2="1387" y1="103.3564" y2="103.3564"/></g><!--MD5=[9e94af7e26ddd61f16675ec5a7d7b75f]
class UserInfo--><g id="elem_UserInfo"><rect codeLine="105" fill="#F1F1F1" height="48" id="UserInfo" rx="2.5" ry="2.5" style="stroke:#181818;stroke-width:0.5;" width="84" x="927.5" y="315.3564"/><ellipse cx="942.5" cy="331.3564" fill="#ADD1B2" rx="11" ry="11" style="stroke:#181818;stroke-width:1.0;"/><path d="M944.5,327.8564 Q944.7031,327.3564 944.9375,327.1064 Q945.1719,326.8564 945.4375,326.8564 Q945.9063,326.8564 946.2031,327.1377 Q946.5,327.4189 946.5,328.0752 L946.5,329.6377 Q946.5,330.2939 946.2188,330.5752 Q945.9375,330.8564 945.5,330.8564 Q945.1094,330.8564 944.8594,330.6846 Q944.6094,330.5127 944.5,330.0596 Q944.4531,329.7471 944.2813,329.5752 Q943.9688,329.2471 943.4063,329.0596 Q942.8438,328.8564 942.2813,328.8564 Q941.5781,328.8564 940.9844,329.1377 Q940.4063,329.4189 939.9531,330.0439 Q939.5,330.6689 939.5,331.5283 L939.5,332.4502 Q939.5,333.4814 940.3438,334.1689 Q941.1875,334.8564 942.6875,334.8564 Q943.5781,334.8564 944.2031,334.6533 Q944.5625,334.5439 944.9688,334.1846 Q945.2344,333.9814 945.375,333.9189 Q945.5156,333.8564 945.6875,333.8564 Q946.0156,333.8564 946.25,334.1221 Q946.5,334.3721 946.5,334.7314 Q946.5,335.0752 946.1563,335.4814 Q945.6563,336.0752 944.8594,336.4033 Q943.8125,336.8564 942.5313,336.8564 Q941.0313,336.8564 939.8281,336.2627 Q938.8594,335.7939 938.1719,334.7783 Q937.5,333.7627 937.5,332.5596 L937.5,331.4658 Q937.5,330.2158 938.0938,329.1221 Q938.7031,328.0283 939.75,327.4502 Q940.8125,326.8564 942,326.8564 Q942.7188,326.8564 943.3438,327.1064 Q943.9688,327.3564 944.5,327.8564 Z " fill="#000000"/><text fill="#000000" font-family="sans-serif" font-size="14" lengthAdjust="spacing" textLength="52" x="956.5" y="337.085">UserInfo</text><line style="stroke:#181818;stroke-width:0.5;" x1="928.5" x2="1010.5" y1="347.3564" y2="347.3564"/><line style="stroke:#181818;stroke-width:0.5;" x1="928.5" x2="1010.5" y1="355.3564" y2="355.3564"/></g><!--MD5=[0a6389d85244b33bdfdb792108db6bc1]
class GivenVaccine--><g id="elem_GivenVaccine"><rect codeLine="116" fill="#F1F1F1" height="48" id="GivenVaccine" rx="2.5" ry="2.5" style="stroke:#181818;stroke-width:0.5;" width="119" x="597.5" y="94.3564"/><ellipse cx="612.5" cy="110.3564" fill="#ADD1B2" rx="11" ry="11" style="stroke:#181818;stroke-width:1.0;"/><path d="M614.5,106.8564 Q614.7031,106.3564 614.9375,106.1064 Q615.1719,105.8564 615.4375,105.8564 Q615.9063,105.8564 616.2031,106.1377 Q616.5,106.4189 616.5,107.0752 L616.5,108.6377 Q616.5,109.2939 616.2188,109.5752 Q615.9375,109.8564 615.5,109.8564 Q615.1094,109.8564 614.8594,109.6846 Q614.6094,109.5127 614.5,109.0596 Q614.4531,108.7471 614.2813,108.5752 Q613.9688,108.2471 613.4063,108.0596 Q612.8438,107.8564 612.2813,107.8564 Q611.5781,107.8564 610.9844,108.1377 Q610.4063,108.4189 609.9531,109.0439 Q609.5,109.6689 609.5,110.5283 L609.5,111.4502 Q609.5,112.4814 610.3438,113.1689 Q611.1875,113.8564 612.6875,113.8564 Q613.5781,113.8564 614.2031,113.6533 Q614.5625,113.5439 614.9688,113.1846 Q615.2344,112.9814 615.375,112.9189 Q615.5156,112.8564 615.6875,112.8564 Q616.0156,112.8564 616.25,113.1221 Q616.5,113.3721 616.5,113.7314 Q616.5,114.0752 616.1563,114.4814 Q615.6563,115.0752 614.8594,115.4033 Q613.8125,115.8564 612.5313,115.8564 Q611.0313,115.8564 609.8281,115.2627 Q608.8594,114.7939 608.1719,113.7783 Q607.5,112.7627 607.5,111.5596 L607.5,110.4658 Q607.5,109.2158 608.0938,108.1221 Q608.7031,107.0283 609.75,106.4502 Q610.8125,105.8564 612,105.8564 Q612.7188,105.8564 613.3438,106.1064 Q613.9688,106.3564 614.5,106.8564 Z " fill="#000000"/><text fill="#000000" font-family="sans-serif" font-size="14" lengthAdjust="spacing" textLength="87" x="626.5" y="116.085">GivenVaccine</text><line style="stroke:#181818;stroke-width:0.5;" x1="598.5" x2="715.5" y1="126.3564" y2="126.3564"/><line style="stroke:#181818;stroke-width:0.5;" x1="598.5" x2="715.5" y1="134.3564" y2="134.3564"/></g><!--MD5=[605056f3b750e89e8a7ae3805405579b]
class AdverseReactions--><g id="elem_AdverseReactions"><rect codeLine="117" fill="#F1F1F1" height="48" id="AdverseReactions" rx="2.5" ry="2.5" style="stroke:#181818;stroke-width:0.5;" width="147" x="583.5" y="216.3564"/><ellipse cx="598.5" cy="232.3564" fill="#ADD1B2" rx="11" ry="11" style="stroke:#181818;stroke-width:1.0;"/><path d="M600.5,228.8564 Q600.7031,228.3564 600.9375,228.1064 Q601.1719,227.8564 601.4375,227.8564 Q601.9063,227.8564 602.2031,228.1377 Q602.5,228.4189 602.5,229.0752 L602.5,230.6377 Q602.5,231.2939 602.2188,231.5752 Q601.9375,231.8564 601.5,231.8564 Q601.1094,231.8564 600.8594,231.6846 Q600.6094,231.5127 600.5,231.0596 Q600.4531,230.7471 600.2813,230.5752 Q599.9688,230.2471 599.4063,230.0596 Q598.8438,229.8564 598.2813,229.8564 Q597.5781,229.8564 596.9844,230.1377 Q596.4063,230.4189 595.9531,231.0439 Q595.5,231.6689 595.5,232.5283 L595.5,233.4502 Q595.5,234.4814 596.3438,235.1689 Q597.1875,235.8564 598.6875,235.8564 Q599.5781,235.8564 600.2031,235.6533 Q600.5625,235.5439 600.9688,235.1846 Q601.2344,234.9814 601.375,234.9189 Q601.5156,234.8564 601.6875,234.8564 Q602.0156,234.8564 602.25,235.1221 Q602.5,235.3721 602.5,235.7314 Q602.5,236.0752 602.1563,236.4814 Q601.6563,237.0752 600.8594,237.4033 Q599.8125,237.8564 598.5313,237.8564 Q597.0313,237.8564 595.8281,237.2627 Q594.8594,236.7939 594.1719,235.7783 Q593.5,234.7627 593.5,233.5596 L593.5,232.4658 Q593.5,231.2158 594.0938,230.1221 Q594.7031,229.0283 595.75,228.4502 Q596.8125,227.8564 598,227.8564 Q598.7188,227.8564 599.3438,228.1064 Q599.9688,228.3564 600.5,228.8564 Z " fill="#000000"/><text fill="#000000" font-family="sans-serif" font-size="14" lengthAdjust="spacing" textLength="115" x="612.5" y="238.085">AdverseReactions</text><line style="stroke:#181818;stroke-width:0.5;" x1="584.5" x2="729.5" y1="248.3564" y2="248.3564"/><line style="stroke:#181818;stroke-width:0.5;" x1="584.5" x2="729.5" y1="256.3564" y2="256.3564"/></g><ellipse cx="657" cy="179.3564" fill="#000000" rx="2" ry="2" style="stroke:none;stroke-width:1.0;"/><!--MD5=[944ecf1b0032c0733312c6ea9b33e13a]
class ManageVaccinationProcess--><g id="elem_ManageVaccinationProcess"><rect codeLine="123" fill="#F1F1F1" height="48" id="ManageVaccinationProcess" rx="2.5" ry="2.5" style="stroke:#181818;stroke-width:0.5;" width="207" x="866" y="672.3564"/><ellipse cx="881" cy="688.3564" fill="#ADD1B2" rx="11" ry="11" style="stroke:#181818;stroke-width:1.0;"/><path d="M883,684.8564 Q883.2031,684.3564 883.4375,684.1064 Q883.6719,683.8564 883.9375,683.8564 Q884.4063,683.8564 884.7031,684.1377 Q885,684.4189 885,685.0752 L885,686.6377 Q885,687.2939 884.7188,687.5752 Q884.4375,687.8564 884,687.8564 Q883.6094,687.8564 883.3594,687.6846 Q883.1094,687.5127 883,687.0596 Q882.9531,686.7471 882.7813,686.5752 Q882.4688,686.2471 881.9063,686.0596 Q881.3438,685.8564 880.7813,685.8564 Q880.0781,685.8564 879.4844,686.1377 Q878.9063,686.4189 878.4531,687.0439 Q878,687.6689 878,688.5283 L878,689.4502 Q878,690.4814 878.8438,691.1689 Q879.6875,691.8564 881.1875,691.8564 Q882.0781,691.8564 882.7031,691.6533 Q883.0625,691.5439 883.4688,691.1846 Q883.7344,690.9814 883.875,690.9189 Q884.0156,690.8564 884.1875,690.8564 Q884.5156,690.8564 884.75,691.1221 Q885,691.3721 885,691.7314 Q885,692.0752 884.6563,692.4814 Q884.1563,693.0752 883.3594,693.4033 Q882.3125,693.8564 881.0313,693.8564 Q879.5313,693.8564 878.3281,693.2627 Q877.3594,692.7939 876.6719,691.7783 Q876,690.7627 876,689.5596 L876,688.4658 Q876,687.2158 876.5938,686.1221 Q877.2031,685.0283 878.25,684.4502 Q879.3125,683.8564 880.5,683.8564 Q881.2188,683.8564 881.8438,684.1064 Q882.4688,684.3564 883,684.8564 Z " fill="#000000"/><text fill="#000000" font-family="sans-serif" font-size="14" lengthAdjust="spacing" textLength="175" x="895" y="694.085">ManageVaccinationProcess</text><line style="stroke:#181818;stroke-width:0.5;" x1="867" x2="1072" y1="704.3564" y2="704.3564"/><line style="stroke:#181818;stroke-width:0.5;" x1="867" x2="1072" y1="712.3564" y2="712.3564"/></g><!--MD5=[0b4e4b4980470ea387cc45de9bd14b5b]
class Application--><g id="elem_Application"><rect codeLine="128" fill="#F1F1F1" height="48" id="Application" rx="2.5" ry="2.5" style="stroke:#181818;stroke-width:0.5;" width="101" x="198" y="371.3564"/><ellipse cx="213" cy="387.3564" fill="#ADD1B2" rx="11" ry="11" style="stroke:#181818;stroke-width:1.0;"/><path d="M215,383.8564 Q215.2031,383.3564 215.4375,383.1064 Q215.6719,382.8564 215.9375,382.8564 Q216.4063,382.8564 216.7031,383.1377 Q217,383.4189 217,384.0752 L217,385.6377 Q217,386.2939 216.7188,386.5752 Q216.4375,386.8564 216,386.8564 Q215.6094,386.8564 215.3594,386.6846 Q215.1094,386.5127 215,386.0596 Q214.9531,385.7471 214.7813,385.5752 Q214.4688,385.2471 213.9063,385.0596 Q213.3438,384.8564 212.7813,384.8564 Q212.0781,384.8564 211.4844,385.1377 Q210.9063,385.4189 210.4531,386.0439 Q210,386.6689 210,387.5283 L210,388.4502 Q210,389.4814 210.8438,390.1689 Q211.6875,390.8564 213.1875,390.8564 Q214.0781,390.8564 214.7031,390.6533 Q215.0625,390.5439 215.4688,390.1846 Q215.7344,389.9814 215.875,389.9189 Q216.0156,389.8564 216.1875,389.8564 Q216.5156,389.8564 216.75,390.1221 Q217,390.3721 217,390.7314 Q217,391.0752 216.6563,391.4814 Q216.1563,392.0752 215.3594,392.4033 Q214.3125,392.8564 213.0313,392.8564 Q211.5313,392.8564 210.3281,392.2627 Q209.3594,391.7939 208.6719,390.7783 Q208,389.7627 208,388.5596 L208,387.4658 Q208,386.2158 208.5938,385.1221 Q209.2031,384.0283 210.25,383.4502 Q211.3125,382.8564 212.5,382.8564 Q213.2188,382.8564 213.8438,383.1064 Q214.4688,383.3564 215,383.8564 Z " fill="#000000"/><text fill="#000000" font-family="sans-serif" font-size="14" lengthAdjust="spacing" textLength="69" x="227" y="393.085">Application</text><line style="stroke:#181818;stroke-width:0.5;" x1="199" x2="298" y1="403.3564" y2="403.3564"/><line style="stroke:#181818;stroke-width:0.5;" x1="199" x2="298" y1="411.3564" y2="411.3564"/></g><!--MD5=[a13ca6a63a04f520383aacb00972fb48]
class EntriesAndExitsList--><g id="elem_EntriesAndExitsList"><rect codeLine="129" fill="#F1F1F1" height="48" id="EntriesAndExitsList" rx="2.5" ry="2.5" style="stroke:#181818;stroke-width:0.5;" width="152" x="1524" y="420.3564"/><ellipse cx="1539" cy="436.3564" fill="#ADD1B2" rx="11" ry="11" style="stroke:#181818;stroke-width:1.0;"/><path d="M1541,432.8564 Q1541.2031,432.3564 1541.4375,432.1064 Q1541.6719,431.8564 1541.9375,431.8564 Q1542.4063,431.8564 1542.7031,432.1377 Q1543,432.4189 1543,433.0752 L1543,434.6377 Q1543,435.2939 1542.7188,435.5752 Q1542.4375,435.8564 1542,435.8564 Q1541.6094,435.8564 1541.3594,435.6846 Q1541.1094,435.5127 1541,435.0596 Q1540.9531,434.7471 1540.7813,434.5752 Q1540.4688,434.2471 1539.9063,434.0596 Q1539.3438,433.8564 1538.7813,433.8564 Q1538.0781,433.8564 1537.4844,434.1377 Q1536.9063,434.4189 1536.4531,435.0439 Q1536,435.6689 1536,436.5283 L1536,437.4502 Q1536,438.4814 1536.8438,439.1689 Q1537.6875,439.8564 1539.1875,439.8564 Q1540.0781,439.8564 1540.7031,439.6533 Q1541.0625,439.5439 1541.4688,439.1846 Q1541.7344,438.9814 1541.875,438.9189 Q1542.0156,438.8564 1542.1875,438.8564 Q1542.5156,438.8564 1542.75,439.1221 Q1543,439.3721 1543,439.7314 Q1543,440.0752 1542.6563,440.4814 Q1542.1563,441.0752 1541.3594,441.4033 Q1540.3125,441.8564 1539.0313,441.8564 Q1537.5313,441.8564 1536.3281,441.2627 Q1535.3594,440.7939 1534.6719,439.7783 Q1534,438.7627 1534,437.5596 L1534,436.4658 Q1534,435.2158 1534.5938,434.1221 Q1535.2031,433.0283 1536.25,432.4502 Q1537.3125,431.8564 1538.5,431.8564 Q1539.2188,431.8564 1539.8438,432.1064 Q1540.4688,432.3564 1541,432.8564 Z " fill="#000000"/><text fill="#000000" font-family="sans-serif" font-size="14" lengthAdjust="spacing" textLength="120" x="1553" y="442.085">EntriesAndExitsList</text><line style="stroke:#181818;stroke-width:0.5;" x1="1525" x2="1675" y1="452.3564" y2="452.3564"/><line style="stroke:#181818;stroke-width:0.5;" x1="1525" x2="1675" y1="460.3564" y2="460.3564"/></g><!--MD5=[ae7cf994a8037bd5ae694a195d04bab2]
reverse link ApplicationUser to SnsUser--><g id="link_ApplicationUser_SnsUser"><path codeLine="19" d="M156.73,426.8264 C170.35,430.7764 184.44,434.1864 198,436.3564 C353.36,461.1864 395.38,451.2764 552,436.3564 C562.71,435.3364 573.95,433.7364 584.93,431.8764 " fill="none" id="ApplicationUser-backto-SnsUser" style="stroke:#181818;stroke-width:1.0;"/><polygon fill="none" points="154.23,433.3764,137.23,420.7364,158.41,420.0164,154.23,433.3764" style="stroke:#181818;stroke-width:1.0;"/></g><!--MD5=[ec2784183dc102bb556cb27e2698cd6b]
reverse link ApplicationUser to Nurse--><g id="link_ApplicationUser_Nurse"><path codeLine="20" d="M156.3,364.9264 C170.1,360.5964 184.36,356.5364 198,353.3564 C431.22,298.9764 495.54,319.2664 732,281.3564 C804.58,269.7164 889.14,253.2864 934.91,244.1564 " fill="none" id="ApplicationUser-backto-Nurse" style="stroke:#181818;stroke-width:1.0;"/><polygon fill="none" points="158.39,371.6164,137.2,371.1864,154.03,358.3064,158.39,371.6164" style="stroke:#181818;stroke-width:1.0;"/></g><!--MD5=[1a9788758f9842fd4535ce3f0d98786a]
link Receptionist to ApplicationUser--><g id="link_Receptionist_ApplicationUser"><path codeLine="21" d="M72,172.6364 C72,218.7864 72,264.9264 72,311.0664 " fill="none" id="Receptionist-to-ApplicationUser" style="stroke:#181818;stroke-width:1.0;"/><polygon fill="none" points="79,311.1964,72,331.1964,65,311.1964,79,311.1964" style="stroke:#181818;stroke-width:1.0;"/></g><!--MD5=[66b8b66cc0d48364d094f14c216c75e8]
reverse link ApplicationUser to Administrator--><g id="link_ApplicationUser_Administrator"><path codeLine="22" d="M72,479.6564 C72,484.5464 72,489.4364 72,494.3364 " fill="none" id="ApplicationUser-backto-Administrator" style="stroke:#181818;stroke-width:1.0;"/><polygon fill="none" points="65,479.5364,72,459.5364,79,479.5364,65,479.5364" style="stroke:#181818;stroke-width:1.0;"/></g><!--MD5=[80d9ae4771b252b6d25b56fdcc7914a1]
reverse link ApplicationUser to CenterCoordinator--><g id="link_ApplicationUser_CenterCoordinator"><path codeLine="23" d="M154.92,437.6464 C278.99,501.7064 510.53,621.2464 609.35,672.2764 " fill="none" id="ApplicationUser-backto-CenterCoordinator" style="stroke:#181818;stroke-width:1.0;"/><polygon fill="none" points="151.62,443.8264,137.06,428.4264,158.04,431.3864,151.62,443.8264" style="stroke:#181818;stroke-width:1.0;"/></g><!--MD5=[a69f9571a60c92edbe9996b131c0a798]
reverse link VaccinatonCenter to MassVaccinationCenter--><g id="link_VaccinatonCenter_MassVaccinationCenter"><path d="M2017.08,496.7564 C2030.81,493.8764 2044.66,490.9664 2057.93,488.1764 " fill="none" id="VaccinatonCenter-backto-MassVaccinationCenter" style="stroke:#181818;stroke-width:1.0;"/><polygon fill="none" points="2018.12,503.6964,1997.11,500.9564,2015.24,489.9864,2018.12,503.6964" style="stroke:#181818;stroke-width:1.0;"/></g><!--MD5=[035b9cfd2c46d00ea6ea4e2ba6f148e6]
reverse link VaccinatonCenter to HealthcareCenter--><g id="link_VaccinatonCenter_HealthcareCenter"><path d="M2016.94,545.4564 C2037.35,549.6564 2058.01,553.9164 2076.69,557.7664 " fill="none" id="VaccinatonCenter-backto-HealthcareCenter" style="stroke:#181818;stroke-width:1.0;"/><polygon fill="none" points="2015.28,552.2564,1997.11,541.3664,2018.11,538.5464,2015.28,552.2564" style="stroke:#181818;stroke-width:1.0;"/></g><!--MD5=[a5b46689cc8857272cca60e04b4c2b59]
link Vaccine to DosageScheme--><g id="link_Vaccine_DosageScheme"><path codeLine="89" d="M1360.7,540.6964 C1395.72,557.5464 1448.08,582.7364 1494.8,605.2164 " fill="none" id="Vaccine-DosageScheme" style="stroke:#181818;stroke-width:1.0;"/><polygon fill="#000000" points="1427.5056,562.7,1420.6291,556.1301,1418.0807,561.4268,1427.5056,562.7" style="stroke:#000000;stroke-width:1.0;"/><text fill="#000000" font-family="sans-serif" font-size="13" lengthAdjust="spacing" textLength="32" x="1432" y="565.8516">has a</text><text fill="#000000" font-family="sans-serif" font-size="13" lengthAdjust="spacing" textLength="7" x="1368.3828" y="558.9101">1</text><text fill="#000000" font-family="sans-serif" font-size="13" lengthAdjust="spacing" textLength="7" x="1480.157" y="615.7434">1</text></g><!--MD5=[2de32f8dee38664ec07413075ed961c1]
link TypeOfVaccine to Vaccine--><g id="link_TypeOfVaccine_Vaccine"><path codeLine="90" d="M1034.33,520.5364 C1105.56,520.7464 1218.63,521.0664 1278.4,521.2364 " fill="none" id="TypeOfVaccine-Vaccine" style="stroke:#181818;stroke-width:1.0;"/><polygon fill="#000000" points="1142.5,512.5179,1151.5366,515.4827,1151.5535,509.6049,1142.5,512.5179" style="stroke:#000000;stroke-width:1.0;"/><text fill="#000000" font-family="sans-serif" font-size="13" lengthAdjust="spacing" textLength="24" x="1156.5" y="517.8516">is of</text><text fill="#000000" font-family="sans-serif" font-size="13" lengthAdjust="spacing" textLength="5" x="1042.115" y="534.9905">*</text><text fill="#000000" font-family="sans-serif" font-size="13" lengthAdjust="spacing" textLength="7" x="1263.4556" y="517.3054">1</text></g><!--MD5=[1f0ff94e73a393eecd3e5d6f2d296bab]
link Vaccine to VaccinatonCenter--><g id="link_Vaccine_VaccinatonCenter"><path codeLine="91" d="M1360.65,521.3564 C1450.94,521.3564 1672.16,521.3564 1800.84,521.3564 " fill="none" id="Vaccine-VaccinatonCenter" style="stroke:#181818;stroke-width:1.0;"/><polygon fill="#000000" points="1549.5,512.5322,1540.4549,509.5933,1540.4549,515.4712,1549.5,512.5322" style="stroke:#000000;stroke-width:1.0;"/><text fill="#000000" font-family="sans-serif" font-size="13" lengthAdjust="spacing" textLength="106" x="1553.5" y="517.8516">is administered on</text><text fill="#000000" font-family="sans-serif" font-size="13" lengthAdjust="spacing" textLength="5" x="1368.4252" y="536.2967">*</text><text fill="#000000" font-family="sans-serif" font-size="13" lengthAdjust="spacing" textLength="7" x="1786.0567" y="535.4871">1</text></g><!--MD5=[894f32e3bda40c7272620a3388816726]
link SnsUser to DigitalCertificate--><g id="link_SnsUser_DigitalCertificate"><path codeLine="96" d="M729.31,416.3564 C857.91,416.3564 1126.87,416.3564 1251.92,416.3564 " fill="none" id="SnsUser-DigitalCertificate" style="stroke:#181818;stroke-width:1.0;"/><polygon fill="#000000" points="947,407.5322,937.9549,404.5933,937.9549,410.4712,947,407.5322" style="stroke:#000000;stroke-width:1.0;"/><text fill="#000000" font-family="sans-serif" font-size="13" lengthAdjust="spacing" textLength="50" x="951" y="412.8516">requests</text><text fill="#000000" font-family="sans-serif" font-size="13" lengthAdjust="spacing" textLength="7" x="737.1279" y="430.6882">1</text><text fill="#000000" font-family="sans-serif" font-size="13" lengthAdjust="spacing" textLength="7" x="1237.1456" y="430.7458">1</text></g><!--MD5=[cc5e2fb97d9f5c96dda5e8bbfd01385e]
link SnsUser to VaccineAppointment--><g id="link_SnsUser_VaccineAppointment"><path codeLine="100" d="M697.35,450.4364 C737.71,484.2064 803.28,535.8864 866,571.3564 C877.55,577.8864 890.32,583.9464 902.81,589.3164 " fill="none" id="SnsUser-VaccineAppointment" style="stroke:#181818;stroke-width:1.0;"/><polygon fill="#000000" points="771.1424,499.3323,765.2945,491.8321,762.0029,496.7018,771.1424,499.3323" style="stroke:#000000;stroke-width:1.0;"/><text fill="#000000" font-family="sans-serif" font-size="13" lengthAdjust="spacing" textLength="59" x="776" y="501.8516">schedules</text><text fill="#000000" font-family="sans-serif" font-size="13" lengthAdjust="spacing" textLength="7" x="697.3745" y="471.9747">1</text><text fill="#000000" font-family="sans-serif" font-size="13" lengthAdjust="spacing" textLength="5" x="880.0801" y="578.6464">*</text></g><!--MD5=[ead49c6eb232874c9bfdd14aaf3032df]
link Receptionist to UsersWaitingList--><g id="link_Receptionist_UsersWaitingList"><path codeLine="107" d="M90.65,124.1564 C119.21,88.0664 179.3,24.3564 247.5,24.3564 C247.5,24.3564 247.5,24.3564 970.5,24.3564 C1069.2,24.3564 1181.16,49.1964 1250.81,67.6864 " fill="none" id="Receptionist-UsersWaitingList" style="stroke:#181818;stroke-width:1.0;"/><polygon fill="#000000" points="633.4941,15.2891,624.3168,12.7934,624.6026,18.6643,633.4941,15.2891" style="stroke:#000000;stroke-width:1.0;"/><text fill="#000000" font-family="sans-serif" font-size="13" lengthAdjust="spacing" textLength="52" x="637.5" y="20.8516">atualizes</text><text fill="#000000" font-family="sans-serif" font-size="13" lengthAdjust="spacing" textLength="5" x="89.7884" y="113.4454">*</text><text fill="#000000" font-family="sans-serif" font-size="13" lengthAdjust="spacing" textLength="7" x="1235.9142" y="79.9244">1</text></g><!--MD5=[a130e805f12c6caaf0787465d0f0d87e]
link Nurse to UsersWaitingList--><g id="link_Nurse_UsersWaitingList"><path codeLine="108" d="M1004.18,222.8364 C1064.06,197.0264 1189.56,142.9364 1262.57,111.4664 " fill="none" id="Nurse-UsersWaitingList" style="stroke:#181818;stroke-width:1.0;"/><polygon fill="#000000" points="1143.0917,121.5532,1133.622,122.4344,1135.9485,127.8322,1143.0917,121.5532" style="stroke:#000000;stroke-width:1.0;"/><text fill="#000000" font-family="sans-serif" font-size="13" lengthAdjust="spacing" textLength="42" x="1147.5" y="128.8516">checks</text><text fill="#000000" font-family="sans-serif" font-size="13" lengthAdjust="spacing" textLength="5" x="1011.8484" y="235.0231">*</text><text fill="#000000" font-family="sans-serif" font-size="13" lengthAdjust="spacing" textLength="7" x="1240.8402" y="132.8312">1</text></g><!--MD5=[49bdc4f43c0486f86f6744f0a65b0571]
link Nurse to Vaccine--><g id="link_Nurse_Vaccine"><path codeLine="109" d="M1004.39,254.8464 C1024.92,266.0064 1051.25,281.3464 1073,297.3564 C1095.01,313.5664 1218.96,428.5164 1281.86,487.1464 " fill="none" id="Nurse-Vaccine" style="stroke:#181818;stroke-width:1.0;"/><polygon fill="#000000" points="1129.8338,319.7419,1124.785,311.6821,1121.0118,316.189,1129.8338,319.7419" style="stroke:#000000;stroke-width:1.0;"/><text fill="#000000" font-family="sans-serif" font-size="13" lengthAdjust="spacing" textLength="67" x="1135" y="321.8516">administers</text><text fill="#000000" font-family="sans-serif" font-size="13" lengthAdjust="spacing" textLength="7" x="1011.948" y="273.3945">1</text><text fill="#000000" font-family="sans-serif" font-size="13" lengthAdjust="spacing" textLength="5" x="1269.2083" y="476.6169">*</text></g><!--MD5=[48c1753546dc4329f6549ad52774066c]
link SnsUser to UserInfo--><g id="link_SnsUser_UserInfo"><path codeLine="110" d="M729.23,398.6864 C790.47,383.5064 876.65,362.1364 927.14,349.6164 " fill="none" id="SnsUser-UserInfo" style="stroke:#181818;stroke-width:1.0;"/><polygon fill="#000000" points="790.8531,363.329,781.3665,362.6531,782.7811,368.3582,790.8531,363.329" style="stroke:#000000;stroke-width:1.0;"/><text fill="#000000" font-family="sans-serif" font-size="13" lengthAdjust="spacing" textLength="21" x="795" y="369.8516">has</text><text fill="#000000" font-family="sans-serif" font-size="13" lengthAdjust="spacing" textLength="7" x="737.0397" y="411.196">1</text><text fill="#000000" font-family="sans-serif" font-size="13" lengthAdjust="spacing" textLength="5" x="914.4297" y="366.2802">*</text></g><!--MD5=[9b0c14efdfd619ef9690e32cbb0c164f]
link VaccineAppointment to Vaccine--><g id="link_VaccineAppointment_Vaccine"><path codeLine="111" d="M1050.05,592.4564 C1099.3,579.5064 1163.83,562.5064 1221,547.3564 C1239.8,542.3764 1260.62,536.8264 1278.19,532.1364 " fill="none" id="VaccineAppointment-Vaccine" style="stroke:#181818;stroke-width:1.0;"/><polygon fill="#000000" points="1112.8339,537.2541,1103.3381,536.7249,1104.8405,542.4075,1112.8339,537.2541" style="stroke:#000000;stroke-width:1.0;"/><text fill="#000000" font-family="sans-serif" font-size="13" lengthAdjust="spacing" textLength="103" x="1117" y="543.8516">is associated to a</text><text fill="#000000" font-family="sans-serif" font-size="13" lengthAdjust="spacing" textLength="7" x="1058.061" y="604.7388">1</text><text fill="#000000" font-family="sans-serif" font-size="13" lengthAdjust="spacing" textLength="7" x="1263.4883" y="548.8788">1</text></g><!--MD5=[aa8f9bea7731573b1173c8a60b7df795]
link GivenVaccine to apoint7943--><g id="link_GivenVaccine_apoint7943"><path d="M657,142.6264 C657,154.0764 657,165.5264 657,176.9764 " fill="none" id="GivenVaccine-apoint7943" style="stroke:#181818;stroke-width:1.0;"/><text fill="#000000" font-family="sans-serif" font-size="13" lengthAdjust="spacing" textLength="5" x="651.3906" y="164.0302">*</text></g><!--MD5=[bde1920c93fccd6dbc316be0f6fb3b48]
link apoint7943 to AdverseReactions--><g id="link_apoint7943_AdverseReactions"><path d="M657,181.3664 C657,192.9264 657,204.4864 657,216.0564 " fill="none" id="apoint7943-AdverseReactions" style="stroke:#181818;stroke-width:1.0;"/><text fill="#000000" font-family="sans-serif" font-size="13" lengthAdjust="spacing" textLength="5" x="651.3594" y="205.3197">*</text></g><!--MD5=[d2393443811fab3af1d0753d1af25a9e]
link apoint7943 to Nurse--><g id="link_apoint7943_Nurse"><path d="M659.12,179.5664 C675.14,182.5564 858.06,216.7264 934.87,231.0764 " fill="none" id="apoint7943-Nurse" style="stroke:#181818;stroke-width:1.0;"/><text fill="#000000" font-family="sans-serif" font-size="13" lengthAdjust="spacing" textLength="50" x="774" y="196.8516">registers</text></g><!--MD5=[4b713ec73cfc330ec36738f439ccab33]
link CenterCoordinator to ManageVaccinationProcess--><g id="link_CenterCoordinator_ManageVaccinationProcess"><path codeLine="125" d="M732.37,696.3564 C772.38,696.3564 822.33,696.3564 865.98,696.3564 " fill="none" id="CenterCoordinator-ManageVaccinationProcess" style="stroke:#181818;stroke-width:1.0;"/><polygon fill="#000000" points="783.5,687.5322,774.4549,684.5933,774.4549,690.4712,783.5,687.5322" style="stroke:#000000;stroke-width:1.0;"/><text fill="#000000" font-family="sans-serif" font-size="13" lengthAdjust="spacing" textLength="36" x="787.5" y="692.8516">has to</text><text fill="#000000" font-family="sans-serif" font-size="13" lengthAdjust="spacing" textLength="7" x="739.8873" y="710.6308">1</text><text fill="#000000" font-family="sans-serif" font-size="13" lengthAdjust="spacing" textLength="7" x="851.1207" y="710.452">1</text></g><!--MD5=[87f7b597003eab4c55f1d6168582c2a5]
link CenterCoordinator to VaccinatonCenter--><g id="link_CenterCoordinator_VaccinatonCenter"><path codeLine="126" d="M717.89,720.4064 C779.64,742.9964 879.22,773.3564 968.5,773.3564 C968.5,773.3564 968.5,773.3564 1601,773.3564 C1680.29,773.3564 1749.25,720.4964 1800.71,663.1964 " fill="none" id="CenterCoordinator-VaccinatonCenter" style="stroke:#181818;stroke-width:1.0;"/><polygon fill="#000000" points="1262.507,764.796,1271.6945,767.2536,1271.3844,761.384,1262.507,764.796" style="stroke:#000000;stroke-width:1.0;"/><text fill="#000000" font-family="sans-serif" font-size="13" lengthAdjust="spacing" textLength="99" x="1276.5" y="769.8516">is coordinated by</text><text fill="#000000" font-family="sans-serif" font-size="13" lengthAdjust="spacing" textLength="7" x="724.8788" y="741.7566">1</text><text fill="#000000" font-family="sans-serif" font-size="13" lengthAdjust="spacing" textLength="7" x="1785.9167" y="688.1867">1</text></g><!--MD5=[2075be8de63a33f6fa84805c185bc4f8]
link Application to SnsUser--><g id="link_Application_SnsUser"><path codeLine="131" d="M299.03,412.7364 C308.85,415.4864 319.16,417.9064 329,419.3564 C416.34,432.2564 518.22,428.3764 584.76,423.3464 " fill="none" id="Application-SnsUser" style="stroke:#181818;stroke-width:1.0;"/><polygon fill="#000000" points="338.9966,410.7178,330.0668,407.4452,329.8486,413.319,338.9966,410.7178" style="stroke:#000000;stroke-width:1.0;"/><text fill="#000000" font-family="sans-serif" font-size="13" lengthAdjust="spacing" textLength="208" x="343" y="415.8516">requests authorization to send SMS</text><text fill="#000000" font-family="sans-serif" font-size="13" lengthAdjust="spacing" textLength="7" x="306.9657" y="429.9851">1</text><text fill="#000000" font-family="sans-serif" font-size="13" lengthAdjust="spacing" textLength="5" x="572.0524" y="438.3991">*</text></g><!--MD5=[2075be8de63a33f6fa84805c185bc4f8]
link Application to SnsUser--><g id="link_Application_SnsUser"><path codeLine="132" d="M299.15,393.0464 C359.19,390.8564 463.24,389.0164 552,397.3564 C562.69,398.3564 573.93,399.8964 584.9,401.6764 " fill="none" id="Application-SnsUser-1" style="stroke:#181818;stroke-width:1.0;"/><polygon fill="#000000" points="427.4977,382.6832,418.5455,379.4725,418.368,385.3477,427.4977,382.6832" style="stroke:#000000;stroke-width:1.0;"/><text fill="#000000" font-family="sans-serif" font-size="13" lengthAdjust="spacing" textLength="31" x="431.5" y="387.8516">notify</text><text fill="#000000" font-family="sans-serif" font-size="13" lengthAdjust="spacing" textLength="7" x="307.1033" y="407.4031">1</text><text fill="#000000" font-family="sans-serif" font-size="13" lengthAdjust="spacing" textLength="5" x="572.2069" y="414.4944">*</text></g><!--MD5=[17f340aceeb8c49bad92df90fb8d260d]
link EntriesAndExitsList to VaccinatonCenter--><g id="link_EntriesAndExitsList_VaccinatonCenter"><path codeLine="133" d="M1676.33,463.8864 C1714.14,473.6864 1760.38,485.6764 1800.83,496.1664 " fill="none" id="EntriesAndExitsList-VaccinatonCenter" style="stroke:#181818;stroke-width:1.0;"/><polygon fill="#000000" points="1735.16,471.2773,1743.178,476.3923,1744.6532,470.7026,1735.16,471.2773" style="stroke:#000000;stroke-width:1.0;"/><text fill="#000000" font-family="sans-serif" font-size="13" lengthAdjust="spacing" textLength="21" x="1749" y="477.8516">has</text><text fill="#000000" font-family="sans-serif" font-size="13" lengthAdjust="spacing" textLength="5" x="1684.0898" y="480.1089">*</text><text fill="#000000" font-family="sans-serif" font-size="13" lengthAdjust="spacing" textLength="7" x="1786.0459" y="508.3685">1</text></g><!--MD5=[606e039b56f03178172de5759362419c]
@startuml
'https://plantuml.com/class-diagram

left to right direction

class ApplicationUser {
==-name
==-emailAddress
==-role
==-password
}


class Administrator

class SnsUser {
==-SnsUserNumber
}

ApplicationUser <|- - - SnsUser
ApplicationUser <|- - - - Nurse
ApplicationUser <|-left- Receptionist
ApplicationUser <|- Administrator
ApplicationUser <|- - - CenterCoordinator

'Receptionist "1" - "*" SnsUser : creates new >


class Receptionist

class Nurse

class CenterCoordinator

'Administrator "*" - - "*" SnsUser : configures and manages  >
'Administrator "*" - "*" Nurse : configures and manages >
'Administrator "*" -l- "*" Receptionist : configures and manages >
'Administrator "*" - - "*" VaccinatonCenter : configures and manages >
'Administrator "*" -up- - "*" CenterCoordinator : configures and manages >
'Administrator "*" -up- "*" TypeOfVaccine : configures and manages >
'Administrator "*" - - "*" Vaccine : specifies new >
'Administrator "1" - "*" DosageScheme : specifies  >
'Administrator "*" -left "*" Employee : configures and manages >

'Employee <-left Receptionist
'Employee <- Nurse

class VaccinatonCenter {
==-intID
==-strName
==-strPhoneNumber
==-strEmail
==-strFax
==-strWebsite
==-strOpeningHour
==-strClosingHour
==-strSlotDuration
==-strVaccinesPerSlot
==-strRoad
==-strZipCode
==-strLocal
==-strCenterCoordinatorID
 }

class MassVaccinationCenter extends VaccinatonCenter {

}

class HealthcareCenter extends VaccinatonCenter {
==-ARE
==-AGES
}

class Vaccine {
==-brand
}

class DosageScheme {
==-numberOfDoses
==-dosage
== -age
==-intervalBetweenVaccines
}

class TypeOfVaccine {
==-virus
}


Vaccine "1" - - "1" DosageScheme : has a >
TypeOfVaccine "*" - - "1" Vaccine :is of <
Vaccine "*" - - - "1" VaccinatonCenter : is administered on >

class DigitalCertificate

'Nurse "1" -left "*" DigitalCertificate : delivers >
SnsUser "1" - - - "1" DigitalCertificate : requests >

class VaccineAppointment

SnsUser "1" - - "*" VaccineAppointment : schedules >
'Receptionist "1" - "*" VaccineAppointment : schedules and confirms >


class UsersWaitingList
class UserInfo

Receptionist "*" - "1" UsersWaitingList : atualizes >
Nurse "*" - - "1" UsersWaitingList : checks >
Nurse "1" - "*" Vaccine : administers >
SnsUser "1" - -  "*" UserInfo : has >
VaccineAppointment "1" - - "1" Vaccine : is associated to a >




class GivenVaccine
class AdverseReactions

GivenVaccine "*" - "*" AdverseReactions
(GivenVaccine, AdverseReactions) - Nurse : registers


class ManageVaccinationProcess

CenterCoordinator "1" - - "1" ManageVaccinationProcess : has to >
CenterCoordinator "1" - - "1" VaccinatonCenter : is coordinated by <

class Application
class EntriesAndExitsList

Application "1" - - "*" SnsUser : requests authorization to send SMS >
Application "1" - - "*" SnsUser : notify >
VaccinatonCenter "1" -up- "*" EntriesAndExitsList : has >

@enduml

@startuml

left to right direction

class ApplicationUser {
==-name
==-emailAddress
==-role
==-password
}


class Administrator

class SnsUser {
==-SnsUserNumber
}

ApplicationUser <|- - - SnsUser
ApplicationUser <|- - - - Nurse
ApplicationUser <|-left- Receptionist
ApplicationUser <|- Administrator
ApplicationUser <|- - - CenterCoordinator



class Receptionist

class Nurse

class CenterCoordinator



class VaccinatonCenter {
==-intID
==-strName
==-strPhoneNumber
==-strEmail
==-strFax
==-strWebsite
==-strOpeningHour
==-strClosingHour
==-strSlotDuration
==-strVaccinesPerSlot
==-strRoad
==-strZipCode
==-strLocal
==-strCenterCoordinatorID
 }

class MassVaccinationCenter extends VaccinatonCenter {

}

class HealthcareCenter extends VaccinatonCenter {
==-ARE
==-AGES
}

class Vaccine {
==-brand
}

class DosageScheme {
==-numberOfDoses
==-dosage
== -age
==-intervalBetweenVaccines
}

class TypeOfVaccine {
==-virus
}


Vaccine "1" - - "1" DosageScheme : has a >
TypeOfVaccine "*" - - "1" Vaccine :is of <
Vaccine "*" - - - "1" VaccinatonCenter : is administered on >

class DigitalCertificate

SnsUser "1" - - - "1" DigitalCertificate : requests >

class VaccineAppointment

SnsUser "1" - - "*" VaccineAppointment : schedules >


class UsersWaitingList
class UserInfo

Receptionist "*" - "1" UsersWaitingList : atualizes >
Nurse "*" - - "1" UsersWaitingList : checks >
Nurse "1" - "*" Vaccine : administers >
SnsUser "1" - -  "*" UserInfo : has >
VaccineAppointment "1" - - "1" Vaccine : is associated to a >




class GivenVaccine
class AdverseReactions

GivenVaccine "*" - "*" AdverseReactions
(GivenVaccine, AdverseReactions) - Nurse : registers


class ManageVaccinationProcess

CenterCoordinator "1" - - "1" ManageVaccinationProcess : has to >
CenterCoordinator "1" - - "1" VaccinatonCenter : is coordinated by <

class Application
class EntriesAndExitsList

Application "1" - - "*" SnsUser : requests authorization to send SMS >
Application "1" - - "*" SnsUser : notify >
VaccinatonCenter "1" -up- "*" EntriesAndExitsList : has >

@enduml

PlantUML version 1.2022.4(Sat Apr 09 14:29:17 BST 2022)
(GPL source distribution)
Java Runtime: OpenJDK Runtime Environment
JVM: OpenJDK 64-Bit Server VM
Default Encoding: Cp1252
Language: en
Country: US
--></g></svg>