<?xml version="1.0" encoding="UTF-8" standalone="no"?><svg xmlns="http://www.w3.org/2000/svg" xmlns:xlink="http://www.w3.org/1999/xlink" contentStyleType="text/css" height="1117px" preserveAspectRatio="none" style="width:3349px;height:1117px;background:#FFFFFF;" version="1.1" viewBox="0 0 3349 1117" width="3349px" zoomAndPan="magnify"><defs/><g><!--MD5=[9b956c59b16436292d60adff39fe4d1c]
class ApplicationUser--><g id="elem_ApplicationUser"><rect codeLine="7" fill="#F1F1F1" height="145.6563" id="ApplicationUser" rx="2.5" ry="2.5" style="stroke:#181818;stroke-width:0.5;" width="136" x="7" y="699.5"/><ellipse cx="24.7" cy="715.5" fill="#ADD1B2" rx="11" ry="11" style="stroke:#181818;stroke-width:1.0;"/><path d="M26.7,712 Q26.9031,711.5 27.1375,711.25 Q27.3719,711 27.6375,711 Q28.1063,711 28.4031,711.2813 Q28.7,711.5625 28.7,712.2188 L28.7,713.7813 Q28.7,714.4375 28.4188,714.7188 Q28.1375,715 27.7,715 Q27.3094,715 27.0594,714.8281 Q26.8094,714.6563 26.7,714.2031 Q26.6531,713.8906 26.4813,713.7188 Q26.1688,713.3906 25.6063,713.2031 Q25.0438,713 24.4813,713 Q23.7781,713 23.1844,713.2813 Q22.6063,713.5625 22.1531,714.1875 Q21.7,714.8125 21.7,715.6719 L21.7,716.5938 Q21.7,717.625 22.5438,718.3125 Q23.3875,719 24.8875,719 Q25.7781,719 26.4031,718.7969 Q26.7625,718.6875 27.1688,718.3281 Q27.4344,718.125 27.575,718.0625 Q27.7156,718 27.8875,718 Q28.2156,718 28.45,718.2656 Q28.7,718.5156 28.7,718.875 Q28.7,719.2188 28.3563,719.625 Q27.8563,720.2188 27.0594,720.5469 Q26.0125,721 24.7313,721 Q23.2313,721 22.0281,720.4063 Q21.0594,719.9375 20.3719,718.9219 Q19.7,717.9063 19.7,716.7031 L19.7,715.6094 Q19.7,714.3594 20.2938,713.2656 Q20.9031,712.1719 21.95,711.5938 Q23.0125,711 24.2,711 Q24.9188,711 25.5438,711.25 Q26.1688,711.5 26.7,712 Z " fill="#000000"/><text fill="#000000" font-family="sans-serif" font-size="14" lengthAdjust="spacing" textLength="98" x="39.3" y="721.2285">ApplicationUser</text><line style="stroke:#181818;stroke-width:0.5;" x1="8" x2="142" y1="731.5" y2="731.5"/><text fill="#000000" font-family="sans-serif" font-size="14" lengthAdjust="spacing" textLength="40" x="13" y="750.0332">-name</text><text fill="#000000" font-family="sans-serif" font-size="14" lengthAdjust="spacing" textLength="90" x="13" y="767.6426">-emailAddress</text><text fill="#000000" font-family="sans-serif" font-size="14" lengthAdjust="spacing" textLength="29" x="13" y="785.252">-role</text><text fill="#000000" font-family="sans-serif" font-size="14" lengthAdjust="spacing" textLength="65" x="13" y="802.8613">-password</text><text fill="#000000" font-family="sans-serif" font-size="14" lengthAdjust="spacing" textLength="56" x="13" y="820.4707">-address</text><text fill="#000000" font-family="sans-serif" font-size="14" lengthAdjust="spacing" textLength="124" x="13" y="838.0801">-citizenCardNumber</text></g><!--MD5=[7421f545a0d8420c5bec41e74b387d9c]
class Employee--><g id="elem_Employee"><rect codeLine="16" fill="#F1F1F1" height="57.6094" id="Employee" rx="2.5" ry="2.5" style="stroke:#181818;stroke-width:0.5;" width="94" x="204" y="675.5"/><ellipse cx="219" cy="691.5" fill="#ADD1B2" rx="11" ry="11" style="stroke:#181818;stroke-width:1.0;"/><path d="M221,688 Q221.2031,687.5 221.4375,687.25 Q221.6719,687 221.9375,687 Q222.4063,687 222.7031,687.2813 Q223,687.5625 223,688.2188 L223,689.7813 Q223,690.4375 222.7188,690.7188 Q222.4375,691 222,691 Q221.6094,691 221.3594,690.8281 Q221.1094,690.6563 221,690.2031 Q220.9531,689.8906 220.7813,689.7188 Q220.4688,689.3906 219.9063,689.2031 Q219.3438,689 218.7813,689 Q218.0781,689 217.4844,689.2813 Q216.9063,689.5625 216.4531,690.1875 Q216,690.8125 216,691.6719 L216,692.5938 Q216,693.625 216.8438,694.3125 Q217.6875,695 219.1875,695 Q220.0781,695 220.7031,694.7969 Q221.0625,694.6875 221.4688,694.3281 Q221.7344,694.125 221.875,694.0625 Q222.0156,694 222.1875,694 Q222.5156,694 222.75,694.2656 Q223,694.5156 223,694.875 Q223,695.2188 222.6563,695.625 Q222.1563,696.2188 221.3594,696.5469 Q220.3125,697 219.0313,697 Q217.5313,697 216.3281,696.4063 Q215.3594,695.9375 214.6719,694.9219 Q214,693.9063 214,692.7031 L214,691.6094 Q214,690.3594 214.5938,689.2656 Q215.2031,688.1719 216.25,687.5938 Q217.3125,687 218.5,687 Q219.2188,687 219.8438,687.25 Q220.4688,687.5 221,688 Z " fill="#000000"/><text fill="#000000" font-family="sans-serif" font-size="14" lengthAdjust="spacing" textLength="62" x="233" y="697.2285">Employee</text><line style="stroke:#181818;stroke-width:0.5;" x1="205" x2="297" y1="707.5" y2="707.5"/><text fill="#000000" font-family="sans-serif" font-size="14" lengthAdjust="spacing" textLength="16" x="210" y="726.0332">-id</text></g><!--MD5=[da547346deef918ea16944ba046651ef]
class Administrator--><g id="elem_Administrator"><rect codeLine="20" fill="#F1F1F1" height="40" id="Administrator" rx="2.5" ry="2.5" style="stroke:#181818;stroke-width:0.5;" width="115" x="328" y="684.5"/><ellipse cx="343" cy="700.5" fill="#ADD1B2" rx="11" ry="11" style="stroke:#181818;stroke-width:1.0;"/><path d="M345,697 Q345.2031,696.5 345.4375,696.25 Q345.6719,696 345.9375,696 Q346.4063,696 346.7031,696.2813 Q347,696.5625 347,697.2188 L347,698.7813 Q347,699.4375 346.7188,699.7188 Q346.4375,700 346,700 Q345.6094,700 345.3594,699.8281 Q345.1094,699.6563 345,699.2031 Q344.9531,698.8906 344.7813,698.7188 Q344.4688,698.3906 343.9063,698.2031 Q343.3438,698 342.7813,698 Q342.0781,698 341.4844,698.2813 Q340.9063,698.5625 340.4531,699.1875 Q340,699.8125 340,700.6719 L340,701.5938 Q340,702.625 340.8438,703.3125 Q341.6875,704 343.1875,704 Q344.0781,704 344.7031,703.7969 Q345.0625,703.6875 345.4688,703.3281 Q345.7344,703.125 345.875,703.0625 Q346.0156,703 346.1875,703 Q346.5156,703 346.75,703.2656 Q347,703.5156 347,703.875 Q347,704.2188 346.6563,704.625 Q346.1563,705.2188 345.3594,705.5469 Q344.3125,706 343.0313,706 Q341.5313,706 340.3281,705.4063 Q339.3594,704.9375 338.6719,703.9219 Q338,702.9063 338,701.7031 L338,700.6094 Q338,699.3594 338.5938,698.2656 Q339.2031,697.1719 340.25,696.5938 Q341.3125,696 342.5,696 Q343.2188,696 343.8438,696.25 Q344.4688,696.5 345,697 Z " fill="#000000"/><text fill="#000000" font-family="sans-serif" font-size="14" lengthAdjust="spacing" textLength="83" x="357" y="706.2285">Administrator</text><line style="stroke:#181818;stroke-width:0.5;" x1="329" x2="442" y1="716.5" y2="716.5"/></g><!--MD5=[0b4e4b4980470ea387cc45de9bd14b5b]
class Application--><g id="elem_Application"><rect codeLine="133" fill="#F1F1F1" height="40" id="Application" rx="2.5" ry="2.5" style="stroke:#181818;stroke-width:0.5;" width="101" x="687" y="684.5"/><ellipse cx="702" cy="700.5" fill="#ADD1B2" rx="11" ry="11" style="stroke:#181818;stroke-width:1.0;"/><path d="M704,697 Q704.2031,696.5 704.4375,696.25 Q704.6719,696 704.9375,696 Q705.4063,696 705.7031,696.2813 Q706,696.5625 706,697.2188 L706,698.7813 Q706,699.4375 705.7188,699.7188 Q705.4375,700 705,700 Q704.6094,700 704.3594,699.8281 Q704.1094,699.6563 704,699.2031 Q703.9531,698.8906 703.7813,698.7188 Q703.4688,698.3906 702.9063,698.2031 Q702.3438,698 701.7813,698 Q701.0781,698 700.4844,698.2813 Q699.9063,698.5625 699.4531,699.1875 Q699,699.8125 699,700.6719 L699,701.5938 Q699,702.625 699.8438,703.3125 Q700.6875,704 702.1875,704 Q703.0781,704 703.7031,703.7969 Q704.0625,703.6875 704.4688,703.3281 Q704.7344,703.125 704.875,703.0625 Q705.0156,703 705.1875,703 Q705.5156,703 705.75,703.2656 Q706,703.5156 706,703.875 Q706,704.2188 705.6563,704.625 Q705.1563,705.2188 704.3594,705.5469 Q703.3125,706 702.0313,706 Q700.5313,706 699.3281,705.4063 Q698.3594,704.9375 697.6719,703.9219 Q697,702.9063 697,701.7031 L697,700.6094 Q697,699.3594 697.5938,698.2656 Q698.2031,697.1719 699.25,696.5938 Q700.3125,696 701.5,696 Q702.2188,696 702.8438,696.25 Q703.4688,696.5 704,697 Z " fill="#000000"/><text fill="#000000" font-family="sans-serif" font-size="14" lengthAdjust="spacing" textLength="69" x="716" y="706.2285">Application</text><line style="stroke:#181818;stroke-width:0.5;" x1="688" x2="787" y1="716.5" y2="716.5"/></g><!--MD5=[c4593935f45e4a2a0cefc4788932b53f]
class SnsUser--><g id="elem_SnsUser"><rect codeLine="24" fill="#F1F1F1" height="57.6094" id="SnsUser" rx="2.5" ry="2.5" style="stroke:#181818;stroke-width:0.5;" width="117" x="1234.5" y="691.5"/><ellipse cx="1263.9" cy="707.5" fill="#ADD1B2" rx="11" ry="11" style="stroke:#181818;stroke-width:1.0;"/><path d="M1265.9,704 Q1266.1031,703.5 1266.3375,703.25 Q1266.5719,703 1266.8375,703 Q1267.3063,703 1267.6031,703.2813 Q1267.9,703.5625 1267.9,704.2188 L1267.9,705.7813 Q1267.9,706.4375 1267.6188,706.7188 Q1267.3375,707 1266.9,707 Q1266.5094,707 1266.2594,706.8281 Q1266.0094,706.6563 1265.9,706.2031 Q1265.8531,705.8906 1265.6813,705.7188 Q1265.3688,705.3906 1264.8063,705.2031 Q1264.2438,705 1263.6813,705 Q1262.9781,705 1262.3844,705.2813 Q1261.8063,705.5625 1261.3531,706.1875 Q1260.9,706.8125 1260.9,707.6719 L1260.9,708.5938 Q1260.9,709.625 1261.7438,710.3125 Q1262.5875,711 1264.0875,711 Q1264.9781,711 1265.6031,710.7969 Q1265.9625,710.6875 1266.3688,710.3281 Q1266.6344,710.125 1266.775,710.0625 Q1266.9156,710 1267.0875,710 Q1267.4156,710 1267.65,710.2656 Q1267.9,710.5156 1267.9,710.875 Q1267.9,711.2188 1267.5563,711.625 Q1267.0563,712.2188 1266.2594,712.5469 Q1265.2125,713 1263.9313,713 Q1262.4313,713 1261.2281,712.4063 Q1260.2594,711.9375 1259.5719,710.9219 Q1258.9,709.9063 1258.9,708.7031 L1258.9,707.6094 Q1258.9,706.3594 1259.4938,705.2656 Q1260.1031,704.1719 1261.15,703.5938 Q1262.2125,703 1263.4,703 Q1264.1188,703 1264.7438,703.25 Q1265.3688,703.5 1265.9,704 Z " fill="#000000"/><text fill="#000000" font-family="sans-serif" font-size="14" lengthAdjust="spacing" textLength="53" x="1281.1" y="713.2285">SnsUser</text><line style="stroke:#181818;stroke-width:0.5;" x1="1235.5" x2="1350.5" y1="723.5" y2="723.5"/><text fill="#000000" font-family="sans-serif" font-size="14" lengthAdjust="spacing" textLength="105" x="1240.5" y="742.0332">-snsUserNumber</text></g><!--MD5=[a059576e163b46f56762f12600c49258]
class Nurse--><g id="elem_Nurse"><rect codeLine="43" fill="#F1F1F1" height="40" id="Nurse" rx="2.5" ry="2.5" style="stroke:#181818;stroke-width:0.5;" width="69" x="473" y="931.5"/><ellipse cx="488" cy="947.5" fill="#ADD1B2" rx="11" ry="11" style="stroke:#181818;stroke-width:1.0;"/><path d="M490,944 Q490.2031,943.5 490.4375,943.25 Q490.6719,943 490.9375,943 Q491.4063,943 491.7031,943.2813 Q492,943.5625 492,944.2188 L492,945.7813 Q492,946.4375 491.7188,946.7188 Q491.4375,947 491,947 Q490.6094,947 490.3594,946.8281 Q490.1094,946.6563 490,946.2031 Q489.9531,945.8906 489.7813,945.7188 Q489.4688,945.3906 488.9063,945.2031 Q488.3438,945 487.7813,945 Q487.0781,945 486.4844,945.2813 Q485.9063,945.5625 485.4531,946.1875 Q485,946.8125 485,947.6719 L485,948.5938 Q485,949.625 485.8438,950.3125 Q486.6875,951 488.1875,951 Q489.0781,951 489.7031,950.7969 Q490.0625,950.6875 490.4688,950.3281 Q490.7344,950.125 490.875,950.0625 Q491.0156,950 491.1875,950 Q491.5156,950 491.75,950.2656 Q492,950.5156 492,950.875 Q492,951.2188 491.6563,951.625 Q491.1563,952.2188 490.3594,952.5469 Q489.3125,953 488.0313,953 Q486.5313,953 485.3281,952.4063 Q484.3594,951.9375 483.6719,950.9219 Q483,949.9063 483,948.7031 L483,947.6094 Q483,946.3594 483.5938,945.2656 Q484.2031,944.1719 485.25,943.5938 Q486.3125,943 487.5,943 Q488.2188,943 488.8438,943.25 Q489.4688,943.5 490,944 Z " fill="#000000"/><text fill="#000000" font-family="sans-serif" font-size="14" lengthAdjust="spacing" textLength="37" x="502" y="953.2285">Nurse</text><line style="stroke:#181818;stroke-width:0.5;" x1="474" x2="541" y1="963.5" y2="963.5"/></g><!--MD5=[03960189e81aa2c066c762ffabbee709]
class Receptionist--><g id="elem_Receptionist"><rect codeLine="37" fill="#F1F1F1" height="40" id="Receptionist" rx="2.5" ry="2.5" style="stroke:#181818;stroke-width:0.5;" width="110" x="682.5" y="609.5"/><ellipse cx="697.5" cy="625.5" fill="#ADD1B2" rx="11" ry="11" style="stroke:#181818;stroke-width:1.0;"/><path d="M699.5,622 Q699.7031,621.5 699.9375,621.25 Q700.1719,621 700.4375,621 Q700.9063,621 701.2031,621.2813 Q701.5,621.5625 701.5,622.2188 L701.5,623.7813 Q701.5,624.4375 701.2188,624.7188 Q700.9375,625 700.5,625 Q700.1094,625 699.8594,624.8281 Q699.6094,624.6563 699.5,624.2031 Q699.4531,623.8906 699.2813,623.7188 Q698.9688,623.3906 698.4063,623.2031 Q697.8438,623 697.2813,623 Q696.5781,623 695.9844,623.2813 Q695.4063,623.5625 694.9531,624.1875 Q694.5,624.8125 694.5,625.6719 L694.5,626.5938 Q694.5,627.625 695.3438,628.3125 Q696.1875,629 697.6875,629 Q698.5781,629 699.2031,628.7969 Q699.5625,628.6875 699.9688,628.3281 Q700.2344,628.125 700.375,628.0625 Q700.5156,628 700.6875,628 Q701.0156,628 701.25,628.2656 Q701.5,628.5156 701.5,628.875 Q701.5,629.2188 701.1563,629.625 Q700.6563,630.2188 699.8594,630.5469 Q698.8125,631 697.5313,631 Q696.0313,631 694.8281,630.4063 Q693.8594,629.9375 693.1719,628.9219 Q692.5,627.9063 692.5,626.7031 L692.5,625.6094 Q692.5,624.3594 693.0938,623.2656 Q693.7031,622.1719 694.75,621.5938 Q695.8125,621 697,621 Q697.7188,621 698.3438,621.25 Q698.9688,621.5 699.5,622 Z " fill="#000000"/><text fill="#000000" font-family="sans-serif" font-size="14" lengthAdjust="spacing" textLength="78" x="711.5" y="631.2285">Receptionist</text><line style="stroke:#181818;stroke-width:0.5;" x1="683.5" x2="791.5" y1="641.5" y2="641.5"/></g><!--MD5=[2d935fd2dd068a13da1ae531f9857c4f]
class CenterCoordinator--><g id="elem_CenterCoordinator"><rect codeLine="151" fill="#F1F1F1" height="40" id="CenterCoordinator" rx="2.5" ry="2.5" style="stroke:#181818;stroke-width:0.5;" width="150" x="1218" y="361.5"/><ellipse cx="1233" cy="377.5" fill="#ADD1B2" rx="11" ry="11" style="stroke:#181818;stroke-width:1.0;"/><path d="M1235,374 Q1235.2031,373.5 1235.4375,373.25 Q1235.6719,373 1235.9375,373 Q1236.4063,373 1236.7031,373.2813 Q1237,373.5625 1237,374.2188 L1237,375.7813 Q1237,376.4375 1236.7188,376.7188 Q1236.4375,377 1236,377 Q1235.6094,377 1235.3594,376.8281 Q1235.1094,376.6563 1235,376.2031 Q1234.9531,375.8906 1234.7813,375.7188 Q1234.4688,375.3906 1233.9063,375.2031 Q1233.3438,375 1232.7813,375 Q1232.0781,375 1231.4844,375.2813 Q1230.9063,375.5625 1230.4531,376.1875 Q1230,376.8125 1230,377.6719 L1230,378.5938 Q1230,379.625 1230.8438,380.3125 Q1231.6875,381 1233.1875,381 Q1234.0781,381 1234.7031,380.7969 Q1235.0625,380.6875 1235.4688,380.3281 Q1235.7344,380.125 1235.875,380.0625 Q1236.0156,380 1236.1875,380 Q1236.5156,380 1236.75,380.2656 Q1237,380.5156 1237,380.875 Q1237,381.2188 1236.6563,381.625 Q1236.1563,382.2188 1235.3594,382.5469 Q1234.3125,383 1233.0313,383 Q1231.5313,383 1230.3281,382.4063 Q1229.3594,381.9375 1228.6719,380.9219 Q1228,379.9063 1228,378.7031 L1228,377.6094 Q1228,376.3594 1228.5938,375.2656 Q1229.2031,374.1719 1230.25,373.5938 Q1231.3125,373 1232.5,373 Q1233.2188,373 1233.8438,373.25 Q1234.4688,373.5 1235,374 Z " fill="#000000"/><text fill="#000000" font-family="sans-serif" font-size="14" lengthAdjust="spacing" textLength="118" x="1247" y="383.2285">CenterCoordinator</text><line style="stroke:#181818;stroke-width:0.5;" x1="1219" x2="1367" y1="393.5" y2="393.5"/></g><!--MD5=[de60e6d4f424ae4d0522096f76a59010]
class VaccinationCenter--><g id="elem_VaccinationCenter"><rect codeLine="47" fill="#F1F1F1" height="286.5313" id="VaccinationCenter" rx="2.5" ry="2.5" style="stroke:#181818;stroke-width:0.5;" width="164" x="2291" y="193"/><ellipse cx="2313.2" cy="209" fill="#ADD1B2" rx="11" ry="11" style="stroke:#181818;stroke-width:1.0;"/><path d="M2315.2,205.5 Q2315.4031,205 2315.6375,204.75 Q2315.8719,204.5 2316.1375,204.5 Q2316.6063,204.5 2316.9031,204.7813 Q2317.2,205.0625 2317.2,205.7188 L2317.2,207.2813 Q2317.2,207.9375 2316.9188,208.2188 Q2316.6375,208.5 2316.2,208.5 Q2315.8094,208.5 2315.5594,208.3281 Q2315.3094,208.1563 2315.2,207.7031 Q2315.1531,207.3906 2314.9813,207.2188 Q2314.6688,206.8906 2314.1063,206.7031 Q2313.5438,206.5 2312.9813,206.5 Q2312.2781,206.5 2311.6844,206.7813 Q2311.1063,207.0625 2310.6531,207.6875 Q2310.2,208.3125 2310.2,209.1719 L2310.2,210.0938 Q2310.2,211.125 2311.0438,211.8125 Q2311.8875,212.5 2313.3875,212.5 Q2314.2781,212.5 2314.9031,212.2969 Q2315.2625,212.1875 2315.6688,211.8281 Q2315.9344,211.625 2316.075,211.5625 Q2316.2156,211.5 2316.3875,211.5 Q2316.7156,211.5 2316.95,211.7656 Q2317.2,212.0156 2317.2,212.375 Q2317.2,212.7188 2316.8563,213.125 Q2316.3563,213.7188 2315.5594,214.0469 Q2314.5125,214.5 2313.2313,214.5 Q2311.7313,214.5 2310.5281,213.9063 Q2309.5594,213.4375 2308.8719,212.4219 Q2308.2,211.4063 2308.2,210.2031 L2308.2,209.1094 Q2308.2,207.8594 2308.7938,206.7656 Q2309.4031,205.6719 2310.45,205.0938 Q2311.5125,204.5 2312.7,204.5 Q2313.4188,204.5 2314.0438,204.75 Q2314.6688,205 2315.2,205.5 Z " fill="#000000"/><text fill="#000000" font-family="sans-serif" font-size="14" lengthAdjust="spacing" textLength="116" x="2328.8" y="214.7285">VaccinationCenter</text><line style="stroke:#181818;stroke-width:0.5;" x1="2292" x2="2454" y1="225" y2="225"/><text fill="#000000" font-family="sans-serif" font-size="14" lengthAdjust="spacing" textLength="33" x="2297" y="243.5332">-intID</text><text fill="#000000" font-family="sans-serif" font-size="14" lengthAdjust="spacing" textLength="57" x="2297" y="261.1426">-strName</text><text fill="#000000" font-family="sans-serif" font-size="14" lengthAdjust="spacing" textLength="111" x="2297" y="278.752">-strPhoneNumber</text><text fill="#000000" font-family="sans-serif" font-size="14" lengthAdjust="spacing" textLength="55" x="2297" y="296.3613">-strEmail</text><text fill="#000000" font-family="sans-serif" font-size="14" lengthAdjust="spacing" textLength="44" x="2297" y="313.9707">-strFax</text><text fill="#000000" font-family="sans-serif" font-size="14" lengthAdjust="spacing" textLength="72" x="2297" y="331.5801">-strWebsite</text><text fill="#000000" font-family="sans-serif" font-size="14" lengthAdjust="spacing" textLength="105" x="2297" y="349.1895">-strOpeningHour</text><text fill="#000000" font-family="sans-serif" font-size="14" lengthAdjust="spacing" textLength="98" x="2297" y="366.7988">-strClosingHour</text><text fill="#000000" font-family="sans-serif" font-size="14" lengthAdjust="spacing" textLength="99" x="2297" y="384.4082">-strSlotDuration</text><text fill="#000000" font-family="sans-serif" font-size="14" lengthAdjust="spacing" textLength="124" x="2297" y="402.0176">-strVaccinesPerSlot</text><text fill="#000000" font-family="sans-serif" font-size="14" lengthAdjust="spacing" textLength="55" x="2297" y="419.627">-strRoad</text><text fill="#000000" font-family="sans-serif" font-size="14" lengthAdjust="spacing" textLength="74" x="2297" y="437.2363">-strZipCode</text><text fill="#000000" font-family="sans-serif" font-size="14" lengthAdjust="spacing" textLength="55" x="2297" y="454.8457">-strLocal</text><text fill="#000000" font-family="sans-serif" font-size="14" lengthAdjust="spacing" textLength="152" x="2297" y="472.4551">-strCenterCoordinatorID</text></g><!--MD5=[76480a6701b5d2883bc606a2560c3cfe]
class MassVaccinationCenter--><g id="elem_MassVaccinationCenter"><rect codeLine="64" fill="#F1F1F1" height="40" id="MassVaccinationCenter" rx="2.5" ry="2.5" style="stroke:#181818;stroke-width:0.5;" width="181" x="2629" y="309.5"/><ellipse cx="2644" cy="325.5" fill="#ADD1B2" rx="11" ry="11" style="stroke:#181818;stroke-width:1.0;"/><path d="M2646,322 Q2646.2031,321.5 2646.4375,321.25 Q2646.6719,321 2646.9375,321 Q2647.4063,321 2647.7031,321.2813 Q2648,321.5625 2648,322.2188 L2648,323.7813 Q2648,324.4375 2647.7188,324.7188 Q2647.4375,325 2647,325 Q2646.6094,325 2646.3594,324.8281 Q2646.1094,324.6563 2646,324.2031 Q2645.9531,323.8906 2645.7813,323.7188 Q2645.4688,323.3906 2644.9063,323.2031 Q2644.3438,323 2643.7813,323 Q2643.0781,323 2642.4844,323.2813 Q2641.9063,323.5625 2641.4531,324.1875 Q2641,324.8125 2641,325.6719 L2641,326.5938 Q2641,327.625 2641.8438,328.3125 Q2642.6875,329 2644.1875,329 Q2645.0781,329 2645.7031,328.7969 Q2646.0625,328.6875 2646.4688,328.3281 Q2646.7344,328.125 2646.875,328.0625 Q2647.0156,328 2647.1875,328 Q2647.5156,328 2647.75,328.2656 Q2648,328.5156 2648,328.875 Q2648,329.2188 2647.6563,329.625 Q2647.1563,330.2188 2646.3594,330.5469 Q2645.3125,331 2644.0313,331 Q2642.5313,331 2641.3281,330.4063 Q2640.3594,329.9375 2639.6719,328.9219 Q2639,327.9063 2639,326.7031 L2639,325.6094 Q2639,324.3594 2639.5938,323.2656 Q2640.2031,322.1719 2641.25,321.5938 Q2642.3125,321 2643.5,321 Q2644.2188,321 2644.8438,321.25 Q2645.4688,321.5 2646,322 Z " fill="#000000"/><text fill="#000000" font-family="sans-serif" font-size="14" lengthAdjust="spacing" textLength="149" x="2658" y="331.2285">MassVaccinationCenter</text><line style="stroke:#181818;stroke-width:0.5;" x1="2630" x2="2809" y1="341.5" y2="341.5"/></g><!--MD5=[0b1ce5251ebf137e6b3550dd84e6af65]
class HealthcareCenter--><g id="elem_HealthcareCenter"><rect codeLine="68" fill="#F1F1F1" height="75.2188" id="HealthcareCenter" rx="2.5" ry="2.5" style="stroke:#181818;stroke-width:0.5;" width="143" x="2648" y="385"/><ellipse cx="2663" cy="401" fill="#ADD1B2" rx="11" ry="11" style="stroke:#181818;stroke-width:1.0;"/><path d="M2665,397.5 Q2665.2031,397 2665.4375,396.75 Q2665.6719,396.5 2665.9375,396.5 Q2666.4063,396.5 2666.7031,396.7813 Q2667,397.0625 2667,397.7188 L2667,399.2813 Q2667,399.9375 2666.7188,400.2188 Q2666.4375,400.5 2666,400.5 Q2665.6094,400.5 2665.3594,400.3281 Q2665.1094,400.1563 2665,399.7031 Q2664.9531,399.3906 2664.7813,399.2188 Q2664.4688,398.8906 2663.9063,398.7031 Q2663.3438,398.5 2662.7813,398.5 Q2662.0781,398.5 2661.4844,398.7813 Q2660.9063,399.0625 2660.4531,399.6875 Q2660,400.3125 2660,401.1719 L2660,402.0938 Q2660,403.125 2660.8438,403.8125 Q2661.6875,404.5 2663.1875,404.5 Q2664.0781,404.5 2664.7031,404.2969 Q2665.0625,404.1875 2665.4688,403.8281 Q2665.7344,403.625 2665.875,403.5625 Q2666.0156,403.5 2666.1875,403.5 Q2666.5156,403.5 2666.75,403.7656 Q2667,404.0156 2667,404.375 Q2667,404.7188 2666.6563,405.125 Q2666.1563,405.7188 2665.3594,406.0469 Q2664.3125,406.5 2663.0313,406.5 Q2661.5313,406.5 2660.3281,405.9063 Q2659.3594,405.4375 2658.6719,404.4219 Q2658,403.4063 2658,402.2031 L2658,401.1094 Q2658,399.8594 2658.5938,398.7656 Q2659.2031,397.6719 2660.25,397.0938 Q2661.3125,396.5 2662.5,396.5 Q2663.2188,396.5 2663.8438,396.75 Q2664.4688,397 2665,397.5 Z " fill="#000000"/><text fill="#000000" font-family="sans-serif" font-size="14" lengthAdjust="spacing" textLength="111" x="2677" y="406.7285">HealthcareCenter</text><line style="stroke:#181818;stroke-width:0.5;" x1="2649" x2="2790" y1="417" y2="417"/><text fill="#000000" font-family="sans-serif" font-size="14" lengthAdjust="spacing" textLength="33" x="2654" y="435.5332">-ARE</text><text fill="#000000" font-family="sans-serif" font-size="14" lengthAdjust="spacing" textLength="43" x="2654" y="453.1426">-AGES</text></g><!--MD5=[19e445fc4d3b48519cbe33da05496394]
class Vaccine--><g id="elem_Vaccine"><rect codeLine="73" fill="#F1F1F1" height="92.8281" id="Vaccine" rx="2.5" ry="2.5" style="stroke:#181818;stroke-width:0.5;" width="82" x="2978" y="806"/><ellipse cx="2993" cy="822" fill="#ADD1B2" rx="11" ry="11" style="stroke:#181818;stroke-width:1.0;"/><path d="M2995,818.5 Q2995.2031,818 2995.4375,817.75 Q2995.6719,817.5 2995.9375,817.5 Q2996.4063,817.5 2996.7031,817.7813 Q2997,818.0625 2997,818.7188 L2997,820.2813 Q2997,820.9375 2996.7188,821.2188 Q2996.4375,821.5 2996,821.5 Q2995.6094,821.5 2995.3594,821.3281 Q2995.1094,821.1563 2995,820.7031 Q2994.9531,820.3906 2994.7813,820.2188 Q2994.4688,819.8906 2993.9063,819.7031 Q2993.3438,819.5 2992.7813,819.5 Q2992.0781,819.5 2991.4844,819.7813 Q2990.9063,820.0625 2990.4531,820.6875 Q2990,821.3125 2990,822.1719 L2990,823.0938 Q2990,824.125 2990.8438,824.8125 Q2991.6875,825.5 2993.1875,825.5 Q2994.0781,825.5 2994.7031,825.2969 Q2995.0625,825.1875 2995.4688,824.8281 Q2995.7344,824.625 2995.875,824.5625 Q2996.0156,824.5 2996.1875,824.5 Q2996.5156,824.5 2996.75,824.7656 Q2997,825.0156 2997,825.375 Q2997,825.7188 2996.6563,826.125 Q2996.1563,826.7188 2995.3594,827.0469 Q2994.3125,827.5 2993.0313,827.5 Q2991.5313,827.5 2990.3281,826.9063 Q2989.3594,826.4375 2988.6719,825.4219 Q2988,824.4063 2988,823.2031 L2988,822.1094 Q2988,820.8594 2988.5938,819.7656 Q2989.2031,818.6719 2990.25,818.0938 Q2991.3125,817.5 2992.5,817.5 Q2993.2188,817.5 2993.8438,817.75 Q2994.4688,818 2995,818.5 Z " fill="#000000"/><text fill="#000000" font-family="sans-serif" font-size="14" lengthAdjust="spacing" textLength="50" x="3007" y="827.7285">Vaccine</text><line style="stroke:#181818;stroke-width:0.5;" x1="2979" x2="3059" y1="838" y2="838"/><text fill="#000000" font-family="sans-serif" font-size="14" lengthAdjust="spacing" textLength="42" x="2984" y="856.5332">-brand</text><text fill="#000000" font-family="sans-serif" font-size="14" lengthAdjust="spacing" textLength="40" x="2984" y="874.1426">-name</text><text fill="#000000" font-family="sans-serif" font-size="14" lengthAdjust="spacing" textLength="16" x="2984" y="891.752">-id</text></g><!--MD5=[a2530d24bafc45bb45314d96545aa194]
class AdministrationProcess--><g id="elem_AdministrationProcess"><rect codeLine="79" fill="#F1F1F1" height="110.4375" id="AdministrationProcess" rx="2.5" ry="2.5" style="stroke:#181818;stroke-width:0.5;" width="174" x="3168" y="797.5"/><ellipse cx="3183.9" cy="813.5" fill="#ADD1B2" rx="11" ry="11" style="stroke:#181818;stroke-width:1.0;"/><path d="M3185.9,810 Q3186.1031,809.5 3186.3375,809.25 Q3186.5719,809 3186.8375,809 Q3187.3063,809 3187.6031,809.2813 Q3187.9,809.5625 3187.9,810.2188 L3187.9,811.7813 Q3187.9,812.4375 3187.6188,812.7188 Q3187.3375,813 3186.9,813 Q3186.5094,813 3186.2594,812.8281 Q3186.0094,812.6563 3185.9,812.2031 Q3185.8531,811.8906 3185.6813,811.7188 Q3185.3688,811.3906 3184.8063,811.2031 Q3184.2438,811 3183.6813,811 Q3182.9781,811 3182.3844,811.2813 Q3181.8063,811.5625 3181.3531,812.1875 Q3180.9,812.8125 3180.9,813.6719 L3180.9,814.5938 Q3180.9,815.625 3181.7438,816.3125 Q3182.5875,817 3184.0875,817 Q3184.9781,817 3185.6031,816.7969 Q3185.9625,816.6875 3186.3688,816.3281 Q3186.6344,816.125 3186.775,816.0625 Q3186.9156,816 3187.0875,816 Q3187.4156,816 3187.65,816.2656 Q3187.9,816.5156 3187.9,816.875 Q3187.9,817.2188 3187.5563,817.625 Q3187.0563,818.2188 3186.2594,818.5469 Q3185.2125,819 3183.9313,819 Q3182.4313,819 3181.2281,818.4063 Q3180.2594,817.9375 3179.5719,816.9219 Q3178.9,815.9063 3178.9,814.7031 L3178.9,813.6094 Q3178.9,812.3594 3179.4938,811.2656 Q3180.1031,810.1719 3181.15,809.5938 Q3182.2125,809 3183.4,809 Q3184.1188,809 3184.7438,809.25 Q3185.3688,809.5 3185.9,810 Z " fill="#000000"/><text fill="#000000" font-family="sans-serif" font-size="14" lengthAdjust="spacing" textLength="140" x="3198.1" y="819.2285">AdministrationProcess</text><line style="stroke:#181818;stroke-width:0.5;" x1="3169" x2="3341" y1="829.5" y2="829.5"/><text fill="#000000" font-family="sans-serif" font-size="14" lengthAdjust="spacing" textLength="108" x="3174" y="848.0332">-numberOfDoses</text><text fill="#000000" font-family="sans-serif" font-size="14" lengthAdjust="spacing" textLength="52" x="3174" y="865.6426">-dosage</text><text fill="#000000" font-family="sans-serif" font-size="14" lengthAdjust="spacing" textLength="29" x="3174" y="883.252">-age</text><text fill="#000000" font-family="sans-serif" font-size="14" lengthAdjust="spacing" textLength="162" x="3174" y="900.8613">-intervalBetweenVaccines</text></g><!--MD5=[0e501da62322464167c8ec4d233a6b7e]
class VaccineType--><g id="elem_VaccineType"><rect codeLine="86" fill="#F1F1F1" height="92.8281" id="VaccineType" rx="2.5" ry="2.5" style="stroke:#181818;stroke-width:0.5;" width="114" x="2485" y="583"/><ellipse cx="2500" cy="599" fill="#ADD1B2" rx="11" ry="11" style="stroke:#181818;stroke-width:1.0;"/><path d="M2502,595.5 Q2502.2031,595 2502.4375,594.75 Q2502.6719,594.5 2502.9375,594.5 Q2503.4063,594.5 2503.7031,594.7813 Q2504,595.0625 2504,595.7188 L2504,597.2813 Q2504,597.9375 2503.7188,598.2188 Q2503.4375,598.5 2503,598.5 Q2502.6094,598.5 2502.3594,598.3281 Q2502.1094,598.1563 2502,597.7031 Q2501.9531,597.3906 2501.7813,597.2188 Q2501.4688,596.8906 2500.9063,596.7031 Q2500.3438,596.5 2499.7813,596.5 Q2499.0781,596.5 2498.4844,596.7813 Q2497.9063,597.0625 2497.4531,597.6875 Q2497,598.3125 2497,599.1719 L2497,600.0938 Q2497,601.125 2497.8438,601.8125 Q2498.6875,602.5 2500.1875,602.5 Q2501.0781,602.5 2501.7031,602.2969 Q2502.0625,602.1875 2502.4688,601.8281 Q2502.7344,601.625 2502.875,601.5625 Q2503.0156,601.5 2503.1875,601.5 Q2503.5156,601.5 2503.75,601.7656 Q2504,602.0156 2504,602.375 Q2504,602.7188 2503.6563,603.125 Q2503.1563,603.7188 2502.3594,604.0469 Q2501.3125,604.5 2500.0313,604.5 Q2498.5313,604.5 2497.3281,603.9063 Q2496.3594,603.4375 2495.6719,602.4219 Q2495,601.4063 2495,600.2031 L2495,599.1094 Q2495,597.8594 2495.5938,596.7656 Q2496.2031,595.6719 2497.25,595.0938 Q2498.3125,594.5 2499.5,594.5 Q2500.2188,594.5 2500.8438,594.75 Q2501.4688,595 2502,595.5 Z " fill="#000000"/><text fill="#000000" font-family="sans-serif" font-size="14" lengthAdjust="spacing" textLength="82" x="2514" y="604.7285">VaccineType</text><line style="stroke:#181818;stroke-width:0.5;" x1="2486" x2="2598" y1="615" y2="615"/><text fill="#000000" font-family="sans-serif" font-size="14" lengthAdjust="spacing" textLength="36" x="2491" y="633.5332">-code</text><text fill="#000000" font-family="sans-serif" font-size="14" lengthAdjust="spacing" textLength="74" x="2491" y="651.1426">-description</text><text fill="#000000" font-family="sans-serif" font-size="14" lengthAdjust="spacing" textLength="74" x="2491" y="668.752">-technology</text></g><!--MD5=[80a03012b5333e72487751e45bd40e3d]
class DigitalCertificate--><g id="elem_DigitalCertificate"><rect codeLine="96" fill="#F1F1F1" height="40" id="DigitalCertificate" rx="2.5" ry="2.5" style="stroke:#181818;stroke-width:0.5;" width="135" x="2305.5" y="700.5"/><ellipse cx="2320.5" cy="716.5" fill="#ADD1B2" rx="11" ry="11" style="stroke:#181818;stroke-width:1.0;"/><path d="M2322.5,713 Q2322.7031,712.5 2322.9375,712.25 Q2323.1719,712 2323.4375,712 Q2323.9063,712 2324.2031,712.2813 Q2324.5,712.5625 2324.5,713.2188 L2324.5,714.7813 Q2324.5,715.4375 2324.2188,715.7188 Q2323.9375,716 2323.5,716 Q2323.1094,716 2322.8594,715.8281 Q2322.6094,715.6563 2322.5,715.2031 Q2322.4531,714.8906 2322.2813,714.7188 Q2321.9688,714.3906 2321.4063,714.2031 Q2320.8438,714 2320.2813,714 Q2319.5781,714 2318.9844,714.2813 Q2318.4063,714.5625 2317.9531,715.1875 Q2317.5,715.8125 2317.5,716.6719 L2317.5,717.5938 Q2317.5,718.625 2318.3438,719.3125 Q2319.1875,720 2320.6875,720 Q2321.5781,720 2322.2031,719.7969 Q2322.5625,719.6875 2322.9688,719.3281 Q2323.2344,719.125 2323.375,719.0625 Q2323.5156,719 2323.6875,719 Q2324.0156,719 2324.25,719.2656 Q2324.5,719.5156 2324.5,719.875 Q2324.5,720.2188 2324.1563,720.625 Q2323.6563,721.2188 2322.8594,721.5469 Q2321.8125,722 2320.5313,722 Q2319.0313,722 2317.8281,721.4063 Q2316.8594,720.9375 2316.1719,719.9219 Q2315.5,718.9063 2315.5,717.7031 L2315.5,716.6094 Q2315.5,715.3594 2316.0938,714.2656 Q2316.7031,713.1719 2317.75,712.5938 Q2318.8125,712 2320,712 Q2320.7188,712 2321.3438,712.25 Q2321.9688,712.5 2322.5,713 Z " fill="#000000"/><text fill="#000000" font-family="sans-serif" font-size="14" lengthAdjust="spacing" textLength="103" x="2334.5" y="722.2285">DigitalCertificate</text><line style="stroke:#181818;stroke-width:0.5;" x1="2306.5" x2="2439.5" y1="732.5" y2="732.5"/></g><!--MD5=[cf1ec8291adc4f100e491a8c336ca0ac]
class VaccineAppointment--><g id="elem_VaccineAppointment"><rect codeLine="101" fill="#F1F1F1" height="57.6094" id="VaccineAppointment" rx="2.5" ry="2.5" style="stroke:#181818;stroke-width:0.5;" width="161" x="1948.5" y="539.5"/><ellipse cx="1963.5" cy="555.5" fill="#ADD1B2" rx="11" ry="11" style="stroke:#181818;stroke-width:1.0;"/><path d="M1965.5,552 Q1965.7031,551.5 1965.9375,551.25 Q1966.1719,551 1966.4375,551 Q1966.9063,551 1967.2031,551.2813 Q1967.5,551.5625 1967.5,552.2188 L1967.5,553.7813 Q1967.5,554.4375 1967.2188,554.7188 Q1966.9375,555 1966.5,555 Q1966.1094,555 1965.8594,554.8281 Q1965.6094,554.6563 1965.5,554.2031 Q1965.4531,553.8906 1965.2813,553.7188 Q1964.9688,553.3906 1964.4063,553.2031 Q1963.8438,553 1963.2813,553 Q1962.5781,553 1961.9844,553.2813 Q1961.4063,553.5625 1960.9531,554.1875 Q1960.5,554.8125 1960.5,555.6719 L1960.5,556.5938 Q1960.5,557.625 1961.3438,558.3125 Q1962.1875,559 1963.6875,559 Q1964.5781,559 1965.2031,558.7969 Q1965.5625,558.6875 1965.9688,558.3281 Q1966.2344,558.125 1966.375,558.0625 Q1966.5156,558 1966.6875,558 Q1967.0156,558 1967.25,558.2656 Q1967.5,558.5156 1967.5,558.875 Q1967.5,559.2188 1967.1563,559.625 Q1966.6563,560.2188 1965.8594,560.5469 Q1964.8125,561 1963.5313,561 Q1962.0313,561 1960.8281,560.4063 Q1959.8594,559.9375 1959.1719,558.9219 Q1958.5,557.9063 1958.5,556.7031 L1958.5,555.6094 Q1958.5,554.3594 1959.0938,553.2656 Q1959.7031,552.1719 1960.75,551.5938 Q1961.8125,551 1963,551 Q1963.7188,551 1964.3438,551.25 Q1964.9688,551.5 1965.5,552 Z " fill="#000000"/><text fill="#000000" font-family="sans-serif" font-size="14" lengthAdjust="spacing" textLength="129" x="1977.5" y="561.2285">VaccineAppointment</text><line style="stroke:#181818;stroke-width:0.5;" x1="1949.5" x2="2108.5" y1="571.5" y2="571.5"/><text fill="#000000" font-family="sans-serif" font-size="14" lengthAdjust="spacing" textLength="33" x="1954.5" y="590.0332">-date</text></g><!--MD5=[7cee63e05c54fc7e82ca7f101606cdb1]
class UsersWaitingList--><g id="elem_UsersWaitingList"><rect codeLine="152" fill="#F1F1F1" height="40" id="UsersWaitingList" rx="2.5" ry="2.5" style="stroke:#181818;stroke-width:0.5;" width="137" x="669" y="845.5"/><ellipse cx="684" cy="861.5" fill="#ADD1B2" rx="11" ry="11" style="stroke:#181818;stroke-width:1.0;"/><path d="M686,858 Q686.2031,857.5 686.4375,857.25 Q686.6719,857 686.9375,857 Q687.4063,857 687.7031,857.2813 Q688,857.5625 688,858.2188 L688,859.7813 Q688,860.4375 687.7188,860.7188 Q687.4375,861 687,861 Q686.6094,861 686.3594,860.8281 Q686.1094,860.6563 686,860.2031 Q685.9531,859.8906 685.7813,859.7188 Q685.4688,859.3906 684.9063,859.2031 Q684.3438,859 683.7813,859 Q683.0781,859 682.4844,859.2813 Q681.9063,859.5625 681.4531,860.1875 Q681,860.8125 681,861.6719 L681,862.5938 Q681,863.625 681.8438,864.3125 Q682.6875,865 684.1875,865 Q685.0781,865 685.7031,864.7969 Q686.0625,864.6875 686.4688,864.3281 Q686.7344,864.125 686.875,864.0625 Q687.0156,864 687.1875,864 Q687.5156,864 687.75,864.2656 Q688,864.5156 688,864.875 Q688,865.2188 687.6563,865.625 Q687.1563,866.2188 686.3594,866.5469 Q685.3125,867 684.0313,867 Q682.5313,867 681.3281,866.4063 Q680.3594,865.9375 679.6719,864.9219 Q679,863.9063 679,862.7031 L679,861.6094 Q679,860.3594 679.5938,859.2656 Q680.2031,858.1719 681.25,857.5938 Q682.3125,857 683.5,857 Q684.2188,857 684.8438,857.25 Q685.4688,857.5 686,858 Z " fill="#000000"/><text fill="#000000" font-family="sans-serif" font-size="14" lengthAdjust="spacing" textLength="105" x="698" y="867.2285">UsersWaitingList</text><line style="stroke:#181818;stroke-width:0.5;" x1="670" x2="805" y1="877.5" y2="877.5"/></g><!--MD5=[1869ee9863863a0d2594cbfcdbe20ea7]
class VaccineBulletin--><g id="elem_VaccineBulletin"><rect codeLine="135" fill="#F1F1F1" height="92.8281" id="VaccineBulletin" rx="2.5" ry="2.5" style="stroke:#181818;stroke-width:0.5;" width="151" x="2644" y="806"/><ellipse cx="2669.35" cy="822" fill="#ADD1B2" rx="11" ry="11" style="stroke:#181818;stroke-width:1.0;"/><path d="M2671.35,818.5 Q2671.5531,818 2671.7875,817.75 Q2672.0219,817.5 2672.2875,817.5 Q2672.7563,817.5 2673.0531,817.7813 Q2673.35,818.0625 2673.35,818.7188 L2673.35,820.2813 Q2673.35,820.9375 2673.0688,821.2188 Q2672.7875,821.5 2672.35,821.5 Q2671.9594,821.5 2671.7094,821.3281 Q2671.4594,821.1563 2671.35,820.7031 Q2671.3031,820.3906 2671.1313,820.2188 Q2670.8188,819.8906 2670.2563,819.7031 Q2669.6938,819.5 2669.1313,819.5 Q2668.4281,819.5 2667.8344,819.7813 Q2667.2563,820.0625 2666.8031,820.6875 Q2666.35,821.3125 2666.35,822.1719 L2666.35,823.0938 Q2666.35,824.125 2667.1938,824.8125 Q2668.0375,825.5 2669.5375,825.5 Q2670.4281,825.5 2671.0531,825.2969 Q2671.4125,825.1875 2671.8188,824.8281 Q2672.0844,824.625 2672.225,824.5625 Q2672.3656,824.5 2672.5375,824.5 Q2672.8656,824.5 2673.1,824.7656 Q2673.35,825.0156 2673.35,825.375 Q2673.35,825.7188 2673.0063,826.125 Q2672.5063,826.7188 2671.7094,827.0469 Q2670.6625,827.5 2669.3813,827.5 Q2667.8813,827.5 2666.6781,826.9063 Q2665.7094,826.4375 2665.0219,825.4219 Q2664.35,824.4063 2664.35,823.2031 L2664.35,822.1094 Q2664.35,820.8594 2664.9438,819.7656 Q2665.5531,818.6719 2666.6,818.0938 Q2667.6625,817.5 2668.85,817.5 Q2669.5688,817.5 2670.1938,817.75 Q2670.8188,818 2671.35,818.5 Z " fill="#000000"/><text fill="#000000" font-family="sans-serif" font-size="14" lengthAdjust="spacing" textLength="96" x="2685.65" y="827.7285">VaccineBulletin</text><line style="stroke:#181818;stroke-width:0.5;" x1="2645" x2="2794" y1="838" y2="838"/><text fill="#000000" font-family="sans-serif" font-size="14" lengthAdjust="spacing" textLength="139" x="2650" y="856.5332">-dateTimeOfLastDose</text><text fill="#000000" font-family="sans-serif" font-size="14" lengthAdjust="spacing" textLength="85" x="2650" y="874.1426">-doseNumber</text><text fill="#000000" font-family="sans-serif" font-size="14" lengthAdjust="spacing" textLength="69" x="2650" y="891.752">-lotNumber</text></g><!--MD5=[605056f3b750e89e8a7ae3805405579b]
class AdverseReactions--><g id="elem_AdverseReactions"><rect codeLine="124" fill="#F1F1F1" height="40" id="AdverseReactions" rx="2.5" ry="2.5" style="stroke:#181818;stroke-width:0.5;" width="147" x="3181.5" y="1016.5"/><ellipse cx="3196.5" cy="1032.5" fill="#ADD1B2" rx="11" ry="11" style="stroke:#181818;stroke-width:1.0;"/><path d="M3198.5,1029 Q3198.7031,1028.5 3198.9375,1028.25 Q3199.1719,1028 3199.4375,1028 Q3199.9063,1028 3200.2031,1028.2813 Q3200.5,1028.5625 3200.5,1029.2188 L3200.5,1030.7813 Q3200.5,1031.4375 3200.2188,1031.7188 Q3199.9375,1032 3199.5,1032 Q3199.1094,1032 3198.8594,1031.8281 Q3198.6094,1031.6563 3198.5,1031.2031 Q3198.4531,1030.8906 3198.2813,1030.7188 Q3197.9688,1030.3906 3197.4063,1030.2031 Q3196.8438,1030 3196.2813,1030 Q3195.5781,1030 3194.9844,1030.2813 Q3194.4063,1030.5625 3193.9531,1031.1875 Q3193.5,1031.8125 3193.5,1032.6719 L3193.5,1033.5938 Q3193.5,1034.625 3194.3438,1035.3125 Q3195.1875,1036 3196.6875,1036 Q3197.5781,1036 3198.2031,1035.7969 Q3198.5625,1035.6875 3198.9688,1035.3281 Q3199.2344,1035.125 3199.375,1035.0625 Q3199.5156,1035 3199.6875,1035 Q3200.0156,1035 3200.25,1035.2656 Q3200.5,1035.5156 3200.5,1035.875 Q3200.5,1036.2188 3200.1563,1036.625 Q3199.6563,1037.2188 3198.8594,1037.5469 Q3197.8125,1038 3196.5313,1038 Q3195.0313,1038 3193.8281,1037.4063 Q3192.8594,1036.9375 3192.1719,1035.9219 Q3191.5,1034.9063 3191.5,1033.7031 L3191.5,1032.6094 Q3191.5,1031.3594 3192.0938,1030.2656 Q3192.7031,1029.1719 3193.75,1028.5938 Q3194.8125,1028 3196,1028 Q3196.7188,1028 3197.3438,1028.25 Q3197.9688,1028.5 3198.5,1029 Z " fill="#000000"/><text fill="#000000" font-family="sans-serif" font-size="14" lengthAdjust="spacing" textLength="115" x="3210.5" y="1038.2285">AdverseReactions</text><line style="stroke:#181818;stroke-width:0.5;" x1="3182.5" x2="3327.5" y1="1048.5" y2="1048.5"/></g><!--MD5=[a13ca6a63a04f520383aacb00972fb48]
class EntriesAndExitsList--><g id="elem_EntriesAndExitsList"><rect codeLine="134" fill="#F1F1F1" height="40" id="EntriesAndExitsList" rx="2.5" ry="2.5" style="stroke:#181818;stroke-width:0.5;" width="152" x="1953" y="186.5"/><ellipse cx="1968" cy="202.5" fill="#ADD1B2" rx="11" ry="11" style="stroke:#181818;stroke-width:1.0;"/><path d="M1970,199 Q1970.2031,198.5 1970.4375,198.25 Q1970.6719,198 1970.9375,198 Q1971.4063,198 1971.7031,198.2813 Q1972,198.5625 1972,199.2188 L1972,200.7813 Q1972,201.4375 1971.7188,201.7188 Q1971.4375,202 1971,202 Q1970.6094,202 1970.3594,201.8281 Q1970.1094,201.6563 1970,201.2031 Q1969.9531,200.8906 1969.7813,200.7188 Q1969.4688,200.3906 1968.9063,200.2031 Q1968.3438,200 1967.7813,200 Q1967.0781,200 1966.4844,200.2813 Q1965.9063,200.5625 1965.4531,201.1875 Q1965,201.8125 1965,202.6719 L1965,203.5938 Q1965,204.625 1965.8438,205.3125 Q1966.6875,206 1968.1875,206 Q1969.0781,206 1969.7031,205.7969 Q1970.0625,205.6875 1970.4688,205.3281 Q1970.7344,205.125 1970.875,205.0625 Q1971.0156,205 1971.1875,205 Q1971.5156,205 1971.75,205.2656 Q1972,205.5156 1972,205.875 Q1972,206.2188 1971.6563,206.625 Q1971.1563,207.2188 1970.3594,207.5469 Q1969.3125,208 1968.0313,208 Q1966.5313,208 1965.3281,207.4063 Q1964.3594,206.9375 1963.6719,205.9219 Q1963,204.9063 1963,203.7031 L1963,202.6094 Q1963,201.3594 1963.5938,200.2656 Q1964.2031,199.1719 1965.25,198.5938 Q1966.3125,198 1967.5,198 Q1968.2188,198 1968.8438,198.25 Q1969.4688,198.5 1970,199 Z " fill="#000000"/><text fill="#000000" font-family="sans-serif" font-size="14" lengthAdjust="spacing" textLength="120" x="1982" y="208.2285">EntriesAndExitsList</text><line style="stroke:#181818;stroke-width:0.5;" x1="1954" x2="2104" y1="218.5" y2="218.5"/></g><!--MD5=[fece783277156729c2733e594694f26c]
class DailyTask--><g id="elem_DailyTask"><rect fill="#F1F1F1" height="40" id="DailyTask" rx="2.5" ry="2.5" style="stroke:#181818;stroke-width:0.5;" width="94" x="998.5" y="523.5"/><ellipse cx="1013.5" cy="539.5" fill="#ADD1B2" rx="11" ry="11" style="stroke:#181818;stroke-width:1.0;"/><path d="M1015.5,536 Q1015.7031,535.5 1015.9375,535.25 Q1016.1719,535 1016.4375,535 Q1016.9063,535 1017.2031,535.2813 Q1017.5,535.5625 1017.5,536.2188 L1017.5,537.7813 Q1017.5,538.4375 1017.2188,538.7188 Q1016.9375,539 1016.5,539 Q1016.1094,539 1015.8594,538.8281 Q1015.6094,538.6563 1015.5,538.2031 Q1015.4531,537.8906 1015.2813,537.7188 Q1014.9688,537.3906 1014.4063,537.2031 Q1013.8438,537 1013.2813,537 Q1012.5781,537 1011.9844,537.2813 Q1011.4063,537.5625 1010.9531,538.1875 Q1010.5,538.8125 1010.5,539.6719 L1010.5,540.5938 Q1010.5,541.625 1011.3438,542.3125 Q1012.1875,543 1013.6875,543 Q1014.5781,543 1015.2031,542.7969 Q1015.5625,542.6875 1015.9688,542.3281 Q1016.2344,542.125 1016.375,542.0625 Q1016.5156,542 1016.6875,542 Q1017.0156,542 1017.25,542.2656 Q1017.5,542.5156 1017.5,542.875 Q1017.5,543.2188 1017.1563,543.625 Q1016.6563,544.2188 1015.8594,544.5469 Q1014.8125,545 1013.5313,545 Q1012.0313,545 1010.8281,544.4063 Q1009.8594,543.9375 1009.1719,542.9219 Q1008.5,541.9063 1008.5,540.7031 L1008.5,539.6094 Q1008.5,538.3594 1009.0938,537.2656 Q1009.7031,536.1719 1010.75,535.5938 Q1011.8125,535 1013,535 Q1013.7188,535 1014.3438,535.25 Q1014.9688,535.5 1015.5,536 Z " fill="#000000"/><text fill="#000000" font-family="sans-serif" font-size="14" lengthAdjust="spacing" textLength="62" x="1027.5" y="545.2285">DailyTask</text><line style="stroke:#181818;stroke-width:0.5;" x1="999.5" x2="1091.5" y1="555.5" y2="555.5"/></g><!--MD5=[6ea91c1482e11d5ab58156f1589eb8b8]
class VaccinationStatistics--><g id="elem_VaccinationStatistics"><rect fill="#F1F1F1" height="40" id="VaccinationStatistics" rx="2.5" ry="2.5" style="stroke:#181818;stroke-width:0.5;" width="161" x="1754" y="418.5"/><ellipse cx="1769" cy="434.5" fill="#ADD1B2" rx="11" ry="11" style="stroke:#181818;stroke-width:1.0;"/><path d="M1771,431 Q1771.2031,430.5 1771.4375,430.25 Q1771.6719,430 1771.9375,430 Q1772.4063,430 1772.7031,430.2813 Q1773,430.5625 1773,431.2188 L1773,432.7813 Q1773,433.4375 1772.7188,433.7188 Q1772.4375,434 1772,434 Q1771.6094,434 1771.3594,433.8281 Q1771.1094,433.6563 1771,433.2031 Q1770.9531,432.8906 1770.7813,432.7188 Q1770.4688,432.3906 1769.9063,432.2031 Q1769.3438,432 1768.7813,432 Q1768.0781,432 1767.4844,432.2813 Q1766.9063,432.5625 1766.4531,433.1875 Q1766,433.8125 1766,434.6719 L1766,435.5938 Q1766,436.625 1766.8438,437.3125 Q1767.6875,438 1769.1875,438 Q1770.0781,438 1770.7031,437.7969 Q1771.0625,437.6875 1771.4688,437.3281 Q1771.7344,437.125 1771.875,437.0625 Q1772.0156,437 1772.1875,437 Q1772.5156,437 1772.75,437.2656 Q1773,437.5156 1773,437.875 Q1773,438.2188 1772.6563,438.625 Q1772.1563,439.2188 1771.3594,439.5469 Q1770.3125,440 1769.0313,440 Q1767.5313,440 1766.3281,439.4063 Q1765.3594,438.9375 1764.6719,437.9219 Q1764,436.9063 1764,435.7031 L1764,434.6094 Q1764,433.3594 1764.5938,432.2656 Q1765.2031,431.1719 1766.25,430.5938 Q1767.3125,430 1768.5,430 Q1769.2188,430 1769.8438,430.25 Q1770.4688,430.5 1771,431 Z " fill="#000000"/><text fill="#000000" font-family="sans-serif" font-size="14" lengthAdjust="spacing" textLength="129" x="1783" y="440.2285">VaccinationStatistics</text><line style="stroke:#181818;stroke-width:0.5;" x1="1755" x2="1914" y1="450.5" y2="450.5"/></g><!--MD5=[0272a23692617c5db7456d6ea983d764]
class PerformanceAnalyzer--><g id="elem_PerformanceAnalyzer"><rect codeLine="176" fill="#F1F1F1" height="40" id="PerformanceAnalyzer" rx="2.5" ry="2.5" style="stroke:#181818;stroke-width:0.5;" width="167" x="1557" y="259.5"/><ellipse cx="1572" cy="275.5" fill="#ADD1B2" rx="11" ry="11" style="stroke:#181818;stroke-width:1.0;"/><path d="M1574,272 Q1574.2031,271.5 1574.4375,271.25 Q1574.6719,271 1574.9375,271 Q1575.4063,271 1575.7031,271.2813 Q1576,271.5625 1576,272.2188 L1576,273.7813 Q1576,274.4375 1575.7188,274.7188 Q1575.4375,275 1575,275 Q1574.6094,275 1574.3594,274.8281 Q1574.1094,274.6563 1574,274.2031 Q1573.9531,273.8906 1573.7813,273.7188 Q1573.4688,273.3906 1572.9063,273.2031 Q1572.3438,273 1571.7813,273 Q1571.0781,273 1570.4844,273.2813 Q1569.9063,273.5625 1569.4531,274.1875 Q1569,274.8125 1569,275.6719 L1569,276.5938 Q1569,277.625 1569.8438,278.3125 Q1570.6875,279 1572.1875,279 Q1573.0781,279 1573.7031,278.7969 Q1574.0625,278.6875 1574.4688,278.3281 Q1574.7344,278.125 1574.875,278.0625 Q1575.0156,278 1575.1875,278 Q1575.5156,278 1575.75,278.2656 Q1576,278.5156 1576,278.875 Q1576,279.2188 1575.6563,279.625 Q1575.1563,280.2188 1574.3594,280.5469 Q1573.3125,281 1572.0313,281 Q1570.5313,281 1569.3281,280.4063 Q1568.3594,279.9375 1567.6719,278.9219 Q1567,277.9063 1567,276.7031 L1567,275.6094 Q1567,274.3594 1567.5938,273.2656 Q1568.2031,272.1719 1569.25,271.5938 Q1570.3125,271 1571.5,271 Q1572.2188,271 1572.8438,271.25 Q1573.4688,271.5 1574,272 Z " fill="#000000"/><text fill="#000000" font-family="sans-serif" font-size="14" lengthAdjust="spacing" textLength="135" x="1586" y="281.2285">PerformanceAnalyzer</text><line style="stroke:#181818;stroke-width:0.5;" x1="1558" x2="1723" y1="291.5" y2="291.5"/></g><!--MD5=[950bab46f39ba9ae59885963abb53c18]
class Arrival--><g id="elem_Arrival"><rect codeLine="165" fill="#F1F1F1" height="92.8281" id="Arrival" rx="2.5" ry="2.5" style="stroke:#181818;stroke-width:0.5;" width="97" x="2671" y="7"/><ellipse cx="2697.25" cy="23" fill="#ADD1B2" rx="11" ry="11" style="stroke:#181818;stroke-width:1.0;"/><path d="M2699.25,19.5 Q2699.4531,19 2699.6875,18.75 Q2699.9219,18.5 2700.1875,18.5 Q2700.6563,18.5 2700.9531,18.7813 Q2701.25,19.0625 2701.25,19.7188 L2701.25,21.2813 Q2701.25,21.9375 2700.9688,22.2188 Q2700.6875,22.5 2700.25,22.5 Q2699.8594,22.5 2699.6094,22.3281 Q2699.3594,22.1563 2699.25,21.7031 Q2699.2031,21.3906 2699.0313,21.2188 Q2698.7188,20.8906 2698.1563,20.7031 Q2697.5938,20.5 2697.0313,20.5 Q2696.3281,20.5 2695.7344,20.7813 Q2695.1563,21.0625 2694.7031,21.6875 Q2694.25,22.3125 2694.25,23.1719 L2694.25,24.0938 Q2694.25,25.125 2695.0938,25.8125 Q2695.9375,26.5 2697.4375,26.5 Q2698.3281,26.5 2698.9531,26.2969 Q2699.3125,26.1875 2699.7188,25.8281 Q2699.9844,25.625 2700.125,25.5625 Q2700.2656,25.5 2700.4375,25.5 Q2700.7656,25.5 2701,25.7656 Q2701.25,26.0156 2701.25,26.375 Q2701.25,26.7188 2700.9063,27.125 Q2700.4063,27.7188 2699.6094,28.0469 Q2698.5625,28.5 2697.2813,28.5 Q2695.7813,28.5 2694.5781,27.9063 Q2693.6094,27.4375 2692.9219,26.4219 Q2692.25,25.4063 2692.25,24.2031 L2692.25,23.1094 Q2692.25,21.8594 2692.8438,20.7656 Q2693.4531,19.6719 2694.5,19.0938 Q2695.5625,18.5 2696.75,18.5 Q2697.4688,18.5 2698.0938,18.75 Q2698.7188,19 2699.25,19.5 Z " fill="#000000"/><text fill="#000000" font-family="sans-serif" font-size="14" lengthAdjust="spacing" textLength="40" x="2713.75" y="28.7285">Arrival</text><line style="stroke:#181818;stroke-width:0.5;" x1="2672" x2="2767" y1="39" y2="39"/><text fill="#000000" font-family="sans-serif" font-size="14" lengthAdjust="spacing" textLength="76" x="2677" y="57.5332">-snsNumber</text><text fill="#000000" font-family="sans-serif" font-size="14" lengthAdjust="spacing" textLength="75" x="2677" y="75.1426">-arrivalTime</text><text fill="#000000" font-family="sans-serif" font-size="14" lengthAdjust="spacing" textLength="85" x="2677" y="92.752">-vaccineType</text></g><!--MD5=[48df65130f715be277a00ee6d54f7c6c]
class Departure--><g id="elem_Departure"><rect codeLine="171" fill="#F1F1F1" height="75.2188" id="Departure" rx="2.5" ry="2.5" style="stroke:#181818;stroke-width:0.5;" width="110" x="2664.5" y="180"/><ellipse cx="2685.8" cy="196" fill="#ADD1B2" rx="11" ry="11" style="stroke:#181818;stroke-width:1.0;"/><path d="M2687.8,192.5 Q2688.0031,192 2688.2375,191.75 Q2688.4719,191.5 2688.7375,191.5 Q2689.2063,191.5 2689.5031,191.7813 Q2689.8,192.0625 2689.8,192.7188 L2689.8,194.2813 Q2689.8,194.9375 2689.5188,195.2188 Q2689.2375,195.5 2688.8,195.5 Q2688.4094,195.5 2688.1594,195.3281 Q2687.9094,195.1563 2687.8,194.7031 Q2687.7531,194.3906 2687.5813,194.2188 Q2687.2688,193.8906 2686.7063,193.7031 Q2686.1438,193.5 2685.5813,193.5 Q2684.8781,193.5 2684.2844,193.7813 Q2683.7063,194.0625 2683.2531,194.6875 Q2682.8,195.3125 2682.8,196.1719 L2682.8,197.0938 Q2682.8,198.125 2683.6438,198.8125 Q2684.4875,199.5 2685.9875,199.5 Q2686.8781,199.5 2687.5031,199.2969 Q2687.8625,199.1875 2688.2688,198.8281 Q2688.5344,198.625 2688.675,198.5625 Q2688.8156,198.5 2688.9875,198.5 Q2689.3156,198.5 2689.55,198.7656 Q2689.8,199.0156 2689.8,199.375 Q2689.8,199.7188 2689.4563,200.125 Q2688.9563,200.7188 2688.1594,201.0469 Q2687.1125,201.5 2685.8313,201.5 Q2684.3313,201.5 2683.1281,200.9063 Q2682.1594,200.4375 2681.4719,199.4219 Q2680.8,198.4063 2680.8,197.2031 L2680.8,196.1094 Q2680.8,194.8594 2681.3938,193.7656 Q2682.0031,192.6719 2683.05,192.0938 Q2684.1125,191.5 2685.3,191.5 Q2686.0188,191.5 2686.6438,191.75 Q2687.2688,192 2687.8,192.5 Z " fill="#000000"/><text fill="#000000" font-family="sans-serif" font-size="14" lengthAdjust="spacing" textLength="64" x="2701.2" y="201.7285">Departure</text><line style="stroke:#181818;stroke-width:0.5;" x1="2665.5" x2="2773.5" y1="212" y2="212"/><text fill="#000000" font-family="sans-serif" font-size="14" lengthAdjust="spacing" textLength="76" x="2670.5" y="230.5332">-snsNumber</text><text fill="#000000" font-family="sans-serif" font-size="14" lengthAdjust="spacing" textLength="98" x="2670.5" y="248.1426">-departureTime</text></g><!--MD5=[4d612461808e98a9b5be24cda71cf6f5]
class InformationToAnalyze--><g id="elem_InformationToAnalyze"><rect codeLine="179" fill="#F1F1F1" height="40" id="InformationToAnalyze" rx="2.5" ry="2.5" style="stroke:#181818;stroke-width:0.5;" width="168" x="1945" y="106.5"/><ellipse cx="1960" cy="122.5" fill="#ADD1B2" rx="11" ry="11" style="stroke:#181818;stroke-width:1.0;"/><path d="M1962,119 Q1962.2031,118.5 1962.4375,118.25 Q1962.6719,118 1962.9375,118 Q1963.4063,118 1963.7031,118.2813 Q1964,118.5625 1964,119.2188 L1964,120.7813 Q1964,121.4375 1963.7188,121.7188 Q1963.4375,122 1963,122 Q1962.6094,122 1962.3594,121.8281 Q1962.1094,121.6563 1962,121.2031 Q1961.9531,120.8906 1961.7813,120.7188 Q1961.4688,120.3906 1960.9063,120.2031 Q1960.3438,120 1959.7813,120 Q1959.0781,120 1958.4844,120.2813 Q1957.9063,120.5625 1957.4531,121.1875 Q1957,121.8125 1957,122.6719 L1957,123.5938 Q1957,124.625 1957.8438,125.3125 Q1958.6875,126 1960.1875,126 Q1961.0781,126 1961.7031,125.7969 Q1962.0625,125.6875 1962.4688,125.3281 Q1962.7344,125.125 1962.875,125.0625 Q1963.0156,125 1963.1875,125 Q1963.5156,125 1963.75,125.2656 Q1964,125.5156 1964,125.875 Q1964,126.2188 1963.6563,126.625 Q1963.1563,127.2188 1962.3594,127.5469 Q1961.3125,128 1960.0313,128 Q1958.5313,128 1957.3281,127.4063 Q1956.3594,126.9375 1955.6719,125.9219 Q1955,124.9063 1955,123.7031 L1955,122.6094 Q1955,121.3594 1955.5938,120.2656 Q1956.2031,119.1719 1957.25,118.5938 Q1958.3125,118 1959.5,118 Q1960.2188,118 1960.8438,118.25 Q1961.4688,118.5 1962,119 Z " fill="#000000"/><text fill="#000000" font-family="sans-serif" font-size="14" lengthAdjust="spacing" textLength="136" x="1974" y="128.2285">InformationToAnalyze</text><line style="stroke:#181818;stroke-width:0.5;" x1="1946" x2="2112" y1="138.5" y2="138.5"/></g><!--MD5=[9b8ebf81449376133935fbe26f4b2cd4]
link Administrator to Application--><g id="link_Administrator_Application"><path codeLine="22" d="M443.12,704.5 C510.64,704.5 622.43,704.5 686.76,704.5 " fill="none" id="Administrator-Application" style="stroke:#181818;stroke-width:1.0;"/><polygon fill="#000000" points="483.5,695.6758,474.4549,692.7369,474.4549,698.6147,483.5,695.6758" style="stroke:#000000;stroke-width:1.0;"/><text fill="#000000" font-family="sans-serif" font-size="13" lengthAdjust="spacing" textLength="53" x="487.5" y="700.9951">manages</text><text fill="#000000" font-family="sans-serif" font-size="13" lengthAdjust="spacing" textLength="5" x="450.8229" y="719.0426">*</text><text fill="#000000" font-family="sans-serif" font-size="13" lengthAdjust="spacing" textLength="7" x="672.1325" y="719.1448">1</text></g><!--MD5=[bc55124b44ee97098f5269cfae7858cc]
reverse link ApplicationUser to Employee--><g id="link_ApplicationUser_Employee"><path codeLine="28" d="M162.09,738.86 C176.52,733.22 190.99,727.56 203.9,722.52 " fill="none" id="ApplicationUser-backto-Employee" style="stroke:#181818;stroke-width:1.0;"/><polygon fill="none" points="164.45,745.45,143.27,746.21,159.35,732.41,164.45,745.45" style="stroke:#181818;stroke-width:1.0;"/></g><!--MD5=[ae7cf994a8037bd5ae694a195d04bab2]
reverse link ApplicationUser to SnsUser--><g id="link_ApplicationUser_SnsUser"><path codeLine="29" d="M163.14,786.47 C190.83,789.84 221.63,792.5 250,792.5 C250,792.5 250,792.5 1046.5,792.5 C1112.9,792.5 1185.47,767.95 1234.36,747.51 " fill="none" id="ApplicationUser-backto-SnsUser" style="stroke:#181818;stroke-width:1.0;"/><polygon fill="none" points="162.06,793.39,143.14,783.84,163.88,779.5,162.06,793.39" style="stroke:#181818;stroke-width:1.0;"/></g><!--MD5=[6716344a46572fc99c27bf4e50ddbd3d]
reverse link Employee to Nurse--><g id="link_Employee_Nurse"><path codeLine="30" d="M296.56,747.74 C352.12,801.67 444.78,891.6 485.84,931.45 " fill="none" id="Employee-backto-Nurse" style="stroke:#181818;stroke-width:1.0;"/><polygon fill="none" points="291.42,752.51,281.94,733.56,301.17,742.47,291.42,752.51" style="stroke:#181818;stroke-width:1.0;"/></g><!--MD5=[bfff716514ca687b645fe473c6e098a4]
reverse link Employee to Receptionist--><g id="link_Employee_Receptionist"><path codeLine="31" d="M317.27,670.93 C320.85,669.65 324.44,668.5 328,667.5 C451.29,632.99 602.84,628.21 682.18,628.42 " fill="none" id="Employee-backto-Receptionist" style="stroke:#181818;stroke-width:1.0;"/><polygon fill="none" points="319.55,677.56,298.39,678.67,314.24,664.61,319.55,677.56" style="stroke:#181818;stroke-width:1.0;"/></g><!--MD5=[f7fb1bbd8b4f4021e9754ae6fe2871a0]
reverse link Employee to Administrator--><g id="link_Employee_Administrator"><path codeLine="32" d="M318.61,704.5 C321.73,704.5 324.84,704.5 327.92,704.5 " fill="none" id="Employee-backto-Administrator" style="stroke:#181818;stroke-width:1.0;"/><polygon fill="none" points="318.34,711.5,298.34,704.5,318.34,697.5,318.34,711.5" style="stroke:#181818;stroke-width:1.0;"/></g><!--MD5=[98f7f3dc8d9719d04ad14614c4ea123f]
reverse link Employee to CenterCoordinator--><g id="link_Employee_CenterCoordinator"><path codeLine="33" d="M267.05,656.24 C297.28,570.03 374.06,398.5 506.5,398.5 C506.5,398.5 506.5,398.5 1046.5,398.5 C1104.18,398.5 1169.29,393.77 1217.97,389.3 " fill="none" id="Employee-backto-CenterCoordinator" style="stroke:#181818;stroke-width:1.0;"/><polygon fill="none" points="273.6,658.71,260.59,675.44,260.33,654.25,273.6,658.71" style="stroke:#181818;stroke-width:1.0;"/></g><!--MD5=[a09fc339ad85d4e67aa3195beeccb7d9]
reverse link VaccinationCenter to MassVaccinationCenter--><g id="link_VaccinationCenter_MassVaccinationCenter"><path d="M2475.42,334.44 C2524.04,333.45 2581.76,332.28 2628.76,331.32 " fill="none" id="VaccinationCenter-backto-MassVaccinationCenter" style="stroke:#181818;stroke-width:1.0;"/><polygon fill="none" points="2475.34,341.44,2455.21,334.85,2475.06,327.45,2475.34,341.44" style="stroke:#181818;stroke-width:1.0;"/></g><!--MD5=[860a319d9f073c66a49856aa2bd7c3ed]
reverse link VaccinationCenter to HealthcareCenter--><g id="link_VaccinationCenter_HealthcareCenter"><path d="M2474.68,361.63 C2530.22,375.5 2597.83,392.38 2647.76,404.84 " fill="none" id="VaccinationCenter-backto-HealthcareCenter" style="stroke:#181818;stroke-width:1.0;"/><polygon fill="none" points="2472.91,368.41,2455.21,356.77,2476.31,354.82,2472.91,368.41" style="stroke:#181818;stroke-width:1.0;"/></g><!--MD5=[a98252b7739f22b1ddec3651c1c3aaea]
link Vaccine to AdministrationProcess--><g id="link_Vaccine_AdministrationProcess"><path codeLine="93" d="M3060.23,852.5 C3089.76,852.5 3130.97,852.5 3167.8,852.5 " fill="none" id="Vaccine-AdministrationProcess" style="stroke:#181818;stroke-width:1.0;"/><polygon fill="#000000" points="3101,843.6758,3091.9549,840.7369,3091.9549,846.6147,3101,843.6758" style="stroke:#000000;stroke-width:1.0;"/><text fill="#000000" font-family="sans-serif" font-size="13" lengthAdjust="spacing" textLength="32" x="3105" y="848.9951">has a</text><text fill="#000000" font-family="sans-serif" font-size="13" lengthAdjust="spacing" textLength="7" x="3067.918" y="867.4151">1</text><text fill="#000000" font-family="sans-serif" font-size="13" lengthAdjust="spacing" textLength="5" x="3155.0914" y="866.6789">*</text></g><!--MD5=[7991057a0b57fcb72665747661b5eb1a]
link VaccineType to Vaccine--><g id="link_VaccineType_Vaccine"><path codeLine="94" d="M2599.35,655.96 C2696.55,701.59 2893.39,794 2977.94,833.69 " fill="none" id="VaccineType-Vaccine" style="stroke:#181818;stroke-width:1.0;"/><polygon fill="#000000" points="2700.4739,662.551,2707.4128,669.0551,2709.9106,663.7344,2700.4739,662.551" style="stroke:#000000;stroke-width:1.0;"/><text fill="#000000" font-family="sans-serif" font-size="13" lengthAdjust="spacing" textLength="24" x="2714" y="669.9951">is of</text><text fill="#000000" font-family="sans-serif" font-size="13" lengthAdjust="spacing" textLength="5" x="2607.0183" y="673.9038">*</text><text fill="#000000" font-family="sans-serif" font-size="13" lengthAdjust="spacing" textLength="7" x="2963.0028" y="845.3062">1</text></g><!--MD5=[894f32e3bda40c7272620a3388816726]
link SnsUser to DigitalCertificate--><g id="link_SnsUser_DigitalCertificate"><path codeLine="99" d="M1351.58,720.5 C1535.59,720.5 2108.84,720.5 2305.21,720.5 " fill="none" id="SnsUser-DigitalCertificate" style="stroke:#181818;stroke-width:1.0;"/><polygon fill="#000000" points="1812,711.6758,1802.9549,708.7369,1802.9549,714.6147,1812,711.6758" style="stroke:#000000;stroke-width:1.0;"/><text fill="#000000" font-family="sans-serif" font-size="13" lengthAdjust="spacing" textLength="50" x="1816" y="716.9951">requests</text><text fill="#000000" font-family="sans-serif" font-size="13" lengthAdjust="spacing" textLength="7" x="1359.534" y="735.0677">1</text><text fill="#000000" font-family="sans-serif" font-size="13" lengthAdjust="spacing" textLength="7" x="2290.4127" y="734.8893">1</text></g><!--MD5=[cc5e2fb97d9f5c96dda5e8bbfd01385e]
link SnsUser to VaccineAppointment--><g id="link_SnsUser_VaccineAppointment"><path codeLine="105" d="M1351.64,705.57 C1366.7,701.81 1382.93,697.89 1398,694.5 C1594.97,650.21 1828.35,605.56 1948.18,583.2 " fill="none" id="SnsUser-VaccineAppointment" style="stroke:#181818;stroke-width:1.0;"/><polygon fill="#000000" points="1613.398,616.671,1603.9469,615.6097,1605.128,621.3676,1613.398,616.671" style="stroke:#000000;stroke-width:1.0;"/><text fill="#000000" font-family="sans-serif" font-size="13" lengthAdjust="spacing" textLength="59" x="1617.5" y="622.9951">schedules</text><text fill="#000000" font-family="sans-serif" font-size="13" lengthAdjust="spacing" textLength="7" x="1359.6017" y="718.2248">1</text><text fill="#000000" font-family="sans-serif" font-size="13" lengthAdjust="spacing" textLength="5" x="1935.4989" y="598.822">*</text></g><!--MD5=[ead49c6eb232874c9bfdd14aaf3032df]
link Receptionist to UsersWaitingList--><g id="link_Receptionist_UsersWaitingList"><path codeLine="110" d="M690.74,649.62 C656.12,667.49 611.97,697.34 594,739.5 C573.46,787.69 632.94,824.39 681.48,845.43 " fill="none" id="Receptionist-UsersWaitingList" style="stroke:#181818;stroke-width:1.0;"/><polygon fill="#000000" points="576.7638,753.6702,580.1267,744.774,574.2554,744.4964,576.7638,753.6702" style="stroke:#000000;stroke-width:1.0;"/><text fill="#000000" font-family="sans-serif" font-size="13" lengthAdjust="spacing" textLength="52" x="586" y="753.9951">atualizes</text><text fill="#000000" font-family="sans-serif" font-size="13" lengthAdjust="spacing" textLength="5" x="671.8856" y="671.0733">*</text><text fill="#000000" font-family="sans-serif" font-size="13" lengthAdjust="spacing" textLength="7" x="656.996" y="834.7312">1</text></g><!--MD5=[a130e805f12c6caaf0787465d0f0d87e]
link Nurse to UsersWaitingList--><g id="link_Nurse_UsersWaitingList"><path codeLine="111" d="M542.02,937.49 C551.66,933.54 562.22,929.28 572,925.5 C607.72,911.68 648.13,896.93 679.96,885.51 " fill="none" id="Nurse-UsersWaitingList" style="stroke:#181818;stroke-width:1.0;"/><polygon fill="#000000" points="586.6788,890.9127,577.1784,891.352,579.2511,896.8523,586.6788,890.9127" style="stroke:#000000;stroke-width:1.0;"/><text fill="#000000" font-family="sans-serif" font-size="13" lengthAdjust="spacing" textLength="42" x="591" y="897.9951">checks</text><text fill="#000000" font-family="sans-serif" font-size="13" lengthAdjust="spacing" textLength="5" x="550.1181" y="930.2089">*</text><text fill="#000000" font-family="sans-serif" font-size="13" lengthAdjust="spacing" textLength="7" x="655.7925" y="906.9324">1</text></g><!--MD5=[49bdc4f43c0486f86f6744f0a65b0571]
link Nurse to Vaccine--><g id="link_Nurse_Vaccine"><path codeLine="112" d="M542.24,969.05 C585.87,990.08 664.78,1022.5 736.5,1022.5 C736.5,1022.5 736.5,1022.5 2720.5,1022.5 C2824.01,1022.5 2924.25,943.96 2977.84,893.65 " fill="none" id="Nurse-Vaccine" style="stroke:#181818;stroke-width:1.0;"/><polygon fill="#000000" points="1609.4976,1013.5211,1600.3659,1010.8634,1600.5478,1016.7385,1609.4976,1013.5211" style="stroke:#000000;stroke-width:1.0;"/><text fill="#000000" font-family="sans-serif" font-size="13" lengthAdjust="spacing" textLength="67" x="1613.5" y="1018.9951">administers</text><text fill="#000000" font-family="sans-serif" font-size="13" lengthAdjust="spacing" textLength="7" x="550.127" y="987.8511">1</text><text fill="#000000" font-family="sans-serif" font-size="13" lengthAdjust="spacing" textLength="5" x="2965.0631" y="915.9466">*</text></g><!--MD5=[d6d5ce89de07d138e2abbf7ac69e87fb]
link VaccineAppointment to VaccineType--><g id="link_VaccineAppointment_VaccineType"><path codeLine="113" d="M2109.56,578 C2213.78,590.44 2393.9,611.94 2484.91,622.8 " fill="none" id="VaccineAppointment-VaccineType" style="stroke:#181818;stroke-width:1.0;"/><polygon fill="#000000" points="2152.9648,574.2684,2144.3317,570.2782,2143.6351,576.1146,2152.9648,574.2684" style="stroke:#000000;stroke-width:1.0;"/><text fill="#000000" font-family="sans-serif" font-size="13" lengthAdjust="spacing" textLength="103" x="2157" y="578.9951">is associated to a</text><text fill="#000000" font-family="sans-serif" font-size="13" lengthAdjust="spacing" textLength="5" x="2117.4767" y="593.1985">*</text><text fill="#000000" font-family="sans-serif" font-size="13" lengthAdjust="spacing" textLength="7" x="2470.1469" y="636.4952">1</text></g><!--MD5=[cb1b4381e3f58fc8df8a798af52e3711]
link UsersWaitingList to SnsUser--><g id="link_UsersWaitingList_SnsUser"><path codeLine="114" d="M806.16,870.08 C890.35,873.7 1037.59,873.13 1157,836.5 C1205.01,821.77 1246.46,779 1270.34,749.73 " fill="none" id="UsersWaitingList-SnsUser" style="stroke:#181818;stroke-width:1.0;"/><polygon fill="#000000" points="1037.34,826.4209,1027.8468,825.8461,1029.322,831.5359,1037.34,826.4209" style="stroke:#000000;stroke-width:1.0;"/><text fill="#000000" font-family="sans-serif" font-size="13" lengthAdjust="spacing" textLength="21" x="1041.5" y="832.9951">has</text><text fill="#000000" font-family="sans-serif" font-size="13" lengthAdjust="spacing" textLength="7" x="814.0525" y="884.9703">1</text><text fill="#000000" font-family="sans-serif" font-size="13" lengthAdjust="spacing" textLength="5" x="1260.3866" y="770.6278">*</text></g><!--MD5=[a07e592682deace6ce66f6c24dd9b853]
link VaccineBulletin to AdverseReactions--><g id="link_VaccineBulletin_AdverseReactions"><path codeLine="126" d="M2795.24,878.28 C2902.64,915.32 3098.37,982.82 3195.75,1016.41 " fill="none" id="VaccineBulletin-AdverseReactions" style="stroke:#181818;stroke-width:1.0;"/><polygon fill="#000000" points="2986.7268,933.306,2979.1342,927.5786,2977.2177,933.1353,2986.7268,933.306" style="stroke:#000000;stroke-width:1.0;"/><text fill="#000000" font-family="sans-serif" font-size="13" lengthAdjust="spacing" textLength="69" x="2991" y="936.9951">can have an</text><text fill="#000000" font-family="sans-serif" font-size="13" lengthAdjust="spacing" textLength="5" x="2802.9418" y="895.1261">*</text><text fill="#000000" font-family="sans-serif" font-size="13" lengthAdjust="spacing" textLength="7" x="3170.3172" y="1005.7053">1</text></g><!--MD5=[fdae96c7eefb5be58cdd531dc437169a]
link Nurse to VaccineBulletin--><g id="link_Nurse_VaccineBulletin"><path codeLine="128" d="M542.11,951.5 C586.58,951.5 667.43,951.5 736.5,951.5 C736.5,951.5 736.5,951.5 2374,951.5 C2469.99,951.5 2575.38,915.56 2643.99,886.99 " fill="none" id="Nurse-VaccineBulletin" style="stroke:#181818;stroke-width:1.0;"/><polygon fill="#000000" points="1443.4976,942.5224,1434.3667,939.8623,1434.547,945.7374,1443.4976,942.5224" style="stroke:#000000;stroke-width:1.0;"/><text fill="#000000" font-family="sans-serif" font-size="13" lengthAdjust="spacing" textLength="43" x="1447.5" y="947.9951">records</text><text fill="#000000" font-family="sans-serif" font-size="13" lengthAdjust="spacing" textLength="7" x="549.9702" y="966.6814">1</text><text fill="#000000" font-family="sans-serif" font-size="13" lengthAdjust="spacing" textLength="5" x="2630.9452" y="904.8939">*</text></g><!--MD5=[95c6a4c232b9987cda7fb042eccfe7e5]
link Nurse to AdverseReactions--><g id="link_Nurse_AdverseReactions"><path codeLine="129" d="M523.09,971.64 C555.96,1014.42 640.47,1110.5 736.5,1110.5 C736.5,1110.5 736.5,1110.5 3020,1110.5 C3091.79,1110.5 3170.45,1078.44 3215.84,1056.53 " fill="none" id="Nurse-AdverseReactions" style="stroke:#181818;stroke-width:1.0;"/><polygon fill="#000000" points="1815.4975,1101.8333,1806.5495,1098.6109,1806.3643,1104.4858,1815.4975,1101.8333" style="stroke:#000000;stroke-width:1.0;"/><text fill="#000000" font-family="sans-serif" font-size="13" lengthAdjust="spacing" textLength="43" x="1819.5" y="1106.9951">records</text><text fill="#000000" font-family="sans-serif" font-size="13" lengthAdjust="spacing" textLength="7" x="519.4903" y="993.0989">1</text><text fill="#000000" font-family="sans-serif" font-size="13" lengthAdjust="spacing" textLength="5" x="3199.1231" y="1077.958">*</text></g><!--MD5=[2075be8de63a33f6fa84805c185bc4f8]
link Application to SnsUser--><g id="link_Application_SnsUser"><path codeLine="141" d="M788.11,705.93 C890.53,708.89 1124.92,715.67 1234.08,718.83 " fill="none" id="Application-SnsUser" style="stroke:#181818;stroke-width:1.0;"/><polygon fill="#000000" points="943.9979,700.8203,935.0416,697.6211,934.8716,703.4965,943.9979,700.8203" style="stroke:#000000;stroke-width:1.0;"/><text fill="#000000" font-family="sans-serif" font-size="13" lengthAdjust="spacing" textLength="208" x="948" y="705.9951">requests authorization to send SMS</text><text fill="#000000" font-family="sans-serif" font-size="13" lengthAdjust="spacing" textLength="7" x="796.0574" y="720.836">1</text><text fill="#000000" font-family="sans-serif" font-size="13" lengthAdjust="spacing" textLength="5" x="1221.5944" y="733.1418">*</text></g><!--MD5=[2075be8de63a33f6fa84805c185bc4f8]
link Application to SnsUser--><g id="link_Application_SnsUser"><path codeLine="142" d="M788.21,690.43 C803.42,686.76 820.28,683.33 836,681.5 C891.34,675.06 974.73,662.45 1157,683.5 C1182.83,686.48 1210.65,693.44 1234.29,700.52 " fill="none" id="Application-SnsUser-1" style="stroke:#181818;stroke-width:1.0;"/><polygon fill="#000000" points="1032.4987,662.7888,1023.5224,659.6461,1023.3895,665.5225,1032.4987,662.7888" style="stroke:#000000;stroke-width:1.0;"/><text fill="#000000" font-family="sans-serif" font-size="13" lengthAdjust="spacing" textLength="31" x="1036.5" y="667.9951">notify</text><text fill="#000000" font-family="sans-serif" font-size="13" lengthAdjust="spacing" textLength="7" x="795.8333" y="703.0962">1</text><text fill="#000000" font-family="sans-serif" font-size="13" lengthAdjust="spacing" textLength="5" x="1221.4475" y="712.5277">*</text></g><!--MD5=[5cdf538e28483f16b294670c209aa238]
link EntriesAndExitsList to VaccinationCenter--><g id="link_EntriesAndExitsList_VaccinationCenter"><path codeLine="143" d="M2105.19,220.95 C2161.49,232.36 2233.35,248.32 2261,260.5 C2271.05,264.93 2281.14,270.29 2290.94,276.09 " fill="none" id="EntriesAndExitsList-VaccinationCenter" style="stroke:#181818;stroke-width:1.0;"/><polygon fill="#000000" points="2184.2067,219.2529,2192.0415,224.6443,2193.7142,219.0095,2184.2067,219.2529" style="stroke:#000000;stroke-width:1.0;"/><text fill="#000000" font-family="sans-serif" font-size="13" lengthAdjust="spacing" textLength="21" x="2198" y="225.9951">has</text><text fill="#000000" font-family="sans-serif" font-size="13" lengthAdjust="spacing" textLength="5" x="2112.936" y="236.6723">*</text><text fill="#000000" font-family="sans-serif" font-size="13" lengthAdjust="spacing" textLength="7" x="2276.0524" y="284.7914">1</text></g><!--MD5=[d35087f30a174783cf89ba80439f9811]
link Receptionist to VaccineAppointment--><g id="link_Receptionist_VaccineAppointment"><path codeLine="144" d="M752.57,609.28 C769.63,586.34 800.53,549.54 836,529.5 C874.95,507.49 889.56,511.65 934,506.5 C1312.18,462.72 1767.64,525.28 1948.45,554.67 " fill="none" id="Receptionist-VaccineAppointment" style="stroke:#181818;stroke-width:1.0;"/><polygon fill="#000000" points="1265.9948,481.4477,1256.8251,478.9244,1257.0932,484.7962,1265.9948,481.4477" style="stroke:#000000;stroke-width:1.0;"/><text fill="#000000" font-family="sans-serif" font-size="13" lengthAdjust="spacing" textLength="59" x="1270" y="486.9951">schedules</text><text fill="#000000" font-family="sans-serif" font-size="13" lengthAdjust="spacing" textLength="7" x="748.9687" y="598.5371">1</text><text fill="#000000" font-family="sans-serif" font-size="13" lengthAdjust="spacing" textLength="5" x="1935.5343" y="567.6448">*</text></g><!--MD5=[774a620e86274462c922c31d6e1ab62f]
link VaccinationCenter to VaccineBulletin--><g id="link_VaccinationCenter_VaccineBulletin"><path codeLine="146" d="M2455.15,397.79 C2504.56,439.58 2564.59,499.21 2599,565.5 C2633.14,631.27 2599.81,661.4 2629,729.5 C2640.76,756.93 2659.57,784.11 2676.93,805.91 " fill="none" id="VaccinationCenter-VaccineBulletin" style="stroke:#181818;stroke-width:1.0;"/><polygon fill="#000000" points="2531.3874,420.069,2529.6509,410.7183,2524.4863,413.5248,2531.3874,420.069" style="stroke:#000000;stroke-width:1.0;"/><text fill="#000000" font-family="sans-serif" font-size="13" lengthAdjust="spacing" textLength="21" x="2538" y="420.9951">has</text><text fill="#000000" font-family="sans-serif" font-size="13" lengthAdjust="spacing" textLength="7" x="2463.0459" y="417.7106">1</text><text fill="#000000" font-family="sans-serif" font-size="13" lengthAdjust="spacing" textLength="5" x="2665.0287" y="795.0861">*</text></g><!--MD5=[1642c2e125eebb89846a734d4b2bb547]
link Application to DailyTask--><g id="link_Application_DailyTask"><path codeLine="148" d="M785.58,684.35 C793.1,679.63 800.27,674.03 806,667.5 C830.23,639.9 808.16,614.45 836,590.5 C881.29,551.54 952.08,542.99 998.38,542.02 " fill="none" id="Application-DailyTask" style="stroke:#181818;stroke-width:1.0;"/><polygon fill="#000000" points="845.1561,543.896,836.0038,546.4818,839.2716,551.3675,845.1561,543.896" style="stroke:#000000;stroke-width:1.0;"/><text fill="#000000" font-family="sans-serif" font-size="13" lengthAdjust="spacing" textLength="53" x="850" y="551.9951">executes</text><text fill="#000000" font-family="sans-serif" font-size="13" lengthAdjust="spacing" textLength="7" x="791.6754" y="673.6277">1</text><text fill="#000000" font-family="sans-serif" font-size="13" lengthAdjust="spacing" textLength="7" x="983.6288" y="556.5404">1</text></g><!--MD5=[50182863975a7f0fd55fd63b7dc30e9d]
link VaccineBulletin to Vaccine--><g id="link_VaccineBulletin_Vaccine"><path codeLine="149" d="M2795.19,852.5 C2853.02,852.5 2930.9,852.5 2977.62,852.5 " fill="none" id="VaccineBulletin-Vaccine" style="stroke:#181818;stroke-width:1.0;"/><polygon fill="#000000" points="2850,843.6758,2840.9549,840.7369,2840.9549,846.6147,2850,843.6758" style="stroke:#000000;stroke-width:1.0;"/><text fill="#000000" font-family="sans-serif" font-size="13" lengthAdjust="spacing" textLength="92" x="2854" y="848.9951">is associated to</text><text fill="#000000" font-family="sans-serif" font-size="13" lengthAdjust="spacing" textLength="5" x="2802.8868" y="866.8084">*</text><text fill="#000000" font-family="sans-serif" font-size="13" lengthAdjust="spacing" textLength="7" x="2962.9063" y="867.4151">1</text></g><!--MD5=[d5cf03d886352995267197dc535618ec]
link CenterCoordinator to VaccinationCenter--><g id="link_CenterCoordinator_VaccinationCenter"><path codeLine="153" d="M1368.1,378.41 C1562.89,370.28 2088.27,348.34 2290.83,339.89 " fill="none" id="CenterCoordinator-VaccinationCenter" style="stroke:#181818;stroke-width:1.0;"/><polygon fill="#000000" points="1777.5044,346.8843,1786.6641,349.4434,1786.419,343.5707,1777.5044,346.8843" style="stroke:#000000;stroke-width:1.0;"/><text fill="#000000" font-family="sans-serif" font-size="13" lengthAdjust="spacing" textLength="99" x="1791.5" y="351.9951">is coordinated by</text><text fill="#000000" font-family="sans-serif" font-size="13" lengthAdjust="spacing" textLength="7" x="1376.2056" y="392.4296">1</text><text fill="#000000" font-family="sans-serif" font-size="13" lengthAdjust="spacing" textLength="7" x="2275.9323" y="354.4729">1</text></g><!--MD5=[47d9fdf39ace2c294c9a20760c9822a7]
link VaccineAppointment to VaccinationCenter--><g id="link_VaccineAppointment_VaccinationCenter"><path codeLine="154" d="M2109.52,550.84 C2156.78,537.57 2216.07,515.85 2261,482.5 C2271.48,474.72 2281.45,465.68 2290.81,456 " fill="none" id="VaccineAppointment-VaccinationCenter" style="stroke:#181818;stroke-width:1.0;"/><polygon fill="#000000" points="2184.5696,475.9935,2193.9466,474.4048,2191.2219,469.1966,2184.5696,475.9935" style="stroke:#000000;stroke-width:1.0;"/><text fill="#000000" font-family="sans-serif" font-size="13" lengthAdjust="spacing" textLength="21" x="2198" y="478.9951">has</text><text fill="#000000" font-family="sans-serif" font-size="13" lengthAdjust="spacing" textLength="5" x="2117.4328" y="563.4498">*</text><text fill="#000000" font-family="sans-serif" font-size="13" lengthAdjust="spacing" textLength="7" x="2275.9105" y="481.2868">1</text></g><!--MD5=[d0019c0afc7056194148dc542fcd30ca]
link SnsUser to VaccineBulletin--><g id="link_SnsUser_VaccineBulletin"><path codeLine="155" d="M1345.74,749.62 C1411.77,783.98 1530.51,836.5 1639.5,836.5 C1639.5,836.5 1639.5,836.5 2374,836.5 C2467.1,836.5 2574.21,842.4 2643.95,847.04 " fill="none" id="SnsUser-VaccineBulletin" style="stroke:#181818;stroke-width:1.0;"/><polygon fill="#000000" points="2020.986,828.0499,2012.1862,824.4424,2011.7463,830.3038,2020.986,828.0499" style="stroke:#000000;stroke-width:1.0;"/><text fill="#000000" font-family="sans-serif" font-size="13" lengthAdjust="spacing" textLength="21" x="2025" y="832.9951">has</text><text fill="#000000" font-family="sans-serif" font-size="13" lengthAdjust="spacing" textLength="7" x="1348.4341" y="770.4962">1</text><text fill="#000000" font-family="sans-serif" font-size="13" lengthAdjust="spacing" textLength="5" x="2630.9011" y="860.824">*</text></g><!--MD5=[b22fd40d66ac54a9dc399c9cf37d996a]
link CenterCoordinator to VaccinationStatistics--><g id="link_CenterCoordinator_VaccinationStatistics"><path codeLine="156" d="M1355.07,401.53 C1369.04,405.43 1383.93,409.06 1398,411.5 C1518.57,432.37 1660.38,437.65 1748.61,438.71 " fill="none" id="CenterCoordinator-to-VaccinationStatistics" style="stroke:#181818;stroke-width:1.0;"/><polygon fill="#181818" points="1753.82,438.77,1744.8663,434.6674,1748.8203,438.7129,1744.7749,442.6669,1753.82,438.77" style="stroke:#181818;stroke-width:1.0;"/><polygon fill="#000000" points="1407.9778,403.1461,1399.2493,399.3694,1398.6964,405.2212,1407.9778,403.1461" style="stroke:#000000;stroke-width:1.0;"/><text fill="#000000" font-family="sans-serif" font-size="13" lengthAdjust="spacing" textLength="114" x="1412" y="407.9951">checks and exports</text><text fill="#000000" font-family="sans-serif" font-size="13" lengthAdjust="spacing" textLength="7" x="1364.5428" y="422.958">1</text><text fill="#000000" font-family="sans-serif" font-size="13" lengthAdjust="spacing" textLength="5" x="1740.8919" y="453.0701">*</text></g><!--MD5=[03c6fb53180ab1a1b5c5cb2e7eb4415c]
link VaccinationStatistics to VaccinationCenter--><g id="link_VaccinationStatistics_VaccinationCenter"><path codeLine="157" d="M1915.34,439.09 C2002.23,437.68 2144.36,429.29 2261,393.5 C2269.39,390.93 2277.9,387.74 2286.29,384.2 " fill="none" id="VaccinationStatistics-to-VaccinationCenter" style="stroke:#181818;stroke-width:1.0;"/><polygon fill="#181818" points="2290.93,382.2,2281.0819,382.0798,2286.3365,384.1748,2284.2415,389.4294,2290.93,382.2" style="stroke:#181818;stroke-width:1.0;"/><polygon fill="#000000" points="1993.4461,415.9439,1984.0683,414.3606,1984.9287,420.1752,1993.4461,415.9439" style="stroke:#000000;stroke-width:1.0;"/><text fill="#000000" font-family="sans-serif" font-size="13" lengthAdjust="spacing" textLength="76" x="1997.5" y="421.9951">are related to</text><text fill="#000000" font-family="sans-serif" font-size="13" lengthAdjust="spacing" textLength="5" x="1923.0229" y="453.3932">*</text><text fill="#000000" font-family="sans-serif" font-size="13" lengthAdjust="spacing" textLength="7" x="2276.0415" y="400.6834">1</text></g><!--MD5=[3d0c769b877f7b2bf012ca4ef86fbcd8]
link PerformanceAnalyzer to VaccinationCenter--><g id="link_PerformanceAnalyzer_VaccinationCenter"><path codeLine="161" d="M1724.23,285.96 C1863.55,296.83 2143.61,318.68 2285.45,329.75 " fill="none" id="PerformanceAnalyzer-to-VaccinationCenter" style="stroke:#181818;stroke-width:1.0;"/><polygon fill="#181818" points="2290.85,330.17,2282.1853,325.4877,2285.8649,329.7843,2281.5683,333.4639,2290.85,330.17" style="stroke:#181818;stroke-width:1.0;"/><polygon fill="#000000" points="2005.4848,294.0647,1996.6958,290.4311,1996.2386,296.2911,2005.4848,294.0647" style="stroke:#000000;stroke-width:1.0;"/><text fill="#000000" font-family="sans-serif" font-size="13" lengthAdjust="spacing" textLength="52" x="2009.5" y="298.9951">analyzes</text><text fill="#000000" font-family="sans-serif" font-size="13" lengthAdjust="spacing" textLength="7" x="1731.9989" y="300.7586">1</text><text fill="#000000" font-family="sans-serif" font-size="13" lengthAdjust="spacing" textLength="7" x="2275.9541" y="326.3819">1</text></g><!--MD5=[fca9bdf85319580b67a33134c9cbf791]
link CenterCoordinator to PerformanceAnalyzer--><g id="link_CenterCoordinator_PerformanceAnalyzer"><path codeLine="163" d="M1342.52,361.5 C1359.87,354.7 1379.66,347.36 1398,341.5 C1448.43,325.39 1505.79,310.52 1551.95,299.39 " fill="none" id="CenterCoordinator-to-PerformanceAnalyzer" style="stroke:#181818;stroke-width:1.0;"/><polygon fill="#181818" points="1556.95,298.19,1547.2642,296.4051,1552.0886,299.359,1549.1347,304.1834,1556.95,298.19" style="stroke:#181818;stroke-width:1.0;"/><polygon fill="#000000" points="1444.2936,296.2541,1434.7863,296.0083,1436.4575,301.6435,1444.2936,296.2541" style="stroke:#000000;stroke-width:1.0;"/><text fill="#000000" font-family="sans-serif" font-size="13" lengthAdjust="spacing" textLength="41" x="1448.5" y="302.9951">utilizes</text><text fill="#000000" font-family="sans-serif" font-size="13" lengthAdjust="spacing" textLength="7" x="1349.6136" y="350.474">1</text><text fill="#000000" font-family="sans-serif" font-size="13" lengthAdjust="spacing" textLength="7" x="1541.9251" y="314.1618">1</text></g><!--MD5=[4b3da0089d516695f718f969f752343e]
link PerformanceAnalyzer to InformationToAnalyze--><g id="link_PerformanceAnalyzer_InformationToAnalyze"><path codeLine="183" d="M1692.03,259.5 C1766.1,230.18 1903.38,175.83 1977.46,146.51 " fill="none" id="PerformanceAnalyzer-InformationToAnalyze" style="stroke:#181818;stroke-width:1.0;"/><polygon fill="#000000" points="1826.149,161.8354,1816.6572,162.432,1818.8206,167.8973,1826.149,161.8354" style="stroke:#000000;stroke-width:1.0;"/><text fill="#000000" font-family="sans-serif" font-size="13" lengthAdjust="spacing" textLength="21" x="1830.5" y="168.9951">has</text><text fill="#000000" font-family="sans-serif" font-size="13" lengthAdjust="spacing" textLength="7" x="1699.7392" y="248.474">1</text><text fill="#000000" font-family="sans-serif" font-size="13" lengthAdjust="spacing" textLength="7" x="1954.98" y="167.9324">1</text></g><!--MD5=[64aaa42afbfccbea1beddd7eb2dab549]
link InformationToAnalyze to VaccinationCenter--><g id="link_InformationToAnalyze_VaccinationCenter"><path codeLine="185" d="M2085.32,146.54 C2103.63,153.05 2124.15,160.21 2143,166.5 C2195.14,183.9 2215.32,172.94 2261,203.5 C2271.5,210.52 2281.54,218.82 2290.99,227.79 " fill="none" id="InformationToAnalyze-VaccinationCenter" style="stroke:#181818;stroke-width:1.0;"/><polygon fill="#000000" points="2170.1503,159.5129,2162.8177,153.4562,2160.658,158.9229,2170.1503,159.5129" style="stroke:#000000;stroke-width:1.0;"/><text fill="#000000" font-family="sans-serif" font-size="13" lengthAdjust="spacing" textLength="68" x="2174.5" y="162.9951">is related to</text><text fill="#000000" font-family="sans-serif" font-size="13" lengthAdjust="spacing" textLength="7" x="2093.1756" y="167.9708">1</text><text fill="#000000" font-family="sans-serif" font-size="13" lengthAdjust="spacing" textLength="7" x="2276.107" y="232.0387">1</text></g><!--MD5=[df64fa126a8270af2a3ddd1c173b5058]
link InformationToAnalyze to Arrival--><g id="link_InformationToAnalyze_Arrival"><path codeLine="187" d="M2097.37,106.43 C2112.29,102.61 2128.09,99.01 2143,96.5 C2336.89,63.81 2571.72,55.97 2670.77,54.09 " fill="none" id="InformationToAnalyze-Arrival" style="stroke:#181818;stroke-width:1.0;"/><polygon fill="#000000" points="2354.9793,54.2213,2345.7045,52.1167,2346.2388,57.9702,2354.9793,54.2213" style="stroke:#000000;stroke-width:1.0;"/><text fill="#000000" font-family="sans-serif" font-size="13" lengthAdjust="spacing" textLength="41" x="2359" y="59.9951">utilizes</text><text fill="#000000" font-family="sans-serif" font-size="13" lengthAdjust="spacing" textLength="7" x="2109.4256" y="95.7312">1</text><text fill="#000000" font-family="sans-serif" font-size="13" lengthAdjust="spacing" textLength="5" x="2657.9254" y="68.9405">*</text></g><!--MD5=[c34718504b1556d803d9ae46f8604f0f]
link InformationToAnalyze to Departure--><g id="link_InformationToAnalyze_Departure"><path codeLine="189" d="M2113.14,116.1 C2225.88,104.9 2432.32,94.76 2599,144.5 C2624.04,151.97 2649.13,166.04 2669.8,179.85 " fill="none" id="InformationToAnalyze-Departure" style="stroke:#181818;stroke-width:1.0;"/><polygon fill="#000000" points="2354.9675,99.2447,2346.3156,95.2957,2345.6468,101.1354,2354.9675,99.2447" style="stroke:#000000;stroke-width:1.0;"/><text fill="#000000" font-family="sans-serif" font-size="13" lengthAdjust="spacing" textLength="41" x="2359" y="103.9951">utilizes</text><text fill="#000000" font-family="sans-serif" font-size="13" lengthAdjust="spacing" textLength="7" x="2120.9454" y="129.397">1</text><text fill="#000000" font-family="sans-serif" font-size="13" lengthAdjust="spacing" textLength="5" x="2655.5019" y="169.2255">*</text></g><!--MD5=[24b69a571b306a26ee3f78b0f8b89751]
link VaccinationCenter to Arrival--><g id="link_VaccinationCenter_Arrival"><path codeLine="191" d="M2455,258.89 C2464.97,249.85 2475.13,240.87 2485,232.5 C2547.33,179.64 2622.96,122.93 2670.91,87.83 " fill="none" id="VaccinationCenter-Arrival" style="stroke:#181818;stroke-width:1.0;"/><polygon fill="#000000" points="2532.9191,130.5708,2524.0043,133.8842,2527.6545,138.4913,2532.9191,130.5708" style="stroke:#000000;stroke-width:1.0;"/><text fill="#000000" font-family="sans-serif" font-size="13" lengthAdjust="spacing" textLength="21" x="2538" y="138.9951">has</text><text fill="#000000" font-family="sans-serif" font-size="13" lengthAdjust="spacing" textLength="7" x="2462.882" y="266.0058">1</text><text fill="#000000" font-family="sans-serif" font-size="13" lengthAdjust="spacing" textLength="5" x="2658.0868" y="107.847">*</text></g><!--MD5=[cd314741d42872d131417dfbfe8ad369]
link VaccinationCenter to Departure--><g id="link_VaccinationCenter_Departure"><path codeLine="193" d="M2455.21,308.45 C2519.76,286.15 2608.25,255.58 2664.4,236.19 " fill="none" id="VaccinationCenter-Departure" style="stroke:#181818;stroke-width:1.0;"/><polygon fill="#000000" points="2533.726,248.0433,2524.217,248.2186,2526.1361,253.7744,2533.726,248.0433" style="stroke:#000000;stroke-width:1.0;"/><text fill="#000000" font-family="sans-serif" font-size="13" lengthAdjust="spacing" textLength="21" x="2538" y="254.9951">has</text><text fill="#000000" font-family="sans-serif" font-size="13" lengthAdjust="spacing" textLength="7" x="2463.1114" y="320.1346">1</text><text fill="#000000" font-family="sans-serif" font-size="13" lengthAdjust="spacing" textLength="5" x="2651.66" y="253.2805">*</text></g><!--MD5=[bc0001c5fe3db82230b4e82c025d1042]
@startuml
'https://plantuml.com/class-diagram

left to right direction
skinparam classAttributeIconSize 0
hide methods

class ApplicationUser {
-name
-emailAddress
-role
-password
-address
-citizenCardNumber
}

class Employee {
-id
}

class Administrator

Administrator "*" - - "1" Application : manages >

class SnsUser {
-snsUserNumber
}

ApplicationUser <|- - Employee
ApplicationUser <|- - - SnsUser
Employee <|- - Nurse
Employee <|- - Receptionist
Employee <|- Administrator
Employee <|- - CenterCoordinator



class Receptionist





class Nurse



class VaccinationCenter {
-intID
-strName
-strPhoneNumber
-strEmail
-strFax
-strWebsite
-strOpeningHour
-strClosingHour
-strSlotDuration
-strVaccinesPerSlot
-strRoad
-strZipCode
-strLocal
-strCenterCoordinatorID
 }

class MassVaccinationCenter extends VaccinationCenter {

}

class HealthcareCenter extends VaccinationCenter {
-ARE
-AGES
}

class Vaccine {
-brand
-name
-id
}

class AdministrationProcess {
-numberOfDoses
-dosage
-age
-intervalBetweenVaccines
}

class VaccineType {
-code
-description
-technology
}


Vaccine "1" - - "*" AdministrationProcess : has a >
VaccineType "*" - - "1" Vaccine :is of <

class DigitalCertificate


SnsUser "1" - - - - "1" DigitalCertificate : requests >

class VaccineAppointment {
-date
}

SnsUser "1" - - - "*" VaccineAppointment : schedules >




Receptionist "*" - "1" UsersWaitingList : atualizes >
Nurse "*" - - "1" UsersWaitingList : checks >
Nurse "1" - "*" Vaccine : administers >
VaccineAppointment "*" - - "1" VaccineType : is associated to a >
UsersWaitingList "1" - - - "*" SnsUser: has >


class VaccineBulletin {


}



class AdverseReactions

VaccineBulletin "*" - - - "1" AdverseReactions : can have an >

Nurse "1" - - "*" VaccineBulletin : records >
Nurse "1" - - "*" AdverseReactions : records >



class Application
class EntriesAndExitsList
Class VaccineBulletin {
-dateTimeOfLastDose
-doseNumber
-lotNumber
}

Application "1" - - - "*" SnsUser : requests authorization to send SMS >
Application "1" - - - "*" SnsUser : notify >
VaccinationCenter "1" -up- "*" EntriesAndExitsList : has >
Receptionist "1" - - "*" VaccineAppointment : schedules >

VaccinationCenter "1" - - "*" VaccineBulletin : has >

Application "1" - - "1" DailyTask: executes >
VaccineBulletin "*" - - "1" Vaccine : is associated to >

class CenterCoordinator
class UsersWaitingList
CenterCoordinator "1" - - "1" VaccinationCenter : is coordinated by <
VaccinationCenter "1" -u- "*" VaccineAppointment : has >
SnsUser "1" - - "*" VaccineBulletin: has >
CenterCoordinator "1" - -> "*" VaccinationStatistics : checks and exports >
VaccinationStatistics "*" - -> "1" VaccinationCenter : are related to >

class PerformanceAnalyzer

PerformanceAnalyzer "1" - -> "1" VaccinationCenter : analyzes >

CenterCoordinator "1" - -> "1" PerformanceAnalyzer : utilizes >

class Arrival {
-snsNumber
-arrivalTime
-vaccineType
}

class Departure {
-snsNumber
-departureTime
}

class PerformanceAnalyzer {
}

class InformationToAnalyze {
}


PerformanceAnalyzer "1" - - "1" InformationToAnalyze : has >

InformationToAnalyze "1" - - "1" VaccinationCenter : is related to >

InformationToAnalyze "1" - - "*" Arrival : utilizes >

InformationToAnalyze "1" - - "*" Departure : utilizes >

VaccinationCenter "1" - - "*" Arrival : has >

VaccinationCenter "1" - - "*" Departure : has >
@enduml

@startuml

left to right direction
skinparam classAttributeIconSize 0
hide methods

class ApplicationUser {
-name
-emailAddress
-role
-password
-address
-citizenCardNumber
}

class Employee {
-id
}

class Administrator

Administrator "*" - - "1" Application : manages >

class SnsUser {
-snsUserNumber
}

ApplicationUser <|- - Employee
ApplicationUser <|- - - SnsUser
Employee <|- - Nurse
Employee <|- - Receptionist
Employee <|- Administrator
Employee <|- - CenterCoordinator



class Receptionist





class Nurse



class VaccinationCenter {
-intID
-strName
-strPhoneNumber
-strEmail
-strFax
-strWebsite
-strOpeningHour
-strClosingHour
-strSlotDuration
-strVaccinesPerSlot
-strRoad
-strZipCode
-strLocal
-strCenterCoordinatorID
 }

class MassVaccinationCenter extends VaccinationCenter {

}

class HealthcareCenter extends VaccinationCenter {
-ARE
-AGES
}

class Vaccine {
-brand
-name
-id
}

class AdministrationProcess {
-numberOfDoses
-dosage
-age
-intervalBetweenVaccines
}

class VaccineType {
-code
-description
-technology
}


Vaccine "1" - - "*" AdministrationProcess : has a >
VaccineType "*" - - "1" Vaccine :is of <

class DigitalCertificate


SnsUser "1" - - - - "1" DigitalCertificate : requests >

class VaccineAppointment {
-date
}

SnsUser "1" - - - "*" VaccineAppointment : schedules >




Receptionist "*" - "1" UsersWaitingList : atualizes >
Nurse "*" - - "1" UsersWaitingList : checks >
Nurse "1" - "*" Vaccine : administers >
VaccineAppointment "*" - - "1" VaccineType : is associated to a >
UsersWaitingList "1" - - - "*" SnsUser: has >


class VaccineBulletin {


}



class AdverseReactions

VaccineBulletin "*" - - - "1" AdverseReactions : can have an >

Nurse "1" - - "*" VaccineBulletin : records >
Nurse "1" - - "*" AdverseReactions : records >



class Application
class EntriesAndExitsList
Class VaccineBulletin {
-dateTimeOfLastDose
-doseNumber
-lotNumber
}

Application "1" - - - "*" SnsUser : requests authorization to send SMS >
Application "1" - - - "*" SnsUser : notify >
VaccinationCenter "1" -up- "*" EntriesAndExitsList : has >
Receptionist "1" - - "*" VaccineAppointment : schedules >

VaccinationCenter "1" - - "*" VaccineBulletin : has >

Application "1" - - "1" DailyTask: executes >
VaccineBulletin "*" - - "1" Vaccine : is associated to >

class CenterCoordinator
class UsersWaitingList
CenterCoordinator "1" - - "1" VaccinationCenter : is coordinated by <
VaccinationCenter "1" -u- "*" VaccineAppointment : has >
SnsUser "1" - - "*" VaccineBulletin: has >
CenterCoordinator "1" - -> "*" VaccinationStatistics : checks and exports >
VaccinationStatistics "*" - -> "1" VaccinationCenter : are related to >

class PerformanceAnalyzer

PerformanceAnalyzer "1" - -> "1" VaccinationCenter : analyzes >

CenterCoordinator "1" - -> "1" PerformanceAnalyzer : utilizes >

class Arrival {
-snsNumber
-arrivalTime
-vaccineType
}

class Departure {
-snsNumber
-departureTime
}

class PerformanceAnalyzer {
}

class InformationToAnalyze {
}


PerformanceAnalyzer "1" - - "1" InformationToAnalyze : has >

InformationToAnalyze "1" - - "1" VaccinationCenter : is related to >

InformationToAnalyze "1" - - "*" Arrival : utilizes >

InformationToAnalyze "1" - - "*" Departure : utilizes >

VaccinationCenter "1" - - "*" Arrival : has >

VaccinationCenter "1" - - "*" Departure : has >
@enduml

PlantUML version 1.2022.5(Sat Apr 30 11:55:52 BST 2022)
(GPL source distribution)
Java Runtime: OpenJDK Runtime Environment
JVM: OpenJDK 64-Bit Server VM
Default Encoding: Cp1252
Language: en
Country: US
--></g></svg>