<?xml version="1.0" encoding="UTF-8" standalone="no"?><svg xmlns="http://www.w3.org/2000/svg" xmlns:xlink="http://www.w3.org/1999/xlink" contentScriptType="application/ecmascript" contentStyleType="text/css" height="1079px" preserveAspectRatio="none" style="width:737px;height:1079px;background:#FFFFFF;" version="1.1" viewBox="0 0 737 1079" width="737px" zoomAndPan="magnify"><defs><filter height="300%" id="fchpk2513upjx" width="300%" x="-1" y="-1"><feGaussianBlur result="blurOut" stdDeviation="2.0"/><feColorMatrix in="blurOut" result="blurOut2" type="matrix" values="0 0 0 0 0 0 0 0 0 0 0 0 0 0 0 0 0 0 .4 0"/><feOffset dx="4.0" dy="4.0" in="blurOut2" result="blurOut3"/><feBlend in="SourceGraphic" in2="blurOut3" mode="normal"/></filter></defs><g><!--MD5=[2d935fd2dd068a13da1ae531f9857c4f]
class CenterCoordinator--><rect codeLine="8" fill="#FEFECE" filter="url(#fchpk2513upjx)" height="40" id="CenterCoordinator" style="stroke:#A80036;stroke-width:1.5;" width="134" x="290" y="107"/><ellipse cx="305" cy="123" fill="#ADD1B2" rx="11" ry="11" style="stroke:#A80036;stroke-width:1.0;"/><path d="M307,119.5 Q307.2031,119 307.4375,118.75 Q307.6719,118.5 307.9375,118.5 Q308.4063,118.5 308.7031,118.7813 Q309,119.0625 309,119.7188 L309,121.2813 Q309,121.9375 308.7188,122.2188 Q308.4375,122.5 308,122.5 Q307.6094,122.5 307.3594,122.3281 Q307.1094,122.1563 307,121.7031 Q306.9531,121.3906 306.7813,121.2188 Q306.4688,120.8906 305.9063,120.7031 Q305.3438,120.5 304.7813,120.5 Q304.0781,120.5 303.4844,120.7813 Q302.9063,121.0625 302.4531,121.6875 Q302,122.3125 302,123.1719 L302,124.0938 Q302,125.125 302.8438,125.8125 Q303.6875,126.5 305.1875,126.5 Q306.0781,126.5 306.7031,126.2969 Q307.0625,126.1875 307.4688,125.8281 Q307.7344,125.625 307.875,125.5625 Q308.0156,125.5 308.1875,125.5 Q308.5156,125.5 308.75,125.7656 Q309,126.0156 309,126.375 Q309,126.7188 308.6563,127.125 Q308.1563,127.7188 307.3594,128.0469 Q306.3125,128.5 305.0313,128.5 Q303.5313,128.5 302.3281,127.9063 Q301.3594,127.4375 300.6719,126.4219 Q300,125.4063 300,124.2031 L300,123.1094 Q300,121.8594 300.5938,120.7656 Q301.2031,119.6719 302.25,119.0938 Q303.3125,118.5 304.5,118.5 Q305.2188,118.5 305.8438,118.75 Q306.4688,119 307,119.5 Z " fill="#000000"/><text fill="#000000" font-family="sans-serif" font-size="12" lengthAdjust="spacing" textLength="102" x="319" y="127.9102">CenterCoordinator</text><line style="stroke:#A80036;stroke-width:1.5;" x1="291" x2="423" y1="139" y2="139"/><!--MD5=[de60e6d4f424ae4d0522096f76a59010]
class VaccinationCenter--><rect codeLine="11" fill="#FEFECE" filter="url(#fchpk2513upjx)" height="317.9766" id="VaccinationCenter" style="stroke:#A80036;stroke-width:1.5;" width="177" x="230.5" y="748"/><ellipse cx="265.75" cy="764" fill="#ADD1B2" rx="11" ry="11" style="stroke:#A80036;stroke-width:1.0;"/><path d="M267.75,760.5 Q267.9531,760 268.1875,759.75 Q268.4219,759.5 268.6875,759.5 Q269.1563,759.5 269.4531,759.7813 Q269.75,760.0625 269.75,760.7188 L269.75,762.2813 Q269.75,762.9375 269.4688,763.2188 Q269.1875,763.5 268.75,763.5 Q268.3594,763.5 268.1094,763.3281 Q267.8594,763.1563 267.75,762.7031 Q267.7031,762.3906 267.5313,762.2188 Q267.2188,761.8906 266.6563,761.7031 Q266.0938,761.5 265.5313,761.5 Q264.8281,761.5 264.2344,761.7813 Q263.6563,762.0625 263.2031,762.6875 Q262.75,763.3125 262.75,764.1719 L262.75,765.0938 Q262.75,766.125 263.5938,766.8125 Q264.4375,767.5 265.9375,767.5 Q266.8281,767.5 267.4531,767.2969 Q267.8125,767.1875 268.2188,766.8281 Q268.4844,766.625 268.625,766.5625 Q268.7656,766.5 268.9375,766.5 Q269.2656,766.5 269.5,766.7656 Q269.75,767.0156 269.75,767.375 Q269.75,767.7188 269.4063,768.125 Q268.9063,768.7188 268.1094,769.0469 Q267.0625,769.5 265.7813,769.5 Q264.2813,769.5 263.0781,768.9063 Q262.1094,768.4375 261.4219,767.4219 Q260.75,766.4063 260.75,765.2031 L260.75,764.1094 Q260.75,762.8594 261.3438,761.7656 Q261.9531,760.6719 263,760.0938 Q264.0625,759.5 265.25,759.5 Q265.9688,759.5 266.5938,759.75 Q267.2188,760 267.75,760.5 Z " fill="#000000"/><text fill="#000000" font-family="sans-serif" font-size="12" lengthAdjust="spacing" textLength="100" x="284.25" y="768.9102">VaccinationCenter</text><line style="stroke:#A80036;stroke-width:1.5;" x1="231.5" x2="406.5" y1="780" y2="780"/><text fill="#000000" font-family="sans-serif" font-size="13" font-weight="bold" lengthAdjust="spacing" textLength="16" x="236.5" y="797.4951">-id</text><text fill="#000000" font-family="sans-serif" font-size="13" font-weight="bold" lengthAdjust="spacing" textLength="40" x="236.5" y="813.8467">-name</text><text fill="#000000" font-family="sans-serif" font-size="13" font-weight="bold" lengthAdjust="spacing" textLength="94" x="236.5" y="830.1982">-phoneNumber</text><text fill="#000000" font-family="sans-serif" font-size="13" font-weight="bold" lengthAdjust="spacing" textLength="40" x="236.5" y="846.5498">-email</text><text fill="#000000" font-family="sans-serif" font-size="13" font-weight="bold" lengthAdjust="spacing" textLength="24" x="236.5" y="862.9014">-fax</text><text fill="#000000" font-family="sans-serif" font-size="13" font-weight="bold" lengthAdjust="spacing" textLength="53" x="236.5" y="879.2529">-website</text><text fill="#000000" font-family="sans-serif" font-size="13" font-weight="bold" lengthAdjust="spacing" textLength="86" x="236.5" y="895.6045">-openingHour</text><text fill="#000000" font-family="sans-serif" font-size="13" font-weight="bold" lengthAdjust="spacing" textLength="79" x="236.5" y="911.9561">-closingHour</text><text fill="#000000" font-family="sans-serif" font-size="13" font-weight="bold" lengthAdjust="spacing" textLength="80" x="236.5" y="928.3076">-slotDuration</text><text fill="#000000" font-family="sans-serif" font-size="13" font-weight="bold" lengthAdjust="spacing" textLength="106" x="236.5" y="944.6592">-vaccinesPerSlot</text><text fill="#000000" font-family="sans-serif" font-size="13" font-weight="bold" lengthAdjust="spacing" textLength="33" x="236.5" y="961.0107">-road</text><text fill="#000000" font-family="sans-serif" font-size="13" font-weight="bold" lengthAdjust="spacing" textLength="56" x="236.5" y="977.3623">-zipCode</text><text fill="#000000" font-family="sans-serif" font-size="13" font-weight="bold" lengthAdjust="spacing" textLength="35" x="236.5" y="993.7139">-local</text><text fill="#000000" font-family="sans-serif" font-size="13" font-weight="bold" lengthAdjust="spacing" textLength="132" x="236.5" y="1010.0654">-centerCoordinatorID</text><text fill="#000000" font-family="sans-serif" font-size="13" font-weight="bold" lengthAdjust="spacing" textLength="73" x="236.5" y="1026.417">-arrivalsList</text><text fill="#000000" font-family="sans-serif" font-size="13" font-weight="bold" lengthAdjust="spacing" textLength="142" x="236.5" y="1042.7686">-scheduledVaccineList</text><text fill="#000000" font-family="sans-serif" font-size="13" font-weight="bold" lengthAdjust="spacing" textLength="165" x="236.5" y="1059.1201">-vaccinesAdministeredList</text><!--MD5=[c4593935f45e4a2a0cefc4788932b53f]
class SnsUser--><rect codeLine="31" fill="#FEFECE" filter="url(#fchpk2513upjx)" height="187.1641" id="SnsUser" style="stroke:#A80036;stroke-width:1.5;" width="140" x="524" y="295"/><ellipse cx="565.55" cy="311" fill="#ADD1B2" rx="11" ry="11" style="stroke:#A80036;stroke-width:1.0;"/><path d="M567.55,307.5 Q567.7531,307 567.9875,306.75 Q568.2219,306.5 568.4875,306.5 Q568.9563,306.5 569.2531,306.7813 Q569.55,307.0625 569.55,307.7188 L569.55,309.2813 Q569.55,309.9375 569.2688,310.2188 Q568.9875,310.5 568.55,310.5 Q568.1594,310.5 567.9094,310.3281 Q567.6594,310.1563 567.55,309.7031 Q567.5031,309.3906 567.3313,309.2188 Q567.0188,308.8906 566.4563,308.7031 Q565.8938,308.5 565.3313,308.5 Q564.6281,308.5 564.0344,308.7813 Q563.4563,309.0625 563.0031,309.6875 Q562.55,310.3125 562.55,311.1719 L562.55,312.0938 Q562.55,313.125 563.3938,313.8125 Q564.2375,314.5 565.7375,314.5 Q566.6281,314.5 567.2531,314.2969 Q567.6125,314.1875 568.0188,313.8281 Q568.2844,313.625 568.425,313.5625 Q568.5656,313.5 568.7375,313.5 Q569.0656,313.5 569.3,313.7656 Q569.55,314.0156 569.55,314.375 Q569.55,314.7188 569.2063,315.125 Q568.7063,315.7188 567.9094,316.0469 Q566.8625,316.5 565.5813,316.5 Q564.0813,316.5 562.8781,315.9063 Q561.9094,315.4375 561.2219,314.4219 Q560.55,313.4063 560.55,312.2031 L560.55,311.1094 Q560.55,309.8594 561.1438,308.7656 Q561.7531,307.6719 562.8,307.0938 Q563.8625,306.5 565.05,306.5 Q565.7688,306.5 566.3938,306.75 Q567.0188,307 567.55,307.5 Z " fill="#000000"/><text fill="#000000" font-family="sans-serif" font-size="12" lengthAdjust="spacing" textLength="49" x="585.45" y="315.9102">SnsUser</text><line style="stroke:#A80036;stroke-width:1.5;" x1="525" x2="663" y1="327" y2="327"/><text fill="#000000" font-family="sans-serif" font-size="13" font-weight="bold" lengthAdjust="spacing" textLength="41" x="530" y="344.4951">-Name</text><text fill="#000000" font-family="sans-serif" font-size="13" font-weight="bold" lengthAdjust="spacing" textLength="29" x="530" y="360.8467">-Sex</text><text fill="#000000" font-family="sans-serif" font-size="13" font-weight="bold" lengthAdjust="spacing" textLength="63" x="530" y="377.1982">-BirthDate</text><text fill="#000000" font-family="sans-serif" font-size="13" font-weight="bold" lengthAdjust="spacing" textLength="54" x="530" y="393.5498">-Address</text><text fill="#000000" font-family="sans-serif" font-size="13" font-weight="bold" lengthAdjust="spacing" textLength="95" x="530" y="409.9014">-PhoneNumber</text><text fill="#000000" font-family="sans-serif" font-size="13" font-weight="bold" lengthAdjust="spacing" textLength="40" x="530" y="426.2529">-Email</text><text fill="#000000" font-family="sans-serif" font-size="13" font-weight="bold" lengthAdjust="spacing" textLength="82" x="530" y="442.6045">-UserNumber</text><text fill="#000000" font-family="sans-serif" font-size="13" font-weight="bold" lengthAdjust="spacing" textLength="128" x="530" y="458.9561">-CitizenCardNumber</text><text fill="#000000" font-family="sans-serif" font-size="13" font-weight="bold" lengthAdjust="spacing" textLength="65" x="530" y="475.3076">-Password</text><!--MD5=[0e501da62322464167c8ec4d233a6b7e]
class VaccineType--><rect codeLine="44" fill="#FEFECE" filter="url(#fchpk2513upjx)" height="86.5391" id="VaccineType" style="stroke:#A80036;stroke-width:1.5;" width="139" x="385.5" y="607"/><ellipse cx="417.6" cy="623" fill="#ADD1B2" rx="11" ry="11" style="stroke:#A80036;stroke-width:1.0;"/><path d="M419.6,619.5 Q419.8031,619 420.0375,618.75 Q420.2719,618.5 420.5375,618.5 Q421.0063,618.5 421.3031,618.7813 Q421.6,619.0625 421.6,619.7188 L421.6,621.2813 Q421.6,621.9375 421.3188,622.2188 Q421.0375,622.5 420.6,622.5 Q420.2094,622.5 419.9594,622.3281 Q419.7094,622.1563 419.6,621.7031 Q419.5531,621.3906 419.3813,621.2188 Q419.0688,620.8906 418.5063,620.7031 Q417.9438,620.5 417.3813,620.5 Q416.6781,620.5 416.0844,620.7813 Q415.5063,621.0625 415.0531,621.6875 Q414.6,622.3125 414.6,623.1719 L414.6,624.0938 Q414.6,625.125 415.4438,625.8125 Q416.2875,626.5 417.7875,626.5 Q418.6781,626.5 419.3031,626.2969 Q419.6625,626.1875 420.0688,625.8281 Q420.3344,625.625 420.475,625.5625 Q420.6156,625.5 420.7875,625.5 Q421.1156,625.5 421.35,625.7656 Q421.6,626.0156 421.6,626.375 Q421.6,626.7188 421.2563,627.125 Q420.7563,627.7188 419.9594,628.0469 Q418.9125,628.5 417.6313,628.5 Q416.1313,628.5 414.9281,627.9063 Q413.9594,627.4375 413.2719,626.4219 Q412.6,625.4063 412.6,624.2031 L412.6,623.1094 Q412.6,621.8594 413.1938,620.7656 Q413.8031,619.6719 414.85,619.0938 Q415.9125,618.5 417.1,618.5 Q417.8188,618.5 418.4438,618.75 Q419.0688,619 419.6,619.5 Z " fill="#000000"/><text fill="#000000" font-family="sans-serif" font-size="12" lengthAdjust="spacing" textLength="69" x="435.4" y="627.9102">VaccineType</text><line style="stroke:#A80036;stroke-width:1.5;" x1="386.5" x2="523.5" y1="639" y2="639"/><text fill="#000000" font-family="sans-serif" font-size="11" lengthAdjust="spacing" textLength="57" x="391.5" y="654.4189">-description</text><text fill="#000000" font-family="sans-serif" font-size="13" font-weight="bold" lengthAdjust="spacing" textLength="35" x="391.5" y="670.3311">-code</text><text fill="#000000" font-family="sans-serif" font-size="13" font-weight="bold" lengthAdjust="spacing" textLength="127" x="391.5" y="686.6826">-vaccineTechnology</text><!--MD5=[19e445fc4d3b48519cbe33da05496394]
class Vaccine--><rect codeLine="50" fill="#FEFECE" filter="url(#fchpk2513upjx)" height="121.7578" id="Vaccine" style="stroke:#A80036;stroke-width:1.5;" width="105" x="392.5" y="327.5"/><ellipse cx="421" cy="343.5" fill="#ADD1B2" rx="11" ry="11" style="stroke:#A80036;stroke-width:1.0;"/><path d="M423,340 Q423.2031,339.5 423.4375,339.25 Q423.6719,339 423.9375,339 Q424.4063,339 424.7031,339.2813 Q425,339.5625 425,340.2188 L425,341.7813 Q425,342.4375 424.7188,342.7188 Q424.4375,343 424,343 Q423.6094,343 423.3594,342.8281 Q423.1094,342.6563 423,342.2031 Q422.9531,341.8906 422.7813,341.7188 Q422.4688,341.3906 421.9063,341.2031 Q421.3438,341 420.7813,341 Q420.0781,341 419.4844,341.2813 Q418.9063,341.5625 418.4531,342.1875 Q418,342.8125 418,343.6719 L418,344.5938 Q418,345.625 418.8438,346.3125 Q419.6875,347 421.1875,347 Q422.0781,347 422.7031,346.7969 Q423.0625,346.6875 423.4688,346.3281 Q423.7344,346.125 423.875,346.0625 Q424.0156,346 424.1875,346 Q424.5156,346 424.75,346.2656 Q425,346.5156 425,346.875 Q425,347.2188 424.6563,347.625 Q424.1563,348.2188 423.3594,348.5469 Q422.3125,349 421.0313,349 Q419.5313,349 418.3281,348.4063 Q417.3594,347.9375 416.6719,346.9219 Q416,345.9063 416,344.7031 L416,343.6094 Q416,342.3594 416.5938,341.2656 Q417.2031,340.1719 418.25,339.5938 Q419.3125,339 420.5,339 Q421.2188,339 421.8438,339.25 Q422.4688,339.5 423,340 Z " fill="#000000"/><text fill="#000000" font-family="sans-serif" font-size="12" lengthAdjust="spacing" textLength="43" x="438" y="348.4102">Vaccine</text><line style="stroke:#A80036;stroke-width:1.5;" x1="393.5" x2="496.5" y1="359.5" y2="359.5"/><text fill="#000000" font-family="sans-serif" font-size="13" font-weight="bold" lengthAdjust="spacing" textLength="40" x="398.5" y="376.9951">-name</text><text fill="#000000" font-family="sans-serif" font-size="13" font-weight="bold" lengthAdjust="spacing" textLength="16" x="398.5" y="393.3467">-id</text><text fill="#000000" font-family="sans-serif" font-size="13" font-weight="bold" lengthAdjust="spacing" textLength="41" x="398.5" y="409.6982">-brand</text><text fill="#000000" font-family="sans-serif" font-size="13" font-weight="bold" lengthAdjust="spacing" textLength="93" x="398.5" y="426.0498">-adminProcess</text><text fill="#000000" font-family="sans-serif" font-size="13" font-weight="bold" lengthAdjust="spacing" textLength="84" x="398.5" y="442.4014">-vaccine type</text><!--MD5=[950bab46f39ba9ae59885963abb53c18]
class Arrival--><rect codeLine="58" fill="#FEFECE" filter="url(#fchpk2513upjx)" height="89.0547" id="Arrival" style="stroke:#A80036;stroke-width:1.5;" width="96" x="77" y="500"/><ellipse cx="105.95" cy="516" fill="#ADD1B2" rx="11" ry="11" style="stroke:#A80036;stroke-width:1.0;"/><path d="M107.95,512.5 Q108.1531,512 108.3875,511.75 Q108.6219,511.5 108.8875,511.5 Q109.3563,511.5 109.6531,511.7813 Q109.95,512.0625 109.95,512.7188 L109.95,514.2813 Q109.95,514.9375 109.6688,515.2188 Q109.3875,515.5 108.95,515.5 Q108.5594,515.5 108.3094,515.3281 Q108.0594,515.1563 107.95,514.7031 Q107.9031,514.3906 107.7313,514.2188 Q107.4188,513.8906 106.8563,513.7031 Q106.2938,513.5 105.7313,513.5 Q105.0281,513.5 104.4344,513.7813 Q103.8563,514.0625 103.4031,514.6875 Q102.95,515.3125 102.95,516.1719 L102.95,517.0938 Q102.95,518.125 103.7938,518.8125 Q104.6375,519.5 106.1375,519.5 Q107.0281,519.5 107.6531,519.2969 Q108.0125,519.1875 108.4188,518.8281 Q108.6844,518.625 108.825,518.5625 Q108.9656,518.5 109.1375,518.5 Q109.4656,518.5 109.7,518.7656 Q109.95,519.0156 109.95,519.375 Q109.95,519.7188 109.6063,520.125 Q109.1063,520.7188 108.3094,521.0469 Q107.2625,521.5 105.9813,521.5 Q104.4813,521.5 103.2781,520.9063 Q102.3094,520.4375 101.6219,519.4219 Q100.95,518.4063 100.95,517.2031 L100.95,516.1094 Q100.95,514.8594 101.5438,513.7656 Q102.1531,512.6719 103.2,512.0938 Q104.2625,511.5 105.45,511.5 Q106.1688,511.5 106.7938,511.75 Q107.4188,512 107.95,512.5 Z " fill="#000000"/><text fill="#000000" font-family="sans-serif" font-size="12" lengthAdjust="spacing" textLength="33" x="123.05" y="520.9102">Arrival</text><line style="stroke:#A80036;stroke-width:1.5;" x1="78" x2="172" y1="532" y2="532"/><text fill="#000000" font-family="sans-serif" font-size="13" font-weight="bold" lengthAdjust="spacing" textLength="74" x="83" y="549.4951">-snsNumber</text><text fill="#000000" font-family="sans-serif" font-size="13" font-weight="bold" lengthAdjust="spacing" textLength="77" x="83" y="565.8467">-arrivalTime</text><text fill="#000000" font-family="sans-serif" font-size="13" font-weight="bold" lengthAdjust="spacing" textLength="84" x="83" y="582.1982">-vaccineType</text><!--MD5=[48df65130f715be277a00ee6d54f7c6c]
class Departure--><rect codeLine="64" fill="#FEFECE" filter="url(#fchpk2513upjx)" height="72.7031" id="Departure" style="stroke:#A80036;stroke-width:1.5;" width="110" x="201" y="508"/><ellipse cx="226.35" cy="524" fill="#ADD1B2" rx="11" ry="11" style="stroke:#A80036;stroke-width:1.0;"/><path d="M228.35,520.5 Q228.5531,520 228.7875,519.75 Q229.0219,519.5 229.2875,519.5 Q229.7563,519.5 230.0531,519.7813 Q230.35,520.0625 230.35,520.7188 L230.35,522.2813 Q230.35,522.9375 230.0688,523.2188 Q229.7875,523.5 229.35,523.5 Q228.9594,523.5 228.7094,523.3281 Q228.4594,523.1563 228.35,522.7031 Q228.3031,522.3906 228.1313,522.2188 Q227.8188,521.8906 227.2563,521.7031 Q226.6938,521.5 226.1313,521.5 Q225.4281,521.5 224.8344,521.7813 Q224.2563,522.0625 223.8031,522.6875 Q223.35,523.3125 223.35,524.1719 L223.35,525.0938 Q223.35,526.125 224.1938,526.8125 Q225.0375,527.5 226.5375,527.5 Q227.4281,527.5 228.0531,527.2969 Q228.4125,527.1875 228.8188,526.8281 Q229.0844,526.625 229.225,526.5625 Q229.3656,526.5 229.5375,526.5 Q229.8656,526.5 230.1,526.7656 Q230.35,527.0156 230.35,527.375 Q230.35,527.7188 230.0063,528.125 Q229.5063,528.7188 228.7094,529.0469 Q227.6625,529.5 226.3813,529.5 Q224.8813,529.5 223.6781,528.9063 Q222.7094,528.4375 222.0219,527.4219 Q221.35,526.4063 221.35,525.2031 L221.35,524.1094 Q221.35,522.8594 221.9438,521.7656 Q222.5531,520.6719 223.6,520.0938 Q224.6625,519.5 225.85,519.5 Q226.5688,519.5 227.1938,519.75 Q227.8188,520 228.35,520.5 Z " fill="#000000"/><text fill="#000000" font-family="sans-serif" font-size="12" lengthAdjust="spacing" textLength="55" x="242.65" y="528.9102">Departure</text><line style="stroke:#A80036;stroke-width:1.5;" x1="202" x2="310" y1="540" y2="540"/><text fill="#000000" font-family="sans-serif" font-size="13" font-weight="bold" lengthAdjust="spacing" textLength="74" x="207" y="557.4951">-snsNumber</text><text fill="#000000" font-family="sans-serif" font-size="13" font-weight="bold" lengthAdjust="spacing" textLength="98" x="207" y="573.8467">-departureTime</text><!--MD5=[02e4b9b7573f1156f41e60aa5b4e25a4]
class Company--><rect fill="#FEFECE" filter="url(#fchpk2513upjx)" height="40" id="Company" style="stroke:#A80036;stroke-width:1.5;" width="85" x="601.5" y="13"/><ellipse cx="616.5" cy="29" fill="#ADD1B2" rx="11" ry="11" style="stroke:#A80036;stroke-width:1.0;"/><path d="M618.5,25.5 Q618.7031,25 618.9375,24.75 Q619.1719,24.5 619.4375,24.5 Q619.9063,24.5 620.2031,24.7813 Q620.5,25.0625 620.5,25.7188 L620.5,27.2813 Q620.5,27.9375 620.2188,28.2188 Q619.9375,28.5 619.5,28.5 Q619.1094,28.5 618.8594,28.3281 Q618.6094,28.1563 618.5,27.7031 Q618.4531,27.3906 618.2813,27.2188 Q617.9688,26.8906 617.4063,26.7031 Q616.8438,26.5 616.2813,26.5 Q615.5781,26.5 614.9844,26.7813 Q614.4063,27.0625 613.9531,27.6875 Q613.5,28.3125 613.5,29.1719 L613.5,30.0938 Q613.5,31.125 614.3438,31.8125 Q615.1875,32.5 616.6875,32.5 Q617.5781,32.5 618.2031,32.2969 Q618.5625,32.1875 618.9688,31.8281 Q619.2344,31.625 619.375,31.5625 Q619.5156,31.5 619.6875,31.5 Q620.0156,31.5 620.25,31.7656 Q620.5,32.0156 620.5,32.375 Q620.5,32.7188 620.1563,33.125 Q619.6563,33.7188 618.8594,34.0469 Q617.8125,34.5 616.5313,34.5 Q615.0313,34.5 613.8281,33.9063 Q612.8594,33.4375 612.1719,32.4219 Q611.5,31.4063 611.5,30.2031 L611.5,29.1094 Q611.5,27.8594 612.0938,26.7656 Q612.7031,25.6719 613.75,25.0938 Q614.8125,24.5 616,24.5 Q616.7188,24.5 617.3438,24.75 Q617.9688,25 618.5,25.5 Z " fill="#000000"/><text fill="#000000" font-family="sans-serif" font-size="12" lengthAdjust="spacing" textLength="53" x="630.5" y="33.9102">Company</text><line style="stroke:#A80036;stroke-width:1.5;" x1="602.5" x2="685.5" y1="45" y2="45"/><!--MD5=[c8a4164c9d75f217cc7b284a4eae0676]
class LegacyData--><rect fill="#FEFECE" filter="url(#fchpk2513upjx)" height="40" id="LegacyData" style="stroke:#A80036;stroke-width:1.5;" width="97" x="308.5" y="201"/><ellipse cx="323.5" cy="217" fill="#ADD1B2" rx="11" ry="11" style="stroke:#A80036;stroke-width:1.0;"/><path d="M325.5,213.5 Q325.7031,213 325.9375,212.75 Q326.1719,212.5 326.4375,212.5 Q326.9063,212.5 327.2031,212.7813 Q327.5,213.0625 327.5,213.7188 L327.5,215.2813 Q327.5,215.9375 327.2188,216.2188 Q326.9375,216.5 326.5,216.5 Q326.1094,216.5 325.8594,216.3281 Q325.6094,216.1563 325.5,215.7031 Q325.4531,215.3906 325.2813,215.2188 Q324.9688,214.8906 324.4063,214.7031 Q323.8438,214.5 323.2813,214.5 Q322.5781,214.5 321.9844,214.7813 Q321.4063,215.0625 320.9531,215.6875 Q320.5,216.3125 320.5,217.1719 L320.5,218.0938 Q320.5,219.125 321.3438,219.8125 Q322.1875,220.5 323.6875,220.5 Q324.5781,220.5 325.2031,220.2969 Q325.5625,220.1875 325.9688,219.8281 Q326.2344,219.625 326.375,219.5625 Q326.5156,219.5 326.6875,219.5 Q327.0156,219.5 327.25,219.7656 Q327.5,220.0156 327.5,220.375 Q327.5,220.7188 327.1563,221.125 Q326.6563,221.7188 325.8594,222.0469 Q324.8125,222.5 323.5313,222.5 Q322.0313,222.5 320.8281,221.9063 Q319.8594,221.4375 319.1719,220.4219 Q318.5,219.4063 318.5,218.2031 L318.5,217.1094 Q318.5,215.8594 319.0938,214.7656 Q319.7031,213.6719 320.75,213.0938 Q321.8125,212.5 323,212.5 Q323.7188,212.5 324.3438,212.75 Q324.9688,213 325.5,213.5 Z " fill="#000000"/><text fill="#000000" font-family="sans-serif" font-size="12" lengthAdjust="spacing" textLength="65" x="337.5" y="221.9102">LegacyData</text><line style="stroke:#A80036;stroke-width:1.5;" x1="309.5" x2="404.5" y1="233" y2="233"/><path d="M663.4952,53.2761 C678.9629,70.6938 698,97.8491 698,126 C698,126 698,126 698,651.5 C698,790.5962 519.8797,858.587 407.8587,887.5929 " fill="none" style="stroke:#A80036;stroke-width:1.0;"/><polygon fill="#A80036" points="407.8587,887.5929,417.574,889.2092,412.699,886.3395,415.5687,881.4646,407.8587,887.5929" style="stroke:#A80036;stroke-width:1.0;"/><text fill="#000000" font-family="sans-serif" font-size="13" lengthAdjust="spacing" textLength="30" x="699" y="273.4951">owns</text><text fill="#000000" font-family="sans-serif" font-size="13" lengthAdjust="spacing" textLength="5" x="408.8587" y="884.088">*</text><text fill="#000000" font-family="sans-serif" font-size="13" lengthAdjust="spacing" textLength="7" x="655.4952" y="67.7712">1</text><path d="M601.3431,47.674 C552.3117,63.3914 471.5195,89.2899 416.3646,106.9702 " fill="none" style="stroke:#A80036;stroke-width:1.0;"/><polygon fill="#A80036" points="416.3646,106.9702,426.156,108.032,421.1259,105.444,423.714,100.4138,416.3646,106.9702" style="stroke:#A80036;stroke-width:1.0;"/><text fill="#000000" font-family="sans-serif" font-size="13" lengthAdjust="spacing" textLength="63" x="528" y="85.4951">employees</text><text fill="#000000" font-family="sans-serif" font-size="13" lengthAdjust="spacing" textLength="5" x="410.3646" y="103.4654">*</text><text fill="#000000" font-family="sans-serif" font-size="13" lengthAdjust="spacing" textLength="7" x="593.3431" y="44.1691">1</text><path d="M644.5556,53.1064 C645.3953,94.3789 645.4935,194.7772 630,277 C628.8978,282.8491 627.5716,288.8175 626.0877,294.8001 " fill="none" style="stroke:#A80036;stroke-width:1.0;"/><polygon fill="#A80036" points="626.0877,294.8001,632.1368,287.0278,627.2914,289.9471,624.3721,285.1018,626.0877,294.8001" style="stroke:#A80036;stroke-width:1.0;"/><text fill="#000000" font-family="sans-serif" font-size="13" lengthAdjust="spacing" textLength="37" x="644" y="179.4951">knows</text><text fill="#000000" font-family="sans-serif" font-size="13" lengthAdjust="spacing" textLength="5" x="620.0877" y="291.2952">*</text><text fill="#000000" font-family="sans-serif" font-size="13" lengthAdjust="spacing" textLength="7" x="636.5556" y="67.6015">1</text><path d="M289.739,131.9532 C187.8202,139.8121 6,161.965 6,220 C6,220 6,220 6,651.5 C6,767.7604 137.6075,840.2555 230.144,876.8593 " fill="none" style="stroke:#A80036;stroke-width:1.0;"/><polygon fill="#A80036" points="230.144,876.8593,223.2463,869.8293,225.4945,875.0201,220.3036,877.2684,230.144,876.8593" style="stroke:#A80036;stroke-width:1.0;"/><text fill="#000000" font-family="sans-serif" font-size="13" lengthAdjust="spacing" textLength="67" x="7" y="393.9951">coordinates</text><text fill="#000000" font-family="sans-serif" font-size="13" lengthAdjust="spacing" textLength="7" x="222.144" y="873.3544">1</text><text fill="#000000" font-family="sans-serif" font-size="13" lengthAdjust="spacing" textLength="7" x="281.739" y="128.4483">1</text><path d="M357,147.0625 C357,162.8519 357,185.1792 357,200.962 " fill="none" style="stroke:#A80036;stroke-width:1.0;"/><polygon fill="#A80036" points="357,200.962,361,191.962,357,195.962,353,191.962,357,200.962" style="stroke:#A80036;stroke-width:1.0;"/><text fill="#000000" font-family="sans-serif" font-size="13" lengthAdjust="spacing" textLength="43" x="358" y="179.4951">imports</text><text fill="#000000" font-family="sans-serif" font-size="13" lengthAdjust="spacing" textLength="5" x="351" y="197.4571">*</text><text fill="#000000" font-family="sans-serif" font-size="13" lengthAdjust="spacing" textLength="7" x="349" y="161.5576">1</text><path d="M148.5943,589.344 C169.9514,629.0307 202.7418,689.9636 233.8754,747.8175 " fill="none" style="stroke:#A80036;stroke-width:1.0;"/><polygon fill="#A80036" points="148.5943,589.344,149.3368,599.1648,150.9637,593.7469,156.3815,595.3737,148.5943,589.344" style="stroke:#A80036;stroke-width:1.0;"/><text fill="#000000" font-family="sans-serif" font-size="13" lengthAdjust="spacing" textLength="21" x="203" y="655.9951">has</text><text fill="#000000" font-family="sans-serif" font-size="13" lengthAdjust="spacing" textLength="7" x="225.8754" y="744.3126">1</text><text fill="#000000" font-family="sans-serif" font-size="13" lengthAdjust="spacing" textLength="5" x="142.5943" y="603.8391">*</text><path d="M262.2131,581.0527 C269.0425,620.1322 280.4876,685.6232 291.3207,747.6131 " fill="none" style="stroke:#A80036;stroke-width:1.0;"/><polygon fill="#A80036" points="262.2131,581.0527,259.8221,590.607,263.0738,585.9781,267.7027,589.2298,262.2131,581.0527" style="stroke:#A80036;stroke-width:1.0;"/><text fill="#000000" font-family="sans-serif" font-size="13" lengthAdjust="spacing" textLength="21" x="282" y="655.9951">has</text><text fill="#000000" font-family="sans-serif" font-size="13" lengthAdjust="spacing" textLength="7" x="283.3207" y="744.1082">1</text><text fill="#000000" font-family="sans-serif" font-size="13" lengthAdjust="spacing" textLength="5" x="256.2131" y="595.5478">*</text><path d="M432.2367,694.0976 C423.9566,709.5922 414.0389,728.1515 403.5626,747.7559 " fill="none" style="stroke:#A80036;stroke-width:1.0;"/><polygon fill="#A80036" points="432.2367,694.0976,424.467,700.1501,429.8801,698.5074,431.5228,703.9205,432.2367,694.0976" style="stroke:#A80036;stroke-width:1.0;"/><text fill="#000000" font-family="sans-serif" font-size="13" lengthAdjust="spacing" textLength="67" x="424" y="726.4951">administers</text><text fill="#000000" font-family="sans-serif" font-size="13" lengthAdjust="spacing" textLength="7" x="395.5626" y="744.251">1</text><ellipse cx="412.7367" cy="703.9491" fill="#000000" rx="2.5" ry="2.5" style="stroke:#000000;stroke-width:0.0;"/><text fill="#000000" font-family="sans-serif" font-size="13" lengthAdjust="spacing" textLength="11" x="420.2367" y="708.5927">,1</text><path d="M447.3193,449.8027 C449.1714,497.9569 451.7202,564.2253 453.3641,606.9664 " fill="none" style="stroke:#A80036;stroke-width:1.0;"/><polygon fill="#A80036" points="453.3641,606.9664,457.0152,597.8193,453.1719,601.9701,449.0212,598.1268,453.3641,606.9664" style="stroke:#A80036;stroke-width:1.0;"/><text fill="#000000" font-family="sans-serif" font-size="13" lengthAdjust="spacing" textLength="24" x="454" y="549.9951">is of</text><text fill="#000000" font-family="sans-serif" font-size="13" lengthAdjust="spacing" textLength="7" x="445.3641" y="603.4615">1</text><text fill="#000000" font-family="sans-serif" font-size="13" lengthAdjust="spacing" textLength="7" x="439.3193" y="464.2979">1</text><path d="M355.944,241.008 C351.9344,313.1809 337.3952,574.8866 327.7962,747.6684 " fill="none" style="stroke:#A80036;stroke-width:1.0;"/><polygon fill="#A80036" points="327.7962,747.6684,332.2893,738.9042,328.0735,742.6761,324.3016,738.4604,327.7962,747.6684" style="stroke:#A80036;stroke-width:1.0;"/><text fill="#000000" font-family="sans-serif" font-size="13" lengthAdjust="spacing" textLength="68" x="343" y="549.9951">is related to</text><text fill="#000000" font-family="sans-serif" font-size="13" lengthAdjust="spacing" textLength="7" x="319.7962" y="744.1636">1</text><text fill="#000000" font-family="sans-serif" font-size="13" lengthAdjust="spacing" textLength="7" x="347.944" y="255.5031">1</text><path d="M405.6869,226.6528 C434.5045,231.2913 470.6099,240.5457 498,259 C512.434,268.725 525.5423,281.3607 537.1117,294.9062 " fill="none" style="stroke:#A80036;stroke-width:1.0;"/><polygon fill="#A80036" points="537.1117,294.9062,534.3081,285.4648,533.8644,291.1042,528.2249,290.6605,537.1117,294.9062" style="stroke:#A80036;stroke-width:1.0;"/><text fill="#000000" font-family="sans-serif" font-size="13" lengthAdjust="spacing" textLength="106" x="520" y="273.4951">has information on</text><text fill="#000000" font-family="sans-serif" font-size="13" lengthAdjust="spacing" textLength="5" x="531.1117" y="291.4013">*</text><text fill="#000000" font-family="sans-serif" font-size="13" lengthAdjust="spacing" textLength="7" x="406.6869" y="223.1479">1</text><path d="M308.2807,222.262 C244.9112,223.7577 139.4013,230.5843 115,259 C57.3652,326.1165 85.2181,438.4688 107.1876,499.9837 " fill="none" style="stroke:#A80036;stroke-width:1.0;"/><polygon fill="#A80036" points="107.1876,499.9837,107.9276,490.1627,105.5059,495.275,100.3936,492.8534,107.1876,499.9837" style="stroke:#A80036;stroke-width:1.0;"/><text fill="#000000" font-family="sans-serif" font-size="13" lengthAdjust="spacing" textLength="106" x="116" y="273.4951">has information on</text><text fill="#000000" font-family="sans-serif" font-size="13" lengthAdjust="spacing" textLength="5" x="101.1876" y="496.4788">*</text><text fill="#000000" font-family="sans-serif" font-size="13" lengthAdjust="spacing" textLength="7" x="300.2807" y="218.7572">1</text><path d="M308.3497,223.4759 C282.1391,227.0677 251.8112,236.3341 235,259 C180.122,332.9895 216.0744,449.6486 239.8389,507.9145 " fill="none" style="stroke:#A80036;stroke-width:1.0;"/><polygon fill="#A80036" points="239.8389,507.9145,240.1438,498.0703,237.9506,503.2848,232.7362,501.0916,239.8389,507.9145" style="stroke:#A80036;stroke-width:1.0;"/><text fill="#000000" font-family="sans-serif" font-size="13" lengthAdjust="spacing" textLength="106" x="236" y="273.4951">has information on</text><text fill="#000000" font-family="sans-serif" font-size="13" lengthAdjust="spacing" textLength="5" x="233.8389" y="504.4096">*</text><text fill="#000000" font-family="sans-serif" font-size="13" lengthAdjust="spacing" textLength="7" x="300.3497" y="237.9711">1</text><path d="M367.2669,241.3089 C378.4656,262.37 396.9502,297.1336 413.0847,327.4774 " fill="none" style="stroke:#A80036;stroke-width:1.0;"/><polygon fill="#A80036" points="413.0847,327.4774,412.3911,317.653,410.7372,323.0627,405.3276,321.4088,413.0847,327.4774" style="stroke:#A80036;stroke-width:1.0;"/><text fill="#000000" font-family="sans-serif" font-size="13" lengthAdjust="spacing" textLength="106" x="387" y="273.4951">has information on</text><text fill="#000000" font-family="sans-serif" font-size="13" lengthAdjust="spacing" textLength="5" x="407.0847" y="323.9725">*</text><text fill="#000000" font-family="sans-serif" font-size="13" lengthAdjust="spacing" textLength="7" x="359.2669" y="255.804">1</text><!--MD5=[4e2d1259b46760314450fb947d5ec630]
@startuml
!pragma layout smetana

hide methods
left to right direction
skinparam classAttributeIconSize 0


class CenterCoordinator


class VaccinationCenter {
==-id
==-name
==-phoneNumber
==-email
==-fax
==-website
==-openingHour
==-closingHour
==-slotDuration
==-vaccinesPerSlot
==-road
==-zipCode
==-local
==-centerCoordinatorID
==-arrivalsList
==-scheduledVaccineList
==-vaccinesAdministeredList
}

class SnsUser {
==-Name
==-Sex
==-BirthDate
==-Address
==-PhoneNumber
==-Email
==-UserNumber
==-CitizenCardNumber
==-Password
}


class VaccineType{
-description
==-code
==-vaccineTechnology
}

class Vaccine {
==-name
==-id
==-brand
==-adminProcess
==-vaccine type
}

class Arrival {
==-snsNumber
==-arrivalTime
==-vaccineType
}

class Departure {
==-snsNumber
==-departureTime
}

Company "1" - - -> "*" VaccinationCenter : owns >
Company "1" -d-> "*" CenterCoordinator : employees >
Company "1" -r-> "*" SnsUser : knows >

CenterCoordinator "1" - -> "1" VaccinationCenter : coordinates >
CenterCoordinator "1" - -> "*" LegacyData: imports

VaccinationCenter "1" -u-> "*" Arrival : has >
VaccinationCenter "1" -u-> "*" Departure : has >
VaccinationCenter "1" -u-> "*,1" VaccineType: administers >

Vaccine "1" - -> "1" VaccineType : is of >

LegacyData "1" - -> "1" VaccinationCenter: is related to
LegacyData "1" - -> "*" SnsUser : has information on
LegacyData "1" - -> "*" Arrival : has information on
LegacyData "1" - -> "*" Departure : has information on
LegacyData "1" - -> "*" Vaccine : has information on

@enduml

PlantUML version 1.2022.1(Tue Feb 01 18:19:58 GMT 2022)
(GPL source distribution)
Java Runtime: OpenJDK Runtime Environment
JVM: OpenJDK 64-Bit Server VM
Default Encoding: Cp1252
Language: en
Country: US
--></g></svg>