<?xml version="1.0" encoding="UTF-8" standalone="no"?><svg xmlns="http://www.w3.org/2000/svg" xmlns:xlink="http://www.w3.org/1999/xlink" contentScriptType="application/ecmascript" contentStyleType="text/css" height="470px" preserveAspectRatio="none" style="width:348px;height:470px;background:#FFFFFF;" version="1.1" viewBox="0 0 348 470" width="348px" zoomAndPan="magnify"><defs><filter height="300%" id="f1gg6zuk1atcch" width="300%" x="-1" y="-1"><feGaussianBlur result="blurOut" stdDeviation="2.0"/><feColorMatrix in="blurOut" result="blurOut2" type="matrix" values="0 0 0 0 0 0 0 0 0 0 0 0 0 0 0 0 0 0 .4 0"/><feOffset dx="4.0" dy="4.0" in="blurOut2" result="blurOut3"/><feBlend in="SourceGraphic" in2="blurOut3" mode="normal"/></filter></defs><g><rect fill="#FFFFFF" filter="url(#f1gg6zuk1atcch)" height="267.5156" style="stroke:#A80036;stroke-width:1.0;" width="10" x="62" y="99.6094"/><rect fill="#FFFFFF" filter="url(#f1gg6zuk1atcch)" height="30.3516" style="stroke:#A80036;stroke-width:1.0;" width="10" x="316" y="121.9609"/><rect fill="#FFFFFF" filter="url(#f1gg6zuk1atcch)" height="46.7031" style="stroke:#A80036;stroke-width:1.0;" width="10" x="316" y="182.6641"/><rect fill="#FFFFFF" filter="url(#f1gg6zuk1atcch)" height="46.7031" style="stroke:#A80036;stroke-width:1.0;" width="10" x="316" y="259.7188"/><rect fill="#FFFFFF" filter="url(#f1gg6zuk1atcch)" height="30.3516" style="stroke:#A80036;stroke-width:1.0;" width="10" x="316" y="336.7734"/><line style="stroke:#A80036;stroke-width:1.0;stroke-dasharray:5.0,5.0;" x1="67" x2="67" y1="89.6094" y2="385.125"/><line style="stroke:#A80036;stroke-width:1.0;stroke-dasharray:5.0,5.0;" x1="321" x2="321" y1="89.6094" y2="385.125"/><text fill="#000000" font-family="sans-serif" font-size="14" lengthAdjust="spacing" textLength="118" x="5" y="86.5332">CenterCoordinator</text><ellipse cx="67" cy="15" fill="#FEFECE" filter="url(#f1gg6zuk1atcch)" rx="8" ry="8" style="stroke:#A80036;stroke-width:2.0;"/><path d="M67,23 L67,50 M54,31 L80,31 M67,50 L54,65 M67,50 L80,65 " fill="none" filter="url(#f1gg6zuk1atcch)" style="stroke:#A80036;stroke-width:2.0;"/><text fill="#000000" font-family="sans-serif" font-size="14" lengthAdjust="spacing" textLength="118" x="5" y="398.6582">CenterCoordinator</text><ellipse cx="67" cy="411.7344" fill="#FEFECE" filter="url(#f1gg6zuk1atcch)" rx="8" ry="8" style="stroke:#A80036;stroke-width:2.0;"/><path d="M67,419.7344 L67,446.7344 M54,427.7344 L80,427.7344 M67,446.7344 L54,461.7344 M67,446.7344 L80,461.7344 " fill="none" filter="url(#f1gg6zuk1atcch)" style="stroke:#A80036;stroke-width:2.0;"/><text fill="#000000" font-family="sans-serif" font-size="14" lengthAdjust="spacing" textLength="46" x="295" y="86.5332">System</text><ellipse cx="321" cy="15" fill="#FEFECE" filter="url(#f1gg6zuk1atcch)" rx="8" ry="8" style="stroke:#A80036;stroke-width:2.0;"/><path d="M321,23 L321,50 M308,31 L334,31 M321,50 L308,65 M321,50 L334,65 " fill="none" filter="url(#f1gg6zuk1atcch)" style="stroke:#A80036;stroke-width:2.0;"/><text fill="#000000" font-family="sans-serif" font-size="14" lengthAdjust="spacing" textLength="46" x="295" y="398.6582">System</text><ellipse cx="321" cy="411.7344" fill="#FEFECE" filter="url(#f1gg6zuk1atcch)" rx="8" ry="8" style="stroke:#A80036;stroke-width:2.0;"/><path d="M321,419.7344 L321,446.7344 M308,427.7344 L334,427.7344 M321,446.7344 L308,461.7344 M321,446.7344 L334,461.7344 " fill="none" filter="url(#f1gg6zuk1atcch)" style="stroke:#A80036;stroke-width:2.0;"/><rect fill="#FFFFFF" filter="url(#f1gg6zuk1atcch)" height="267.5156" style="stroke:#A80036;stroke-width:1.0;" width="10" x="62" y="99.6094"/><rect fill="#FFFFFF" filter="url(#f1gg6zuk1atcch)" height="30.3516" style="stroke:#A80036;stroke-width:1.0;" width="10" x="316" y="121.9609"/><rect fill="#FFFFFF" filter="url(#f1gg6zuk1atcch)" height="46.7031" style="stroke:#A80036;stroke-width:1.0;" width="10" x="316" y="182.6641"/><rect fill="#FFFFFF" filter="url(#f1gg6zuk1atcch)" height="46.7031" style="stroke:#A80036;stroke-width:1.0;" width="10" x="316" y="259.7188"/><rect fill="#FFFFFF" filter="url(#f1gg6zuk1atcch)" height="30.3516" style="stroke:#A80036;stroke-width:1.0;" width="10" x="316" y="336.7734"/><polygon fill="#A80036" points="304,117.9609,314,121.9609,304,125.9609,308,121.9609" style="stroke:#A80036;stroke-width:1.0;"/><line style="stroke:#A80036;stroke-width:1.0;" x1="72" x2="310" y1="121.9609" y2="121.9609"/><text fill="#000000" font-family="sans-serif" font-size="13" font-weight="bold" lengthAdjust="spacing" textLength="7" x="79" y="117.1045">1</text><text fill="#000000" font-family="sans-serif" font-size="13" lengthAdjust="spacing" textLength="214" x="90" y="117.1045">asks to import data from a legacy file</text><polygon fill="#A80036" points="83,148.3125,73,152.3125,83,156.3125,79,152.3125" style="stroke:#A80036;stroke-width:1.0;"/><line style="stroke:#A80036;stroke-width:1.0;" x1="77" x2="320" y1="152.3125" y2="152.3125"/><text fill="#000000" font-family="sans-serif" font-size="13" font-weight="bold" lengthAdjust="spacing" textLength="7" x="89" y="147.4561">2</text><text fill="#000000" font-family="sans-serif" font-size="13" lengthAdjust="spacing" textLength="157" x="100" y="147.4561">requests the path of the file</text><polygon fill="#A80036" points="304,178.6641,314,182.6641,304,186.6641,308,182.6641" style="stroke:#A80036;stroke-width:1.0;"/><line style="stroke:#A80036;stroke-width:1.0;" x1="72" x2="310" y1="182.6641" y2="182.6641"/><text fill="#000000" font-family="sans-serif" font-size="13" font-weight="bold" lengthAdjust="spacing" textLength="7" x="79" y="177.8076">3</text><text fill="#000000" font-family="sans-serif" font-size="13" lengthAdjust="spacing" textLength="139" x="90" y="177.8076">types the path of the file</text><polygon fill="#A80036" points="83,225.3672,73,229.3672,83,233.3672,79,229.3672" style="stroke:#A80036;stroke-width:1.0;"/><line style="stroke:#A80036;stroke-width:1.0;" x1="77" x2="320" y1="229.3672" y2="229.3672"/><text fill="#000000" font-family="sans-serif" font-size="13" font-weight="bold" lengthAdjust="spacing" textLength="7" x="89" y="216.335">4</text><text fill="#000000" font-family="sans-serif" font-size="13" lengthAdjust="spacing" textLength="191" x="100" y="208.1592">requests the selection of the field</text><text fill="#000000" font-family="sans-serif" font-size="13" lengthAdjust="spacing" textLength="93" x="104" y="224.5107">you want to sort</text><polygon fill="#A80036" points="304,255.7188,314,259.7188,304,263.7188,308,259.7188" style="stroke:#A80036;stroke-width:1.0;"/><line style="stroke:#A80036;stroke-width:1.0;" x1="72" x2="310" y1="259.7188" y2="259.7188"/><text fill="#000000" font-family="sans-serif" font-size="13" font-weight="bold" lengthAdjust="spacing" textLength="7" x="79" y="254.8623">5</text><text fill="#000000" font-family="sans-serif" font-size="13" lengthAdjust="spacing" textLength="69" x="90" y="254.8623">selects field</text><polygon fill="#A80036" points="83,302.4219,73,306.4219,83,310.4219,79,306.4219" style="stroke:#A80036;stroke-width:1.0;"/><line style="stroke:#A80036;stroke-width:1.0;" x1="77" x2="320" y1="306.4219" y2="306.4219"/><text fill="#000000" font-family="sans-serif" font-size="13" font-weight="bold" lengthAdjust="spacing" textLength="7" x="89" y="293.3896">6</text><text fill="#000000" font-family="sans-serif" font-size="13" lengthAdjust="spacing" textLength="197" x="100" y="285.2139">requests the selection of the order</text><text fill="#000000" font-family="sans-serif" font-size="13" lengthAdjust="spacing" textLength="93" x="104" y="301.5654">you want to sort</text><polygon fill="#A80036" points="304,332.7734,314,336.7734,304,340.7734,308,336.7734" style="stroke:#A80036;stroke-width:1.0;"/><line style="stroke:#A80036;stroke-width:1.0;" x1="72" x2="310" y1="336.7734" y2="336.7734"/><text fill="#000000" font-family="sans-serif" font-size="13" font-weight="bold" lengthAdjust="spacing" textLength="7" x="79" y="331.917">7</text><text fill="#000000" font-family="sans-serif" font-size="13" lengthAdjust="spacing" textLength="75" x="90" y="331.917">selects order</text><polygon fill="#A80036" points="78,363.125,68,367.125,78,371.125,74,367.125" style="stroke:#A80036;stroke-width:1.0;"/><line style="stroke:#A80036;stroke-width:1.0;" x1="72" x2="320" y1="367.125" y2="367.125"/><text fill="#000000" font-family="sans-serif" font-size="13" font-weight="bold" lengthAdjust="spacing" textLength="7" x="84" y="362.2686">8</text><text fill="#000000" font-family="sans-serif" font-size="13" lengthAdjust="spacing" textLength="98" x="95" y="362.2686">shows sorted list</text><!--MD5=[3794a2fb48249cede53c066393371274]
@startuml
'https://plantuml.com/sequence-diagram

autonumber
actor "CenterCoordinator" as CC
actor "System" as SY

activate CC
CC -> SY: asks to import data from a legacy file

activate SY
SY -> CC: requests the path of the file
deactivate SY

CC -> SY: types the path of the file

activate SY
SY -> CC: requests the selection of the field \n you want to sort
deactivate SY

CC -> SY: selects field

activate SY
SY -> CC: requests the selection of the order \n you want to sort
deactivate SY

CC -> SY: selects order

activate SY
SY -> CC: shows sorted list
deactivate SY

deactivate CC

@enduml

@startuml

autonumber
actor "CenterCoordinator" as CC
actor "System" as SY

activate CC
CC -> SY: asks to import data from a legacy file

activate SY
SY -> CC: requests the path of the file
deactivate SY

CC -> SY: types the path of the file

activate SY
SY -> CC: requests the selection of the field \n you want to sort
deactivate SY

CC -> SY: selects field

activate SY
SY -> CC: requests the selection of the order \n you want to sort
deactivate SY

CC -> SY: selects order

activate SY
SY -> CC: shows sorted list
deactivate SY

deactivate CC

@enduml

PlantUML version 1.2022.1(Tue Feb 01 18:19:58 GMT 2022)
(GPL source distribution)
Java Runtime: OpenJDK Runtime Environment
JVM: OpenJDK 64-Bit Server VM
Default Encoding: Cp1252
Language: en
Country: US
--></g></svg>