<?xml version="1.0" encoding="UTF-8" standalone="no"?><svg xmlns="http://www.w3.org/2000/svg" xmlns:xlink="http://www.w3.org/1999/xlink" contentStyleType="text/css" height="1339px" preserveAspectRatio="none" style="width:1928px;height:1339px;background:#FFFFFF;" version="1.1" viewBox="0 0 1928 1339" width="1928px" zoomAndPan="magnify"><defs/><g><rect fill="#FFFFFF" height="1154.3047" style="stroke:#181818;stroke-width:1.0;" width="10" x="77" y="92.6094"/><rect fill="#FFFFFF" height="182.1094" style="stroke:#181818;stroke-width:1.0;" width="10" x="460" y="114.9609"/><rect fill="#FFFFFF" height="167.4063" style="stroke:#181818;stroke-width:1.0;" width="10" x="460" y="327.4219"/><rect fill="#FFFFFF" height="302.1641" style="stroke:#181818;stroke-width:1.0;" width="10" x="460" y="550.5313"/><rect fill="#FFFFFF" height="30.3516" style="stroke:#181818;stroke-width:1.0;" width="10" x="460" y="898.8828"/><rect fill="#FFFFFF" height="272.3281" style="stroke:#181818;stroke-width:1.0;" width="10" x="460" y="959.5859"/><rect fill="#FFFFFF" height="121.4063" style="stroke:#181818;stroke-width:1.0;" width="10" x="863" y="145.3125"/><rect fill="#FFFFFF" height="30" style="stroke:#181818;stroke-width:1.0;" width="10" x="863" y="357.7734"/><rect fill="#FFFFFF" height="30" style="stroke:#181818;stroke-width:1.0;" width="10" x="863" y="418.125"/><rect fill="#FFFFFF" height="30.3516" style="stroke:#181818;stroke-width:1.0;" width="10" x="863" y="580.8828"/><rect fill="#FFFFFF" height="164.4063" style="stroke:#181818;stroke-width:1.0;" width="10" x="863" y="641.5859"/><rect fill="#FFFFFF" height="211.625" style="stroke:#181818;stroke-width:1.0;" width="10" x="863" y="989.9375"/><rect fill="#FFFFFF" height="30.3516" style="stroke:#181818;stroke-width:1.0;" width="10" x="1313" y="1140.8594"/><rect fill="#FFFFFF" height="30.3516" style="stroke:#181818;stroke-width:1.0;" width="10" x="1422" y="175.6641"/><rect fill="#FFFFFF" height="30.3516" style="stroke:#181818;stroke-width:1.0;" width="10" x="1558.5" y="236.3672"/><rect fill="#FFFFFF" height="103.7031" style="stroke:#181818;stroke-width:1.0;" width="10" x="1723" y="671.9375"/><rect fill="#FFFFFF" height="28" style="stroke:#181818;stroke-width:1.0;" width="10" x="1728" y="710.2891"/><rect fill="#FFFFFF" height="30" style="stroke:#181818;stroke-width:1.0;" width="10" x="1723" y="1020.2891"/><rect height="730.0859" style="stroke:#000000;stroke-width:1.5;fill:none;" width="1911" x="10" y="509.8281"/><line style="stroke:#181818;stroke-width:0.5;fill:none;stroke-dasharray:5.0,5.0;" x1="82" x2="82" y1="82.6094" y2="1256.9141"/><line style="stroke:#181818;stroke-width:0.5;fill:none;stroke-dasharray:5.0,5.0;" x1="465" x2="465" y1="82.6094" y2="1256.9141"/><line style="stroke:#181818;stroke-width:0.5;fill:none;stroke-dasharray:5.0,5.0;" x1="868" x2="868" y1="82.6094" y2="1256.9141"/><line style="stroke:#181818;stroke-width:0.5;fill:none;stroke-dasharray:5.0,5.0;" x1="1318" x2="1318" y1="1098.3984" y2="1256.9141"/><line style="stroke:#181818;stroke-width:0.5;fill:none;stroke-dasharray:5.0,5.0;" x1="1427" x2="1427" y1="82.6094" y2="1256.9141"/><line style="stroke:#181818;stroke-width:0.5;fill:none;stroke-dasharray:5.0,5.0;" x1="1563" x2="1563" y1="82.6094" y2="1256.9141"/><line style="stroke:#181818;stroke-width:0.5;fill:none;stroke-dasharray:5.0,5.0;" x1="1728" x2="1728" y1="82.6094" y2="1256.9141"/><text fill="#000000" font-family="sans-serif" font-size="14" lengthAdjust="spacing" textLength="118" x="20" y="79.5332">CenterCoordinator</text><ellipse cx="82" cy="13.5" fill="#E2E2F0" rx="8" ry="8" style="stroke:#181818;stroke-width:0.5;"/><path d="M82,21.5 L82,48.5 M69,29.5 L95,29.5 M82,48.5 L69,63.5 M82,48.5 L95,63.5 " fill="none" style="stroke:#181818;stroke-width:0.5;"/><text fill="#000000" font-family="sans-serif" font-size="14" lengthAdjust="spacing" textLength="118" x="20" y="1270.4473">CenterCoordinator</text><ellipse cx="82" cy="1282.0234" fill="#E2E2F0" rx="8" ry="8" style="stroke:#181818;stroke-width:0.5;"/><path d="M82,1290.0234 L82,1317.0234 M69,1298.0234 L95,1298.0234 M82,1317.0234 L69,1332.0234 M82,1317.0234 L95,1332.0234 " fill="none" style="stroke:#181818;stroke-width:0.5;"/><rect fill="#E2E2F0" height="31.6094" rx="2.5" ry="2.5" style="stroke:#181818;stroke-width:0.5;" width="202" x="364" y="50"/><text fill="#000000" font-family="sans-serif" font-size="14" lengthAdjust="spacing" textLength="188" x="371" y="71.5332">:CheckAndExportVacStatsGUI</text><rect fill="#E2E2F0" height="31.6094" rx="2.5" ry="2.5" style="stroke:#181818;stroke-width:0.5;" width="202" x="364" y="1255.9141"/><text fill="#000000" font-family="sans-serif" font-size="14" lengthAdjust="spacing" textLength="188" x="371" y="1277.4473">:CheckAndExportVacStatsGUI</text><rect fill="#E2E2F0" height="31.6094" rx="2.5" ry="2.5" style="stroke:#181818;stroke-width:0.5;" width="290" x="723" y="50"/><text fill="#000000" font-family="sans-serif" font-size="14" lengthAdjust="spacing" textLength="276" x="730" y="71.5332">:CheckAndExportVaccinationStatsController</text><rect fill="#E2E2F0" height="31.6094" rx="2.5" ry="2.5" style="stroke:#181818;stroke-width:0.5;" width="290" x="723" y="1255.9141"/><text fill="#000000" font-family="sans-serif" font-size="14" lengthAdjust="spacing" textLength="276" x="730" y="1277.4473">:CheckAndExportVaccinationStatsController</text><rect fill="#E2E2F0" height="49.2188" rx="2.5" ry="2.5" style="stroke:#181818;stroke-width:0.5;" width="120" x="1258" y="1255.9141"/><text fill="#000000" font-family="sans-serif" font-size="14" lengthAdjust="spacing" textLength="101" x="1267.5" y="1277.4473">exportListToFile</text><text fill="#000000" font-family="sans-serif" font-size="14" lengthAdjust="spacing" textLength="106" x="1265" y="1295.0566">:ExportListToFIle</text><rect fill="#E2E2F0" height="49.2188" rx="2.5" ry="2.5" style="stroke:#181818;stroke-width:0.5;" width="78" x="1388" y="32.3906"/><text fill="#000000" font-family="sans-serif" font-size="14" lengthAdjust="spacing" textLength="57" x="1398.5" y="53.9238">company</text><text fill="#000000" font-family="sans-serif" font-size="14" lengthAdjust="spacing" textLength="64" x="1395" y="71.5332">:Company</text><rect fill="#E2E2F0" height="49.2188" rx="2.5" ry="2.5" style="stroke:#181818;stroke-width:0.5;" width="78" x="1388" y="1255.9141"/><text fill="#000000" font-family="sans-serif" font-size="14" lengthAdjust="spacing" textLength="57" x="1398.5" y="1277.4473">company</text><text fill="#000000" font-family="sans-serif" font-size="14" lengthAdjust="spacing" textLength="64" x="1395" y="1295.0566">:Company</text><rect fill="#E2E2F0" height="49.2188" rx="2.5" ry="2.5" style="stroke:#181818;stroke-width:0.5;" width="175" x="1476" y="32.3906"/><text fill="#000000" font-family="sans-serif" font-size="14" lengthAdjust="spacing" textLength="155" x="1486" y="53.9238">vaccinationCentersStore</text><text fill="#000000" font-family="sans-serif" font-size="14" lengthAdjust="spacing" textLength="161" x="1483" y="71.5332">:VaccinationCentersStore</text><rect fill="#E2E2F0" height="49.2188" rx="2.5" ry="2.5" style="stroke:#181818;stroke-width:0.5;" width="175" x="1476" y="1255.9141"/><text fill="#000000" font-family="sans-serif" font-size="14" lengthAdjust="spacing" textLength="155" x="1486" y="1277.4473">vaccinationCentersStore</text><text fill="#000000" font-family="sans-serif" font-size="14" lengthAdjust="spacing" textLength="161" x="1483" y="1295.0566">:VaccinationCentersStore</text><rect fill="#E2E2F0" height="49.2188" rx="2.5" ry="2.5" style="stroke:#181818;stroke-width:0.5;" width="134" x="1661" y="32.3906"/><text fill="#000000" font-family="sans-serif" font-size="14" lengthAdjust="spacing" textLength="114" x="1671" y="53.9238">vaccinationCenter</text><text fill="#000000" font-family="sans-serif" font-size="14" lengthAdjust="spacing" textLength="120" x="1668" y="71.5332">:VaccinationCenter</text><rect fill="#E2E2F0" height="49.2188" rx="2.5" ry="2.5" style="stroke:#181818;stroke-width:0.5;" width="134" x="1661" y="1255.9141"/><text fill="#000000" font-family="sans-serif" font-size="14" lengthAdjust="spacing" textLength="114" x="1671" y="1277.4473">vaccinationCenter</text><text fill="#000000" font-family="sans-serif" font-size="14" lengthAdjust="spacing" textLength="120" x="1668" y="1295.0566">:VaccinationCenter</text><rect fill="#FFFFFF" height="1154.3047" style="stroke:#181818;stroke-width:1.0;" width="10" x="77" y="92.6094"/><rect fill="#FFFFFF" height="182.1094" style="stroke:#181818;stroke-width:1.0;" width="10" x="460" y="114.9609"/><rect fill="#FFFFFF" height="167.4063" style="stroke:#181818;stroke-width:1.0;" width="10" x="460" y="327.4219"/><rect fill="#FFFFFF" height="302.1641" style="stroke:#181818;stroke-width:1.0;" width="10" x="460" y="550.5313"/><rect fill="#FFFFFF" height="30.3516" style="stroke:#181818;stroke-width:1.0;" width="10" x="460" y="898.8828"/><rect fill="#FFFFFF" height="272.3281" style="stroke:#181818;stroke-width:1.0;" width="10" x="460" y="959.5859"/><rect fill="#FFFFFF" height="121.4063" style="stroke:#181818;stroke-width:1.0;" width="10" x="863" y="145.3125"/><rect fill="#FFFFFF" height="30" style="stroke:#181818;stroke-width:1.0;" width="10" x="863" y="357.7734"/><rect fill="#FFFFFF" height="30" style="stroke:#181818;stroke-width:1.0;" width="10" x="863" y="418.125"/><rect fill="#FFFFFF" height="30.3516" style="stroke:#181818;stroke-width:1.0;" width="10" x="863" y="580.8828"/><rect fill="#FFFFFF" height="164.4063" style="stroke:#181818;stroke-width:1.0;" width="10" x="863" y="641.5859"/><rect fill="#FFFFFF" height="211.625" style="stroke:#181818;stroke-width:1.0;" width="10" x="863" y="989.9375"/><rect fill="#FFFFFF" height="30.3516" style="stroke:#181818;stroke-width:1.0;" width="10" x="1313" y="1140.8594"/><rect fill="#FFFFFF" height="30.3516" style="stroke:#181818;stroke-width:1.0;" width="10" x="1422" y="175.6641"/><rect fill="#FFFFFF" height="30.3516" style="stroke:#181818;stroke-width:1.0;" width="10" x="1558.5" y="236.3672"/><rect fill="#FFFFFF" height="103.7031" style="stroke:#181818;stroke-width:1.0;" width="10" x="1723" y="671.9375"/><rect fill="#FFFFFF" height="28" style="stroke:#181818;stroke-width:1.0;" width="10" x="1728" y="710.2891"/><rect fill="#FFFFFF" height="30" style="stroke:#181818;stroke-width:1.0;" width="10" x="1723" y="1020.2891"/><polygon fill="#181818" points="448,110.9609,458,114.9609,448,118.9609,452,114.9609" style="stroke:#181818;stroke-width:1.0;"/><line style="stroke:#181818;stroke-width:1.0;" x1="87" x2="454" y1="114.9609" y2="114.9609"/><text fill="#000000" font-family="sans-serif" font-size="13" font-weight="bold" lengthAdjust="spacing" textLength="7" x="94" y="110.1045">1</text><text fill="#000000" font-family="sans-serif" font-size="13" lengthAdjust="spacing" textLength="272" x="105" y="110.1045">asks to check and export vaccination statistics</text><polygon fill="#181818" points="851,141.3125,861,145.3125,851,149.3125,855,145.3125" style="stroke:#181818;stroke-width:1.0;"/><line style="stroke:#181818;stroke-width:1.0;" x1="470" x2="857" y1="145.3125" y2="145.3125"/><text fill="#000000" font-family="sans-serif" font-size="13" font-weight="bold" lengthAdjust="spacing" textLength="7" x="477" y="140.4561">2</text><text fill="#000000" font-family="sans-serif" font-size="13" lengthAdjust="spacing" textLength="132" x="488" y="140.4561">setVaccinationCenter()</text><polygon fill="#181818" points="1410,171.6641,1420,175.6641,1410,179.6641,1414,175.6641" style="stroke:#181818;stroke-width:1.0;"/><line style="stroke:#181818;stroke-width:1.0;" x1="873" x2="1416" y1="175.6641" y2="175.6641"/><text fill="#000000" font-family="sans-serif" font-size="13" font-weight="bold" lengthAdjust="spacing" textLength="7" x="880" y="170.8076">3</text><text fill="#000000" font-family="sans-serif" font-size="13" lengthAdjust="spacing" textLength="170" x="891" y="170.8076">getVaccinationCentersStore()</text><polygon fill="#181818" points="884,202.0156,874,206.0156,884,210.0156,880,206.0156" style="stroke:#181818;stroke-width:1.0;"/><line style="stroke:#181818;stroke-width:1.0;stroke-dasharray:2.0,2.0;" x1="878" x2="1426" y1="206.0156" y2="206.0156"/><text fill="#000000" font-family="sans-serif" font-size="13" font-weight="bold" lengthAdjust="spacing" textLength="7" x="890" y="201.1592">4</text><text fill="#000000" font-family="sans-serif" font-size="13" lengthAdjust="spacing" textLength="95" x="901" y="201.1592">returns the store</text><polygon fill="#181818" points="1546.5,232.3672,1556.5,236.3672,1546.5,240.3672,1550.5,236.3672" style="stroke:#181818;stroke-width:1.0;"/><line style="stroke:#181818;stroke-width:1.0;" x1="873" x2="1552.5" y1="236.3672" y2="236.3672"/><text fill="#000000" font-family="sans-serif" font-size="13" font-weight="bold" lengthAdjust="spacing" textLength="7" x="880" y="231.5107">5</text><text fill="#000000" font-family="sans-serif" font-size="13" lengthAdjust="spacing" textLength="287" x="891" y="231.5107">getVaccinationCenterAssociatedToCoordinator(id)</text><polygon fill="#181818" points="879,262.7188,869,266.7188,879,270.7188,875,266.7188" style="stroke:#181818;stroke-width:1.0;"/><line style="stroke:#181818;stroke-width:1.0;stroke-dasharray:2.0,2.0;" x1="873" x2="1562.5" y1="266.7188" y2="266.7188"/><text fill="#000000" font-family="sans-serif" font-size="13" font-weight="bold" lengthAdjust="spacing" textLength="7" x="885" y="261.8623">6</text><text fill="#000000" font-family="sans-serif" font-size="13" lengthAdjust="spacing" textLength="170" x="896" y="261.8623">returns the vaccination center</text><polygon fill="#181818" points="98,293.0703,88,297.0703,98,301.0703,94,297.0703" style="stroke:#181818;stroke-width:1.0;"/><line style="stroke:#181818;stroke-width:1.0;stroke-dasharray:2.0,2.0;" x1="92" x2="464" y1="297.0703" y2="297.0703"/><text fill="#000000" font-family="sans-serif" font-size="13" font-weight="bold" lengthAdjust="spacing" textLength="7" x="104" y="292.2139">7</text><text fill="#000000" font-family="sans-serif" font-size="13" lengthAdjust="spacing" textLength="337" x="115" y="292.2139">shows the dates to be selected and asks for one selection</text><polygon fill="#181818" points="448,323.4219,458,327.4219,448,331.4219,452,327.4219" style="stroke:#181818;stroke-width:1.0;"/><line style="stroke:#181818;stroke-width:1.0;" x1="87" x2="454" y1="327.4219" y2="327.4219"/><text fill="#000000" font-family="sans-serif" font-size="13" font-weight="bold" lengthAdjust="spacing" textLength="7" x="94" y="322.5654">8</text><text fill="#000000" font-family="sans-serif" font-size="13" lengthAdjust="spacing" textLength="219" x="105" y="322.5654">selects the first date and the last date</text><polygon fill="#181818" points="851,353.7734,861,357.7734,851,361.7734,855,357.7734" style="stroke:#181818;stroke-width:1.0;"/><line style="stroke:#181818;stroke-width:1.0;" x1="470" x2="857" y1="357.7734" y2="357.7734"/><text fill="#000000" font-family="sans-serif" font-size="13" font-weight="bold" lengthAdjust="spacing" textLength="7" x="477" y="352.917">9</text><text fill="#000000" font-family="sans-serif" font-size="13" lengthAdjust="spacing" textLength="127" x="488" y="352.917">setFirstDate(firstDate)</text><polygon fill="#181818" points="851,414.125,861,418.125,851,422.125,855,418.125" style="stroke:#181818;stroke-width:1.0;"/><line style="stroke:#181818;stroke-width:1.0;" x1="470" x2="857" y1="418.125" y2="418.125"/><text fill="#000000" font-family="sans-serif" font-size="13" font-weight="bold" lengthAdjust="spacing" textLength="14" x="477" y="413.2686">10</text><text fill="#000000" font-family="sans-serif" font-size="13" lengthAdjust="spacing" textLength="126" x="495" y="413.2686">setLastDate(lastDate)</text><polygon fill="#181818" points="98,490.8281,88,494.8281,98,498.8281,94,494.8281" style="stroke:#181818;stroke-width:1.0;"/><line style="stroke:#181818;stroke-width:1.0;stroke-dasharray:2.0,2.0;" x1="92" x2="464" y1="494.8281" y2="494.8281"/><text fill="#000000" font-family="sans-serif" font-size="13" font-weight="bold" lengthAdjust="spacing" textLength="14" x="104" y="481.7959">11</text><text fill="#000000" font-family="sans-serif" font-size="13" lengthAdjust="spacing" textLength="293" x="122" y="473.6201">request a selection between the option of checking</text><text fill="#000000" font-family="sans-serif" font-size="13" lengthAdjust="spacing" textLength="243" x="122" y="489.9717">statistics and the option of exporting them</text><path d="M10,509.8281 L71,509.8281 L71,518.1797 L61,528.1797 L10,528.1797 L10,509.8281 " fill="#EEEEEE" style="stroke:#000000;stroke-width:1.5;"/><rect fill="none" height="730.0859" style="stroke:#000000;stroke-width:1.5;" width="1911" x="10" y="509.8281"/><text fill="#000000" font-family="sans-serif" font-size="13" font-weight="bold" lengthAdjust="spacing" textLength="16" x="25" y="524.3232">alt</text><text fill="#000000" font-family="sans-serif" font-size="11" font-weight="bold" lengthAdjust="spacing" textLength="95" x="86" y="523.2471">[check statistics]</text><polygon fill="#181818" points="448,546.5313,458,550.5313,448,554.5313,452,550.5313" style="stroke:#181818;stroke-width:1.0;"/><line style="stroke:#181818;stroke-width:1.0;" x1="87" x2="454" y1="550.5313" y2="550.5313"/><text fill="#000000" font-family="sans-serif" font-size="13" font-weight="bold" lengthAdjust="spacing" textLength="14" x="94" y="545.6748">12</text><text fill="#000000" font-family="sans-serif" font-size="13" lengthAdjust="spacing" textLength="175" x="112" y="545.6748">selects to check the statistics</text><polygon fill="#181818" points="851,576.8828,861,580.8828,851,584.8828,855,580.8828" style="stroke:#181818;stroke-width:1.0;"/><line style="stroke:#181818;stroke-width:1.0;" x1="470" x2="857" y1="580.8828" y2="580.8828"/><text fill="#000000" font-family="sans-serif" font-size="13" font-weight="bold" lengthAdjust="spacing" textLength="14" x="477" y="576.0264">13</text><text fill="#000000" font-family="sans-serif" font-size="13" lengthAdjust="spacing" textLength="132" x="495" y="576.0264">checkIfDatesAreValid()</text><polygon fill="#181818" points="481,607.2344,471,611.2344,481,615.2344,477,611.2344" style="stroke:#181818;stroke-width:1.0;"/><line style="stroke:#181818;stroke-width:1.0;stroke-dasharray:2.0,2.0;" x1="475" x2="867" y1="611.2344" y2="611.2344"/><text fill="#000000" font-family="sans-serif" font-size="13" font-weight="bold" lengthAdjust="spacing" textLength="14" x="487" y="606.3779">14</text><text fill="#000000" font-family="sans-serif" font-size="13" lengthAdjust="spacing" textLength="192" x="505" y="606.3779">returns true if both dates are valid</text><polygon fill="#181818" points="851,637.5859,861,641.5859,851,645.5859,855,641.5859" style="stroke:#181818;stroke-width:1.0;"/><line style="stroke:#181818;stroke-width:1.0;" x1="470" x2="857" y1="641.5859" y2="641.5859"/><text fill="#000000" font-family="sans-serif" font-size="13" font-weight="bold" lengthAdjust="spacing" textLength="14" x="477" y="636.7295">15</text><text fill="#000000" font-family="sans-serif" font-size="13" lengthAdjust="spacing" textLength="192" x="495" y="636.7295">toCheckVaccinationStatsScene()</text><polygon fill="#181818" points="1711,667.9375,1721,671.9375,1711,675.9375,1715,671.9375" style="stroke:#181818;stroke-width:1.0;"/><line style="stroke:#181818;stroke-width:1.0;stroke-dasharray:2.0,2.0;" x1="873" x2="1717" y1="671.9375" y2="671.9375"/><text fill="#000000" font-family="sans-serif" font-size="13" font-weight="bold" lengthAdjust="spacing" textLength="14" x="880" y="667.0811">16</text><text fill="#000000" font-family="sans-serif" font-size="13" lengthAdjust="spacing" textLength="334" x="898" y="667.0811">getVaccinationStatsListBetweenDates(firstDate, lastDate)</text><line style="stroke:#181818;stroke-width:1.0;" x1="1738" x2="1780" y1="702.2891" y2="702.2891"/><line style="stroke:#181818;stroke-width:1.0;" x1="1780" x2="1780" y1="702.2891" y2="715.2891"/><line style="stroke:#181818;stroke-width:1.0;" x1="1739" x2="1780" y1="715.2891" y2="715.2891"/><polygon fill="#181818" points="1749,711.2891,1739,715.2891,1749,719.2891,1745,715.2891" style="stroke:#181818;stroke-width:1.0;"/><text fill="#000000" font-family="sans-serif" font-size="13" font-weight="bold" lengthAdjust="spacing" textLength="14" x="1745" y="697.4326">17</text><text fill="#000000" font-family="sans-serif" font-size="13" lengthAdjust="spacing" textLength="146" x="1763" y="697.4326">getVaccinationStatsList()</text><polygon fill="#181818" points="884,771.6406,874,775.6406,884,779.6406,880,775.6406" style="stroke:#181818;stroke-width:1.0;"/><line style="stroke:#181818;stroke-width:1.0;stroke-dasharray:2.0,2.0;" x1="878" x2="1727" y1="775.6406" y2="775.6406"/><text fill="#000000" font-family="sans-serif" font-size="13" font-weight="bold" lengthAdjust="spacing" textLength="14" x="890" y="770.7842">18</text><text fill="#000000" font-family="sans-serif" font-size="13" lengthAdjust="spacing" textLength="351" x="908" y="770.7842">returns the list of vaccination statistics for the selected dates</text><polygon fill="#181818" points="481,801.9922,471,805.9922,481,809.9922,477,805.9922" style="stroke:#181818;stroke-width:1.0;"/><line style="stroke:#181818;stroke-width:1.0;stroke-dasharray:2.0,2.0;" x1="475" x2="867" y1="805.9922" y2="805.9922"/><text fill="#000000" font-family="sans-serif" font-size="13" font-weight="bold" lengthAdjust="spacing" textLength="14" x="487" y="801.1357">19</text><text fill="#000000" font-family="sans-serif" font-size="13" lengthAdjust="spacing" textLength="351" x="505" y="801.1357">returns the list of vaccination statistics for the selected dates</text><polygon fill="#181818" points="98,848.6953,88,852.6953,98,856.6953,94,852.6953" style="stroke:#181818;stroke-width:1.0;"/><line style="stroke:#181818;stroke-width:1.0;" x1="92" x2="464" y1="852.6953" y2="852.6953"/><text fill="#000000" font-family="sans-serif" font-size="13" font-weight="bold" lengthAdjust="spacing" textLength="14" x="104" y="839.6631">20</text><text fill="#000000" font-family="sans-serif" font-size="13" lengthAdjust="spacing" textLength="194" x="122" y="831.4873">shows a list with the total number</text><text fill="#000000" font-family="sans-serif" font-size="13" lengthAdjust="spacing" textLength="185" x="122" y="847.8389">of fully vaccinated users per day</text><line style="stroke:#000000;stroke-width:1.0;stroke-dasharray:2.0,2.0;" x1="10" x2="1921" y1="861.6953" y2="861.6953"/><text fill="#000000" font-family="sans-serif" font-size="11" font-weight="bold" lengthAdjust="spacing" textLength="98" x="15" y="873.1143">[export statistics]</text><polygon fill="#181818" points="448,894.8828,458,898.8828,448,902.8828,452,898.8828" style="stroke:#181818;stroke-width:1.0;"/><line style="stroke:#181818;stroke-width:1.0;" x1="87" x2="454" y1="898.8828" y2="898.8828"/><text fill="#000000" font-family="sans-serif" font-size="13" font-weight="bold" lengthAdjust="spacing" textLength="14" x="94" y="894.0264">21</text><text fill="#000000" font-family="sans-serif" font-size="13" lengthAdjust="spacing" textLength="175" x="112" y="894.0264">selects to check the statistics</text><polygon fill="#181818" points="98,925.2344,88,929.2344,98,933.2344,94,929.2344" style="stroke:#181818;stroke-width:1.0;"/><line style="stroke:#181818;stroke-width:1.0;stroke-dasharray:2.0,2.0;" x1="92" x2="464" y1="929.2344" y2="929.2344"/><text fill="#000000" font-family="sans-serif" font-size="13" font-weight="bold" lengthAdjust="spacing" textLength="14" x="104" y="924.3779">22</text><text fill="#000000" font-family="sans-serif" font-size="13" lengthAdjust="spacing" textLength="164" x="122" y="924.3779">requests the name of the file</text><polygon fill="#181818" points="448,955.5859,458,959.5859,448,963.5859,452,959.5859" style="stroke:#181818;stroke-width:1.0;"/><line style="stroke:#181818;stroke-width:1.0;" x1="87" x2="454" y1="959.5859" y2="959.5859"/><text fill="#000000" font-family="sans-serif" font-size="13" font-weight="bold" lengthAdjust="spacing" textLength="14" x="94" y="954.7295">23</text><text fill="#000000" font-family="sans-serif" font-size="13" lengthAdjust="spacing" textLength="146" x="112" y="954.7295">types the name of the file</text><polygon fill="#181818" points="851,985.9375,861,989.9375,851,993.9375,855,989.9375" style="stroke:#181818;stroke-width:1.0;"/><line style="stroke:#181818;stroke-width:1.0;" x1="470" x2="857" y1="989.9375" y2="989.9375"/><text fill="#000000" font-family="sans-serif" font-size="13" font-weight="bold" lengthAdjust="spacing" textLength="14" x="477" y="985.0811">24</text><text fill="#000000" font-family="sans-serif" font-size="13" lengthAdjust="spacing" textLength="193" x="495" y="985.0811">exportVaccinationStats(fileName)</text><polygon fill="#181818" points="1711,1016.2891,1721,1020.2891,1711,1024.2891,1715,1020.2891" style="stroke:#181818;stroke-width:1.0;"/><line style="stroke:#181818;stroke-width:1.0;" x1="873" x2="1717" y1="1020.2891" y2="1020.2891"/><text fill="#000000" font-family="sans-serif" font-size="13" font-weight="bold" lengthAdjust="spacing" textLength="14" x="880" y="1015.4326">25</text><text fill="#000000" font-family="sans-serif" font-size="13" lengthAdjust="spacing" textLength="445" x="898" y="1015.4326">vaccinationStats = getVaccinationStatsListBetweenDates(firstDate, lastDate)</text><polygon fill="#181818" points="1246,1076.6406,1256,1080.6406,1246,1084.6406,1250,1080.6406" style="stroke:#181818;stroke-width:1.0;"/><line style="stroke:#181818;stroke-width:1.0;" x1="873" x2="1252" y1="1080.6406" y2="1080.6406"/><text fill="#000000" font-family="sans-serif" font-size="13" font-weight="bold" lengthAdjust="spacing" textLength="14" x="880" y="1075.7842">26</text><text fill="#000000" font-family="sans-serif" font-size="13" lengthAdjust="spacing" textLength="343" x="898" y="1075.7842">createExportListToFile(vaccinationStats, fileName, fileType)</text><rect fill="#E2E2F0" height="49.2188" rx="2.5" ry="2.5" style="stroke:#181818;stroke-width:0.5;" width="120" x="1258" y="1058.2891"/><text fill="#000000" font-family="sans-serif" font-size="14" lengthAdjust="spacing" textLength="101" x="1267.5" y="1079.8223">exportListToFile</text><text fill="#000000" font-family="sans-serif" font-size="14" lengthAdjust="spacing" textLength="106" x="1265" y="1097.4316">:ExportListToFIle</text><polygon fill="#181818" points="1301,1136.8594,1311,1140.8594,1301,1144.8594,1305,1140.8594" style="stroke:#181818;stroke-width:1.0;"/><line style="stroke:#181818;stroke-width:1.0;" x1="873" x2="1307" y1="1140.8594" y2="1140.8594"/><text fill="#000000" font-family="sans-serif" font-size="13" font-weight="bold" lengthAdjust="spacing" textLength="14" x="880" y="1136.0029">27</text><text fill="#000000" font-family="sans-serif" font-size="13" lengthAdjust="spacing" textLength="104" x="898" y="1136.0029">exportList(header)</text><polygon fill="#181818" points="884,1167.2109,874,1171.2109,884,1175.2109,880,1171.2109" style="stroke:#181818;stroke-width:1.0;"/><line style="stroke:#181818;stroke-width:1.0;stroke-dasharray:2.0,2.0;" x1="878" x2="1317" y1="1171.2109" y2="1171.2109"/><text fill="#000000" font-family="sans-serif" font-size="13" font-weight="bold" lengthAdjust="spacing" textLength="14" x="890" y="1166.3545">28</text><text fill="#000000" font-family="sans-serif" font-size="13" lengthAdjust="spacing" textLength="276" x="908" y="1166.3545">returns true if the list was exported successfully</text><polygon fill="#181818" points="481,1197.5625,471,1201.5625,481,1205.5625,477,1201.5625" style="stroke:#181818;stroke-width:1.0;"/><line style="stroke:#181818;stroke-width:1.0;stroke-dasharray:2.0,2.0;" x1="475" x2="867" y1="1201.5625" y2="1201.5625"/><text fill="#000000" font-family="sans-serif" font-size="13" font-weight="bold" lengthAdjust="spacing" textLength="14" x="487" y="1196.7061">29</text><text fill="#000000" font-family="sans-serif" font-size="13" lengthAdjust="spacing" textLength="276" x="505" y="1196.7061">returns true if the list was exported successfully</text><polygon fill="#181818" points="98,1227.9141,88,1231.9141,98,1235.9141,94,1231.9141" style="stroke:#181818;stroke-width:1.0;"/><line style="stroke:#181818;stroke-width:1.0;stroke-dasharray:2.0,2.0;" x1="92" x2="464" y1="1231.9141" y2="1231.9141"/><text fill="#000000" font-family="sans-serif" font-size="13" font-weight="bold" lengthAdjust="spacing" textLength="14" x="104" y="1227.0576">30</text><text fill="#000000" font-family="sans-serif" font-size="13" lengthAdjust="spacing" textLength="331" x="122" y="1227.0576">informs that the vaccination statistics have been exported</text><!--MD5=[f65f6f1f5aae78513a788c3f6fcfbea0]
@startuml

autonumber

actor CenterCoordinator as CC

participant ":CheckAndExportVacStatsGUI" as UI
participant ":CheckAndExportVaccinationStatsController" as CTRL
participant "exportListToFile\n:ExportListToFIle" as EL
participant "company\n:Company" as C
participant "vaccinationCentersStore\n:VaccinationCentersStore" as S
participant "vaccinationCenter\n:VaccinationCenter" as VC


activate CC
CC -> UI :asks to check and export vaccination statistics

activate UI

UI -> CTRL : setVaccinationCenter()
activate CTRL
CTRL -> C : getVaccinationCentersStore()
activate C
C - -> CTRL : returns the store
deactivate C

CTRL -> S : getVaccinationCenterAssociatedToCoordinator(id)
activate S
S - -> CTRL : returns the vaccination center
deactivate S


deactivate CTRL

UI - -> CC : shows the dates to be selected and asks for one selection
deactivate UI


CC-> UI : selects the first date and the last date

activate UI
UI -> CTRL : setFirstDate(firstDate)
activate CTRL
deactivate CTRL
UI -> CTRL : setLastDate(lastDate)
activate CTRL
deactivate CTRL


UI - -> CC : request a selection between the option of checking \nstatistics and the option of exporting them
deactivate UI



alt check statistics
CC -> UI : selects to check the statistics
activate UI

UI -> CTRL : checkIfDatesAreValid()
activate CTRL
CTRL - -> UI : returns true if both dates are valid
deactivate CTRL

UI -> CTRL : toCheckVaccinationStatsScene()
activate CTRL

CTRL - -> VC : getVaccinationStatsListBetweenDates(firstDate, lastDate)
activate VC
VC -> VC : getVaccinationStatsList()
activate VC
deactivate VC
VC - -> CTRL : returns the list of vaccination statistics for the selected dates
deactivate VC

CTRL - -> UI : returns the list of vaccination statistics for the selected dates

deactivate CTRL
UI -> CC : shows a list with the total number \nof fully vaccinated users per day

deactivate UI




else export statistics
CC -> UI : selects to check the statistics
activate UI

UI - -> CC : requests the name of the file
deactivate UI
CC-> UI : types the name of the file
activate UI
UI -> CTRL : exportVaccinationStats(fileName)
activate CTRL
CTRL -> VC : vaccinationStats = getVaccinationStatsListBetweenDates(firstDate, lastDate)
activate VC
deactivate VC
CTRL -> EL ** : createExportListToFile(vaccinationStats, fileName, fileType)
CTRL -> EL : exportList(header)
activate EL
EL - -> CTRL : returns true if the list was exported successfully
deactivate EL
CTRL - -> UI : returns true if the list was exported successfully
deactivate CTRL
 UI - -> CC : informs that the vaccination statistics have been exported
deactivate UI

end



















deactivate CC
@enduml

PlantUML version 1.2022.5(Sat Apr 30 11:55:52 BST 2022)
(GPL source distribution)
Java Runtime: OpenJDK Runtime Environment
JVM: OpenJDK 64-Bit Server VM
Default Encoding: Cp1252
Language: en
Country: US
--></g></svg>