<?xml version="1.0" encoding="UTF-8" standalone="no"?><svg xmlns="http://www.w3.org/2000/svg" xmlns:xlink="http://www.w3.org/1999/xlink" contentStyleType="text/css" height="353px" preserveAspectRatio="none" style="width:1416px;height:353px;background:#FFFFFF;" version="1.1" viewBox="0 0 1416 353" width="1416px" zoomAndPan="magnify"><defs/><g><!--MD5=[2d935fd2dd068a13da1ae531f9857c4f]
class CenterCoordinator--><g id="elem_CenterCoordinator"><rect codeLine="7" fill="#F1F1F1" height="40" id="CenterCoordinator" rx="2.5" ry="2.5" style="stroke:#181818;stroke-width:0.5;" width="150" x="582" y="103.5"/><ellipse cx="597" cy="119.5" fill="#ADD1B2" rx="11" ry="11" style="stroke:#181818;stroke-width:1.0;"/><path d="M599,116 Q599.2031,115.5 599.4375,115.25 Q599.6719,115 599.9375,115 Q600.4063,115 600.7031,115.2813 Q601,115.5625 601,116.2188 L601,117.7813 Q601,118.4375 600.7188,118.7188 Q600.4375,119 600,119 Q599.6094,119 599.3594,118.8281 Q599.1094,118.6563 599,118.2031 Q598.9531,117.8906 598.7813,117.7188 Q598.4688,117.3906 597.9063,117.2031 Q597.3438,117 596.7813,117 Q596.0781,117 595.4844,117.2813 Q594.9063,117.5625 594.4531,118.1875 Q594,118.8125 594,119.6719 L594,120.5938 Q594,121.625 594.8438,122.3125 Q595.6875,123 597.1875,123 Q598.0781,123 598.7031,122.7969 Q599.0625,122.6875 599.4688,122.3281 Q599.7344,122.125 599.875,122.0625 Q600.0156,122 600.1875,122 Q600.5156,122 600.75,122.2656 Q601,122.5156 601,122.875 Q601,123.2188 600.6563,123.625 Q600.1563,124.2188 599.3594,124.5469 Q598.3125,125 597.0313,125 Q595.5313,125 594.3281,124.4063 Q593.3594,123.9375 592.6719,122.9219 Q592,121.9063 592,120.7031 L592,119.6094 Q592,118.3594 592.5938,117.2656 Q593.2031,116.1719 594.25,115.5938 Q595.3125,115 596.5,115 Q597.2188,115 597.8438,115.25 Q598.4688,115.5 599,116 Z " fill="#000000"/><text fill="#000000" font-family="sans-serif" font-size="14" lengthAdjust="spacing" textLength="118" x="611" y="125.2285">CenterCoordinator</text><line style="stroke:#181818;stroke-width:0.5;" x1="583" x2="731" y1="135.5" y2="135.5"/></g><!--MD5=[7421f545a0d8420c5bec41e74b387d9c]
class Employee--><g id="elem_Employee"><rect codeLine="9" fill="#F1F1F1" height="57.6094" id="Employee" rx="2.5" ry="2.5" style="stroke:#181818;stroke-width:0.5;" width="94" x="392" y="94.5"/><ellipse cx="407" cy="110.5" fill="#ADD1B2" rx="11" ry="11" style="stroke:#181818;stroke-width:1.0;"/><path d="M409,107 Q409.2031,106.5 409.4375,106.25 Q409.6719,106 409.9375,106 Q410.4063,106 410.7031,106.2813 Q411,106.5625 411,107.2188 L411,108.7813 Q411,109.4375 410.7188,109.7188 Q410.4375,110 410,110 Q409.6094,110 409.3594,109.8281 Q409.1094,109.6563 409,109.2031 Q408.9531,108.8906 408.7813,108.7188 Q408.4688,108.3906 407.9063,108.2031 Q407.3438,108 406.7813,108 Q406.0781,108 405.4844,108.2813 Q404.9063,108.5625 404.4531,109.1875 Q404,109.8125 404,110.6719 L404,111.5938 Q404,112.625 404.8438,113.3125 Q405.6875,114 407.1875,114 Q408.0781,114 408.7031,113.7969 Q409.0625,113.6875 409.4688,113.3281 Q409.7344,113.125 409.875,113.0625 Q410.0156,113 410.1875,113 Q410.5156,113 410.75,113.2656 Q411,113.5156 411,113.875 Q411,114.2188 410.6563,114.625 Q410.1563,115.2188 409.3594,115.5469 Q408.3125,116 407.0313,116 Q405.5313,116 404.3281,115.4063 Q403.3594,114.9375 402.6719,113.9219 Q402,112.9063 402,111.7031 L402,110.6094 Q402,109.3594 402.5938,108.2656 Q403.2031,107.1719 404.25,106.5938 Q405.3125,106 406.5,106 Q407.2188,106 407.8438,106.25 Q408.4688,106.5 409,107 Z " fill="#000000"/><text fill="#000000" font-family="sans-serif" font-size="14" lengthAdjust="spacing" textLength="62" x="421" y="116.2285">Employee</text><line style="stroke:#181818;stroke-width:0.5;" x1="393" x2="485" y1="126.5" y2="126.5"/><text fill="#000000" font-family="sans-serif" font-size="14" lengthAdjust="spacing" textLength="16" x="398" y="145.0332">-id</text></g><!--MD5=[9b956c59b16436292d60adff39fe4d1c]
class ApplicationUser--><g id="elem_ApplicationUser"><rect codeLine="13" fill="#F1F1F1" height="145.6563" id="ApplicationUser" rx="2.5" ry="2.5" style="stroke:#181818;stroke-width:0.5;" width="136" x="195" y="50.5"/><ellipse cx="212.7" cy="66.5" fill="#ADD1B2" rx="11" ry="11" style="stroke:#181818;stroke-width:1.0;"/><path d="M214.7,63 Q214.9031,62.5 215.1375,62.25 Q215.3719,62 215.6375,62 Q216.1063,62 216.4031,62.2813 Q216.7,62.5625 216.7,63.2188 L216.7,64.7813 Q216.7,65.4375 216.4188,65.7188 Q216.1375,66 215.7,66 Q215.3094,66 215.0594,65.8281 Q214.8094,65.6563 214.7,65.2031 Q214.6531,64.8906 214.4813,64.7188 Q214.1688,64.3906 213.6063,64.2031 Q213.0438,64 212.4813,64 Q211.7781,64 211.1844,64.2813 Q210.6063,64.5625 210.1531,65.1875 Q209.7,65.8125 209.7,66.6719 L209.7,67.5938 Q209.7,68.625 210.5438,69.3125 Q211.3875,70 212.8875,70 Q213.7781,70 214.4031,69.7969 Q214.7625,69.6875 215.1688,69.3281 Q215.4344,69.125 215.575,69.0625 Q215.7156,69 215.8875,69 Q216.2156,69 216.45,69.2656 Q216.7,69.5156 216.7,69.875 Q216.7,70.2188 216.3563,70.625 Q215.8563,71.2188 215.0594,71.5469 Q214.0125,72 212.7313,72 Q211.2313,72 210.0281,71.4063 Q209.0594,70.9375 208.3719,69.9219 Q207.7,68.9063 207.7,67.7031 L207.7,66.6094 Q207.7,65.3594 208.2938,64.2656 Q208.9031,63.1719 209.95,62.5938 Q211.0125,62 212.2,62 Q212.9188,62 213.5438,62.25 Q214.1688,62.5 214.7,63 Z " fill="#000000"/><text fill="#000000" font-family="sans-serif" font-size="14" lengthAdjust="spacing" textLength="98" x="227.3" y="72.2285">ApplicationUser</text><line style="stroke:#181818;stroke-width:0.5;" x1="196" x2="330" y1="82.5" y2="82.5"/><text fill="#000000" font-family="sans-serif" font-size="14" lengthAdjust="spacing" textLength="40" x="201" y="101.0332">-name</text><text fill="#000000" font-family="sans-serif" font-size="14" lengthAdjust="spacing" textLength="38" x="201" y="118.6426">-email</text><text fill="#000000" font-family="sans-serif" font-size="14" lengthAdjust="spacing" textLength="65" x="201" y="136.252">-password</text><text fill="#000000" font-family="sans-serif" font-size="14" lengthAdjust="spacing" textLength="29" x="201" y="153.8613">-role</text><text fill="#000000" font-family="sans-serif" font-size="14" lengthAdjust="spacing" textLength="56" x="201" y="171.4707">-address</text><text fill="#000000" font-family="sans-serif" font-size="14" lengthAdjust="spacing" textLength="124" x="201" y="189.0801">-citizenCardNumber</text></g><!--MD5=[de60e6d4f424ae4d0522096f76a59010]
class VaccinationCenter--><g id="elem_VaccinationCenter"><rect codeLine="22" fill="#F1F1F1" height="339.3594" id="VaccinationCenter" rx="2.5" ry="2.5" style="stroke:#181818;stroke-width:0.5;" width="176" x="1233" y="7"/><ellipse cx="1260.6" cy="23" fill="#ADD1B2" rx="11" ry="11" style="stroke:#181818;stroke-width:1.0;"/><path d="M1262.6,19.5 Q1262.8031,19 1263.0375,18.75 Q1263.2719,18.5 1263.5375,18.5 Q1264.0063,18.5 1264.3031,18.7813 Q1264.6,19.0625 1264.6,19.7188 L1264.6,21.2813 Q1264.6,21.9375 1264.3188,22.2188 Q1264.0375,22.5 1263.6,22.5 Q1263.2094,22.5 1262.9594,22.3281 Q1262.7094,22.1563 1262.6,21.7031 Q1262.5531,21.3906 1262.3813,21.2188 Q1262.0688,20.8906 1261.5063,20.7031 Q1260.9438,20.5 1260.3813,20.5 Q1259.6781,20.5 1259.0844,20.7813 Q1258.5063,21.0625 1258.0531,21.6875 Q1257.6,22.3125 1257.6,23.1719 L1257.6,24.0938 Q1257.6,25.125 1258.4438,25.8125 Q1259.2875,26.5 1260.7875,26.5 Q1261.6781,26.5 1262.3031,26.2969 Q1262.6625,26.1875 1263.0688,25.8281 Q1263.3344,25.625 1263.475,25.5625 Q1263.6156,25.5 1263.7875,25.5 Q1264.1156,25.5 1264.35,25.7656 Q1264.6,26.0156 1264.6,26.375 Q1264.6,26.7188 1264.2563,27.125 Q1263.7563,27.7188 1262.9594,28.0469 Q1261.9125,28.5 1260.6313,28.5 Q1259.1313,28.5 1257.9281,27.9063 Q1256.9594,27.4375 1256.2719,26.4219 Q1255.6,25.4063 1255.6,24.2031 L1255.6,23.1094 Q1255.6,21.8594 1256.1938,20.7656 Q1256.8031,19.6719 1257.85,19.0938 Q1258.9125,18.5 1260.1,18.5 Q1260.8188,18.5 1261.4438,18.75 Q1262.0688,19 1262.6,19.5 Z " fill="#000000"/><text fill="#000000" font-family="sans-serif" font-size="14" lengthAdjust="spacing" textLength="116" x="1277.4" y="28.7285">VaccinationCenter</text><line style="stroke:#181818;stroke-width:0.5;" x1="1234" x2="1408" y1="39" y2="39"/><text fill="#000000" font-family="sans-serif" font-size="14" lengthAdjust="spacing" textLength="16" x="1239" y="57.5332">-id</text><text fill="#000000" font-family="sans-serif" font-size="14" lengthAdjust="spacing" textLength="40" x="1239" y="75.1426">-name</text><text fill="#000000" font-family="sans-serif" font-size="14" lengthAdjust="spacing" textLength="94" x="1239" y="92.752">-phoneNumber</text><text fill="#000000" font-family="sans-serif" font-size="14" lengthAdjust="spacing" textLength="38" x="1239" y="110.3613">-email</text><text fill="#000000" font-family="sans-serif" font-size="14" lengthAdjust="spacing" textLength="23" x="1239" y="127.9707">-fax</text><text fill="#000000" font-family="sans-serif" font-size="14" lengthAdjust="spacing" textLength="52" x="1239" y="145.5801">-website</text><text fill="#000000" font-family="sans-serif" font-size="14" lengthAdjust="spacing" textLength="86" x="1239" y="163.1895">-openingHour</text><text fill="#000000" font-family="sans-serif" font-size="14" lengthAdjust="spacing" textLength="79" x="1239" y="180.7988">-closingHour</text><text fill="#000000" font-family="sans-serif" font-size="14" lengthAdjust="spacing" textLength="81" x="1239" y="198.4082">-slotDuration</text><text fill="#000000" font-family="sans-serif" font-size="14" lengthAdjust="spacing" textLength="106" x="1239" y="216.0176">-vaccinesPerSlot</text><text fill="#000000" font-family="sans-serif" font-size="14" lengthAdjust="spacing" textLength="34" x="1239" y="233.627">-road</text><text fill="#000000" font-family="sans-serif" font-size="14" lengthAdjust="spacing" textLength="56" x="1239" y="251.2363">-zipCode</text><text fill="#000000" font-family="sans-serif" font-size="14" lengthAdjust="spacing" textLength="34" x="1239" y="268.8457">-local</text><text fill="#000000" font-family="sans-serif" font-size="14" lengthAdjust="spacing" textLength="133" x="1239" y="286.4551">-centerCoordinatorID</text><text fill="#000000" font-family="sans-serif" font-size="14" lengthAdjust="spacing" textLength="73" x="1239" y="304.0645">-arrivalsList</text><text fill="#000000" font-family="sans-serif" font-size="14" lengthAdjust="spacing" textLength="142" x="1239" y="321.6738">-scheduledVaccineList</text><text fill="#000000" font-family="sans-serif" font-size="14" lengthAdjust="spacing" textLength="164" x="1239" y="339.2832">-vaccinesAdministeredList</text></g><!--MD5=[6ea91c1482e11d5ab58156f1589eb8b8]
class VaccinationStatistics--><g id="elem_VaccinationStatistics"><rect codeLine="42" fill="#F1F1F1" height="40" id="VaccinationStatistics" rx="2.5" ry="2.5" style="stroke:#181818;stroke-width:0.5;" width="161" x="921" y="156.5"/><ellipse cx="936" cy="172.5" fill="#ADD1B2" rx="11" ry="11" style="stroke:#181818;stroke-width:1.0;"/><path d="M938,169 Q938.2031,168.5 938.4375,168.25 Q938.6719,168 938.9375,168 Q939.4063,168 939.7031,168.2813 Q940,168.5625 940,169.2188 L940,170.7813 Q940,171.4375 939.7188,171.7188 Q939.4375,172 939,172 Q938.6094,172 938.3594,171.8281 Q938.1094,171.6563 938,171.2031 Q937.9531,170.8906 937.7813,170.7188 Q937.4688,170.3906 936.9063,170.2031 Q936.3438,170 935.7813,170 Q935.0781,170 934.4844,170.2813 Q933.9063,170.5625 933.4531,171.1875 Q933,171.8125 933,172.6719 L933,173.5938 Q933,174.625 933.8438,175.3125 Q934.6875,176 936.1875,176 Q937.0781,176 937.7031,175.7969 Q938.0625,175.6875 938.4688,175.3281 Q938.7344,175.125 938.875,175.0625 Q939.0156,175 939.1875,175 Q939.5156,175 939.75,175.2656 Q940,175.5156 940,175.875 Q940,176.2188 939.6563,176.625 Q939.1563,177.2188 938.3594,177.5469 Q937.3125,178 936.0313,178 Q934.5313,178 933.3281,177.4063 Q932.3594,176.9375 931.6719,175.9219 Q931,174.9063 931,173.7031 L931,172.6094 Q931,171.3594 931.5938,170.2656 Q932.2031,169.1719 933.25,168.5938 Q934.3125,168 935.5,168 Q936.2188,168 936.8438,168.25 Q937.4688,168.5 938,169 Z " fill="#000000"/><text fill="#000000" font-family="sans-serif" font-size="14" lengthAdjust="spacing" textLength="129" x="950" y="178.2285">VaccinationStatistics</text><line style="stroke:#181818;stroke-width:0.5;" x1="922" x2="1081" y1="188.5" y2="188.5"/></g><!--MD5=[02e4b9b7573f1156f41e60aa5b4e25a4]
class Company--><g id="elem_Company"><rect fill="#F1F1F1" height="40" id="Company" rx="2.5" ry="2.5" style="stroke:#181818;stroke-width:0.5;" width="92" x="7" y="200.5"/><ellipse cx="22" cy="216.5" fill="#ADD1B2" rx="11" ry="11" style="stroke:#181818;stroke-width:1.0;"/><path d="M24,213 Q24.2031,212.5 24.4375,212.25 Q24.6719,212 24.9375,212 Q25.4063,212 25.7031,212.2813 Q26,212.5625 26,213.2188 L26,214.7813 Q26,215.4375 25.7188,215.7188 Q25.4375,216 25,216 Q24.6094,216 24.3594,215.8281 Q24.1094,215.6563 24,215.2031 Q23.9531,214.8906 23.7813,214.7188 Q23.4688,214.3906 22.9063,214.2031 Q22.3438,214 21.7813,214 Q21.0781,214 20.4844,214.2813 Q19.9063,214.5625 19.4531,215.1875 Q19,215.8125 19,216.6719 L19,217.5938 Q19,218.625 19.8438,219.3125 Q20.6875,220 22.1875,220 Q23.0781,220 23.7031,219.7969 Q24.0625,219.6875 24.4688,219.3281 Q24.7344,219.125 24.875,219.0625 Q25.0156,219 25.1875,219 Q25.5156,219 25.75,219.2656 Q26,219.5156 26,219.875 Q26,220.2188 25.6563,220.625 Q25.1563,221.2188 24.3594,221.5469 Q23.3125,222 22.0313,222 Q20.5313,222 19.3281,221.4063 Q18.3594,220.9375 17.6719,219.9219 Q17,218.9063 17,217.7031 L17,216.6094 Q17,215.3594 17.5938,214.2656 Q18.2031,213.1719 19.25,212.5938 Q20.3125,212 21.5,212 Q22.2188,212 22.8438,212.25 Q23.4688,212.5 24,213 Z " fill="#000000"/><text fill="#000000" font-family="sans-serif" font-size="14" lengthAdjust="spacing" textLength="60" x="36" y="222.2285">Company</text><line style="stroke:#181818;stroke-width:0.5;" x1="8" x2="98" y1="232.5" y2="232.5"/></g><!--MD5=[bc55124b44ee97098f5269cfae7858cc]
reverse link ApplicationUser to Employee--><g id="link_ApplicationUser_Employee"><path codeLine="45" d="M351.55,123.5 C365.5,123.5 379.42,123.5 391.9,123.5 " fill="none" id="ApplicationUser-backto-Employee" style="stroke:#181818;stroke-width:1.0;"/><polygon fill="none" points="351.27,130.5,331.27,123.5,351.27,116.5,351.27,130.5" style="stroke:#181818;stroke-width:1.0;"/></g><!--MD5=[98f7f3dc8d9719d04ad14614c4ea123f]
reverse link Employee to CenterCoordinator--><g id="link_Employee_CenterCoordinator"><path codeLine="47" d="M506.15,123.5 C530.12,123.5 557.35,123.5 581.96,123.5 " fill="none" id="Employee-backto-CenterCoordinator" style="stroke:#181818;stroke-width:1.0;"/><polygon fill="none" points="506.07,130.5,486.07,123.5,506.07,116.5,506.07,130.5" style="stroke:#181818;stroke-width:1.0;"/></g><!--MD5=[d5cf03d886352995267197dc535618ec]
link CenterCoordinator to VaccinationCenter--><g id="link_CenterCoordinator_VaccinationCenter"><path codeLine="50" d="M732.1,117.1 C742.14,116.44 752.32,115.87 762,115.5 C958.47,107.95 1009.06,118.17 1203,150.5 C1211.07,151.85 1219.43,153.39 1227.79,155.05 " fill="none" id="CenterCoordinator-to-VaccinationCenter" style="stroke:#181818;stroke-width:1.0;"/><polygon fill="#181818" points="1232.99,156.09,1224.9556,150.3936,1228.0882,155.1039,1223.3779,158.2365,1232.99,156.09" style="stroke:#181818;stroke-width:1.0;"/><polygon fill="#000000" points="970.4854,106.0575,961.6911,102.4366,961.2424,108.2973,970.4854,106.0575" style="stroke:#000000;stroke-width:1.0;"/><text fill="#000000" font-family="sans-serif" font-size="13" lengthAdjust="spacing" textLength="67" x="974.5" y="110.9951">coordinates</text><text fill="#000000" font-family="sans-serif" font-size="13" lengthAdjust="spacing" textLength="7" x="740.2056" y="130.7782">1</text><text fill="#000000" font-family="sans-serif" font-size="13" lengthAdjust="spacing" textLength="7" x="1218.1259" y="168.5183">1</text></g><!--MD5=[b22fd40d66ac54a9dc399c9cf37d996a]
link CenterCoordinator to VaccinationStatistics--><g id="link_CenterCoordinator_VaccinationStatistics"><path codeLine="52" d="M732.32,135 C786.36,143.36 859.62,154.7 915.91,163.41 " fill="none" id="CenterCoordinator-to-VaccinationStatistics" style="stroke:#181818;stroke-width:1.0;"/><polygon fill="#181818" points="920.96,164.19,912.6694,158.8734,916.0176,163.4329,911.4581,166.7812,920.96,164.19" style="stroke:#181818;stroke-width:1.0;"/><polygon fill="#000000" points="771.9412,133.4404,763.4519,129.1528,762.5531,134.9615,771.9412,133.4404" style="stroke:#000000;stroke-width:1.0;"/><text fill="#000000" font-family="sans-serif" font-size="13" lengthAdjust="spacing" textLength="114" x="776" y="137.9951">checks and exports</text><text fill="#000000" font-family="sans-serif" font-size="13" lengthAdjust="spacing" textLength="7" x="740.0788" y="150.432">1</text><text fill="#000000" font-family="sans-serif" font-size="13" lengthAdjust="spacing" textLength="5" x="908.0453" y="177.2911">*</text></g><!--MD5=[32b493758c6c71b268d4802c243e6dac]
link Company to ApplicationUser--><g id="link_Company_ApplicationUser"><path codeLine="54" d="M97.1,200.4 C125.3,187.25 162.73,169.8 194.79,154.84 " fill="none" id="Company-ApplicationUser" style="stroke:#181818;stroke-width:1.0;"/><polygon fill="#000000" points="138.5314,157.5624,129.0918,158.722,131.5762,164.049,138.5314,157.5624" style="stroke:#000000;stroke-width:1.0;"/><text fill="#000000" font-family="sans-serif" font-size="13" lengthAdjust="spacing" textLength="21" x="143" y="164.9951">has</text><text fill="#000000" font-family="sans-serif" font-size="13" lengthAdjust="spacing" textLength="7" x="102.0262" y="189.6924">1</text><text fill="#000000" font-family="sans-serif" font-size="13" lengthAdjust="spacing" textLength="5" x="182.0561" y="172.676">*</text></g><!--MD5=[eebe9b198877275d05dd12630ed9e401]
link Company to VaccinationCenter--><g id="link_Company_VaccinationCenter"><path codeLine="56" d="M99.19,230.48 C141.16,238.87 205.49,249.5 262,249.5 C262,249.5 262,249.5 1002.5,249.5 C1081.97,249.5 1169.84,227.51 1232.96,207.67 " fill="none" id="Company-VaccinationCenter" style="stroke:#181818;stroke-width:1.0;"/><polygon fill="#000000" points="525.999,240.5752,516.8966,237.8188,517.0148,243.6955,525.999,240.5752" style="stroke:#000000;stroke-width:1.0;"/><text fill="#000000" font-family="sans-serif" font-size="13" lengthAdjust="spacing" textLength="21" x="530" y="245.9951">has</text><text fill="#000000" font-family="sans-serif" font-size="13" lengthAdjust="spacing" textLength="7" x="107.1093" y="246.8687">1</text><text fill="#000000" font-family="sans-serif" font-size="13" lengthAdjust="spacing" textLength="5" x="1219.8963" y="224.6533">*</text></g><!--MD5=[03c6fb53180ab1a1b5c5cb2e7eb4415c]
link VaccinationStatistics to VaccinationCenter--><g id="link_VaccinationStatistics_VaccinationCenter"><path codeLine="58" d="M1082.21,176.5 C1126.43,176.5 1181.63,176.5 1227.72,176.5 " fill="none" id="VaccinationStatistics-to-VaccinationCenter" style="stroke:#181818;stroke-width:1.0;"/><polygon fill="#181818" points="1232.72,176.5,1223.72,172.5,1227.72,176.5,1223.72,180.5,1232.72,176.5" style="stroke:#181818;stroke-width:1.0;"/><polygon fill="#000000" points="1122,167.6758,1112.9549,164.7369,1112.9549,170.6147,1122,167.6758" style="stroke:#000000;stroke-width:1.0;"/><text fill="#000000" font-family="sans-serif" font-size="13" lengthAdjust="spacing" textLength="76" x="1126" y="172.9951">are related to</text><text fill="#000000" font-family="sans-serif" font-size="13" lengthAdjust="spacing" textLength="5" x="1089.8809" y="190.7488">*</text><text fill="#000000" font-family="sans-serif" font-size="13" lengthAdjust="spacing" textLength="7" x="1218.1195" y="190.6573">1</text></g><!--MD5=[5f33633f43d8f8f6262a839e8f2cf565]
@startuml

hide methods
left to right direction
skinparam classAttributeIconSize 0


class CenterCoordinator

class Employee {
-id
}

class ApplicationUser {
    -name
    -email
    -password
    -role
    -address
    -citizenCardNumber
}

class VaccinationCenter {
-id
-name
-phoneNumber
-email
-fax
-website
-openingHour
-closingHour
-slotDuration
-vaccinesPerSlot
-road
-zipCode
-local
-centerCoordinatorID
-arrivalsList
-scheduledVaccineList
-vaccinesAdministeredList
}

class VaccinationStatistics


ApplicationUser <|- - Employee

Employee <|- - CenterCoordinator
'Ele exporta um ficheiro, represento de alguma forma ou chega dizer que ele exporta as stats?
'Aqui devo pôr que coordena ou checks and exports vaccination statistics, uma vez que é o que ele faz na US
CenterCoordinator "1" - -> "1" VaccinationCenter : coordinates >

CenterCoordinator "1" - -> "*" VaccinationStatistics : checks and exports >

Company "1" - - "*" ApplicationUser : has >

Company "1" - - "*" VaccinationCenter : has >

VaccinationStatistics "*" - -> "1" VaccinationCenter : are related to >

@enduml

@startuml

hide methods
left to right direction
skinparam classAttributeIconSize 0


class CenterCoordinator

class Employee {
-id
}

class ApplicationUser {
    -name
    -email
    -password
    -role
    -address
    -citizenCardNumber
}

class VaccinationCenter {
-id
-name
-phoneNumber
-email
-fax
-website
-openingHour
-closingHour
-slotDuration
-vaccinesPerSlot
-road
-zipCode
-local
-centerCoordinatorID
-arrivalsList
-scheduledVaccineList
-vaccinesAdministeredList
}

class VaccinationStatistics


ApplicationUser <|- - Employee

Employee <|- - CenterCoordinator
CenterCoordinator "1" - -> "1" VaccinationCenter : coordinates >

CenterCoordinator "1" - -> "*" VaccinationStatistics : checks and exports >

Company "1" - - "*" ApplicationUser : has >

Company "1" - - "*" VaccinationCenter : has >

VaccinationStatistics "*" - -> "1" VaccinationCenter : are related to >

@enduml

PlantUML version 1.2022.5(Sat Apr 30 11:55:52 BST 2022)
(GPL source distribution)
Java Runtime: OpenJDK Runtime Environment
JVM: OpenJDK 64-Bit Server VM
Default Encoding: Cp1252
Language: en
Country: US
--></g></svg>