<?xml version="1.0" encoding="UTF-8" standalone="no"?><svg xmlns="http://www.w3.org/2000/svg" xmlns:xlink="http://www.w3.org/1999/xlink" contentStyleType="text/css" height="538px" preserveAspectRatio="none" style="width:507px;height:538px;background:#FFFFFF;" version="1.1" viewBox="0 0 507 538" width="507px" zoomAndPan="magnify"><defs/><g><rect fill="#FFFFFF" height="354.0547" style="stroke:#181818;stroke-width:1.0;" width="10" x="77" y="92.6094"/><rect fill="#FFFFFF" height="30.3516" style="stroke:#181818;stroke-width:1.0;" width="10" x="453" y="114.9609"/><rect fill="#FFFFFF" height="46.7031" style="stroke:#181818;stroke-width:1.0;" width="10" x="453" y="175.6641"/><rect fill="#FFFFFF" height="118.2422" style="stroke:#181818;stroke-width:1.0;" width="10" x="453" y="252.7188"/><rect fill="#FFFFFF" height="30.3516" style="stroke:#181818;stroke-width:1.0;" width="10" x="453" y="401.3125"/><rect height="171.9453" style="stroke:#000000;stroke-width:1.5;fill:none;" width="490" x="10" y="267.7188"/><line style="stroke:#181818;stroke-width:0.5;fill:none;stroke-dasharray:5.0,5.0;" x1="82" x2="82" y1="82.6094" y2="456.6641"/><line style="stroke:#181818;stroke-width:0.5;fill:none;stroke-dasharray:5.0,5.0;" x1="458" x2="458" y1="82.6094" y2="456.6641"/><text fill="#000000" font-family="sans-serif" font-size="14" lengthAdjust="spacing" textLength="118" x="20" y="79.5332">CenterCoordinator</text><ellipse cx="82" cy="13.5" fill="#E2E2F0" rx="8" ry="8" style="stroke:#181818;stroke-width:0.5;"/><path d="M82,21.5 L82,48.5 M69,29.5 L95,29.5 M82,48.5 L69,63.5 M82,48.5 L95,63.5 " fill="none" style="stroke:#181818;stroke-width:0.5;"/><text fill="#000000" font-family="sans-serif" font-size="14" lengthAdjust="spacing" textLength="118" x="20" y="470.1973">CenterCoordinator</text><ellipse cx="82" cy="481.7734" fill="#E2E2F0" rx="8" ry="8" style="stroke:#181818;stroke-width:0.5;"/><path d="M82,489.7734 L82,516.7734 M69,497.7734 L95,497.7734 M82,516.7734 L69,531.7734 M82,516.7734 L95,531.7734 " fill="none" style="stroke:#181818;stroke-width:0.5;"/><rect fill="#E2E2F0" height="31.6094" rx="2.5" ry="2.5" style="stroke:#181818;stroke-width:0.5;" width="64" x="426" y="50"/><text fill="#000000" font-family="sans-serif" font-size="14" lengthAdjust="spacing" textLength="50" x="433" y="71.5332">:System</text><rect fill="#E2E2F0" height="31.6094" rx="2.5" ry="2.5" style="stroke:#181818;stroke-width:0.5;" width="64" x="426" y="455.6641"/><text fill="#000000" font-family="sans-serif" font-size="14" lengthAdjust="spacing" textLength="50" x="433" y="477.1973">:System</text><rect fill="#FFFFFF" height="354.0547" style="stroke:#181818;stroke-width:1.0;" width="10" x="77" y="92.6094"/><rect fill="#FFFFFF" height="30.3516" style="stroke:#181818;stroke-width:1.0;" width="10" x="453" y="114.9609"/><rect fill="#FFFFFF" height="46.7031" style="stroke:#181818;stroke-width:1.0;" width="10" x="453" y="175.6641"/><rect fill="#FFFFFF" height="118.2422" style="stroke:#181818;stroke-width:1.0;" width="10" x="453" y="252.7188"/><rect fill="#FFFFFF" height="30.3516" style="stroke:#181818;stroke-width:1.0;" width="10" x="453" y="401.3125"/><polygon fill="#181818" points="441,110.9609,451,114.9609,441,118.9609,445,114.9609" style="stroke:#181818;stroke-width:1.0;"/><line style="stroke:#181818;stroke-width:1.0;" x1="87" x2="447" y1="114.9609" y2="114.9609"/><text fill="#000000" font-family="sans-serif" font-size="13" font-weight="bold" lengthAdjust="spacing" textLength="7" x="94" y="110.1045">1</text><text fill="#000000" font-family="sans-serif" font-size="13" lengthAdjust="spacing" textLength="272" x="105" y="110.1045">asks to check and export vaccination statistics</text><polygon fill="#181818" points="98,141.3125,88,145.3125,98,149.3125,94,145.3125" style="stroke:#181818;stroke-width:1.0;"/><line style="stroke:#181818;stroke-width:1.0;stroke-dasharray:2.0,2.0;" x1="92" x2="457" y1="145.3125" y2="145.3125"/><text fill="#000000" font-family="sans-serif" font-size="13" font-weight="bold" lengthAdjust="spacing" textLength="7" x="104" y="140.4561">2</text><text fill="#000000" font-family="sans-serif" font-size="13" lengthAdjust="spacing" textLength="253" x="115" y="140.4561">request the selection of a period (two dates)</text><polygon fill="#181818" points="441,171.6641,451,175.6641,441,179.6641,445,175.6641" style="stroke:#181818;stroke-width:1.0;"/><line style="stroke:#181818;stroke-width:1.0;" x1="87" x2="447" y1="175.6641" y2="175.6641"/><text fill="#000000" font-family="sans-serif" font-size="13" font-weight="bold" lengthAdjust="spacing" textLength="7" x="94" y="170.8076">3</text><text fill="#000000" font-family="sans-serif" font-size="13" lengthAdjust="spacing" textLength="100" x="105" y="170.8076">selects the dates</text><polygon fill="#181818" points="98,218.3672,88,222.3672,98,226.3672,94,222.3672" style="stroke:#181818;stroke-width:1.0;"/><line style="stroke:#181818;stroke-width:1.0;stroke-dasharray:2.0,2.0;" x1="92" x2="457" y1="222.3672" y2="222.3672"/><text fill="#000000" font-family="sans-serif" font-size="13" font-weight="bold" lengthAdjust="spacing" textLength="7" x="104" y="209.335">4</text><text fill="#000000" font-family="sans-serif" font-size="13" lengthAdjust="spacing" textLength="293" x="115" y="201.1592">request a selection between the option of checking</text><text fill="#000000" font-family="sans-serif" font-size="13" lengthAdjust="spacing" textLength="243" x="115" y="217.5107">statistics and the option of exporting them</text><polygon fill="#181818" points="441,248.7188,451,252.7188,441,256.7188,445,252.7188" style="stroke:#181818;stroke-width:1.0;"/><line style="stroke:#181818;stroke-width:1.0;" x1="87" x2="447" y1="252.7188" y2="252.7188"/><text fill="#000000" font-family="sans-serif" font-size="13" font-weight="bold" lengthAdjust="spacing" textLength="7" x="94" y="247.8623">5</text><text fill="#000000" font-family="sans-serif" font-size="13" lengthAdjust="spacing" textLength="67" x="105" y="247.8623">selects one</text><path d="M10,267.7188 L71,267.7188 L71,276.0703 L61,286.0703 L10,286.0703 L10,267.7188 " fill="#EEEEEE" style="stroke:#000000;stroke-width:1.5;"/><rect fill="none" height="171.9453" style="stroke:#000000;stroke-width:1.5;" width="490" x="10" y="267.7188"/><text fill="#000000" font-family="sans-serif" font-size="13" font-weight="bold" lengthAdjust="spacing" textLength="16" x="25" y="282.2139">alt</text><text fill="#000000" font-family="sans-serif" font-size="11" font-weight="bold" lengthAdjust="spacing" textLength="95" x="86" y="281.1377">[check statistics]</text><polygon fill="#181818" points="98,320.7734,88,324.7734,98,328.7734,94,324.7734" style="stroke:#181818;stroke-width:1.0;"/><line style="stroke:#181818;stroke-width:1.0;stroke-dasharray:2.0,2.0;" x1="92" x2="452" y1="324.7734" y2="324.7734"/><text fill="#000000" font-family="sans-serif" font-size="13" font-weight="bold" lengthAdjust="spacing" textLength="7" x="104" y="311.7412">6</text><text fill="#000000" font-family="sans-serif" font-size="13" lengthAdjust="spacing" textLength="194" x="115" y="303.5654">shows a list with the total number</text><text fill="#000000" font-family="sans-serif" font-size="13" lengthAdjust="spacing" textLength="185" x="115" y="319.917">of fully vaccinated users per day</text><line style="stroke:#000000;stroke-width:1.0;stroke-dasharray:2.0,2.0;" x1="10" x2="500" y1="333.7734" y2="333.7734"/><text fill="#000000" font-family="sans-serif" font-size="11" font-weight="bold" lengthAdjust="spacing" textLength="98" x="15" y="345.1924">[export statistics]</text><polygon fill="#181818" points="98,366.9609,88,370.9609,98,374.9609,94,370.9609" style="stroke:#181818;stroke-width:1.0;"/><line style="stroke:#181818;stroke-width:1.0;stroke-dasharray:2.0,2.0;" x1="92" x2="457" y1="370.9609" y2="370.9609"/><text fill="#000000" font-family="sans-serif" font-size="13" font-weight="bold" lengthAdjust="spacing" textLength="7" x="104" y="366.1045">7</text><text fill="#000000" font-family="sans-serif" font-size="13" lengthAdjust="spacing" textLength="164" x="115" y="366.1045">requests the name of the file</text><polygon fill="#181818" points="441,397.3125,451,401.3125,441,405.3125,445,401.3125" style="stroke:#181818;stroke-width:1.0;"/><line style="stroke:#181818;stroke-width:1.0;" x1="87" x2="447" y1="401.3125" y2="401.3125"/><text fill="#000000" font-family="sans-serif" font-size="13" font-weight="bold" lengthAdjust="spacing" textLength="7" x="94" y="396.4561">8</text><text fill="#000000" font-family="sans-serif" font-size="13" lengthAdjust="spacing" textLength="146" x="105" y="396.4561">types the name of the file</text><polygon fill="#181818" points="98,427.6641,88,431.6641,98,435.6641,94,431.6641" style="stroke:#181818;stroke-width:1.0;"/><line style="stroke:#181818;stroke-width:1.0;stroke-dasharray:2.0,2.0;" x1="92" x2="457" y1="431.6641" y2="431.6641"/><text fill="#000000" font-family="sans-serif" font-size="13" font-weight="bold" lengthAdjust="spacing" textLength="7" x="104" y="426.8076">9</text><text fill="#000000" font-family="sans-serif" font-size="13" lengthAdjust="spacing" textLength="331" x="115" y="426.8076">informs that the vaccination statistics have been exported</text><!--MD5=[37f2a86badda499972af517916819266]
@startuml

autonumber
actor "CenterCoordinator" as CC

activate CC
CC -> ":System" : asks to check and export vaccination statistics

activate ":System"
":System" - -> CC : request the selection of a period (two dates)
deactivate ":System"
CC -> ":System" : selects the dates

activate ":System"
":System" - -> CC : request a selection between the option of checking \nstatistics and the option of exporting them
deactivate ":System"

CC -> ":System" : selects one
activate ":System"
alt check statistics

 ":System" - -> CC : shows a list with the total number \nof fully vaccinated users per day

else export statistics

 ":System" - -> CC : requests the name of the file
deactivate ":System"
CC-> ":System" : types the name of the file
activate ":System"

 ":System" - -> CC : informs that the vaccination statistics have been exported

deactivate ":System"
end

deactivate CC

@enduml

PlantUML version 1.2022.5(Sat Apr 30 11:55:52 BST 2022)
(GPL source distribution)
Java Runtime: OpenJDK Runtime Environment
JVM: OpenJDK 64-Bit Server VM
Default Encoding: Cp1252
Language: en
Country: US
--></g></svg>