<?xml version="1.0" encoding="UTF-8" standalone="no"?><svg xmlns="http://www.w3.org/2000/svg" xmlns:xlink="http://www.w3.org/1999/xlink" contentStyleType="text/css" height="458px" preserveAspectRatio="none" style="width:1311px;height:458px;background:#FFFFFF;" version="1.1" viewBox="0 0 1311 458" width="1311px" zoomAndPan="magnify"><defs/><g><rect fill="#FFFFFF" height="60.3516" style="stroke:#181818;stroke-width:1.0;" width="10" x="620" y="69.9609"/><rect fill="#FFFFFF" height="30" style="stroke:#181818;stroke-width:1.0;" width="10" x="620" y="367.0703"/><rect fill="#FFFFFF" height="312.7578" style="stroke:#181818;stroke-width:1.0;" width="10" x="823" y="100.3125"/><rect fill="#FFFFFF" height="30" style="stroke:#181818;stroke-width:1.0;" width="10" x="1053" y="186.0156"/><rect fill="#FFFFFF" height="30" style="stroke:#181818;stroke-width:1.0;" width="10" x="1223" y="246.3672"/><rect fill="#FFFFFF" height="30" style="stroke:#181818;stroke-width:1.0;" width="10" x="1223" y="306.7188"/><rect height="259.7578" style="stroke:#000000;stroke-width:1.5;fill:none;" width="711.5" x="593.5" y="145.3125"/><line style="stroke:#181818;stroke-width:0.5;fill:none;stroke-dasharray:5.0,5.0;" x1="624.5" x2="624.5" y1="37.6094" y2="422.0703"/><line style="stroke:#181818;stroke-width:0.5;fill:none;stroke-dasharray:5.0,5.0;" x1="828" x2="828" y1="37.6094" y2="422.0703"/><line style="stroke:#181818;stroke-width:0.5;fill:none;stroke-dasharray:5.0,5.0;" x1="1058" x2="1058" y1="37.6094" y2="422.0703"/><line style="stroke:#181818;stroke-width:0.5;fill:none;stroke-dasharray:5.0,5.0;" x1="1228" x2="1228" y1="37.6094" y2="422.0703"/><rect fill="#E2E2F0" height="31.6094" rx="2.5" ry="2.5" style="stroke:#181818;stroke-width:0.5;" width="43" x="603.5" y="5"/><text fill="#000000" font-family="sans-serif" font-size="14" lengthAdjust="spacing" textLength="29" x="610.5" y="26.5332">:App</text><rect fill="#E2E2F0" height="31.6094" rx="2.5" ry="2.5" style="stroke:#181818;stroke-width:0.5;" width="43" x="603.5" y="421.0703"/><text fill="#000000" font-family="sans-serif" font-size="14" lengthAdjust="spacing" textLength="29" x="610.5" y="442.6035">:App</text><rect fill="#E2E2F0" height="31.6094" rx="2.5" ry="2.5" style="stroke:#181818;stroke-width:0.5;" width="74" x="791" y="5"/><text fill="#000000" font-family="sans-serif" font-size="14" lengthAdjust="spacing" textLength="60" x="798" y="26.5332">Company</text><rect fill="#E2E2F0" height="31.6094" rx="2.5" ry="2.5" style="stroke:#181818;stroke-width:0.5;" width="74" x="791" y="421.0703"/><text fill="#000000" font-family="sans-serif" font-size="14" lengthAdjust="spacing" textLength="60" x="798" y="442.6035">Company</text><rect fill="#E2E2F0" height="31.6094" rx="2.5" ry="2.5" style="stroke:#181818;stroke-width:0.5;" width="172" x="972" y="5"/><text fill="#000000" font-family="sans-serif" font-size="14" lengthAdjust="spacing" textLength="158" x="979" y="26.5332">Vaccination Center Store</text><rect fill="#E2E2F0" height="31.6094" rx="2.5" ry="2.5" style="stroke:#181818;stroke-width:0.5;" width="172" x="972" y="421.0703"/><text fill="#000000" font-family="sans-serif" font-size="14" lengthAdjust="spacing" textLength="158" x="979" y="442.6035">Vaccination Center Store</text><rect fill="#E2E2F0" height="31.6094" rx="2.5" ry="2.5" style="stroke:#181818;stroke-width:0.5;" width="134" x="1161" y="5"/><text fill="#000000" font-family="sans-serif" font-size="14" lengthAdjust="spacing" textLength="120" x="1168" y="26.5332">Vaccination Center</text><rect fill="#E2E2F0" height="31.6094" rx="2.5" ry="2.5" style="stroke:#181818;stroke-width:0.5;" width="134" x="1161" y="421.0703"/><text fill="#000000" font-family="sans-serif" font-size="14" lengthAdjust="spacing" textLength="120" x="1168" y="442.6035">Vaccination Center</text><rect fill="#FFFFFF" height="60.3516" style="stroke:#181818;stroke-width:1.0;" width="10" x="620" y="69.9609"/><rect fill="#FFFFFF" height="30" style="stroke:#181818;stroke-width:1.0;" width="10" x="620" y="367.0703"/><rect fill="#FFFFFF" height="312.7578" style="stroke:#181818;stroke-width:1.0;" width="10" x="823" y="100.3125"/><rect fill="#FFFFFF" height="30" style="stroke:#181818;stroke-width:1.0;" width="10" x="1053" y="186.0156"/><rect fill="#FFFFFF" height="30" style="stroke:#181818;stroke-width:1.0;" width="10" x="1223" y="246.3672"/><rect fill="#FFFFFF" height="30" style="stroke:#181818;stroke-width:1.0;" width="10" x="1223" y="306.7188"/><ellipse cx="7.5" cy="69.2109" fill="none" rx="4" ry="4" style="stroke:#181818;stroke-width:1.5;"/><polygon fill="#181818" points="608,65.9609,618,69.9609,608,73.9609,612,69.9609" style="stroke:#181818;stroke-width:1.0;"/><line style="stroke:#181818;stroke-width:1.0;stroke-dasharray:2.0,2.0;" x1="12" x2="614" y1="69.9609" y2="69.9609"/><text fill="#000000" font-family="sans-serif" font-size="13" font-weight="bold" lengthAdjust="spacing" textLength="7" x="15" y="65.1045">1</text><text fill="#000000" font-family="sans-serif" font-size="13" lengthAdjust="spacing" textLength="582" x="26" y="65.1045">asks to execute the daily task that records the total of people vaccinated for each vaccination center.</text><polygon fill="#181818" points="811,96.3125,821,100.3125,811,104.3125,815,100.3125" style="stroke:#181818;stroke-width:1.0;"/><line style="stroke:#181818;stroke-width:1.0;" x1="630" x2="817" y1="100.3125" y2="100.3125"/><text fill="#000000" font-family="sans-serif" font-size="13" font-weight="bold" lengthAdjust="spacing" textLength="7" x="637" y="95.4561">2</text><text fill="#000000" font-family="sans-serif" font-size="13" lengthAdjust="spacing" textLength="90" x="648" y="95.4561">runDailyTasks()</text><path d="M593.5,145.3125 L666.5,145.3125 L666.5,153.6641 L656.5,163.6641 L593.5,163.6641 L593.5,145.3125 " fill="#EEEEEE" style="stroke:#000000;stroke-width:1.5;"/><rect fill="none" height="259.7578" style="stroke:#000000;stroke-width:1.5;" width="711.5" x="593.5" y="145.3125"/><text fill="#000000" font-family="sans-serif" font-size="13" font-weight="bold" lengthAdjust="spacing" textLength="28" x="608.5" y="159.8076">loop</text><text fill="#000000" font-family="sans-serif" font-size="11" font-weight="bold" lengthAdjust="spacing" textLength="246" x="681.5" y="158.7314">[Vaccination Center Total Vaccinated People]</text><polygon fill="#181818" points="1041,182.0156,1051,186.0156,1041,190.0156,1045,186.0156" style="stroke:#181818;stroke-width:1.0;"/><line style="stroke:#181818;stroke-width:1.0;" x1="833" x2="1047" y1="186.0156" y2="186.0156"/><text fill="#000000" font-family="sans-serif" font-size="13" font-weight="bold" lengthAdjust="spacing" textLength="7" x="840" y="181.1592">3</text><text fill="#000000" font-family="sans-serif" font-size="13" lengthAdjust="spacing" textLength="190" x="851" y="181.1592">getVaccinationCenterWithIndex()</text><polygon fill="#181818" points="1211,242.3672,1221,246.3672,1211,250.3672,1215,246.3672" style="stroke:#181818;stroke-width:1.0;"/><line style="stroke:#181818;stroke-width:1.0;" x1="833" x2="1217" y1="246.3672" y2="246.3672"/><text fill="#000000" font-family="sans-serif" font-size="13" font-weight="bold" lengthAdjust="spacing" textLength="7" x="840" y="241.5107">4</text><text fill="#000000" font-family="sans-serif" font-size="13" lengthAdjust="spacing" textLength="321" x="851" y="241.5107">administeredVaccinesList = getAdministeredVaccines()</text><polygon fill="#181818" points="1211,302.7188,1221,306.7188,1211,310.7188,1215,306.7188" style="stroke:#181818;stroke-width:1.0;"/><line style="stroke:#181818;stroke-width:1.0;" x1="833" x2="1217" y1="306.7188" y2="306.7188"/><text fill="#000000" font-family="sans-serif" font-size="13" font-weight="bold" lengthAdjust="spacing" textLength="7" x="840" y="301.8623">5</text><text fill="#000000" font-family="sans-serif" font-size="13" lengthAdjust="spacing" textLength="360" x="851" y="301.8623">amountOfVaccinatedPeople = administeredVaccinesListSize()</text><polygon fill="#181818" points="641,363.0703,631,367.0703,641,371.0703,637,367.0703" style="stroke:#181818;stroke-width:1.0;"/><line style="stroke:#181818;stroke-width:1.0;" x1="635" x2="822" y1="367.0703" y2="367.0703"/><text fill="#000000" font-family="sans-serif" font-size="13" font-weight="bold" lengthAdjust="spacing" textLength="7" x="647" y="362.2139">6</text><text fill="#000000" font-family="sans-serif" font-size="13" lengthAdjust="spacing" textLength="163" x="658" y="362.2139">Print information to a csv file</text><!--MD5=[8e3faf4f3db1ce5b30e71c7854581879]
@startuml

autonumber

participant ":App" as A
participant "Company" as C
participant "Vaccination Center Store" as VCS
participant "Vaccination Center" as VC




[o- -> A :asks to execute the daily task that records the total of people vaccinated for each vaccination center.
activate A
A -> C : runDailyTasks()
activate C
deactivate A
loop Vaccination Center Total Vaccinated People
C -> VCS : getVaccinationCenterWithIndex()
activate VCS
deactivate VCS
C->VC :   administeredVaccinesList = getAdministeredVaccines()
activate VC
deactivate VC

C -> VC : amountOfVaccinatedPeople = administeredVaccinesListSize()

activate VC
deactivate VC
C -> A : Print information to a csv file
activate A
deactivate A
end

@enduml

PlantUML version 1.2022.5(Sat Apr 30 11:55:52 BST 2022)
(GPL source distribution)
Java Runtime: OpenJDK Runtime Environment
JVM: OpenJDK 64-Bit Server VM
Default Encoding: Cp1252
Language: pt
Country: PT
--></g></svg>