<?xml version="1.0" encoding="UTF-8" standalone="no"?><svg xmlns="http://www.w3.org/2000/svg" xmlns:xlink="http://www.w3.org/1999/xlink" contentStyleType="text/css" height="280px" preserveAspectRatio="none" style="width:716px;height:280px;background:#FFFFFF;" version="1.1" viewBox="0 0 716 280" width="716px" zoomAndPan="magnify"><defs/><g><rect fill="#FFFFFF" height="61.7031" style="stroke:#181818;stroke-width:1.0;" width="10" x="51.5" y="110.2188"/><rect fill="#FFFFFF" height="30.3516" style="stroke:#181818;stroke-width:1.0;" width="10" x="673.5" y="132.5703"/><line style="stroke:#181818;stroke-width:0.5;stroke-dasharray:5.0,5.0;" x1="56" x2="56" y1="100.2188" y2="180.9219"/><line style="stroke:#181818;stroke-width:0.5;stroke-dasharray:5.0,5.0;" x1="678.5" x2="678.5" y1="100.2188" y2="180.9219"/><text fill="#000000" font-family="sans-serif" font-size="14" lengthAdjust="spacing" textLength="93" x="5" y="79.5332">&lt;&lt;automatic&gt;&gt;</text><text fill="#000000" font-family="sans-serif" font-size="14" lengthAdjust="spacing" textLength="75" x="18" y="97.1426">Timer/Clock</text><ellipse cx="56.5" cy="13.5" fill="#E2E2F0" rx="8" ry="8" style="stroke:#181818;stroke-width:0.5;"/><path d="M56.5,21.5 L56.5,48.5 M43.5,29.5 L69.5,29.5 M56.5,48.5 L43.5,63.5 M56.5,48.5 L69.5,63.5 " fill="none" style="stroke:#181818;stroke-width:0.5;"/><text fill="#000000" font-family="sans-serif" font-size="14" lengthAdjust="spacing" textLength="93" x="5" y="194.4551">&lt;&lt;automatic&gt;&gt;</text><text fill="#000000" font-family="sans-serif" font-size="14" lengthAdjust="spacing" textLength="75" x="18" y="212.0645">Timer/Clock</text><ellipse cx="56.5" cy="223.6406" fill="#E2E2F0" rx="8" ry="8" style="stroke:#181818;stroke-width:0.5;"/><path d="M56.5,231.6406 L56.5,258.6406 M43.5,239.6406 L69.5,239.6406 M56.5,258.6406 L43.5,273.6406 M56.5,258.6406 L69.5,273.6406 " fill="none" style="stroke:#181818;stroke-width:0.5;"/><rect fill="#E2E2F0" height="31.6094" rx="2.5" ry="2.5" style="stroke:#181818;stroke-width:0.5;" width="64" x="646.5" y="67.6094"/><text fill="#000000" font-family="sans-serif" font-size="14" lengthAdjust="spacing" textLength="50" x="653.5" y="89.1426">:System</text><rect fill="#E2E2F0" height="31.6094" rx="2.5" ry="2.5" style="stroke:#181818;stroke-width:0.5;" width="64" x="646.5" y="179.9219"/><text fill="#000000" font-family="sans-serif" font-size="14" lengthAdjust="spacing" textLength="50" x="653.5" y="201.4551">:System</text><rect fill="#FFFFFF" height="61.7031" style="stroke:#181818;stroke-width:1.0;" width="10" x="51.5" y="110.2188"/><rect fill="#FFFFFF" height="30.3516" style="stroke:#181818;stroke-width:1.0;" width="10" x="673.5" y="132.5703"/><polygon fill="#181818" points="661.5,128.5703,671.5,132.5703,661.5,136.5703,665.5,132.5703" style="stroke:#181818;stroke-width:1.0;"/><line style="stroke:#181818;stroke-width:1.0;" x1="61.5" x2="667.5" y1="132.5703" y2="132.5703"/><text fill="#000000" font-family="sans-serif" font-size="13" font-weight="bold" lengthAdjust="spacing" textLength="7" x="68.5" y="127.7139">1</text><text fill="#000000" font-family="sans-serif" font-size="13" lengthAdjust="spacing" textLength="582" x="79.5" y="127.7139">asks to execute the daily task that records the total of people vaccinated for each vaccination center.</text><polygon fill="#181818" points="72.5,158.9219,62.5,162.9219,72.5,166.9219,68.5,162.9219" style="stroke:#181818;stroke-width:1.0;"/><line style="stroke:#181818;stroke-width:1.0;stroke-dasharray:2.0,2.0;" x1="66.5" x2="677.5" y1="162.9219" y2="162.9219"/><text fill="#000000" font-family="sans-serif" font-size="13" font-weight="bold" lengthAdjust="spacing" textLength="7" x="78.5" y="158.0654">2</text><text fill="#000000" font-family="sans-serif" font-size="13" lengthAdjust="spacing" textLength="406" x="89.5" y="158.0654">executes the task and exports a .csv file containing the recorded data.</text><!--MD5=[79c0d37781ca258e9f5a34923ee8654a]
@startuml
autonumber

actor "<<automatic>> \n Timer/Clock" as T

activate T
T -> ":System" : asks to execute the daily task that records the total of people vaccinated for each vaccination center.
activate ":System"
":System" - -> T : executes the task and exports a .csv file containing the recorded data.
deactivate ":System"

@enduml

PlantUML version 1.2022.5(Sat Apr 30 11:55:52 BST 2022)
(GPL source distribution)
Java Runtime: OpenJDK Runtime Environment
JVM: OpenJDK 64-Bit Server VM
Default Encoding: Cp1252
Language: pt
Country: PT
--></g></svg>