<?xml version="1.0" encoding="UTF-8" standalone="no"?><svg xmlns="http://www.w3.org/2000/svg" xmlns:xlink="http://www.w3.org/1999/xlink" contentStyleType="text/css" height="598px" preserveAspectRatio="none" style="width:931px;height:598px;background:#FFFFFF;" version="1.1" viewBox="0 0 931 598" width="931px" zoomAndPan="magnify"><defs/><g><!--MD5=[c4593935f45e4a2a0cefc4788932b53f]
class SnsUser--><g id="elem_SnsUser"><rect codeLine="7" fill="#F1F1F1" height="145.6563" id="SnsUser" rx="2.5" ry="2.5" style="stroke:#181818;stroke-width:0.5;" width="136" x="239" y="7"/><ellipse cx="276.95" cy="23" fill="#ADD1B2" rx="11" ry="11" style="stroke:#181818;stroke-width:1.0;"/><path d="M278.95,19.5 Q279.1531,19 279.3875,18.75 Q279.6219,18.5 279.8875,18.5 Q280.3563,18.5 280.6531,18.7813 Q280.95,19.0625 280.95,19.7188 L280.95,21.2813 Q280.95,21.9375 280.6688,22.2188 Q280.3875,22.5 279.95,22.5 Q279.5594,22.5 279.3094,22.3281 Q279.0594,22.1563 278.95,21.7031 Q278.9031,21.3906 278.7313,21.2188 Q278.4188,20.8906 277.8563,20.7031 Q277.2938,20.5 276.7313,20.5 Q276.0281,20.5 275.4344,20.7813 Q274.8563,21.0625 274.4031,21.6875 Q273.95,22.3125 273.95,23.1719 L273.95,24.0938 Q273.95,25.125 274.7938,25.8125 Q275.6375,26.5 277.1375,26.5 Q278.0281,26.5 278.6531,26.2969 Q279.0125,26.1875 279.4188,25.8281 Q279.6844,25.625 279.825,25.5625 Q279.9656,25.5 280.1375,25.5 Q280.4656,25.5 280.7,25.7656 Q280.95,26.0156 280.95,26.375 Q280.95,26.7188 280.6063,27.125 Q280.1063,27.7188 279.3094,28.0469 Q278.2625,28.5 276.9813,28.5 Q275.4813,28.5 274.2781,27.9063 Q273.3094,27.4375 272.6219,26.4219 Q271.95,25.4063 271.95,24.2031 L271.95,23.1094 Q271.95,21.8594 272.5438,20.7656 Q273.1531,19.6719 274.2,19.0938 Q275.2625,18.5 276.45,18.5 Q277.1688,18.5 277.7938,18.75 Q278.4188,19 278.95,19.5 Z " fill="#000000"/><text fill="#000000" font-family="sans-serif" font-size="14" lengthAdjust="spacing" textLength="53" x="296.05" y="28.7285">SnsUser</text><line style="stroke:#181818;stroke-width:0.5;" x1="240" x2="374" y1="39" y2="39"/><text fill="#000000" font-family="sans-serif" font-size="14" lengthAdjust="spacing" textLength="105" x="245" y="57.5332">-snsUserNumber</text><text fill="#000000" font-family="sans-serif" font-size="14" lengthAdjust="spacing" textLength="61" x="245" y="75.1426">-birthdate</text><text fill="#000000" font-family="sans-serif" font-size="14" lengthAdjust="spacing" textLength="94" x="245" y="92.752">-phoneNumber</text><text fill="#000000" font-family="sans-serif" font-size="14" lengthAdjust="spacing" textLength="26" x="245" y="110.3613">-sex</text><text fill="#000000" font-family="sans-serif" font-size="14" lengthAdjust="spacing" textLength="56" x="245" y="127.9707">-address</text><text fill="#000000" font-family="sans-serif" font-size="14" lengthAdjust="spacing" textLength="124" x="245" y="145.5801">-citizenCardNumber</text></g><!--MD5=[0e501da62322464167c8ec4d233a6b7e]
class VaccineType--><g id="elem_VaccineType"><rect codeLine="18" fill="#F1F1F1" height="92.8281" id="VaccineType" rx="2.5" ry="2.5" style="stroke:#181818;stroke-width:0.5;" width="139" x="785" y="469.5"/><ellipse cx="811.25" cy="485.5" fill="#ADD1B2" rx="11" ry="11" style="stroke:#181818;stroke-width:1.0;"/><path d="M813.25,482 Q813.4531,481.5 813.6875,481.25 Q813.9219,481 814.1875,481 Q814.6563,481 814.9531,481.2813 Q815.25,481.5625 815.25,482.2188 L815.25,483.7813 Q815.25,484.4375 814.9688,484.7188 Q814.6875,485 814.25,485 Q813.8594,485 813.6094,484.8281 Q813.3594,484.6563 813.25,484.2031 Q813.2031,483.8906 813.0313,483.7188 Q812.7188,483.3906 812.1563,483.2031 Q811.5938,483 811.0313,483 Q810.3281,483 809.7344,483.2813 Q809.1563,483.5625 808.7031,484.1875 Q808.25,484.8125 808.25,485.6719 L808.25,486.5938 Q808.25,487.625 809.0938,488.3125 Q809.9375,489 811.4375,489 Q812.3281,489 812.9531,488.7969 Q813.3125,488.6875 813.7188,488.3281 Q813.9844,488.125 814.125,488.0625 Q814.2656,488 814.4375,488 Q814.7656,488 815,488.2656 Q815.25,488.5156 815.25,488.875 Q815.25,489.2188 814.9063,489.625 Q814.4063,490.2188 813.6094,490.5469 Q812.5625,491 811.2813,491 Q809.7813,491 808.5781,490.4063 Q807.6094,489.9375 806.9219,488.9219 Q806.25,487.9063 806.25,486.7031 L806.25,485.6094 Q806.25,484.3594 806.8438,483.2656 Q807.4531,482.1719 808.5,481.5938 Q809.5625,481 810.75,481 Q811.4688,481 812.0938,481.25 Q812.7188,481.5 813.25,482 Z " fill="#000000"/><text fill="#000000" font-family="sans-serif" font-size="14" lengthAdjust="spacing" textLength="82" x="827.75" y="491.2285">VaccineType</text><line style="stroke:#181818;stroke-width:0.5;" x1="786" x2="923" y1="501.5" y2="501.5"/><text fill="#000000" font-family="sans-serif" font-size="14" lengthAdjust="spacing" textLength="74" x="791" y="520.0332">-description</text><text fill="#000000" font-family="sans-serif" font-size="14" lengthAdjust="spacing" textLength="36" x="791" y="537.6426">-code</text><text fill="#000000" font-family="sans-serif" font-size="14" lengthAdjust="spacing" textLength="127" x="791" y="555.252">-vaccineTechnology</text></g><!--MD5=[9b956c59b16436292d60adff39fe4d1c]
class ApplicationUser--><g id="elem_ApplicationUser"><rect codeLine="24" fill="#F1F1F1" height="110.4375" id="ApplicationUser" rx="2.5" ry="2.5" style="stroke:#181818;stroke-width:0.5;" width="130" x="7" y="25"/><ellipse cx="22" cy="41" fill="#ADD1B2" rx="11" ry="11" style="stroke:#181818;stroke-width:1.0;"/><path d="M24,37.5 Q24.2031,37 24.4375,36.75 Q24.6719,36.5 24.9375,36.5 Q25.4063,36.5 25.7031,36.7813 Q26,37.0625 26,37.7188 L26,39.2813 Q26,39.9375 25.7188,40.2188 Q25.4375,40.5 25,40.5 Q24.6094,40.5 24.3594,40.3281 Q24.1094,40.1563 24,39.7031 Q23.9531,39.3906 23.7813,39.2188 Q23.4688,38.8906 22.9063,38.7031 Q22.3438,38.5 21.7813,38.5 Q21.0781,38.5 20.4844,38.7813 Q19.9063,39.0625 19.4531,39.6875 Q19,40.3125 19,41.1719 L19,42.0938 Q19,43.125 19.8438,43.8125 Q20.6875,44.5 22.1875,44.5 Q23.0781,44.5 23.7031,44.2969 Q24.0625,44.1875 24.4688,43.8281 Q24.7344,43.625 24.875,43.5625 Q25.0156,43.5 25.1875,43.5 Q25.5156,43.5 25.75,43.7656 Q26,44.0156 26,44.375 Q26,44.7188 25.6563,45.125 Q25.1563,45.7188 24.3594,46.0469 Q23.3125,46.5 22.0313,46.5 Q20.5313,46.5 19.3281,45.9063 Q18.3594,45.4375 17.6719,44.4219 Q17,43.4063 17,42.2031 L17,41.1094 Q17,39.8594 17.5938,38.7656 Q18.2031,37.6719 19.25,37.0938 Q20.3125,36.5 21.5,36.5 Q22.2188,36.5 22.8438,36.75 Q23.4688,37 24,37.5 Z " fill="#000000"/><text fill="#000000" font-family="sans-serif" font-size="14" lengthAdjust="spacing" textLength="98" x="36" y="46.7285">ApplicationUser</text><line style="stroke:#181818;stroke-width:0.5;" x1="8" x2="136" y1="57" y2="57"/><text fill="#000000" font-family="sans-serif" font-size="14" lengthAdjust="spacing" textLength="40" x="13" y="75.5332">-name</text><text fill="#000000" font-family="sans-serif" font-size="14" lengthAdjust="spacing" textLength="38" x="13" y="93.1426">-email</text><text fill="#000000" font-family="sans-serif" font-size="14" lengthAdjust="spacing" textLength="65" x="13" y="110.752">-password</text><text fill="#000000" font-family="sans-serif" font-size="14" lengthAdjust="spacing" textLength="29" x="13" y="128.3613">-role</text></g><!--MD5=[dba9a92b96999febf7a21ca0aa8468a3]
class ScheduledVaccine--><g id="elem_ScheduledVaccine"><rect codeLine="31" fill="#F1F1F1" height="75.2188" id="ScheduledVaccine" rx="2.5" ry="2.5" style="stroke:#181818;stroke-width:0.5;" width="149" x="515" y="302.5"/><ellipse cx="530" cy="318.5" fill="#ADD1B2" rx="11" ry="11" style="stroke:#181818;stroke-width:1.0;"/><path d="M532,315 Q532.2031,314.5 532.4375,314.25 Q532.6719,314 532.9375,314 Q533.4063,314 533.7031,314.2813 Q534,314.5625 534,315.2188 L534,316.7813 Q534,317.4375 533.7188,317.7188 Q533.4375,318 533,318 Q532.6094,318 532.3594,317.8281 Q532.1094,317.6563 532,317.2031 Q531.9531,316.8906 531.7813,316.7188 Q531.4688,316.3906 530.9063,316.2031 Q530.3438,316 529.7813,316 Q529.0781,316 528.4844,316.2813 Q527.9063,316.5625 527.4531,317.1875 Q527,317.8125 527,318.6719 L527,319.5938 Q527,320.625 527.8438,321.3125 Q528.6875,322 530.1875,322 Q531.0781,322 531.7031,321.7969 Q532.0625,321.6875 532.4688,321.3281 Q532.7344,321.125 532.875,321.0625 Q533.0156,321 533.1875,321 Q533.5156,321 533.75,321.2656 Q534,321.5156 534,321.875 Q534,322.2188 533.6563,322.625 Q533.1563,323.2188 532.3594,323.5469 Q531.3125,324 530.0313,324 Q528.5313,324 527.3281,323.4063 Q526.3594,322.9375 525.6719,321.9219 Q525,320.9063 525,319.7031 L525,318.6094 Q525,317.3594 525.5938,316.2656 Q526.2031,315.1719 527.25,314.5938 Q528.3125,314 529.5,314 Q530.2188,314 530.8438,314.25 Q531.4688,314.5 532,315 Z " fill="#000000"/><text fill="#000000" font-family="sans-serif" font-size="14" lengthAdjust="spacing" textLength="117" x="544" y="324.2285">ScheduledVaccine</text><line style="stroke:#181818;stroke-width:0.5;" x1="516" x2="663" y1="334.5" y2="334.5"/><text fill="#000000" font-family="sans-serif" font-size="14" lengthAdjust="spacing" textLength="105" x="521" y="353.0332">-snsUserNumber</text><text fill="#000000" font-family="sans-serif" font-size="14" lengthAdjust="spacing" textLength="33" x="521" y="370.6426">-date</text></g><!--MD5=[de60e6d4f424ae4d0522096f76a59010]
class VaccinationCenter--><g id="elem_VaccinationCenter"><rect codeLine="36" fill="#F1F1F1" height="304.1406" id="VaccinationCenter" rx="2.5" ry="2.5" style="stroke:#181818;stroke-width:0.5;" width="148" x="233" y="188"/><ellipse cx="248" cy="204" fill="#ADD1B2" rx="11" ry="11" style="stroke:#181818;stroke-width:1.0;"/><path d="M250,200.5 Q250.2031,200 250.4375,199.75 Q250.6719,199.5 250.9375,199.5 Q251.4063,199.5 251.7031,199.7813 Q252,200.0625 252,200.7188 L252,202.2813 Q252,202.9375 251.7188,203.2188 Q251.4375,203.5 251,203.5 Q250.6094,203.5 250.3594,203.3281 Q250.1094,203.1563 250,202.7031 Q249.9531,202.3906 249.7813,202.2188 Q249.4688,201.8906 248.9063,201.7031 Q248.3438,201.5 247.7813,201.5 Q247.0781,201.5 246.4844,201.7813 Q245.9063,202.0625 245.4531,202.6875 Q245,203.3125 245,204.1719 L245,205.0938 Q245,206.125 245.8438,206.8125 Q246.6875,207.5 248.1875,207.5 Q249.0781,207.5 249.7031,207.2969 Q250.0625,207.1875 250.4688,206.8281 Q250.7344,206.625 250.875,206.5625 Q251.0156,206.5 251.1875,206.5 Q251.5156,206.5 251.75,206.7656 Q252,207.0156 252,207.375 Q252,207.7188 251.6563,208.125 Q251.1563,208.7188 250.3594,209.0469 Q249.3125,209.5 248.0313,209.5 Q246.5313,209.5 245.3281,208.9063 Q244.3594,208.4375 243.6719,207.4219 Q243,206.4063 243,205.2031 L243,204.1094 Q243,202.8594 243.5938,201.7656 Q244.2031,200.6719 245.25,200.0938 Q246.3125,199.5 247.5,199.5 Q248.2188,199.5 248.8438,199.75 Q249.4688,200 250,200.5 Z " fill="#000000"/><text fill="#000000" font-family="sans-serif" font-size="14" lengthAdjust="spacing" textLength="116" x="262" y="209.7285">VaccinationCenter</text><line style="stroke:#181818;stroke-width:0.5;" x1="234" x2="380" y1="220" y2="220"/><text fill="#000000" font-family="sans-serif" font-size="14" lengthAdjust="spacing" textLength="16" x="239" y="238.5332">-id</text><text fill="#000000" font-family="sans-serif" font-size="14" lengthAdjust="spacing" textLength="40" x="239" y="256.1426">-name</text><text fill="#000000" font-family="sans-serif" font-size="14" lengthAdjust="spacing" textLength="94" x="239" y="273.752">-phoneNumber</text><text fill="#000000" font-family="sans-serif" font-size="14" lengthAdjust="spacing" textLength="38" x="239" y="291.3613">-email</text><text fill="#000000" font-family="sans-serif" font-size="14" lengthAdjust="spacing" textLength="23" x="239" y="308.9707">-fax</text><text fill="#000000" font-family="sans-serif" font-size="14" lengthAdjust="spacing" textLength="52" x="239" y="326.5801">-website</text><text fill="#000000" font-family="sans-serif" font-size="14" lengthAdjust="spacing" textLength="86" x="239" y="344.1895">-openingHour</text><text fill="#000000" font-family="sans-serif" font-size="14" lengthAdjust="spacing" textLength="79" x="239" y="361.7988">-closingHour</text><text fill="#000000" font-family="sans-serif" font-size="14" lengthAdjust="spacing" textLength="81" x="239" y="379.4082">-slotDuration</text><text fill="#000000" font-family="sans-serif" font-size="14" lengthAdjust="spacing" textLength="106" x="239" y="397.0176">-vaccinesPerSlot</text><text fill="#000000" font-family="sans-serif" font-size="14" lengthAdjust="spacing" textLength="34" x="239" y="414.627">-road</text><text fill="#000000" font-family="sans-serif" font-size="14" lengthAdjust="spacing" textLength="56" x="239" y="432.2363">-zipCode</text><text fill="#000000" font-family="sans-serif" font-size="14" lengthAdjust="spacing" textLength="34" x="239" y="449.8457">-local</text><text fill="#000000" font-family="sans-serif" font-size="14" lengthAdjust="spacing" textLength="133" x="239" y="467.4551">-centerCoordinatorID</text><text fill="#000000" font-family="sans-serif" font-size="14" lengthAdjust="spacing" textLength="73" x="239" y="485.0645">-arrivalsList</text></g><!--MD5=[02e4b9b7573f1156f41e60aa5b4e25a4]
class Company--><g id="elem_Company"><rect fill="#F1F1F1" height="40" id="Company" rx="2.5" ry="2.5" style="stroke:#181818;stroke-width:0.5;" width="92" x="26" y="320"/><ellipse cx="41" cy="336" fill="#ADD1B2" rx="11" ry="11" style="stroke:#181818;stroke-width:1.0;"/><path d="M43,332.5 Q43.2031,332 43.4375,331.75 Q43.6719,331.5 43.9375,331.5 Q44.4063,331.5 44.7031,331.7813 Q45,332.0625 45,332.7188 L45,334.2813 Q45,334.9375 44.7188,335.2188 Q44.4375,335.5 44,335.5 Q43.6094,335.5 43.3594,335.3281 Q43.1094,335.1563 43,334.7031 Q42.9531,334.3906 42.7813,334.2188 Q42.4688,333.8906 41.9063,333.7031 Q41.3438,333.5 40.7813,333.5 Q40.0781,333.5 39.4844,333.7813 Q38.9063,334.0625 38.4531,334.6875 Q38,335.3125 38,336.1719 L38,337.0938 Q38,338.125 38.8438,338.8125 Q39.6875,339.5 41.1875,339.5 Q42.0781,339.5 42.7031,339.2969 Q43.0625,339.1875 43.4688,338.8281 Q43.7344,338.625 43.875,338.5625 Q44.0156,338.5 44.1875,338.5 Q44.5156,338.5 44.75,338.7656 Q45,339.0156 45,339.375 Q45,339.7188 44.6563,340.125 Q44.1563,340.7188 43.3594,341.0469 Q42.3125,341.5 41.0313,341.5 Q39.5313,341.5 38.3281,340.9063 Q37.3594,340.4375 36.6719,339.4219 Q36,338.4063 36,337.2031 L36,336.1094 Q36,334.8594 36.5938,333.7656 Q37.2031,332.6719 38.25,332.0938 Q39.3125,331.5 40.5,331.5 Q41.2188,331.5 41.8438,331.75 Q42.4688,332 43,332.5 Z " fill="#000000"/><text fill="#000000" font-family="sans-serif" font-size="14" lengthAdjust="spacing" textLength="60" x="55" y="341.7285">Company</text><line style="stroke:#181818;stroke-width:0.5;" x1="27" x2="117" y1="352" y2="352"/></g><!--MD5=[02353a41e484acdeee62cd612a479b38]
link SnsUser to ScheduledVaccine--><g id="link_SnsUser_ScheduledVaccine"><path codeLine="54" d="M375.19,142.28 C427.52,190.79 498.7,256.76 544.13,298.87 " fill="none" id="SnsUser-to-ScheduledVaccine" style="stroke:#181818;stroke-width:1.0;"/><polygon fill="#181818" points="547.9,302.36,544.0145,293.31,544.2315,298.9627,538.5788,299.1796,547.9,302.36" style="stroke:#181818;stroke-width:1.0;"/><polygon fill="#000000" points="419.667,173.5747,415.0312,165.2705,411.0355,169.5814,419.667,173.5747" style="stroke:#000000;stroke-width:1.0;"/><text fill="#000000" font-family="sans-serif" font-size="13" lengthAdjust="spacing" textLength="59" x="425" y="175.4951">schedules</text><text fill="#000000" font-family="sans-serif" font-size="13" lengthAdjust="spacing" textLength="7" x="383.0311" y="163.5">1</text><text fill="#000000" font-family="sans-serif" font-size="13" lengthAdjust="spacing" textLength="5" x="535.0447" y="291.7373">*</text></g><!--MD5=[ae7cf994a8037bd5ae694a195d04bab2]
reverse link ApplicationUser to SnsUser--><g id="link_ApplicationUser_SnsUser"><path codeLine="56" d="M157.58,80 C184.26,80 213.36,80 238.67,80 " fill="none" id="ApplicationUser-backto-SnsUser" style="stroke:#181818;stroke-width:1.0;"/><polygon fill="none" points="157.29,87,137.29,80,157.29,73,157.29,87" style="stroke:#181818;stroke-width:1.0;"/></g><!--MD5=[1be679a08cb8113d11b1816eb4e0394e]
link ScheduledVaccine to VaccineType--><g id="link_ScheduledVaccine_VaccineType"><path codeLine="58" d="M646.6,377.54 C685.69,403.7 738.2,438.84 780.54,467.17 " fill="none" id="ScheduledVaccine-to-VaccineType" style="stroke:#181818;stroke-width:1.0;"/><polygon fill="#181818" points="784.86,470.07,779.5903,461.7495,780.6997,467.2965,775.1527,468.4059,784.86,470.07" style="stroke:#181818;stroke-width:1.0;"/><polygon fill="#000000" points="703.1554,405.9565,697.2727,398.4836,694.0037,403.3686,703.1554,405.9565" style="stroke:#000000;stroke-width:1.0;"/><text fill="#000000" font-family="sans-serif" font-size="13" lengthAdjust="spacing" textLength="46" x="708" y="408.4951">has one</text><text fill="#000000" font-family="sans-serif" font-size="13" lengthAdjust="spacing" textLength="5" x="651.3256" y="399.1588">*</text><text fill="#000000" font-family="sans-serif" font-size="13" lengthAdjust="spacing" textLength="7" x="769.8603" y="479.4451">1</text></g><!--MD5=[05986564e1c13a00611587b35563d868]
link Company to VaccineType--><g id="link_Company_VaccineType"><path codeLine="60" d="M84.28,360.12 C106.79,397.94 161.34,478.63 233,510 C418.53,591.23 666.2,556.39 784.69,532.15 " fill="none" id="Company-VaccineType" style="stroke:#181818;stroke-width:1.0;"/><polygon fill="#000000" points="425.3557,547.3684,417.2727,542.3568,415.8707,548.065,425.3557,547.3684" style="stroke:#000000;stroke-width:1.0;"/><text fill="#000000" font-family="sans-serif" font-size="13" lengthAdjust="spacing" textLength="50" x="429.5" y="551.4951">storages</text><text fill="#000000" font-family="sans-serif" font-size="13" lengthAdjust="spacing" textLength="7" x="79.7494" y="381.5733">1</text><text fill="#000000" font-family="sans-serif" font-size="13" lengthAdjust="spacing" textLength="5" x="771.7811" y="548.3151">*</text></g><!--MD5=[7ea5958ae75d1b49d8885d6c52a43a8a]
link Company to SnsUser--><g id="link_Company_SnsUser"><path codeLine="62" d="M91.28,319.6 C123.04,284.16 189.84,209.62 240.55,153.03 " fill="none" id="Company-SnsUser" style="stroke:#181818;stroke-width:1.0;"/><polygon fill="#000000" points="175.3369,189.4522,167.1117,194.2269,171.4891,198.1496,175.3369,189.4522" style="stroke:#000000;stroke-width:1.0;"/><text fill="#000000" font-family="sans-serif" font-size="13" lengthAdjust="spacing" textLength="21" x="181" y="198.4951">has</text><text fill="#000000" font-family="sans-serif" font-size="13" lengthAdjust="spacing" textLength="7" x="88.7181" y="309.1571">1</text><text fill="#000000" font-family="sans-serif" font-size="13" lengthAdjust="spacing" textLength="5" x="229.1937" y="174.0271">*</text></g><!--MD5=[eebe9b198877275d05dd12630ed9e401]
link Company to VaccinationCenter--><g id="link_Company_VaccinationCenter"><path codeLine="64" d="M118.2,340 C150.76,340 195.38,340 232.96,340 " fill="none" id="Company-VaccinationCenter" style="stroke:#181818;stroke-width:1.0;"/><polygon fill="#000000" points="177,331.1758,167.9549,328.2369,167.9549,334.1147,177,331.1758" style="stroke:#000000;stroke-width:1.0;"/><text fill="#000000" font-family="sans-serif" font-size="13" lengthAdjust="spacing" textLength="21" x="181" y="336.4951">has</text><text fill="#000000" font-family="sans-serif" font-size="13" lengthAdjust="spacing" textLength="7" x="126.1209" y="354.7981">1</text><text fill="#000000" font-family="sans-serif" font-size="13" lengthAdjust="spacing" textLength="5" x="220.0668" y="354.331">*</text></g><!--MD5=[adcf0078a0299005c9f5ccec10b6ed04]
link VaccinationCenter to ScheduledVaccine--><g id="link_VaccinationCenter_ScheduledVaccine"><path codeLine="66" d="M381.33,340 C422.4,340 473.47,340 514.62,340 " fill="none" id="VaccinationCenter-ScheduledVaccine" style="stroke:#181818;stroke-width:1.0;"/><polygon fill="#000000" points="440,331.1758,430.9549,328.2369,430.9549,334.1147,440,331.1758" style="stroke:#000000;stroke-width:1.0;"/><text fill="#000000" font-family="sans-serif" font-size="13" lengthAdjust="spacing" textLength="21" x="444" y="336.4951">has</text><text fill="#000000" font-family="sans-serif" font-size="13" lengthAdjust="spacing" textLength="7" x="388.9914" y="354.293">1</text><text fill="#000000" font-family="sans-serif" font-size="13" lengthAdjust="spacing" textLength="5" x="502.0029" y="354.2892">*</text></g><!--MD5=[753a567561f31b6f8c53b9528c2b0d17]
@startuml

hide methods
left to right direction
skinparam classAttributeIconSize 0


class SnsUser {
-snsUserNumber
-birthdate
-phoneNumber
-sex
-address
-citizenCardNumber
}



class VaccineType{
-description
-code
-vaccineTechnology
}

class ApplicationUser {
    -name
    -email
    -password
    -role
}

class ScheduledVaccine {
-snsUserNumber
-date
}

class VaccinationCenter {
-id
-name
-phoneNumber
-email
-fax
-website
-openingHour
-closingHour
-slotDuration
-vaccinesPerSlot
-road
-zipCode
-local
-centerCoordinatorID
-arrivalsList
}

SnsUser "1" - -> "*" ScheduledVaccine: schedules >

ApplicationUser  <|- - SnsUser

ScheduledVaccine "*" - -> "1" VaccineType: has one  >

Company "1" - - - "*" VaccineType : storages >

Company "1" - - "*" SnsUser : has >

Company "1" - - "*" VaccinationCenter : has >

VaccinationCenter "1" - - "*" ScheduledVaccine : has >
@enduml

PlantUML version 1.2022.5(Sat Apr 30 11:55:52 BST 2022)
(GPL source distribution)
Java Runtime: OpenJDK Runtime Environment
JVM: OpenJDK 64-Bit Server VM
Default Encoding: Cp1252
Language: en
Country: US
--></g></svg>